<?xml version="1.0" encoding="utf-8"?>
<!-- Generator: Adobe Illustrator 16.0.0, SVG Export Plug-In . SVG Version: 6.00 Build 0)  -->
<!DOCTYPE svg PUBLIC "-//W3C//DTD SVG 1.1//EN" "http://www.w3.org/Graphics/SVG/1.1/DTD/svg11.dtd">
<svg version="1.1" id="_x3C_Layer_x3E_" xmlns="http://www.w3.org/2000/svg" xmlns:xlink="http://www.w3.org/1999/xlink" x="0px"
	 y="0px" width="64px" height="64px" viewBox="0 0 64 64" enable-background="new 0 0 64 64" xml:space="preserve">
<g id="gall_x2C__liver_x2C__organ">
	<path fill-rule="evenodd" clip-rule="evenodd" fill="#FF8A80" d="M16.5,34.5v3h12c5.522,0,10,4.478,10,10V59h3V47.5
		c0-7.18-5.82-13-13-13H16.5z"/>
	<path fill="#37474F" d="M42,59h-1V47.5C41,40.607,35.393,35,28.5,35H17v2h11.5C34.29,37,39,41.71,39,47.5V59h-1V47.5
		c0-5.238-4.262-9.5-9.5-9.5H16v-4h12.5C35.944,34,42,40.056,42,47.5V59z"/>
	<path fill="#CCFF90" d="M40.5,28.5c-3.313,0-6,2.687-6,6v7.721c-1.466-1.665-3.607-2.721-6-2.721h-5v2h5c3.313,0,6,2.687,6,6V59h2
		V47.5v-13c0-2.209,1.791-4,4-4V28.5z"/>
	<g>
		<path fill="#CCFF90" d="M36.5,59V47.5v-13c0-2.209,1.791-4,4-4v-2c-3.313,0-6,2.687-6,6v7.721c-1.466-1.665-3.607-2.721-6-2.721
			h-5v2h5c3.313,0,6,2.687,6,6V59H36.5z"/>
		<path fill="#37474F" d="M37,59h-1V34.5c0-2.313,1.753-4.223,4-4.473v-1.005c-2.799,0.253-5,2.613-5,5.478v9.045l-0.875-0.994
			C32.697,40.93,30.647,40,28.5,40H24v1h4.5c3.584,0,6.5,2.916,6.5,6.5V59h-1V47.5c0-3.032-2.467-5.5-5.5-5.5H23v-3h5.5
			c2.024,0,3.972,0.729,5.5,2.029V34.5c0-3.584,2.916-6.5,6.5-6.5H41v3h-0.5c-1.93,0-3.5,1.57-3.5,3.5V59z"/>
	</g>
	<g>
		<path fill-rule="evenodd" clip-rule="evenodd" fill="#CCFF90" d="M14.5,50.5h4c2.762,0,5-2.238,5-5v-5h-9V50.5z"/>
		<path fill="#37474F" d="M18.5,51H14V40h10v5.5C24,48.532,21.533,51,18.5,51z M15,50h3.5c2.481,0,4.5-2.019,4.5-4.5V41h-8V50z"/>
	</g>
	<path fill-rule="evenodd" clip-rule="evenodd" fill="#FFFFFF" d="M23.774,44.654l-1.682,0.413c-2.694,0.943-5.141,2.48-7.159,4.499
		l-4.313,4.313C8.731,55.769,5.5,54.43,5.5,51.758V27.5c0-9.389,7.611-17,17-17h33.265c2.422,0,3.845,2.722,2.464,4.711
		l-5.938,8.552c-2.146,3.089-5.158,5.472-8.658,6.847l-4.327,1.699c-2.828,1.111-5.35,2.886-7.351,5.173l-0.657,0.751
		C29.136,40.702,26.872,43.57,23.774,44.654z"/>
	<path fill-rule="evenodd" clip-rule="evenodd" fill="#FF8A80" d="M43.632,30.609c3.5-1.375,6.513-3.758,8.658-6.847l5.938-8.552
		c0.655-0.943,0.674-2.05,0.259-2.955C58.121,12.094,57.71,12,57.265,12H23c-8.837,0-16,7.163-16,16v25.258
		c0,0.451,0.098,0.859,0.261,1.226c1.06,0.481,2.387,0.369,3.36-0.604l4.313-4.313c2.019-2.019,4.465-3.556,7.159-4.499l1.682-0.413
		c3.098-1.084,5.361-3.952,7.522-6.422l0.657-0.751c2.001-2.287,4.522-4.062,7.351-5.173L43.632,30.609z"/>
	<path fill-rule="evenodd" clip-rule="evenodd" fill="#FF5252" d="M58.487,12.256c-0.225-0.1-0.472-0.162-0.728-0.204
		c-0.006,0.562-0.168,1.136-0.531,1.659l-5.938,8.552c-2.146,3.089-5.158,5.472-8.658,6.847l-4.327,1.699
		c-2.828,1.111-5.35,2.886-7.351,5.173l-0.657,0.751c-2.161,2.47-4.425,5.338-7.522,6.422l-1.682,0.413
		c-2.694,0.943-5.141,2.48-7.159,4.499l-4.313,4.313C8.864,53.137,7.894,53.367,7,53.208v0.05c0,0.451,0.098,0.859,0.261,1.226
		c1.06,0.481,2.387,0.369,3.36-0.604l4.313-4.313c2.019-2.019,4.465-3.556,7.159-4.499l1.682-0.413
		c3.098-1.084,5.361-3.952,7.522-6.422l0.657-0.751c2.001-2.287,4.522-4.062,7.351-5.173l4.327-1.699
		c3.5-1.375,6.513-3.758,8.658-6.847l5.938-8.552C58.884,14.268,58.902,13.161,58.487,12.256z"/>
	<path fill="#37474F" d="M8.522,55.264C6.791,55.264,5,53.952,5,51.758V27.5C5,17.851,12.851,10,22.5,10h33.265
		c1.327,0,2.486,0.702,3.101,1.877c0.615,1.176,0.531,2.529-0.226,3.619l-5.938,8.552c-2.209,3.182-5.282,5.611-8.886,7.027
		l-4.327,1.699c-2.742,1.077-5.217,2.818-7.157,5.036l-1.259,1.443c-1.966,2.271-4.195,4.845-7.132,5.872l-1.728,0.427
		c-2.562,0.899-4.972,2.414-6.925,4.367l-4.313,4.313C10.31,54.897,9.439,55.264,8.522,55.264z M22.5,11C13.402,11,6,18.402,6,27.5
		v24.258c0,1.568,1.282,2.506,2.522,2.506c0.459,0,1.136-0.128,1.746-0.738l4.313-4.313c2.059-2.059,4.599-3.655,7.348-4.617
		l1.728-0.427c2.64-0.927,4.684-3.287,6.661-5.57l1.262-1.446c2.045-2.338,4.654-4.173,7.544-5.31l4.328-1.699
		c3.418-1.343,6.333-3.647,8.43-6.666l5.938-8.552c0.541-0.778,0.601-1.745,0.162-2.585S56.712,11,55.765,11H22.5z"/>
	<path fill="#37474F" d="M37.798,33.151c-0.474,0-0.962-0.112-1.42-0.424C34.733,31.606,34,28.138,34,21.481h1
		c0,6.121,0.635,9.529,1.942,10.42c0.513,0.35,1.186,0.333,2.18-0.059l4.328-1.699c3.418-1.343,6.334-3.647,8.43-6.666l0.821,0.57
		c-2.209,3.182-5.282,5.611-8.886,7.027l-4.327,1.699C39.018,32.959,38.42,33.151,37.798,33.151z"/>
	<path fill="#37474F" d="M35,15h-1v-0.844C34,11.864,35.864,10,38.156,10H49.5v1H38.156C36.416,11,35,12.416,35,14.156V15z"/>
</g>
</svg>
