<?xml version="1.0" encoding="utf-8"?>
<!-- Generator: Adobe Illustrator 16.0.0, SVG Export Plug-In . SVG Version: 6.00 Build 0)  -->
<!DOCTYPE svg PUBLIC "-//W3C//DTD SVG 1.1//EN" "http://www.w3.org/Graphics/SVG/1.1/DTD/svg11.dtd">
<svg version="1.1" id="_x3C_Layer_x3E_" xmlns="http://www.w3.org/2000/svg" xmlns:xlink="http://www.w3.org/1999/xlink" x="0px"
	 y="0px" width="64px" height="64px" viewBox="0 0 64 64" enable-background="new 0 0 64 64" xml:space="preserve">
<g id="Capsule_x2C__drugs_x2C__medical_x2C__pills">
	<g>
		<path fill="#FFFFFF" d="M10.272,46.472L10.272,46.472c-4.261-1.97-6.12-7.021-4.151-11.282l11.325-24.51
			c1.969-4.262,7.02-6.12,11.281-4.151l0,0c4.261,1.97,6.12,7.021,4.151,11.281L21.554,42.32
			C19.585,46.582,14.534,48.44,10.272,46.472z"/>
		<path fill="#ECEFF1" d="M29.393,6.878c-4.102-1.477-8.722,0.399-10.585,4.431L7.483,35.819c-1.863,4.031-0.297,8.766,3.486,10.933
			c4.102,1.476,8.722-0.4,10.584-4.432l11.325-24.51C34.741,13.778,33.175,9.044,29.393,6.878z"/>
		<path fill="#ECEFF1" d="M29.393,6.878c-4.102-1.477-8.722,0.399-10.585,4.431L7.483,35.819c-1.863,4.031-0.297,8.766,3.486,10.933
			c4.102,1.476,8.722-0.4,10.584-4.432l11.325-24.51C34.741,13.778,33.175,9.044,29.393,6.878z"/>
		<path fill="#CFD8DC" d="M20.192,41.691c-1.754,3.796-5.953,5.679-9.861,4.653c0.206,0.144,0.417,0.28,0.638,0.407
			c4.102,1.476,8.722-0.4,10.584-4.432l5.538-11.985c-0.374,0.022-0.938,0.022-1.637-0.035L20.192,41.691z"/>
		<path fill="#37474F" d="M13.832,47.758c-1.306,0-2.574-0.28-3.769-0.832c-4.505-2.083-6.477-7.441-4.396-11.946l11.325-24.51
			c1.467-3.175,4.676-5.228,8.176-5.228c1.306,0,2.574,0.28,3.769,0.832c4.505,2.083,6.477,7.441,4.396,11.945L22.008,42.53
			C20.541,45.705,17.332,47.758,13.832,47.758z M25.168,6.242c-3.111,0-5.964,1.824-7.268,4.647L6.576,35.399
			c-1.851,4.004-0.098,8.768,3.907,10.618c1.062,0.491,2.189,0.74,3.35,0.74c3.111,0,5.964-1.824,7.268-4.647L32.424,17.6
			c1.851-4.003,0.098-8.767-3.907-10.617C27.456,6.491,26.329,6.242,25.168,6.242z"/>
		<path fill="#FF8A80" d="M29.393,6.878c-4.102-1.477-8.722,0.399-10.585,4.431l-5.891,12.75c0.906,1.07,2.803,2.898,6.198,4.467
			c3.912,1.808,6.803,1.88,7.977,1.81l5.787-12.524C34.741,13.778,33.175,9.044,29.393,6.878z"/>
		<path fill="#FF5252" d="M29.393,6.878c-0.24-0.087-0.481-0.159-0.724-0.223c3.314,2.313,4.602,6.729,2.848,10.525L25.455,30.3
			c0.699,0.058,1.263,0.058,1.637,0.035l5.787-12.524C34.741,13.778,33.175,9.044,29.393,6.878z"/>
		<path fill="#37474F" d="M26.054,30.643c-1.619,0-4.252-0.325-7.603-1.873c-5.248-2.425-7.028-5.459-7.102-5.587l-0.128-0.224
			l5.771-12.489c1.467-3.175,4.676-5.228,8.176-5.228c1.306,0,2.574,0.28,3.769,0.832c4.505,2.083,6.477,7.441,4.396,11.945
			l-5.771,12.49l-0.253,0.047C27.29,30.561,26.844,30.643,26.054,30.643z M12.354,22.893c0.49,0.702,2.354,3.046,6.517,4.969
			c3.353,1.55,5.94,1.781,7.183,1.781c0.364,0,0.643-0.02,0.824-0.037L32.424,17.6c1.851-4.003,0.098-8.767-3.907-10.617
			c-1.062-0.491-2.189-0.74-3.35-0.74c-3.111,0-5.964,1.824-7.268,4.647L12.354,22.893z"/>
	</g>
	<g>
		<g>
			<circle fill="#FFD740" cx="48" cy="18.5" r="9.5"/>
			<path fill="#37474F" d="M48,28.5c-5.514,0-10-4.486-10-10s4.486-10,10-10s10,4.486,10,10S53.514,28.5,48,28.5z M48,9.5
				c-4.962,0-9,4.037-9,9s4.038,9,9,9s9-4.037,9-9S52.962,9.5,48,9.5z"/>
		</g>
		<circle fill="#FFFFFF" cx="49" cy="17" r="9.5"/>
		<path fill="#FFE57F" d="M55.549,10.118c-0.18-0.172-0.37-0.327-0.56-0.481c-3.676-1.976-8.355-1.355-11.371,1.814
			c-3.617,3.801-3.468,9.814,0.333,13.431c0.18,0.172,0.37,0.327,0.56,0.481c3.676,1.976,8.355,1.355,11.371-1.814
			C59.499,19.748,59.35,13.734,55.549,10.118z"/>
		<g>
			<path fill="#FFE57F" d="M58.5,18h-19H58.5z"/>
			<rect x="39.5" y="17.5" fill="#FFFFFF" width="19" height="1"/>
		</g>
		<g>
			<path fill="#FFE57F" d="M58.5,17h-19H58.5z"/>
			<rect x="39.5" y="16.5" fill="#37474F" width="19" height="1"/>
		</g>
		<path fill="#37474F" d="M48.999,27c-2.577,0-5.024-0.979-6.892-2.756c-1.935-1.841-3.037-4.325-3.104-6.996
			c-0.066-2.67,0.912-5.207,2.753-7.142C43.662,8.104,46.235,7,49.001,7c2.577,0,5.024,0.979,6.892,2.756
			c1.935,1.841,3.037,4.325,3.104,6.996c0.066,2.67-0.912,5.207-2.753,7.142C54.338,25.896,51.765,27,48.999,27z M49.001,8
			c-2.49,0-4.806,0.993-6.521,2.796c-1.657,1.741-2.537,4.024-2.478,6.428s1.051,4.639,2.793,6.296c1.681,1.6,3.883,2.48,6.203,2.48
			c2.49,0,4.806-0.993,6.521-2.796c1.657-1.741,2.537-4.024,2.478-6.428s-1.051-4.639-2.793-6.296C53.523,8.881,51.321,8,49.001,8z"
			/>
	</g>
	<g>
		<g>
			<circle fill="#ECEFF1" cx="40.5" cy="46" r="13"/>
			<path fill="#37474F" d="M40.5,59.5C33.056,59.5,27,53.444,27,46s6.056-13.5,13.5-13.5S54,38.556,54,46S47.944,59.5,40.5,59.5z
				 M40.5,33.5C33.607,33.5,28,39.107,28,46s5.607,12.5,12.5,12.5S53,52.893,53,46S47.393,33.5,40.5,33.5z"/>
		</g>
		<circle fill="#FFFFFF" cx="41.5" cy="43.5" r="13"/>
		<path fill="#ECEFF1" d="M50.692,34.308c-1.47-1.47-3.208-2.501-5.054-3.119c-3.999-0.664-8.246,0.534-11.331,3.619
			c-5.077,5.077-5.077,13.308,0,18.385c1.47,1.47,3.208,2.501,5.054,3.119c3.999,0.664,8.246-0.534,11.331-3.619
			C55.769,47.615,55.769,39.385,50.692,34.308z"/>
		<g>
			<path fill="#ECEFF1" d="M33.308,53.192l18.385-18.385L33.308,53.192z"/>
			<rect x="42" y="31" transform="matrix(0.7071 0.7071 -0.7071 0.7071 43.5607 -17.1647)" fill="#FFFFFF" width="1" height="26"/>
		</g>
		<g>
			<path fill="#ECEFF1" d="M32.308,52.692l18.385-18.385L32.308,52.692z"/>
			
				<rect x="41" y="30.5" transform="matrix(0.7071 0.7071 -0.7071 0.7071 42.9142 -16.6041)" fill="#37474F" width="1" height="26"/>
		</g>
		<path fill="#37474F" d="M41.5,57c-3.606,0-6.996-1.404-9.546-3.954c-5.263-5.264-5.263-13.828,0-19.092
			C34.504,31.404,37.894,30,41.5,30s6.996,1.404,9.546,3.954c5.263,5.264,5.263,13.828,0,19.092C48.496,55.596,45.106,57,41.5,57z
			 M41.5,31c-3.339,0-6.478,1.3-8.839,3.661c-4.873,4.874-4.873,12.804,0,17.678C35.022,54.7,38.161,56,41.5,56
			s6.478-1.3,8.839-3.661c4.873-4.874,4.873-12.804,0-17.678C47.978,32.3,44.839,31,41.5,31z"/>
	</g>
</g>
</svg>
