<?xml version="1.0" encoding="utf-8"?>
<!-- Generator: Adobe Illustrator 16.0.0, SVG Export Plug-In . SVG Version: 6.00 Build 0)  -->
<!DOCTYPE svg PUBLIC "-//W3C//DTD SVG 1.1//EN" "http://www.w3.org/Graphics/SVG/1.1/DTD/svg11.dtd">
<svg version="1.1" id="_x3C_Layer_x3E_" xmlns="http://www.w3.org/2000/svg" xmlns:xlink="http://www.w3.org/1999/xlink" x="0px"
	 y="0px" width="64px" height="64px" viewBox="0 0 64 64" enable-background="new 0 0 64 64" xml:space="preserve">
<g id="fever_x2C__sick_3_">
	<g id="XMLID_2622_">
		<g id="creative_idea_6_">
			<g id="Public_Relations_6_">
				<path id="XMLID_2628_" fill="#FFFFFF" d="M57.435,35.869l-4.883-9.317l0.187-3.346c0-9.739-8.489-17.888-19.479-17.654
					C23.28,5.764,14.5,12.917,14.5,24.121c0,8.173,3.901,13.92,6.443,17.768c1.832,2.774-0.548,14.654-1.066,17.111h21.327
					l0.882-8.441h6.808c1.555,0,2.816-1.261,2.816-2.816V37.506h4.247C56.982,37.506,57.92,36.772,57.435,35.869z"/>
				<path id="XMLID_2627_" fill="#FFE0B2" d="M52.552,26.551l0.187-3.346c0-3.083-0.855-6.004-2.367-8.553
					c-3.465-4.672-9.307-7.746-16.112-7.601C24.28,7.264,15.5,14.417,15.5,25.621c0,8.173,3.901,13.92,6.443,17.768
					C23.523,45.781,21.97,54.945,21.18,59h20.023l0.882-8.441h6.808c1.555,0,2.816-1.261,2.816-2.816V37.506h4.247
					c1.025,0,1.963-0.733,1.479-1.637L52.552,26.551z"/>
				<polygon id="XMLID_2626_" fill="#E6CAA0" points="32.56,50.125 41.204,56 42.086,50.559 				"/>
				
					<rect id="XMLID_2625_" x="41.054" y="52.235" transform="matrix(0.9946 0.1036 -0.1036 0.9946 5.987 -4.0043)" fill="#37474F" width="1" height="6.833"/>
				<path id="XMLID_2624_" fill="#37474F" d="M20.356,59.153l-0.979-0.207c1.369-6.471,2.491-14.749,1.148-16.782l-0.14-0.212
					C17.843,38.106,14,32.295,14,24.121C14,13.25,22.28,5.052,33.259,5.052c12.137,0,19.979,7.126,19.979,18.154l-0.18,3.241
					l4.714,9.427c0.218,0.485,0.177,1.02-0.101,1.448C57.395,37.75,56.924,38,56.413,38h-4.217c0.008,0.774,0.078,2.314,0.469,3.319
					l-0.411,0.678l-4.5,0.5l-0.11-0.994l3.895-0.433c-0.401-1.541-0.342-3.488-0.339-3.581l0.5-0.483h4.714
					c0.173,0,0.326-0.083,0.42-0.228c0.094-0.145,0.107-0.318,0.036-0.476l-4.765-9.527l-0.052-0.251l0.187-3.346
					c-0.001-8.265-4.987-17.126-18.98-17.126C22.85,6.052,15,13.82,15,24.121c0,7.874,3.743,13.534,6.22,17.28l0.141,0.212
					C23.261,44.492,21.072,55.766,20.356,59.153z"/>
			</g>
		</g>
		<polygon id="XMLID_2623_" fill="#37474F" points="50.199,28 45.699,28 45.699,27 48.238,27 44.46,24.939 44.938,24.061 
			50.438,27.061 		"/>
	</g>
	<path id="XMLID_2621_" fill="#FFFFFF" d="M11.721,51.193L11.5,51.045V9.5c0-1.103-0.897-2-2-2s-2,0.897-2,2v41.545l-0.221,0.148
		C6.165,51.941,5.5,53.178,5.5,54.5c0,2.206,1.794,4,4,4s4-1.794,4-4C13.5,53.178,12.835,51.941,11.721,51.193z"/>
	<path id="XMLID_2618_" fill="#37474F" d="M9.5,59C7.019,59,5,56.981,5,54.5c0-1.488,0.759-2.888,2-3.722V9.5C7,8.122,8.122,7,9.5,7
		S12,8.122,12,9.5v41.278c1.241,0.833,2,2.234,2,3.722C14,56.981,11.981,59,9.5,59z M9.5,8C8.673,8,8,8.673,8,9.5v41.842
		l-0.249,0.145C6.655,52.125,6,53.251,6,54.5C6,56.43,7.57,58,9.5,58s3.5-1.57,3.5-3.5c0-1.249-0.655-2.375-1.751-3.013L11,51.342
		V9.5C11,8.673,10.327,8,9.5,8z"/>
	<circle id="XMLID_2617_" fill="#FF5252" cx="9.5" cy="54.5" r="2.5"/>
	<rect id="XMLID_2616_" x="9" y="18.5" fill="#FF5252" width="1" height="35.5"/>
	<g id="XMLID_2595_">
		<g id="XMLID_2614_">
			<rect id="XMLID_2615_" x="10" y="12" fill="#37474F" width="1.5" height="1"/>
		</g>
		<g id="XMLID_2612_">
			<rect id="XMLID_2613_" x="10" y="16" fill="#37474F" width="1.5" height="1"/>
		</g>
		<g id="XMLID_2610_">
			<rect id="XMLID_2611_" x="10" y="20" fill="#37474F" width="1.5" height="1"/>
		</g>
		<g id="XMLID_2608_">
			<rect id="XMLID_2609_" x="10" y="24" fill="#37474F" width="1.5" height="1"/>
		</g>
		<g id="XMLID_2606_">
			<rect id="XMLID_2607_" x="10" y="28" fill="#37474F" width="1.5" height="1"/>
		</g>
		<g id="XMLID_2604_">
			<rect id="XMLID_2605_" x="10" y="32" fill="#37474F" width="1.5" height="1"/>
		</g>
		<g id="XMLID_2602_">
			<rect id="XMLID_2603_" x="10" y="36" fill="#37474F" width="1.5" height="1"/>
		</g>
		<g id="XMLID_2600_">
			<rect id="XMLID_2601_" x="10" y="40" fill="#37474F" width="1.5" height="1"/>
		</g>
		<g id="XMLID_2598_">
			<rect id="XMLID_2599_" x="10" y="44" fill="#37474F" width="1.5" height="1"/>
		</g>
		<g id="XMLID_2596_">
			<rect id="XMLID_2597_" x="10" y="48" fill="#37474F" width="1.5" height="1"/>
		</g>
	</g>
	<path id="XMLID_2594_" fill="#37474F" d="M52.6,43.285l-0.801-0.6c-0.655,0.875-0.837,2.358-0.54,4.408
		c0.108,0.74-0.107,1.484-0.591,2.043c-0.479,0.553-1.145,0.857-1.877,0.857c0,0-0.001,0.006-0.002,0.006H35.186
		c-2.474-0.007-4.486-2.026-4.486-4.5v-0.514h-1V45.5c0,3.024,2.46,5.491,5.486,5.5h13.602c0.002,0,0.003,0,0.004,0
		c1.012,0,1.972-0.444,2.633-1.208c0.674-0.779,0.975-1.814,0.825-2.842C51.994,45.197,52.115,43.93,52.6,43.285z"/>
</g>
</svg>
