<?xml version="1.0" encoding="utf-8"?>
<!-- Generator: Adobe Illustrator 16.0.0, SVG Export Plug-In . SVG Version: 6.00 Build 0)  -->
<!DOCTYPE svg PUBLIC "-//W3C//DTD SVG 1.1//EN" "http://www.w3.org/Graphics/SVG/1.1/DTD/svg11.dtd">
<svg version="1.1" id="_x3C_Layer_x3E_" xmlns="http://www.w3.org/2000/svg" xmlns:xlink="http://www.w3.org/1999/xlink" x="0px"
	 y="0px" width="64px" height="64px" viewBox="0 0 64 64" enable-background="new 0 0 64 64" xml:space="preserve">
<g id="insurance_x2C__medical_insurance_x2C__nsurance_payments">
	<g id="protection_2_">
		<g>
			<path fill="#FFFFFF" d="M49,19.535c-4.16-1.297-7-5.11-7-9.535c0-0.258,0.011-0.52,0.034-0.785L28,6.025L13.966,9.215
				C13.988,9.48,14,9.742,14,10c0,4.425-2.84,8.238-7,9.535V30c0,20.639,18.557,27.185,21,27.956
				c1.146-0.359,5.824-1.975,10.435-5.659C45.445,46.693,49,39.192,49,30V19.535z"/>
		</g>
		<g>
			<path fill="#FF8A80" d="M42,10c0-0.007,0.001-0.014,0.001-0.02L28,7.025l-13.034,3.189C14.988,10.48,15,10.742,15,11
				c0,4.425-2.84,8.238-7,9.535V31c0,8.931,3.477,15.218,7.616,19.545c5.206,4.948,11.082,7,12.384,7.411
				c1.146-0.359,5.824-1.975,10.435-5.659C45.445,46.693,49,39.192,49,30V19.535C44.84,18.238,42,14.425,42,10z"/>
		</g>
		<g>
			<path fill="#FF5252" d="M42,10c0-0.007,0.001-0.014,0.001-0.02l-0.99-0.226C41.009,9.836,41,9.92,41,10
				c0,4.425,2.84,8.238,7,9.535V30c0,9.192-3.555,16.693-10.565,22.297c-4.108,3.283-8.264,4.92-9.933,5.493
				c0.2,0.068,0.375,0.127,0.498,0.166c1.146-0.359,5.824-1.975,10.435-5.659C45.445,46.693,49,39.192,49,30V19.535
				C44.84,18.238,42,14.425,42,10z"/>
		</g>
	</g>
	<g>
		<path fill="#37474F" d="M7,30V19.535c4.16-1.297,7-5.11,7-9.535c0-0.258-0.012-0.52-0.034-0.785L28,6.025l14.034,3.189
			C42.011,9.48,42,9.742,42,10c0,4.425,2.84,8.238,7,9.535v5.523C49.329,25.022,49.662,25,50,25c0-2.446,0-4.502,0-6.23
			c-4.006-0.911-7-4.488-7-8.77c0-0.532,0.055-1.051,0.144-1.559L28,5L12.856,8.441C12.945,8.949,13,9.468,13,10
			c0,4.281-2.994,7.858-7,8.77C6,21.564,6,25.217,6,30c0,18.725,14.579,26.181,20,28.307v-1.088C20.526,54.968,7,47.625,7,30z"/>
	</g>
	<g>
		<g>
			<g>
				<g>
					<rect x="27.5" y="54.5" fill="#FFD740" width="15" height="4"/>
				</g>
				<g>
					<path fill="#37474F" d="M42,55v3H28v-3H42L42,55z M43,54H27v5h16V54L43,54z"/>
				</g>
			</g>
			<g>
				<rect x="28" y="55" fill="#FFE57F" width="7" height="2"/>
			</g>
			<g>
				<rect x="28" y="55" fill="#FFFFFF" width="1" height="3"/>
			</g>
			<g>
				<rect x="36" y="55" fill="#37474F" width="1" height="3"/>
			</g>
			<g>
				<rect x="38" y="55" fill="#37474F" width="1" height="3"/>
			</g>
			<g>
				<rect x="40" y="55" fill="#37474F" width="1" height="3"/>
			</g>
		</g>
		<g>
			<g>
				<g>
					<rect x="26.5" y="50.5" fill="#FFD740" width="15" height="4"/>
				</g>
				<g>
					<path fill="#37474F" d="M41,51v3H27v-3H41L41,51z M42,50H26v5h16V50L42,50z"/>
				</g>
			</g>
			<g>
				<rect x="27" y="51" fill="#FFE57F" width="7" height="2"/>
			</g>
			<g>
				<rect x="27" y="51" fill="#FFFFFF" width="1" height="3"/>
			</g>
			<g>
				<rect x="35" y="51" fill="#37474F" width="1" height="3"/>
			</g>
			<g>
				<rect x="37" y="51" fill="#37474F" width="1" height="3"/>
			</g>
			<g>
				<rect x="39" y="51" fill="#37474F" width="1" height="3"/>
			</g>
		</g>
		<g>
			<g>
				<g>
					<rect x="42.5" y="54.5" fill="#FFD740" width="15" height="4"/>
				</g>
				<g>
					<path fill="#37474F" d="M57,55v3H43v-3H57L57,55z M58,54H42v5h16V54L58,54z"/>
				</g>
			</g>
			<g>
				<rect x="43" y="55" fill="#FFE57F" width="7" height="2"/>
			</g>
			<g>
				<rect x="43" y="55" fill="#FFFFFF" width="1" height="3"/>
			</g>
			<g>
				<rect x="51" y="55" fill="#37474F" width="1" height="3"/>
			</g>
			<g>
				<rect x="53" y="55" fill="#37474F" width="1" height="3"/>
			</g>
			<g>
				<rect x="55" y="55" fill="#37474F" width="1" height="3"/>
			</g>
		</g>
		<g>
			<g>
				<g>
					<rect x="41.5" y="42.5" fill="#FFD740" width="15" height="4"/>
				</g>
				<g>
					<path fill="#37474F" d="M56,43v3H42v-3H56L56,43z M57,42H41v5h16V42L57,42z"/>
				</g>
			</g>
			<g>
				<rect x="42" y="43" fill="#FFE57F" width="7" height="2"/>
			</g>
			<g>
				<rect x="42" y="43" fill="#FFFFFF" width="1" height="3"/>
			</g>
			<g>
				<rect x="50" y="43" fill="#37474F" width="1" height="3"/>
			</g>
			<g>
				<rect x="52" y="43" fill="#37474F" width="1" height="3"/>
			</g>
			<g>
				<rect x="54" y="43" fill="#37474F" width="1" height="3"/>
			</g>
		</g>
		<g>
			<g>
				<g>
					<rect x="41.5" y="50.5" fill="#FFD740" width="15" height="4"/>
				</g>
				<g>
					<path fill="#37474F" d="M56,51v3H42v-3H56L56,51z M57,50H41v5h16V50L57,50z"/>
				</g>
			</g>
			<g>
				<rect x="42" y="51" fill="#FFE57F" width="7" height="2"/>
			</g>
			<g>
				<rect x="42" y="51" fill="#FFFFFF" width="1" height="3"/>
			</g>
			<g>
				<rect x="50" y="51" fill="#37474F" width="1" height="3"/>
			</g>
			<g>
				<rect x="52" y="51" fill="#37474F" width="1" height="3"/>
			</g>
			<g>
				<rect x="54" y="51" fill="#37474F" width="1" height="3"/>
			</g>
		</g>
		<g>
			<g>
				<g>
					<rect x="42.5" y="46.5" fill="#FFD740" width="15" height="4"/>
				</g>
				<g>
					<path fill="#37474F" d="M57,47v3H43v-3H57L57,47z M58,46H42v5h16V46L58,46z"/>
				</g>
			</g>
			<g>
				<rect x="43" y="47" fill="#FFE57F" width="7" height="2"/>
			</g>
			<g>
				<rect x="43" y="47" fill="#FFFFFF" width="1" height="3"/>
			</g>
			<g>
				<rect x="51" y="47" fill="#37474F" width="1" height="3"/>
			</g>
			<g>
				<rect x="53" y="47" fill="#37474F" width="1" height="3"/>
			</g>
			<g>
				<rect x="55" y="47" fill="#37474F" width="1" height="3"/>
			</g>
		</g>
		<g>
			<g>
				<path fill="#FFFFFF" d="M50,41.5c-4.135,0-7.5-3.364-7.5-7.5s3.365-7.5,7.5-7.5s7.5,3.364,7.5,7.5S54.135,41.5,50,41.5z"/>
			</g>
			<g>
				<g>
					<path fill="#FFD740" d="M50.5,41c-3.86,0-7-3.142-7-7s3.14-7,7-7s7,3.142,7,7S54.36,41,50.5,41z"/>
				</g>
			</g>
			<g>
				<g>
					<g>
						<path fill="#37474F" d="M50,27c3.86,0,7,3.142,7,7s-3.14,7-7,7s-7-3.142-7-7S46.14,27,50,27L50,27z M50,26
							c-4.411,0-8,3.589-8,8s3.589,8,8,8s8-3.589,8-8S54.411,26,50,26L50,26z"/>
					</g>
				</g>
			</g>
			<g>
				<g>
					<path fill="#FFE57F" d="M50,39.5c-3.033,0-5.5-2.468-5.5-5.5s2.467-5.5,5.5-5.5s5.5,2.468,5.5,5.5S53.033,39.5,50,39.5z"/>
				</g>
			</g>
			<g>
				<g>
					<path fill="#37474F" d="M49.545,37.868v-0.962c-0.624-0.021-1.249-0.199-1.606-0.438l0.269-0.932
						c0.387,0.228,0.942,0.436,1.547,0.436c0.625,0,1.053-0.308,1.053-0.783c0-0.446-0.349-0.733-1.083-1.002
						c-1.041-0.377-1.715-0.853-1.715-1.775c0-0.853,0.595-1.508,1.597-1.686v-0.973h0.813v0.923
						c0.624,0.019,1.051,0.169,1.368,0.327l-0.268,0.912c-0.237-0.109-0.675-0.337-1.349-0.337c-0.694,0-0.942,0.356-0.942,0.694
						c0,0.407,0.357,0.635,1.2,0.973c1.111,0.416,1.606,0.952,1.606,1.835c0,0.843-0.586,1.587-1.677,1.766v1.021H49.545z"/>
				</g>
			</g>
		</g>
	</g>
	<g>
		<polygon id="XMLID_412_" fill="#FFFFFF" points="35.5,27.5 30.5,27.5 30.5,22.5 25.5,22.5 25.5,27.5 20.5,27.5 20.5,32.5 
			25.5,32.5 25.5,37.5 30.5,37.5 30.5,32.5 35.5,32.5 		"/>
		<path fill="#37474F" d="M31,38h-6v-5h-5v-6h5v-5h6v5h5v6h-5V38z M26,37h4v-5h5v-4h-5v-5h-4v5h-5v4h5V37z"/>
	</g>
</g>
</svg>
