<?xml version="1.0" encoding="utf-8"?>
<!-- Generator: Adobe Illustrator 16.0.0, SVG Export Plug-In . SVG Version: 6.00 Build 0)  -->
<!DOCTYPE svg PUBLIC "-//W3C//DTD SVG 1.1//EN" "http://www.w3.org/Graphics/SVG/1.1/DTD/svg11.dtd">
<svg version="1.1" id="_x3C_Layer_x3E_" xmlns="http://www.w3.org/2000/svg" xmlns:xlink="http://www.w3.org/1999/xlink" x="0px"
	 y="0px" width="64px" height="64px" viewBox="0 0 64 64" enable-background="new 0 0 64 64" xml:space="preserve">
<g id="Ambulance_x2C__car_x2C__emergency_1_">
	<g id="shipping_2_">
		<g>
			<g>
				<g>
					<path fill="#FFFFFF" d="M5.5,52.5V23c0-1.378,1.122-2.5,2.5-2.5h33c2.778,0,6.172,1.033,7.366,3.933l5.096,12.376l4.038,6.039
						V52.5H5.5z"/>
				</g>
			</g>
			<g>
				<path fill="#ECEFF1" d="M58,53v-9l-3.953-5.913l-5.143-12.464C47.804,22.952,44.616,22,42,22H8c-0.552,0-1,0.448-1,1v30H58z"/>
			</g>
			<g>
				<g>
					<g>
						<rect x="4" y="20" fill="#37474F" width="8" height="1"/>
					</g>
				</g>
				<g>
					<g>
						<rect x="4" y="12" fill="#37474F" width="9" height="1"/>
					</g>
				</g>
				<g>
					<g>
						<rect x="6" y="17" fill="#37474F" width="15" height="1"/>
					</g>
				</g>
			</g>
			<g>
				<g>
					<path fill="#18FFFF" d="M41.5,37c-1.104,0-2.5-1.396-2.5-2.5v-7c0-1.104,1.396-1.5,2.5-1.5H49l5,11H41.5z"/>
				</g>
				<g>
					<g>
						<path fill="#84FFFF" d="M48.967,26H46l-5,10h4l4.519-9.038C49.278,26.679,49.091,26.355,48.967,26z"/>
					</g>
					<g>
						<path fill="#84FFFF" d="M39.974,36H40l5-10h-2l-3.458,6.917v2.612C39.707,35.669,39.849,35.828,39.974,36z"/>
					</g>
				</g>
				<g>
					<path fill="#37474F" d="M53.462,36.81L53.129,36H41.5c-0.827,0-1.5-0.673-1.5-1.5v-7c0-0.827,0.673-1.5,1.5-1.5h7.178L48.6,25
						h-7.1c-1.378,0-2.5,1.122-2.5,2.5v7c0,1.378,1.122,2.5,2.5,2.5h12.09L53.462,36.81z"/>
				</g>
			</g>
			<g>
				<g>
					<g>
						<path fill="#18FFFF" d="M37.5,34.5c0,1.1-0.9,2-2,2h-9c-1.1,0-2-0.9-2-2v-7c0-1.1,0.9-2,2-2h9c1.1,0,2,0.9,2,2V34.5z"/>
					</g>
				</g>
				<g>
					<g>
						<polygon fill="#84FFFF" points="31,26 26,36 30,36 35,26 						"/>
					</g>
					<g>
						<path fill="#84FFFF" d="M25.21,35.581L30,26h-2l-3.292,6.583v2.448C24.904,35.19,25.068,35.377,25.21,35.581z"/>
					</g>
				</g>
				<g>
					<g>
						<path fill="#37474F" d="M35.5,37h-9c-1.378,0-2.5-1.122-2.5-2.5v-7c0-1.378,1.122-2.5,2.5-2.5h9c1.378,0,2.5,1.122,2.5,2.5v7
							C38,35.878,36.878,37,35.5,37z M26.5,26c-0.827,0-1.5,0.673-1.5,1.5v7c0,0.827,0.673,1.5,1.5,1.5h9c0.827,0,1.5-0.673,1.5-1.5
							v-7c0-0.827-0.673-1.5-1.5-1.5H26.5z"/>
					</g>
				</g>
			</g>
			<g>
				<g>
					<polygon fill="#FF5252" points="56.5,42 5,42 5,39 54.5,39 					"/>
				</g>
				<g>
					<polygon fill="#37474F" points="56,41 6,41 6,39 55,39 54.555,38 5,38 5,42 57.434,42 					"/>
				</g>
			</g>
			<g>
				<rect x="6" y="42" fill="#FFFFFF" width="51" height="1"/>
			</g>
			<g>
				<rect x="23" y="51" fill="#CFD8DC" width="19" height="1"/>
			</g>
			<g>
				<path fill="#37474F" d="M10.5,52H6V23c0-0.366,0.105-0.705,0.277-1H5.184C5.072,22.314,5,22.647,5,23v30h5.5V52z"/>
			</g>
			<g>
				<rect x="23.583" y="52" fill="#37474F" width="17.917" height="1"/>
			</g>
			<g>
				<path fill="#37474F" d="M57.832,42.445l-3.945-5.917l-5.059-12.285C47.541,21.115,43.94,20,41,20H14v1h27
					c2.761,0,5.853,1.07,6.904,3.624L53,37l4,6v9h-2.625v1H57l1-1v-9.303L57.832,42.445z"/>
			</g>
			<g>
				<g>
					<g>
						<rect x="5" y="49" fill="#CFD8DC" width="14.563" height="4"/>
					</g>
				</g>
				<g>
					<g>
						<path fill="#CFD8DC" d="M58,51.5v-2c0-0.553,0.052-0.5-0.5-0.5h-9.688v4H57.5C58.052,53,58,52.053,58,51.5z"/>
					</g>
				</g>
				<g>
					<polygon fill="#ECEFF1" points="11,50 6,50 6,49 12,49 					"/>
				</g>
				<g>
					<g>
						<path fill="#37474F" d="M57.5,48h-5.242c0.343,0.268,0.598,0.615,0.78,1H57.5c0.276,0,0.5,0.225,0.5,0.5v2
							c0,0.275-0.224,0.5-0.5,0.5h-3.014c0.086,0.325,0.126,0.662,0.114,1h2.9c0.827,0,1.5-0.673,1.5-1.5v-2
							C59,48.673,58.327,48,57.5,48z"/>
					</g>
				</g>
				<g>
					<g>
						<path fill="#37474F" d="M10.681,52H6v-3h6.133c0.167-0.382,0.409-0.724,0.729-1H5v5h5.622
							C10.594,52.665,10.612,52.328,10.681,52z"/>
					</g>
				</g>
				<g>
					<g>
						<g>
							<g>
								<g>
									<path fill="#FFFFFF" d="M23.5,53c0-3.586-2.914-6.5-6.5-6.5s-6.5,2.914-6.5,6.5H23.5z"/>
								</g>
							</g>
						</g>
						<g>
							<g>
								<g>
									<path fill="#37474F" d="M11,53c0-3.309,2.691-6,6-6s6,2.691,6,6h1c0-3.859-3.14-7-7-7s-7,3.141-7,7H11z"/>
								</g>
							</g>
						</g>
					</g>
				</g>
				<g>
					<g>
						<g>
							<g>
								<g>
									<path fill="#FFFFFF" d="M54.5,53c0-3.586-2.914-6.5-6.5-6.5s-6.5,2.914-6.5,6.5H54.5z"/>
								</g>
							</g>
						</g>
						<g>
							<g>
								<g>
									<path fill="#37474F" d="M42,53c0-3.309,2.691-6,6-6s6,2.691,6,6h1c0-3.859-3.14-7-7-7s-7,3.141-7,7H42z"/>
								</g>
							</g>
						</g>
					</g>
				</g>
				<g>
					<g>
						<rect x="55" y="50" fill="#37474F" width="3" height="1"/>
					</g>
				</g>
				<g>
					<g>
						<rect x="55" y="49" fill="#FFD740" width="3" height="1"/>
					</g>
				</g>
			</g>
			<g>
				<g>
					<g>
						<g>
							<g>
								<path fill="#ECEFF1" d="M21.5,53c0,2.482-2.017,4.5-4.5,4.5s-4.5-2.018-4.5-4.5s2.017-4.5,4.5-4.5S21.5,50.518,21.5,53z"/>
							</g>
						</g>
						<g>
							<g>
								<path fill="#37474F" d="M17,58c-2.757,0-5-2.243-5-5s2.243-5,5-5s5,2.243,5,5S19.757,58,17,58z M17,49c-2.206,0-4,1.795-4,4
									s1.794,4,4,4s4-1.795,4-4S19.206,49,17,49z"/>
							</g>
						</g>
					</g>
				</g>
				<g>
					<g>
						<g>
							<g>
								<circle fill="#84FFFF" cx="17" cy="53" r="2"/>
							</g>
						</g>
						<g>
							<g>
								<path fill="#37474F" d="M17,55.5c-1.378,0-2.5-1.121-2.5-2.5s1.122-2.5,2.5-2.5s2.5,1.121,2.5,2.5S18.378,55.5,17,55.5z
									 M17,51.5c-0.827,0-1.5,0.673-1.5,1.5s0.673,1.5,1.5,1.5s1.5-0.673,1.5-1.5S17.827,51.5,17,51.5z"/>
							</g>
						</g>
					</g>
				</g>
			</g>
			<g>
				<g>
					<g>
						<g>
							<g>
								<path fill="#ECEFF1" d="M52.5,53c0,2.482-2.017,4.5-4.5,4.5s-4.5-2.018-4.5-4.5s2.017-4.5,4.5-4.5S52.5,50.518,52.5,53z"/>
							</g>
						</g>
						<g>
							<g>
								<path fill="#37474F" d="M48,58c-2.757,0-5-2.243-5-5s2.243-5,5-5s5,2.243,5,5S50.757,58,48,58z M48,49c-2.206,0-4,1.795-4,4
									s1.794,4,4,4s4-1.795,4-4S50.206,49,48,49z"/>
							</g>
						</g>
					</g>
				</g>
				<g>
					<g>
						<g>
							<g>
								<circle fill="#84FFFF" cx="48" cy="53" r="2"/>
							</g>
						</g>
						<g>
							<g>
								<path fill="#37474F" d="M48,55.5c-1.378,0-2.5-1.121-2.5-2.5s1.122-2.5,2.5-2.5s2.5,1.121,2.5,2.5S49.378,55.5,48,55.5z
									 M48,51.5c-0.827,0-1.5,0.673-1.5,1.5s0.673,1.5,1.5,1.5s1.5-0.673,1.5-1.5S48.827,51.5,48,51.5z"/>
							</g>
						</g>
					</g>
				</g>
			</g>
			<g>
				<g>
					<rect x="6" y="50" fill="#FF5252" width="1" height="2"/>
				</g>
			</g>
		</g>
	</g>
	<g>
		<g>
			<polygon fill="#FFFFFF" points="57,47 54.5,47 53.5,44 57,44 			"/>
		</g>
		<g>
			<path fill="#37474F" d="M58,47h-3.86l-1.333-4H58V47z M54.86,46H57v-2h-2.806L54.86,46z"/>
		</g>
	</g>
	<g>
		<g>
			<circle fill="#FF8A80" cx="15" cy="31" r="5"/>
		</g>
		<g>
			<path fill="#37474F" d="M15,36.5c-3.033,0-5.5-2.467-5.5-5.5s2.467-5.5,5.5-5.5s5.5,2.467,5.5,5.5S18.033,36.5,15,36.5z M15,26.5
				c-2.481,0-4.5,2.019-4.5,4.5s2.019,4.5,4.5,4.5s4.5-2.019,4.5-4.5S17.481,26.5,15,26.5z"/>
		</g>
	</g>
	<g>
		<g>
			<rect x="14" y="29" fill="#FF5252" width="1" height="5"/>
		</g>
		<g>
			<rect x="14" y="28" fill="#37474F" width="2" height="6"/>
		</g>
	</g>
	<g>
		<g>
			<rect x="12" y="31" fill="#FF5252" width="5" height="1"/>
		</g>
		<g>
			<path fill="#37474F" d="M18,32h-6v-2h6V32z M13,31h4H13z"/>
		</g>
	</g>
	<g>
		<g>
			<polygon fill="#FF5252" points="40.5,21 35.5,21 36.5,18 39.5,18 			"/>
		</g>
		<g>
			<path fill="#37474F" d="M41.194,21h-6.388l1.333-4h3.721L41.194,21z M36.194,20h3.612l-0.667-2H36.86L36.194,20z"/>
		</g>
	</g>
	<g>
		<g>
			<g>
				
					<rect x="41.32" y="12.241" transform="matrix(-0.809 -0.5878 0.5878 -0.809 67.5754 49.4412)" fill="#37474F" width="1" height="3"/>
			</g>
		</g>
		<g>
			<g>
				
					<rect x="43.682" y="15.491" transform="matrix(-0.309 -0.951 0.951 -0.309 41.6762 64.2616)" fill="#37474F" width="1" height="3"/>
			</g>
		</g>
		<g>
			<g>
				<rect x="31.318" y="15.491" transform="matrix(0.309 -0.951 0.951 0.309 5.8253 42.001)" fill="#37474F" width="1" height="3"/>
			</g>
		</g>
		<g>
			<g>
				
					<rect x="33.679" y="12.241" transform="matrix(0.809 -0.5878 0.5878 0.809 -1.5489 22.7162)" fill="#37474F" width="1" height="3"/>
			</g>
		</g>
		<g>
			<g>
				<rect x="37.5" y="11" fill="#37474F" width="1" height="3"/>
			</g>
		</g>
	</g>
</g>
</svg>
