<?xml version="1.0" encoding="utf-8"?>
<!-- Generator: Adobe Illustrator 16.0.0, SVG Export Plug-In . SVG Version: 6.00 Build 0)  -->
<!DOCTYPE svg PUBLIC "-//W3C//DTD SVG 1.1//EN" "http://www.w3.org/Graphics/SVG/1.1/DTD/svg11.dtd">
<svg version="1.1" id="_x3C_Layer_x3E_" xmlns="http://www.w3.org/2000/svg" xmlns:xlink="http://www.w3.org/1999/xlink" x="0px"
	 y="0px" width="64px" height="64px" viewBox="0 0 64 64" enable-background="new 0 0 64 64" xml:space="preserve">
<g id="Ultrasound">
	<g>
		<g>
			<g>
				<g>
					<g>
						<path fill="#FFFFFF" d="M58.5,52.5c0,1.1-0.9,2-2,2h-49c-1.1,0-2-0.9-2-2v-41c0-1.1,0.9-2,2-2h49c1.1,0,2,0.9,2,2V52.5z"/>
					</g>
				</g>
			</g>
			<g>
				<g>
					<g>
						<path fill="#37474F" d="M56.5,55h-49C6.121,55,5,53.878,5,52.5v-41C5,10.122,6.121,9,7.5,9h49c1.379,0,2.5,1.122,2.5,2.5v41
							C59,53.878,57.879,55,56.5,55z M7.5,10C6.673,10,6,10.673,6,11.5v41C6,53.327,6.673,54,7.5,54h49c0.827,0,1.5-0.673,1.5-1.5
							v-41c0-0.827-0.673-1.5-1.5-1.5H7.5z"/>
					</g>
				</g>
			</g>
			<g>
				<g>
					<g>
						<path fill="#ECEFF1" d="M56.5,54c0.827,0,1.5-0.673,1.5-1.5v-40c0-0.827-0.673-1.5-1.5-1.5h-49C6.673,11,6,11.673,6,12.5v40
							C6,53.327,6.673,54,7.5,54H56.5z"/>
					</g>
				</g>
			</g>
			<g>
				<g>
					<g>
						<path fill="#37474F" d="M56.5,55h-49C6.121,55,5,53.878,5,52.5v-41C5,10.122,6.121,9,7.5,9h49c1.379,0,2.5,1.122,2.5,2.5v41
							C59,53.878,57.879,55,56.5,55z M7.5,10C6.673,10,6,10.673,6,11.5v41C6,53.327,6.673,54,7.5,54h49c0.827,0,1.5-0.673,1.5-1.5
							v-41c0-0.827-0.673-1.5-1.5-1.5H7.5z"/>
					</g>
				</g>
			</g>
		</g>
		<g>
			<g>
				<rect x="8.5" y="12.5" fill="#CFD8DC" width="47" height="38"/>
			</g>
			<g>
				<path fill="#37474F" d="M56,51H8V12h48V51z M9,50h46V13H9V50z"/>
			</g>
		</g>
		<g>
			<g>
				<path fill="#CFD8DC" d="M32,47.252c7.595,0,14.792-1.673,21.264-4.652L37.912,15.269c-1.748,0.985-3.762,1.552-5.912,1.552
					s-4.164-0.567-5.912-1.552L10.736,42.6C17.208,45.579,24.405,47.252,32,47.252z"/>
			</g>
			<g>
				<path fill="#37474F" d="M32,47.752c-7.477,0-14.701-1.581-21.473-4.698l-0.492-0.227l15.862-28.24l0.436,0.246
					c3.455,1.946,7.879,1.946,11.334,0l0.436-0.246l15.862,28.24l-0.492,0.227C46.701,46.171,39.477,47.752,32,47.752z
					 M11.439,42.37c6.496,2.908,13.411,4.382,20.561,4.382s14.064-1.474,20.561-4.382L37.717,15.941
					c-3.533,1.808-7.9,1.808-11.434,0L11.439,42.37z"/>
			</g>
		</g>
		<g>
			<g>
				<path fill="#ECEFF1" d="M28.75,43.5c8.563,0,10.188-6.375,11.188-7.375S43.041,33.07,43,29
					c-0.041-4.167-5.291-5.833-8.016-4.969c-2.99,0.949-3.242,4.984-3.242,4.984S30.74,30.175,30.5,31c-0.375,1.292,0,3,0,3
					L29,33.25c0,0-0.406-3.063-2.406-3.063S23,30.5,23,30.5s1-1.5,0-2s-2.051,1.358-2.219,2.344C20.5,32.5,24,33,24,33
					s-2.586,0.171-4,3C18,40,21.482,43.5,28.75,43.5z"/>
			</g>
			<g>
				<path fill="#37474F" d="M28.75,44c-4.433,0-7.768-1.283-9.149-3.519c-0.855-1.384-0.872-3.055-0.048-4.705
					c0.735-1.472,1.762-2.284,2.64-2.731c-0.619-0.236-1.25-0.583-1.61-1.076c-0.265-0.363-0.366-0.781-0.294-1.209
					c0.169-0.993,1.131-2.844,2.366-2.844c0.196,0,0.388,0.046,0.569,0.137c0.346,0.173,0.579,0.453,0.673,0.809
					c0.089,0.333,0.041,0.688-0.053,1.003c0.671-0.085,1.647-0.177,2.75-0.177c2.041,0,2.692,2.404,2.855,3.229l0.42,0.209
					c-0.059-0.647-0.068-1.511,0.15-2.265c0.223-0.765,0.953-1.7,1.238-2.046c0.088-0.827,0.628-4.324,3.575-5.26
					c0.513-0.163,1.095-0.245,1.731-0.245c2.856,0,6.896,1.764,6.936,5.686c0.043,4.233-2.13,6.405-3.174,7.449
					c-0.171,0.17-0.385,0.553-0.611,0.957C38.517,39.542,36.022,44,28.75,44z M22.654,28.916c-0.491,0-1.242,1.199-1.38,2.012
					c-0.028,0.165,0.008,0.304,0.115,0.452c0.438,0.602,1.877,1.01,2.682,1.125c0.253,0.037,0.438,0.259,0.428,0.514
					c-0.01,0.256-0.211,0.463-0.466,0.48c-0.093,0.007-2.326,0.204-3.586,2.725c-0.674,1.347-0.672,2.638,0.004,3.731
					C21.63,41.862,24.731,43,28.75,43c6.687,0,8.902-3.96,10.093-6.087c0.295-0.527,0.508-0.907,0.741-1.141
					c1.056-1.055,2.954-2.953,2.916-6.767c-0.031-3.203-3.561-4.695-5.936-4.695c-0.526,0-1.021,0.068-1.429,0.198
					c-2.623,0.833-2.893,4.502-2.895,4.54c-0.007,0.109-0.05,0.213-0.121,0.295c-0.259,0.3-0.969,1.208-1.14,1.797
					c-0.334,1.15,0.005,2.738,0.008,2.753c0.041,0.188-0.029,0.383-0.182,0.501c-0.153,0.119-0.359,0.138-0.53,0.053l-1.5-0.75
					c-0.147-0.074-0.25-0.217-0.271-0.381c-0.004-0.026-0.375-2.629-1.911-2.629c-1.923,0-3.482,0.3-3.498,0.303
					c-0.19,0.037-0.398-0.045-0.511-0.213s-0.112-0.386-0.002-0.554c0.19-0.288,0.424-0.821,0.348-1.106
					c-0.016-0.056-0.045-0.116-0.154-0.17C22.734,28.926,22.695,28.916,22.654,28.916z"/>
			</g>
		</g>
		<g>
			<g>
				<path fill="#37474F" d="M26.75,38c-0.163,0-0.323-0.08-0.419-0.228c-0.15-0.231-0.085-0.541,0.146-0.692
					c1.461-0.95,2.277-2.451,2.031-3.736c-0.052-0.271,0.126-0.533,0.397-0.585c0.265-0.052,0.533,0.126,0.585,0.397
					c0.326,1.707-0.643,3.576-2.469,4.764C26.938,37.974,26.844,38,26.75,38z"/>
			</g>
		</g>
		<g>
			<g>
				<path fill="#ECEFF1" d="M33.375,38.125c-1.084,0.292-4.896-1.792-5.063-3.5s0.24-2.625,1.406-2.583s0.875,2.115,0.875,2.115
					s1.781,2.219,3.531,1.302L33.375,38.125z"/>
			</g>
			<g>
				<path fill="#37474F" d="M33.138,38.652c-0.908,0-2.267-0.651-3.259-1.338c-0.724-0.5-1.953-1.509-2.064-2.64
					c-0.122-1.252,0.053-2.109,0.533-2.621c0.338-0.36,0.797-0.539,1.389-0.511c0.377,0.013,0.701,0.17,0.938,0.452
					c0.479,0.572,0.473,1.541,0.438,1.996c0.398,0.429,1.647,1.619,2.779,1.026c0.244-0.128,0.547-0.034,0.676,0.211
					c0.128,0.245,0.033,0.547-0.211,0.675c-2.093,1.095-4.071-1.329-4.153-1.432c-0.086-0.107-0.124-0.246-0.105-0.382
					c0.06-0.437,0.04-1.176-0.19-1.451c-0.046-0.054-0.099-0.091-0.207-0.095c-0.395-0.016-0.539,0.106-0.625,0.197
					c-0.184,0.196-0.38,0.674-0.266,1.838c0.05,0.518,0.678,1.251,1.637,1.916c1.228,0.85,2.459,1.239,2.798,1.15
					c0.27-0.071,0.541,0.087,0.612,0.353c0.072,0.267-0.086,0.541-0.353,0.613C33.394,38.638,33.271,38.652,33.138,38.652z"/>
			</g>
		</g>
		<g>
			<g>
				<path fill="#FFFFFF" d="M32.791,29.625c0,0-0.479-0.656-1.104-0.406L32.791,29.625z"/>
			</g>
			<g>
				<path fill="#37474F" d="M32.791,30.125c-0.152,0-0.304-0.07-0.401-0.202c-0.011-0.014-0.263-0.343-0.517-0.24
					c-0.255,0.104-0.547-0.023-0.649-0.279c-0.103-0.256,0.021-0.547,0.278-0.65c0.772-0.31,1.43,0.215,1.693,0.576
					c0.162,0.223,0.113,0.536-0.109,0.698C32.997,30.094,32.894,30.125,32.791,30.125z"/>
			</g>
		</g>
	</g>
	<g>
		<g>
			<g>
				<g>
					<rect x="10" y="45" fill="#37474F" width="2" height="1"/>
				</g>
			</g>
		</g>
		<g>
			<g>
				<g>
					<rect x="10" y="39" fill="#37474F" width="2" height="1"/>
				</g>
			</g>
		</g>
		<g>
			<g>
				<g>
					<rect x="10" y="36" fill="#37474F" width="2" height="1"/>
				</g>
			</g>
		</g>
		<g>
			<g>
				<g>
					<rect x="10" y="33" fill="#37474F" width="2" height="1"/>
				</g>
			</g>
		</g>
		<g>
			<g>
				<g>
					<rect x="10" y="30" fill="#37474F" width="2" height="1"/>
				</g>
			</g>
		</g>
		<g>
			<g>
				<g>
					<rect x="10" y="27" fill="#37474F" width="2" height="1"/>
				</g>
			</g>
		</g>
		<g>
			<g>
				<g>
					<rect x="10" y="24" fill="#37474F" width="2" height="1"/>
				</g>
			</g>
		</g>
		<g>
			<g>
				<g>
					<rect x="10" y="21" fill="#37474F" width="2" height="1"/>
				</g>
			</g>
		</g>
		<g>
			<g>
				<g>
					<rect x="10" y="18" fill="#37474F" width="2" height="1"/>
				</g>
			</g>
		</g>
		<g>
			<g>
				<g>
					<rect x="10" y="15" fill="#37474F" width="2" height="1"/>
				</g>
			</g>
		</g>
	</g>
	<g>
		<g>
			<rect x="47" y="15" fill="#37474F" width="6" height="1"/>
		</g>
	</g>
	<g>
		<g>
			<rect x="50" y="17" fill="#37474F" width="3" height="1"/>
		</g>
	</g>
	<g>
		<g>
			<rect x="9" y="13" fill="#84FFFF" width="46" height="1"/>
		</g>
	</g>
	<g>
		<g>
			<rect x="9" y="49" fill="#84FFFF" width="46" height="1"/>
		</g>
	</g>
	<g>
		<g>
			<rect x="8" y="51" fill="#FFFFFF" width="48" height="1"/>
		</g>
	</g>
</g>
</svg>
