<?xml version="1.0" encoding="utf-8"?>
<!-- Generator: Adobe Illustrator 16.0.0, SVG Export Plug-In . SVG Version: 6.00 Build 0)  -->
<!DOCTYPE svg PUBLIC "-//W3C//DTD SVG 1.1//EN" "http://www.w3.org/Graphics/SVG/1.1/DTD/svg11.dtd">
<svg version="1.1" id="_x3C_Layer_x3E_" xmlns="http://www.w3.org/2000/svg" xmlns:xlink="http://www.w3.org/1999/xlink" x="0px"
	 y="0px" width="64px" height="64px" viewBox="0 0 64 64" enable-background="new 0 0 64 64" xml:space="preserve">
<g id="blood_transfusion">
	<g>
		<path fill="#ECEFF1" d="M11.103,6.186C7.951,7.21,6,10.187,6,13.5v17c0,9.941,6.059,18,16,18l0,0c9.941,0,17-8.059,17-18v-17
			c0-3.313-2.451-6.29-5.603-7.314C29.75,5,27.578,4,22.75,4S14.75,5,11.103,6.186z"/>
	</g>
	<g>
		<g>
			<path fill="#37474F" d="M59,59h-1V13.5c0-3.033-2.468-5.5-5.5-5.5S47,10.467,47,13.5v39c0,3.584-2.916,6.5-6.5,6.5h-12
				c-3.584,0-6.5-2.916-6.5-6.5V41h1v11.5c0,3.033,2.468,5.5,5.5,5.5h12c3.032,0,5.5-2.467,5.5-5.5v-39C46,9.916,48.916,7,52.5,7
				S59,9.916,59,13.5V59z"/>
		</g>
	</g>
	<g>
		<g>
			<path fill="#FFFFFF" d="M16,44.135l1,4.365c0,0.552-0.553,1,0,1s1-0.448,1-1v-3.33c1,0.211,2,0.33,3,0.33l1,3
				c0,0.552-0.553,1,0,1s1-0.448,1-1v-3c2,0,3-0.119,3-0.33l1,3.33c0,0.552-0.553,1,0,1s1-0.448,1-1v-4.365
				c5-2.249,8-7.053,8-12.635v-16c0-3.313-2.187-5.5-5.5-5.5h-16C11.187,10,9,12.187,9,15.5v16C9,37.082,12,41.886,16,44.135z"/>
		</g>
		<g>
			<path fill="#FF5252" d="M31.339,10.071C31.064,10.038,30.793,10,30.5,10h-15c-3.032,0-5.5,2.467-5.5,5.5v16
				c0,5.171,3.028,9.953,7.715,12.183L17,43.819V48.5c0,0.276,0.225,0.5,0.5,0.5s0.5-0.224,0.5-0.5v-3.33v-0.621l0.606,0.132
				C19.576,44.893,20.55,45,21.5,45H22v3.5c0,0.276,0.225,0.5,0.5,0.5s0.5-0.224,0.5-0.5v-3V45h0.5c0.95,0,1.924-0.107,2.894-0.319
				L27,44.549V48.5c0,0.276,0.225,0.5,0.5,0.5s0.5-0.224,0.5-0.5v-4.365v-0.316l0.285-0.136C32.972,41.453,36,36.671,36,31.5v-16
				c0-0.292-0.037-0.565-0.071-0.839C35.565,12.3,33.699,10.435,31.339,10.071z"/>
		</g>
		<g>
			<path fill="#37474F" d="M33.802,5.71c-0.514-0.167-0.997-0.33-1.464-0.487C29.482,4.26,27.228,3.5,23,3.5
				c-5.003,0-8.306,1.074-11.802,2.21C7.606,6.877,5,10.154,5,13.5v17c0,7.671,3.99,13.953,10,16.817v-1.122
				c-5.426-2.8-9-8.624-9-15.696v-17c0-2.878,2.367-5.818,5.507-6.839C14.927,5.55,18.156,4.5,23,4.5
				c4.063,0,6.142,0.701,9.019,1.67c0.47,0.158,0.957,0.323,1.475,0.491C36.633,7.682,39,10.622,39,13.5v17
				c0,7.072-3.574,12.896-9,15.696v1.122c6.01-2.864,10-9.146,10-16.817v-17C40,10.154,37.394,6.877,33.802,5.71z"/>
		</g>
		<g>
			<path fill="#37474F" d="M27.5,50c-0.827,0-1.5-0.673-1.5-1.5v-2.722c-0.669,0.118-1.339,0.189-2,0.213V48.5
				c0,0.827-0.673,1.5-1.5,1.5S21,49.327,21,48.5v-2.509c-0.661-0.024-1.331-0.095-2-0.213V48.5c0,0.827-0.673,1.5-1.5,1.5
				S16,49.327,16,48.5v-4.053c-4.87-2.451-8-7.498-8-12.947v-16C8,11.916,10.916,9,14.5,9h16c3.584,0,6.5,2.916,6.5,6.5v16
				c0,5.449-3.13,10.496-8,12.947V48.5C29,49.327,28.327,50,27.5,50z M27,44.549V48.5c0,0.276,0.225,0.5,0.5,0.5s0.5-0.224,0.5-0.5
				v-4.681l0.285-0.136C32.972,41.453,36,36.671,36,31.5v-16c0-3.033-2.468-5.5-5.5-5.5h-16C11.468,10,9,12.467,9,15.5v16
				c0,5.171,3.028,9.953,7.715,12.183L17,43.819V48.5c0,0.276,0.225,0.5,0.5,0.5s0.5-0.224,0.5-0.5v-3.951l0.606,0.132
				C19.576,44.893,20.55,45,21.5,45H22v3.5c0,0.276,0.225,0.5,0.5,0.5s0.5-0.224,0.5-0.5V45h0.5c0.95,0,1.924-0.107,2.894-0.319
				L27,44.549z"/>
		</g>
	</g>
	<g>
		<g>
			<g>
				<path fill="#FFFFFF" d="M48,45c0,0.552-0.447,1-1,1h-1c-0.553,0-1-1.448-1-2v-6c0-0.552-0.553-1,0-1h3c0.553,0,0,0.448,0,1V45z"
					/>
			</g>
		</g>
		<g>
			<g>
				<path fill="#37474F" d="M47.5,46h-2c-0.827,0-1.5-0.673-1.5-1.5v-7c0-0.827,0.673-1.5,1.5-1.5h2c0.827,0,1.5,0.673,1.5,1.5v7
					C49,45.327,48.327,46,47.5,46z M45.5,37c-0.275,0-0.5,0.224-0.5,0.5v7c0,0.276,0.225,0.5,0.5,0.5h2c0.275,0,0.5-0.224,0.5-0.5
					v-7c0-0.276-0.225-0.5-0.5-0.5H45.5z"/>
			</g>
		</g>
	</g>
	<g>
		<g>
			<rect x="46" y="39" fill="#37474F" width="1" height="4"/>
		</g>
	</g>
	<g>
		<g>
			<rect x="46" y="39" fill="#FF5252" width="1" height="2"/>
		</g>
	</g>
	<g>
		<g>
			<path fill="#37474F" d="M24.5,7H23V6.5C23,6.225,22.775,6,22.5,6S22,6.225,22,6.5V7h-1.5C20.225,7,20,7.225,20,7.5
				S20.225,8,20.5,8h4C24.775,8,25,7.775,25,7.5S24.775,7,24.5,7z"/>
		</g>
	</g>
	<g>
		<g>
			<g>
				<g>
					<rect x="11" y="38" fill="#37474F" width="8" height="1"/>
				</g>
			</g>
		</g>
		<g>
			<g>
				<g>
					<rect x="11" y="34" fill="#37474F" width="6" height="1"/>
				</g>
			</g>
		</g>
		<g>
			<g>
				<g>
					<rect x="11" y="30" fill="#37474F" width="6" height="1"/>
				</g>
			</g>
		</g>
		<g>
			<g>
				<g>
					<rect x="11" y="26" fill="#37474F" width="8" height="1"/>
				</g>
			</g>
		</g>
		<g>
			<g>
				<g>
					<rect x="11" y="22" fill="#37474F" width="6" height="1"/>
				</g>
			</g>
		</g>
		<g>
			<g>
				<g>
					<rect x="11" y="18" fill="#37474F" width="6" height="1"/>
				</g>
			</g>
		</g>
		<g>
			<g>
				<g>
					<rect x="11" y="14" fill="#37474F" width="8" height="1"/>
				</g>
			</g>
		</g>
	</g>
</g>
</svg>
