<?xml version="1.0" encoding="utf-8"?>
<!-- Generator: Adobe Illustrator 16.0.0, SVG Export Plug-In . SVG Version: 6.00 Build 0)  -->
<!DOCTYPE svg PUBLIC "-//W3C//DTD SVG 1.1//EN" "http://www.w3.org/Graphics/SVG/1.1/DTD/svg11.dtd">
<svg version="1.1" id="_x3C_Layer_x3E_" xmlns="http://www.w3.org/2000/svg" xmlns:xlink="http://www.w3.org/1999/xlink" x="0px"
	 y="0px" width="64px" height="64px" viewBox="0 0 64 64" enable-background="new 0 0 64 64" xml:space="preserve">
<g id="medical_apps">
	<g id="phone_1_">
		<g>
			<g>
				<g>
					<g>
						<g>
							<g>
								<g>
									<path fill="#FFFFFF" d="M10,58.5c-2.481,0-4.5-2.019-4.5-4.5V10c0-2.481,2.019-4.5,4.5-4.5h20c2.481,0,4.5,2.019,4.5,4.5
										v44c0,2.481-2.019,4.5-4.5,4.5H10z"/>
								</g>
							</g>
						</g>
					</g>
				</g>
			</g>
		</g>
		<g>
			<path fill="#CFD8DC" d="M10,56c-1.65,0-3-1.35-3-3V10c0-1.65,1.35-3,3-3h20c1.65,0,3,1.35,3,3v43c0,1.65-1.35,3-3,3H10z"/>
		</g>
		<g>
			<g>
				<g>
					<g>
						<g>
							<g>
								<g>
									<rect x="16" y="7" fill="#37474F" width="8" height="1"/>
								</g>
							</g>
						</g>
					</g>
				</g>
			</g>
		</g>
	</g>
	<g>
		<g>
			<g>
				<path fill="#37474F" d="M50.5,28.5c-4.449,0-8.5-3.4-8.5-7.134V9.871c0-2.069,1.806-3.817,3.944-3.817v1
					C44.348,7.054,43,8.344,43,9.871v11.495c0,3.153,3.645,6.134,7.5,6.134s7.5-2.981,7.5-6.134V9.871
					c0-1.5-1.408-2.817-3.013-2.817v-1C57.162,6.054,59,7.802,59,9.871v11.495C59,25.1,54.949,28.5,50.5,28.5z"/>
			</g>
		</g>
		<g>
			<g>
				<path fill="#37474F" d="M50.5,24.874c-4.345,0-8.312-3.244-8.494-6.874H42v-0.26h1c0,3.153,3.645,6.134,7.5,6.134
					S58,20.893,58,17.74v-1.428h1L58.994,18C58.812,21.63,54.845,24.874,50.5,24.874z"/>
			</g>
		</g>
		<g>
			<g>
				<g>
					<path fill="#CFD8DC" d="M56,6.946c0,0.55-0.45,1-1,1l0,0c-0.55,0-1-0.45-1-1l0,0c0-0.55,0.45-1,1-1l0,0
						C55.55,5.946,56,6.396,56,6.946L56,6.946z"/>
				</g>
			</g>
			<g>
				<g>
					<path fill="#37474F" d="M55,8.446c-0.827,0-1.5-0.673-1.5-1.5s0.673-1.5,1.5-1.5s1.5,0.673,1.5,1.5S55.827,8.446,55,8.446z
						 M55,6.446c-0.276,0-0.5,0.224-0.5,0.5s0.224,0.5,0.5,0.5s0.5-0.224,0.5-0.5S55.276,6.446,55,6.446z"/>
				</g>
			</g>
		</g>
		<g>
			<g>
				<g>
					<path fill="#CFD8DC" d="M47,6.946c0,0.55-0.45,1-1,1l0,0c-0.55,0-1-0.45-1-1l0,0c0-0.55,0.45-1,1-1l0,0
						C46.55,5.946,47,6.396,47,6.946L47,6.946z"/>
				</g>
			</g>
			<g>
				<g>
					<path fill="#37474F" d="M46,8.446c-0.827,0-1.5-0.673-1.5-1.5s0.673-1.5,1.5-1.5s1.5,0.673,1.5,1.5S46.827,8.446,46,8.446z
						 M46,6.446c-0.276,0-0.5,0.224-0.5,0.5s0.224,0.5,0.5,0.5s0.5-0.224,0.5-0.5S46.276,6.446,46,6.446z"/>
				</g>
			</g>
		</g>
		<g>
			<g>
				<circle fill="#ECEFF1" cx="20.5" cy="42" r="4"/>
			</g>
			<g>
				<path fill="#37474F" d="M20.5,46.5c-2.481,0-4.5-2.019-4.5-4.5s2.019-4.5,4.5-4.5S25,39.519,25,42S22.981,46.5,20.5,46.5z
					 M20.5,38.5c-1.93,0-3.5,1.57-3.5,3.5s1.57,3.5,3.5,3.5S24,43.93,24,42S22.43,38.5,20.5,38.5z"/>
			</g>
		</g>
		<g>
			<g>
				<path fill="#37474F" d="M34,20.514V54c0,2.205-1.794,4-4,4H10c-2.206,0-4-1.795-4-4V10c0-2.205,1.794-4,4-4h20
					c2.206,0,4,1.795,4,4v7.027c0.344,0.165,0.678,0.346,1,0.545V10c0-2.75-2.25-5-5-5H10c-2.75,0-5,2.25-5,5v44c0,2.75,2.25,5,5,5
					h20c2.75,0,5-2.25,5-5V21.418C34.694,21.087,34.36,20.786,34,20.514z"/>
			</g>
		</g>
		<g>
			<g>
				<g>
					<path fill="#37474F" d="M44.5,45c-3.584,0-6.5-2.916-6.5-6.5v-12c0-4.687-3.813-8.5-8.5-8.5S21,21.813,21,26.5V42h-1V26.5
						c0-5.238,4.262-9.5,9.5-9.5s9.5,4.262,9.5,9.5v12c0,3.033,2.467,5.5,5.5,5.5s5.5-2.467,5.5-5.5V28h1v10.5
						C51,42.084,48.084,45,44.5,45z"/>
				</g>
			</g>
		</g>
		<g>
			<g>
				<circle fill="#CFD8DC" cx="20.5" cy="42" r="1.5"/>
			</g>
			<g>
				<path fill="#37474F" d="M20.5,44c-1.103,0-2-0.897-2-2s0.897-2,2-2s2,0.897,2,2S21.603,44,20.5,44z M20.5,41
					c-0.551,0-1,0.449-1,1s0.449,1,1,1s1-0.449,1-1S21.051,41,20.5,41z"/>
			</g>
		</g>
	</g>
</g>
</svg>
