<?xml version="1.0" encoding="utf-8"?>
<!-- Generator: Adobe Illustrator 16.0.0, SVG Export Plug-In . SVG Version: 6.00 Build 0)  -->
<!DOCTYPE svg PUBLIC "-//W3C//DTD SVG 1.1//EN" "http://www.w3.org/Graphics/SVG/1.1/DTD/svg11.dtd">
<svg version="1.1" id="_x3C_Layer_x3E_" xmlns="http://www.w3.org/2000/svg" xmlns:xlink="http://www.w3.org/1999/xlink" x="0px"
	 y="0px" width="64px" height="64px" viewBox="0 0 64 64" enable-background="new 0 0 64 64" xml:space="preserve">
<g id="stop_x2C__Corona_virus_x2C__Covid-19_1_">
	<g id="XMLID_1740_">
		<circle id="XMLID_2081_" fill="#FFFFFF" cx="31.597" cy="31.864" r="13.411"/>
		<path id="XMLID_2080_" fill="#84FFFF" d="M33.098,19.954c-7.406,0-13.411,6.004-13.411,13.411c0,3.321,1.214,6.354,3.214,8.697
			c2.342,2,5.375,3.214,8.697,3.214c7.406,0,13.41-6.004,13.41-13.411c0-3.321-1.214-6.354-3.213-8.697
			C39.451,21.167,36.418,19.954,33.098,19.954z"/>
		<path id="XMLID_2079_" fill="#18FFFF" d="M41.627,22.983c-0.168-0.149-0.35-0.285-0.525-0.426c1.259,2.039,1.99,4.436,1.99,7.008
			c0,7.406-6.004,13.411-13.41,13.411c-3.168,0-6.062-1.117-8.354-2.954c0.41,0.664,0.874,1.291,1.39,1.873
			c2.367,2.097,5.471,3.38,8.881,3.38c7.406,0,13.41-6.004,13.41-13.411C45.008,28.454,43.725,25.35,41.627,22.983z"/>
		<path id="XMLID_2078_" fill="#37474F" d="M19.123,28.522l-0.966-0.258c0.279-1.047,0.684-2.062,1.201-3.018l0.879,0.477
			C19.758,26.61,19.383,27.551,19.123,28.522z"/>
		<path id="XMLID_2077_" fill="#37474F" d="M17.775,33.441c-0.059-0.522-0.089-1.053-0.089-1.577c0-0.551,0.032-1.108,0.098-1.655
			l0.993,0.117c-0.061,0.509-0.091,1.026-0.091,1.538c0,0.487,0.028,0.979,0.083,1.466L17.775,33.441z"/>
		<path id="XMLID_2076_" fill="#37474F" d="M19.137,38.055c-0.412-0.827-0.741-1.698-0.979-2.59l0.965-0.258
			c0.222,0.827,0.527,1.635,0.909,2.402L19.137,38.055z"/>
		<path id="XMLID_2073_" fill="#37474F" d="M24.459,43.806c-1.221-0.731-2.32-1.643-3.267-2.708l0.748-0.664
			c0.878,0.99,1.898,1.836,3.032,2.515L24.459,43.806z"/>
		<path id="XMLID_2071_" fill="#37474F" d="M31.598,45.775c-1.834,0-3.617-0.352-5.298-1.044l0.381-0.925
			c1.56,0.643,3.214,0.969,4.917,0.969c7.119,0,12.91-5.792,12.91-12.911c0-1.91-0.407-3.749-1.209-5.464l0.904-0.424
			c0.866,1.849,1.305,3.83,1.305,5.888C45.508,39.535,39.268,45.775,31.598,45.775z"/>
		<path id="XMLID_2070_" fill="#37474F" d="M29.059,19.203l-0.195-0.98c1.461-0.292,3.002-0.346,4.483-0.16l-0.124,0.992
			C31.846,18.884,30.416,18.933,29.059,19.203z"/>
		<path id="XMLID_2069_" fill="#37474F" d="M24.589,21.02l-0.544-0.839c0.942-0.611,1.957-1.105,3.016-1.47l0.326,0.945
			C26.404,19.994,25.463,20.453,24.589,21.02z"/>
		<path id="XMLID_2067_" fill="#37474F" d="M20.991,24.5l-0.82-0.571c0.653-0.938,1.421-1.795,2.281-2.547l0.658,0.753
			C22.311,22.833,21.598,23.629,20.991,24.5z"/>
		<g id="XMLID_2057_">
			<circle id="XMLID_2066_" fill="#18FFFF" cx="32.747" cy="39.378" r="1.533"/>
			<path id="XMLID_2063_" fill="#37474F" d="M32.746,41.411c-1.12,0-2.032-0.912-2.032-2.033s0.912-2.033,2.032-2.033
				c1.121,0,2.033,0.912,2.033,2.033S33.867,41.411,32.746,41.411z M32.746,38.345c-0.568,0-1.032,0.463-1.032,1.033
				s0.464,1.033,1.032,1.033c0.57,0,1.033-0.463,1.033-1.033S33.316,38.345,32.746,38.345z"/>
		</g>
		<g id="XMLID_2051_">
			<circle id="XMLID_2055_" fill="#18FFFF" cx="25.85" cy="24.967" r="1.533"/>
			<path id="XMLID_2052_" fill="#37474F" d="M25.85,27c-1.12,0-2.032-0.912-2.032-2.033s0.912-2.033,2.032-2.033
				c1.121,0,2.033,0.912,2.033,2.033S26.971,27,25.85,27z M25.85,23.935c-0.568,0-1.032,0.463-1.032,1.033S25.281,26,25.85,26
				c0.57,0,1.033-0.463,1.033-1.033S26.42,23.935,25.85,23.935z"/>
		</g>
		<circle id="XMLID_2050_" fill="#18FFFF" cx="25.85" cy="33.78" r="1.533"/>
		<g id="XMLID_2045_">
			<circle id="XMLID_2049_" fill="#18FFFF" cx="37.728" cy="33.397" r="1.916"/>
			<path id="XMLID_2046_" fill="#37474F" d="M37.729,35.813c-1.332,0-2.416-1.083-2.416-2.416s1.084-2.416,2.416-2.416
				s2.415,1.084,2.415,2.416S39.061,35.813,37.729,35.813z M37.729,31.981c-0.781,0-1.416,0.635-1.416,1.416
				s0.635,1.416,1.416,1.416c0.78,0,1.415-0.635,1.415-1.416S38.509,31.981,37.729,31.981z"/>
		</g>
		<circle id="XMLID_2044_" fill="#18FFFF" cx="33.098" cy="26.565" r="1.916"/>
		<g id="XMLID_2028_">
			<g id="XMLID_2032_">
				<circle id="XMLID_2043_" fill="#18FFFF" cx="33.271" cy="50.829" r="1.533"/>
				<path id="XMLID_2033_" fill="#37474F" d="M33.271,52.862c-0.918,0-1.725-0.62-1.963-1.507c-0.141-0.524-0.068-1.072,0.203-1.542
					c0.271-0.47,0.71-0.806,1.234-0.947c1.062-0.289,2.205,0.378,2.489,1.438c0.29,1.083-0.354,2.199-1.438,2.489
					C33.625,52.838,33.448,52.862,33.271,52.862z M33.273,49.795c-0.09,0-0.18,0.012-0.269,0.036
					c-0.267,0.071-0.489,0.242-0.628,0.481c-0.137,0.239-0.174,0.517-0.103,0.783c0.145,0.538,0.723,0.875,1.265,0.73
					c0.55-0.147,0.877-0.715,0.73-1.265C34.148,50.11,33.738,49.795,33.273,49.795z"/>
			</g>
			<g id="XMLID_2029_">
				<path id="XMLID_2031_" fill="#18FFFF" d="M32.363,42.88l0.512,6.468L32.363,42.88z"/>
				
					<rect id="XMLID_2030_" x="29.375" y="45.614" transform="matrix(0.0789 0.9969 -0.9969 0.0789 76.0174 9.9592)" fill="#37474F" width="6.488" height="1"/>
			</g>
		</g>
		<g id="XMLID_2018_">
			<g id="XMLID_2022_">
				<circle id="XMLID_2027_" fill="#18FFFF" cx="35.812" cy="13.958" r="1.532"/>
				<path id="XMLID_2024_" fill="#37474F" d="M35.813,15.991c-0.177,0-0.354-0.023-0.527-0.07c-0.523-0.14-0.962-0.477-1.233-0.947
					s-0.344-1.018-0.203-1.542c0.283-1.059,1.423-1.724,2.489-1.437c0.524,0.14,0.963,0.477,1.234,0.947s0.344,1.018,0.203,1.542
					C37.537,15.371,36.73,15.991,35.813,15.991z M35.811,12.925c-0.466,0-0.875,0.315-0.996,0.766
					c-0.071,0.267-0.035,0.545,0.104,0.784c0.138,0.239,0.359,0.41,0.627,0.481c0.549,0.146,1.121-0.192,1.264-0.73
					c0.072-0.266,0.035-0.544-0.103-0.783s-0.36-0.41-0.627-0.481C35.99,12.937,35.9,12.925,35.811,12.925z"/>
			</g>
			<g id="XMLID_2019_">
				<path id="XMLID_2021_" fill="#18FFFF" d="M35.415,15.438l-1.239,6.804L35.415,15.438z"/>
				
					<rect id="XMLID_2020_" x="34.296" y="15.382" transform="matrix(0.9839 0.1786 -0.1786 0.9839 3.9249 -5.9125)" fill="#37474F" width="1" height="6.916"/>
			</g>
		</g>
		<g id="XMLID_2004_">
			<g id="XMLID_2011_">
				<circle id="XMLID_2017_" fill="#18FFFF" cx="24.552" cy="49.028" r="1.533"/>
				<path id="XMLID_2013_" fill="#37474F" d="M24.551,51.061c-0.273,0-0.54-0.054-0.793-0.162c-0.5-0.212-0.887-0.606-1.091-1.11
					s-0.198-1.056,0.013-1.556c0.427-1.004,1.656-1.507,2.666-1.077c0.5,0.212,0.887,0.606,1.09,1.109
					c0.204,0.503,0.199,1.056-0.013,1.556C26.104,50.575,25.369,51.061,24.551,51.061z M24.553,47.995
					c-0.416,0-0.789,0.247-0.951,0.629c-0.108,0.254-0.111,0.535-0.008,0.791s0.301,0.456,0.555,0.563
					c0.518,0.219,1.138-0.037,1.354-0.547c0.107-0.254,0.11-0.535,0.007-0.79c-0.103-0.256-0.3-0.456-0.554-0.563
					C24.826,48.023,24.691,47.995,24.553,47.995z"/>
			</g>
			<g id="XMLID_2005_">
				<path id="XMLID_2009_" fill="#18FFFF" d="M27.066,43.102l-1.916,4.515L27.066,43.102z"/>
				
					<rect id="XMLID_2007_" x="25.608" y="42.907" transform="matrix(0.9208 0.3901 -0.3901 0.9208 19.7661 -6.5915)" fill="#37474F" width="1.001" height="4.905"/>
			</g>
		</g>
		<g id="XMLID_1981_">
			<g id="XMLID_1991_">
				<circle id="XMLID_2003_" fill="#18FFFF" cx="48.542" cy="24.481" r="1.915"/>
				<path id="XMLID_1994_" fill="#37474F" d="M48.541,26.897c-1.09,0-2.049-0.736-2.332-1.791c-0.344-1.287,0.422-2.613,1.709-2.958
					c1.268-0.343,2.621,0.45,2.957,1.708c0.168,0.623,0.082,1.274-0.24,1.833c-0.323,0.559-0.844,0.958-1.467,1.125
					C48.963,26.869,48.752,26.897,48.541,26.897z M48.544,23.065c-0.123,0-0.247,0.017-0.368,0.049
					c-0.753,0.202-1.202,0.979-1,1.733c0.197,0.738,0.989,1.198,1.732,1.001c0.365-0.098,0.671-0.332,0.859-0.66
					c0.189-0.327,0.24-0.708,0.143-1.074C49.744,23.497,49.183,23.065,48.544,23.065z"/>
			</g>
			<g id="XMLID_1984_">
				<path id="XMLID_1990_" fill="#18FFFF" d="M47.063,24.877l-3.625,1.873L47.063,24.877z"/>
				
					<rect id="XMLID_1985_" x="44.749" y="23.774" transform="matrix(0.4589 0.8885 -0.8885 0.4589 47.4202 -26.2358)" fill="#37474F" width="1" height="4.079"/>
			</g>
		</g>
		<g id="XMLID_1949_">
			<g id="XMLID_1958_">
				<circle id="XMLID_1976_" fill="#18FFFF" cx="14.125" cy="36.462" r="1.532"/>
				<path id="XMLID_1971_" fill="#37474F" d="M14.124,38.495c-0.917,0-1.725-0.62-1.962-1.507c-0.141-0.524-0.068-1.072,0.203-1.542
					s0.709-0.807,1.234-0.947c1.064-0.29,2.205,0.378,2.488,1.437c0.141,0.524,0.068,1.072-0.203,1.542s-0.709,0.807-1.234,0.947
					C14.479,38.472,14.301,38.495,14.124,38.495z M14.126,35.429c-0.09,0-0.18,0.012-0.269,0.036
					c-0.266,0.071-0.488,0.242-0.627,0.481c-0.138,0.239-0.174,0.517-0.104,0.784c0.146,0.538,0.718,0.875,1.266,0.73
					c0.266-0.071,0.488-0.242,0.627-0.481c0.138-0.239,0.174-0.517,0.104-0.784C15.002,35.744,14.592,35.429,14.126,35.429z"/>
			</g>
			<g id="XMLID_1950_">
				<path id="XMLID_1952_" fill="#18FFFF" d="M21.975,34.443l-6.369,1.623L21.975,34.443z"/>
				
					<rect id="XMLID_1951_" x="18.29" y="31.968" transform="matrix(0.2462 0.9692 -0.9692 0.2462 48.3326 8.3625)" fill="#37474F" width="1" height="6.573"/>
			</g>
		</g>
		<g id="XMLID_1887_">
			<g id="XMLID_1899_">
				<circle id="XMLID_1932_" fill="#18FFFF" cx="50.5" cy="37.689" r="1.533"/>
				<path id="XMLID_1903_" fill="#37474F" d="M50.501,39.723c-0.177,0-0.354-0.023-0.527-0.07c-0.524-0.141-0.963-0.477-1.233-0.947
					c-0.271-0.47-0.344-1.018-0.203-1.542c0.283-1.059,1.424-1.727,2.488-1.438c1.083,0.29,1.728,1.407,1.438,2.49
					C52.226,39.103,51.418,39.723,50.501,39.723z M50.499,36.656c-0.466,0-0.876,0.315-0.997,0.766
					c-0.07,0.267-0.034,0.544,0.104,0.783c0.139,0.239,0.361,0.41,0.627,0.481c0.547,0.145,1.121-0.192,1.266-0.73
					c0.146-0.55-0.182-1.118-0.73-1.265C50.68,36.668,50.589,36.656,50.499,36.656z"/>
			</g>
			<g id="XMLID_1889_">
				<path id="XMLID_1897_" fill="#18FFFF" d="M49.02,37.293l-4.591-1.521L49.02,37.293z"/>
				
					<rect id="XMLID_1896_" x="44.306" y="36.033" transform="matrix(0.9493 0.3144 -0.3144 0.9493 13.8557 -12.8379)" fill="#37474F" width="4.836" height="1"/>
			</g>
		</g>
		<g id="XMLID_1874_">
			<g id="XMLID_1878_">
				<circle id="XMLID_1886_" fill="#18FFFF" cx="14.658" cy="29.565" r="1.533"/>
				<path id="XMLID_1879_" fill="#37474F" d="M14.66,31.599c-0.178,0-0.355-0.023-0.527-0.07c-0.524-0.141-0.963-0.477-1.234-0.947
					s-0.344-1.018-0.203-1.542c0.283-1.059,1.422-1.724,2.489-1.437c0.524,0.14,0.963,0.477,1.234,0.947s0.344,1.018,0.203,1.542
					C16.385,30.979,15.577,31.599,14.66,31.599z M14.658,28.532c-0.467,0-0.876,0.315-0.997,0.766
					c-0.071,0.267-0.034,0.545,0.103,0.784c0.139,0.239,0.361,0.41,0.628,0.481c0.544,0.146,1.12-0.192,1.265-0.73
					c0.071-0.266,0.035-0.545-0.104-0.784c-0.138-0.239-0.36-0.41-0.627-0.481C14.838,28.544,14.748,28.532,14.658,28.532z"/>
			</g>
			<g id="XMLID_1875_">
				<path id="XMLID_1877_" fill="#18FFFF" d="M18.79,30.268l-2.651-0.306L18.79,30.268z"/>
				
					<rect id="XMLID_1876_" x="16.13" y="29.615" transform="matrix(0.9934 0.1146 -0.1146 0.9934 3.5652 -1.8026)" fill="#37474F" width="2.668" height="1"/>
			</g>
		</g>
		<g id="XMLID_1861_">
			<g id="XMLID_1867_">
				<circle id="XMLID_1873_" fill="#18FFFF" cx="44.911" cy="44.638" r="1.533"/>
				<path id="XMLID_1869_" fill="#37474F" d="M44.91,46.671c-0.918,0-1.725-0.62-1.963-1.507c-0.289-1.083,0.355-2.199,1.438-2.489
					c1.064-0.289,2.205,0.379,2.49,1.438c0.141,0.524,0.068,1.072-0.203,1.542s-0.71,0.807-1.234,0.947
					C45.266,46.647,45.088,46.671,44.91,46.671z M44.912,43.604c-0.09,0-0.18,0.012-0.268,0.036
					c-0.551,0.147-0.878,0.715-0.73,1.265c0.145,0.539,0.719,0.875,1.265,0.73c0.267-0.071,0.489-0.242,0.627-0.481
					c0.138-0.239,0.175-0.517,0.103-0.783C45.787,43.92,45.378,43.604,44.912,43.604z"/>
			</g>
			<g id="XMLID_1863_">
				<path id="XMLID_1866_" fill="#18FFFF" d="M41.467,41.153l2.678,2.664L41.467,41.153z"/>
				
					<rect id="XMLID_1864_" x="40.918" y="41.985" transform="matrix(0.7089 0.7053 -0.7053 0.7089 42.4251 -17.8244)" fill="#37474F" width="3.777" height="1"/>
			</g>
		</g>
		<g id="XMLID_1847_">
			<g id="XMLID_1854_">
				<circle id="XMLID_1860_" fill="#18FFFF" cx="39.644" cy="47.038" r="1.533"/>
				<path id="XMLID_1855_" fill="#37474F" d="M39.643,49.071c-0.918,0-1.725-0.62-1.963-1.507c-0.289-1.083,0.355-2.199,1.438-2.489
					c1.063-0.288,2.205,0.379,2.49,1.438c0.141,0.524,0.068,1.072-0.203,1.542s-0.71,0.807-1.234,0.947
					C39.998,49.047,39.82,49.071,39.643,49.071z M39.645,46.004c-0.09,0-0.18,0.012-0.268,0.036
					c-0.551,0.147-0.878,0.715-0.73,1.265c0.145,0.538,0.72,0.876,1.265,0.73c0.267-0.071,0.489-0.242,0.627-0.481
					c0.138-0.239,0.175-0.517,0.103-0.783C40.52,46.32,40.11,46.004,39.645,46.004z"/>
			</g>
			<g id="XMLID_1849_">
				<path id="XMLID_1852_" fill="#18FFFF" d="M38,43.984l0.877,1.733L38,43.984z"/>
				
					<rect id="XMLID_1851_" x="37.468" y="44.351" transform="matrix(0.4519 0.8921 -0.8921 0.4519 61.0764 -9.7083)" fill="#37474F" width="1.943" height="1.001"/>
			</g>
		</g>
		<g id="XMLID_1829_">
			<g id="XMLID_1833_">
				<circle id="XMLID_1845_" fill="#18FFFF" cx="48.543" cy="31.251" r="1.533"/>
				<path id="XMLID_1838_" fill="#37474F" d="M48.541,33.284c-1.082,0-1.973-0.848-2.028-1.929
					c-0.028-0.542,0.157-1.063,0.521-1.465c0.364-0.403,0.862-0.641,1.405-0.668l0.104-0.002c1.083,0,1.974,0.847,2.028,1.929
					c0.057,1.12-0.807,2.077-1.926,2.134L48.541,33.284z M48.544,30.218c-0.329,0.016-0.583,0.136-0.768,0.341
					s-0.278,0.469-0.265,0.744c0.027,0.55,0.48,0.98,1.029,0.98v0.5l0.055-0.501c0.275-0.014,0.529-0.134,0.713-0.339
					c0.186-0.205,0.279-0.469,0.266-0.745C49.546,30.649,49.094,30.218,48.544,30.218z"/>
			</g>
			<g id="XMLID_1830_">
				<path id="XMLID_1832_" fill="#18FFFF" d="M44.911,31.257l2.101,0.072L44.911,31.257z"/>
				
					<rect id="XMLID_1831_" x="44.911" y="30.793" transform="matrix(0.9994 0.0342 -0.0342 0.9994 1.0955 -1.5513)" fill="#37474F" width="2.102" height="1"/>
			</g>
		</g>
		<rect id="XMLID_1828_" x="38" y="38" fill="#37474F" width="1" height="1"/>
		<rect id="XMLID_1825_" x="36" y="40" fill="#37474F" width="1" height="1"/>
		<rect id="XMLID_1822_" x="30" y="33" fill="#37474F" width="1" height="1"/>
		<rect id="XMLID_1819_" x="42" y="31" fill="#37474F" width="1" height="1"/>
		<rect id="XMLID_1816_" x="22" y="30" fill="#37474F" width="1" height="1"/>
		<rect id="XMLID_1746_" x="28" y="29" fill="#37474F" width="1" height="1"/>
		<rect id="XMLID_1745_" x="31" y="21" fill="#37474F" width="1" height="1"/>
		<path id="XMLID_1743_" fill="#37474F" d="M42.575,25.066c-0.796-1.283-1.802-2.408-2.989-3.345l0.619-0.785
			c1.279,1.009,2.362,2.221,3.22,3.603L42.575,25.066z"/>
		<path id="XMLID_1742_" fill="#37474F" d="M37.418,20.337c-0.861-0.436-1.774-0.775-2.715-1.007l0.24-0.971
			c1.014,0.25,1.998,0.616,2.926,1.086L37.418,20.337z"/>
	</g>
	<g id="XMLID_1731_">
		<path id="XMLID_1739_" fill="#37474F" d="M23.817,33.78c0,0.139,0.022,0.272,0.05,0.403l2.386-2.386
			c-0.131-0.027-0.264-0.049-0.403-0.049C24.729,31.748,23.817,32.66,23.817,33.78z"/>
		<path id="XMLID_1732_" fill="#37474F" d="M30.682,26.565c0,0.242,0.047,0.469,0.115,0.688l0.906-0.907
			c0.096-0.604,0.57-1.08,1.176-1.175l0.906-0.907c-0.219-0.067-0.446-0.115-0.688-0.115C31.766,24.149,30.682,25.233,30.682,26.565
			z"/>
	</g>
	<path id="XMLID_1726_" fill="#FF8A80" d="M32,5.5C17.364,5.5,5.5,17.364,5.5,32S17.364,58.5,32,58.5S58.5,46.636,58.5,32
		S46.636,5.5,32,5.5z M32,9.5c5.237,0,10.053,1.794,13.876,4.795L14.295,45.876C11.295,42.053,9.5,37.237,9.5,32
		C9.5,19.574,19.574,9.5,32,9.5z M32,54.5c-5.748,0-10.99-2.158-14.967-5.705l31.762-31.762C52.342,21.01,54.5,26.252,54.5,32
		C54.5,44.426,44.426,54.5,32,54.5z"/>
	<path id="XMLID_1268_" fill="#37474F" d="M32,59C17.112,59,5,46.888,5,32S17.112,5,32,5s27,12.112,27,27S46.888,59,32,59z M32,6
		C17.664,6,6,17.664,6,32s11.664,26,26,26s26-11.664,26-26S46.336,6,32,6z M32,55c-5.649,0-11.082-2.071-15.3-5.832l-0.396-0.352
		l32.512-32.511l0.352,0.395C52.929,20.917,55,26.351,55,32C55,44.682,44.682,55,32,55z M17.766,48.77C21.74,52.146,26.773,54,32,54
		c12.131,0,22-9.869,22-22c0-5.227-1.854-10.26-5.23-14.234L17.766,48.77z M14.25,46.628l-0.348-0.444C10.695,42.099,9,37.194,9,32
		c0-2.635,0.442-5.22,1.314-7.682l0.942,0.334C10.423,27.007,10,29.479,10,32c0,4.779,1.5,9.303,4.346,13.119l30.773-30.773
		C41.303,11.5,36.779,10,32,10c-1.223,0-2.449,0.101-3.647,0.301l-0.164-0.986C29.439,9.106,30.723,9,32,9
		c5.193,0,10.1,1.695,14.185,4.902l0.444,0.348L14.25,46.628z M14.115,19.185l-0.813-0.583c0.333-0.463,0.682-0.913,1.047-1.349
		l0.767,0.642C14.768,18.312,14.434,18.742,14.115,19.185z M19.772,13.708l-0.557-0.83c0.557-0.374,1.137-0.727,1.724-1.049
		l0.481,0.877C20.859,13.014,20.305,13.351,19.772,13.708z"/>
	<g id="XMLID_1262_">
		<g id="XMLID_1287_">
			<circle fill="#18FFFF" cx="24.15" cy="10.353" r="1.915"/>
			<path id="XMLID_1288_" fill="#37474F" d="M24.149,12.769c-1.068,0-1.995-0.687-2.308-1.709c-0.189-0.616-0.127-1.27,0.176-1.84
				s0.809-0.987,1.426-1.176c1.262-0.387,2.633,0.352,3.016,1.602c0.391,1.273-0.328,2.627-1.602,3.017
				C24.627,12.733,24.389,12.769,24.149,12.769z M24.15,8.938c-0.139,0-0.279,0.021-0.414,0.063
				c-0.361,0.111-0.658,0.355-0.836,0.689s-0.214,0.717-0.104,1.078c0.225,0.733,1.026,1.167,1.768,0.939
				c0.746-0.229,1.168-1.021,0.939-1.768C25.32,9.34,24.776,8.938,24.15,8.938z"/>
		</g>
		<g id="XMLID_1291_">
			<path id="XMLID_1265_" fill="#18FFFF" d="M24.6,11.819l3.487,9.423L24.6,11.819z"/>
			
				<rect id="XMLID_1293_" x="21.32" y="16.031" transform="matrix(0.3471 0.9378 -0.9378 0.3471 32.7026 -13.9127)" fill="#37474F" width="10.047" height="1"/>
		</g>
	</g>
	<g id="XMLID_1251_">
		<g id="XMLID_1295_">
			<circle fill="#18FFFF" cx="17.033" cy="15.361" r="1.533"/>
			<path id="XMLID_1296_" fill="#37474F" d="M17.033,17.393c-0.543,0-1.053-0.211-1.438-0.595c-0.383-0.384-0.595-0.895-0.595-1.438
				s0.212-1.053,0.595-1.437c0.768-0.768,2.107-0.768,2.875,0c0.384,0.384,0.596,0.894,0.596,1.437s-0.212,1.054-0.596,1.438
				C18.086,17.182,17.576,17.393,17.033,17.393z M17.033,14.328c-0.275,0-0.535,0.107-0.73,0.302s-0.302,0.454-0.302,0.73
				s0.107,0.535,0.302,0.73c0.391,0.39,1.071,0.389,1.461,0c0.195-0.195,0.303-0.455,0.303-0.73s-0.107-0.535-0.303-0.73
				S17.309,14.328,17.033,14.328z"/>
		</g>
		<g id="XMLID_1299_">
			<path id="XMLID_1300_" fill="#18FFFF" d="M23,22.242l-4.883-5.797L23,22.242z"/>
			
				<rect id="XMLID_1301_" x="16.769" y="18.843" transform="matrix(0.6442 0.7649 -0.7649 0.6442 22.1094 -8.8421)" fill="#37474F" width="7.58" height="1.001"/>
		</g>
	</g>
	<g id="XMLID_1302_">
		<g id="XMLID_1303_">
			<circle fill="#18FFFF" cx="11.592" cy="21.242" r="1.533"/>
			<path id="XMLID_1304_" fill="#37474F" d="M11.593,23.275c-0.177,0-0.354-0.023-0.526-0.07c-0.525-0.141-0.963-0.477-1.234-0.947
				c-0.271-0.471-0.344-1.018-0.203-1.542c0.283-1.059,1.422-1.727,2.488-1.438c0.525,0.141,0.963,0.477,1.234,0.947
				c0.271,0.471,0.344,1.018,0.203,1.542C13.317,22.655,12.51,23.275,11.593,23.275z M11.591,20.208
				c-0.466,0-0.876,0.315-0.997,0.766c-0.07,0.267-0.034,0.544,0.104,0.783c0.139,0.239,0.361,0.41,0.627,0.481
				c0.549,0.146,1.121-0.192,1.266-0.73c0.07-0.267,0.034-0.544-0.104-0.783c-0.139-0.239-0.361-0.41-0.627-0.481
				C11.771,20.221,11.681,20.208,11.591,20.208z"/>
		</g>
		<g id="XMLID_1311_">
			<path id="XMLID_1313_" fill="#18FFFF" d="M22.066,26.5l-8.994-4.862L22.066,26.5z"/>
			
				<rect id="XMLID_1315_" x="12.457" y="23.569" transform="matrix(0.8797 0.4755 -0.4755 0.8797 13.559 -5.4592)" fill="#37474F" width="10.224" height="1.001"/>
		</g>
	</g>
</g>
</svg>
