<?xml version="1.0" encoding="utf-8"?>
<!-- Generator: Adobe Illustrator 16.0.0, SVG Export Plug-In . SVG Version: 6.00 Build 0)  -->
<!DOCTYPE svg PUBLIC "-//W3C//DTD SVG 1.1//EN" "http://www.w3.org/Graphics/SVG/1.1/DTD/svg11.dtd">
<svg version="1.1" id="_x3C_Layer_x3E_" xmlns="http://www.w3.org/2000/svg" xmlns:xlink="http://www.w3.org/1999/xlink" x="0px"
	 y="0px" width="64px" height="64px" viewBox="0 0 64 64" enable-background="new 0 0 64 64" xml:space="preserve">
<g id="cross_x2C__plus_x2C__medicine">
	<g>
		<circle fill="#FF8A80" cx="32" cy="32" r="26.5"/>
		<path fill="#37474F" d="M32,59C17.112,59,5,46.888,5,32S17.112,5,32,5s27,12.112,27,27S46.888,59,32,59z M32,6
			C17.664,6,6,17.663,6,32s11.664,26,26,26s26-11.663,26-26S46.336,6,32,6z"/>
	</g>
	<g>
		<polygon fill="#FFFFFF" points="45.5,27.5 36.5,27.5 36.5,18.5 27.5,18.5 27.5,27.5 18.5,27.5 18.5,36.5 27.5,36.5 27.5,45.5 
			36.5,45.5 36.5,36.5 45.5,36.5 		"/>
		<path fill="#37474F" d="M37,46H27v-9h-9V27h9v-9h10v9h9v10h-9V46z M28,45h8v-9h9v-8h-9v-9h-8v9h-9v8h9V45z"/>
	</g>
</g>
</svg>
