<?xml version="1.0" encoding="utf-8"?>
<!-- Generator: Adobe Illustrator 16.0.0, SVG Export Plug-In . SVG Version: 6.00 Build 0)  -->
<!DOCTYPE svg PUBLIC "-//W3C//DTD SVG 1.1//EN" "http://www.w3.org/Graphics/SVG/1.1/DTD/svg11.dtd">
<svg version="1.1" id="_x3C_Layer_x3E_" xmlns="http://www.w3.org/2000/svg" xmlns:xlink="http://www.w3.org/1999/xlink" x="0px"
	 y="0px" width="64px" height="64px" viewBox="0 0 64 64" enable-background="new 0 0 64 64" xml:space="preserve">
<g id="hand_x2C__Clean_x2C__healthy_x2C__protection_x2C__safe_x2C__shield_x2C__check_mark_1_">
	<g id="XMLID_3478_">
		<g id="XMLID_3484_">
			<path fill="#FFFFFF" d="M5.4,42.465c-0.477-1.107-0.007-2.396,1.071-2.938l14.935-7.499L8.385,38.141
				c-1.046,0.49-2.168,0.314-2.641-0.74c-0.437-0.972-0.052-2.115,0.883-2.625l19.709-10.584l-9.204-3.945
				c-1.972-0.674-3.096-2.749-2.583-4.769l0.131-0.52l12.218,2.586l6.049,1.078l5.979,3.271L59,9.554v16.612L44.279,33.43
				c0,0-2.58,5.092-6.755,7.051l-19.716,8.518c-1.047,0.416-2.231-0.097-2.646-1.144c-0.404-1.019,0.385-1.515,1.357-2.019
				l9.589-4.968l-13.5,5.858c-1.16,0.504-2.508-0.031-3.008-1.192c-0.487-1.132,0.012-2.446,1.127-2.97l-2.265,1.063
				C7.297,44.175,5.909,43.648,5.4,42.465z"/>
		</g>
		<g id="XMLID_3483_">
			<path fill="#FFFFFF" d="M5.4,42.465c-0.477-1.107-0.007-2.396,1.071-2.938l14.935-7.499L8.385,38.141
				c-1.046,0.49-2.168,0.314-2.641-0.74c-0.437-0.972-0.052-2.115,0.883-2.625l19.709-10.584l-9.204-3.945
				c-1.972-0.674-3.096-2.749-2.583-4.769l0.131-0.52l12.218,2.586l6.049,1.078l5.979,3.271L59,9.554v16.612L44.279,33.43
				c0,0-2.58,5.092-6.755,7.051l-19.716,8.518c-1.047,0.416-2.231-0.097-2.646-1.144c-0.404-1.019,0.385-1.515,1.357-2.019
				l9.589-4.968l-13.5,5.858c-1.16,0.504-2.508-0.031-3.008-1.192c-0.487-1.132,0.012-2.446,1.127-2.97l-2.265,1.063
				C7.297,44.175,5.909,43.648,5.4,42.465z"/>
		</g>
		<g id="XMLID_3482_">
			<path fill="#FFE0B2" d="M17.607,48.563l19.587-8.457c4.175-1.96,6.755-7.051,6.755-7.051l14.887-7.264L59,24.244v-12.48
				L39.165,23.68l-6.967-3.836l-6.049-1.078l-11.716-2.479c-0.043,0.961,0.266,1.888,0.838,2.625c0.417,0.421,0.934,0.755,1.53,0.96
				l9.204,3.944l-0.24,0.126l0.273,0.117c0.011,0.004,0.019,0.013,0.029,0.018l0.268,0.115l-0.043,0.022
				c0.521,0.437,0.468,1.315-0.193,1.653L6.563,36.188c-0.42,0.229-0.718,0.591-0.891,1.003c0.022,0.07,0.04,0.142,0.071,0.21
				c0.054,0.121,0.119,0.228,0.189,0.326c0.6,0.523,1.474,0.676,2.236,0.299l12.906-6.373L7.744,38.348
				c0.213-0.043,0.429-0.107,0.641-0.207l13.021-6.112L6.472,39.527c-1.078,0.542-1.548,1.83-1.071,2.938
				c0.06,0.138,0.133,0.265,0.214,0.384c0.66,0.614,1.647,0.812,2.518,0.403l2.266-1.063c-0.475,0.224-0.831,0.591-1.054,1.025
				l1.384-0.649c-1.115,0.523-1.614,1.838-1.127,2.97c0.057,0.131,0.127,0.251,0.203,0.366c0.676,0.62,1.709,0.783,2.59,0.4
				l13.385-5.809l-9.853,4.352c-0.413,0.182-0.733,0.486-0.942,0.852l11.125-4.827l-9.589,4.968c-0.973,0.504-1.762,1-1.357,2.019
				c0.038,0.097,0.089,0.184,0.14,0.271C15.887,48.703,16.808,48.879,17.607,48.563z"/>
		</g>
		<g id="XMLID_3481_">
			<path fill="#E6CAA0" d="M59,24.439l-15.711,7.863c0,0-2.58,5.092-6.755,7.051l-19.54,8.418c-0.627,0.249-1.33,0.193-1.888-0.119
				c0.007,0.025,0.014,0.053,0.021,0.079c0.028,0.085,0.063,0.17,0.102,0.254c0.027,0.056,0.055,0.113,0.086,0.166
				c0.034,0.056,0.071,0.109,0.109,0.161c0.035,0.047,0.072,0.094,0.111,0.137c0.063,0.069,0.128,0.136,0.199,0.193
				c0.011,0.011,0.022,0.02,0.034,0.029c0.578,0.453,1.396,0.568,2.116,0.294l19.639-8.485c4.175-1.959,6.755-7.051,6.755-7.051
				L59,26.166V24.439z"/>
		</g>
		<g id="XMLID_3479_">
			<g id="XMLID_3480_">
				<path fill="#37474F" d="M17.062,49.64c-1.016,0-1.971-0.608-2.364-1.601c-0.216-0.545-0.232-1.117-0.082-1.639l-1.808,0.785
					c-0.687,0.297-1.442,0.307-2.135,0.034c-0.693-0.274-1.236-0.804-1.531-1.487C8.886,45.137,8.85,44.506,9,43.928L8.676,44.08
					c-0.689,0.322-1.459,0.352-2.168,0.082c-0.71-0.27-1.267-0.803-1.566-1.5c-0.581-1.349-0.007-2.922,1.306-3.581L6.606,38.9
					c-0.589-0.25-1.055-0.706-1.318-1.295c-0.54-1.202-0.057-2.639,1.1-3.27l18.797-10.094l-8.25-3.537
					c-2.167-0.738-3.443-3.095-2.87-5.351l0.131-0.519c0.065-0.26,0.323-0.421,0.588-0.367l12.218,2.586l6.033,1.075
					c0.053,0.009,0.104,0.027,0.152,0.054l5.726,3.132l20.04-12.188l0.52,0.854L39.186,22.32c-0.153,0.092-0.343,0.096-0.5,0.011
					L32.778,19.1l-5.969-1.063l-11.763-2.489L15.033,15.6c-0.445,1.756,0.548,3.588,2.261,4.174l9.239,3.958
					c0.176,0.075,0.294,0.245,0.303,0.438c0.008,0.192-0.095,0.372-0.264,0.462L6.863,35.215c-0.697,0.382-0.99,1.252-0.663,1.98
					c0.173,0.385,0.486,0.676,0.884,0.818c0.394,0.143,0.822,0.119,1.202-0.067l12.898-6.366c0.248-0.121,0.547-0.021,0.669,0.226
					c0.123,0.247,0.023,0.546-0.223,0.669l-14.935,7.5c-0.841,0.422-1.208,1.43-0.837,2.293c0.192,0.446,0.549,0.787,1.003,0.96
					c0.455,0.173,0.948,0.153,1.388-0.053l15.067-7.073c0.252-0.117,0.548-0.01,0.665,0.24c0.118,0.25,0.011,0.549-0.239,0.666
					l-12.802,6.009c-0.878,0.411-1.265,1.431-0.882,2.319c0.189,0.439,0.538,0.777,0.981,0.954c0.444,0.177,0.931,0.169,1.368-0.022
					l13.5-5.857c0.255-0.111,0.547,0.006,0.657,0.258s-0.004,0.546-0.256,0.657l-9.876,4.37c-0.759,0.336-1.113,1.203-0.808,1.975
					c0.313,0.789,1.209,1.176,1.999,0.864l19.7-8.513c3.951-1.855,6.482-6.769,6.507-6.818c0.05-0.097,0.129-0.176,0.228-0.223
					l14.888-7.264l0.438,0.898l-14.74,7.191c-0.477,0.891-2.986,5.285-6.908,7.127l-19.729,8.524
					C17.696,49.581,17.376,49.64,17.062,49.64z"/>
			</g>
		</g>
	</g>
	<g id="XMLID_3471_">
		<g id="XMLID_3472_">
			<g id="XMLID_3473_">
				<g id="XMLID_3477_">
					<path fill="#CCFF90" d="M48.249,54.632L42,58.5l-6.248-3.868c-2.349-1.453-4.895-3.59-4.895-7.63L30.5,34.5l11.5-5l11.5,5
						l-0.357,12.502C53.143,51.083,50.597,53.179,48.249,54.632z"/>
				</g>
				<g id="XMLID_3474_">
					<path fill="#37474F" d="M42,59.088l-6.512-4.031c-2.389-1.478-5.131-3.729-5.131-8.055L29.99,34.176L42,28.955l12.01,5.221
						l-0.367,12.84c0,4.311-2.742,6.563-5.131,8.041L42,59.088z M31.01,34.824l0.348,12.164c0,3.823,2.354,5.793,4.657,7.219
						L42,57.912l5.986-3.705c2.302-1.426,4.656-3.396,4.656-7.205l0.348-12.178L42,30.045L31.01,34.824z"/>
				</g>
			</g>
		</g>
	</g>
	<g id="XMLID_3467_">
		<g id="XMLID_5_">
			<circle fill="#B2FF59" cx="42" cy="44" r="6.188"/>
		</g>
		<g id="XMLID_6_">
			<path fill="#37474F" d="M42,50.688c-3.688,0-6.688-3-6.688-6.688s3-6.688,6.688-6.688c1.202,0,2.38,0.321,3.405,0.93l-0.51,0.859
				c-0.872-0.516-1.873-0.789-2.896-0.789c-3.136,0-5.688,2.552-5.688,5.688s2.552,5.688,5.688,5.688s5.688-2.552,5.688-5.688
				c0-1.361-0.488-2.679-1.376-3.709l0.758-0.652c1.044,1.212,1.618,2.761,1.618,4.361C48.688,47.688,45.688,50.688,42,50.688z"/>
		</g>
		<g id="XMLID_3468_">
			<polygon fill="#37474F" points="41.909,46.493 39.058,43.171 39.817,42.52 41.907,44.955 47.807,38.039 48.568,38.688 			"/>
		</g>
	</g>
</g>
</svg>
