<?xml version="1.0" encoding="utf-8"?>
<!-- Generator: Adobe Illustrator 16.0.0, SVG Export Plug-In . SVG Version: 6.00 Build 0)  -->
<!DOCTYPE svg PUBLIC "-//W3C//DTD SVG 1.1//EN" "http://www.w3.org/Graphics/SVG/1.1/DTD/svg11.dtd">
<svg version="1.1" id="_x3C_Layer_x3E_" xmlns="http://www.w3.org/2000/svg" xmlns:xlink="http://www.w3.org/1999/xlink" x="0px"
	 y="0px" width="64px" height="64px" viewBox="0 0 64 64" enable-background="new 0 0 64 64" xml:space="preserve">
<g id="eye_x2C__Organ_x2C__see">
	<g>
		<path fill="#FFE0B2" d="M32.5,50.5c-17,0-24.607-15.858-26.363-18.5c1.756-2.642,9.529-18.5,26.363-18.5S57.107,29.358,58.863,32
			C57.107,34.642,49.5,50.5,32.5,50.5z"/>
	</g>
	<g>
		<g>
			<path fill="#FFE0B2" d="M32.5,50.5c-17,0-24.607-15.858-26.363-18.5c1.756-2.642,9.529-18.5,26.363-18.5S57.107,29.358,58.863,32
				C57.107,34.642,49.5,50.5,32.5,50.5z"/>
			<path fill="#37474F" d="M32.5,51C16.839,51,8.961,37.714,6.373,33.349c-0.272-0.459-0.488-0.824-0.653-1.072L5.536,32
				l0.184-0.276c0.16-0.24,0.369-0.591,0.632-1.03C8.971,26.317,16.94,13,32.5,13s23.529,13.317,26.148,17.693
				c0.263,0.439,0.472,0.79,0.632,1.03L59.464,32l-0.184,0.276c-0.165,0.248-0.381,0.613-0.653,1.072
				C56.039,37.714,48.161,51,32.5,51z M6.73,32c0.141,0.229,0.309,0.511,0.503,0.839C9.75,37.083,17.409,50,32.5,50
				s22.75-12.917,25.267-17.161c0.195-0.328,0.362-0.61,0.503-0.839c-0.135-0.217-0.295-0.484-0.48-0.793
				C55.243,26.951,47.493,14,32.5,14S9.757,26.951,7.21,31.207C7.025,31.516,6.865,31.783,6.73,32z"/>
		</g>
	</g>
	<g>
		<path fill="#FFFFFF" d="M32.5,47.5C19.131,47.5,7.893,34.188,6.137,32C7.893,29.813,19.131,16.5,32.5,16.5
			S57.107,29.813,58.863,32C57.107,34.188,45.869,47.5,32.5,47.5z"/>
	</g>
	<g>
		<path fill="#18FFFF" d="M32.5,45.5C25.056,45.5,19,39.444,19,32s6.056-13.5,13.5-13.5S46,24.556,46,32S39.944,45.5,32.5,45.5z"/>
	</g>
	<g>
		<circle fill="#37474F" cx="32.5" cy="32" r="8"/>
	</g>
	<g>
		<circle fill="#FFFFFF" cx="36.5" cy="36" r="2"/>
		<circle fill="#FFFFFF" cx="27.5" cy="27" r="4"/>
	</g>
	<g>
		<path fill="#37474F" d="M32.5,17c12.615,0,23.354,12.129,25.72,15c-2.365,2.871-13.104,15-25.72,15S9.146,34.871,6.78,32
			C9.146,29.129,19.885,17,32.5,17L32.5,17z M32.5,16c-14.918,0-27,16-27,16s12.082,16,27,16s27-16,27-16S47.418,16,32.5,16L32.5,16
			z"/>
		<path fill="#37474F" d="M32.5,19c7.168,0,13,5.832,13,13s-5.832,13-13,13s-13-5.832-13-13S25.332,19,32.5,19L32.5,19z M32.5,18
			c-7.735,0-14,6.265-14,14s6.265,14,14,14s14-6.265,14-14S40.235,18,32.5,18L32.5,18z"/>
	</g>
	<g>
		<g>
			<g>
				
					<rect x="41.127" y="5.193" transform="matrix(-0.9656 -0.26 0.26 -0.9656 79.4319 28.8905)" fill="#37474F" width="0.999" height="7.999"/>
			</g>
			<g>
				
					<rect x="23.011" y="50.808" transform="matrix(-0.9661 -0.2581 0.2581 -0.9661 32.0749 113.8277)" fill="#37474F" width="0.999" height="8"/>
			</g>
		</g>
		<g>
			<g>
				
					<rect x="49.568" y="8.689" transform="matrix(-0.8658 -0.5003 0.5003 -0.8658 87.0692 48.7265)" fill="#37474F" width="0.999" height="8"/>
			</g>
			<g>
				
					<rect x="14.569" y="47.312" transform="matrix(-0.8665 -0.4992 0.4992 -0.8665 2.511 103.2946)" fill="#37474F" width="1" height="8"/>
			</g>
		</g>
		<g>
			<g>
				
					<rect x="56.816" y="14.251" transform="matrix(-0.7071 -0.7071 0.7071 -0.7071 84.9398 71.6852)" fill="#37474F" width="1" height="8.001"/>
			</g>
			<g>
				
					<rect x="7.321" y="41.749" transform="matrix(-0.7076 -0.7066 0.7066 -0.7076 -18.9735 83.6476)" fill="#37474F" width="0.999" height="8.001"/>
			</g>
		</g>
		<g>
			<g>
				
					<rect x="56.817" y="41.748" transform="matrix(0.7076 -0.7066 0.7066 0.7076 -15.5669 53.8786)" fill="#37474F" width="1.001" height="8.001"/>
			</g>
			<g>
				
					<rect x="7.32" y="14.251" transform="matrix(0.7071 -0.7071 0.7071 0.7071 -10.6154 10.8752)" fill="#37474F" width="1" height="8.001"/>
			</g>
		</g>
		<g>
			<g>
				
					<rect x="49.568" y="47.311" transform="matrix(0.8661 -0.4999 0.4999 0.8661 -18.9458 31.9022)" fill="#37474F" width="1" height="8.001"/>
			</g>
			<g>
				
					<rect x="14.568" y="8.689" transform="matrix(0.8667 -0.4988 0.4988 0.8667 -4.3208 9.2065)" fill="#37474F" width="1.001" height="8"/>
			</g>
		</g>
		<g>
			<g>
				
					<rect x="41.127" y="50.807" transform="matrix(0.9659 -0.2588 0.2588 0.9659 -12.7668 12.6413)" fill="#37474F" width="1" height="8"/>
			</g>
			<g>
				
					<rect x="23.01" y="5.193" transform="matrix(0.9659 -0.2591 0.2591 0.9659 -1.5789 6.4042)" fill="#37474F" width="0.999" height="7.999"/>
			</g>
		</g>
		<g>
			<g>
				<rect x="32.068" y="52" fill="#37474F" width="1" height="8"/>
			</g>
			<g>
				<rect x="32.068" y="4" fill="#37474F" width="1" height="8"/>
			</g>
		</g>
	</g>
</g>
</svg>
