<?xml version="1.0" encoding="utf-8"?>
<!-- Generator: Adobe Illustrator 16.0.0, SVG Export Plug-In . SVG Version: 6.00 Build 0)  -->
<!DOCTYPE svg PUBLIC "-//W3C//DTD SVG 1.1//EN" "http://www.w3.org/Graphics/SVG/1.1/DTD/svg11.dtd">
<svg version="1.1" id="_x3C_Layer_x3E_" xmlns="http://www.w3.org/2000/svg" xmlns:xlink="http://www.w3.org/1999/xlink" x="0px"
	 y="0px" width="64px" height="64px" viewBox="0 0 64 64" enable-background="new 0 0 64 64" xml:space="preserve">
<g id="Hygiene_x2C__toothpaste_x2C__tube">
	<g>
		<path fill="#ECEFF1" d="M56,32c0,13.258-10.742,24-24,24S8,45.258,8,32S18.742,8,32,8S56,18.742,56,32z"/>
	</g>
	<polygon fill="#84FFFF" points="52.117,25.318 52.117,18.954 45.046,11.883 38.682,11.883 5.802,40.521 23.479,58.198 	"/>
	<polygon fill="#FFFFFF" points="39.682,13.383 46.046,13.383 52.117,19.454 52.117,18.954 45.046,11.883 38.682,11.883 
		5.801,40.521 7.069,41.788 	"/>
	<polygon fill="#18FFFF" points="50.617,17.454 50.617,23.818 21.979,56.698 23.479,58.198 52.117,25.318 52.117,18.954 	"/>
	<polygon fill="#ECEFF1" points="52.117,25.318 52.117,18.954 45.046,11.883 38.682,11.883 44.545,19.246 	"/>
	<polygon fill="#FFFFFF" points="38.682,11.883 39.876,13.383 46.046,13.383 52.117,19.454 52.117,18.954 45.046,11.883 	"/>
	<polygon fill="#CFD8DC" points="50.617,23.818 50.465,23.993 52.117,25.318 52.117,18.954 50.617,17.454 	"/>
	<path fill="#37474F" d="M23.504,58.931L5.069,40.495l33.426-29.112h6.758l7.364,7.364v6.759l-0.123,0.141L23.504,58.931z
		 M6.534,40.546l16.919,16.92l28.164-32.335v-5.97l-6.778-6.778h-5.97L6.534,40.546z"/>
	<path fill="#FFFFFF" d="M52.117,18.954c0,0-1.591-0.884-3.889-3.182c-2.298-2.298-3.182-3.89-3.182-3.89l7.082-5.901
		c0.795-0.662,1.963-0.609,2.695,0.122l3.074,3.074c0.731,0.73,0.785,1.899,0.122,2.694L52.117,18.954z"/>
	<path fill="#ECEFF1" d="M57.896,9.178l-3.074-3.074c-0.295-0.295-0.662-0.475-1.046-0.546l2.62,2.62
		c0.731,0.73,0.785,1.899,0.122,2.694l-5.876,7.051c0.917,0.716,1.475,1.031,1.475,1.031l5.901-7.082
		C58.681,11.077,58.628,9.908,57.896,9.178z"/>
	<path fill="#37474F" d="M52.236,19.592l-0.362-0.2c-0.067-0.038-1.679-0.945-4-3.266c-2.321-2.32-3.229-3.933-3.266-4l-0.201-0.362
		l7.4-6.166c0.962-0.803,2.483-0.732,3.369,0.152l3.074,3.074c0.921,0.92,0.986,2.367,0.153,3.368L52.236,19.592z M45.701,11.988
		c0.381,0.578,1.283,1.833,2.881,3.431c1.597,1.598,2.852,2.5,3.43,2.881l5.623-6.748c0.5-0.6,0.461-1.469-0.091-2.021l-3.074-3.074
		c-0.53-0.53-1.444-0.572-2.021-0.092L45.701,11.988z"/>
	<path fill="#37474F" d="M51.855,25.744c-0.152-0.094-3.776-2.343-7.516-6.083s-5.989-7.363-6.083-7.516l0.852-0.525
		c0.022,0.037,2.285,3.681,5.938,7.334s7.297,5.916,7.333,5.938L51.855,25.744z"/>
	<g>
		<polygon fill="#18FFFF" points="23.833,58.552 5.448,40.167 6.509,38.399 25.601,57.491 		"/>
		<path fill="#37474F" d="M23.755,59.182L4.818,40.244l1.592-2.651l19.998,19.998L23.755,59.182z M6.078,40.09L23.91,57.922
			l0.884-0.53L6.608,39.206L6.078,40.09z"/>
	</g>
	<g>
		<path fill="#18FFFF" d="M28.417,48.667l19.75-22.25L28.417,48.667z"/>
		
			<rect x="37.791" y="22.666" transform="matrix(0.7478 0.6639 -0.6639 0.7478 34.5789 -15.9543)" fill="#37474F" width="1" height="29.751"/>
	</g>
</g>
</svg>
