<?xml version="1.0" encoding="utf-8"?>
<!-- Generator: Adobe Illustrator 16.0.0, SVG Export Plug-In . SVG Version: 6.00 Build 0)  -->
<!DOCTYPE svg PUBLIC "-//W3C//DTD SVG 1.1//EN" "http://www.w3.org/Graphics/SVG/1.1/DTD/svg11.dtd">
<svg version="1.1" id="_x3C_Layer_x3E_" xmlns="http://www.w3.org/2000/svg" xmlns:xlink="http://www.w3.org/1999/xlink" x="0px"
	 y="0px" width="64px" height="64px" viewBox="0 0 64 64" enable-background="new 0 0 64 64" xml:space="preserve">
<g id="brain_x2C__mind_x2C__organ">
	<path fill="#E6CAA0" d="M38.622,57.5L38.622,57.5c-0.664,0-1.253-0.417-1.471-1.045c-1.05-3.027-4.373-11.792-8.651-14.955
		c-7.123-5.267,9,0,9,0l2.654,14.154C40.334,56.613,39.598,57.5,38.622,57.5z"/>
	<path fill="#FFE0B2" d="M58.5,33.543c0,4.412-2.054,9.663-7.087,9.99c1.587,3.529-5.965,8.441-15.121,4.46
		c-2.724-1.185-4.086-5.271-3.793-5.714c-4.968,1.416-10.937,0.715-14.024-1.746c-2.154,0.029-5.319-1.487-2.85-5.242
		c-3.563,0.5-6.778-0.541-6.78-3.137c-2.611-0.896-3.848-3.442-3.345-4.915c1.68-4.919,2.393-8.469,6.096-10.77
		c-0.346-1.928,3.071-3.928,4.725-3.033c2.703-2.853,6.831-3.244,11.109-3.491c1.633-3.258,5.195-1.612,6.197-0.565
		c2.984,0,6.03,0.752,8.922,2.07c2.471,0.603,5.214,1.726,6.995,3.494c2.008,1.993,3.218,4.619,4.32,7.438
		C57.813,24.492,58.5,29.424,58.5,33.543z"/>
	<path fill="#FFFFFF" d="M44.125,19.056c-0.037-0.682-0.659-1.234-1.5-1.244c-0.552-0.007-1.129-0.029-1.648,0.148
		c-0.749,0.256-1.281,0.825-1.048,1.53C40.123,20.077,44.161,19.722,44.125,19.056z"/>
	<path fill="#FFFFFF" d="M18.664,22.304c-0.706-2.471,3.211-2.664,3.211-3.392c0-0.644-0.755-0.988-1.519-0.932
		c-2.519,0.187-3.479,2.549-3.274,4.669c-0.974-0.192-2.16-0.317-3.058,0.276c-1.084,0.717-2.168,1.875-2.149,3.117
		c0.024,1.635,1.395,1.843,1.625,0.305c0.23-1.539,1.203-1.855,2.375-1.855C17.752,24.837,18.967,23.364,18.664,22.304z"/>
	<path fill="#FFFFFF" d="M17.625,34.625c1.24-0.865,1.759-2.993,3.208-3.456c1.729-0.553,5.438-0.247,7.197-0.528
		c2.07-0.331,4.993-4.041,10.595-2.916c1.868,0.376,1.35-1.613-0.564-1.377c-2.164,0.267-3.245-0.215-5.318,0.474
		c-2.236,0.742-4.086,2.008-6.461,2.283c-1.688,0.195-3.777-0.101-5.434,0.499c-1.648,0.596-2.669,1.396-3.779,2.727
		C15.839,33.801,16.036,35.732,17.625,34.625z"/>
	<path fill="#FFFFFF" d="M6.12,29.779c4.567,0.023-1.282-7.384,6.28-10.867c1.188,0-1.338-4.6,4.183-5.287
		c3.667,1.301,1.961-1.702,10.156-1.488c-1.82,4.05-4.778,10.973-1.364,10.259c0.838-0.175,0.087-1.433,0.305-3.231
		c0.209-1.732,1.995-2.022,2.351-6.219c0.354-4.195,4.782-3,5.436-1.377c0.209,0.52-0.189-0.806,0.062-0.544
		c2.483-0.025,4.498,0.617,4.449,1.5c-0.082,1.472-3.408,3.61-1.602,4.435c2.885,0.499,2.563-5.268,7.843-5.025
		c-0.561-0.187-1.121-0.35-1.669-0.483c-2.892-1.318-5.938-2.07-8.922-2.07c-1.002-1.047-4.564-2.692-6.197,0.565
		c-4.278,0.247-8.406,0.639-11.109,3.491c-1.653-0.895-5.07,1.105-4.725,3.033C7.893,18.771,7.18,22.32,5.5,27.239
		c-0.241,0.707-0.072,1.66,0.448,2.562C6.001,29.788,6.051,29.779,6.12,29.779z"/>
	<g>
		<path fill="#E6CAA0" d="M16.32,32.902c-1.535,1.598-6.124,0.505-7.368,0c0.403,1.448,3.235,3.039,6.024,2.463
			C14.973,34.704,15.849,33.619,16.32,32.902z"/>
		<path fill="#E6CAA0" d="M33.461,39.816c-2.752,2.119-11.454,2.854-14.79,0.648c-0.011,0.059-0.027,0.116-0.049,0.174
			c3.126,2.372,8.984,3.035,13.877,1.641c-0.103,0.155,0.217,0.806,0.242,0.405C35.813,40.813,35.069,39,33.461,39.816z"/>
		<path fill="#E6CAA0" d="M58.5,33.543c0-4.119-0.688-9.051-4.636-11.161c-1.103-2.818-2.313-5.444-4.32-7.438
			c-0.842-0.835-1.901-1.522-3.042-2.083c0.208,0.189,0.412,0.381,0.608,0.575c2.008,1.993,4.015,5.286,4.565,8.246
			c3.948,2.109,4.824,5.741,4.824,9.86c0,5.207-3.268,10.463-8.301,10.79c2.051,2.917-4.751,7.341-13.907,3.36
			c-0.398-0.173-0.695-0.396-0.926-0.653c0.647,1.172,1.631,2.391,2.926,2.953c9.156,3.981,16.708-0.931,15.121-4.46
			C56.446,43.206,58.5,37.955,58.5,33.543z"/>
	</g>
	<g>
		<path fill="#37474F" d="M42.392,11.999c-3.056-1.347-6.287-2.119-8.864-2.119v-1c2.751,0,6.042,0.782,9.267,2.203L42.392,11.999z"
			/>
		<path fill="#37474F" d="M16.684,13.78l-0.727-0.688c2.769-2.921,6.82-3.38,11.443-3.646l0.059,0.998
			C23.052,10.699,19.199,11.126,16.684,13.78z"/>
		<path fill="#37474F" d="M7.151,24.554l-0.992-0.123c0.481-3.876,2.077-6.463,5.173-8.386l0.527,0.85
			C9.045,18.644,7.593,21.006,7.151,24.554z"/>
		<path fill="#37474F" d="M12.033,26.81h-1c0-2.627,2.138-4.764,4.765-4.764c0.146,0,0.294,0.008,0.447,0.025
			c0.001-2.188,1.466-4.048,3.547-4.591c-0.025-0.907,0.247-2.371,0.653-2.87l0.775,0.631c-0.301,0.371-0.518,2.12-0.408,2.46
			l0.18,0.557l-0.57,0.111c-1.841,0.29-3.177,1.848-3.177,3.703c0,0.165,0.025,0.322,0.049,0.481l0.108,0.734l-0.714-0.124
			c-0.328-0.079-0.619-0.118-0.891-0.118C13.722,23.046,12.033,24.734,12.033,26.81z"/>
		<path fill="#37474F" d="M23.894,23.117c-0.043-0.178-1.024-4.386,0.897-7.316c0.983-1.499,1.36-3.275,1.635-4.573
			c0.147-0.694,0.264-1.243,0.441-1.595c0.885-1.75,2.437-2.665,4.144-2.472c1.395,0.165,2.517,1.051,2.791,2.206
			c0.511,2.141-0.202,4.3-2.181,6.601c-0.474,0.551-0.779,1.495-0.885,2.729l-0.996-0.084c0.124-1.467,0.502-2.576,1.123-3.298
			c1.778-2.068,2.403-3.885,1.966-5.717c-0.175-0.736-0.971-1.33-1.936-1.444c-0.615-0.067-2.144-0.028-3.134,1.93
			c-0.119,0.235-0.229,0.753-0.355,1.352c-0.291,1.374-0.69,3.257-1.777,4.914c-1.682,2.565-0.771,6.494-0.761,6.534L23.894,23.117z
			"/>
		<path fill="#37474F" d="M27.29,40.224l-0.58-0.814c0.25-0.179,6.191-4.342,11.417-1.93c2.604,1.203,6.411,1.212,8.02-0.868
			c0.487-0.632,0.832-1.335,1.165-2.014c0.72-1.466,1.463-2.982,3.552-3.031c0.816-0.014,1.645,0.326,2.279,0.949
			c0.619,0.606,0.959,1.383,0.957,2.186c-0.005,2.069-1.21,3.257-1.789,3.828l-0.165,0.165l-0.725-0.689l0.188-0.188
			c0.52-0.512,1.487-1.465,1.491-3.117c0.001-0.531-0.231-1.054-0.656-1.47c-0.427-0.417-0.991-0.664-1.518-0.664
			c-0.014,0-0.026,0.001-0.039,0.001c-1.413,0.033-1.913,0.915-2.677,2.472c-0.339,0.69-0.723,1.472-1.272,2.185
			c-1.934,2.503-6.211,2.558-9.23,1.165C33.01,36.215,27.346,40.184,27.29,40.224z"/>
		<path fill="#37474F" d="M45.954,23.209l-0.908-0.418c0.437-0.946,0.359-2.2-0.197-3.195c-0.492-0.879-1.28-1.425-2.221-1.537
			c-1.304-0.151-2.278,0.366-2.889,1.548l-0.889-0.459c0.799-1.546,2.18-2.287,3.896-2.081c1.266,0.15,2.322,0.875,2.974,2.041
			C46.429,20.372,46.521,21.982,45.954,23.209z"/>
		<path fill="#37474F" d="M11.782,19.014c-0.822-0.8-0.891-1.668-0.891-2.562c0-1.801,1.787-3.894,4.092-3.894
			c1.703,0,2.921,0.572,3.62,1.7l-0.85,0.527c-0.512-0.826-1.418-1.228-2.771-1.228c-1.713,0-3.092,1.583-3.092,2.894
			c0,0.88,0.085,1.355,0.588,1.845L11.782,19.014z"/>
		<path fill="#37474F" d="M10,32.5c-2.757,0-5-2.243-5-5c0-2.17,1.385-4.081,3.446-4.754l0.311,0.951C7.107,24.235,6,25.764,6,27.5
			c0,2.206,1.794,4,4,4c0.423,0,0.84-0.065,1.238-0.195l0.309,0.951C11.049,32.418,10.528,32.5,10,32.5z"/>
		<path fill="#37474F" d="M42.876,49.967c-5.204,0-9.234-2.692-10.885-7.334l0.941-0.336c2.296,6.456,8.35,6.799,10.84,6.642
			c3.959-0.243,6.982-2.046,7.322-3.576c0.125-0.561,0.042-0.987-0.261-1.342c-1.316-1.539-6.348-1.418-10.017-1.188l-0.063-0.998
			c6.345-0.391,9.585,0.067,10.839,1.537c0.51,0.597,0.67,1.34,0.478,2.208c-0.486,2.189-4.104,4.104-8.237,4.357
			C43.511,49.957,43.19,49.967,42.876,49.967z"/>
		<path fill="#37474F" d="M51.421,44.121l-0.182-0.982c4.402-0.816,6.867-4.652,6.762-10.525c-0.071-3.988-1.13-7.019-3.06-8.766
			c-1.396-1.262-3.206-1.81-5.375-1.633l-0.082-0.996c2.46-0.201,4.52,0.433,6.128,1.888c2.141,1.937,3.312,5.218,3.389,9.489
			C59.114,38.912,56.28,43.221,51.421,44.121z"/>
		<path fill="#37474F" d="M53.178,22.489c-0.412-2.169-1.459-4.261-3.025-6.05c-4.122-4.704-8.842-5.735-12.323-2.688
			c-0.978,0.857-1.645,1.981-2.037,3.438l-0.965-0.26c0.439-1.63,1.228-2.952,2.344-3.93c3.882-3.403,9.273-2.309,13.733,2.782
			c1.685,1.922,2.811,4.177,3.256,6.521L53.178,22.489z"/>
		<path fill="#37474F" d="M13.045,35.791c-2.635,0-4.698-1.423-4.698-3.239c0-0.236,0.036-0.472,0.107-0.7l0.955,0.299
			c-0.042,0.132-0.063,0.267-0.063,0.401c0,1.214,1.693,2.239,3.698,2.239c0.717,0,1.547-0.126,2.064-0.313l0.34,0.941
			C14.823,35.645,13.879,35.791,13.045,35.791z"/>
		<g>
			<path fill="#37474F" d="M17.376,40.97c-0.543,0-1.067-0.124-1.558-0.368c-0.837-0.416-1.462-1.134-1.759-2.021
				c-0.297-0.886-0.231-1.835,0.186-2.672c0.767-1.539,2.813-5.251,5.245-6.466c2.871-1.432,6.076-1.075,7.615-0.905l0.061,0.007
				c0.839-0.231,2.938-1.079,3.627-1.444c2.103-1.113,5.531-2.021,8.565-1.117c0.334-0.964,1.152-1.806,1.497-2.161l0.095-0.098
				l0.825,0.56c-0.041,0.069-0.089,0.118-0.202,0.235c-0.315,0.324-1.273,1.31-1.354,2.161l-0.063,0.651l-0.612-0.231
				c-2.845-1.075-6.24-0.197-8.283,0.884c-0.705,0.374-3.04,1.329-3.938,1.554l-0.089,0.022l-0.24-0.028
				c-1.44-0.159-4.447-0.495-7.057,0.806c-2.163,1.08-4.076,4.567-4.798,6.017c-0.297,0.598-0.344,1.276-0.132,1.909
				s0.658,1.146,1.256,1.443c0.351,0.174,0.725,0.263,1.112,0.263c0.81,0,1.578-0.491,2.283-1.459
				c0.725-0.993,1.202-2.108,1.346-3.142l0.104-0.747l0.647,0.386c0.911,0.544,2.306,0.634,3.394,0.225
				c0.642-0.243,1.074-0.625,1.219-1.077l0.21-0.653l0.558,0.399c0.999,0.714,3.12,0.779,4.725,0.146
				c0.845-0.334,1.386-0.808,1.484-1.3l0.15-0.751l0.627,0.439c0.977,0.684,2.169,0.889,3.533,0.616
				c3.263-0.657,6.497-3.727,8.121-6.3l0.846,0.533c-1.734,2.748-5.218,6.032-8.77,6.746c-1.414,0.284-2.681,0.132-3.776-0.452
				c-0.34,0.568-0.975,1.053-1.849,1.397c-1.479,0.585-3.675,0.752-5.172,0.033c-0.327,0.495-0.861,0.896-1.553,1.157
				c-1.147,0.436-2.529,0.422-3.636,0c-0.245,0.994-0.729,2.015-1.399,2.934C19.563,40.341,18.523,40.97,17.376,40.97z"/>
		</g>
		<g>
			<path fill="#37474F" d="M15.783,33.15c-1.239,0-2.45-0.67-2.528-0.714l0.49-0.872c0.021,0.013,2.257,1.221,3.159,0.118
				c0.479-0.585,0.961-1.079,1.432-1.47c0.213-0.72-1.096-2.005-2.55-2.875L16.3,26.48c1.786,1.067,3.616,2.825,2.897,4.264
				l-0.135,0.167c-0.448,0.359-0.914,0.832-1.385,1.406C17.163,32.945,16.469,33.15,15.783,33.15z"/>
		</g>
		<g>
			<path fill="#37474F" d="M27.234,29.561l-0.24-0.028c-0.788-0.087-1.973-0.219-3.318-0.133c-0.161,0.047-0.564,0.041-1.077-0.334
				c-1.089-0.797-2.313-3.031-2.479-5.389l0.998-0.07c0.141,2.025,1.179,3.987,2.06,4.644c0.236,0.175,0.342,0.164,0.349,0.164
				c1.516-0.104,2.755,0.032,3.574,0.124l0.065,0.007c0.839-0.231,2.938-1.079,3.627-1.444l0.469,0.883
				c-0.706,0.375-3.041,1.33-3.938,1.555L27.234,29.561z"/>
		</g>
		<g>
			<path fill="#37474F" d="M30.599,28.134c-0.36,0-0.739-0.12-1.11-0.358c-0.945-0.606-1.632-1.835-1.632-2.919h1
				c0,0.829,0.596,1.708,1.172,2.077c0.175,0.112,0.508,0.285,0.791,0.153c1.002-0.458,2.088-0.916,3.256-1.177
				c0.578-0.596,0.666-2.178,0.195-3.769l0.959-0.283c0.523,1.767,0.54,3.968-0.602,4.899l-0.095,0.077l-0.119,0.024
				c-1.123,0.234-2.191,0.686-3.179,1.138C31.034,28.089,30.82,28.134,30.599,28.134z"/>
		</g>
		<g>
			<path fill="#37474F" d="M39.663,55.746c0.058,0.311-0.024,0.628-0.227,0.871C39.235,56.86,38.938,57,38.622,57
				c-0.45,0-0.852-0.285-0.998-0.709c-0.925-2.664-3.051-8.208-5.914-12.119c-0.358,0.065-0.744,0.113-1.137,0.156
				c3.059,3.965,5.363,10.149,6.105,12.291C36.966,57.445,37.746,58,38.622,58c0.614,0,1.191-0.271,1.584-0.744
				s0.553-1.09,0.439-1.693l-0.926-4.938c-0.365-0.081-0.722-0.18-1.071-0.289L39.663,55.746z"/>
		</g>
		<path fill="#37474F" d="M26.953,43.494c-5.299,0-8.575-1.19-8.764-3.185l0.996-0.094c0.126,1.342,3.32,2.278,7.768,2.278
			c4.883,0,6.716-0.537,7.845-2.301l0.842,0.539C34.146,43.067,31.542,43.494,26.953,43.494z"/>
		<path fill="#37474F" d="M47.583,28.1c-1.296,0-2.392-1.03-2.392-2.25h1c0,0.666,0.65,1.25,1.392,1.25
			c0.38,0,0.738-0.295,0.918-0.47l0.699,0.715C48.847,27.689,48.28,28.1,47.583,28.1z"/>
		<path fill="#37474F" d="M51.007,32.146c-0.011-0.063-0.236-1.551,1.026-2.732c1.273-1.19,2.545-0.857,2.599-0.844l-0.264,0.965
			l0.132-0.482l-0.125,0.484c-0.035-0.011-0.811-0.186-1.658,0.607c-0.863,0.808-0.729,1.803-0.723,1.845L51.007,32.146z"/>
		<path fill="#37474F" d="M33.504,33.22c-0.515-0.455-0.785-1.023-0.78-1.644c0.009-1.409,1.432-2.65,1.492-2.702l0.653,0.758
			c-0.317,0.274-1.143,1.161-1.146,1.953c-0.001,0.331,0.144,0.62,0.443,0.885L33.504,33.22z"/>
		<path fill="#37474F" d="M26.361,34.528c-0.055-0.066-0.555-0.698-1.012-2.453l0.967-0.252c0.398,1.525,0.813,2.063,0.816,2.068
			L26.361,34.528z"/>
		<path fill="#37474F" d="M17.479,19.97c-2.043-0.625-2.486-2.58-2.436-3.526l0.998,0.051c-0.003,0.08-0.067,1.969,1.73,2.519
			L17.479,19.97z"/>
		<path fill="#37474F" d="M31.295,19.433c-0.458-0.719-1.606-0.851-2.229-0.25l-0.693-0.721c0.458-0.439,1.063-0.682,1.706-0.682
			c0.845,0,1.615,0.417,2.061,1.115L31.295,19.433z"/>
		<path fill="#37474F" d="M20.9,36.039c-0.002-0.231-0.091-0.901-0.477-1.209c-0.235-0.187-0.562-0.232-1.005-0.135l-0.213-0.977
			c0.744-0.164,1.367-0.051,1.847,0.335c0.824,0.662,0.848,1.851,0.848,1.983h-1h0.5L20.9,36.039z"/>
		<path fill="#37474F" d="M47.268,40.455c-0.567,0-1.074-0.198-1.468-0.592c-0.658-0.66-0.823-1.729-0.383-2.488l0.865,0.502
			c-0.214,0.367-0.112,0.941,0.226,1.279c0.428,0.43,1.117,0.403,1.941-0.072l0.5,0.865C48.366,40.287,47.791,40.455,47.268,40.455z
			"/>
	</g>
	<path fill="#37474F" d="M39.956,39.004c-1.231-1.133-1.006-2.146-0.762-2.649c0.522-1.079,1.995-1.7,2.954-1.558l-0.158,0.988
		c-0.517-0.087-1.57,0.334-1.896,1.005c-0.218,0.45-0.036,0.948,0.54,1.478L39.956,39.004z"/>
</g>
</svg>
