<?xml version="1.0" encoding="utf-8"?>
<!-- Generator: Adobe Illustrator 16.0.0, SVG Export Plug-In . SVG Version: 6.00 Build 0)  -->
<!DOCTYPE svg PUBLIC "-//W3C//DTD SVG 1.1//EN" "http://www.w3.org/Graphics/SVG/1.1/DTD/svg11.dtd">
<svg version="1.1" id="_x3C_Layer_x3E_" xmlns="http://www.w3.org/2000/svg" xmlns:xlink="http://www.w3.org/1999/xlink" x="0px"
	 y="0px" width="64px" height="64px" viewBox="0 0 64 64" enable-background="new 0 0 64 64" xml:space="preserve">
<g id="Body_temperature_x2C__check_x2C__scan_x2C__thermometerб_x2C__infrared_thermometer_1_">
	<g id="fever_x2C__sick_5_">
		<g id="XMLID_2676_">
			<path id="XMLID_2677_" fill="#FFFFFF" d="M27.052,26.551l0.188-3.346c0-9.739-8.49-17.888-19.48-17.654
				C6.464,5.579,5.209,5.729,4,5.984V55c0,2.209,1.791,4,4,4h7.704l0.882-8.441H23.2c1.662,0,3.01-1.347,3.01-3.009V37.506h4.246
				c1.026,0,1.964-0.733,1.479-1.637L27.052,26.551z"/>
		</g>
		<path id="XMLID_2675_" fill="#FFE0B2" d="M31.936,35.869l-4.884-9.317l0.188-3.346c0-0.54-0.036-1.073-0.087-1.603
			c-0.013-0.124-0.024-0.248-0.039-0.372c-0.061-0.507-0.141-1.009-0.246-1.503c-0.022-0.105-0.052-0.208-0.077-0.313
			c-0.096-0.408-0.208-0.81-0.333-1.207c-0.044-0.139-0.084-0.278-0.132-0.415c-0.152-0.443-0.325-0.878-0.513-1.307
			c-0.07-0.158-0.146-0.313-0.221-0.468c-0.156-0.329-0.324-0.652-0.502-0.97c-0.073-0.132-0.141-0.267-0.218-0.396l-0.001,0
			c-3.465-4.671-9.306-7.745-16.112-7.6C8.053,7.067,7.353,7.12,6.662,7.208C5.147,7.399,4,8.668,4,10.195V55c0,2.209,1.791,4,4,4
			h7.704l0.882-8.441h6.808c1.555,0,2.816-1.261,2.816-2.816V37.506h4.246C31.482,37.506,32.42,36.772,31.936,35.869z"/>
		<g id="XMLID_2670_">
			<g id="creative_idea_8_">
				<g id="Public_Relations_8_">
					<polygon id="XMLID_2674_" fill="#E6CAA0" points="7.061,50.125 15.704,56 16.586,50.559 					"/>
					
						<rect id="XMLID_2673_" x="15.554" y="52.235" transform="matrix(0.9945 0.1045 -0.1045 0.9945 5.9053 -1.3732)" fill="#37474F" width="1" height="6.833"/>
					<path id="XMLID_2672_" fill="#37474F" d="M22.255,42.497l-0.111-0.994l3.895-0.433c-0.401-1.541-0.342-3.488-0.339-3.581
						l0.5-0.483h4.714c0.173,0,0.325-0.083,0.42-0.228c0.094-0.145,0.107-0.319,0.037-0.477l-4.766-9.526l-0.052-0.251l0.188-3.346
						C26.739,14.913,21.753,6.052,7.759,6.052H4v-1h3.759c12.138,0,19.98,7.126,19.98,18.154l-0.181,3.241l4.715,9.427
						c0.218,0.485,0.176,1.02-0.102,1.448c-0.277,0.428-0.748,0.684-1.259,0.684h-4.217c0.008,0.774,0.077,2.308,0.469,3.313
						l-0.41,0.679L22.255,42.497z"/>
				</g>
			</g>
			<polygon id="XMLID_2671_" fill="#37474F" points="24.699,28 20.199,28 20.199,27 22.738,27 18.96,24.939 19.438,24.061 
				24.938,27.061 			"/>
		</g>
	</g>
	<g id="back_to_school_1_">
		<g id="XMLID_2660_">
			<path id="XMLID_2669_" fill="#84FFFF" d="M59.553,39.969c0,0-2.771-4.393-3.308-4.525l-6.519-2.35
				c-0.539-0.119-1.411-0.134-1.946,0L44.5,33.5c-0.71,0.177-1.904,1.874-2.631,3H41c-1.104,0-2,0.896-2,2l0,0c0,1.104,0.896,2,2,2
				h0.833H39.5c-1.104,0-2,0.896-2,2l0,0c0,1.104,0.896,2,2,2h3.459H41c-1.104,0-2,0.896-2,2l0,0c0,1.104,0.896,2,2,2h2.583H43
				c-1.104,0-2,0.896-2,2l0,0c0,1.104,0.896,2,2,2h9.529c3.854,0,6.984-3.116,7-6.971L59.553,39.969z"/>
			<g id="XMLID_2667_">
				<path id="XMLID_2668_" fill="#18FFFF" d="M59.525,45.025c-0.014,3.304-2.696,5.975-6,5.975H43c-0.839,0-1.555-0.518-1.852-1.25
					C41.055,49.982,41,50.234,41,50.5c0,1.104,0.896,2,2,2h9.529c3.854,0,6.984-3.116,7-6.971l0.023-5.56
					c0,0-0.005-0.008-0.006-0.01L59.525,45.025z"/>
			</g>
			<g id="XMLID_2661_">
				<path id="XMLID_2666_" fill="#FFFFFF" d="M44,49c0-0.276-0.224-0.5-0.5-0.5H43c-1.104,0-2,0.896-2,2
					c0,0.174,0.029,0.339,0.07,0.5c0.224-0.861,0.999-1.5,1.93-1.5h0.5C43.776,49.5,44,49.276,44,49L44,49z"/>
				<path id="XMLID_2665_" fill="#FFFFFF" d="M44,45c0-0.276-0.224-0.5-0.5-0.5H41c-1.104,0-2,0.896-2,2
					c0,0.174,0.029,0.339,0.07,0.5c0.224-0.861,0.999-1.5,1.93-1.5h2.5C43.776,45.5,44,45.276,44,45L44,45z"/>
				<path id="XMLID_2664_" fill="#FFFFFF" d="M44,41c0-0.276-0.224-0.5-0.5-0.5h-4c-1.104,0-2,0.896-2,2
					c0,0.174,0.029,0.339,0.07,0.5c0.224-0.861,0.999-1.5,1.93-1.5h4C43.776,41.5,44,41.276,44,41L44,41z"/>
				<path id="XMLID_2663_" fill="#FFFFFF" d="M51.5,37c0-0.276-0.224-0.5-0.5-0.5H41c-1.104,0-2,0.896-2,2
					c0,0.174,0.029,0.339,0.07,0.5c0.224-0.861,0.999-1.5,1.93-1.5h10C51.276,37.5,51.5,37.276,51.5,37L51.5,37z"/>
				<path id="XMLID_2662_" fill="#FFFFFF" d="M56.245,35.444l-6.519-2.35c-0.539-0.119-1.411-0.134-1.946,0L44.5,33.5
					c-0.361,0.09-0.848,0.574-1.333,1.175v1c0.485-0.601,0.972-1.085,1.333-1.175l3.28-0.405c0.535-0.134,1.407-0.119,1.946,0
					l6.519,2.35c0.532,0.131,3.258,4.446,3.304,4.519l0.004-0.994C59.553,39.969,56.782,35.576,56.245,35.444z"/>
			</g>
		</g>
	</g>
	<path id="XMLID_2659_" fill="#37474F" d="M59.346,40.77l-2.265-3.724c-0.565-0.879-1.425-1.538-2.42-1.854l-5.086-1.621
		c-0.455-0.099-1.24-0.1-1.674,0.008l-3.34,0.417c-0.006,0.005-0.625,0.222-2.272,2.775c-0.15,0.233-0.461,0.298-0.691,0.149
		c-0.231-0.149-0.299-0.459-0.148-0.691c1.909-2.959,2.678-3.151,2.93-3.214l3.34-0.417c0.605-0.156,1.559-0.116,2.115,0.008
		l5.13,1.632c1.217,0.387,2.267,1.192,2.959,2.267l2.265,3.724L59.346,40.77z"/>
	<path id="XMLID_2658_" fill="#37474F" d="M58.069,58.712L54.714,53H43c-1.379,0-2.5-1.122-2.5-2.5c0-0.563,0.187-1.082,0.501-1.5
		H41c-1.379,0-2.5-1.122-2.5-2.5c0-0.582,0.2-1.118,0.534-1.543C37.878,44.738,37,43.72,37,42.5s0.878-2.238,2.034-2.457
		C38.7,39.618,38.5,39.082,38.5,38.5c0-1.378,1.121-2.5,2.5-2.5h10c0.276,0,0.5,0.224,0.5,0.5S51.276,37,51,37H41
		c-0.827,0-1.5,0.673-1.5,1.5S40.173,40,41,40h2.5c0.276,0,0.5,0.224,0.5,0.5S43.776,41,43.5,41h-4c-0.827,0-1.5,0.673-1.5,1.5
		s0.673,1.5,1.5,1.5h4c0.276,0,0.5,0.224,0.5,0.5S43.776,45,43.5,45H41c-0.827,0-1.5,0.673-1.5,1.5S40.173,48,41,48h2.5
		c0.276,0,0.5,0.224,0.5,0.5S43.776,49,43.5,49H43c-0.827,0-1.5,0.673-1.5,1.5S42.173,52,43,52h12c0.178,0,0.342,0.094,0.431,0.247
		l3.5,5.958L58.069,58.712z"/>
	<g id="XMLID_2653_">
		<path id="XMLID_2657_" fill="#FFFFFF" d="M42.2,36.5h7.956l-2.346-13.003c-0.479-2.656-2.673-4.666-5.361-4.91l-9.769-0.888
			C31.51,17.592,30.5,18.514,30.5,19.69v3.231c0,0.926,0.635,1.73,1.535,1.945l5.912,1.413c1.55,0.37,2.732,1.625,3.01,3.193
			L42.2,36.5z"/>
		<path id="XMLID_2654_" fill="#37474F" d="M50.755,37h-8.974l-1.316-7.44c-0.243-1.373-1.276-2.47-2.634-2.794l-5.912-1.413
			c-1.13-0.27-1.919-1.27-1.919-2.432V19.69c0-1.454,1.258-2.617,2.726-2.49l9.769,0.888c2.903,0.264,5.292,2.451,5.809,5.319
			L50.755,37z M42.619,36h6.938l-2.239-12.415c-0.438-2.427-2.458-4.278-4.914-4.501l-9.769-0.888C31.745,18.11,31,18.817,31,19.69
			v3.231c0,0.697,0.474,1.297,1.151,1.459l5.912,1.413c1.745,0.417,3.074,1.827,3.386,3.593L42.619,36z"/>
	</g>
	<path id="XMLID_2652_" fill="#FFFFFF" d="M42.2,36.5h7.956l-2.346-13.003c-0.479-2.656-2.673-4.666-5.361-4.91l-9.769-0.888
		C31.51,17.592,30.5,18.514,30.5,19.69v3.231c0,0.926,0.635,1.73,1.535,1.945l5.912,1.413c1.55,0.37,2.732,1.625,3.01,3.193
		L42.2,36.5z"/>
	<path id="XMLID_2651_" fill="#ECEFF1" d="M37.947,26.279c1.55,0.37,2.732,1.625,3.01,3.193L42.2,36.5h7.956l-2.346-13.003
		c-0.158-0.877-0.518-1.673-1.006-2.369c-0.828-0.571-1.801-0.946-2.855-1.042l-10.858-0.987C32.505,19.046,32,19.507,32,20.095
		v4.326c0,0.155,0.023,0.305,0.058,0.451L37.947,26.279z"/>
	<path id="XMLID_2648_" fill="#37474F" d="M50.755,37h-8.974l-1.316-7.44c-0.243-1.373-1.276-2.47-2.634-2.794l-5.912-1.413
		c-1.13-0.27-1.919-1.27-1.919-2.432V19.69c0-1.454,1.258-2.617,2.726-2.49l9.769,0.888c2.903,0.264,5.292,2.451,5.809,5.319
		L50.755,37z M42.619,36h6.938l-2.239-12.415c-0.438-2.427-2.458-4.278-4.914-4.501l-9.769-0.888C31.745,18.11,31,18.817,31,19.69
		v3.231c0,0.697,0.474,1.297,1.151,1.459l5.912,1.413c1.745,0.417,3.074,1.827,3.386,3.593L42.619,36z"/>
	<g id="XMLID_2643_">
		<path id="XMLID_2647_" fill="#84FFFF" d="M47.811,23.497c-0.062-0.344-0.155-0.676-0.272-0.997h-1.833
			c-0.626,0-1.099,0.569-0.983,1.184l1.125,6c0.089,0.473,0.502,0.816,0.983,0.816h2.244L47.811,23.497z"/>
		<path id="XMLID_2644_" fill="#37474F" d="M49.673,31H46.83c-0.722,0-1.342-0.515-1.475-1.224l-1.125-6
			c-0.083-0.44,0.034-0.89,0.32-1.234C44.837,22.198,45.258,22,45.705,22h2.183l0.12,0.328c0.132,0.362,0.231,0.725,0.295,1.081
			L49.673,31z M45.705,23c-0.204,0-0.329,0.113-0.385,0.181c-0.057,0.067-0.145,0.21-0.107,0.411l1.125,6
			C46.383,29.828,46.59,30,46.83,30h1.646l-1.157-6.415c-0.034-0.192-0.081-0.388-0.141-0.585H45.705z"/>
	</g>
	<path id="XMLID_2642_" fill="#37474F" d="M27.1,43.285l-0.801-0.6c-0.655,0.875-0.837,2.358-0.54,4.408
		c0.108,0.74-0.107,1.484-0.591,2.043c-0.479,0.553-1.145,0.857-1.877,0.857c0,0-0.001,0.006-0.002,0.006H9.686
		c-2.474-0.007-4.486-2.026-4.486-4.5v-0.514h-1V45.5c0,3.024,2.46,5.491,5.486,5.5h13.602c0.002,0,0.003,0,0.004,0
		c1.012,0,1.972-0.444,2.633-1.208c0.674-0.779,0.975-1.814,0.825-2.842C26.494,45.197,26.615,43.93,27.1,43.285z"/>
</g>
</svg>
