<?xml version="1.0" encoding="utf-8"?>
<!-- Generator: Adobe Illustrator 16.0.0, SVG Export Plug-In . SVG Version: 6.00 Build 0)  -->
<!DOCTYPE svg PUBLIC "-//W3C//DTD SVG 1.1//EN" "http://www.w3.org/Graphics/SVG/1.1/DTD/svg11.dtd">
<svg version="1.1" id="_x3C_Layer_x3E_" xmlns="http://www.w3.org/2000/svg" xmlns:xlink="http://www.w3.org/1999/xlink" x="0px"
	 y="0px" width="64px" height="64px" viewBox="0 0 64 64" enable-background="new 0 0 64 64" xml:space="preserve">
<g id="call_x2C__hand_x2C__phone_x2C__mobile_x2C__smartphome_x2C__mobile_phone">
	<g id="XMLID_1504_">
		<g id="XMLID_1377_">
			<path fill="#E6CAA0" d="M51.584,10.646c-1.096-0.941-2.75-0.809-3.685,0.288l-8.566,10.02c-0.938,1.098-0.81,2.747,0.288,3.685
				c0.492,0.422,1.096,0.628,1.696,0.628c0.739,0,1.472-0.312,1.988-0.916l8.566-10.021C52.812,13.232,52.682,11.583,51.584,10.646z
				"/>
			<path fill="#37474F" d="M41.317,25.766c-0.741,0-1.459-0.266-2.021-0.748c-0.632-0.54-1.016-1.294-1.081-2.123
				c-0.064-0.829,0.197-1.634,0.738-2.267l8.566-10.02c0.539-0.633,1.294-1.018,2.126-1.082c0.823-0.062,1.633,0.198,2.264,0.739
				l0,0c0.633,0.54,1.017,1.295,1.081,2.124s-0.197,1.633-0.738,2.265l-8.566,10.021C43.093,25.368,42.229,25.766,41.317,25.766z
				 M49.89,10.517c-0.055,0-0.11,0.003-0.167,0.007c-0.564,0.044-1.076,0.305-1.442,0.734l-8.567,10.021
				c-0.367,0.429-0.545,0.976-0.501,1.538s0.305,1.074,0.734,1.441c0.854,0.731,2.251,0.618,2.979-0.233l8.566-10.021
				c0.367-0.429,0.545-0.975,0.501-1.536c-0.044-0.563-0.305-1.075-0.734-1.442l-0.001-0.001
				C50.873,10.694,50.393,10.517,49.89,10.517z"/>
		</g>
	</g>
	<g>
		<path fill="#FFFFFF" d="M23.688,35.777v-5.214c0,0,1.962-11.157-5.228-10.123l0.105,8.063l-2.194,10.4l2.961,9.418L14.167,59
			h13.05C29.918,40.314,23.688,35.777,23.688,35.777z"/>
	</g>
	<g>
		<path fill="#E6CAA0" d="M34.798,53.475c5.882,0.729,8.06-3.301,10.602-10.745l1.744-11.831l-14.813,2.25L22.004,59h10.457
			L34.798,53.475z"/>
	</g>
	<g>
		<path fill="#FFFFFF" d="M46.5,43.5c0,1.65-1.35,3-3,3h-17c-1.65,0-3-1.35-3-3v-35c0-1.65,1.35-3,3-3h17c1.65,0,3,1.35,3,3V43.5z"
			/>
	</g>
	<g>
		<path fill="#FFFFFF" d="M46.5,43.5c0,1.65-1.35,3-3,3h-17c-1.65,0-3-1.35-3-3v-35c0-1.65,1.35-3,3-3h17c1.65,0,3,1.35,3,3V43.5z"
			/>
	</g>
	<g>
		<path fill="#CFD8DC" d="M45,42c0,1.1-0.9,2-2,2H27c-1.1,0-2-0.9-2-2V9c0-1.1,0.9-2,2-2h16c1.1,0,2,0.9,2,2V42z"/>
	</g>
	<g>
		<path fill="#37474F" d="M43.5,47h-17c-1.93,0-3.5-1.57-3.5-3.5v-35C23,6.57,24.57,5,26.5,5h17C45.43,5,47,6.57,47,8.5v35
			C47,45.43,45.43,47,43.5,47z M26.5,6C25.121,6,24,7.121,24,8.5v35c0,1.379,1.121,2.5,2.5,2.5h17c1.379,0,2.5-1.121,2.5-2.5v-35
			C46,7.121,44.879,6,43.5,6H26.5z"/>
	</g>
	<g id="XMLID_1345_">
		<path fill="#FFE0B2" d="M48.888,21.769c-1.097-0.941-2.751-0.81-3.685,0.287l-0.301,0.381c-0.938,1.099-0.81,2.747,0.288,3.685
			c0.492,0.422,1.097,0.628,1.697,0.628c0.738,0,1.472-0.311,1.987-0.915l0.299-0.381C50.114,24.355,49.985,22.706,48.888,21.769z"
			/>
		<path fill="#37474F" d="M46.888,27.249c-0.741,0-1.46-0.266-2.022-0.748c-1.304-1.113-1.458-3.083-0.343-4.389l0.288-0.366
			c0.551-0.647,1.305-1.032,2.136-1.097c0.818-0.066,1.635,0.197,2.267,0.74c0.633,0.54,1.016,1.293,1.081,2.122
			c0.064,0.829-0.198,1.635-0.74,2.267l-0.285,0.364C48.664,26.852,47.801,27.249,46.888,27.249z M47.192,21.64
			c-0.056,0-0.112,0.002-0.169,0.007c-0.563,0.044-1.074,0.305-1.439,0.733l-0.289,0.366c-0.77,0.902-0.665,2.239,0.221,2.995
			c0.853,0.73,2.253,0.619,2.979-0.231l0.286-0.365c0.382-0.446,0.561-0.992,0.517-1.556c-0.044-0.562-0.305-1.073-0.734-1.44
			v-0.001C48.177,21.817,47.695,21.64,47.192,21.64z"/>
	</g>
	<g id="XMLID_1342_">
		<path fill="#FFE0B2" d="M49.484,27.631c-1.096-0.94-2.75-0.808-3.684,0.287l-1.321,1.525c-0.939,1.097-0.81,2.747,0.288,3.685
			c0.491,0.422,1.096,0.627,1.695,0.627c0.74,0,1.473-0.312,1.989-0.915l1.319-1.524C50.711,30.218,50.582,28.569,49.484,27.631z"/>
		<path fill="#37474F" d="M46.463,34.255c-0.742,0-1.46-0.266-2.021-0.748c-0.632-0.539-1.016-1.294-1.08-2.124
			c-0.064-0.829,0.197-1.633,0.738-2.265l1.323-1.527c0.537-0.63,1.291-1.014,2.122-1.078c0.831-0.068,1.635,0.197,2.265,0.738l0,0
			c0.632,0.541,1.016,1.295,1.081,2.124c0.064,0.828-0.198,1.633-0.739,2.266l-1.321,1.526
			C48.239,33.857,47.376,34.255,46.463,34.255z M47.79,27.503c-0.056,0-0.111,0.002-0.167,0.007
			c-0.564,0.044-1.076,0.304-1.441,0.732l-1.324,1.528c-0.365,0.427-0.543,0.973-0.499,1.535s0.305,1.075,0.734,1.442
			c0.85,0.73,2.251,0.619,2.979-0.233l1.321-1.526c0.365-0.428,0.544-0.974,0.5-1.536s-0.305-1.074-0.734-1.441l0,0
			C48.774,27.68,48.293,27.503,47.79,27.503z"/>
	</g>
	<g id="XMLID_1339_">
		<path fill="#FFE0B2" d="M49.402,34.804c-1.096-0.941-2.75-0.809-3.685,0.288l-1.319,1.524c-0.939,1.097-0.811,2.746,0.286,3.685
			c0.493,0.421,1.097,0.628,1.697,0.628c0.738,0,1.473-0.312,1.987-0.916l1.321-1.524C50.63,37.391,50.5,35.741,49.402,34.804z"/>
		<path fill="#37474F" d="M46.382,41.429c-0.739,0-1.457-0.266-2.021-0.748c-0.633-0.541-1.017-1.295-1.081-2.124
			s0.198-1.634,0.739-2.266l1.321-1.526c0.537-0.631,1.292-1.016,2.124-1.08c0.824-0.062,1.632,0.198,2.264,0.739l0,0
			c0.632,0.54,1.017,1.294,1.081,2.124c0.065,0.829-0.197,1.634-0.738,2.266l-1.323,1.526C48.159,41.03,47.296,41.429,46.382,41.429
			z M47.708,34.675c-0.055,0-0.11,0.003-0.167,0.007c-0.564,0.044-1.076,0.305-1.442,0.734l-1.322,1.527
			c-0.365,0.427-0.544,0.973-0.5,1.536c0.044,0.563,0.305,1.074,0.733,1.441c0.859,0.732,2.255,0.618,2.979-0.232l1.324-1.527
			c0.365-0.427,0.543-0.974,0.499-1.536s-0.305-1.074-0.734-1.441l-0.001-0.001C48.691,34.853,48.211,34.675,47.708,34.675z"/>
	</g>
	<g>
		<g>
			<g>
				<g>
					<g>
						<g>
							<rect x="32" y="7" fill="#37474F" width="6" height="1"/>
						</g>
					</g>
				</g>
			</g>
		</g>
	</g>
	<g>
		<circle fill="#CCFF90" cx="35" cy="22" r="7"/>
		<path fill="#37474F" d="M35,29.5c-4.136,0-7.5-3.364-7.5-7.5s3.364-7.5,7.5-7.5s7.5,3.364,7.5,7.5S39.136,29.5,35,29.5z M35,15.5
			c-3.584,0-6.5,2.916-6.5,6.5s2.916,6.5,6.5,6.5s6.5-2.916,6.5-6.5S38.584,15.5,35,15.5z"/>
	</g>
	<g>
		<path fill="#37474F" d="M34.852,23.809l-1.66-1.66c-0.445-0.444-0.384-1.183,0.128-1.548l0.47-0.336
			c0.135-0.096,0.181-0.274,0.109-0.423l-0.887-1.853c-0.151-0.316-0.571-0.389-0.819-0.14l-0.394,0.395
			c-0.354,0.354-0.547,0.849-0.488,1.346c0.37,3.194,2.905,5.729,6.1,6.1c0.497,0.058,0.991-0.135,1.346-0.488l0.395-0.394
			c0.249-0.248,0.177-0.668-0.14-0.819l-1.853-0.887c-0.148-0.071-0.327-0.025-0.423,0.109l-0.336,0.47
			C36.034,24.192,35.296,24.254,34.852,23.809z"/>
	</g>
	<g>
		<path fill="#FFE0B2" d="M23.688,34.035v-3.472l0.147-4.241c-0.509-7.188-4.385-5.039-5.375-5.817l1.018,9.3l-1.267,9.152
			l2.571,7.568c0.327,0.905,0.3,2.17-0.059,2.823L15.237,59h13.719C35.632,39.181,23.688,34.035,23.688,34.035z"/>
	</g>
	<g>
		<path fill="#37474F" d="M35.326,54.07c4.154,0.188,7.85-2.781,9.499-7.609l-0.947-0.322c-1.171,3.428-4.187,7.295-8.821,6.914
			l-0.349-0.029L31.945,59h1.103L35.326,54.07z"/>
		<path fill="#37474F" d="M19.873,48.372l-2.241-7.123c-0.41-1.308-0.511-3.459-0.225-4.792l1.581-7.141L19,21h0.5
			c1.93,0,3.5,1.57,3.5,3.5v9.577l0.348,0.323l0.097,0.071c0.066,0.037,6.632,3.813,6.632,12.51h1c0-8.788-6.349-12.9-7.076-13.343
			V24.5c0-2.481-2.019-4.5-4.5-4.5H18v9.153l-1.57,7.091c-0.322,1.504-0.214,3.833,0.248,5.305l2.115,6.724L13.106,59h1.131
			L19.873,48.372z"/>
	</g>
</g>
</svg>
