<?xml version="1.0" encoding="utf-8"?>
<!-- Generator: Adobe Illustrator 16.0.0, SVG Export Plug-In . SVG Version: 6.00 Build 0)  -->
<!DOCTYPE svg PUBLIC "-//W3C//DTD SVG 1.1//EN" "http://www.w3.org/Graphics/SVG/1.1/DTD/svg11.dtd">
<svg version="1.1" id="_x3C_Layer_x3E_" xmlns="http://www.w3.org/2000/svg" xmlns:xlink="http://www.w3.org/1999/xlink" x="0px"
	 y="0px" width="64px" height="64px" viewBox="0 0 64 64" enable-background="new 0 0 64 64" xml:space="preserve">
<g id="research_x2C__biology_x2C__Corona_virus_x2C__Covid-19_x2C__magnifier">
	<circle id="XMLID_2279_" fill="#CFD8DC" cx="23.5" cy="43" r="16"/>
	<path id="XMLID_2278_" fill="#CFD8DC" d="M23.466,27c12.813-0.027,15.064-4.228,16.778-11.64L51.46,26.796
		c-7.444,1.569-11.688,3.739-11.964,16.549L23.466,27z"/>
	<circle id="XMLID_2277_" fill="#CFD8DC" cx="49.5" cy="17.5" r="9.5"/>
	<g id="XMLID_1669_">
		<g id="XMLID_1841_">
			<g id="XMLID_2145_">
				<path id="XMLID_2157_" fill="#CCFF90" d="M56.381,4.75l-6.762,14.5L56.381,4.75z"/>
				
					<rect x="52.599" y="4.022" transform="matrix(0.9066 0.422 -0.422 0.9066 9.9351 -21.3082)" fill="#37474F" width="1" height="15.53"/>
			</g>
			<g id="XMLID_1998_">
				<path id="XMLID_2144_" fill="#CCFF90" d="M60.518,9.264l-15.035,5.473L60.518,9.264z"/>
				
					<rect x="52.771" y="4.757" transform="matrix(0.3419 0.9397 -0.9397 0.3419 46.2987 -42.1886)" fill="#37474F" width="1" height="14.409"/>
			</g>
			<g id="XMLID_1993_">
				<path id="XMLID_1996_" fill="#CCFF90" d="M60.25,15.381L45.749,8.619L60.25,15.381z"/>
				
					<rect x="45" y="11.5" transform="matrix(0.9063 0.4226 -0.4226 0.9063 10.0367 -21.2738)" fill="#37474F" width="16" height="1"/>
			</g>
			<g id="XMLID_1842_">
				<path id="XMLID_1992_" fill="#CCFF90" d="M55.736,19.518L50.264,4.482L55.736,19.518z"/>
				
					<rect x="45.322" y="11.877" transform="matrix(0.325 0.9457 -0.9457 0.325 47.4806 -41.7659)" fill="#37474F" width="15.351" height="0.999"/>
			</g>
		</g>
		<g>
			<circle id="XMLID_1066_" fill="#FF8A80" cx="53" cy="12" r="5"/>
			<path fill="#37474F" d="M53,17.5c-3.032,0-5.5-2.468-5.5-5.5s2.468-5.5,5.5-5.5s5.5,2.468,5.5,5.5S56.032,17.5,53,17.5z M53,7.5
				c-2.481,0-4.5,2.019-4.5,4.5s2.019,4.5,4.5,4.5s4.5-2.019,4.5-4.5S55.481,7.5,53,7.5z"/>
		</g>
		<rect id="XMLID_1695_" x="52" y="10" fill="#37474F" width="1" height="1"/>
		<rect id="XMLID_1693_" x="55" y="12" fill="#37474F" width="1" height="1"/>
		<rect id="XMLID_1670_" x="51" y="13" fill="#37474F" width="1" height="1"/>
	</g>
	<g id="code_search_2_">
		<g id="XMLID_2133_">
			<g id="XMLID_2134_">
				<g>
					
						<rect id="XMLID_998_" x="42.672" y="36.015" transform="matrix(-0.7071 0.7071 -0.7071 -0.7071 107.9325 43.2929)" fill="#18FFFF" width="4.657" height="15.971"/>
					<path fill="#37474F" d="M49,52L37,40l4-4l12,12L49,52z M38.414,40L49,50.586L51.586,48L41,37.414L38.414,40z"/>
				</g>
			</g>
		</g>
		<g id="XMLID_2091_">
			<g id="XMLID_997_">
				<g>
					<path id="XMLID_1065_" fill="#FFFFFF" d="M58.293,52.707l-11-11c-0.381-0.381-0.828-0.582-1.293-0.582
						s-0.912,0.201-1.293,0.582l-2,2c-0.773,0.773-0.773,1.813,0,2.586l11,11c0.381,0.381,0.828,0.582,1.293,0.582
						s0.912-0.201,1.293-0.582l2-2C59.066,54.52,59.066,53.48,58.293,52.707z"/>
					<path id="XMLID_1064_" fill="#37474F" d="M46,41.125c0.465,0,0.912,0.201,1.293,0.582l11,11c0.773,0.773,0.773,1.813,0,2.586
						l-2,2c-0.381,0.381-0.828,0.582-1.293,0.582s-0.912-0.201-1.293-0.582l-11-11c-0.773-0.773-0.773-1.813,0-2.586l2-2
						C45.088,41.326,45.535,41.125,46,41.125L46,41.125z M46,40.125c-0.736,0-1.428,0.303-2,0.875l-2,2
						c-1.159,1.159-1.159,2.841,0,4l11,11c0.572,0.572,1.264,0.875,2,0.875s1.428-0.303,2-0.875l2-2c1.159-1.159,1.159-2.841,0-4
						L48,41C47.428,40.428,46.736,40.125,46,40.125L46,40.125z"/>
				</g>
			</g>
			<g id="XMLID_2126_">
				<path id="XMLID_2127_" fill="#FFFFFF" d="M58.293,52.707l-11-11c-0.381-0.381-0.828-0.582-1.293-0.582s-0.912,0.201-1.293,0.582
					l-2,2c-0.773,0.773-0.773,1.813,0,2.586l11,11c0.381,0.381,0.828,0.582,1.293,0.582s0.912-0.201,1.293-0.582l2-2
					C59.066,54.52,59.066,53.48,58.293,52.707z"/>
			</g>
			<g id="XMLID_2113_">
				<g id="XMLID_2124_">
					<path id="XMLID_2125_" fill="#FF5252" d="M47.293,41.707c-0.241-0.241-0.511-0.401-0.793-0.493
						c-0.282,0.092-0.552,0.252-0.793,0.493l-2,2c-0.773,0.773-0.773,1.813,0,2.586l11,11c0.241,0.241,0.511,0.401,0.793,0.493
						c0.282-0.092,0.552-0.252,0.793-0.493l2-2c0.773-0.773,0.773-1.813,0-2.586L47.293,41.707z"/>
				</g>
			</g>
		</g>
		<path id="XMLID_1967_" fill="#FFFFFF" d="M26,4.5C14.645,4.807,5.5,13.873,5.5,25S14.645,45.193,26,45.5
			c11.355-0.307,20.5-9.373,20.5-20.5S37.355,4.807,26,4.5z M26,42.5C16.307,42.238,8.5,34.498,8.5,25S16.307,7.762,26,7.5
			c9.693,0.262,17.5,8.002,17.5,17.5S35.693,42.238,26,42.5z"/>
		<path id="XMLID_2023_" fill="#84FFFF" d="M27,5.5C15.645,5.807,6.5,14.873,6.5,26c0,5.306,2.096,10.129,5.502,13.771
			c3.66,3.418,8.569,5.582,13.998,5.729c11.355-0.307,20.5-9.373,20.5-20.5c0-5.306-2.096-10.129-5.502-13.771
			C37.338,7.811,32.429,5.646,27,5.5z M26,42.5C16.307,42.238,8.5,34.498,8.5,25S16.307,7.762,26,7.5
			c9.693,0.262,17.5,8.002,17.5,17.5S35.693,42.238,26,42.5z"/>
		<path fill="#37474F" d="M26,46h-0.014C14.414,45.688,5,36.267,5,25S14.414,4.313,25.986,4C37.586,4.313,47,13.733,47,25
			s-9.414,20.688-20.986,21H26z M25.986,5C14.978,5.298,6,14.27,6,25c0,10.726,8.971,19.694,20,20c11.029-0.306,20-9.274,20-20
			C46,14.27,37.022,5.298,25.986,5z M26.014,43C16.068,42.732,8,34.657,8,25S16.068,7.268,25.986,7h0.027
			C35.932,7.268,44,15.343,44,25S35.932,42.732,26.014,43z M26,8C16.625,8.261,9,15.884,9,25c0,9.121,7.632,16.747,17.014,17
			C35.368,41.747,43,34.121,43,25C43,15.884,35.375,8.261,26,8z"/>
	</g>
	<g id="XMLID_2158_">
		<circle id="XMLID_2276_" fill="#FFFFFF" cx="26.023" cy="24.424" r="8.24"/>
		<path id="XMLID_2275_" fill="#FF8A80" d="M34.264,24.424c0-1.371-0.34-2.66-0.932-3.796c-1.512-1.799-3.775-2.944-6.309-2.944
			c-4.551,0-8.24,3.689-8.24,8.24c0,1.369,0.34,2.658,0.932,3.795c1.512,1.799,3.775,2.944,6.309,2.944
			C30.574,32.663,34.264,28.974,34.264,24.424z"/>
		<path id="XMLID_2274_" fill="#FF5252" d="M32.815,19.763c0.286,0.835,0.448,1.728,0.448,2.661c0,4.55-3.689,8.239-8.24,8.239
			c-2.82,0-5.307-1.419-6.792-3.579c1.107,3.243,4.174,5.579,7.792,5.579c4.551,0,8.24-3.689,8.24-8.239
			C34.264,22.692,33.728,21.088,32.815,19.763z"/>
		<g>
			<circle id="XMLID_1063_" fill="#FF5252" cx="28.5" cy="23" r="1"/>
			<path fill="#37474F" d="M28.5,24.5c-0.827,0-1.5-0.673-1.5-1.5s0.673-1.5,1.5-1.5S30,22.173,30,23S29.327,24.5,28.5,24.5z
				 M28.5,22.5c-0.275,0-0.5,0.225-0.5,0.5s0.225,0.5,0.5,0.5S29,23.275,29,23S28.775,22.5,28.5,22.5z"/>
		</g>
		<g>
			<circle id="XMLID_1062_" fill="#FF5252" cx="25" cy="27" r="1"/>
			<path fill="#37474F" d="M25,28.5c-0.827,0-1.5-0.673-1.5-1.5s0.673-1.5,1.5-1.5s1.5,0.673,1.5,1.5S25.827,28.5,25,28.5z M25,26.5
				c-0.275,0-0.5,0.225-0.5,0.5s0.225,0.5,0.5,0.5s0.5-0.225,0.5-0.5S25.275,26.5,25,26.5z"/>
		</g>
		<g>
			<circle id="XMLID_1061_" fill="#FF5252" cx="23" cy="22" r="1"/>
			<path fill="#37474F" d="M23,23.5c-0.827,0-1.5-0.673-1.5-1.5s0.673-1.5,1.5-1.5s1.5,0.673,1.5,1.5S23.827,23.5,23,23.5z M23,21.5
				c-0.275,0-0.5,0.225-0.5,0.5s0.225,0.5,0.5,0.5s0.5-0.225,0.5-0.5S23.275,21.5,23,21.5z"/>
		</g>
		<g id="XMLID_2264_">
			<g>
				<circle id="XMLID_1060_" fill="#FF5252" cx="22.404" cy="13.688" r="1.177"/>
				<path fill="#37474F" d="M22.403,15.365c-0.74,0-1.385-0.477-1.603-1.186c-0.131-0.428-0.087-0.882,0.123-1.277
					s0.562-0.686,0.99-0.817c0.876-0.269,1.828,0.245,2.094,1.113c0.131,0.427,0.088,0.881-0.122,1.276s-0.562,0.686-0.99,0.817
					C22.735,15.341,22.57,15.365,22.403,15.365z M22.405,13.012c-0.066,0-0.133,0.01-0.198,0.03c-0.173,0.053-0.315,0.17-0.4,0.329
					c-0.085,0.16-0.103,0.343-0.049,0.516c0.106,0.351,0.491,0.561,0.845,0.448c0.173-0.053,0.315-0.17,0.399-0.329
					c0.085-0.159,0.103-0.343,0.049-0.516C22.965,13.208,22.7,13.012,22.405,13.012z"/>
			</g>
			<g>
				<path id="XMLID_1059_" fill="#FF5252" d="M22.681,14.589l1.13,3.663L22.681,14.589z"/>
				
					<rect x="21.329" y="15.921" transform="matrix(0.2947 0.9556 -0.9556 0.2947 32.0849 -10.6324)" fill="#37474F" width="3.833" height="1"/>
			</g>
		</g>
		<g id="XMLID_2246_">
			<g>
				<circle id="XMLID_1058_" fill="#FF5252" cx="29" cy="36.137" r="0.942"/>
				<path fill="#37474F" d="M29,37.579c-0.651,0-1.224-0.439-1.393-1.068c-0.1-0.373-0.049-0.761,0.144-1.095
					c0.193-0.334,0.504-0.572,0.876-0.672c0.754-0.199,1.565,0.268,1.766,1.019c0.205,0.77-0.252,1.562-1.019,1.767
					C29.251,37.563,29.126,37.579,29,37.579z M29.001,35.695c-0.039,0-0.077,0.005-0.115,0.016c-0.114,0.03-0.209,0.103-0.269,0.205
					c-0.059,0.103-0.074,0.222-0.044,0.336c0.062,0.229,0.309,0.379,0.541,0.312c0.235-0.063,0.376-0.307,0.313-0.542
					C29.376,35.83,29.2,35.695,29.001,35.695z"/>
			</g>
			<g>
				<path id="XMLID_1057_" fill="#FF5252" d="M28.095,32.663l0.661,2.564L28.095,32.663z"/>
				
					<rect x="27.101" y="33.445" transform="matrix(0.2496 0.9683 -0.9683 0.2496 54.1996 -2.0542)" fill="#37474F" width="2.648" height="1"/>
			</g>
		</g>
		<g id="XMLID_2237_">
			<g>
				<circle id="XMLID_1056_" fill="#FF5252" cx="29.095" cy="12.959" r="0.942"/>
				<path fill="#37474F" d="M29.096,14.401c-0.126,0-0.252-0.017-0.374-0.05c-0.768-0.205-1.225-0.998-1.02-1.767
					c0.201-0.75,1.008-1.219,1.766-1.02c0.769,0.207,1.226,0.999,1.021,1.768C30.318,13.962,29.746,14.401,29.096,14.401z
					 M29.096,12.517c-0.2,0-0.375,0.135-0.428,0.328c-0.063,0.235,0.077,0.479,0.313,0.541c0.234,0.069,0.479-0.082,0.541-0.313
					c0.063-0.235-0.078-0.479-0.313-0.542C29.173,12.521,29.134,12.517,29.096,12.517z"/>
			</g>
			<g>
				<path id="XMLID_1055_" fill="#FF5252" d="M28.852,13.869l-1.244,4.642L28.852,13.869z"/>
				
					<rect x="27.729" y="13.787" transform="matrix(0.9657 0.2595 -0.2595 0.9657 5.168 -6.7705)" fill="#37474F" width="1.001" height="4.805"/>
			</g>
		</g>
		<g id="XMLID_2228_">
			<g>
				<circle id="XMLID_1028_" fill="#FF5252" cx="22.028" cy="35.594" r="0.942"/>
				<path fill="#37474F" d="M22.028,37.036c-0.194,0-0.383-0.039-0.563-0.115c-0.731-0.31-1.074-1.157-0.766-1.889
					c0.304-0.713,1.175-1.07,1.892-0.766c0.731,0.311,1.074,1.158,0.764,1.891C23.129,36.691,22.608,37.036,22.028,37.036z
					 M22.03,35.151c-0.179,0-0.339,0.106-0.409,0.271c-0.094,0.224,0.011,0.483,0.235,0.579c0.223,0.094,0.486-0.017,0.579-0.234
					c0.095-0.225-0.01-0.484-0.234-0.58C22.146,35.163,22.089,35.151,22.03,35.151z"/>
			</g>
			<g>
				<path id="XMLID_1024_" fill="#FF5252" d="M24.273,30.303l-1.877,4.424L24.273,30.303z"/>
				
					<rect x="22.835" y="30.112" transform="matrix(0.9205 0.3909 -0.3909 0.9205 14.5646 -6.5341)" fill="#37474F" width="0.999" height="4.806"/>
			</g>
		</g>
		<g id="XMLID_2209_">
			<g>
				<circle id="XMLID_1023_" fill="#FF5252" cx="33.746" cy="15.773" r="0.942"/>
				<path fill="#37474F" d="M33.745,17.215c-0.385,0-0.746-0.149-1.019-0.422s-0.423-0.636-0.423-1.021
					c0.001-0.386,0.15-0.747,0.423-1.02c0.545-0.544,1.493-0.543,2.038,0.001c0.272,0.271,0.422,0.633,0.423,1.019
					c0,0.385-0.15,0.748-0.423,1.021S34.131,17.215,33.745,17.215z M33.745,15.332c-0.117,0-0.229,0.046-0.312,0.129
					c-0.084,0.084-0.13,0.194-0.13,0.312c0,0.118,0.046,0.229,0.13,0.313c0.167,0.167,0.459,0.165,0.624,0
					c0.084-0.084,0.13-0.195,0.13-0.313c0-0.117-0.046-0.228-0.13-0.311C33.975,15.378,33.863,15.332,33.745,15.332z"/>
			</g>
			<g>
				<path id="XMLID_1020_" fill="#FF5252" d="M33.08,16.439l-1.512,2.008L33.08,16.439z"/>
				
					<rect x="31.824" y="16.187" transform="matrix(0.7988 0.6016 -0.6016 0.7988 16.996 -15.9359)" fill="#37474F" width="1" height="2.513"/>
			</g>
		</g>
		<g id="XMLID_2188_">
			<g>
				<circle id="XMLID_1018_" fill="#FF5252" cx="16.788" cy="32.57" r="1.177"/>
				<path fill="#37474F" d="M16.788,34.247c-0.448,0-0.869-0.175-1.186-0.491c-0.654-0.654-0.654-1.718,0-2.372
					c0.633-0.632,1.738-0.636,2.371,0c0.654,0.654,0.654,1.718,0,2.372C17.656,34.072,17.235,34.247,16.788,34.247z M16.788,31.893
					c-0.181,0-0.351,0.07-0.479,0.198c-0.264,0.264-0.264,0.694,0,0.958c0.256,0.256,0.701,0.254,0.957,0
					c0.264-0.264,0.264-0.694,0-0.958C17.139,31.963,16.969,31.893,16.788,31.893z"/>
			</g>
			<g>
				<path id="XMLID_1017_" fill="#FF5252" d="M20.752,29.143l-3.299,2.762L20.752,29.143z"/>
				
					<rect x="18.602" y="28.372" transform="matrix(0.6419 0.7668 -0.7668 0.6419 30.2452 -3.7173)" fill="#37474F" width="1.001" height="4.302"/>
			</g>
		</g>
		<g id="XMLID_2185_">
			<g>
				<circle id="XMLID_1014_" fill="#FF5252" cx="36.952" cy="21.727" r="1.177"/>
				<path fill="#37474F" d="M36.951,23.403c-0.758,0-1.423-0.511-1.619-1.243c-0.115-0.432-0.056-0.884,0.168-1.271
					c0.224-0.389,0.586-0.666,1.019-0.782c0.879-0.235,1.818,0.313,2.053,1.187c0.116,0.433,0.057,0.885-0.167,1.272
					c-0.225,0.388-0.586,0.665-1.02,0.781C37.243,23.385,37.097,23.403,36.951,23.403z M36.952,21.05
					c-0.059,0-0.118,0.008-0.176,0.023c-0.174,0.046-0.32,0.158-0.41,0.315c-0.091,0.156-0.114,0.339-0.067,0.514
					c0.093,0.352,0.465,0.574,0.828,0.478c0.175-0.047,0.321-0.158,0.411-0.314s0.114-0.339,0.067-0.514
					C37.525,21.256,37.258,21.05,36.952,21.05z"/>
			</g>
			<g>
				<path id="XMLID_1013_" fill="#FF5252" d="M36.043,21.971l-4.798,1.167L36.043,21.971z"/>
				
					<rect x="33.145" y="20.085" transform="matrix(0.2366 0.9716 -0.9716 0.2366 47.5996 -15.4702)" fill="#37474F" width="0.999" height="4.938"/>
			</g>
		</g>
		<g id="XMLID_2182_">
			<g>
				<circle id="XMLID_1012_" fill="#FF5252" cx="14.559" cy="27.495" r="0.941"/>
				<path fill="#37474F" d="M14.559,28.937c-0.651,0-1.224-0.439-1.392-1.069c-0.1-0.369-0.049-0.758,0.143-1.091
					c0.192-0.334,0.504-0.573,0.876-0.673c0.76-0.205,1.566,0.269,1.767,1.02c0.1,0.371,0.048,0.76-0.145,1.093
					s-0.503,0.571-0.875,0.672C14.81,28.92,14.685,28.937,14.559,28.937z M14.561,27.054c-0.039,0-0.078,0.005-0.115,0.016
					c-0.114,0.03-0.21,0.104-0.269,0.206c-0.059,0.102-0.074,0.22-0.044,0.332c0.063,0.232,0.309,0.378,0.54,0.314
					c0.115-0.031,0.21-0.104,0.27-0.206c0.059-0.102,0.074-0.221,0.044-0.334C14.935,27.188,14.76,27.054,14.561,27.054z"/>
			</g>
			<g>
				<path id="XMLID_1010_" fill="#FF5252" d="M20.11,26.008l-4.642,1.244L20.11,26.008z"/>
				
					<rect x="17.289" y="24.227" transform="matrix(0.2595 0.9657 -0.9657 0.2595 38.8912 2.5396)" fill="#37474F" width="1.001" height="4.805"/>
			</g>
		</g>
		<g id="XMLID_2179_">
			<g>
				<circle id="XMLID_1009_" fill="#FF5252" cx="37.252" cy="28.201" r="0.942"/>
				<path fill="#37474F" d="M37.252,29.644c-0.126,0-0.251-0.017-0.374-0.049c-0.768-0.206-1.224-0.999-1.019-1.768
					c0.201-0.75,1.009-1.218,1.766-1.02c0.373,0.101,0.684,0.34,0.876,0.674s0.243,0.723,0.143,1.094
					C38.477,29.204,37.904,29.644,37.252,29.644z M37.253,27.759c-0.2,0-0.375,0.135-0.428,0.328
					c-0.063,0.235,0.077,0.479,0.313,0.542c0.231,0.063,0.479-0.083,0.54-0.313c0.031-0.115,0.016-0.234-0.043-0.336
					c-0.059-0.103-0.154-0.176-0.269-0.207C37.33,27.764,37.291,27.759,37.253,27.759z"/>
			</g>
			<g>
				<path id="XMLID_1007_" fill="#FF5252" d="M36.343,27.957l-2.591-0.709L36.343,27.957z"/>
				
					<rect x="33.704" y="27.102" transform="matrix(0.9645 0.2639 -0.2639 0.9645 8.5285 -8.2718)" fill="#37474F" width="2.686" height="1"/>
			</g>
		</g>
		<g id="XMLID_2176_">
			<g>
				<circle id="XMLID_1005_" fill="#FF5252" cx="15.616" cy="23.011" r="0.941"/>
				<path fill="#37474F" d="M15.616,24.452c-0.126,0-0.251-0.017-0.374-0.05c-0.767-0.205-1.224-0.997-1.02-1.764
					c0.202-0.752,1.01-1.217,1.768-1.021c0.768,0.207,1.224,0.998,1.018,1.766C16.84,24.013,16.268,24.452,15.616,24.452z
					 M15.615,22.569c-0.199,0-0.374,0.135-0.426,0.328c-0.063,0.234,0.077,0.477,0.313,0.54c0.232,0.063,0.479-0.083,0.54-0.313
					c0.063-0.234-0.076-0.477-0.312-0.54C15.693,22.574,15.654,22.569,15.615,22.569z"/>
			</g>
			<g>
				<path id="XMLID_1004_" fill="#FF5252" d="M18.313,23.481l-1.787-0.228L18.313,23.481z"/>
				
					<rect x="16.518" y="22.868" transform="matrix(0.992 0.1263 -0.1263 0.992 3.0909 -2.0129)" fill="#37474F" width="1.802" height="1"/>
			</g>
		</g>
		<g id="XMLID_2173_">
			<g>
				<circle id="XMLID_1001_" fill="#FF5252" cx="34.687" cy="32.805" r="0.942"/>
				<path fill="#37474F" d="M34.687,34.247c-0.346,0-0.68-0.125-0.942-0.351c-0.291-0.252-0.467-0.603-0.495-0.986
					c-0.027-0.384,0.096-0.756,0.347-1.048c0.5-0.579,1.454-0.649,2.034-0.147c0.601,0.519,0.668,1.431,0.149,2.032
					C35.504,34.065,35.106,34.247,34.687,34.247z M34.688,32.363c-0.129,0-0.25,0.056-0.334,0.153
					c-0.078,0.089-0.115,0.203-0.106,0.321c0.008,0.117,0.062,0.225,0.151,0.301c0.28,0.245,0.491,0.106,0.624-0.045
					c0.158-0.184,0.138-0.464-0.047-0.622C34.873,32.382,34.763,32.363,34.688,32.363z"/>
			</g>
			<g>
				<path id="XMLID_1000_" fill="#FF5252" d="M33.975,32.189L30.5,28.643L33.975,32.189z"/>
				
					<rect x="29.755" y="29.916" transform="matrix(0.6998 0.7143 -0.7143 0.6998 31.4055 -13.8975)" fill="#37474F" width="4.965" height="1"/>
			</g>
		</g>
		<g id="XMLID_2170_">
			<g>
				<circle id="XMLID_988_" fill="#FF5252" cx="17.255" cy="15.943" r="0.942"/>
				<path fill="#37474F" d="M17.255,17.385c-0.386,0-0.747-0.149-1.02-0.422s-0.423-0.636-0.423-1.021
					c0.001-0.386,0.15-0.747,0.423-1.02c0.542-0.542,1.491-0.544,2.039,0c0.272,0.272,0.422,0.634,0.423,1.02
					c0,0.385-0.15,0.748-0.423,1.021S17.64,17.385,17.255,17.385z M17.254,15.502c-0.117,0-0.229,0.045-0.311,0.129
					c-0.085,0.084-0.131,0.194-0.131,0.312c0,0.118,0.046,0.229,0.13,0.313c0.166,0.166,0.459,0.167,0.625-0.001
					c0.084-0.083,0.13-0.194,0.13-0.313c0-0.117-0.046-0.228-0.13-0.311C17.484,15.548,17.372,15.502,17.254,15.502z"/>
			</g>
			<g>
				<path id="XMLID_897_" fill="#FF5252" d="M20.893,19.723l-2.972-3.113L20.893,19.723z"/>
				
					<rect x="17.255" y="17.666" transform="matrix(0.6905 0.7234 -0.7234 0.6905 19.1477 -8.4152)" fill="#37474F" width="4.304" height="1"/>
			</g>
		</g>
		<path fill="#37474F" d="M23.479,17.111l-0.33-0.943c0.92-0.321,1.888-0.484,2.875-0.484v1
			C25.148,16.684,24.292,16.827,23.479,17.111z"/>
		<path fill="#37474F" d="M20.371,19.137l-0.73-0.684c0.546-0.583,1.166-1.088,1.844-1.5l0.52,0.855
			C21.404,18.173,20.854,18.62,20.371,19.137z"/>
		<path fill="#37474F" d="M17.296,24.883c-0.009-0.152-0.013-0.306-0.013-0.459c0-1.637,0.456-3.233,1.318-4.619l0.85,0.529
			c-0.765,1.226-1.168,2.641-1.168,4.09c0,0.136,0.004,0.27,0.011,0.404L17.296,24.883z"/>
		<path fill="#37474F" d="M18.335,28.582c-0.325-0.601-0.579-1.238-0.756-1.896l0.967-0.258c0.155,0.582,0.38,1.146,0.668,1.678
			L18.335,28.582z"/>
		<path fill="#37474F" d="M21.753,32.051c-0.925-0.52-1.739-1.195-2.423-2.009l0.766-0.643c0.605,0.721,1.328,1.319,2.147,1.778
			L21.753,32.051z"/>
		<path fill="#37474F" d="M26.023,33.163c-0.881,0-1.752-0.132-2.591-0.391l0.295-0.955c0.743,0.229,1.516,0.346,2.296,0.346
			c4.268,0,7.74-3.472,7.74-7.739c0-0.666-0.086-1.33-0.254-1.973l0.967-0.254c0.19,0.726,0.287,1.475,0.287,2.227
			C34.764,29.242,30.843,33.163,26.023,33.163z"/>
		<path fill="#37474F" d="M32.997,21.062c-0.984-2.035-2.795-3.535-4.97-4.115l0.258-0.967c2.456,0.656,4.502,2.35,5.612,4.646
			L32.997,21.062z"/>
		<rect id="XMLID_2162_" x="28.5" y="27.5" fill="#37474F" width="1" height="1"/>
		<rect id="XMLID_2161_" x="29.5" y="25.5" fill="#37474F" width="1" height="1"/>
		<rect id="XMLID_2160_" x="25.5" y="19.5" fill="#37474F" width="1" height="1"/>
		<rect id="XMLID_2159_" x="21.5" y="26.5" fill="#37474F" width="1" height="1"/>
	</g>
</g>
</svg>
