<?xml version="1.0" encoding="utf-8"?>
<!-- Generator: Adobe Illustrator 16.0.0, SVG Export Plug-In . SVG Version: 6.00 Build 0)  -->
<!DOCTYPE svg PUBLIC "-//W3C//DTD SVG 1.1//EN" "http://www.w3.org/Graphics/SVG/1.1/DTD/svg11.dtd">
<svg version="1.1" id="_x3C_Layer_x3E_" xmlns="http://www.w3.org/2000/svg" xmlns:xlink="http://www.w3.org/1999/xlink" x="0px"
	 y="0px" width="64px" height="64px" viewBox="0 0 64 64" enable-background="new 0 0 64 64" xml:space="preserve">
<g id="healthcare_x2C__medical_x2C__protection">
	<path fill="#37474F" d="M16.204,45.838C12.848,42.01,11,37.096,11,32c0-1.728,0.211-3.448,0.627-5.114l0.97,0.242
		C12.201,28.715,12,30.354,12,32c0,4.854,1.76,9.533,4.956,13.178L16.204,45.838z"/>
	<path fill="#37474F" d="M52.603,36.085l-0.981-0.193C51.873,34.616,52,33.307,52,32c0-4.801-1.727-9.442-4.863-13.071l0.757-0.654
		C51.187,22.085,53,26.96,53,32C53,33.372,52.866,34.746,52.603,36.085z"/>
	<circle id="XMLID_1685_" fill="#CCFF90" cx="32" cy="32" r="17.5"/>
	<path fill="#37474F" d="M18.681,44.107C15.663,40.789,14,36.489,14,32c0-3.279,0.89-6.488,2.575-9.281l0.856,0.516
		C15.841,25.872,15,28.903,15,32c0,4.239,1.57,8.301,4.421,11.436L18.681,44.107z"/>
	<path fill="#37474F" d="M47.334,41.433l-0.852-0.525C48.129,38.235,49,35.155,49,32c0-4.111-1.487-8.079-4.188-11.173l0.754-0.658
		C48.425,23.445,50,27.647,50,32C50,35.34,49.078,38.602,47.334,41.433z"/>
	<g id="XMLID_1671_">
		<g id="XMLID_1941_">
			<g id="XMLID_1942_">
				<g id="XMLID_1943_">
					<path id="XMLID_2001_" fill="#FFFFFF" d="M31.828,45.598c-3.435-3.45-9.011-3.457-12.455-0.014l-4.208,4.944l7.273,6.538
						l1.833-1.596c0.612-0.534,1.766-0.966,2.577-0.966h7.348c0.813,0,2.088-0.223,2.853-0.497l7.922-2.848l5.869-5.869
						c0.735-0.734-0.688-4.361-4.365-2.159c-1.94,1.167-3.03,2.487-4.225,3.316l-5.979,1.815c-0.775,0.235-1.865-0.04-2.434-0.621
						L31.828,45.598z"/>
				</g>
			</g>
		</g>
		<g id="XMLID_1940_">
			<path id="XMLID_1997_" fill="#FFE0B2" d="M26.349,53.005h7.348c0.813,0,2.088-0.223,2.853-0.497l7.922-2.848l5.869-5.869
				c0.101-0.1,0.157-0.256,0.177-0.442c-0.673-0.87-2.012-1.433-4.042-0.217c-1.94,1.167-3.03,2.487-4.225,3.316l-5.979,1.815
				c-0.775,0.235-1.865-0.04-2.434-0.621l-2.01-2.045c-3.435-3.45-9.011-3.457-12.455-0.014l-3.701,4.35l6.267,5.633l1.833-1.596
				C24.384,53.437,25.537,53.005,26.349,53.005z"/>
		</g>
		<g id="XMLID_1939_">
			<path id="XMLID_1995_" fill="#E6CAA0" d="M16.679,50.838l3.194-3.754c2.414-2.413,5.723-3.049,8.76-2.075l0.145-1.374
				c-3.15-1.228-6.856-0.598-9.404,1.949l-3.701,4.35L16.679,50.838z"/>
		</g>
		<g id="XMLID_1936_">
			<g id="XMLID_1937_">
				<g id="XMLID_1938_">
					<path id="XMLID_1960_" fill="#37474F" d="M22.434,57.734l-7.965-7.159l4.523-5.314c2.588-2.592,5.995-3.384,9.374-2.199
						l-0.33,0.944c-3.005-1.051-6.031-0.348-8.31,1.933l-3.865,4.544l6.582,5.917l1.5-1.306c0.699-0.609,1.976-1.088,2.905-1.088
						h7.348c0.748,0,1.977-0.215,2.684-0.468l7.816-2.811l5.79-5.789c0.09-0.114,0.079-0.791-0.443-1.384
						c-0.735-0.836-1.912-0.832-3.312,0.006c-1.141,0.687-1.989,1.438-2.738,2.102c-0.497,0.439-0.966,0.855-1.458,1.197
						l-0.14,0.067l-5.979,1.815c-0.954,0.289-2.244-0.041-2.937-0.75l0.715-0.699c0.434,0.443,1.335,0.674,1.931,0.492l5.902-1.792
						c0.422-0.301,0.851-0.68,1.302-1.079c0.781-0.692,1.667-1.477,2.887-2.211c2.805-1.678,4.301-0.174,4.69,0.328
						c0.701,0.898,0.829,2.071,0.286,2.615l-6.054,5.984l-7.922,2.849c-0.823,0.295-2.15,0.526-3.021,0.526h-7.348
						c-0.695,0-1.725,0.385-2.248,0.842L22.434,57.734z"/>
				</g>
			</g>
		</g>
		<g id="XMLID_1933_">
			<g id="XMLID_1934_">
				<g id="XMLID_1935_">
					<path id="XMLID_1987_" fill="#FFE0B2" d="M30.027,48.469h10.129l-0.002-0.959c0-2.51-2.29-4.001-4.5-4.001h-7.627
						L30.027,48.469z"/>
				</g>
			</g>
		</g>
		<g id="XMLID_1848_">
			<path id="XMLID_1983_" fill="#E6CAA0" d="M28.633,45.009h7.521c1.562,0,3.146,0.757,3.951,2.079
				c-0.247-2.248-2.372-3.579-4.451-3.579h-7.627L28.633,45.009z"/>
		</g>
		<g id="XMLID_1714_">
			<g id="XMLID_1716_">
				<g id="XMLID_1717_">
					<path id="XMLID_1959_" fill="#37474F" d="M40.657,49h-10.63v-1h9.628l-0.001-0.457c0-2.193-2.034-3.502-4-3.502h-7.627v-1
						h7.627c2.458,0,5,1.684,5,4.501L40.657,49z"/>
				</g>
			</g>
		</g>
		<g id="XMLID_1711_">
			<g id="XMLID_1713_">
				<polygon id="XMLID_1956_" fill="#84FFFF" points="5.5,57.859 16.16,47.928 25.354,57.123 22.781,59.848 				"/>
				<polygon id="XMLID_1957_" fill="#37474F" points="23.145,60.191 22.418,59.505 24.657,57.133 16.147,48.622 5.841,58.225 
					5.159,57.493 16.173,47.232 26.052,57.113 				"/>
			</g>
		</g>
		<g id="XMLID_1672_">
			<path id="XMLID_1954_" fill="#ECEFF1" d="M23.135,59.473l-7.437-6.881L23.135,59.473z"/>
			
				<rect id="XMLID_1955_" x="14.351" y="55.533" transform="matrix(0.734 0.6792 -0.6792 0.734 43.2196 1.7181)" fill="#37474F" width="10.132" height="1"/>
		</g>
	</g>
	<g id="XMLID_1682_">
		<g id="XMLID_1687_">
			<g id="XMLID_1690_">
				<path id="XMLID_1691_" fill="#FFFFFF" d="M32.199,18.412c3.435,3.449,9.011,3.457,12.455,0.012l4.208-4.943l-7.273-6.538
					l-1.833,1.596c-0.612,0.534-1.766,0.966-2.577,0.966h-7.348c-0.813,0-2.088,0.223-2.853,0.496l-7.922,2.85l-5.869,5.867
					c-0.735,0.734,0.688,4.363,4.365,2.16c1.94-1.167,3.031-2.486,4.225-3.316l5.979-1.815c0.775-0.235,1.865,0.04,2.434,0.622
					L32.199,18.412z"/>
			</g>
		</g>
		<path id="XMLID_1221_" fill="#FFE0B2" d="M37.679,11.004h-7.348c-0.813,0-2.088,0.223-2.853,0.496l-7.922,2.85l-5.869,5.867
			c-0.101,0.101-0.156,0.258-0.177,0.443c0.673,0.87,2.012,1.433,4.042,0.217c1.94-1.167,3.031-2.486,4.225-3.316l5.979-1.815
			c0.775-0.235,1.865,0.04,2.434,0.622l2.01,2.045c3.435,3.449,9.011,3.457,12.455,0.012l3.701-4.348l-6.267-5.634l-1.833,1.596
			C39.644,10.572,38.49,11.004,37.679,11.004z"/>
		<path id="XMLID_1944_" fill="#E6CAA0" d="M47.349,13.171l-3.194,3.753c-2.413,2.414-5.723,3.05-8.759,2.076l-0.146,1.375
			c3.151,1.227,6.856,0.598,9.404-1.951l3.701-4.348L47.349,13.171z"/>
		<g id="XMLID_2121_">
			<g id="XMLID_2122_">
				<path fill="#37474F" d="M15.399,22.079c-1.281,0-2.021-0.77-2.279-1.101c-0.701-0.899-0.83-2.072-0.286-2.615l6.053-5.984
					l7.922-2.85c0.825-0.295,2.152-0.525,3.022-0.525h7.348c0.695,0,1.725-0.386,2.249-0.843l2.167-1.887l7.964,7.159l-4.523,5.314
					c-2.589,2.591-5.994,3.383-9.375,2.198l0.331-0.943c3,1.05,6.03,0.346,8.309-1.933l3.865-4.543L41.583,7.61l-1.5,1.305
					c-0.699,0.61-1.976,1.089-2.905,1.089h-7.348c-0.747,0-1.977,0.214-2.684,0.467l-7.816,2.812l-5.79,5.788
					c-0.09,0.114-0.079,0.791,0.443,1.384c0.736,0.837,1.912,0.834,3.312-0.006c1.142-0.688,1.992-1.439,2.742-2.104
					c0.496-0.438,0.964-0.854,1.454-1.194l0.14-0.068l5.979-1.815c0.954-0.292,2.243,0.04,2.937,0.751l-0.716,0.699
					c-0.433-0.443-1.333-0.673-1.931-0.493L22,18.016c-0.421,0.301-0.849,0.679-1.299,1.078c-0.782,0.692-1.668,1.477-2.89,2.212
					C16.858,21.876,16.057,22.079,15.399,22.079z"/>
			</g>
		</g>
		<g id="XMLID_1634_">
			<g id="XMLID_1696_">
				<path id="XMLID_1712_" fill="#FFE0B2" d="M34,15.541H23.871l0.002,0.957c0,2.512,2.29,4.002,4.5,4.002H36L34,15.541z"/>
			</g>
		</g>
		<path id="XMLID_1718_" fill="#E6CAA0" d="M35.396,19h-7.522c-1.562,0-3.146-0.756-3.951-2.078
			c0.247,2.246,2.372,3.578,4.451,3.578H36L35.396,19z"/>
		<g id="XMLID_2118_">
			<g id="XMLID_2119_">
				<path fill="#37474F" d="M36,21h-7.627c-2.458,0-5-1.684-5-4.502l-0.003-1.457H34v1h-9.628l0.001,0.456
					c0,2.193,2.034,3.503,4,3.503H36V21z"/>
			</g>
		</g>
		<g id="XMLID_2056_">
			<g>
				<polygon id="XMLID_892_" fill="#84FFFF" points="58.527,6.149 47.867,16.082 38.673,6.887 41.247,4.161 				"/>
				<polygon fill="#37474F" points="47.855,16.777 37.976,6.896 40.884,3.817 41.61,4.505 39.37,6.877 47.879,15.387 58.187,5.783 
					58.868,6.516 				"/>
			</g>
		</g>
		<g>
			<path id="XMLID_891_" fill="#ECEFF1" d="M40.893,4.536l7.438,6.88L40.893,4.536z"/>
			
				<rect x="39.546" y="7.476" transform="matrix(0.7341 0.6791 -0.6791 0.7341 17.2788 -28.1725)" fill="#37474F" width="10.132" height="1"/>
		</g>
	</g>
	<g>
		<polygon id="XMLID_890_" fill="#FFFFFF" points="39.5,29.5 34.5,29.5 34.5,24.5 29.5,24.5 29.5,29.5 24.5,29.5 24.5,34.5 
			29.5,34.5 29.5,39.5 34.5,39.5 34.5,34.5 39.5,34.5 		"/>
		<path fill="#37474F" d="M35,40h-6v-5h-5v-6h5v-5h6v5h5v6h-5V40z M30,39h4v-5h5v-4h-5v-5h-4v5h-5v4h5V39z"/>
	</g>
</g>
</svg>
