<?xml version="1.0" encoding="utf-8"?>
<!-- Generator: Adobe Illustrator 16.0.0, SVG Export Plug-In . SVG Version: 6.00 Build 0)  -->
<!DOCTYPE svg PUBLIC "-//W3C//DTD SVG 1.1//EN" "http://www.w3.org/Graphics/SVG/1.1/DTD/svg11.dtd">
<svg version="1.1" id="_x3C_Layer_x3E_" xmlns="http://www.w3.org/2000/svg" xmlns:xlink="http://www.w3.org/1999/xlink" x="0px"
	 y="0px" width="64px" height="64px" viewBox="0 0 64 64" enable-background="new 0 0 64 64" xml:space="preserve">
<g id="sick_x2C__runny_nose">
	<g id="XMLID_2635_">
		<g id="creative_idea_7_">
			<g id="Public_Relations_7_">
				<path id="XMLID_2641_" fill="#FFFFFF" d="M52.436,35.869l-4.884-9.317l0.187-3.346c0-9.739-8.488-17.888-19.479-17.654
					C18.279,5.764,9.5,12.917,9.5,24.121c0,8.173,3.9,13.92,6.443,17.768c1.832,2.774-0.548,14.654-1.066,17.111h21.326l0.883-8.441
					h6.808c1.556,0,2.815-1.261,2.815-2.816V37.506h4.248C51.982,37.506,52.92,36.772,52.436,35.869z"/>
				<path id="XMLID_2640_" fill="#FFE0B2" d="M47.552,26.551l0.187-3.346c0-3.083-0.855-6.004-2.367-8.553
					C41.906,9.98,36.064,6.907,29.26,7.052c-9.98,0.212-18.76,7.365-18.76,18.569c0,8.173,3.9,13.92,6.443,17.768
					c1.58,2.393,0.027,11.557-0.764,15.611h20.023l0.883-8.441h6.808c1.556,0,2.815-1.261,2.815-2.816V37.506h4.248
					c1.025,0,1.963-0.733,1.479-1.637L47.552,26.551z"/>
				<polygon id="XMLID_2639_" fill="#E6CAA0" points="27.561,50.125 36.203,56 37.086,50.559 				"/>
				
					<rect id="XMLID_2638_" x="36.054" y="52.235" transform="matrix(0.9946 0.1036 -0.1036 0.9946 5.9601 -3.4865)" fill="#37474F" width="1" height="6.833"/>
				<path id="XMLID_2637_" fill="#37474F" d="M15.355,59.153l-0.979-0.207c1.369-6.471,2.491-14.749,1.148-16.782l-0.14-0.212
					C12.843,38.106,9,32.295,9,24.121C9,13.25,17.279,5.052,28.26,5.052c12.137,0,19.979,7.126,19.979,18.154l-0.18,3.241
					l4.715,9.427c0.217,0.485,0.176,1.02-0.102,1.448c-0.277,0.429-0.748,0.685-1.259,0.685h-4.217
					c0.009,0.774,0.077,2.308,0.469,3.313l-0.411,0.678l-4.5,0.5l-0.109-0.994l3.895-0.433c-0.402-1.541-0.343-3.488-0.34-3.581
					l0.5-0.483h4.714c0.173,0,0.325-0.083,0.42-0.228c0.094-0.145,0.106-0.318,0.036-0.476l-4.765-9.527l-0.052-0.251l0.188-3.346
					c-0.002-8.265-4.987-17.126-18.98-17.126C17.85,6.052,10,13.82,10,24.121c0,7.874,3.743,13.534,6.22,17.28l0.141,0.212
					C18.262,44.492,16.072,55.766,15.355,59.153z"/>
			</g>
		</g>
		<polygon id="XMLID_2636_" fill="#37474F" points="45.199,28 40.699,28 40.699,27 43.238,27 39.46,24.939 39.938,24.061 
			45.438,27.061 		"/>
	</g>
	<g id="XMLID_2630_">
		<path id="XMLID_2634_" fill="#FFE57F" d="M54.5,48c0,1.381-1.119,2.5-2.5,2.5s-2.5-1.119-2.5-2.5s2.5-6.5,2.5-6.5
			S54.5,46.619,54.5,48z"/>
		<path id="XMLID_2631_" fill="#37474F" d="M52,51c-1.654,0-3-1.346-3-3c0-1.455,2.289-6.185,2.551-6.719L52,40.361l0.449,0.92
			C52.711,41.815,55,46.545,55,48C55,49.654,53.654,51,52,51z M52,42.663c-0.908,1.952-2,4.552-2,5.337c0,1.103,0.896,2,2,2
			s2-0.897,2-2C54,47.215,52.908,44.614,52,42.663z"/>
	</g>
	<path id="XMLID_2629_" fill="#37474F" d="M47.6,43.285l-0.801-0.6c-0.655,0.875-0.837,2.358-0.54,4.408
		c0.108,0.74-0.107,1.484-0.591,2.043c-0.479,0.553-1.145,0.857-1.877,0.857c0,0-0.001,0.006-0.002,0.006H30.186
		c-2.474-0.007-4.486-2.026-4.486-4.5v-0.514h-1V45.5c0,3.024,2.46,5.491,5.486,5.5h13.602c0.002,0,0.003,0,0.004,0
		c1.012,0,1.972-0.444,2.633-1.208c0.674-0.779,0.975-1.814,0.825-2.842C46.994,45.197,47.115,43.93,47.6,43.285z"/>
</g>
</svg>
