<?xml version="1.0" encoding="utf-8"?>
<!-- Generator: Adobe Illustrator 16.0.0, SVG Export Plug-In . SVG Version: 6.00 Build 0)  -->
<!DOCTYPE svg PUBLIC "-//W3C//DTD SVG 1.1//EN" "http://www.w3.org/Graphics/SVG/1.1/DTD/svg11.dtd">
<svg version="1.1" id="_x3C_Layer_x3E_" xmlns="http://www.w3.org/2000/svg" xmlns:xlink="http://www.w3.org/1999/xlink" x="0px"
	 y="0px" width="64px" height="64px" viewBox="0 0 64 64" enable-background="new 0 0 64 64" xml:space="preserve">
<g id="stomatology">
	<g>
		<g>
			<ellipse fill="#FF5252" cx="16" cy="19.422" rx="10.5" ry="3.25"/>
		</g>
	</g>
	<g>
		<g>
			<ellipse fill="#18FFFF" cx="48" cy="19.422" rx="10.5" ry="3.125"/>
		</g>
	</g>
	<g>
		<g>
			<path fill="#FFFFFF" d="M40.35,9.922c-3.3,0-6.265,1.407-8.35,3.644c-2.085-2.236-5.05-3.644-8.35-3.644
				c-6.31,0-11.424,5.115-11.424,11.424c0,7.471,4.357,9.711,5.779,16.26C20.09,47.195,20.575,56.5,23.65,56.5
				c3.3,0,0.44-19.151,8.35-18.584c7.909,0.568,5.05,18.584,8.35,18.584c3.075,0,3.561-9.306,5.645-18.895
				c1.422-6.549,5.779-8.789,5.779-16.26C51.773,15.037,46.659,9.922,40.35,9.922z"/>
		</g>
		<g>
			<path fill="#37474F" d="M40.35,57c-1.741,0-2.085-2.788-2.562-6.646c-0.64-5.179-1.437-11.624-5.823-11.938
				c-4.347-0.328-5.125,6.34-5.758,11.672C25.73,54.101,25.386,57,23.65,57c-2.668,0-3.529-4.951-4.72-11.805
				c-0.42-2.416-0.854-4.913-1.413-7.483c-0.586-2.699-1.7-4.675-2.778-6.586c-1.481-2.626-3.013-5.341-3.013-9.78
				c0-6.575,5.349-11.924,11.924-11.924c3.159,0,6.104,1.213,8.35,3.426c2.245-2.213,5.19-3.426,8.35-3.426
				c6.575,0,11.924,5.349,11.924,11.924c0,4.439-1.532,7.154-3.013,9.78c-1.078,1.911-2.192,3.887-2.778,6.586
				c-0.559,2.57-0.993,5.068-1.413,7.483C43.878,52.049,43.018,57,40.35,57z M31.661,37.403c0.123,0,0.247,0.005,0.375,0.014
				c5.207,0.374,6.096,7.564,6.745,12.813C39.114,52.935,39.493,56,40.35,56c1.827,0,2.754-5.331,3.735-10.976
				c0.402-2.313,0.858-4.935,1.421-7.525c0.618-2.846,1.771-4.889,2.884-6.864c1.483-2.629,2.884-5.112,2.884-9.289
				c0-6.023-4.9-10.924-10.924-10.924c-3.054,0-5.889,1.237-7.984,3.484L32,14.299l-0.366-0.393
				c-2.095-2.247-4.93-3.484-7.984-3.484c-6.023,0-10.924,4.9-10.924,10.924c0,4.177,1.401,6.66,2.884,9.289
				c1.114,1.976,2.266,4.019,2.884,6.864c0.563,2.591,1.019,5.212,1.42,7.525C20.896,50.669,21.823,56,23.65,56
				c0.848,0,1.244-3.344,1.563-6.031C25.877,44.371,26.704,37.403,31.661,37.403z"/>
		</g>
		<g>
			<path fill="#ECEFF1" d="M16.884,30.635c1.114,1.976,2.266,4.019,2.884,6.864c0.563,2.591,0.83,5.212,1.232,7.525
				C21.981,50.669,21.823,56,23.65,56c0.848,0,1.244-3.344,1.563-6.031c0.664-5.598,1.491-12.565,6.447-12.565
				c0.123,0,0.247,0.005,0.375,0.014c5.207,0.374,6.096,7.564,6.745,12.813C39.114,52.935,39.493,56,40.35,56
				c1.827,0,2.754-5.331,3.735-10.976c0.402-2.313,0.858-4.935,1.421-7.525c0.618-2.846,1.771-4.889,2.884-6.864
				c1.483-2.629,2.884-5.112,2.884-9.289c0-3.114-1.317-5.921-3.415-7.913C44.206,19.079,38.248,22,29,22
				c-5.322,0-10.937-0.307-14.834-2.484C14.064,20.112,14,20.721,14,21.346C14,25.522,15.401,28.006,16.884,30.635z"/>
		</g>
	</g>
	<g>
		<g>
			<path fill="#FFFFFF" d="M5.438,20.078v8.781c0,0,0.594,1.75,9.797,3.063c6.022,0.858,13.883,1,13.883,1l4.414-4.531l-4.502-4.469
				c0,0-8.968,0.156-14.78-1C8.967,21.871,5.438,20.078,5.438,20.078z"/>
		</g>
	</g>
	<g>
		<g>
			<path fill="#FFFFFF" d="M34.979,23.984l4.5,4.396L35,32.922c0,0,16-1,19-2s4.667-2.042,4.667-2.042v-9
				c0,0-3.813,2.375-8.625,3.042C45.089,23.608,34.979,23.984,34.979,23.984z"/>
		</g>
	</g>
	<g>
		<g>
			<path fill="#FF8A80" d="M32.793,28.422l-2.946-2.946C21.037,25.27,9.251,24.255,6,22v6.422c0,1.558,8.622,3.677,22.834,3.959
				L32.793,28.422z"/>
		</g>
	</g>
	<g>
		<path fill="#37474F" d="M27.715,23.344l0.017,0.017C14.172,22.993,6,20.938,6,19.422c0-0.736,1.937-1.601,5.472-2.337
			c0.133-0.379,0.283-0.75,0.45-1.113C7.835,16.762,5,17.886,5,19.422v9c0,3.303,13.199,4.694,23.734,4.941l0.52,0.012l4.953-4.953
			l-5.078-5.078H27.715z M28.834,32.381C14.622,32.099,6,29.979,6,28.422v-7.519c3.265,2.265,13.932,3.279,22.753,3.479l4.04,4.04
			L28.834,32.381z"/>
	</g>
	<g>
		<g>
			<path fill="#84FFFF" d="M58,28.422V22c-3.024,2.102-12.409,3.125-20.792,3.423l2.999,2.999l-3.932,3.932
				C49.821,31.985,58,29.938,58,28.422z"/>
		</g>
	</g>
	<g>
		<path fill="#37474F" d="M52.079,15.973c0.166,0.361,0.316,0.731,0.448,1.11C56.065,17.82,58,18.685,58,19.422
			c0,1.576-8.442,3.739-23.915,3.997L33.75,23.38l5.043,5.042c0,0-4.931,4.976-4.918,5C44.547,33.237,59,31.823,59,28.422v-9
			C59,17.887,56.165,16.763,52.079,15.973z M58,28.422c0,1.516-8.179,3.563-21.725,3.932l3.932-3.932l-4.062-4.062
			c8.636-0.247,18.702-1.269,21.854-3.459V28.422z"/>
	</g>
</g>
</svg>
