<?xml version="1.0" encoding="utf-8"?>
<!-- Generator: Adobe Illustrator 16.0.0, SVG Export Plug-In . SVG Version: 6.00 Build 0)  -->
<!DOCTYPE svg PUBLIC "-//W3C//DTD SVG 1.1//EN" "http://www.w3.org/Graphics/SVG/1.1/DTD/svg11.dtd">
<svg version="1.1" id="_x3C_Layer_x3E_" xmlns="http://www.w3.org/2000/svg" xmlns:xlink="http://www.w3.org/1999/xlink" x="0px"
	 y="0px" width="64px" height="64px" viewBox="0 0 64 64" enable-background="new 0 0 64 64" xml:space="preserve">
<g id="Distance_x2C__keep_x2C__social_x2C__social_distancing_x2C__check_mark_1_">
	<g id="XMLID_3261_">
		<path id="XMLID_3262_" fill="#37474F" d="M51,20c-0.166,0-0.328-0.012-0.487-0.033l0.138-0.99C50.765,18.992,50.881,19,51,19
			c1.378,0,2.5-1.121,2.5-2.5v-0.986c0-1.378-1.122-2.5-2.5-2.5s-2.5,1.122-2.5,2.5V16.5h-1v-0.986c0-1.93,1.57-3.5,3.5-3.5
			s3.5,1.57,3.5,3.5V16.5C54.5,18.43,52.93,20,51,20z"/>
	</g>
	<g id="XMLID_3256_">
		<path id="XMLID_3260_" fill="#ECEFF1" d="M55.5,38.5V27V38.5L55.5,38.5c0,0.828,0.671,1.5,1.5,1.5s1.5-0.672,1.5-1.5V25.102
			c0-1.262-0.789-2.389-1.975-2.82L53,21v-2.279c0.609-0.549,1-1.336,1-2.221v-0.986c0-1.656-1.343-3-3-3s-3,1.344-3,3V16.5
			c0,0.885,0.391,1.672,1,2.221V21l-3.525,1.281c-1.186,0.432-1.975,1.559-1.975,2.82V38.5c0,0.828,0.671,1.5,1.5,1.5
			s1.5-0.672,1.5-1.5l0,0V27v11.5l0,0V59h3L51,38.5L52.451,59H55.5V38.5L55.5,38.5z"/>
		<path id="XMLID_3259_" fill="#37474F" d="M51,20c-0.166,0-0.328-0.012-0.487-0.033l0.138-0.99C50.765,18.992,50.881,19,51,19
			c1.378,0,2.5-1.121,2.5-2.5v-0.986c0-1.378-1.122-2.5-2.5-2.5s-2.5,1.122-2.5,2.5V16.5h-1v-0.986c0-1.93,1.57-3.5,3.5-3.5
			s3.5,1.57,3.5,3.5V16.5C54.5,18.43,52.93,20,51,20z"/>
		<path id="XMLID_3258_" fill="#37474F" d="M56,59h-1V27h1v11.5c0,0.551,0.449,1,1,1s1-0.449,1-1V25.102
			c0-1.048-0.662-1.992-1.646-2.35L52.5,21.35v-2.852l0.166-0.148c0.538-0.484,0.834-1.142,0.834-1.85v-0.986
			c0-1.378-1.122-2.5-2.5-2.5s-2.5,1.122-2.5,2.5V16.5c0,0.708,0.296,1.365,0.834,1.85l0.166,0.148v2.852l-3.854,1.402
			C44.661,23.109,44,24.054,44,25.102V38.5c0,0.551,0.449,1,1,1s1-0.449,1-1V27h1v32h-1V40.231c-0.294,0.171-0.636,0.269-1,0.269
			c-1.103,0-2-0.896-2-2V25.102c0-1.467,0.926-2.789,2.304-3.289L48.5,20.65v-1.717c-0.638-0.654-1-1.528-1-2.434v-0.986
			c0-1.93,1.57-3.5,3.5-3.5s3.5,1.57,3.5,3.5V16.5c0,0.905-0.362,1.779-1,2.434v1.717l3.196,1.162
			c1.378,0.5,2.304,1.822,2.304,3.289V38.5c0,1.104-0.897,2-2,2c-0.364,0-0.706-0.098-1-0.269V59z"/>
		<polygon id="XMLID_3257_" fill="#37474F" points="50.003,59.037 49.006,58.963 50.501,38.463 51.499,38.465 52.925,58.965 
			51.927,59.035 50.988,45.535 		"/>
	</g>
	<g id="XMLID_3254_">
		<path id="XMLID_3255_" fill="#37474F" d="M13,20c-0.166,0-0.328-0.012-0.487-0.033l0.138-0.99C12.765,18.992,12.881,19,13,19
			c1.378,0,2.5-1.121,2.5-2.5v-0.986c0-1.378-1.122-2.5-2.5-2.5s-2.5,1.122-2.5,2.5V16.5h-1v-0.986c0-1.93,1.57-3.5,3.5-3.5
			s3.5,1.57,3.5,3.5V16.5C16.5,18.43,14.93,20,13,20z"/>
	</g>
	<g id="XMLID_3250_">
		<circle id="XMLID_3253_" fill="#B2FF59" cx="32" cy="13" r="7.5"/>
		<path id="XMLID_3252_" fill="#37474F" d="M32,21c-4.411,0-8-3.589-8-8s3.589-8,8-8c1.727,0,3.371,0.541,4.756,1.566L36.161,7.37
			C34.95,6.474,33.511,6,32,6c-3.86,0-7,3.141-7,7s3.14,7,7,7s7-3.141,7-7c0-1.543-0.492-3.006-1.422-4.229l0.796-0.605
			C39.438,9.564,40,11.236,40,13C40,17.411,36.411,21,32,21z"/>
		<polygon id="XMLID_3251_" fill="#37474F" points="31.885,15.977 28.229,11.717 28.988,11.066 31.874,14.427 38.794,6.105 
			39.563,6.746 		"/>
	</g>
	<g id="XMLID_3245_">
		<path id="XMLID_3249_" fill="#ECEFF1" d="M17.5,38.5V27V38.5L17.5,38.5c0,0.828,0.671,1.5,1.5,1.5s1.5-0.672,1.5-1.5V25.102
			c0-1.262-0.789-2.389-1.975-2.82L15,21v-2.279c0.609-0.549,1-1.336,1-2.221v-0.986c0-1.656-1.343-3-3-3s-3,1.344-3,3V16.5
			c0,0.885,0.391,1.672,1,2.221V21l-3.525,1.281C6.289,22.713,5.5,23.84,5.5,25.102V38.5C5.5,39.328,6.171,40,7,40
			s1.5-0.672,1.5-1.5l0,0V27v11.5l0,0V59h3L13,38.5L14.451,59H17.5V38.5L17.5,38.5z"/>
		<path id="XMLID_3248_" fill="#37474F" d="M13,20c-0.166,0-0.328-0.012-0.487-0.033l0.138-0.99C12.765,18.992,12.881,19,13,19
			c1.378,0,2.5-1.121,2.5-2.5v-0.986c0-1.378-1.122-2.5-2.5-2.5s-2.5,1.122-2.5,2.5V16.5h-1v-0.986c0-1.93,1.57-3.5,3.5-3.5
			s3.5,1.57,3.5,3.5V16.5C16.5,18.43,14.93,20,13,20z"/>
		<path id="XMLID_3247_" fill="#37474F" d="M46.5,59H17V38.5l0,0V27h1v11.5c0,0.551,0.449,1,1,1s1-0.449,1-1V25.102
			c0-1.048-0.662-1.992-1.646-2.35L14.5,21.35v-2.852l0.166-0.148c0.538-0.484,0.834-1.142,0.834-1.85v-0.986
			c0-1.378-1.122-2.5-2.5-2.5s-2.5,1.122-2.5,2.5V16.5c0,0.708,0.296,1.365,0.834,1.85l0.166,0.148v2.852l-3.854,1.402
			C6.661,23.109,6,24.054,6,25.102V38.5c0,0.551,0.449,1,1,1s1-0.449,1-1V27h1v32H8V40.231C7.706,40.402,7.364,40.5,7,40.5
			c-1.103,0-2-0.896-2-2V25.102c0-1.467,0.926-2.789,2.304-3.289L10.5,20.65v-1.717c-0.638-0.654-1-1.528-1-2.434v-0.986
			c0-1.93,1.57-3.5,3.5-3.5s3.5,1.57,3.5,3.5V16.5c0,0.905-0.362,1.779-1,2.434v1.717l3.196,1.162
			c1.378,0.5,2.304,1.822,2.304,3.289V38.5c0,1.104-0.897,2-2,2c-0.364,0-0.706-0.098-1-0.269V58h28.5V59z"/>
		<polygon id="XMLID_3246_" fill="#37474F" points="12.003,59.037 11.006,58.963 12.501,38.463 13.499,38.465 14.925,58.965 
			13.927,59.035 12.988,45.535 		"/>
	</g>
</g>
</svg>
