<?xml version="1.0" encoding="utf-8"?>
<!-- Generator: Adobe Illustrator 16.0.0, SVG Export Plug-In . SVG Version: 6.00 Build 0)  -->
<!DOCTYPE svg PUBLIC "-//W3C//DTD SVG 1.1//EN" "http://www.w3.org/Graphics/SVG/1.1/DTD/svg11.dtd">
<svg version="1.1" id="_x3C_Layer_x3E_" xmlns="http://www.w3.org/2000/svg" xmlns:xlink="http://www.w3.org/1999/xlink" x="0px"
	 y="0px" width="64px" height="64px" viewBox="0 0 64 64" enable-background="new 0 0 64 64" xml:space="preserve">
<g id="Bacteria_x2C__disease_x2C__protection_x2C__safety_x2C__shield_x2C__virus_x2C__check_mark">
	<g id="XMLID_3990_">
		<g id="XMLID_3993_">
			<circle fill="#ECEFF1" cx="23.451" cy="41.023" r="16"/>
		</g>
		<g id="XMLID_3992_">
			<path fill="#ECEFF1" d="M23.417,25.023c12.813-0.027,15.064-4.229,16.778-11.641l11.216,11.436
				c-7.444,1.57-11.688,3.739-11.964,16.549L23.417,25.023z"/>
		</g>
		<g id="XMLID_3991_">
			<circle fill="#ECEFF1" cx="49.451" cy="15.523" r="9.5"/>
		</g>
	</g>
	<g id="Corona_virus_x2C__Covid-19_x2C__clock_3_">
		<g id="XMLID_3971_">
			<g id="XMLID_3977_">
				<g id="XMLID_3987_">
					<g id="XMLID_3988_">
						
							<rect id="XMLID_3989_" x="53.115" y="3.724" transform="matrix(0.9066 0.422 -0.422 0.9066 8.9593 -21.7525)" fill="#37474F" width="1" height="11.275"/>
					</g>
				</g>
				<g id="XMLID_3984_">
					<g id="XMLID_3985_">
						
							<rect id="XMLID_3986_" x="52.87" y="3.986" transform="matrix(0.3378 0.9412 -0.9412 0.3378 44.3777 -43.8746)" fill="#37474F" width="1" height="11.231"/>
					</g>
				</g>
				<g id="XMLID_3981_">
					<g id="XMLID_3982_">
						
							<rect id="XMLID_3983_" x="47.736" y="9.017" transform="matrix(0.9063 0.4226 -0.4226 0.9063 9.0377 -21.7357)" fill="#37474F" width="11.614" height="1"/>
					</g>
				</g>
				<g id="XMLID_3978_">
					<g id="XMLID_3979_">
						
							<rect id="XMLID_3980_" x="47.636" y="9.06" transform="matrix(0.3261 0.9453 -0.9453 0.3261 45.058 -44.0896)" fill="#37474F" width="11.636" height="1"/>
					</g>
				</g>
			</g>
			<g id="XMLID_3972_">
				<circle id="XMLID_3976_" fill="#FF8A80" cx="53.543" cy="9.516" r="3.63"/>
				<path id="XMLID_3973_" fill="#37474F" d="M53.543,13.646c-2.277,0-4.13-1.854-4.13-4.131c0-2.276,1.853-4.129,4.13-4.129
					s4.13,1.853,4.13,4.129C57.673,11.793,55.82,13.646,53.543,13.646z M53.543,6.387c-1.726,0-3.13,1.404-3.13,3.129
					c0,1.727,1.404,3.131,3.13,3.131s3.13-1.404,3.13-3.131C56.673,7.791,55.269,6.387,53.543,6.387z"/>
			</g>
		</g>
	</g>
	<g id="Corona_virus_x2C__Covid-19_6_">
		<g id="XMLID_3854_">
			<g id="XMLID_3970_">
				<circle fill="#FFFFFF" cx="25.111" cy="24.449" r="13.411"/>
			</g>
			<g id="XMLID_3969_">
				<path fill="#FF8A80" d="M24.619,12.454c-7.305,1.226-12.232,8.142-11.006,15.445c0.549,3.275,2.248,6.065,4.608,8.045
					c2.641,1.585,5.833,2.28,9.108,1.729c7.305-1.225,12.232-8.141,11.007-15.444c-0.55-3.275-2.249-6.065-4.608-8.046
					C31.087,12.6,27.895,11.904,24.619,12.454z"/>
			</g>
			<g id="XMLID_3968_">
				<path fill="#FF5252" d="M33.532,14.03c-0.19-0.119-0.392-0.224-0.589-0.333c1.579,1.802,2.698,4.045,3.124,6.582
					c1.226,7.305-3.702,14.219-11.007,15.445c-3.123,0.523-6.162-0.098-8.728-1.531c0.514,0.588,1.076,1.129,1.68,1.617
					c2.682,1.676,5.954,2.429,9.317,1.863c7.305-1.225,12.232-8.141,11.007-15.444C37.772,18.865,35.992,16.018,33.532,14.03z"/>
			</g>
			<g id="XMLID_3966_">
				<path id="XMLID_3967_" fill="#37474F" d="M12.256,23.218l-0.996-0.095c0.104-1.078,0.334-2.146,0.687-3.174l0.945,0.324
					C12.565,21.227,12.351,22.217,12.256,23.218z"/>
			</g>
			<g id="XMLID_3964_">
				<path id="XMLID_3965_" fill="#37474F" d="M11.741,28.293c-0.144-0.499-0.261-1.018-0.35-1.541
					c-0.091-0.549-0.15-1.103-0.177-1.65l0.998-0.047c0.025,0.508,0.08,1.023,0.165,1.531c0.082,0.486,0.191,0.968,0.324,1.432
					L11.741,28.293z"/>
			</g>
			<g id="XMLID_3962_">
				<path id="XMLID_3963_" fill="#37474F" d="M15.09,34.098c-1.099-1.138-1.985-2.441-2.638-3.873l0.91-0.414
					c0.604,1.328,1.428,2.537,2.446,3.594L15.09,34.098z"/>
			</g>
			<g id="XMLID_3960_">
				<path id="XMLID_3961_" fill="#37474F" d="M20.047,37.407c-1.325-0.52-2.56-1.236-3.669-2.131l0.627-0.778
					c1.031,0.83,2.177,1.496,3.407,1.979L20.047,37.407z"/>
			</g>
			<g id="XMLID_3958_">
				<path id="XMLID_3959_" fill="#37474F" d="M34.603,15.695c-1.107-1.199-2.413-2.166-3.883-2.876l0.436-0.9
					c1.582,0.765,2.989,1.807,4.182,3.098L34.603,15.695z"/>
			</g>
			<g id="XMLID_3956_">
				<path id="XMLID_3957_" fill="#37474F" d="M28.952,12.119c-0.85-0.264-1.727-0.441-2.609-0.525l0.096-0.996
					c0.95,0.092,1.896,0.282,2.811,0.566L28.952,12.119z"/>
			</g>
			<g id="XMLID_3954_">
				<path id="XMLID_3955_" fill="#37474F" d="M20.513,12.382l-0.355-0.935c0.852-0.323,1.743-0.564,2.651-0.717
					c0.573-0.097,1.16-0.158,1.743-0.183l0.043,0.999c-0.543,0.023-1.088,0.08-1.62,0.17C22.131,11.857,21.303,12.082,20.513,12.382
					z"/>
			</g>
			<g id="XMLID_3952_">
				<path id="XMLID_3953_" fill="#37474F" d="M16.404,14.914l-0.676-0.738c0.829-0.758,1.748-1.414,2.731-1.949l0.479,0.879
					C18.025,13.602,17.173,14.211,16.404,14.914z"/>
			</g>
			<g id="XMLID_3950_">
				<path id="XMLID_3951_" fill="#37474F" d="M13.433,18.941l-0.904-0.428c0.489-1.033,1.104-2.006,1.829-2.889l0.773,0.633
					C14.458,17.079,13.887,17.982,13.433,18.941z"/>
			</g>
			<g id="XMLID_3945_">
				<circle id="XMLID_3949_" fill="#FF5252" cx="24.542" cy="18.068" r="1.5"/>
				<path id="XMLID_3946_" fill="#37474F" d="M24.537,20.068c-0.412,0-0.813-0.127-1.156-0.371
					c-0.436-0.311-0.724-0.771-0.812-1.299c-0.089-0.525,0.033-1.056,0.344-1.491c0.31-0.435,0.771-0.724,1.297-0.812
					c1.083-0.184,2.121,0.553,2.305,1.641v0.001c0.182,1.087-0.555,2.12-1.642,2.304C24.761,20.059,24.648,20.068,24.537,20.068z
					 M24.541,17.068c-0.055,0-0.11,0.004-0.166,0.014c-0.263,0.043-0.493,0.188-0.647,0.406c-0.155,0.217-0.217,0.482-0.172,0.745
					c0.044,0.264,0.188,0.494,0.405,0.649c0.218,0.154,0.485,0.215,0.746,0.172c0.544-0.092,0.912-0.608,0.821-1.152l0,0
					C25.446,17.414,25.021,17.068,24.541,17.068z"/>
			</g>
			<g id="XMLID_3940_">
				<circle id="XMLID_3944_" fill="#FF5252" cx="18.618" cy="25.979" r="1.5"/>
				<path id="XMLID_3941_" fill="#37474F" d="M18.612,27.979c-0.412,0-0.813-0.127-1.155-0.371
					c-0.436-0.311-0.724-0.771-0.812-1.299c-0.089-0.525,0.033-1.056,0.343-1.49c0.311-0.436,0.771-0.725,1.298-0.813
					c0.526-0.089,1.057,0.033,1.492,0.344c0.435,0.311,0.723,0.771,0.812,1.297l0,0c0.089,0.527-0.033,1.057-0.344,1.492
					c-0.31,0.436-0.771,0.724-1.298,0.813C18.836,27.969,18.724,27.979,18.612,27.979z M18.62,24.979
					c-0.056,0-0.112,0.004-0.168,0.014c-0.264,0.044-0.494,0.188-0.649,0.406c-0.154,0.217-0.216,0.482-0.171,0.745
					c0.044,0.264,0.188,0.494,0.405,0.649c0.218,0.154,0.484,0.217,0.745,0.172c0.264-0.045,0.495-0.189,0.649-0.406
					c0.155-0.218,0.217-0.482,0.172-0.746l0,0c-0.044-0.264-0.188-0.494-0.405-0.648C19.026,25.042,18.826,24.979,18.62,24.979z"/>
			</g>
			<g id="XMLID_3935_">
				<circle id="XMLID_3939_" fill="#FF5252" cx="25.097" cy="24.23" r="2"/>
				<path id="XMLID_3936_" fill="#37474F" d="M25.097,26.73c-1.198,0-2.26-0.867-2.466-2.086c-0.228-1.36,0.692-2.652,2.052-2.88
					c0.658-0.109,1.321,0.042,1.865,0.429c0.544,0.389,0.904,0.965,1.015,1.623l0,0c0.228,1.359-0.692,2.65-2.052,2.879
					C25.371,26.719,25.233,26.73,25.097,26.73z M25.101,22.73c-0.084,0-0.168,0.006-0.252,0.021
					c-0.816,0.137-1.368,0.911-1.231,1.728c0.138,0.814,0.918,1.372,1.728,1.23c0.815-0.137,1.368-0.912,1.231-1.727l0,0
					c-0.066-0.396-0.282-0.742-0.608-0.975C25.711,22.825,25.41,22.73,25.101,22.73z"/>
			</g>
			<g id="XMLID_3927_">
				<g id="XMLID_3930_">
					<circle id="XMLID_3934_" fill="#FF5252" cx="16.411" cy="8.193" r="1.915"/>
					<path id="XMLID_3931_" fill="#37474F" d="M16.413,10.609c-0.258,0-0.516-0.041-0.767-0.125
						c-0.612-0.204-1.108-0.635-1.396-1.211c-0.288-0.578-0.335-1.232-0.131-1.844c0.205-0.613,0.635-1.109,1.212-1.396
						c1.191-0.596,2.645-0.11,3.24,1.08c0.595,1.191,0.109,2.646-1.081,3.24C17.15,10.523,16.782,10.609,16.413,10.609z
						 M16.408,6.778c-0.212,0-0.428,0.048-0.63,0.149c-0.338,0.168-0.591,0.459-0.71,0.818c-0.12,0.357-0.093,0.742,0.076,1.08
						s0.46,0.59,0.818,0.709c0.355,0.121,0.742,0.095,1.08-0.076c0.698-0.349,0.982-1.2,0.634-1.898
						C17.429,7.064,16.928,6.778,16.408,6.778z"/>
				</g>
				<g id="XMLID_3928_">
					
						<rect id="XMLID_3929_" x="15.377" y="11.851" transform="matrix(0.449 0.8935 -0.8935 0.449 21.2287 -9.721)" fill="#37474F" width="6.238" height="1.001"/>
				</g>
			</g>
			<g id="XMLID_3919_">
				<g id="XMLID_3922_">
					<circle id="XMLID_3926_" fill="#FF5252" cx="27.068" cy="6.016" r="1.532"/>
					<path id="XMLID_3923_" fill="#37474F" d="M27.07,8.05c-0.064,0-0.13-0.003-0.195-0.01c-1.116-0.107-1.937-1.103-1.83-2.218l0,0
						c0.052-0.539,0.311-1.027,0.729-1.373s0.947-0.504,1.488-0.455c0.54,0.051,1.027,0.311,1.373,0.729
						c0.346,0.42,0.508,0.947,0.456,1.488c-0.052,0.539-0.311,1.027-0.729,1.373C27.994,7.888,27.542,8.05,27.07,8.05z
						 M27.066,4.984c-0.239,0-0.469,0.082-0.655,0.236c-0.213,0.176-0.345,0.423-0.37,0.697l0,0
						c-0.055,0.566,0.362,1.072,0.929,1.127c0.271,0.022,0.542-0.057,0.756-0.232c0.213-0.176,0.345-0.423,0.37-0.697
						c0.026-0.275-0.056-0.543-0.231-0.756c-0.175-0.213-0.423-0.344-0.697-0.371C27.134,4.986,27.1,4.984,27.066,4.984z"/>
				</g>
				<g id="XMLID_3920_">
					
						<rect id="XMLID_3921_" x="25.992" y="7.517" transform="matrix(0.9924 0.1231 -0.1231 0.9924 1.5598 -3.1765)" fill="#37474F" width="1" height="7.042"/>
				</g>
			</g>
			<g id="XMLID_3911_">
				<g id="XMLID_3914_">
					<circle id="XMLID_3918_" fill="#FF5252" cx="21.003" cy="42.542" r="1.532"/>
					<path id="XMLID_3915_" fill="#37474F" d="M21.007,44.576c-0.158,0-0.318-0.02-0.477-0.057c-0.528-0.127-0.976-0.451-1.26-0.914
						s-0.37-1.009-0.244-1.537l0,0c0.262-1.09,1.363-1.762,2.45-1.504c0.528,0.127,0.976,0.451,1.259,0.914
						c0.284,0.463,0.37,1.009,0.244,1.537c-0.126,0.527-0.45,0.975-0.913,1.259C21.742,44.473,21.378,44.576,21.007,44.576z
						 M19.999,42.302c-0.064,0.269-0.021,0.546,0.124,0.78c0.145,0.235,0.372,0.4,0.64,0.465c0.271,0.063,0.547,0.02,0.78-0.125
						c0.235-0.145,0.4-0.371,0.464-0.639c0.133-0.555-0.21-1.113-0.763-1.246C20.685,41.405,20.132,41.748,19.999,42.302
						L19.999,42.302z"/>
				</g>
				<g id="XMLID_3912_">
					
						<rect id="XMLID_3913_" x="21.771" y="33.337" transform="matrix(0.9726 0.2324 -0.2324 0.9726 9.2668 -4.1561)" fill="#37474F" width="1" height="7.822"/>
				</g>
			</g>
			<g id="XMLID_3903_">
				<g id="XMLID_3906_">
					<circle id="XMLID_3910_" fill="#FF5252" cx="33.525" cy="7.826" r="1.533"/>
					<path id="XMLID_3907_" fill="#37474F" d="M33.522,9.857c-0.408,0-0.82-0.121-1.177-0.376c-0.912-0.65-1.126-1.923-0.477-2.835
						l0,0c0.315-0.442,0.783-0.735,1.319-0.825c0.537-0.089,1.074,0.034,1.516,0.349c0.913,0.65,1.127,1.923,0.477,2.836
						C34.784,9.562,34.158,9.857,33.522,9.857z M32.684,7.227c-0.33,0.464-0.221,1.109,0.242,1.44
						c0.224,0.159,0.496,0.223,0.771,0.177c0.271-0.045,0.51-0.193,0.67-0.418s0.223-0.498,0.177-0.771
						c-0.045-0.272-0.194-0.511-0.419-0.671s-0.495-0.223-0.771-0.177C33.082,6.854,32.844,7.002,32.684,7.227L32.684,7.227z"/>
				</g>
				<g id="XMLID_3904_">
					
						<rect id="XMLID_3905_" x="31.299" y="8.901" transform="matrix(0.9173 0.3982 -0.3982 0.9173 7.0086 -11.7518)" fill="#37474F" width="1.001" height="4.197"/>
				</g>
			</g>
			<g id="XMLID_3895_">
				<g id="XMLID_3898_">
					<circle id="XMLID_3902_" fill="#FF5252" cx="13.423" cy="39.078" r="1.916"/>
					<path id="XMLID_3899_" fill="#37474F" d="M13.42,41.492c-0.485,0-0.975-0.145-1.398-0.447c-0.525-0.375-0.874-0.932-0.98-1.567
						s0.04-1.276,0.415-1.802l0,0c0.374-0.525,0.931-0.874,1.567-0.98c0.634-0.104,1.276,0.04,1.802,0.414
						c1.085,0.775,1.338,2.286,0.565,3.37C14.92,41.14,14.175,41.492,13.42,41.492z M13.426,37.661
						c-0.078,0-0.158,0.007-0.237,0.021c-0.373,0.063-0.698,0.266-0.918,0.574l0,0c-0.22,0.309-0.306,0.684-0.243,1.057
						s0.267,0.699,0.574,0.918c0.636,0.453,1.521,0.304,1.975-0.332c0.453-0.635,0.305-1.521-0.331-1.975
						C14.002,37.752,13.718,37.661,13.426,37.661z"/>
				</g>
				<g id="XMLID_3896_">
					
						<rect id="XMLID_3897_" x="15.289" y="34.085" transform="matrix(0.7311 0.6822 -0.6822 0.7311 28.9753 -1.025)" fill="#37474F" width="0.999" height="4.325"/>
				</g>
			</g>
			<g id="XMLID_3887_">
				<g id="XMLID_3890_">
					<circle id="XMLID_3894_" fill="#FF5252" cx="41.425" cy="13.552" r="1.915"/>
					<path id="XMLID_3891_" fill="#37474F" d="M41.429,15.967c-0.917,0-1.796-0.524-2.201-1.412
						c-0.552-1.211-0.016-2.646,1.194-3.199v-0.001c0.588-0.269,1.243-0.291,1.849-0.065c0.604,0.226,1.084,0.674,1.353,1.261
						c0.552,1.212,0.016,2.647-1.195,3.2C42.104,15.897,41.764,15.967,41.429,15.967z M40.838,12.265
						c-0.71,0.323-1.023,1.165-0.7,1.875s1.163,1.027,1.874,0.7c0.711-0.324,1.025-1.165,0.701-1.875
						c-0.157-0.344-0.438-0.606-0.793-0.738C41.566,12.094,41.182,12.107,40.838,12.265L40.838,12.265z"/>
				</g>
				<g id="XMLID_3888_">
					
						<rect id="XMLID_3889_" x="35.879" y="12.227" transform="matrix(0.5524 0.8335 -0.8335 0.5524 30.1234 -22.8915)" fill="#37474F" width="1.001" height="8.758"/>
				</g>
			</g>
			<g id="XMLID_3879_">
				<g id="XMLID_3882_">
					<circle id="XMLID_3886_" fill="#FF5252" cx="8.641" cy="31.875" r="1.533"/>
					<path id="XMLID_3883_" fill="#37474F" d="M8.644,33.908c-0.771,0-1.512-0.442-1.853-1.189
						c-0.226-0.494-0.245-1.046-0.055-1.555s0.567-0.913,1.062-1.139c0.493-0.225,1.046-0.244,1.554-0.055
						c0.509,0.189,0.913,0.566,1.139,1.061s0.245,1.047,0.055,1.555c-0.19,0.509-0.566,0.913-1.061,1.139
						C9.212,33.849,8.926,33.908,8.644,33.908z M8.641,30.842c-0.146,0-0.291,0.031-0.428,0.094H8.212
						c-0.251,0.115-0.442,0.32-0.539,0.578c-0.097,0.259-0.087,0.539,0.028,0.79c0.235,0.517,0.852,0.749,1.367,0.511
						c0.252-0.114,0.443-0.32,0.54-0.578s0.086-0.539-0.028-0.79s-0.319-0.442-0.578-0.538C8.885,30.863,8.763,30.842,8.641,30.842z
						"/>
				</g>
				<g id="XMLID_3880_">
					
						<rect id="XMLID_3881_" x="12.541" y="26.625" transform="matrix(0.4041 0.9147 -0.9147 0.4041 35.1309 5.894)" fill="#37474F" width="1" height="6.573"/>
				</g>
			</g>
			<g id="XMLID_3871_">
				<g id="XMLID_3874_">
					<circle id="XMLID_3878_" fill="#FF5252" cx="8.026" cy="24.985" r="1.533"/>
					<path id="XMLID_3875_" fill="#37474F" d="M8.027,27.018c-0.064,0-0.13-0.003-0.195-0.01c-0.54-0.051-1.028-0.311-1.374-0.729
						c-0.346-0.42-0.508-0.947-0.456-1.488c0.053-0.541,0.312-1.028,0.73-1.374c0.419-0.345,0.944-0.507,1.487-0.455l0,0
						c1.115,0.106,1.936,1.101,1.83,2.216C9.948,26.229,9.062,27.018,8.027,27.018z M8.024,23.952c-0.525,0-0.976,0.401-1.026,0.935
						c-0.026,0.274,0.056,0.543,0.231,0.756c0.175,0.213,0.423,0.344,0.698,0.371c0.571,0.043,1.071-0.365,1.126-0.931
						c0.054-0.566-0.363-1.071-0.93-1.126l0,0C8.091,23.954,8.058,23.952,8.024,23.952z"/>
				</g>
				<g id="XMLID_3872_">
					
						<rect id="XMLID_3873_" x="10.383" y="23.729" transform="matrix(0.0507 0.9987 -0.9987 0.0507 35.3621 12.9216)" fill="#37474F" width="1.001" height="2.668"/>
				</g>
			</g>
			<g id="XMLID_3863_">
				<g id="XMLID_3866_">
					<circle id="XMLID_3870_" fill="#FF5252" cx="6.413" cy="18.599" r="1.533"/>
					<path id="XMLID_3867_" fill="#37474F" d="M6.414,20.631c-0.064,0-0.13-0.002-0.195-0.009c-0.54-0.052-1.028-0.312-1.374-0.729
						c-0.346-0.419-0.508-0.947-0.456-1.488c0.107-1.115,1.102-1.943,2.218-1.829l0,0c0.54,0.052,1.028,0.312,1.374,0.729
						c0.346,0.419,0.508,0.947,0.456,1.488C8.335,19.843,7.448,20.631,6.414,20.631z M6.412,17.566c-0.525,0-0.977,0.4-1.027,0.934
						c-0.026,0.275,0.056,0.543,0.231,0.756s0.424,0.345,0.698,0.371c0.57,0.051,1.071-0.363,1.126-0.93
						c0.026-0.275-0.056-0.543-0.231-0.756c-0.175-0.213-0.423-0.344-0.698-0.371l0,0C6.478,17.567,6.444,17.566,6.412,17.566z"/>
				</g>
				<g id="XMLID_3864_">
					
						<rect id="XMLID_3865_" x="7.794" y="19.248" transform="matrix(0.9591 0.2831 -0.2831 0.9591 6.0549 -2.4014)" fill="#37474F" width="7.085" height="1"/>
				</g>
			</g>
			<g id="XMLID_3855_">
				<g id="XMLID_3858_">
					<circle id="XMLID_3862_" fill="#FF5252" cx="10.013" cy="12.373" r="1.532"/>
					<path id="XMLID_3859_" fill="#37474F" d="M10.01,14.404c-0.408,0-0.819-0.123-1.176-0.377c-0.913-0.65-1.127-1.922-0.477-2.834
						c0.649-0.913,1.921-1.127,2.835-0.477l0,0c0.442,0.314,0.735,0.783,0.825,1.319c0.091,0.536-0.033,1.073-0.349,1.517
						C11.272,14.107,10.646,14.404,10.01,14.404z M10.015,11.34c-0.058,0-0.115,0.004-0.173,0.014
						c-0.272,0.047-0.51,0.195-0.67,0.42c-0.33,0.463-0.222,1.109,0.242,1.439c0.466,0.332,1.111,0.223,1.44-0.241
						c0.16-0.224,0.223-0.497,0.177-0.771c-0.045-0.271-0.194-0.51-0.419-0.67l0,0C10.436,11.406,10.228,11.34,10.015,11.34z"/>
				</g>
				<g id="XMLID_3856_">
					
						<rect id="XMLID_3857_" x="10.701" y="14.322" transform="matrix(0.7712 0.6366 -0.6366 0.7712 12.4456 -4.9805)" fill="#37474F" width="4.899" height="1"/>
				</g>
			</g>
		</g>
		<g id="XMLID_3852_">
			<path fill="#37474F" d="M26.261,37.299c-1.351,0.123-2.699,0.043-4.022-0.26l-0.222,0.976c1.383,0.315,2.793,0.409,4.204,0.294
				C26.224,37.971,26.238,37.635,26.261,37.299z"/>
		</g>
	</g>
	<g>
		<path fill="#37474F" d="M36.569,16.556l-0.823,0.568c0.774,1.122,1.333,2.351,1.713,3.649l0.925-0.402
			C37.974,19.016,37.381,17.731,36.569,16.556z"/>
	</g>
	<g id="XMLID_3848_">
		<g id="XMLID_3849_">
			<g id="XMLID_3850_">
				<path fill="#FFFFFF" d="M51.403,53.798L43,59l-8.402-5.202c-3.159-1.954-6.583-4.827-6.583-10.261l-0.48-16.813L43,20
					l15.466,6.725l-0.48,16.813C57.985,49.025,54.562,51.844,51.403,53.798z"/>
			</g>
		</g>
	</g>
	<g id="XMLID_3847_">
		<path fill="#CCFF90" d="M34.635,53.82L43,59l8.403-5.202c3.158-1.954,6.582-4.772,6.582-10.261l0.471-16.469L44.5,21
			l-15.466,6.725l0.48,16.813C29.515,49.134,31.967,51.895,34.635,53.82z"/>
	</g>
	<g id="XMLID_3846_">
		<path fill="#B2FF59" d="M56.946,26.411l-0.461,16.126c0,5.488-3.424,8.307-6.582,10.261L41.5,58l-7.406-4.586
			c0.179,0.14,0.359,0.275,0.541,0.406L43,59l8.403-5.202c3.158-1.954,6.582-4.772,6.582-10.261l0.471-16.469L56.946,26.411z"/>
	</g>
	<g id="XMLID_3840_">
		<g id="XMLID_3841_">
			<g id="XMLID_3842_">
				<path id="XMLID_3843_" fill="#37474F" d="M43,59.588l-8.666-5.365c-3.175-1.964-6.819-4.953-6.819-10.686L27.024,26.4L43,19.455
					L58.976,26.4l-0.49,17.15c0,5.719-3.645,8.708-6.819,10.672L43,59.588z M28.044,27.048l0.471,16.476
					c0,5.252,3.392,8.021,6.346,9.85L43,58.412l8.141-5.039c3.138-1.941,6.345-4.629,6.345-9.836l0.471-16.489L43,20.545
					L28.044,27.048z"/>
			</g>
		</g>
	</g>
	<g id="XMLID_3834_">
		<g id="XMLID_3839_">
			<circle fill="#B2FF59" cx="43" cy="38.5" r="7.5"/>
		</g>
		<g id="XMLID_3837_">
			<path id="XMLID_3838_" fill="#37474F" d="M43,46.5c-4.411,0-8-3.589-8-8s3.589-8,8-8c1.727,0,3.371,0.541,4.756,1.566
				L47.16,32.87c-1.211-0.896-2.649-1.37-4.16-1.37c-3.859,0-7,3.141-7,7s3.141,7,7,7s7-3.141,7-7c0-1.543-0.491-3.006-1.422-4.23
				l0.797-0.604C50.438,35.065,51,36.737,51,38.5C51,42.911,47.411,46.5,43,46.5z"/>
		</g>
		<g id="XMLID_3835_">
			<polygon id="XMLID_3836_" fill="#37474F" points="42.885,41.477 39.229,37.217 39.989,36.566 42.873,39.927 49.794,31.605 
				50.563,32.246 			"/>
		</g>
	</g>
	<g id="XMLID_3833_">
		<rect x="29" y="16.5" fill="#37474F" width="1" height="1"/>
	</g>
	<g id="XMLID_3832_">
		<rect x="34" y="19.5" fill="#37474F" width="1" height="1"/>
	</g>
	<g id="XMLID_3831_">
		<rect x="25" y="29.5" fill="#37474F" width="1" height="1"/>
	</g>
	<g id="XMLID_3830_">
		<rect x="20" y="31.5" fill="#37474F" width="1" height="1"/>
	</g>
	<g id="XMLID_3829_">
		<rect x="15" y="22.5" fill="#37474F" width="1" height="1"/>
	</g>
	<g id="XMLID_3828_">
		<rect x="19" y="17.5" fill="#37474F" width="1" height="1"/>
	</g>
	<g id="XMLID_3827_">
		<rect x="22" y="13.5" fill="#37474F" width="1" height="1"/>
	</g>
</g>
</svg>
