<?xml version="1.0" encoding="utf-8"?>
<!-- Generator: Adobe Illustrator 16.0.0, SVG Export Plug-In . SVG Version: 6.00 Build 0)  -->
<!DOCTYPE svg PUBLIC "-//W3C//DTD SVG 1.1//EN" "http://www.w3.org/Graphics/SVG/1.1/DTD/svg11.dtd">
<svg version="1.1" id="_x3C_Layer_x3E_" xmlns="http://www.w3.org/2000/svg" xmlns:xlink="http://www.w3.org/1999/xlink" x="0px"
	 y="0px" width="64px" height="64px" viewBox="0 0 64 64" enable-background="new 0 0 64 64" xml:space="preserve">
<g id="Ambulance_x2C__car_x2C__emergency">
	<g id="Ambulance_1_">
		<g id="XMLID_8_">
			<g id="XMLID_9_">
				<path id="XMLID_10_" fill="#FFFFFF" d="M5.5,50.5v-30c0-0.553,0.448-1,1-1h32c0.552,0,1,0.447,1,1l0,5h4.84
					c1.033,0,1.993,0.531,2.542,1.406l5.581,8.903l6.037,5.039V50.5H5.5z"/>
			</g>
		</g>
		<path fill="#FFE57F" d="M46.882,26.906c-0.549-0.875-1.509-1.406-2.542-1.406H39.5l0-4.5H8c-0.552,0-1,0.447-1,1v28.5h51.5v-9.651
			l-6.037-5.039L46.882,26.906z"/>
		<polygon fill="#FFFFFF" points="56.097,39 39.938,39 39.938,37 54.097,37 		"/>
		<polygon fill="#FF5252" points="57.097,40 39.938,40 39.938,38 55.097,38 		"/>
		<g id="XMLID_1226_">
			<g id="XMLID_1227_">
				<path fill="#37474F" d="M52.844,35.477l-5.539-8.836C46.661,25.613,45.552,25,44.34,25H40l0-4.5c0-0.827-0.673-1.5-1.5-1.5h-32
					C5.673,19,5,19.673,5,20.5V51h6.5v-1H6V20.5C6,20.225,6.224,20,6.5,20h32c0.276,0,0.5,0.225,0.5,0.5l0,5.5h5.34
					c0.866,0,1.658,0.438,2.118,1.172l5.581,8.903L58,41.083v5.323h1v-5.792L52.844,35.477z"/>
				<rect x="24.25" y="50" fill="#37474F" width="18.281" height="1"/>
			</g>
		</g>
		<g id="XMLID_1214_">
			<g id="XMLID_1218_">
				<g id="XMLID_1219_">
					<rect id="XMLID_1220_" x="15" y="15" fill="#37474F" width="9" height="1"/>
				</g>
			</g>
			<g id="XMLID_1215_">
				<g id="XMLID_1216_">
					<rect id="XMLID_1217_" x="4" y="17" fill="#37474F" width="15" height="1"/>
				</g>
			</g>
		</g>
		<g id="XMLID_1181_">
			<rect id="XMLID_1182_" x="24" y="49" fill="#FFD740" width="19" height="1"/>
		</g>
		<g id="XMLID_1177_">
			<rect id="XMLID_1178_" x="24.584" y="50" fill="#37474F" width="17.916" height="1"/>
		</g>
		<g id="XMLID_1134_">
			<g id="XMLID_1172_">
				<g id="XMLID_1173_">
					<rect id="XMLID_1174_" x="6" y="47" fill="#CFD8DC" width="14.563" height="4"/>
				</g>
			</g>
			<g id="XMLID_1169_">
				<g id="XMLID_1170_">
					<path id="XMLID_1171_" fill="#CFD8DC" d="M59,49.5v-2c0-0.553,0.052-0.5-0.5-0.5h-9.688v4H58.5C59.052,51,59,50.053,59,49.5z"
						/>
				</g>
			</g>
			<g id="XMLID_1167_">
				<polygon id="XMLID_1168_" fill="#ECEFF1" points="12,48 6,48 6,47 13,47 				"/>
			</g>
			<g id="XMLID_1164_">
				<g id="XMLID_1165_">
					<path id="XMLID_1166_" fill="#37474F" d="M58.5,46h-5.242c0.343,0.268,0.598,0.614,0.78,1H58.5c0.275,0,0.5,0.225,0.5,0.5v2
						c0,0.275-0.225,0.5-0.5,0.5h-3.015c0.087,0.325,0.127,0.661,0.114,1h2.9c0.827,0,1.5-0.673,1.5-1.5v-2
						C60,46.673,59.327,46,58.5,46z"/>
				</g>
			</g>
			<g id="XMLID_1161_">
				<g id="XMLID_1162_">
					<path id="XMLID_1163_" fill="#37474F" d="M11.681,50H6v-3h7.133c0.168-0.382,0.409-0.725,0.729-1H5v5h6.621
						C11.594,50.665,11.611,50.328,11.681,50z"/>
				</g>
			</g>
			<g id="XMLID_1151_">
				<g id="XMLID_1152_">
					<g id="XMLID_1157_">
						<g id="XMLID_1158_">
							<g id="XMLID_1159_">
								<path id="XMLID_1160_" fill="#FFFFFF" d="M24.5,51c0-3.586-2.914-6.5-6.5-6.5s-6.5,2.914-6.5,6.5H24.5z"/>
							</g>
						</g>
					</g>
					<g id="XMLID_1153_">
						<g id="XMLID_1154_">
							<g id="XMLID_1155_">
								<path id="XMLID_1156_" fill="#37474F" d="M12,51c0-3.309,2.691-6,6-6s6,2.691,6,6h1c0-3.859-3.14-7-7-7s-7,3.141-7,7H12z"/>
							</g>
						</g>
					</g>
				</g>
			</g>
			<g id="XMLID_1141_">
				<g id="XMLID_1142_">
					<g id="XMLID_1147_">
						<g id="XMLID_1148_">
							<g id="XMLID_1149_">
								<path id="XMLID_1150_" fill="#FFFFFF" d="M55.5,51c0-3.586-2.914-6.5-6.5-6.5s-6.5,2.914-6.5,6.5H55.5z"/>
							</g>
						</g>
					</g>
					<g id="XMLID_1143_">
						<g id="XMLID_1144_">
							<g id="XMLID_1145_">
								<path id="XMLID_1146_" fill="#37474F" d="M43,51c0-3.309,2.691-6,6-6s6,2.691,6,6h1c0-3.859-3.14-7-7-7s-7,3.141-7,7H43z"/>
							</g>
						</g>
					</g>
				</g>
			</g>
			<g id="XMLID_1138_">
				<g id="XMLID_1139_">
					<rect id="XMLID_1140_" x="56" y="48" fill="#37474F" width="3" height="1"/>
				</g>
			</g>
			<g id="XMLID_1135_">
				<g id="XMLID_1136_">
					<rect id="XMLID_1137_" x="56" y="47" fill="#FFD740" width="3" height="1"/>
				</g>
			</g>
		</g>
		<g id="XMLID_1113_">
			<g id="XMLID_1124_">
				<g id="XMLID_1125_">
					<g id="XMLID_1131_">
						<g id="XMLID_1132_">
							<path id="XMLID_1133_" fill="#ECEFF1" d="M22.5,51c0,2.482-2.018,4.5-4.5,4.5s-4.5-2.018-4.5-4.5s2.018-4.5,4.5-4.5
								S22.5,48.518,22.5,51z"/>
						</g>
					</g>
					<g id="XMLID_1126_">
						<g id="XMLID_1127_">
							<path id="XMLID_1128_" fill="#37474F" d="M18,56c-2.757,0-5-2.243-5-5s2.243-5,5-5s5,2.243,5,5S20.757,56,18,56z M18,47
								c-2.206,0-4,1.795-4,4s1.794,4,4,4s4-1.795,4-4S20.206,47,18,47z"/>
						</g>
					</g>
				</g>
			</g>
			<g id="XMLID_1114_">
				<g id="XMLID_1115_">
					<g id="XMLID_1121_">
						<g id="XMLID_1122_">
							<circle id="XMLID_1123_" fill="#84FFFF" cx="18" cy="51" r="2"/>
						</g>
					</g>
					<g id="XMLID_1116_">
						<g id="XMLID_1117_">
							<path id="XMLID_1118_" fill="#37474F" d="M18,53.5c-1.379,0-2.5-1.121-2.5-2.5s1.121-2.5,2.5-2.5c1.378,0,2.5,1.121,2.5,2.5
								S19.378,53.5,18,53.5z M18,49.5c-0.827,0-1.5,0.673-1.5,1.5s0.673,1.5,1.5,1.5s1.5-0.673,1.5-1.5S18.827,49.5,18,49.5z"/>
						</g>
					</g>
				</g>
			</g>
		</g>
		<g id="XMLID_1092_">
			<g id="XMLID_1103_">
				<g id="XMLID_1104_">
					<g id="XMLID_1110_">
						<g id="XMLID_1111_">
							<path id="XMLID_1112_" fill="#ECEFF1" d="M53.5,51c0,2.482-2.018,4.5-4.5,4.5s-4.5-2.018-4.5-4.5s2.018-4.5,4.5-4.5
								S53.5,48.518,53.5,51z"/>
						</g>
					</g>
					<g id="XMLID_1105_">
						<g id="XMLID_1106_">
							<path id="XMLID_1107_" fill="#37474F" d="M49,56c-2.757,0-5-2.243-5-5s2.243-5,5-5s5,2.243,5,5S51.757,56,49,56z M49,47
								c-2.206,0-4,1.795-4,4s1.794,4,4,4s4-1.795,4-4S51.206,47,49,47z"/>
						</g>
					</g>
				</g>
			</g>
			<g id="XMLID_1093_">
				<g id="XMLID_1094_">
					<g id="XMLID_1100_">
						<g id="XMLID_1101_">
							<circle id="XMLID_1102_" fill="#84FFFF" cx="49" cy="51" r="2"/>
						</g>
					</g>
					<g id="XMLID_1095_">
						<g id="XMLID_1096_">
							<path id="XMLID_1097_" fill="#37474F" d="M49,53.5c-1.379,0-2.5-1.121-2.5-2.5s1.121-2.5,2.5-2.5c1.378,0,2.5,1.121,2.5,2.5
								S50.378,53.5,49,53.5z M49,49.5c-0.827,0-1.5,0.673-1.5,1.5s0.673,1.5,1.5,1.5s1.5-0.673,1.5-1.5S49.827,49.5,49,49.5z"/>
						</g>
					</g>
				</g>
			</g>
		</g>
		<g id="XMLID_1089_">
			<g id="XMLID_1090_">
				<rect id="XMLID_1091_" x="6" y="48" fill="#FF5252" width="1" height="2"/>
			</g>
		</g>
		<polygon id="XMLID_1081_" fill="#FFFFFF" points="58,45 55.5,45 54.5,42 58,42 		"/>
		<path id="XMLID_1077_" fill="#37474F" d="M59,45h-3.86l-1.333-4H59V45z M55.86,44H58v-2h-2.807L55.86,44z"/>
		<rect x="15" y="57" fill="#37474F" width="1" height="1"/>
		<rect x="17" y="57" fill="#37474F" width="42" height="1"/>
		<rect x="5" y="55" fill="#37474F" width="44" height="1"/>
	</g>
	<path fill="#18FFFF" d="M41.5,29.5v4c0,1.104,0.896,2,2,2h8.769l-5.015-8H43.5C42.396,27.5,41.5,28.396,41.5,29.5z"/>
	<g>
		<path fill="#84FFFF" d="M46.75,35.5l2.449-4.897L47.254,27.5H46.75l-3.936,7.871C43.029,35.45,43.258,35.5,43.5,35.5H46.75z"/>
		<path fill="#84FFFF" d="M43.75,27.5L41.5,32v1.5c0,0.537,0.214,1.022,0.559,1.382L45.75,27.5H43.75z"/>
	</g>
	<path fill="#37474F" d="M53.172,36H43.5c-1.378,0-2.5-1.121-2.5-2.5v-4c0-1.379,1.122-2.5,2.5-2.5h4.031L53.172,36z M43.5,28
		c-0.827,0-1.5,0.673-1.5,1.5v4c0,0.827,0.673,1.5,1.5,1.5h7.865l-4.388-7H43.5z"/>
	<g>
		<path fill="#FFE57F" d="M39.5,50.5v-26V50.5z"/>
		<rect x="39" y="24.5" fill="#37474F" width="1" height="26"/>
	</g>
	<rect x="6" y="37" fill="#FFFFFF" width="33" height="2"/>
	<rect x="6" y="38" fill="#FF5252" width="33" height="2"/>
	<g>
		<path fill="#18FFFF" d="M32.5,34.5h-4c-0.552,0-1-0.447-1-1v-4c0-0.553,0.448-1,1-1h4c0.552,0,1,0.447,1,1v4
			C33.5,34.053,33.052,34.5,32.5,34.5z"/>
		<path fill="#37474F" d="M32.5,35h-4c-0.827,0-1.5-0.673-1.5-1.5v-4c0-0.827,0.673-1.5,1.5-1.5h4c0.827,0,1.5,0.673,1.5,1.5v4
			C34,34.327,33.327,35,32.5,35z M28.5,29c-0.276,0-0.5,0.225-0.5,0.5v4c0,0.275,0.224,0.5,0.5,0.5h4c0.276,0,0.5-0.225,0.5-0.5v-4
			c0-0.275-0.224-0.5-0.5-0.5H28.5z"/>
	</g>
	<path fill="#37474F" d="M37,51H24V26h13V51z M25,50h11V27H25V50z"/>
	<g>
		<rect x="29.5" y="21.5" fill="#FFFFFF" width="3" height="2"/>
		<path fill="#37474F" d="M33,24h-4v-3h4V24z M30,23h2v-1h-2V23z"/>
	</g>
	<g>
		<rect x="12.5" y="21.5" fill="#FFFFFF" width="3" height="2"/>
		<path fill="#37474F" d="M16,24h-4v-3h4V24z M13,23h2v-1h-2V23z"/>
	</g>
	<g>
		<rect x="34.5" y="21.5" fill="#FF5252" width="3" height="2"/>
		<path fill="#37474F" d="M38,24h-4v-3h4V24z M35,23h2v-1h-2V23z"/>
	</g>
	<g>
		<rect x="7.5" y="21.5" fill="#FF5252" width="3" height="2"/>
		<path fill="#37474F" d="M11,24H7v-3h4V24z M8,23h2v-1H8V23z"/>
	</g>
</g>
</svg>
