<?xml version="1.0" encoding="utf-8"?>
<!-- Generator: Adobe Illustrator 16.0.0, SVG Export Plug-In . SVG Version: 6.00 Build 0)  -->
<!DOCTYPE svg PUBLIC "-//W3C//DTD SVG 1.1//EN" "http://www.w3.org/Graphics/SVG/1.1/DTD/svg11.dtd">
<svg version="1.1" id="_x3C_Layer_x3E_" xmlns="http://www.w3.org/2000/svg" xmlns:xlink="http://www.w3.org/1999/xlink" x="0px"
	 y="0px" width="64px" height="64px" viewBox="0 0 64 64" enable-background="new 0 0 64 64" xml:space="preserve">
<g id="hospital_location">
	<g id="map">
		<g>
			<g>
				<polygon fill="#FFFFFF" points="35,10 6,10 6,52 35,52 47,57.882 58,52.382 58,10.618 47,16.118 				"/>
			</g>
		</g>
		<g>
			<polygon fill="#B2FF59" points="35.59,50.5 7.5,50.5 7.5,11.5 34.41,11.5 47,17.795 56.5,13.045 56.5,51.455 47,56.205 			"/>
		</g>
		<g>
			<polygon fill="#CCFF90" points="35,50 35,12 47,17.795 47,56.205 			"/>
		</g>
		<g>
			<path fill="#FFFFFF" d="M47.646,44.934l9.771-14.657l-0.832-0.555l-9.691,14.537l-11.058-9.215l11.546-7.698l7.06-13.11
				l-0.881-0.474l-6.94,12.89l-11.656,7.771L7.236,19.559l-0.473,0.882L34.296,35.19l-6.43,9.133l-7.094-1.494L20.6,42.7
				l-0.061,0.08l-5.309-1.118l-6.901-6.039l-0.658,0.753l6.621,5.792l-6.666,7.499l0.748,0.664l6.808-7.658l4.7,0.984L14.6,50.7
				l0.801,0.6l5.562-7.416l13.861,2.902l4.256,2.372l0.145,0.29l0.197-0.099l7.509,4.185l8.191-0.548l-0.242-0.97L47.646,44.934z
				 M28.928,44.546l6.17-8.814l10.997,9.162l-6.648,3.324l-4.203-2.342L28.928,44.546z M40.504,48.808l6.397-3.199l6.492,6.493
				l-6.323,0.366L40.504,48.808z"/>
		</g>
		<g>
			<g>
				<g>
					<g>
						<path fill="#FF5252" d="M20.646,33.354C20.232,32.939,10.5,23.114,10.5,15c0-5.79,4.71-10.5,10.5-10.5S31.5,9.21,31.5,15
							c0,8.114-9.732,17.939-10.146,18.354L21,33.707L20.646,33.354z"/>
					</g>
				</g>
				<g>
					<g>
						<path fill="#37474F" d="M47,15L35,9h-3.624c0.188,0.324,0.361,0.658,0.519,1H35l12,6.118l11-5.5v41.764l-11,5.5L35,52H6V10
							h4.105c0.157-0.342,0.33-0.676,0.519-1H5v44h30l12,6l12-6V9L47,15z"/>
					</g>
				</g>
				<g>
					<g>
						<path fill="#37474F" d="M55.553,12.959l-7.658,3.829L47,17.236l-0.895-0.447l-11.366-5.683L34.528,11h-0.236H32.3
							c0.116,0.327,0.218,0.661,0.306,1h1.687l11.366,5.683L47,18.354l1.342-0.671L56,13.854v37.292l-9,4.5l-10.658-5.329L35.708,50
							H35H8V12h1.395c0.088-0.339,0.189-0.673,0.306-1H8H7v1v38v1h1h27h0.472l0.423,0.211l10.658,5.329L47,56.764l0.447-0.224l9-4.5
							L57,51.764v-0.618V13.854v-1.618L55.553,12.959z"/>
					</g>
				</g>
				<g>
					<g>
						<path fill="#37474F" d="M21,5c5.524,0,10,4.475,10,10c0,8-10,18-10,18S11,23,11,15C11,9.475,15.476,5,21,5L21,5z M21,4
							c-6.065,0-11,4.935-11,11c0,8.318,9.873,18.287,10.293,18.707L21,34.414l0.707-0.707C22.127,33.287,32,23.318,32,15
							C32,8.935,27.065,4,21,4L21,4z"/>
					</g>
				</g>
			</g>
		</g>
		<g>
			<g>
				<g>
					<g>
						<path fill="#FFFFFF" d="M21,22.5c-4.136,0-7.5-3.364-7.5-7.5s3.364-7.5,7.5-7.5s7.5,3.364,7.5,7.5S25.136,22.5,21,22.5z"/>
					</g>
				</g>
				<g>
					<g>
						<path fill="#37474F" d="M21,8c3.859,0,7,3.14,7,7s-3.141,7-7,7s-7-3.14-7-7S17.141,8,21,8L21,8z M21,7c-4.42,0-8,3.58-8,8
							s3.58,8,8,8s8-3.58,8-8S25.42,7,21,7L21,7z"/>
					</g>
				</g>
			</g>
		</g>
		<g>
			<g>
				<g>
					<g>
						<rect x="34.5" y="47" fill="#37474F" width="1" height="2"/>
					</g>
				</g>
			</g>
			<g>
				<g>
					<g>
						<rect x="34.5" y="44" fill="#37474F" width="1" height="2"/>
					</g>
				</g>
			</g>
			<g>
				<g>
					<g>
						<rect x="34.5" y="41" fill="#37474F" width="1" height="2"/>
					</g>
				</g>
			</g>
			<g>
				<g>
					<g>
						<rect x="34.5" y="38" fill="#37474F" width="1" height="2"/>
					</g>
				</g>
			</g>
			<g>
				<g>
					<g>
						<rect x="34.5" y="35" fill="#37474F" width="1" height="2"/>
					</g>
				</g>
			</g>
			<g>
				<g>
					<g>
						<rect x="34.5" y="32" fill="#37474F" width="1" height="2"/>
					</g>
				</g>
			</g>
			<g>
				<g>
					<g>
						<rect x="34.5" y="29" fill="#37474F" width="1" height="2"/>
					</g>
				</g>
			</g>
			<g>
				<g>
					<g>
						<rect x="34.5" y="26" fill="#37474F" width="1" height="2"/>
					</g>
				</g>
			</g>
			<g>
				<g>
					<g>
						<rect x="34.5" y="23" fill="#37474F" width="1" height="2"/>
					</g>
				</g>
			</g>
			<g>
				<g>
					<g>
						<rect x="34.5" y="20" fill="#37474F" width="1" height="2"/>
					</g>
				</g>
			</g>
			<g>
				<g>
					<g>
						<rect x="34.5" y="17" fill="#37474F" width="1" height="2"/>
					</g>
				</g>
			</g>
			<g>
				<g>
					<g>
						<rect x="34.5" y="14" fill="#37474F" width="1" height="2"/>
					</g>
				</g>
			</g>
		</g>
		<g>
			<g>
				<g>
					<g>
						<rect x="46.5" y="52" fill="#37474F" width="1" height="2"/>
					</g>
				</g>
			</g>
			<g>
				<g>
					<g>
						<rect x="46.5" y="49" fill="#37474F" width="1" height="2"/>
					</g>
				</g>
			</g>
			<g>
				<g>
					<g>
						<rect x="46.5" y="46" fill="#37474F" width="1" height="2"/>
					</g>
				</g>
			</g>
			<g>
				<g>
					<g>
						<rect x="46.5" y="43" fill="#37474F" width="1" height="2"/>
					</g>
				</g>
			</g>
			<g>
				<g>
					<g>
						<rect x="46.5" y="40" fill="#37474F" width="1" height="2"/>
					</g>
				</g>
			</g>
			<g>
				<g>
					<g>
						<rect x="46.5" y="37" fill="#37474F" width="1" height="2"/>
					</g>
				</g>
			</g>
			<g>
				<g>
					<g>
						<rect x="46.5" y="34" fill="#37474F" width="1" height="2"/>
					</g>
				</g>
			</g>
			<g>
				<g>
					<g>
						<rect x="46.5" y="31" fill="#37474F" width="1" height="2"/>
					</g>
				</g>
			</g>
			<g>
				<g>
					<g>
						<rect x="46.5" y="28" fill="#37474F" width="1" height="2"/>
					</g>
				</g>
			</g>
			<g>
				<g>
					<g>
						<rect x="46.5" y="25" fill="#37474F" width="1" height="2"/>
					</g>
				</g>
			</g>
			<g>
				<g>
					<g>
						<rect x="46.5" y="22" fill="#37474F" width="1" height="2"/>
					</g>
				</g>
			</g>
			<g>
				<g>
					<g>
						<rect x="46.5" y="19" fill="#37474F" width="1" height="2"/>
					</g>
				</g>
			</g>
		</g>
	</g>
	<g>
		<g>
			<rect x="20" y="12" fill="#37474F" width="2" height="6"/>
		</g>
	</g>
	<g>
		<g>
			<rect x="18" y="14" fill="#37474F" width="6" height="2"/>
		</g>
	</g>
	<g>
		<g>
			<ellipse fill="#CFD8DC" cx="21" cy="38" rx="6" ry="2"/>
		</g>
		<g>
			<path fill="#37474F" d="M21,40.5c-3.23,0-6.5-0.859-6.5-2.5c0-3.282,13-3.282,13,0C27.5,39.641,24.23,40.5,21,40.5z M21,36.5
				c-3.559,0-5.5,0.991-5.5,1.5s1.941,1.5,5.5,1.5s5.5-0.991,5.5-1.5S24.559,36.5,21,36.5z"/>
		</g>
	</g>
	<g>
		<g>
			<path fill="#37474F" d="M50,20.5c-0.183,0-0.359-0.101-0.447-0.276c-0.123-0.247-0.023-0.547,0.224-0.671l4-2
				c0.247-0.122,0.547-0.023,0.671,0.224c0.123,0.247,0.023,0.547-0.224,0.671l-4,2C50.151,20.483,50.075,20.5,50,20.5z"/>
		</g>
	</g>
	<g>
		<g>
			<path fill="#37474F" d="M51,23.5c-0.183,0-0.359-0.101-0.447-0.276c-0.123-0.247-0.023-0.547,0.224-0.671l2-1
				c0.248-0.123,0.547-0.024,0.671,0.224c0.123,0.247,0.023,0.547-0.224,0.671l-2,1C51.151,23.483,51.075,23.5,51,23.5z"/>
		</g>
	</g>
</g>
</svg>
