<?xml version="1.0" encoding="utf-8"?>
<!-- Generator: Adobe Illustrator 16.0.0, SVG Export Plug-In . SVG Version: 6.00 Build 0)  -->
<!DOCTYPE svg PUBLIC "-//W3C//DTD SVG 1.1//EN" "http://www.w3.org/Graphics/SVG/1.1/DTD/svg11.dtd">
<svg version="1.1" id="_x3C_Layer_x3E_" xmlns="http://www.w3.org/2000/svg" xmlns:xlink="http://www.w3.org/1999/xlink" x="0px"
	 y="0px" width="64px" height="64px" viewBox="0 0 64 64" enable-background="new 0 0 64 64" xml:space="preserve">
<g id="coronavirus_x2C__covid_19_x2C__news_x2C__virus_x2C__document_2_">
	<g id="algorithm_5_">
		<g id="taxes_3_">
			<g id="algorithm_6_">
				<g id="News__x26__Events_3_">
					<g id="XMLID_2187_">
						<g id="XMLID_2189_">
							<g id="XMLID_2195_">
								<g id="XMLID_2212_">
									<path id="XMLID_2213_" fill="#CFD8DC" d="M46.5,5.5h-37c-2.209,0-4,1.791-4,4v0.998h37V9.5C42.5,7.291,44.291,5.5,46.5,5.5
										z"/>
								</g>
								<g id="XMLID_2196_">
									<path id="XMLID_2198_" fill="#37474F" d="M9.5,5h37v1C44.57,6,43,7.57,43,9.5V11H5V9.5C5,7.019,7.019,5,9.5,5z M43.674,6
										H9.5C7.57,6,6,7.57,6,9.5V10h36V9.5C42,8.088,42.654,6.825,43.674,6z"/>
								</g>
							</g>
						</g>
					</g>
				</g>
			</g>
			<path id="XMLID_2186_" fill="#FFFFFF" d="M13.5,54.498c0,2.209,1.791,4.002,4,4.002h34v-49c0-2.209-1.791-4-4-4h-38
				c2.209,0,4,1.791,4,4V54.498z"/>
			<path id="XMLID_2184_" fill="#ECEFF1" d="M12.6,7C13.154,7.687,13,8.549,13,9.5v44.998C13,56.707,15.291,59,17.5,59H52V9.5
				c0-0.951-0.846-1.813-1.4-2.5H12.6z"/>
			<g id="XMLID_2181_">
				<path id="XMLID_2183_" fill="#37474F" d="M45.041,58H17.5c-1.93,0-3.5-1.571-3.5-3.502V9.5c0-1.412-0.653-2.675-1.675-3.5H47.5
					C49.43,6,51,7.57,51,9.5V54h1V9.5C52,7.019,49.981,5,47.5,5h-38v1C11.43,6,13,7.57,13,9.5v44.998C13,56.98,15.019,59,17.5,59
					h27.541V58z"/>
			</g>
			<path id="XMLID_2180_" fill="#FFFFFF" d="M17.5,58.498h38c2.209,0,4-1.791,4-4V53.5h-38v0.998
				C21.5,56.707,19.709,58.498,17.5,58.498z"/>
			<path id="XMLID_2178_" fill="#CFD8DC" d="M21.449,55c-0.249,1.97-1.912,3-3.949,3h38c2.037,0,3.7-1.03,3.949-3H21.449z"/>
			<path id="XMLID_2174_" fill="#37474F" d="M55.5,58.998h-38v-1c1.93,0,3.5-1.57,3.5-3.5V53h39v1.498
				C60,56.979,57.981,58.998,55.5,58.998z M20.326,57.998H55.5c1.93,0,3.5-1.57,3.5-3.5V54H22v0.498
				C22,55.91,21.346,57.173,20.326,57.998z"/>
		</g>
	</g>
	<g id="XMLID_2139_">
		<g id="XMLID_2153_">
			<g id="XMLID_2169_">
				<path id="XMLID_2172_" fill="#CCFF90" d="M42.381,20.75L35.619,35.25L42.381,20.75z"/>
				
					<rect id="XMLID_2171_" x="38.599" y="20.022" transform="matrix(0.9062 0.4228 -0.4228 0.9062 15.4166 -13.9261)" fill="#37474F" width="1" height="15.531"/>
			</g>
			<g id="XMLID_2166_">
				<path id="XMLID_2168_" fill="#CCFF90" d="M46.518,25.264l-15.035,5.473L46.518,25.264z"/>
				
					<rect id="XMLID_2167_" x="38.771" y="20.757" transform="matrix(0.3419 0.9397 -0.9397 0.3419 52.1213 -18.5025)" fill="#37474F" width="1" height="14.41"/>
			</g>
			<g id="XMLID_2163_">
				<path id="XMLID_2165_" fill="#CCFF90" d="M46.25,31.381l-14.501-6.762L46.25,31.381z"/>
				
					<rect id="XMLID_2164_" x="31" y="27.5" transform="matrix(0.9063 0.4226 -0.4226 0.9063 15.4868 -13.8583)" fill="#37474F" width="16" height="1"/>
			</g>
			<g id="XMLID_2154_">
				<path id="XMLID_2156_" fill="#CCFF90" d="M41.736,35.518l-5.473-15.035L41.736,35.518z"/>
				
					<rect id="XMLID_2155_" x="31.322" y="27.877" transform="matrix(0.325 0.9457 -0.9457 0.325 53.1617 -17.725)" fill="#37474F" width="15.351" height="1"/>
			</g>
		</g>
		<g id="XMLID_2148_">
			<circle id="XMLID_2152_" fill="#FF8A80" cx="39" cy="28" r="5"/>
			<path id="XMLID_2149_" fill="#37474F" d="M39,33.5c-3.032,0-5.5-2.467-5.5-5.5s2.468-5.5,5.5-5.5s5.5,2.467,5.5,5.5
				S42.032,33.5,39,33.5z M39,23.5c-2.481,0-4.5,2.019-4.5,4.5s2.019,4.5,4.5,4.5s4.5-2.019,4.5-4.5S41.481,23.5,39,23.5z"/>
		</g>
		<rect id="XMLID_2147_" x="38" y="26" fill="#37474F" width="1" height="1"/>
		<rect id="XMLID_2146_" x="41" y="28" fill="#37474F" width="1" height="1"/>
		<rect id="XMLID_2143_" x="37" y="29" fill="#37474F" width="1" height="1"/>
	</g>
	<g id="XMLID_2131_">
		<rect id="XMLID_2137_" x="18.5" y="11.5" fill="#CFD8DC" width="28" height="6"/>
		<path id="XMLID_2132_" fill="#37474F" d="M47,18H18v-7h29V18z M19,17h27v-5H19V17z"/>
	</g>
	<g id="XMLID_2128_">
		<path id="XMLID_2130_" fill="#CFD8DC" d="M42,46.5H18H42z"/>
		<rect id="XMLID_2129_" x="18" y="46" fill="#37474F" width="24" height="1"/>
	</g>
	<g id="XMLID_2117_">
		<path id="XMLID_2123_" fill="#CFD8DC" d="M47,43.5H18H47z"/>
		<rect id="XMLID_2120_" x="18" y="43" fill="#37474F" width="29" height="1"/>
	</g>
	<g id="XMLID_2112_">
		<path id="XMLID_2116_" fill="#CFD8DC" d="M47,40.5H18H47z"/>
		<rect id="XMLID_2115_" x="18" y="40" fill="#37474F" width="29" height="1"/>
	</g>
	<g id="XMLID_2102_">
		<path id="XMLID_2104_" fill="#CFD8DC" d="M47,37.5H18H47z"/>
		<rect id="XMLID_2103_" x="18" y="37" fill="#37474F" width="29" height="1"/>
	</g>
	<g id="XMLID_2099_">
		<path id="XMLID_2101_" fill="#CFD8DC" d="M29,34.5H18H29z"/>
		<rect id="XMLID_2100_" x="18" y="34" fill="#37474F" width="11" height="1"/>
	</g>
	<g id="XMLID_2095_">
		<path id="XMLID_2098_" fill="#CFD8DC" d="M29,31.5H18H29z"/>
		<rect id="XMLID_2097_" x="18" y="31" fill="#37474F" width="11" height="1"/>
	</g>
	<g id="XMLID_2090_">
		<path id="XMLID_2093_" fill="#CFD8DC" d="M29,28.5H18H29z"/>
		<rect id="XMLID_2092_" x="18" y="28" fill="#37474F" width="11" height="1"/>
	</g>
	<g id="XMLID_2085_">
		<path id="XMLID_2088_" fill="#CFD8DC" d="M29,25.5H18H29z"/>
		<rect id="XMLID_2087_" x="18" y="25" fill="#37474F" width="11" height="1"/>
	</g>
	<g id="XMLID_2082_">
		<path id="XMLID_2084_" fill="#CFD8DC" d="M29,22.5H18H29z"/>
		<rect id="XMLID_2083_" x="18" y="22" fill="#37474F" width="11" height="1"/>
	</g>
</g>
</svg>
