<?xml version="1.0" encoding="utf-8"?>
<!-- Generator: Adobe Illustrator 16.0.0, SVG Export Plug-In . SVG Version: 6.00 Build 0)  -->
<!DOCTYPE svg PUBLIC "-//W3C//DTD SVG 1.1//EN" "http://www.w3.org/Graphics/SVG/1.1/DTD/svg11.dtd">
<svg version="1.1" id="_x3C_Layer_x3E_" xmlns="http://www.w3.org/2000/svg" xmlns:xlink="http://www.w3.org/1999/xlink" x="0px"
	 y="0px" width="64px" height="64px" viewBox="0 0 64 64" enable-background="new 0 0 64 64" xml:space="preserve">
<g id="oculist_x2C__glasses_x2C__ophthalmology">
	<g>
		<path fill="#CFD8DC" d="M57.799,31.537h-4.536c-1.121-1.853-5.795-8.297-7.456-10.578c-0.324-0.445-0.975-0.58-1.451-0.3
			L40.543,22.9c0,0,0-0.111,0-0.25c0-0.138,0.163-0.402,0.364-0.592l2.846-2.678c1.207-1.135,3.045-1.022,4.105,0.25
			C50.924,23.312,56.695,30.234,57.799,31.537z"/>
		<path fill="#CFD8DC" d="M6.243,31.537h4.536c1.121-1.853,5.795-8.297,7.456-10.578c0.325-0.445,0.975-0.58,1.451-0.3L23.5,22.9
			c0,0,0-0.111,0-0.25c0-0.138-0.163-0.402-0.364-0.592l-2.845-2.678c-1.207-1.135-3.045-1.022-4.105,0.25
			C13.118,23.312,7.347,30.234,6.243,31.537z"/>
		<g id="pencil_glasses_1_">
			<g>
				<g>
					<g>
						<g>
							<path fill="#FFFFFF" d="M45.542,33.52c-9.933,0-9.029,3.42-9.029,5.227c0,4.064,4.044,7.929,9.033,7.929
								c5.42,0,8.13-2.058,8.13-7.929C53.676,35.133,54.579,33.52,45.542,33.52z"/>
							<path fill="#84FFFF" d="M46.542,35.02c-9.933,0-9.029,3.42-9.029,5.227c0,4.064,4.044,7.929,9.033,7.929
								c5.42,0,8.13-2.058,8.13-7.929C54.676,36.633,55.579,35.02,46.542,35.02z"/>
							<path fill="#FFFFFF" d="M18.454,33.52c-9.036,0-8.133,1.613-8.133,5.227c0,5.871,2.71,7.929,8.129,7.929
								c4.989,0,9.033-3.864,9.033-7.929C27.483,36.939,28.387,33.52,18.454,33.52z"/>
							<path fill="#84FFFF" d="M19.454,35.02c-9.036,0-8.133,1.613-8.133,5.227c0,5.871,2.71,7.929,8.129,7.929
								c4.989,0,9.033-3.864,9.033-7.929C28.483,38.439,29.387,35.02,19.454,35.02z"/>
						</g>
						<path fill="#CFD8DC" d="M56.322,31.52c0,0-17.28-0.436-20.258,0.601C34.984,32.496,31,32.491,32,32.491
							s-2.985,0.01-4.064-0.371C25,31.084,7.678,31.52,7.678,31.52H5.956c-0.249,0-0.451,0.203-0.451,0.451v2.109
							c0,0.248,0.202,0.452,0.451,0.452l1.444-0.03c0.055-0.001,0.102,0.043,0.105,0.098c0.344,7.156,0.627,13.882,10.949,13.882
							c8.504,0,11.092-6.993,11.653-11.327c0.086-0.215,0.989-0.619,1.893-0.619s1.807,0.404,1.893,0.619
							C34.454,41.488,37,48.481,45.546,48.481c10.406,0,10.606-6.726,10.949-13.882c0.003-0.055,0.05-0.099,0.105-0.098l1.443,0.031
							c0.249,0,0.451-0.205,0.451-0.453v-2.109c0-0.248-0.202-0.451-0.451-0.451H56.322z M27.483,38.746
							c0,4.064-4.044,7.929-9.033,7.929c-5.419,0-8.129-2.058-8.129-7.929c0-3.613-0.903-5.227,8.133-5.227
							C28.387,33.52,27.483,36.939,27.483,38.746z M53.676,38.746c0,5.871-2.71,7.929-8.13,7.929c-4.989,0-9.033-3.864-9.033-7.929
							c0-1.807-0.903-5.227,9.029-5.227C54.579,33.52,53.676,35.133,53.676,38.746z"/>
						<path fill="#37474F" d="M45.546,48.981c-9.667,0-11.713-8.656-12.126-11.595c-0.218-0.134-0.804-0.352-1.419-0.352
							s-1.201,0.218-1.419,0.352c-0.413,2.938-2.459,11.595-12.126,11.595c-10.604,0-11.095-7.05-11.43-13.972l-1.058,0.022
							c-0.535,0-0.961-0.427-0.961-0.952v-2.109c0-0.524,0.427-0.951,0.951-0.951h1.722c0.023-0.001,3.658-0.091,7.824-0.091
							c7.008,0,11.248,0.242,12.601,0.72C28.59,31.82,30.091,31.963,32,32c1.955-0.04,3.404-0.18,3.9-0.352
							c1.371-0.479,5.615-0.72,12.613-0.72c4.16,0,7.786,0.09,7.822,0.091h1.708c0.524,0,0.951,0.427,0.951,0.951v2.109
							c0,0.525-0.427,0.953-0.951,0.953l-1.067-0.023C56.646,41.904,56.236,48.981,45.546,48.981z M32,36.035
							c0.828,0,2.125,0.355,2.357,0.934l0.032,0.121c0.424,3.275,2.36,10.892,11.157,10.892c9.81,0,10.101-6.098,10.438-13.159
							l0.012-0.246c0.017-0.323,0.282-0.574,0.603-0.574l1.456,0.031l-0.06-2.063l-1.672,0.049c-0.049-0.001-3.663-0.091-7.81-0.091
							c-6.692,0-11.054,0.235-12.284,0.663C35.56,32.826,33.042,33,32,33s-3.435-0.127-4.231-0.408
							c-1.211-0.428-5.567-0.663-12.268-0.663c-4.153,0-7.775,0.09-7.811,0.091H5.956l0.049,2.061l1.385-0.078l0,0
							c0.332,0,0.598,0.251,0.615,0.572c0.348,7.234,0.645,13.407,10.45,13.407c9.043,0,10.827-8.337,11.157-10.892l0.032-0.121
							C29.875,36.391,31.172,36.035,32,36.035z M45.546,47.175c-5.079,0-9.533-3.938-9.533-8.429c0-0.127-0.005-0.262-0.01-0.404
							c-0.032-0.922-0.075-2.184,0.97-3.266c1.337-1.384,4.14-2.057,8.569-2.057c4.633,0,6.84,0.411,7.871,1.466
							c0.834,0.853,0.807,2.019,0.776,3.37c-0.006,0.281-0.013,0.578-0.013,0.891C54.176,44.575,51.514,47.175,45.546,47.175z
							 M45.542,34.02c-4.085,0-6.727,0.59-7.85,1.752c-0.75,0.776-0.718,1.711-0.689,2.536c0.005,0.153,0.01,0.301,0.01,0.438
							c0,3.957,3.987,7.429,8.533,7.429c5.419,0,7.63-2.152,7.63-7.429c0-0.32,0.007-0.625,0.014-0.914
							c0.028-1.217,0.048-2.096-0.491-2.648C51.9,34.367,49.76,34.02,45.542,34.02z M18.45,47.175c-5.968,0-8.629-2.6-8.629-8.429
							c0-0.313-0.007-0.609-0.013-0.891c-0.031-1.352-0.058-2.518,0.776-3.37c1.031-1.055,3.237-1.466,7.87-1.466
							c4.429,0,7.232,0.673,8.569,2.057c1.045,1.082,1.002,2.344,0.97,3.266c-0.005,0.143-0.01,0.277-0.01,0.404
							C27.983,43.236,23.529,47.175,18.45,47.175z M18.454,34.02c-4.217,0-6.357,0.348-7.155,1.164
							c-0.54,0.553-0.519,1.432-0.491,2.648c0.007,0.289,0.014,0.594,0.014,0.914c0,5.276,2.21,7.429,7.629,7.429
							c4.546,0,8.533-3.472,8.533-7.429c0-0.138,0.005-0.285,0.01-0.438c0.028-0.825,0.061-1.76-0.689-2.536
							C25.181,34.609,22.54,34.02,18.454,34.02z"/>
					</g>
				</g>
			</g>
		</g>
		<path fill="#37474F" d="M23.479,21.693l-2.845-2.676c-0.63-0.594-1.441-0.92-2.283-0.92c-0.978,0-1.907,0.443-2.55,1.213
			c-3.066,3.68-8.835,10.602-9.939,11.903c-0.126,0.148-0.154,0.339-0.072,0.515C5.872,31.905,7.317,31,7.317,31
			c1.934-2,6.602-7.887,9.252-11.067c0.841-1.009,2.42-1.098,3.378-0.196l1.381,1.304l-1.39-0.814
			c-0.678-0.398-1.648-0.192-2.109,0.438c-1.56,2.143-4.915,6.774-6.646,9.336h1.21c1.789-2.607,4.795-6.754,6.245-8.746
			c0.166-0.227,0.547-0.309,0.793-0.164l3.813,2.242c0.153,0.09,0.346,0.091,0.502,0.002C23.903,23.245,24,23.08,24,22.9v-0.25
			C24,22.307,23.719,21.921,23.479,21.693z"/>
		<path fill="#37474F" d="M58.11,31.131c-1.259-1.491-6.863-8.213-9.868-11.819c-0.643-0.771-1.572-1.214-2.55-1.214
			c-0.842,0-1.652,0.326-2.283,0.92l-2.867,2.677C40.488,21.744,40,22.199,40,22.652V22.9c0,0.18,0.118,0.345,0.273,0.434
			c0.157,0.09,0.359,0.088,0.513-0.002l3.817-2.242c0.247-0.146,0.63-0.064,0.796,0.164c1.144,1.569,4.364,6.002,6.248,8.746h1.21
			c-1.732-2.565-5.088-7.195-6.647-9.334c-0.458-0.633-1.43-0.836-2.109-0.438l-1.388,0.815l1.381-1.298
			c0.959-0.902,2.538-0.822,3.378,0.188C50.123,23.112,54.791,29,56.725,31c0,0,1.594,0.795,1.594,0.519
			C58.319,31.352,58.236,31.221,58.11,31.131z"/>
	</g>
</g>
</svg>
