<?xml version="1.0" encoding="utf-8"?>
<!-- Generator: Adobe Illustrator 16.0.0, SVG Export Plug-In . SVG Version: 6.00 Build 0)  -->
<!DOCTYPE svg PUBLIC "-//W3C//DTD SVG 1.1//EN" "http://www.w3.org/Graphics/SVG/1.1/DTD/svg11.dtd">
<svg version="1.1" id="_x3C_Layer_x3E_" xmlns="http://www.w3.org/2000/svg" xmlns:xlink="http://www.w3.org/1999/xlink" x="0px"
	 y="0px" width="64px" height="64px" viewBox="0 0 64 64" enable-background="new 0 0 64 64" xml:space="preserve">
<g id="medical_case">
	<g>
		<g>
			<g>
				<rect x="46.5" y="13.5" fill="#CFD8DC" width="6" height="7"/>
			</g>
		</g>
		<g>
			<g>
				<g>
					<path fill="#37474F" d="M52,14v6h-5v-6H52L52,14z M52.99,13h-6.98C46.005,13,46,13.004,46,13.01v7.98
						c0,0.005,0.005,0.01,0.01,0.01h6.98c0.005,0,0.01-0.004,0.01-0.01v-7.98C53,13.004,52.995,13,52.99,13L52.99,13z"/>
				</g>
			</g>
		</g>
	</g>
	<g>
		<g>
			<g>
				<rect x="11.5" y="13.5" fill="#CFD8DC" width="6" height="7"/>
			</g>
		</g>
		<g>
			<g>
				<g>
					<path fill="#37474F" d="M17,14v6h-5v-6H17L17,14z M17.99,13h-6.98C11.005,13,11,13.004,11,13.01v7.98
						c0,0.005,0.005,0.01,0.01,0.01h6.98c0.005,0,0.01-0.004,0.01-0.01v-7.98C18,13.004,17.995,13,17.99,13L17.99,13z"/>
				</g>
			</g>
		</g>
	</g>
	<g>
		<g>
			<path fill="#37474F" d="M52,57c0,0.55-0.45,1-1,1h-3c-0.55,0-1-0.45-1-1v-1c0-0.55,0.45-1,1-1h3c0.55,0,1,0.45,1,1V57z"/>
		</g>
	</g>
	<g>
		<g>
			<path fill="#37474F" d="M18,57c0,0.55-0.45,1-1,1h-3c-0.55,0-1-0.45-1-1v-1c0-0.55,0.45-1,1-1h3c0.55,0,1,0.45,1,1V57z"/>
		</g>
	</g>
	<g>
		<g>
			<path fill="#ECEFF1" d="M36.5,8h-9C24.75,8,23,9.75,23,12.5v9c0,1.622,0,3.055,1,3.97V13.5c0-1.65,1.85-3.5,3.5-3.5h9
				c1.65,0,3.5,1.85,3.5,3.5v11.97c1-0.47,1-2.349,1-3.97v-9C41,9.75,39.25,8,36.5,8z"/>
		</g>
		<g>
			<path fill="#37474F" d="M39,26.478V13.5c0-1.378-1.121-2.5-2.5-2.5h-9c-1.379,0-2.5,1.122-2.5,2.5v12.978l-0.803-0.609
				C22.801,24.808,22,23.216,22,21.5v-9C22,9.467,24.468,7,27.5,7h9c3.032,0,5.5,2.467,5.5,5.5v9c0,1.716-0.801,3.308-2.197,4.369
				L39,26.478z M27.5,10h9c1.93,0,3.5,1.57,3.5,3.5v10.798c0.645-0.791,1-1.768,1-2.798v-9c0-2.481-2.019-4.5-4.5-4.5h-9
				c-2.481,0-4.5,2.019-4.5,4.5v9c0,1.031,0.355,2.008,1,2.798V13.5C24,11.57,25.57,10,27.5,10z"/>
		</g>
	</g>
	<g>
		<g>
			<g>
				<path fill="#ECEFF1" d="M58,20c0-2.761-1.238-4-4-4H10c-2.762,0-4,2.239-4,5v30c0,2.761,2.238,6,5,6h42c2.762,0,5-2.239,5-5V20z
					"/>
			</g>
		</g>
		<g>
			<g>
				<path fill="#37474F" d="M53.5,57h-43C7.468,57,5,54.533,5,51.5v-31c0-3.033,2.468-5.5,5.5-5.5h43c3.032,0,5.5,2.467,5.5,5.5v31
					C59,54.533,56.532,57,53.5,57z M10.5,16C8.019,16,6,18.019,6,20.5v31c0,2.481,2.019,4.5,4.5,4.5h43c2.481,0,4.5-2.019,4.5-4.5
					v-31c0-2.481-2.019-4.5-4.5-4.5H10.5z"/>
			</g>
		</g>
	</g>
	<g>
		<g>
			<circle fill="#FF5252" cx="32" cy="35" r="11.5"/>
		</g>
		<g>
			<path fill="#37474F" d="M32,47c-6.617,0-12-5.383-12-12s5.383-12,12-12s12,5.383,12,12S38.617,47,32,47z M32,24
				c-6.065,0-11,4.935-11,11s4.935,11,11,11s11-4.935,11-11S38.065,24,32,24z"/>
		</g>
	</g>
	<g>
		<g>
			<path fill="#37474F" d="M35,43h-6V27h6V43z M30,42h4V28h-4V42z"/>
		</g>
	</g>
	<g>
		<g>
			<polygon fill="#FFFFFF" points="39,33 34,33 34,28 29,28 29,33 24,33 24,38 29,38 29,43 34,43 34,38 39,38 			"/>
		</g>
		<g>
			<path fill="#37474F" d="M35,43h-6v-5h-5v-6h5v-5h6v5h5v6h-5V43z M30,42h4v-5h5v-4h-5v-5h-4v5h-5v4h5V42z"/>
		</g>
	</g>
	<g>
		<g>
			<g>
				<path fill="#FFFFFF" d="M54,51V21c0-0.552-0.447-1-1-1v32C53.553,52,54,51.552,54,51z"/>
			</g>
		</g>
		<g>
			<g>
				<path fill="#CFD8DC" d="M53,20c-0.553,0-1,0.448-1,1v30c0,0.552,0.447,1,1,1V20z"/>
			</g>
		</g>
	</g>
	<g>
		<g>
			<g>
				<path fill="#FFFFFF" d="M49,51V21c0-0.552-0.447-1-1-1v32C48.553,52,49,51.552,49,51z"/>
			</g>
		</g>
		<g>
			<g>
				<path fill="#CFD8DC" d="M48,20c-0.553,0-1,0.448-1,1v30c0,0.552,0.447,1,1,1V20z"/>
			</g>
		</g>
	</g>
	<g>
		<g>
			<g>
				<path fill="#FFFFFF" d="M17,51V21c0-0.552-0.447-1-1-1v32C16.553,52,17,51.552,17,51z"/>
			</g>
		</g>
		<g>
			<g>
				<path fill="#CFD8DC" d="M16,20c-0.553,0-1,0.448-1,1v30c0,0.552,0.447,1,1,1V20z"/>
			</g>
		</g>
	</g>
	<g>
		<g>
			<g>
				<path fill="#FFFFFF" d="M12,51V21c0-0.552-0.447-1-1-1v32C11.553,52,12,51.552,12,51z"/>
			</g>
		</g>
		<g>
			<g>
				<path fill="#CFD8DC" d="M11,20c-0.553,0-1,0.448-1,1v30c0,0.552,0.447,1,1,1V20z"/>
			</g>
		</g>
	</g>
	<g>
		<g>
			<path fill="#37474F" d="M11,55h42H11z"/>
		</g>
		<g>
			<path fill="#37474F" d="M53,55H11c-0.276,0-0.5-0.224-0.5-0.5S10.724,54,11,54h42c0.276,0,0.5,0.224,0.5,0.5S53.276,55,53,55z"/>
		</g>
	</g>
</g>
</svg>
