<?xml version="1.0" encoding="utf-8"?>
<!-- Generator: Adobe Illustrator 16.0.0, SVG Export Plug-In . SVG Version: 6.00 Build 0)  -->
<!DOCTYPE svg PUBLIC "-//W3C//DTD SVG 1.1//EN" "http://www.w3.org/Graphics/SVG/1.1/DTD/svg11.dtd">
<svg version="1.1" id="_x3C_Layer_x3E_" xmlns="http://www.w3.org/2000/svg" xmlns:xlink="http://www.w3.org/1999/xlink" x="0px"
	 y="0px" width="64px" height="64px" viewBox="0 0 64 64" enable-background="new 0 0 64 64" xml:space="preserve">
<g id="phonendoscope">
	<g>
		<g>
			<g>
				<g>
					<g>
						<circle fill="#ECEFF1" cx="53" cy="53" r="5.5"/>
					</g>
				</g>
				<g>
					<g>
						<path fill="#37474F" d="M53,59c-3.309,0-6-2.691-6-6s2.691-6,6-6s6,2.691,6,6S56.309,59,53,59z M53,48c-2.757,0-5,2.243-5,5
							s2.243,5,5,5s5-2.243,5-5S55.757,48,53,48z"/>
					</g>
				</g>
			</g>
		</g>
		<g>
			<g>
				<g>
					<path fill="#18FFFF" d="M30.5,59C24.159,59,19,53.617,19,47v-6h2v6c0,5.514,4.262,10,9.5,10S40,52.514,40,47V33
						c0-3.86,3.141-7,7-7s7,3.14,7,7v19h-2V33c0-2.757-2.243-5-5-5s-5,2.243-5,5v14C42,53.617,36.841,59,30.5,59z"/>
				</g>
				<g>
					<path fill="#37474F" d="M30.5,59.5c-6.617,0-12-5.607-12-12.5v-6.5h3V47c0,5.238,4.037,9.5,9,9.5s9-4.262,9-9.5V33
						c0-4.136,3.364-7.5,7.5-7.5s7.5,3.364,7.5,7.5v19.5h-3V33c0-2.481-2.019-4.5-4.5-4.5s-4.5,2.019-4.5,4.5v14
						C42.5,53.893,37.117,59.5,30.5,59.5z M19.5,41.5V47c0,6.341,4.935,11.5,11,11.5s11-5.159,11-11.5V33c0-3.033,2.468-5.5,5.5-5.5
						s5.5,2.467,5.5,5.5v18.5h1V33c0-3.584-2.916-6.5-6.5-6.5s-6.5,2.916-6.5,6.5v14c0,5.79-4.486,10.5-10,10.5s-10-4.71-10-10.5
						v-5.5H19.5z"/>
				</g>
			</g>
		</g>
		<g>
			<g>
				<g>
					<circle fill="#18FFFF" cx="53" cy="53" r="2.5"/>
				</g>
			</g>
			<g>
				<g>
					<path fill="#37474F" d="M53,56c-1.654,0-3-1.346-3-3s1.346-3,3-3s3,1.346,3,3S54.654,56,53,56z M53,51c-1.103,0-2,0.897-2,2
						s0.897,2,2,2s2-0.897,2-2S54.103,51,53,51z"/>
				</g>
			</g>
		</g>
	</g>
	<g>
		<g>
			<g>
				<g>
					<path fill="#ECEFF1" d="M20,41.5c-7.995,0-14.5-6.729-14.5-15v-15c0-2.757,2.243-5,5-5h2v2h-2c-1.654,0-3,1.346-3,3v15
						c0,7.168,5.607,13,12.5,13s12.5-5.832,12.5-13v-15c0-1.654-1.346-3-3-3h-2v-2h2c2.757,0,5,2.243,5,5v15
						C34.5,34.771,27.995,41.5,20,41.5z"/>
				</g>
			</g>
		</g>
		<g>
			<g>
				<g>
					<path fill="#37474F" d="M20,35.125c7.168,0,13-6.056,13-13.5V19h-1v2.625c0,6.893-5.383,12.5-12,12.5s-12-5.607-12-12.5V19H7
						v2.625C7,29.069,12.832,35.125,20,35.125z"/>
				</g>
			</g>
		</g>
		<g>
			<g>
				<g>
					<path fill="#37474F" d="M29.5,7c2.481,0,4.5,2.019,4.5,4.5v15C34,34.495,27.72,41,20,41S6,34.495,6,26.5v-15
						C6,9.019,8.019,7,10.5,7H12v1h-1.5C8.57,8,7,9.57,7,11.5v15C7,33.944,12.832,40,20,40s13-6.056,13-13.5v-15
						C33,9.57,31.43,8,29.5,8H28V7H29.5L29.5,7z M29.5,6H28h-1v1v1v1h1h1.5c1.379,0,2.5,1.122,2.5,2.5v15C32,33.393,26.617,39,20,39
						S8,33.393,8,26.5v-15C8,10.122,9.121,9,10.5,9H12h1V8V7V6h-1h-1.5C7.467,6,5,8.467,5,11.5v15C5,35.047,11.729,42,20,42
						s15-6.953,15-15.5v-15C35,8.467,32.533,6,29.5,6L29.5,6z"/>
				</g>
			</g>
		</g>
	</g>
	<g>
		<g>
			<g>
				<g>
					<path fill="#84FFFF" d="M28.5,7.5c0,1.1-0.9,2-2,2l0,0c-1.1,0-2-0.9-2-2l0,0c0-1.1,0.9-2,2-2l0,0C27.6,5.5,28.5,6.4,28.5,7.5
						L28.5,7.5z"/>
				</g>
			</g>
		</g>
		<g>
			<g>
				<g>
					<path fill="#37474F" d="M26.5,10C25.121,10,24,8.878,24,7.5S25.121,5,26.5,5S29,6.122,29,7.5S27.879,10,26.5,10z M26.5,6
						C25.673,6,25,6.673,25,7.5S25.673,9,26.5,9S28,8.327,28,7.5S27.327,6,26.5,6z"/>
				</g>
			</g>
		</g>
	</g>
	<g>
		<g>
			<g>
				<g>
					<path fill="#84FFFF" d="M14.5,7.5c0,1.1-0.9,2-2,2l0,0c-1.1,0-2-0.9-2-2l0,0c0-1.1,0.9-2,2-2l0,0C13.6,5.5,14.5,6.4,14.5,7.5
						L14.5,7.5z"/>
				</g>
			</g>
		</g>
		<g>
			<g>
				<g>
					<path fill="#37474F" d="M12.5,10C11.121,10,10,8.878,10,7.5S11.121,5,12.5,5S15,6.122,15,7.5S13.879,10,12.5,10z M12.5,6
						C11.673,6,11,6.673,11,7.5S11.673,9,12.5,9S14,8.327,14,7.5S13.327,6,12.5,6z"/>
				</g>
			</g>
		</g>
	</g>
	<g>
		<g>
			<g>
				<g>
					<path fill="#18FFFF" d="M20,42c-8.271,0-15-6.953-15-15.5v-1h3v1C8,33.393,13.383,39,20,39s12-5.607,12-12.5v-1h3v1
						C35,35.047,28.271,42,20,42z"/>
				</g>
			</g>
		</g>
		<g>
			<g>
				<g>
					<path fill="#37474F" d="M34.5,26v0.5c0,8.271-6.505,15-14.5,15s-14.5-6.729-14.5-15V26h2v0.5c0,7.168,5.607,13,12.5,13
						s12.5-5.832,12.5-13V26H34.5L34.5,26z M35.5,25h-1h-2h-1v1v0.5c0,6.617-5.159,12-11.5,12s-11.5-5.383-11.5-12V26v-1h-1h-2h-1v1
						v0.5c0,8.822,6.953,16,15.5,16s15.5-7.178,15.5-16V26V25L35.5,25z"/>
				</g>
			</g>
		</g>
	</g>
</g>
</svg>
