<?xml version="1.0" encoding="utf-8"?>
<!-- Generator: Adobe Illustrator 16.0.0, SVG Export Plug-In . SVG Version: 6.00 Build 0)  -->
<!DOCTYPE svg PUBLIC "-//W3C//DTD SVG 1.1//EN" "http://www.w3.org/Graphics/SVG/1.1/DTD/svg11.dtd">
<svg version="1.1" id="_x3C_Layer_x3E_" xmlns="http://www.w3.org/2000/svg" xmlns:xlink="http://www.w3.org/1999/xlink" x="0px"
	 y="0px" width="64px" height="64px" viewBox="0 0 64 64" enable-background="new 0 0 64 64" xml:space="preserve">
<g id="wheelchair">
	<g>
		<g>
			<path fill="#18FFFF" d="M31.942,29c2.2,1.854,3.911,4.26,4.947,7H46v-7H31.942z"/>
		</g>
		<g>
			<g>
				<path fill="#37474F" d="M21,55.5c-7.444,0-13.5-6.056-13.5-13.5S13.556,28.5,21,28.5S34.5,34.556,34.5,42S28.444,55.5,21,55.5z
					 M21,29.5c-6.893,0-12.5,5.607-12.5,12.5S14.107,54.5,21,54.5S33.5,48.893,33.5,42S27.893,29.5,21,29.5z"/>
			</g>
		</g>
		<g>
			<g>
				<circle fill="#18FFFF" cx="21" cy="42" r="1.5"/>
			</g>
			<g>
				<path fill="#37474F" d="M21,44c-1.103,0-2-0.897-2-2s0.897-2,2-2s2,0.897,2,2S22.103,44,21,44z M21,41c-0.552,0-1,0.449-1,1
					s0.448,1,1,1s1-0.449,1-1S21.552,41,21,41z"/>
			</g>
		</g>
	</g>
	<g>
		<g>
			<path fill="#CFD8DC" d="M21,26.5c-8.56,0-15.5,6.939-15.5,15.5S12.44,57.5,21,57.5S36.5,50.561,36.5,42S29.56,26.5,21,26.5z
				 M21,55c-7.178,0-13-5.821-13-13s5.822-13,13-13s13,5.821,13,13S28.178,55,21,55z"/>
		</g>
		<g>
			<path fill="#37474F" d="M21,58c-8.822,0-16-7.178-16-16s7.178-16,16-16s16,7.178,16,16S29.822,58,21,58z M21,27
				c-8.271,0-15,6.729-15,15s6.729,15,15,15s15-6.729,15-15S29.271,27,21,27z M21,55.5c-7.444,0-13.5-6.056-13.5-13.5
				S13.556,28.5,21,28.5S34.5,34.556,34.5,42S28.444,55.5,21,55.5z M21,29.5c-6.893,0-12.5,5.607-12.5,12.5S14.107,54.5,21,54.5
				S33.5,48.893,33.5,42S27.893,29.5,21,29.5z"/>
		</g>
	</g>
	<g>
		<g>
			<g>
				<path fill="#37474F" d="M58.922,49.756l-5.109,0.813L47.835,36H47v-8v-1.5c0-2.481-2.019-4.5-4.5-4.5H21.775l-2.602-11.657
					C18.881,9.029,17.597,8,16.25,8H9v1h7.25c0.867,0,1.759,0.715,1.947,1.561l3.229,14.46c0.348,0.009,0.693,0.023,1.036,0.052
					L21.999,23H42.5c1.93,0,3.5,1.57,3.5,3.5V28H30.633c0.453,0.313,0.89,0.646,1.31,1H46v7h-9.11c0.125,0.331,0.255,0.66,0.36,1H46
					v10c0.342,0,0.674,0.035,1,0.09V37h0.165l6.022,14.681l5.891-0.938L58.922,49.756z"/>
			</g>
			<g>
				<circle fill="#CFD8DC" cx="46" cy="53" r="4.5"/>
			</g>
			<g>
				<path fill="#37474F" d="M46,58c-2.757,0-5-2.243-5-5s2.243-5,5-5s5,2.243,5,5S48.757,58,46,58z M46,49c-2.206,0-4,1.794-4,4
					s1.794,4,4,4s4-1.794,4-4S48.206,49,46,49z"/>
			</g>
		</g>
		<g>
			<g>
				<circle fill="#FFFFFF" cx="46" cy="53" r="2.5"/>
			</g>
			<g>
				<path fill="#37474F" d="M46,56c-1.654,0-3-1.346-3-3s1.346-3,3-3s3,1.346,3,3S47.654,56,46,56z M46,51c-1.103,0-2,0.897-2,2
					s0.897,2,2,2s2-0.897,2-2S47.103,51,46,51z"/>
			</g>
		</g>
	</g>
	<g>
		<g>
			<path fill="#18FFFF" d="M24.5,22.5v-1c0-0.552,0.447-1,1-1h16c0.553,0,1,0.448,1,1v1H24.5z"/>
		</g>
		<g>
			<path fill="#37474F" d="M43,23H24v-1.5c0-0.827,0.673-1.5,1.5-1.5h16c0.827,0,1.5,0.673,1.5,1.5V23z M25,22h17v-0.5
				c0-0.276-0.225-0.5-0.5-0.5h-16c-0.275,0-0.5,0.224-0.5,0.5V22z"/>
		</g>
	</g>
	<g>
		<g>
			<path fill="#18FFFF" d="M7.5,7.5c-0.553,0-1,0.448-1,1l0,0c0,0.552,0.447,1,1,1h8v-2H7.5z"/>
		</g>
		<g>
			<path fill="#37474F" d="M16,10H7.5C6.673,10,6,9.327,6,8.5S6.673,7,7.5,7H16V10z M7.5,8C7.225,8,7,8.224,7,8.5S7.225,9,7.5,9H15
				V8H7.5z"/>
		</g>
	</g>
	<g>
		<g>
			<g>
				
					<rect x="24" y="31.938" transform="matrix(0.8658 0.5003 -0.5003 0.8658 21.2685 -7.4365)" fill="#37474F" width="0.999" height="8"/>
			</g>
		</g>
		<g>
			<g>
				
					<rect x="17" y="44.062" transform="matrix(0.8658 0.5003 -0.5003 0.8658 26.3955 -2.3074)" fill="#37474F" width="0.999" height="8"/>
			</g>
		</g>
		<g>
			<g>
				
					<rect x="26.562" y="34.5" transform="matrix(0.4999 0.8661 -0.8661 0.4999 46.8769 -4.1846)" fill="#37474F" width="1" height="8"/>
			</g>
		</g>
		<g>
			<g>
				
					<rect x="14.438" y="41.5" transform="matrix(0.4999 0.8661 -0.8661 0.4999 46.8765 9.8163)" fill="#37474F" width="1" height="8"/>
			</g>
		</g>
		<g>
			<g>
				<rect x="24" y="41.5" fill="#37474F" width="8" height="1"/>
			</g>
		</g>
		<g>
			<g>
				<rect x="10" y="41.5" fill="#37474F" width="8" height="1"/>
			</g>
		</g>
		<g>
			<g>
				<rect x="23.062" y="45" transform="matrix(0.866 0.5 -0.5 0.866 26.3739 -7.4351)" fill="#37474F" width="8" height="1"/>
			</g>
		</g>
		<g>
			<g>
				<rect x="10.938" y="38" transform="matrix(0.866 0.5 -0.5 0.866 21.25 -2.3112)" fill="#37474F" width="8" height="1"/>
			</g>
		</g>
		<g>
			<g>
				<rect x="20.5" y="47.563" transform="matrix(0.5 0.866 -0.866 0.5 53.8732 2.8135)" fill="#37474F" width="8" height="0.999"/>
			</g>
		</g>
		<g>
			<g>
				<rect x="13.5" y="35.438" transform="matrix(0.5 0.866 -0.866 0.5 39.873 2.8135)" fill="#37474F" width="8" height="0.999"/>
			</g>
		</g>
		<g>
			<g>
				<rect x="20.5" y="45" fill="#37474F" width="1" height="8"/>
			</g>
		</g>
		<g>
			<g>
				<rect x="20.5" y="31" fill="#37474F" width="1" height="8"/>
			</g>
		</g>
	</g>
</g>
</svg>
