<?xml version="1.0" encoding="utf-8"?>
<!-- Generator: Adobe Illustrator 16.0.0, SVG Export Plug-In . SVG Version: 6.00 Build 0)  -->
<!DOCTYPE svg PUBLIC "-//W3C//DTD SVG 1.1//EN" "http://www.w3.org/Graphics/SVG/1.1/DTD/svg11.dtd">
<svg version="1.1" id="_x3C_Layer_x3E_" xmlns="http://www.w3.org/2000/svg" xmlns:xlink="http://www.w3.org/1999/xlink" x="0px"
	 y="0px" width="64px" height="64px" viewBox="0 0 64 64" enable-background="new 0 0 64 64" xml:space="preserve">
<g id="infection_x2C__spread_x2C__society_1_">
	<g id="XMLID_3765_">
		<g id="XMLID_3776_">
			<circle fill="#FFD740" cx="42.5" cy="31.5" r="8"/>
		</g>
		<g id="XMLID_3772_">
			<g id="XMLID_3775_">
				<path fill="#ECEFF1" d="M48.654,36.609c-0.195-0.13-0.402-0.245-0.629-0.328L44.5,35v-2.279c0.609-0.549,1-1.336,1-2.221v-0.986
					c0-1.656-1.343-3-3-3s-3,1.344-3,3V30.5c0,0.885,0.391,1.672,1,2.221V35l-3.525,1.281c-0.227,0.083-0.434,0.198-0.629,0.328
					c1.467,1.766,3.679,2.891,6.154,2.891S47.188,38.375,48.654,36.609z"/>
			</g>
			<g id="XMLID_3773_">
				<path id="XMLID_3774_" fill="#37474F" d="M42.5,34c-0.165,0-0.328-0.012-0.487-0.033l0.139-0.99
					C42.266,32.992,42.382,33,42.5,33c1.379,0,2.5-1.121,2.5-2.5v-0.986c0-1.378-1.121-2.5-2.5-2.5s-2.5,1.122-2.5,2.5V30.5h-1
					v-0.986c0-1.93,1.57-3.5,3.5-3.5s3.5,1.57,3.5,3.5V30.5C46,32.43,44.43,34,42.5,34z"/>
			</g>
		</g>
		<g id="XMLID_3770_">
			<path id="XMLID_3771_" fill="#37474F" d="M48.378,37.025c-0.19-0.126-0.356-0.213-0.523-0.273L44,35.35v-2.852l0.165-0.148
				C44.703,31.865,45,31.208,45,30.5v-0.986c0-1.378-1.121-2.5-2.5-2.5s-2.5,1.122-2.5,2.5V30.5c0,0.708,0.297,1.365,0.835,1.85
				L41,32.498v2.852l-3.854,1.402c-0.167,0.061-0.333,0.147-0.523,0.273l-0.553-0.834c0.255-0.168,0.495-0.293,0.734-0.379L40,34.65
				v-1.717c-0.638-0.654-1-1.528-1-2.434v-0.986c0-1.93,1.57-3.5,3.5-3.5s3.5,1.57,3.5,3.5V30.5c0,0.905-0.362,1.779-1,2.434v1.717
				l3.196,1.162c0.239,0.086,0.479,0.211,0.734,0.379L48.378,37.025z"/>
		</g>
		<g id="XMLID_3766_">
			<path id="XMLID_3767_" fill="#37474F" d="M42.5,40c-4.687,0-8.5-3.813-8.5-8.5s3.813-8.5,8.5-8.5s8.5,3.813,8.5,8.5
				S47.187,40,42.5,40z M42.5,24c-4.136,0-7.5,3.364-7.5,7.5s3.364,7.5,7.5,7.5s7.5-3.364,7.5-7.5S46.636,24,42.5,24z"/>
		</g>
	</g>
	<g id="XMLID_3753_">
		<g id="XMLID_3764_">
			<circle fill="#FFD740" cx="52.5" cy="50.5" r="8"/>
		</g>
		<g id="XMLID_3760_">
			<g id="XMLID_3763_">
				<path fill="#ECEFF1" d="M58.654,55.609c-0.195-0.13-0.402-0.245-0.629-0.328L54.5,54v-2.279c0.609-0.549,1-1.336,1-2.221v-0.986
					c0-1.656-1.343-3-3-3s-3,1.344-3,3V49.5c0,0.885,0.391,1.672,1,2.221V54l-3.525,1.281c-0.227,0.083-0.434,0.198-0.629,0.328
					c1.467,1.766,3.679,2.891,6.154,2.891S57.188,57.375,58.654,55.609z"/>
			</g>
			<g id="XMLID_3761_">
				<path id="XMLID_3762_" fill="#37474F" d="M52.5,53c-0.165,0-0.328-0.012-0.487-0.033l0.139-0.99
					C52.266,51.992,52.382,52,52.5,52c1.379,0,2.5-1.121,2.5-2.5v-0.986c0-1.378-1.121-2.5-2.5-2.5s-2.5,1.122-2.5,2.5V49.5h-1
					v-0.986c0-1.93,1.57-3.5,3.5-3.5s3.5,1.57,3.5,3.5V49.5C56,51.43,54.43,53,52.5,53z"/>
			</g>
		</g>
		<g id="XMLID_3758_">
			<path id="XMLID_3759_" fill="#37474F" d="M58.378,56.025c-0.19-0.126-0.356-0.213-0.523-0.273L54,54.35v-2.852l0.165-0.148
				C54.703,50.865,55,50.208,55,49.5v-0.986c0-1.378-1.121-2.5-2.5-2.5s-2.5,1.122-2.5,2.5V49.5c0,0.708,0.297,1.365,0.835,1.85
				L51,51.498v2.852l-3.854,1.402c-0.167,0.061-0.333,0.147-0.523,0.273l-0.553-0.834c0.255-0.168,0.495-0.293,0.734-0.379L50,53.65
				v-1.717c-0.638-0.654-1-1.528-1-2.434v-0.986c0-1.93,1.57-3.5,3.5-3.5s3.5,1.57,3.5,3.5V49.5c0,0.905-0.362,1.779-1,2.434v1.717
				l3.196,1.162c0.239,0.086,0.479,0.211,0.734,0.379L58.378,56.025z"/>
		</g>
		<g id="XMLID_3754_">
			<path id="XMLID_3755_" fill="#37474F" d="M52.5,59c-4.687,0-8.5-3.813-8.5-8.5s3.813-8.5,8.5-8.5s8.5,3.813,8.5,8.5
				S57.187,59,52.5,59z M52.5,43c-4.136,0-7.5,3.364-7.5,7.5s3.364,7.5,7.5,7.5s7.5-3.364,7.5-7.5S56.636,43,52.5,43z"/>
		</g>
	</g>
	<g id="XMLID_3741_">
		<g id="XMLID_3752_">
			<circle fill="#FFD740" cx="32" cy="49.5" r="8"/>
		</g>
		<g id="XMLID_3748_">
			<g id="XMLID_3751_">
				<path fill="#ECEFF1" d="M38.154,54.609c-0.195-0.13-0.402-0.245-0.629-0.328L34,53v-2.279c0.609-0.549,1-1.336,1-2.221v-0.986
					c0-1.656-1.343-3-3-3s-3,1.344-3,3V48.5c0,0.885,0.391,1.672,1,2.221V53l-3.525,1.281c-0.227,0.083-0.434,0.198-0.629,0.328
					C27.313,56.375,29.524,57.5,32,57.5S36.688,56.375,38.154,54.609z"/>
			</g>
			<g id="XMLID_3749_">
				<path id="XMLID_3750_" fill="#37474F" d="M32,52c-0.165,0-0.328-0.012-0.487-0.033l0.139-0.99C31.766,50.992,31.882,51,32,51
					c1.379,0,2.5-1.121,2.5-2.5v-0.986c0-1.378-1.121-2.5-2.5-2.5s-2.5,1.122-2.5,2.5V48.5h-1v-0.986c0-1.93,1.57-3.5,3.5-3.5
					s3.5,1.57,3.5,3.5V48.5C35.5,50.43,33.93,52,32,52z"/>
			</g>
		</g>
		<g id="XMLID_3746_">
			<path id="XMLID_3747_" fill="#37474F" d="M37.878,55.025c-0.19-0.126-0.356-0.213-0.523-0.273L33.5,53.35v-2.852l0.165-0.148
				c0.538-0.484,0.835-1.142,0.835-1.85v-0.986c0-1.378-1.121-2.5-2.5-2.5s-2.5,1.122-2.5,2.5V48.5c0,0.708,0.297,1.365,0.835,1.85
				l0.165,0.148v2.852l-3.854,1.402c-0.167,0.061-0.333,0.147-0.523,0.273l-0.553-0.834c0.255-0.168,0.495-0.293,0.734-0.379
				L29.5,52.65v-1.717c-0.638-0.654-1-1.528-1-2.434v-0.986c0-1.93,1.57-3.5,3.5-3.5s3.5,1.57,3.5,3.5V48.5
				c0,0.905-0.362,1.779-1,2.434v1.717l3.196,1.162c0.239,0.086,0.479,0.211,0.734,0.379L37.878,55.025z"/>
		</g>
		<g id="XMLID_3742_">
			<path id="XMLID_3743_" fill="#37474F" d="M32,58c-4.687,0-8.5-3.813-8.5-8.5S27.313,41,32,41s8.5,3.813,8.5,8.5S36.687,58,32,58z
				 M32,42c-4.136,0-7.5,3.364-7.5,7.5S27.864,57,32,57s7.5-3.364,7.5-7.5S36.136,42,32,42z"/>
		</g>
	</g>
	<g id="XMLID_3729_">
		<g id="XMLID_3740_">
			<circle fill="#FFD740" cx="11.5" cy="50.5" r="8"/>
		</g>
		<g id="XMLID_3736_">
			<g id="XMLID_3739_">
				<path fill="#ECEFF1" d="M17.654,55.609c-0.195-0.13-0.402-0.245-0.629-0.328L13.5,54v-2.279c0.609-0.549,1-1.336,1-2.221v-0.986
					c0-1.656-1.343-3-3-3s-3,1.344-3,3V49.5c0,0.885,0.391,1.672,1,2.221V54l-3.525,1.281c-0.227,0.083-0.434,0.198-0.629,0.328
					C6.813,57.375,9.024,58.5,11.5,58.5S16.188,57.375,17.654,55.609z"/>
			</g>
			<g id="XMLID_3737_">
				<path id="XMLID_3738_" fill="#37474F" d="M11.5,53c-0.165,0-0.328-0.012-0.487-0.033l0.139-0.99
					C11.266,51.992,11.382,52,11.5,52c1.379,0,2.5-1.121,2.5-2.5v-0.986c0-1.378-1.121-2.5-2.5-2.5S9,47.136,9,48.514V49.5H8v-0.986
					c0-1.93,1.57-3.5,3.5-3.5s3.5,1.57,3.5,3.5V49.5C15,51.43,13.43,53,11.5,53z"/>
			</g>
		</g>
		<g id="XMLID_3734_">
			<path id="XMLID_3735_" fill="#37474F" d="M17.378,56.025c-0.19-0.126-0.356-0.213-0.523-0.273L13,54.35v-2.852l0.165-0.148
				C13.703,50.865,14,50.208,14,49.5v-0.986c0-1.378-1.121-2.5-2.5-2.5S9,47.136,9,48.514V49.5c0,0.708,0.297,1.365,0.835,1.85
				L10,51.498v2.852l-3.854,1.402c-0.167,0.061-0.333,0.147-0.523,0.273l-0.553-0.834c0.255-0.168,0.495-0.293,0.734-0.379L9,53.65
				v-1.717c-0.638-0.654-1-1.528-1-2.434v-0.986c0-1.93,1.57-3.5,3.5-3.5s3.5,1.57,3.5,3.5V49.5c0,0.905-0.362,1.779-1,2.434v1.717
				l3.196,1.162c0.239,0.086,0.479,0.211,0.734,0.379L17.378,56.025z"/>
		</g>
		<g id="XMLID_3730_">
			<path id="XMLID_3731_" fill="#37474F" d="M11.5,59C6.813,59,3,55.188,3,50.5S6.813,42,11.5,42s8.5,3.813,8.5,8.5
				S16.187,59,11.5,59z M11.5,43C7.364,43,4,46.364,4,50.5S7.364,58,11.5,58s7.5-3.364,7.5-7.5S15.636,43,11.5,43z"/>
		</g>
	</g>
	<g id="XMLID_3717_">
		<g id="XMLID_3728_">
			<circle fill="#FFD740" cx="21.5" cy="31.5" r="8"/>
		</g>
		<g id="XMLID_3724_">
			<g id="XMLID_3727_">
				<path fill="#ECEFF1" d="M27.654,36.609c-0.195-0.13-0.402-0.245-0.629-0.328L23.5,35v-2.279c0.609-0.549,1-1.336,1-2.221v-0.986
					c0-1.656-1.343-3-3-3s-3,1.344-3,3V30.5c0,0.885,0.391,1.672,1,2.221V35l-3.525,1.281c-0.227,0.083-0.434,0.198-0.629,0.328
					c1.467,1.766,3.679,2.891,6.154,2.891S26.188,38.375,27.654,36.609z"/>
			</g>
			<g id="XMLID_3725_">
				<path id="XMLID_3726_" fill="#37474F" d="M21.5,34c-0.165,0-0.328-0.012-0.487-0.033l0.139-0.99
					C21.266,32.992,21.382,33,21.5,33c1.379,0,2.5-1.121,2.5-2.5v-0.986c0-1.378-1.121-2.5-2.5-2.5s-2.5,1.122-2.5,2.5V30.5h-1
					v-0.986c0-1.93,1.57-3.5,3.5-3.5s3.5,1.57,3.5,3.5V30.5C25,32.43,23.43,34,21.5,34z"/>
			</g>
		</g>
		<g id="XMLID_3722_">
			<path id="XMLID_3723_" fill="#37474F" d="M27.378,37.025c-0.19-0.126-0.356-0.213-0.523-0.273L23,35.35v-2.852l0.165-0.148
				C23.703,31.865,24,31.208,24,30.5v-0.986c0-1.378-1.121-2.5-2.5-2.5s-2.5,1.122-2.5,2.5V30.5c0,0.708,0.297,1.365,0.835,1.85
				L20,32.498v2.852l-3.854,1.402c-0.167,0.061-0.333,0.147-0.523,0.273l-0.553-0.834c0.255-0.168,0.495-0.293,0.734-0.379L19,34.65
				v-1.717c-0.638-0.654-1-1.528-1-2.434v-0.986c0-1.93,1.57-3.5,3.5-3.5s3.5,1.57,3.5,3.5V30.5c0,0.905-0.362,1.779-1,2.434v1.717
				l3.196,1.162c0.239,0.086,0.479,0.211,0.734,0.379L27.378,37.025z"/>
		</g>
		<g id="XMLID_3718_">
			<path id="XMLID_3719_" fill="#37474F" d="M21.5,40c-4.687,0-8.5-3.813-8.5-8.5s3.813-8.5,8.5-8.5s8.5,3.813,8.5,8.5
				S26.187,40,21.5,40z M21.5,24c-4.136,0-7.5,3.364-7.5,7.5s3.364,7.5,7.5,7.5s7.5-3.364,7.5-7.5S25.636,24,21.5,24z"/>
		</g>
	</g>
	<g id="XMLID_3705_">
		<g id="XMLID_3716_">
			<circle fill="#FFD740" cx="32" cy="13.5" r="8"/>
		</g>
		<g id="XMLID_3712_">
			<g id="XMLID_3715_">
				<path fill="#ECEFF1" d="M38.154,18.609c-0.195-0.13-0.402-0.245-0.629-0.328L34,17v-2.279c0.609-0.549,1-1.336,1-2.221v-0.986
					c0-1.656-1.343-3-3-3s-3,1.344-3,3V12.5c0,0.885,0.391,1.672,1,2.221V17l-3.525,1.281c-0.227,0.083-0.434,0.198-0.629,0.328
					C27.313,20.375,29.524,21.5,32,21.5S36.688,20.375,38.154,18.609z"/>
			</g>
			<g id="XMLID_3713_">
				<path id="XMLID_3714_" fill="#37474F" d="M32,16c-0.165,0-0.328-0.012-0.487-0.033l0.139-0.99C31.766,14.992,31.882,15,32,15
					c1.379,0,2.5-1.121,2.5-2.5v-0.986c0-1.378-1.121-2.5-2.5-2.5s-2.5,1.122-2.5,2.5V12.5h-1v-0.986c0-1.93,1.57-3.5,3.5-3.5
					s3.5,1.57,3.5,3.5V12.5C35.5,14.43,33.93,16,32,16z"/>
			</g>
		</g>
		<g id="XMLID_3710_">
			<path id="XMLID_3711_" fill="#37474F" d="M37.878,19.025c-0.19-0.126-0.356-0.213-0.523-0.273L33.5,17.35v-2.852l0.165-0.148
				c0.538-0.484,0.835-1.142,0.835-1.85v-0.986c0-1.378-1.121-2.5-2.5-2.5s-2.5,1.122-2.5,2.5V12.5c0,0.708,0.297,1.365,0.835,1.85
				l0.165,0.148v2.852l-3.854,1.402c-0.167,0.061-0.333,0.147-0.523,0.273l-0.553-0.834c0.255-0.168,0.495-0.293,0.734-0.379
				L29.5,16.65v-1.717c-0.638-0.654-1-1.528-1-2.434v-0.986c0-1.93,1.57-3.5,3.5-3.5s3.5,1.57,3.5,3.5V12.5
				c0,0.905-0.362,1.779-1,2.434v1.717l3.196,1.162c0.239,0.086,0.479,0.211,0.734,0.379L37.878,19.025z"/>
		</g>
		<g id="XMLID_3706_">
			<path id="XMLID_3707_" fill="#37474F" d="M32,22c-4.687,0-8.5-3.813-8.5-8.5S27.313,5,32,5s8.5,3.813,8.5,8.5S36.687,22,32,22z
				 M32,6c-4.136,0-7.5,3.364-7.5,7.5S27.864,21,32,21s7.5-3.364,7.5-7.5S36.136,6,32,6z"/>
		</g>
	</g>
	<g id="XMLID_3700_">
		<g id="XMLID_3703_">
			
				<rect id="XMLID_3704_" x="41" y="43.382" transform="matrix(0.4472 0.8944 -0.8944 0.4472 62.7427 -12.5197)" fill="#37474F" width="1" height="2.236"/>
		</g>
		<g id="XMLID_3701_">
			<polygon id="XMLID_3702_" fill="#37474F" points="44.276,45.447 42,44.309 42,41 43,41 43,43.691 44.724,44.553 			"/>
		</g>
	</g>
	<g id="XMLID_3695_">
		<g id="XMLID_3698_">
			
				<rect id="XMLID_3699_" x="20" y="43.382" transform="matrix(0.4472 0.8944 -0.8944 0.4472 51.1341 6.2632)" fill="#37474F" width="1" height="2.236"/>
		</g>
		<g id="XMLID_3696_">
			<polygon id="XMLID_3697_" fill="#37474F" points="23.276,45.447 21,44.309 21,41 22,41 22,43.691 23.724,44.553 			"/>
		</g>
	</g>
	<g id="XMLID_3690_">
		<g id="XMLID_3693_">
			
				<rect id="XMLID_3694_" x="30.5" y="25.382" transform="matrix(0.4472 0.8944 -0.8944 0.4472 40.8387 -13.0784)" fill="#37474F" width="1" height="2.236"/>
		</g>
		<g id="XMLID_3691_">
			<polygon id="XMLID_3692_" fill="#37474F" points="33.776,27.447 31.5,26.309 31.5,23 32.5,23 32.5,25.691 34.224,26.553 			"/>
		</g>
	</g>
</g>
</svg>
