<?xml version="1.0" encoding="utf-8"?>
<!-- Generator: Adobe Illustrator 16.0.0, SVG Export Plug-In . SVG Version: 6.00 Build 0)  -->
<!DOCTYPE svg PUBLIC "-//W3C//DTD SVG 1.1//EN" "http://www.w3.org/Graphics/SVG/1.1/DTD/svg11.dtd">
<svg version="1.1" id="_x3C_Layer_x3E_" xmlns="http://www.w3.org/2000/svg" xmlns:xlink="http://www.w3.org/1999/xlink" x="0px"
	 y="0px" width="64px" height="64px" viewBox="0 0 64 64" enable-background="new 0 0 64 64" xml:space="preserve">
<g id="thermometer_1_">
	<g>
		<path fill="#ECEFF1" d="M56,32c0,13.257-10.742,24-24,24S8,45.257,8,32S18.742,8,32,8S56,18.743,56,32z"/>
	</g>
	<g>
		<g>
			<g>
				<path fill="#FFFFFF" d="M8,58.5c-0.668,0-1.295-0.26-1.768-0.732S5.5,56.667,5.5,56s0.26-1.295,0.732-1.768l6.313-6.312
					c1.695-1.696,2.207-4.908,2.546-7.034c0.232-1.46,0.91-2.787,1.959-3.836l29.5-29.5c1.322-1.322,3.08-2.05,4.95-2.05
					s3.628,0.728,4.95,2.05c1.322,1.322,2.05,3.08,2.05,4.95s-0.728,3.627-2.05,4.95l-29.5,29.5
					c-1.159,1.16-2.449,1.848-3.834,2.046c-2.255,0.323-5.343,0.765-7.036,2.459l-6.313,6.313C9.295,58.24,8.667,58.5,8,58.5z"/>
			</g>
		</g>
		<g>
			<g>
				<path fill="#84FFFF" d="M15.727,51.102c1.811-1.812,4.994-2.268,7.319-2.6c1.275-0.183,2.47-0.824,3.551-1.905l29.5-29.5
					C57.324,15.869,58,14.236,58,12.5c0-1.498-0.506-2.917-1.432-4.067C55.418,7.506,53.998,7,52.5,7
					c-1.736,0-3.369,0.676-4.597,1.904l-29.5,29.5c-0.974,0.974-1.603,2.206-1.819,3.562c-0.349,2.189-0.876,5.498-2.686,7.308
					l-6.313,6.312C7.208,55.964,7,56.466,7,57c0,0.288,0.065,0.565,0.181,0.82C7.436,57.935,7.712,58,8,58
					c0.534,0,1.036-0.208,1.414-0.586L15.727,51.102z"/>
			</g>
		</g>
		<g>
			<path fill="#18FFFF" d="M56.568,8.433c-0.188-0.152-0.395-0.274-0.598-0.403C56.628,9.06,57,10.248,57,11.5
				c0,1.736-0.676,3.369-1.903,4.596l-29.5,29.5c-1.081,1.082-2.275,1.722-3.551,1.905c-2.325,0.333-5.509,0.788-7.319,2.6
				l-6.313,6.313C8.036,56.792,7.534,57,7,57c0,0.288,0.065,0.565,0.181,0.82C7.436,57.935,7.712,58,8,58
				c0.534,0,1.036-0.208,1.414-0.586l6.313-6.313c1.811-1.812,4.994-2.268,7.319-2.6c1.275-0.183,2.47-0.824,3.551-1.905l29.5-29.5
				C57.324,15.869,58,14.236,58,12.5C58,11.002,57.494,9.583,56.568,8.433z"/>
		</g>
		<g>
			<g>
				<path fill="#37474F" d="M51.5,6c1.736,0,3.369,0.676,4.597,1.904S58,10.764,58,12.5s-0.676,3.369-1.903,4.596l-29.5,29.5
					c-1.081,1.082-2.275,1.722-3.551,1.905c-2.325,0.333-5.509,0.788-7.319,2.6l-6.313,6.313C9.036,57.792,8.534,58,8,58
					s-1.036-0.208-1.414-0.586S6,56.534,6,56s0.208-1.036,0.586-1.414l6.313-6.312c1.81-1.811,2.337-5.119,2.686-7.308
					c0.217-1.356,0.846-2.588,1.819-3.562l29.5-29.5C48.131,6.676,49.764,6,51.5,6L51.5,6z M51.5,5c-1.92,0-3.839,0.732-5.304,2.197
					l-29.5,29.5c-1.16,1.161-1.859,2.606-2.1,4.111c-0.348,2.182-0.844,5.196-2.405,6.759l-6.313,6.312
					c-1.172,1.171-1.172,3.071,0,4.242C6.465,58.707,7.232,59,8,59s1.535-0.293,2.121-0.879l6.313-6.313
					c1.562-1.563,4.566-2.004,6.754-2.317c1.42-0.204,2.81-0.881,4.116-2.188l29.5-29.5c2.929-2.929,2.929-7.678,0-10.606
					C55.339,5.732,53.42,5,51.5,5L51.5,5z"/>
			</g>
		</g>
	</g>
	<g>
		<g>
			<path fill="#ECEFF1" d="M8,56l41-41L8,56z"/>
		</g>
		<g>
			<path fill="#37474F" d="M8,56.5c-0.128,0-0.256-0.049-0.354-0.146c-0.195-0.195-0.195-0.512,0-0.707l41-41
				c0.195-0.195,0.512-0.195,0.707,0s0.195,0.512,0,0.707l-41,41C8.256,56.451,8.128,56.5,8,56.5z"/>
		</g>
	</g>
	<g>
		<g>
			<path fill="#ECEFF1" d="M8,56l23-23L8,56z"/>
		</g>
		<g>
			<path fill="#FF5252" d="M8,56.5c-0.128,0-0.256-0.049-0.354-0.146c-0.195-0.195-0.195-0.512,0-0.707l23-23
				c0.195-0.195,0.512-0.195,0.707,0s0.195,0.512,0,0.707l-23,23C8.256,56.451,8.128,56.5,8,56.5z"/>
		</g>
	</g>
	<g>
		<g>
			<path fill="#ECEFF1" d="M8,56l5-5L8,56z"/>
		</g>
		<g>
			<path fill="#FF5252" d="M8,57c-0.256,0-0.512-0.098-0.707-0.293c-0.391-0.391-0.391-1.023,0-1.414l5-5
				c0.391-0.391,1.023-0.391,1.414,0s0.391,1.023,0,1.414l-5,5C8.512,56.902,8.256,57,8,57z"/>
		</g>
	</g>
	<g>
		<g>
			<g>
				<path fill="#37474F" d="M46.354,20.646c-0.195-0.195-0.512-0.195-0.707,0s-0.195,0.512,0,0.707l1,1
					C46.744,22.451,46.872,22.5,47,22.5s0.256-0.049,0.354-0.146c0.195-0.195,0.195-0.512,0-0.707L46.354,20.646z"/>
			</g>
		</g>
		<g>
			<g>
				<path fill="#37474F" d="M40.354,26.646c-0.195-0.195-0.512-0.195-0.707,0s-0.195,0.512,0,0.707l1,1
					C40.744,28.451,40.872,28.5,41,28.5s0.256-0.049,0.354-0.146c0.195-0.195,0.195-0.512,0-0.707L40.354,26.646z"/>
			</g>
		</g>
		<g>
			<g>
				<path fill="#37474F" d="M34.354,32.646c-0.195-0.195-0.512-0.195-0.707,0s-0.195,0.512,0,0.707l1,1
					C34.744,34.451,34.872,34.5,35,34.5s0.256-0.049,0.354-0.146c0.195-0.195,0.195-0.512,0-0.707L34.354,32.646z"/>
			</g>
		</g>
		<g>
			<g>
				<path fill="#37474F" d="M28.354,38.646c-0.195-0.195-0.512-0.195-0.707,0s-0.195,0.512,0,0.707l1,1
					C28.744,40.451,28.872,40.5,29,40.5s0.256-0.049,0.354-0.146c0.195-0.195,0.195-0.512,0-0.707L28.354,38.646z"/>
			</g>
		</g>
		<g>
			<g>
				<path fill="#37474F" d="M22.354,44.646c-0.195-0.195-0.512-0.195-0.707,0s-0.195,0.512,0,0.707l1,1
					C22.744,46.451,22.872,46.5,23,46.5s0.256-0.049,0.354-0.146c0.195-0.195,0.195-0.512,0-0.707L22.354,44.646z"/>
			</g>
		</g>
	</g>
	<g>
		<g>
			<g>
				<path fill="#37474F" d="M51.354,19.646l-2-2c-0.195-0.195-0.512-0.195-0.707,0s-0.195,0.512,0,0.707l2,2
					C50.744,20.451,50.872,20.5,51,20.5s0.256-0.049,0.354-0.146C51.549,20.158,51.549,19.842,51.354,19.646z"/>
			</g>
		</g>
		<g>
			<g>
				<path fill="#37474F" d="M43.354,23.646c-0.195-0.195-0.512-0.195-0.707,0s-0.195,0.512,0,0.707l2,2
					C44.744,26.451,44.872,26.5,45,26.5s0.256-0.049,0.354-0.146c0.195-0.195,0.195-0.512,0-0.707L43.354,23.646z"/>
			</g>
		</g>
		<g>
			<g>
				<path fill="#37474F" d="M37.354,29.646c-0.195-0.195-0.512-0.195-0.707,0s-0.195,0.512,0,0.707l2,2
					C38.744,32.451,38.872,32.5,39,32.5s0.256-0.049,0.354-0.146c0.195-0.195,0.195-0.512,0-0.707L37.354,29.646z"/>
			</g>
		</g>
		<g>
			<g>
				<path fill="#37474F" d="M31.354,35.646c-0.195-0.195-0.512-0.195-0.707,0s-0.195,0.512,0,0.707l2,2
					C32.744,38.451,32.872,38.5,33,38.5s0.256-0.049,0.354-0.146c0.195-0.195,0.195-0.512,0-0.707L31.354,35.646z"/>
			</g>
		</g>
		<g>
			<g>
				<path fill="#37474F" d="M25.354,41.646c-0.195-0.195-0.512-0.195-0.707,0s-0.195,0.512,0,0.707l2,2
					C26.744,44.451,26.872,44.5,27,44.5s0.256-0.049,0.354-0.146c0.195-0.195,0.195-0.512,0-0.707L25.354,41.646z"/>
			</g>
		</g>
	</g>
	<g>
		<g>
			<g>
				<path fill="#37474F" d="M42.354,16.646c-0.195-0.195-0.512-0.195-0.707,0s-0.195,0.512,0,0.707l1,1
					C42.744,18.451,42.872,18.5,43,18.5s0.256-0.049,0.354-0.146c0.195-0.195,0.195-0.512,0-0.707L42.354,16.646z"/>
			</g>
		</g>
		<g>
			<g>
				<path fill="#37474F" d="M36.354,22.646c-0.195-0.195-0.512-0.195-0.707,0s-0.195,0.512,0,0.707l1,1
					C36.744,24.451,36.872,24.5,37,24.5s0.256-0.049,0.354-0.146c0.195-0.195,0.195-0.512,0-0.707L36.354,22.646z"/>
			</g>
		</g>
		<g>
			<g>
				<path fill="#37474F" d="M30.354,28.646c-0.195-0.195-0.512-0.195-0.707,0s-0.195,0.512,0,0.707l1,1
					C30.744,30.451,30.872,30.5,31,30.5s0.256-0.049,0.354-0.146c0.195-0.195,0.195-0.512,0-0.707L30.354,28.646z"/>
			</g>
		</g>
		<g>
			<g>
				<path fill="#37474F" d="M24.354,34.646c-0.195-0.195-0.512-0.195-0.707,0s-0.195,0.512,0,0.707l1,1
					C24.744,36.451,24.872,36.5,25,36.5s0.256-0.049,0.354-0.146c0.195-0.195,0.195-0.512,0-0.707L24.354,34.646z"/>
			</g>
		</g>
		<g>
			<g>
				<path fill="#37474F" d="M18.354,40.646c-0.195-0.195-0.512-0.195-0.707,0s-0.195,0.512,0,0.707l1,1
					C18.744,42.451,18.872,42.5,19,42.5s0.256-0.049,0.354-0.146c0.195-0.195,0.195-0.512,0-0.707L18.354,40.646z"/>
			</g>
		</g>
	</g>
	<g>
		<g>
			<g>
				<path fill="#37474F" d="M46.354,14.646l-2-2c-0.195-0.195-0.512-0.195-0.707,0s-0.195,0.512,0,0.707l2,2
					C45.744,15.451,45.872,15.5,46,15.5s0.256-0.049,0.354-0.146C46.549,15.158,46.549,14.842,46.354,14.646z"/>
			</g>
		</g>
		<g>
			<g>
				<path fill="#37474F" d="M38.354,18.646c-0.195-0.195-0.512-0.195-0.707,0s-0.195,0.512,0,0.707l2,2
					C39.744,21.451,39.872,21.5,40,21.5s0.256-0.049,0.354-0.146c0.195-0.195,0.195-0.512,0-0.707L38.354,18.646z"/>
			</g>
		</g>
		<g>
			<g>
				<path fill="#37474F" d="M32.354,24.646c-0.195-0.195-0.512-0.195-0.707,0s-0.195,0.512,0,0.707l2,2
					C33.744,27.451,33.872,27.5,34,27.5s0.256-0.049,0.354-0.146c0.195-0.195,0.195-0.512,0-0.707L32.354,24.646z"/>
			</g>
		</g>
		<g>
			<g>
				<path fill="#37474F" d="M26.354,30.646c-0.195-0.195-0.512-0.195-0.707,0s-0.195,0.512,0,0.707l2,2
					C27.744,33.451,27.872,33.5,28,33.5s0.256-0.049,0.354-0.146c0.195-0.195,0.195-0.512,0-0.707L26.354,30.646z"/>
			</g>
		</g>
		<g>
			<g>
				<path fill="#37474F" d="M20.354,36.646c-0.195-0.195-0.512-0.195-0.707,0s-0.195,0.512,0,0.707l2,2
					C21.744,39.451,21.872,39.5,22,39.5s0.256-0.049,0.354-0.146c0.195-0.195,0.195-0.512,0-0.707L20.354,36.646z"/>
			</g>
		</g>
	</g>
</g>
</svg>
