<?xml version="1.0" encoding="utf-8"?>
<!-- Generator: Adobe Illustrator 16.0.0, SVG Export Plug-In . SVG Version: 6.00 Build 0)  -->
<!DOCTYPE svg PUBLIC "-//W3C//DTD SVG 1.1//EN" "http://www.w3.org/Graphics/SVG/1.1/DTD/svg11.dtd">
<svg version="1.1" id="_x3C_Layer_x3E_" xmlns="http://www.w3.org/2000/svg" xmlns:xlink="http://www.w3.org/1999/xlink" x="0px"
	 y="0px" width="64px" height="64px" viewBox="0 0 64 64" enable-background="new 0 0 64 64" xml:space="preserve">
<g id="email_x2C__diagnosis_x2C__doctor_x27_s_opinion">
	<g>
		<polygon fill="#FFD740" points="32,5.998 5.5,27.5 32,55.5 58.5,27.5 		"/>
		<path fill="#37474F" d="M32,56c-0.138,0-0.269-0.057-0.363-0.156l-26.5-28c-0.096-0.102-0.145-0.237-0.136-0.377
			c0.009-0.139,0.076-0.268,0.184-0.355l26.5-21.502c0.184-0.148,0.447-0.148,0.631,0l26.5,21.502
			c0.107,0.088,0.175,0.217,0.184,0.355c0.009,0.14-0.04,0.275-0.136,0.377l-26.5,28C32.269,55.943,32.138,56,32,56z M6.234,27.548
			L32,54.772l25.766-27.225L32,6.642L6.234,27.548z"/>
	</g>
	<g id="coronavirus_x2C__covid_19_x2C__news_x2C__virus_x2C__document_1_">
		<g id="algorithm_1_">
			<g id="taxes_2_">
				<g id="algorithm_2_">
					<g id="News__x26__Events_1_">
						<g id="XMLID_1455_">
							<g id="XMLID_1456_">
								<g id="XMLID_1457_">
									<g id="XMLID_1477_">
										<g id="XMLID_1478_">
											<path fill="#CFD8DC" d="M45.5,5.5h-36c-2.209,0-4,1.791-4,4v0.998h36V9.5C41.5,7.291,43.291,5.5,45.5,5.5z"/>
										</g>
									</g>
									<g id="XMLID_1459_">
										<g id="XMLID_1473_">
											<path fill="#37474F" d="M9.5,5h36v1C43.57,6,42,7.57,42,9.5V11H5V9.5C5,7.019,7.019,5,9.5,5z M42.674,6H9.5
												C7.57,6,6,7.57,6,9.5V10h35V9.5C41,8.088,41.654,6.825,42.674,6z"/>
										</g>
									</g>
								</g>
							</g>
						</g>
					</g>
				</g>
				<g id="XMLID_1454_">
					<path fill="#FFFFFF" d="M13.5,54.498c0,2.209,1.791,4.002,4,4.002h33v-49c0-2.209-1.791-4-4-4h-37c2.209,0,4,1.791,4,4V54.498z
						"/>
				</g>
				<g id="XMLID_1453_">
					<path fill="#ECEFF1" d="M12.6,7C13.154,7.687,13,8.549,13,9.5v44.998C13,56.707,15.291,59,17.5,59H51V9.5
						c0-0.951-0.846-1.813-1.4-2.5H12.6z"/>
				</g>
			</g>
		</g>
		<rect x="18" y="30" fill="#37474F" width="28" height="1"/>
		<rect x="18" y="27" fill="#37474F" width="28" height="1"/>
		<rect x="18" y="24" fill="#37474F" width="28" height="1"/>
	</g>
	<g>
		<polygon fill="#FFE57F" points="32,42.567 5.5,27.5 5.5,58.5 58.5,58.5 58.5,27.5 		"/>
	</g>
	<g>
		<g>
			<polygon fill="#FFE57F" points="32,42.567 5.5,27.5 5.5,58.5 58.5,58.5 58.5,27.5 			"/>
			<g>
				<path fill="#37474F" d="M14,9.5c0-1.412-0.653-2.675-1.675-3.5H46.5C48.43,6,50,7.57,50,9.5v21.107l1-0.568V9.5
					C51,7.019,48.981,5,46.5,5h-37v1C11.43,6,13,7.57,13,9.5v20.539l1,0.568V9.5z"/>
				<polygon fill="#37474F" points="38.757,37 40.516,36 23.484,36 25.243,37 				"/>
				<polygon fill="#37474F" points="45.792,33 18.208,33 19.967,34 44.033,34 				"/>
			</g>
		</g>
	</g>
	<g>
		<polygon fill="#FFD740" points="57,28.353 57,58.5 58.5,58.5 58.5,27.5 		"/>
	</g>
	<g>
		<polygon fill="#FFFFFF" points="5.5,27.5 5.5,58.5 7,58.5 7,28.353 		"/>
	</g>
	<g>
		<path fill="#37474F" d="M58.751,27.067c-0.152-0.089-0.344-0.091-0.498-0.002l-21.3,12.11l0.837,0.675L58,28.359V58H6V28.359
			l20.217,11.494l0.836-0.674L5.747,27.065c-0.154-0.089-0.346-0.087-0.498,0.002C5.095,27.157,5,27.322,5,27.5V59h54V27.5
			C59,27.322,58.905,27.157,58.751,27.067z"/>
	</g>
	<g>
		<path fill="#FFE57F" d="M34.512,39.136L58.563,58.5H5.5l23.991-19.361C30.955,37.956,33.046,37.955,34.512,39.136z"/>
		<path fill="#37474F" d="M58.563,59H5.5l-0.314-0.889L29.177,38.75c1.594-1.288,4.053-1.289,5.648-0.004L58.876,58.11L58.563,59z
			 M6.916,58h50.229L34.198,39.525c-1.241-0.999-3.153-0.999-4.393,0.002L6.916,58z"/>
	</g>
	<g>
		<circle fill="#FF8A80" cx="32" cy="16" r="5.5"/>
		<path fill="#FFFFFF" d="M32,22c-3.309,0-6-2.691-6-6s2.691-6,6-6s6,2.691,6,6S35.309,22,32,22z M32,11c-2.757,0-5,2.243-5,5
			s2.243,5,5,5s5-2.243,5-5S34.757,11,32,11z"/>
	</g>
	<g>
		<path fill="#FFFFFF" d="M35,17h-6v-2h6V17z"/>
	</g>
	<g>
		<rect x="31" y="13" fill="#FFFFFF" width="2" height="6"/>
	</g>
</g>
</svg>
