<?xml version="1.0" encoding="utf-8"?>
<!-- Generator: Adobe Illustrator 16.0.0, SVG Export Plug-In . SVG Version: 6.00 Build 0)  -->
<!DOCTYPE svg PUBLIC "-//W3C//DTD SVG 1.1//EN" "http://www.w3.org/Graphics/SVG/1.1/DTD/svg11.dtd">
<svg version="1.1" id="_x3C_Layer_x3E_" xmlns="http://www.w3.org/2000/svg" xmlns:xlink="http://www.w3.org/1999/xlink" x="0px"
	 y="0px" width="64px" height="64px" viewBox="0 0 64 64" enable-background="new 0 0 64 64" xml:space="preserve">
<g id="female_x2C__woman_x2C__doctor">
	<g>
		<path fill="#FFFFFF" d="M50.188,44.1C44.852,42.102,32.729,37.877,32,37.148c-0.707,0.707-13.35,4.945-18.688,6.949
			C12.333,44.465,10.503,47.001,10,48c4.76,6.125,15.541,8.898,22,8.898S49.239,54.124,54,48
			C53.496,47.002,51.166,44.467,50.188,44.1z"/>
		<path fill="#ECEFF1" d="M44.58,43.581c-7.601-2.757-11.397-4.175-12.582-4.838c-1.177,0.651-4.932,2.055-12.427,4.776
			c-2.123,0.771-4.111,1.494-5.583,2.047c-0.732,0.273-2.689,2.319-3.382,3.386C15.333,54.477,23.188,57.5,32,57.5
			s16.668-3.026,21.394-8.548c-0.693-1.066-2.651-3.11-3.382-3.384C48.575,45.03,46.646,44.331,44.58,43.581z"/>
	</g>
	<g>
		<g>
			<g>
				<polygon fill="#E6CAA0" points="27.5,43.3 27.5,33.898 36.5,33.898 36.5,43.3 32,55 				"/>
			</g>
		</g>
	</g>
	<g>
		<g>
			<g>
				<path fill="#FFFFFF" d="M25.809,44.007l-3.162-1.743l0.075-2.335l4.452-1.226l4.762,16.571c0.015,0.052-0.053,0.087-0.087,0.046
					l-7.989-9.504L25.809,44.007z"/>
			</g>
		</g>
	</g>
	<g>
		<g>
			<g>
				<path fill="#FFFFFF" d="M38.111,43.974l3.074-1.695c0.018-0.009,0.027-0.026,0.026-0.045l-0.073-2.268
					c0-0.022-0.016-0.041-0.037-0.047l-4.368-1.202c-0.026-0.008-0.054,0.008-0.062,0.034l-4.608,16.522
					c-0.015,0.052,0.052,0.087,0.087,0.045l7.82-9.465c0.016-0.021,0.014-0.051-0.006-0.068l-1.863-1.731
					C38.076,44.03,38.082,43.99,38.111,43.974z"/>
			</g>
		</g>
	</g>
	<g>
		<path fill="#FFE0B2" d="M32,36.898c-3.813,0-8.5-5.789-8.5-10.5V20c0-4.688,3.813-8.5,8.5-8.5c4.687,0,8.5,3.813,8.5,8.5v6.398
			C40.5,31.109,35.813,36.898,32,36.898z"/>
	</g>
	<g>
		<g>
			<g>
				<path fill="#FFFFFF" d="M40.936,35.674c-1.288,0-3.134-0.622-4.099-0.983c1.846-2.218,3.89-5.507,4.161-8.243
					c0.078-0.793-0.44-6.742-0.5-7.486c0.002-0.949-0.585-1.846-1.494-2.246l-0.135-0.059l-0.146,0.023
					c-2.663,0.43-4.184,1.078-5.526,1.65C31.664,18.984,30.453,19.5,28,19.5c-1.314,0-2.551-0.469-3.575-1.355l-0.608-0.526
					l-0.203,0.778C23.549,18.627,23.5,18.799,23.5,19c-0.059,0.689-0.586,6.521-0.498,7.445c0.301,3.147,2.559,6.342,4.158,8.245
					c-0.967,0.361-2.816,0.983-4.094,0.983c-1.154-0.017-2.804-0.208-3.771-0.458c0.865-1.299,0.603-2.927,0.255-5.079
					C19.306,28.615,19,26.72,19,24.398C19,16.415,20.842,7.5,32,7.5c2.123,0,3.409,0.444,3.821,1.32l0.232,0.494l0.472-0.275
					c0.235-0.138,0.487-0.205,0.77-0.205c0.969,0,2.011,0.817,2.354,1.086C43.531,12.963,45,17.435,45,24.398
					c0,2.322-0.303,4.221-0.545,5.746c-0.343,2.15-0.603,3.78,0.249,5.069c-0.915,0.233-2.418,0.429-3.679,0.459L40.936,35.674z"/>
			</g>
		</g>
	</g>
	<g>
		<g>
			<g>
				<path fill="#CFD8DC" d="M36.837,34.69c0.009,0.003,0.021,0.008,0.03,0.011c0.008-0.025,0.016-0.051,0.022-0.076
					C36.872,34.646,36.854,34.67,36.837,34.69z"/>
			</g>
		</g>
		<g>
			<g>
				<path fill="#CFD8DC" d="M40.498,19.961c0.06,0.744,0.078,6.693,0,7.486c-0.251,2.533-2.021,5.143-3.748,7.334
					c1.004,0.333,3.345,1.117,4.186,1.117c0,0,2.529-0.268,3.516-0.432c-0.542-1.326-0.289-2.466,0.01-4.345
					C44.701,29.614,45,27.709,45,25.427c0-6.802-1.404-11.156-5.16-14.099c-0.309-0.242-1.248-0.986-2.045-0.986
					c-0.191,0-0.36,0.041-0.517,0.133l-0.944,0.55l-0.466-0.99C35.555,9.367,34.358,9,32.5,9C21.756,9,20,17.643,20,25.398
					c0,2.281,0.303,4.154,0.545,5.659c0.304,1.883,0.56,2.968,0.006,4.303c1.047,0.173,2.967,0.313,2.967,0.313
					c0.886,0,3.81-1.342,3.876-1.312c-1.574-1.929-3.606-3.937-3.892-6.916c-0.088-0.924,0.314-9.327,0.314-9.327l1.108,0.526
					c1.024,0.887,2.261,0.855,3.575,0.855c2.453,0,3.664-0.516,5.196-1.17c1.343-0.572,2.863-1.221,5.526-1.65
					C39.223,16.68,40.75,18.188,40.498,19.961z"/>
			</g>
		</g>
	</g>
	<g>
		<g>
			<g>
				<circle fill="#ECEFF1" cx="45.5" cy="55" r="3"/>
			</g>
			<g>
				<g>
					<g>
						<circle fill="#CFD8DC" cx="45.5" cy="55" r="1"/>
					</g>
				</g>
			</g>
		</g>
		<g>
			<g>
				<g>
					<path fill="#CFD8DC" d="M20.5,58.5c0-0.55,0.45-1,1-1l0,0c0.55,0,1,0.45,1,1l0,0c0,0.55-0.45,1-1,1l0,0
						C20.95,59.5,20.5,59.05,20.5,58.5L20.5,58.5z"/>
				</g>
			</g>
		</g>
		<g>
			<g>
				<g>
					<path fill="#CFD8DC" d="M14.5,58.5c0-0.55,0.45-1,1-1l0,0c0.55,0,1,0.45,1,1l0,0c0,0.55-0.45,1-1,1l0,0
						C14.95,59.5,14.5,59.05,14.5,58.5L14.5,58.5z"/>
				</g>
			</g>
		</g>
	</g>
	<g id="female_x2C__woman_x2C__doctor_1_">
		<path fill="#37474F" d="M31.886,55.838h-0.234l-0.187-0.197l-8.295-9.867l1.792-1.662l-2.825-1.558l0.097-3.01l5.284-1.454
			l4.968,17.287l-0.309,0.44L31.886,55.838z M24.549,45.859l6.322,7.521L26.83,39.316l-3.62,0.997l-0.054,1.66l3.499,1.929
			L24.549,45.859z"/>
		<path fill="#37474F" d="M32.112,55.837h-0.249l-0.341-0.417l0.06-0.282l4.71-16.887l0.5-0.036l4.81,1.323l0.037,0.428l0.083,2.571
			l-0.313,0.188l-2.512,1.386l1.74,1.616l-0.27,0.429l-7.982,9.662L32.112,55.837z M37.033,39.317l-3.919,14.049l6.2-7.503
			l-1.738-1.615l0.042-0.546l0.247-0.163l2.838-1.565l-0.054-1.66L37.033,39.317z"/>
		<g>
			<g>
				<path fill="#37474F" d="M36.733,38.717L37,38.79v-4.601c-0.321,0.34-0.657,0.648-1,0.937v6.034l0.672-2.409
					C36.68,38.725,36.707,38.709,36.733,38.717z"/>
			</g>
			<g>
				<path fill="#37474F" d="M28,41.578v-6.452c-0.343-0.288-0.679-0.597-1-0.937v4.562l0.174-0.048L28,41.578z"/>
			</g>
		</g>
		<g>
			<g>
				<path fill="#37474F" d="M45.5,24.398c0-6.045-0.953-11.275-5.543-14.872c-0.499-0.392-1.566-1.192-2.662-1.192
					c-0.343,0-0.689,0.079-1.021,0.273C35.792,7.584,34.459,7,32,7c-11,0-13.5,8.398-13.5,17.398c0,6,1.979,9.021,0,11
					c0.556,0.556,3.766,0.764,4.502,0.774c0.021,0,0.043,0.001,0.064,0.001c1.869,0,4.78-1.211,4.92-1.27
					c-0.646-0.088-0.695-0.465-1.299-0.631c-0.994,0.324-2.784,0.899-3.67,0.899h-0.001c-0.824-0.012-1.919-0.14-2.966-0.313
					c0.554-1.335,0.298-2.92-0.006-4.803c-0.242-1.505-0.545-3.378-0.545-5.659C19.5,16.643,21.256,8,32,8
					c1.858,0,3.055,0.367,3.368,1.033l0.466,0.989l0.944-0.552c0.156-0.092,0.325-0.137,0.517-0.137
					c0.797,0,1.736,0.737,2.045,0.979c3.756,2.942,5.16,7.282,5.16,14.085c0,2.282-0.299,4.159-0.539,5.667
					c-0.299,1.879-0.552,3.463-0.01,4.789c-0.986,0.164-1.979,0.295-2.938,0.318l-0.077,0.001c-0.857,0-2.76-0.7-3.748-1.025
					c-0.428,0.231-0.175,0.804-0.648,0.964c0.952,0.363,2.969,1.062,4.396,1.062c0.034,0,0.068,0,0.102-0.001
					c0.722-0.018,3.917-0.229,4.463-0.774C43.543,33.441,45.5,30.398,45.5,24.398z"/>
			</g>
		</g>
		<g>
			<path fill="#37474F" d="M39.206,16.258l-0.271-0.119l-0.292,0.047c-2.724,0.439-4.274,1.102-5.644,1.686
				C31.521,18.502,30.352,19,28,19c-1.191,0-2.314-0.427-3.248-1.234l-1.216-1.051c0,0-0.599,2.129-0.536,3.285v6.398
				c0,4.971,4.917,11,9,11s9-6.029,9-11V20C41,19.313,41.25,17.063,39.206,16.258z M40,26.398c0,4.393-4.486,10-8,10s-8-5.607-8-10
				V20c0-0.494,0.063-0.971,0.151-1.438C25.195,19.445,26.523,20,28,20c4.75,0,5.168-1.917,10.803-2.827
				C40.094,17.719,40.125,18.594,40,20V26.398z"/>
		</g>
		<g>
			<path fill="#37474F" d="M18.031,42.922c0.827-0.293,1.688-0.598,2.568-0.909c0.758-0.269,1.471-0.521,2.15-0.762v-1.062
				c-0.852,0.303-1.694,0.602-2.483,0.88c-0.674,0.238-1.338,0.474-1.984,0.702C18.16,42.14,18.072,42.524,18.031,42.922z"/>
			<path fill="#37474F" d="M19,46.5h-1v-3c0-3.584,2.916-6.5,6.5-6.5H26v1h-1.5c-3.032,0-5.5,2.468-5.5,5.5V46.5z"/>
			<g>
				<path fill="#37474F" d="M54.446,47.774c-0.552-1.092-2.952-3.719-4.083-4.143c-1.439-0.539-3.372-1.24-5.442-1.991
					c-0.068-0.024-0.146-0.054-0.216-0.078c0.115,0.37,0.194,0.756,0.242,1.152c1.925,0.697,3.715,1.348,5.064,1.853
					c0.732,0.275,2.694,2.325,3.385,3.391c-1.668,2.092-3.562,3.795-5.704,5.145c0.179,0.285,0.281,0.615,0.31,0.955
					c2.436-1.489,4.563-3.397,6.393-5.751l0.194-0.25L54.446,47.774z"/>
				<path fill="#37474F" d="M43.443,41.104c-0.768-0.279-1.556-0.565-2.36-0.86v1.064c0.856,0.313,1.796,0.655,2.787,1.015
					C43.776,41.896,43.63,41.488,43.443,41.104z"/>
			</g>
			<path fill="#37474F" d="M46,54h-1V43.5c0-3.032-2.468-5.5-5.5-5.5H38v-1h1.5c3.584,0,6.5,2.916,6.5,6.5V54z"/>
			<g>
				<path fill="#37474F" d="M13.521,51.008v1.27c2.407,1.953,5.157,3.423,8.314,4.368C21.932,56.448,22,56.234,22,56v-0.324
					C18.739,54.694,15.942,53.142,13.521,51.008z"/>
				<path fill="#37474F" d="M12.262,49.827c-0.576-0.591-1.135-1.211-1.666-1.878c0.674-1.175,2.216-3.13,2.893-3.384
					c0.972-0.364,2.184-0.803,3.522-1.28c0.013-0.377,0.051-0.748,0.125-1.106c-1.528,0.544-2.911,1.042-3.999,1.451
					c-1.21,0.453-3.137,3.258-3.583,4.146l-0.143,0.282l0.194,0.249c0.754,0.971,1.564,1.857,2.421,2.681
					C12.063,50.587,12.144,50.198,12.262,49.827z"/>
			</g>
			<path fill="#37474F" d="M18.5,46c-3.032,0-5.5,2.468-5.5,5.5V56c0,1.043,0.642,1.936,1.55,2.311
				c0.036-0.381,0.263-0.725,0.677-0.838C14.53,57.344,14,56.733,14,56v-4.5c0-2.481,2.019-4.5,4.5-4.5s4.5,2.019,4.5,4.5V56
				c0,0.632-0.394,1.17-0.947,1.392c0.229,0.261,0.289,0.643,0.2,0.979C23.263,58.05,24,57.115,24,56v-4.5
				C24,48.468,21.532,46,18.5,46z"/>
			<g>
				<g>
					<path fill="#37474F" d="M41.072,55.907C38.36,56.623,35.365,57,32,57c-3.236,0-6.14-0.337-8.771-0.997v1
						C25.894,57.658,28.803,58,32,58c3.462,0,6.579-0.411,9.416-1.181C41.266,56.533,41.14,56.232,41.072,55.907z"/>
				</g>
				<g>
					<path fill="#37474F" d="M45.5,58.5c-1.93,0-3.5-1.57-3.5-3.5s1.57-3.5,3.5-3.5S49,53.07,49,55S47.43,58.5,45.5,58.5z
						 M45.5,52.5c-1.379,0-2.5,1.121-2.5,2.5s1.121,2.5,2.5,2.5S48,56.379,48,55S46.879,52.5,45.5,52.5z"/>
				</g>
				<g>
					<g>
						<g>
							<path fill="#37474F" d="M45.5,56.5c-0.827,0-1.5-0.673-1.5-1.5s0.673-1.5,1.5-1.5S47,54.173,47,55S46.327,56.5,45.5,56.5z
								 M45.5,54.5c-0.275,0-0.5,0.225-0.5,0.5s0.225,0.5,0.5,0.5S46,55.275,46,55S45.775,54.5,45.5,54.5z"/>
						</g>
					</g>
				</g>
			</g>
			<g>
				<g>
					<g>
						<path fill="#37474F" d="M21.5,57c0.827,0,1.5,0.673,1.5,1.5S22.327,60,21.5,60S20,59.327,20,58.5S20.673,57,21.5,57z M21.5,59
							c0.275,0,0.5-0.224,0.5-0.5c0-0.275-0.225-0.5-0.5-0.5S21,58.225,21,58.5C21,58.776,21.225,59,21.5,59z"/>
					</g>
				</g>
			</g>
			<g>
				<g>
					<g>
						<path fill="#37474F" d="M15.5,57c0.827,0,1.5,0.673,1.5,1.5S16.327,60,15.5,60S14,59.327,14,58.5S14.673,57,15.5,57z M15.5,59
							c0.275,0,0.5-0.224,0.5-0.5c0-0.275-0.225-0.5-0.5-0.5S15,58.225,15,58.5C15,58.776,15.225,59,15.5,59z"/>
					</g>
				</g>
			</g>
		</g>
	</g>
</g>
</svg>
