<?xml version="1.0" encoding="utf-8"?>
<!-- Generator: Adobe Illustrator 16.0.0, SVG Export Plug-In . SVG Version: 6.00 Build 0)  -->
<!DOCTYPE svg PUBLIC "-//W3C//DTD SVG 1.1//EN" "http://www.w3.org/Graphics/SVG/1.1/DTD/svg11.dtd">
<svg version="1.1" id="_x3C_Layer_x3E_" xmlns="http://www.w3.org/2000/svg" xmlns:xlink="http://www.w3.org/1999/xlink" x="0px"
	 y="0px" width="64px" height="64px" viewBox="0 0 64 64" enable-background="new 0 0 64 64" xml:space="preserve">
<g id="mobile_app">
	<g id="phone_2_">
		<g>
			<g>
				<g>
					<g>
						<g>
							<g>
								<g>
									<path fill="#FFFFFF" d="M21,58.5c-2.481,0-4-2.019-4-4.5V10c0-2.481,1.519-4.5,4-4.5h22c2.481,0,4.5,2.019,4.5,4.5v44
										c0,2.481-2.019,4.5-4.5,4.5H21z"/>
								</g>
							</g>
						</g>
					</g>
				</g>
			</g>
		</g>
		<g>
			<path fill="#CFD8DC" d="M21.5,56c-1.925,0-3.5-1.575-3.5-3.5v-42C18,8.575,19.575,7,21.5,7h21c1.925,0,3.5,1.575,3.5,3.5v42
				c0,1.925-1.575,3.5-3.5,3.5H21.5z"/>
		</g>
		<g>
			<g>
				<g>
					<g>
						<g>
							<g>
								<g>
									<rect x="27" y="8" fill="#37474F" width="10" height="1"/>
								</g>
							</g>
						</g>
					</g>
				</g>
			</g>
		</g>
	</g>
	<g>
		<g>
			<path fill="#37474F" d="M43,5H21c-2.75,0-5,2.25-5,5v6.775c0.34,0.086,0.675,0.187,1,0.313V10c0-2.205,1.794-4,4-4h22
				c2.206,0,4,1.795,4,4v44c0,2.205-1.794,4-4,4H21c-2.206,0-4-1.795-4-4V29h-1v25c0,2.75,2.25,5,5,5h22c2.75,0,5-2.25,5-5V10
				C48,7.25,45.75,5,43,5z"/>
		</g>
	</g>
	<g>
		<g>
			<g>
				<path fill="#FFFFFF" d="M25.793,18c-2.48,0-4.668,1.254-5.965,3.162C18.532,19.254,16.343,18,13.864,18
					c-3.982,0-7.208,3.226-7.208,7.208c0,8.449,13.172,16.396,13.172,16.396S32,33.657,32,25.208C32,21.226,29.774,18,25.793,18z"/>
			</g>
		</g>
		<g>
			<g>
				<g>
					<path fill="#FF8A80" d="M32.5,25.208c0-2.488-1.365-4.66-3.381-5.818C28.388,19.142,27.608,19,26.793,19
						c-2.48,0-4.668,1.254-5.965,3.162c-0.175-0.258-0.369-0.501-0.575-0.733c-0.003,0.005-0.008,0.01-0.011,0.015l-0.414,0.608
						l-0.414-0.609c-0.581-0.855-1.344-1.542-2.212-2.042C16.467,19.148,15.684,19,14.864,19c-3.982,0-7.208,3.226-7.208,7.208
						c0,1.198,0.271,2.384,0.726,3.541c2.888,5.62,9.998,10.344,11.446,11.265C21.652,39.853,32.5,32.635,32.5,25.208z"/>
				</g>
			</g>
		</g>
		<g>
			<g>
				<g>
					<path fill="#FF5252" d="M29.119,19.391C28.388,19.142,27.608,19,26.793,19c-0.354,0-0.701,0.032-1.042,0.082
						c0.47,0.064,0.93,0.159,1.368,0.309c2.017,1.158,3.381,3.33,3.381,5.818c0,7.427-8.848,14.645-10.672,15.806
						C21.652,39.853,32.5,32.635,32.5,25.208C32.5,22.72,31.135,20.549,29.119,19.391z"/>
				</g>
			</g>
		</g>
	</g>
	<g>
		<g>
			<path fill="#37474F" d="M31.146,30c-2.967,5.508-9.893,10.107-11.318,11.014C18.001,39.853,7.156,32.64,7.156,25.208
				c0-3.699,3.009-6.708,6.708-6.708c2.224,0,4.299,1.1,5.55,2.943l0.414,0.609l0.414-0.608c1.252-1.843,3.328-2.943,5.552-2.943
				c3.698,0,6.707,3.009,6.707,6.708c0,1.28-0.328,2.554-0.871,3.792h1.089c0.49-1.232,0.781-2.503,0.781-3.792
				c0-4.25-3.458-7.708-7.707-7.708c-2.324,0-4.506,1.045-5.965,2.827c-1.457-1.782-3.64-2.827-5.964-2.827
				c-4.25,0-7.708,3.458-7.708,7.708c0,8.632,12.866,16.493,13.414,16.824l0.258,0.156l0.258-0.156
				C20.53,41.765,29.052,36.556,32.277,30H31.146z"/>
		</g>
	</g>
	<g>
		<g>
			<path fill="#FFFFFF" d="M43.938,31h-3.076c-0.189,0-0.358-0.106-0.443-0.268l-1.158,6.351c-0.043,0.238-0.251,0.41-0.492,0.41
				c-0.005,0-0.011,0-0.017,0c-0.248-0.008-0.452-0.196-0.48-0.442l-1.178-10.234l-0.971,5.462c-0.039,0.221-0.221,0.389-0.445,0.41
				c-0.213,0.027-0.434-0.108-0.514-0.319l-0.639-1.676l-0.015,0.029C34.427,30.893,34.253,31,34.063,31h-9.228
				c-0.189,0-0.357-0.105-0.442-0.267l-1.158,6.35c-0.043,0.238-0.251,0.41-0.492,0.41c-0.005,0-0.011,0-0.017,0
				c-0.248-0.008-0.452-0.196-0.48-0.442l-1.178-10.234l-0.971,5.462c-0.039,0.221-0.221,0.389-0.445,0.41
				c-0.216,0.027-0.434-0.108-0.514-0.319L18.5,30.693l-0.015,0.029C18.401,30.893,18.228,31,18.038,31H12
				c-0.276,0-0.5,0.224-0.5,0.5S11.724,32,12,32h5.928l0.276,0.724c0.22,0.579,0.78,0.968,1.395,0.968
				c0.031,0,0.117-0.005,0.148-0.008c0.42-0.04,0.793-0.253,1.042-0.57l0.466,4.051c0.084,0.733,0.705,1.304,1.39,1.325
				c0.751,0.063,1.44-0.486,1.576-1.227L25.179,32h8.774l0.277,0.726c0.221,0.578,0.781,0.966,1.394,0.966
				c0.031,0,0.117-0.005,0.147-0.008c0.42-0.04,0.793-0.253,1.042-0.57l0.466,4.051c0.084,0.733,0.705,1.304,1.39,1.325
				c0.028,0.002,0.072,0.004,0.1,0.004c0.725,0,1.345-0.518,1.476-1.231L41.205,32h2.733c0.276,0,0.5-0.224,0.5-0.5
				S44.214,31,43.938,31z"/>
		</g>
	</g>
	<g>
		<g>
			<g>
				<path fill="#37474F" d="M38.77,37.493c-0.005,0-0.011,0-0.017,0c-0.248-0.008-0.452-0.196-0.48-0.442l-1.178-10.234
					l-0.971,5.462c-0.039,0.221-0.221,0.389-0.445,0.41c-0.22,0.023-0.434-0.109-0.514-0.319l-0.639-1.676l-0.015,0.029
					C34.427,30.893,34.253,31,34.063,31H26c-0.276,0-0.5-0.224-0.5-0.5S25.724,30,26,30h7.753l0.385-0.774
					c0.088-0.177,0.263-0.297,0.472-0.277c0.198,0.01,0.372,0.136,0.443,0.321l0.402,1.056l1.253-7.049
					c0.043-0.245,0.263-0.433,0.507-0.413c0.248,0.008,0.453,0.196,0.481,0.443l1.184,10.285l0.965-5.295
					c0.042-0.231,0.241-0.402,0.476-0.41c0.247,0.007,0.444,0.151,0.501,0.38L41.253,30H44c0.276,0,0.5,0.224,0.5,0.5
					S44.276,31,44,31h-3.138c-0.189,0-0.358-0.106-0.443-0.268l-1.158,6.351C39.218,37.321,39.011,37.493,38.77,37.493z"/>
			</g>
		</g>
		<g>
			<g>
				<path fill="#37474F" d="M22.744,37.493c-0.005,0-0.011,0-0.017,0c-0.248-0.008-0.452-0.196-0.48-0.442l-1.178-10.234
					l-0.971,5.462c-0.039,0.221-0.221,0.389-0.445,0.41c-0.215,0.023-0.434-0.109-0.514-0.319L18.5,30.693l-0.015,0.029
					C18.401,30.893,18.228,31,18.038,31H12c-0.276,0-0.5-0.224-0.5-0.5S11.724,30,12,30h5.728l0.385-0.774
					c0.088-0.177,0.264-0.297,0.472-0.277c0.198,0.01,0.372,0.136,0.443,0.321l0.402,1.056l1.253-7.049
					c0.043-0.245,0.261-0.433,0.507-0.413c0.248,0.008,0.453,0.196,0.481,0.443l1.184,10.285l0.965-5.295
					c0.042-0.232,0.241-0.402,0.476-0.41c0.257-0.003,0.445,0.151,0.501,0.38L25.228,30H32c0.276,0,0.5,0.224,0.5,0.5
					S32.276,31,32,31h-7.164c-0.189,0-0.357-0.105-0.442-0.267l-1.158,6.35C23.192,37.321,22.985,37.493,22.744,37.493z"/>
			</g>
		</g>
	</g>
</g>
</svg>
