<?xml version="1.0" encoding="utf-8"?>
<!-- Generator: Adobe Illustrator 16.0.0, SVG Export Plug-In . SVG Version: 6.00 Build 0)  -->
<!DOCTYPE svg PUBLIC "-//W3C//DTD SVG 1.1//EN" "http://www.w3.org/Graphics/SVG/1.1/DTD/svg11.dtd">
<svg version="1.1" id="_x3C_Layer_x3E_" xmlns="http://www.w3.org/2000/svg" xmlns:xlink="http://www.w3.org/1999/xlink" x="0px"
	 y="0px" width="64px" height="64px" viewBox="0 0 64 64" enable-background="new 0 0 64 64" xml:space="preserve">
<g id="Electrocardiographs">
	<g>
		<g>
			<g>
				<g>
					<g>
						<path fill="#CFD8DC" d="M59.5,48.5c0,1.1-0.9,2-2,2h-31c-1.1,0-2-0.9-2-2v-27c0-1.1,0.9-2,2-2h31c1.1,0,2,0.9,2,2V48.5z"/>
					</g>
				</g>
			</g>
			<g>
				<g>
					<g>
						<path fill="#37474F" d="M57.5,51h-31c-1.379,0-2.5-1.122-2.5-2.5v-27c0-1.378,1.121-2.5,2.5-2.5h31c1.379,0,2.5,1.122,2.5,2.5
							v27C60,49.878,58.879,51,57.5,51z M26.5,20c-0.827,0-1.5,0.673-1.5,1.5v27c0,0.827,0.673,1.5,1.5,1.5h31
							c0.827,0,1.5-0.673,1.5-1.5v-27c0-0.827-0.673-1.5-1.5-1.5H26.5z"/>
					</g>
				</g>
			</g>
		</g>
		<g>
			<g>
				<g>
					<g>
						<g>
							<path fill="#FFFFFF" d="M59.5,44.5c0,1.1-0.9,2-2,2h-31c-1.1,0-2-0.9-2-2v-29c0-1.1,0.9-2,2-2h31c1.1,0,2,0.9,2,2V44.5z"/>
						</g>
					</g>
				</g>
			</g>
			<g>
				<g>
					<g>
						<path fill="#ECEFF1" d="M59,16.5c0-0.827-0.673-1.5-1.5-1.5h-31c-0.827,0-1.5,0.673-1.5,1.5v28c0,0.827,0.673,1.5,1.5,1.5h31
							c0.827,0,1.5-0.673,1.5-1.5V16.5z"/>
					</g>
				</g>
			</g>
			<g>
				<g>
					<g>
						<g>
							<path fill="#37474F" d="M57.5,47h-31c-1.379,0-2.5-1.122-2.5-2.5v-29c0-1.378,1.121-2.5,2.5-2.5h31
								c1.379,0,2.5,1.122,2.5,2.5v29C60,45.878,58.879,47,57.5,47z M26.5,14c-0.827,0-1.5,0.673-1.5,1.5v29
								c0,0.827,0.673,1.5,1.5,1.5h31c0.827,0,1.5-0.673,1.5-1.5v-29c0-0.827-0.673-1.5-1.5-1.5H26.5z"/>
						</g>
					</g>
				</g>
			</g>
		</g>
		<g>
			<g>
				<g>
					<rect x="38.5" y="17.5" fill="#B2FF59" width="18" height="13"/>
				</g>
			</g>
			<g>
				<g>
					<path fill="#37474F" d="M57,31H38V17h19V31z M39,30h17V18H39V30z"/>
				</g>
			</g>
		</g>
		<g>
			<g>
				<g>
					<rect x="38.5" y="33.5" fill="#ECEFF1" width="18" height="9"/>
				</g>
			</g>
			<g>
				<g>
					<path fill="#37474F" d="M57,43H38V33h19V43z M39,42h17v-8H39V42z"/>
				</g>
			</g>
		</g>
		<g>
			<g>
				<g>
					<g>
						<g>
							<path fill="#FFFFFF" d="M4,25v26h14c1.381,0,2-1.619,2-3V25H4z"/>
						</g>
					</g>
				</g>
				<g>
					<g>
						<g>
							<path fill="#FF8A80" d="M4,26v24h14c1.381,0,2-0.619,2-2V26H4z"/>
						</g>
					</g>
				</g>
				<g>
					<g>
						<g>
							<path fill="#37474F" d="M20,44.5V48c0,1.103-0.897,2-2,2H5V25h9.083v-1H4v27h14c1.654,0,3-1.346,3-3v-3.5H20z"/>
						</g>
					</g>
				</g>
			</g>
			<g>
				<g>
					<g>
						<g>
							<path fill="#FFFFFF" d="M11.5,43c0-1.381,1.119-2.5,2.5-2.5h19c1.381,0,2.5,1.119,2.5,2.5V20c0-1.381-1.119-2.5-2.5-2.5H14
								c-1.381,0-2.5,1.119-2.5,2.5V43z"/>
						</g>
					</g>
				</g>
				<g>
					<g>
						<g>
							<path fill="#37474F" d="M36,43h-1c0-1.103-0.897-2-2-2H14c-1.103,0-2,0.897-2,2h-1V20c0-1.654,1.346-3,3-3h19
								c1.654,0,3,1.346,3,3V43z M14,40h19c0.768,0,1.469,0.29,2,0.766V20c0-1.103-0.897-2-2-2H14c-1.103,0-2,0.897-2,2v20.766
								C12.531,40.29,13.232,40,14,40z"/>
						</g>
					</g>
				</g>
				<g>
					<g>
						<g>
							<path fill="#FF8A80" d="M33,40c0.768,0,1.469,0.29,2,0.766V21c0-1.103-0.897-2-2-2H14c-1.103,0-2,0.897-2,2v19.766
								C12.531,40.29,13.232,40,14,40H33z"/>
						</g>
					</g>
				</g>
			</g>
			<g>
				<g>
					<path fill="#FF5252" d="M18.25,45.5c1.242,0,1.75,1.119,1.75,2.5v-7.5h-6c-1.381,0-2.5,1.119-2.5,2.5s1.119,2.5,2.5,2.5
						C14,45.5,17.008,45.5,18.25,45.5z"/>
				</g>
			</g>
		</g>
	</g>
	<g>
		<g>
			<circle fill="#ECEFF1" cx="52" cy="38" r="2.5"/>
		</g>
		<g>
			<path fill="#37474F" d="M52,41c-1.654,0-3-1.346-3-3s1.346-3,3-3s3,1.346,3,3S53.654,41,52,41z M52,36c-1.103,0-2,0.897-2,2
				s0.897,2,2,2s2-0.897,2-2S53.103,36,52,36z"/>
		</g>
	</g>
	<g>
		<g>
			<circle fill="#37474F" cx="52" cy="38" r="1"/>
		</g>
	</g>
	<g>
		<g>
			<rect x="44" y="38" fill="#FFFFFF" width="3" height="1"/>
		</g>
	</g>
	<g>
		<g>
			<rect x="40" y="38" fill="#FFFFFF" width="3" height="1"/>
		</g>
	</g>
	<g>
		<g>
			<rect x="44" y="35" fill="#FFFFFF" width="3" height="1"/>
		</g>
	</g>
	<g>
		<g>
			<rect x="40" y="35" fill="#FFFFFF" width="3" height="1"/>
		</g>
	</g>
	<g>
		<g>
			<rect x="44" y="39" fill="#37474F" width="3" height="1"/>
		</g>
	</g>
	<g>
		<g>
			<rect x="40" y="39" fill="#37474F" width="3" height="1"/>
		</g>
	</g>
	<g>
		<g>
			<rect x="44" y="36" fill="#37474F" width="3" height="1"/>
		</g>
	</g>
	<g>
		<g>
			<rect x="40" y="36" fill="#37474F" width="3" height="1"/>
		</g>
	</g>
	<g>
		<g>
			<path fill="#37474F" d="M48.131,29.064c-0.006,0-0.012,0-0.018,0c-0.247-0.008-0.451-0.196-0.479-0.442l-0.66-5.727l-0.458,2.591
				c-0.039,0.22-0.219,0.388-0.441,0.411c-0.22,0.019-0.432-0.105-0.516-0.313l-0.275-0.693C45.196,24.959,45.086,25,44.97,25H39
				c-0.276,0-0.5-0.224-0.5-0.5S38.724,24,39,24h5.634l0.225-0.553c0.076-0.188,0.26-0.312,0.463-0.312
				c0.168,0.028,0.389,0.125,0.465,0.315l0.051,0.128l0.748-4.235c0.043-0.245,0.244-0.426,0.507-0.413
				c0.248,0.008,0.453,0.196,0.482,0.443l0.674,5.844l0.445-2.378c0.043-0.233,0.245-0.404,0.482-0.408
				c0.236,0.01,0.444,0.159,0.497,0.391L49.936,24H56c0.276,0,0.5,0.224,0.5,0.5S56.276,25,56,25h-6.465
				c-0.078,0-0.152-0.018-0.22-0.051l-0.693,3.707C48.578,28.893,48.371,29.064,48.131,29.064z"/>
		</g>
	</g>
	<g>
		<g>
			<path fill="#37474F" d="M24,35.488c-0.006,0-0.012,0-0.018,0c-0.247-0.008-0.451-0.196-0.479-0.442l-0.992-8.61l-0.788,4.45
				c-0.039,0.22-0.22,0.388-0.442,0.41c-0.219,0.021-0.433-0.106-0.516-0.315l-0.483-1.235C20.193,29.902,20.027,30,19.846,30H12
				c-0.276,0-0.5-0.224-0.5-0.5S11.724,29,12,29h7.519l0.331-0.758c0.08-0.185,0.267-0.282,0.468-0.3
				c0.202,0.004,0.382,0.129,0.456,0.317l0.274,0.701l1.075-6.072c0.043-0.245,0.246-0.413,0.507-0.413
				c0.249,0.008,0.454,0.196,0.482,0.443l1.003,8.702l0.778-4.199c0.043-0.232,0.243-0.403,0.48-0.409c0.003,0,0.007,0,0.011,0
				c0.232,0,0.435,0.16,0.487,0.387l0.371,1.6H35c0.276,0,0.5,0.224,0.5,0.5S35.276,30,35,30h-9.154
				c-0.15,0-0.288-0.067-0.381-0.176l-0.974,5.255C24.447,35.316,24.24,35.488,24,35.488z"/>
		</g>
	</g>
	<g>
		<path fill="#37474F" d="M20,42v3.688C19.524,45.258,18.914,45,18.25,45H14c-1.103,0-2-0.897-2-2s0.897-2,2-2h6h1v-1h-7
			c-1.654,0-3,1.346-3,3s1.346,3,3,3h4.25c0.965,0,1.75,0.897,1.75,2h1v-6H20z"/>
	</g>
</g>
</svg>
