<?xml version="1.0" encoding="utf-8"?>
<!-- Generator: Adobe Illustrator 16.0.0, SVG Export Plug-In . SVG Version: 6.00 Build 0)  -->
<!DOCTYPE svg PUBLIC "-//W3C//DTD SVG 1.1//EN" "http://www.w3.org/Graphics/SVG/1.1/DTD/svg11.dtd">
<svg version="1.1" id="_x3C_Layer_x3E_" xmlns="http://www.w3.org/2000/svg" xmlns:xlink="http://www.w3.org/1999/xlink" x="0px"
	 y="0px" width="64px" height="64px" viewBox="0 0 64 64" enable-background="new 0 0 64 64" xml:space="preserve">
<g id="health_care_1_">
	<g>
		<g>
			<g>
				<path fill="#FFFFFF" d="M38.896,5.708c-2.868,0-5.397,1.449-6.896,3.656c-1.499-2.207-4.028-3.656-6.896-3.656
					c-4.603,0-8.333,3.73-8.333,8.334C16.77,23.812,32,33,32,33s15.23-9.188,15.23-18.958C47.23,9.438,43.5,5.708,38.896,5.708z"/>
			</g>
			<g>
				<path fill="#FF8A80" d="M32.73,33c1.989-1.261,14.73-9.683,14.73-18.369c0-4.32-3.514-7.834-7.833-7.834
					c-2.598,0-5.021,1.285-6.483,3.437l-0.414,0.609l-0.414-0.609c-1.462-2.152-3.885-3.437-6.483-3.437
					c-4.319,0-7.833,3.514-7.833,7.834C18,23.317,30.741,31.739,32.73,33z"/>
			</g>
			<g>
				<g>
					<path fill="#FF5252" d="M39.626,6.797c-0.61,0-1.209,0.077-1.79,0.213c4.222,0.112,7.624,3.574,7.624,7.823
						c0,7.639-9.852,15.071-13.58,17.61c0.368,0.247,0.659,0.435,0.85,0.556c1.989-1.261,14.73-9.683,14.73-18.369
						C47.46,10.312,43.946,6.797,39.626,6.797z"/>
				</g>
			</g>
			<g>
				<path fill="#37474F" d="M32,33.584l-0.258-0.156C31.11,33.047,16.27,23.979,16.27,14.042c0-4.871,3.963-8.834,8.833-8.834
					c2.696,0,5.226,1.227,6.896,3.314c1.671-2.087,4.201-3.314,6.896-3.314c4.871,0,8.833,3.963,8.833,8.834
					c0,9.938-14.84,19.005-15.472,19.386L32,33.584z M25.104,6.208c-4.319,0-7.833,3.514-7.833,7.834
					c0,8.686,12.741,17.107,14.73,18.369c1.989-1.261,14.73-9.683,14.73-18.369c0-4.32-3.514-7.834-7.833-7.834
					c-2.598,0-5.021,1.285-6.483,3.437L32,10.253l-0.414-0.609C30.125,7.493,27.701,6.208,25.104,6.208z"/>
			</g>
		</g>
	</g>
	<g id="money_saving_1_">
		<g>
			<g>
				<path fill="#FFFFFF" d="M35.5,50.5V44c0-2.762,0.211-5.918,2.73-8.437c1.475-1.475,2.955-2.424,4.19-2.691l3.553-3.552
					c1.41-1.41,2.775-2.125,4.058-2.125c0.877,0,1.588,0.328,2.141,0.717l-0.141-0.131l0.156-0.332
					c0.299-0.634,0.313-1.447,0.313-1.455c0.008-0.171,0.174-3.827,0.561-5.752c0.342-1.7,1.491-2.715,3.074-2.715
					c1.143,0,2.365,0.592,2.365,1.473v8c0,0.609-0.16,1.536-0.365,2.11l-2.73,7.663c-0.213,0.597-0.752,1.392-1.227,1.811
					l-7.072,7.107C46.771,45.986,46.5,46.588,46.5,47v3.5H35.5z"/>
			</g>
			<g>
				<path fill="#FFE0B2" d="M39.584,36.417C37.102,38.898,37,42.151,37,44.5v6h9.5v-3c0-0.553,0.336-1.296,0.75-1.661l7.097-7.13
					c0.415-0.365,0.901-1.083,1.087-1.604l2.73-7.663c0.186-0.521,0.336-1.39,0.336-1.942v-8c0-0.48-0.379-0.973-1.365-0.973
					c-1.055,0-2.232,0.564-2.584,2.313C54.167,22.75,54,26.5,54,26.5s-0.01,0.916-0.36,1.662L53,29.125
					c-0.48-0.445-0.391-0.93-1.969-0.93c-0.99,0-2.217,0.49-3.704,1.979l-3.661,3.66C42.635,34.01,41.207,34.794,39.584,36.417z"/>
			</g>
			<g>
				<g>
					<path fill="#E6CAA0" d="M51.868,28.209c0.297,0.267,0.532,0.524,0.7,0.681l-7.854,7.854l0.693,0.691l8.092-8.311
						C53.059,28.716,53.083,28.278,51.868,28.209z"/>
				</g>
				<g>
					<path fill="#E6CAA0" d="M56.885,18.527c-0.044,0,0.16,0.007,0.115,0.01V26.5c0,0.553-0.15,1.422-0.336,1.942l-2.73,7.663
						c-0.186,0.521-0.672,1.238-1.087,1.604l-7.097,7.13C45.336,45.204,45,45.947,45,46.5V50h-8v1h9v-3.5
						c0-0.553,0.586-1.296,1-1.661l7.222-7.13c0.415-0.365,0.964-1.083,1.149-1.604l2.512-7.663C58.068,28.922,58,28.053,58,27.5v-8
						C58,19.02,57.871,18.527,56.885,18.527z"/>
				</g>
			</g>
			<g>
				<path fill="#37474F" d="M56.135,18.027C57.121,18.027,58,18.52,58,19v8c0,0.553-0.15,1.422-0.336,1.942l-2.73,7.663
					c-0.186,0.521-0.672,1.238-1.087,1.604l-7.097,7.13C46.336,45.704,46,46.447,46,47v3H36v-6c0-2.349,0.102-5.602,2.584-8.083
					c1.623-1.623,3.051-2.407,4.082-2.583l3.661-3.66c1.487-1.488,2.714-1.979,3.704-1.979c1.578,0,2.557,1.249,3.037,1.694
					l-7.854,7.854l0.693,0.691l8.576-8.577l-1.845-1.696C52.99,26.916,53,26,53,26s0.167-3.75,0.551-5.659
					C53.902,18.592,55.08,18.027,56.135,18.027L56.135,18.027z M56.135,17.027c-1.42,0-3.103,0.818-3.564,3.116
					c-0.395,1.962-0.563,5.655-0.569,5.812c-0.004,0.208-0.049,0.729-0.212,1.153c-0.5-0.243-1.086-0.413-1.758-0.413
					c-1.42-0.001-2.904,0.764-4.411,2.271l-3.451,3.451c-1.31,0.325-2.785,1.284-4.292,2.792C35,38.086,35,41.933,35,44v6v1h1h10h1
					v-1v-3c0-0.267,0.211-0.734,0.412-0.911l0.023-0.021l0.023-0.023l7.076-7.108c0.531-0.479,1.104-1.329,1.34-1.994l2.73-7.663
					C58.83,28.648,59,27.669,59,27v-8C59,17.781,57.513,17.027,56.135,17.027L56.135,17.027z"/>
			</g>
			<g>
				<g>
					<g>
						<g>
							<rect x="34" y="48" fill="#FFFFFF" width="12" height="2"/>
						</g>
					</g>
				</g>
			</g>
			<g>
				<g>
					<g>
						<g>
							<rect x="38" y="48" fill="#ECEFF1" width="10" height="2"/>
						</g>
					</g>
				</g>
			</g>
			<g>
				<g>
					<g>
						<g>
							<polygon fill="#84FFFF" points="50,51 51,59 33,59 33,51 							"/>
						</g>
					</g>
				</g>
			</g>
			<g>
				<g>
					<g>
						<g>
							<rect x="38" y="51" fill="#18FFFF" width="13" height="8"/>
						</g>
					</g>
				</g>
			</g>
			<g>
				<g>
					<g>
						<g>
							<polygon fill="#37474F" points="33,59 34,59 34,51 50,51 50,59 51,59 51,50 33,50 							"/>
						</g>
					</g>
				</g>
			</g>
			<g>
				<g>
					<g>
						<g>
							<path fill="#37474F" d="M34,51h15v-4H34V51z M48,48v2H35v-2H48z"/>
						</g>
					</g>
				</g>
			</g>
		</g>
		<g id="loan_money_1_">
			<g>
				<g>
					<path fill="#FFFFFF" d="M28.5,50.5V44c0-2.762-0.211-5.918-2.73-8.437c-1.475-1.475-2.955-2.424-4.19-2.691l-3.553-3.552
						c-1.41-1.41-2.775-2.125-4.058-2.125c-0.877,0-1.588,0.328-2.141,0.717l0.141-0.131l-0.156-0.332
						c-0.299-0.634-0.313-1.447-0.313-1.455c-0.008-0.171-0.174-3.827-0.561-5.752c-0.342-1.7-1.491-2.715-3.074-2.715
						C6.723,17.527,5.5,18.119,5.5,19v8c0,0.609,0.16,1.536,0.365,2.11l2.73,7.663c0.213,0.597,0.752,1.392,1.227,1.811l7.072,7.107
						C17.229,45.986,17.5,46.588,17.5,47v3.5H28.5z"/>
				</g>
				<g>
					<path fill="#FFE0B2" d="M24.416,36.417C26.898,38.898,27,42.151,27,44.5v6h-9.5v-3c0-0.553-0.336-1.296-0.75-1.661l-7.097-7.13
						c-0.415-0.365-0.901-1.083-1.087-1.604l-2.73-7.663C5.65,28.922,5.5,28.053,5.5,27.5v-8c0-0.48,0.379-0.973,1.365-0.973
						c1.055,0,2.232,0.564,2.584,2.313C9.833,22.75,10,26.5,10,26.5s0.01,0.916,0.36,1.662L11,29.125
						c0.48-0.445,0.391-0.93,1.969-0.93c0.99,0,2.217,0.49,3.704,1.979l3.661,3.66C21.365,34.01,22.793,34.794,24.416,36.417z"/>
				</g>
				<g>
					<g>
						<path fill="#E6CAA0" d="M12.132,28.209c-0.297,0.267-0.532,0.524-0.7,0.681l7.854,7.854l-0.693,0.691L10.5,29.125
							C10.941,28.716,10.917,28.278,12.132,28.209z"/>
					</g>
					<g>
						<path fill="#E6CAA0" d="M7.115,18.527c0.044,0-0.16,0.007-0.115,0.01V26.5c0,0.553,0.15,1.422,0.336,1.942l2.73,7.663
							c0.186,0.521,0.672,1.238,1.087,1.604l7.097,7.13C18.664,45.204,19,45.947,19,46.5V50h8v1h-9v-3.5
							c0-0.553-0.586-1.296-1-1.661l-7.222-7.13c-0.415-0.365-0.964-1.083-1.149-1.604l-2.512-7.663C5.932,28.922,6,28.053,6,27.5
							v-8C6,19.02,6.129,18.527,7.115,18.527z"/>
					</g>
				</g>
				<g>
					<path fill="#37474F" d="M7.865,18.027c1.055,0,2.232,0.564,2.584,2.313C10.833,22.25,11,26,11,26s0.01,0.916,0.36,1.662
						l-1.845,1.696l8.576,8.577l0.693-0.691l-7.854-7.854c0.48-0.445,1.459-1.694,3.037-1.694c0.99,0,2.217,0.49,3.704,1.979
						l3.661,3.66c1.031,0.176,2.459,0.96,4.082,2.583C27.898,38.398,28,41.651,28,44v6H18v-3c0-0.553-0.336-1.296-0.75-1.661
						l-7.097-7.13c-0.415-0.365-0.901-1.083-1.087-1.604l-2.73-7.663C6.15,28.422,6,27.553,6,27v-8
						C6,18.52,6.879,18.027,7.865,18.027L7.865,18.027z M7.865,17.027C6.487,17.027,5,17.781,5,19v8c0,0.669,0.17,1.648,0.395,2.278
						l2.73,7.663c0.236,0.665,0.809,1.515,1.34,1.994l7.076,7.108l0.023,0.023l0.023,0.021C16.789,46.266,17,46.733,17,47v3v1h1h10
						h1v-1v-6c0-2.067,0-5.914-2.877-8.79c-1.507-1.508-2.982-2.467-4.292-2.792l-3.451-3.451c-1.507-1.508-2.991-2.272-4.411-2.271
						c-0.672,0-1.258,0.17-1.758,0.413c-0.163-0.424-0.208-0.945-0.212-1.153c-0.007-0.156-0.175-3.85-0.569-5.812
						C10.968,17.846,9.285,17.027,7.865,17.027L7.865,17.027z"/>
				</g>
				<g>
					<g>
						<g>
							<g>
								<rect x="18" y="48" fill="#FFFFFF" width="12" height="2"/>
							</g>
						</g>
					</g>
				</g>
				<g>
					<g>
						<g>
							<g>
								<rect x="16" y="48" fill="#ECEFF1" width="10" height="2"/>
							</g>
						</g>
					</g>
				</g>
				<g>
					<g>
						<g>
							<g>
								<polygon fill="#84FFFF" points="14,51 13,59 31,59 31,51 								"/>
							</g>
						</g>
					</g>
				</g>
				<g>
					<g>
						<g>
							<g>
								<rect x="13" y="51" fill="#18FFFF" width="13" height="8"/>
							</g>
						</g>
					</g>
				</g>
				<g>
					<g>
						<g>
							<g>
								<polygon fill="#37474F" points="31,59 30,59 30,51 14,51 14,59 13,59 13,50 31,50 								"/>
							</g>
						</g>
					</g>
				</g>
				<g>
					<g>
						<g>
							<g>
								<path fill="#37474F" d="M30,47H15v4h15V47z M29,48v2H16v-2H29z"/>
							</g>
						</g>
					</g>
				</g>
			</g>
		</g>
	</g>
</g>
</svg>
