<?xml version="1.0" encoding="utf-8"?>
<!-- Generator: Adobe Illustrator 16.0.0, SVG Export Plug-In . SVG Version: 6.00 Build 0)  -->
<!DOCTYPE svg PUBLIC "-//W3C//DTD SVG 1.1//EN" "http://www.w3.org/Graphics/SVG/1.1/DTD/svg11.dtd">
<svg version="1.1" id="_x3C_Layer_x3E_" xmlns="http://www.w3.org/2000/svg" xmlns:xlink="http://www.w3.org/1999/xlink" x="0px"
	 y="0px" width="64px" height="64px" viewBox="0 0 64 64" enable-background="new 0 0 64 64" xml:space="preserve">
<g id="research_x2C__biology_x2C__Corona_virus_x2C__Covid-19_x2C__microscope_1_">
	<g id="research_1_">
		<g id="biology_2_">
			<g id="XMLID_2556_">
				<path id="XMLID_2561_" fill="#FFFFFF" d="M47,37.5V55h8V36.5c0-7.7-6.05-14-13.75-14l-2.125,7C43.525,29.5,47,33.1,47,37.5z"/>
				<path id="XMLID_2560_" fill="#18FFFF" d="M47.029,23.792c-1.306-0.467-2.699-0.747-4.153-0.787l-1.721,6.02
					C45.537,29.361,49,33.034,49,37.5V54h6V36.5C55,30.877,51.768,26.015,47.029,23.792z"/>
				<path id="XMLID_2557_" fill="#37474F" d="M56,55h-9V37.5c0-4.136-3.364-7.5-7.5-7.5h-0.663l2.286-8H41.5
					C49.495,22,56,28.505,56,36.5V55z M48,54h7V36.5c0-7.318-5.854-13.295-13.124-13.495l-1.721,6.02
					C44.537,29.361,48,33.034,48,37.5V54z"/>
			</g>
			<g id="XMLID_2544_">
				<g id="XMLID_2553_">
					<g id="XMLID_2554_">
						<rect id="XMLID_2555_" x="23" y="45" fill="#CFD8DC" width="19" height="2"/>
					</g>
				</g>
				<g id="XMLID_2550_">
					<g id="XMLID_2551_">
						<rect id="XMLID_2552_" x="23" y="45" fill="#FFFFFF" width="1" height="2"/>
					</g>
				</g>
				<g id="XMLID_2545_">
					<g id="XMLID_2546_">
						<path id="XMLID_2547_" fill="#37474F" d="M43,48H22v-4h21V48z M23,47h19v-2H23V47z"/>
					</g>
				</g>
			</g>
			<g id="XMLID_2538_">
				<g id="XMLID_2539_">
					<g id="XMLID_2540_">
						<path id="XMLID_2541_" fill="#37474F" d="M48,47h-6v-2h6V47z M43,46h4H43z"/>
					</g>
				</g>
			</g>
			<g id="XMLID_2523_">
				<g id="XMLID_2535_">
					<g id="XMLID_2536_">
						
							<rect id="XMLID_2537_" x="37.961" y="7.615" transform="matrix(0.9713 0.238 -0.238 0.9713 3.9268 -9.2954)" fill="#FFFFFF" width="5" height="8"/>
					</g>
				</g>
				<g id="XMLID_2532_">
					<g id="XMLID_2533_">
						<polygon id="XMLID_2534_" fill="#18FFFF" points="38.684,14.606 41.582,15.442 43.237,8.691 40.086,7.921 						"/>
					</g>
				</g>
				<g id="XMLID_2529_">
					<g id="XMLID_2530_">
						<polygon id="XMLID_2531_" fill="#84FFFF" points="38.684,14.606 40.584,15.376 42.239,8.626 40.086,7.921 						"/>
					</g>
				</g>
				<g id="XMLID_2524_">
					<g id="XMLID_2525_">
						<path id="XMLID_2526_" fill="#37474F" d="M42.304,16.7l-5.828-1.427l2.142-8.743l5.828,1.429L42.304,16.7z M37.686,14.54
							l3.885,0.952l1.667-6.8L39.353,7.74L37.686,14.54z"/>
					</g>
				</g>
			</g>
			<g id="XMLID_2513_">
				<g id="XMLID_2520_">
					<g id="XMLID_2521_">
						
							<rect id="XMLID_2522_" x="32.636" y="13.215" transform="matrix(0.9712 0.2381 -0.2381 0.9712 7.0661 -8.1178)" fill="#FFFFFF" width="8.998" height="23.948"/>
					</g>
				</g>
				<g id="XMLID_2517_">
					<g id="XMLID_2518_">
						<polygon id="XMLID_2519_" fill="#84FFFF" points="31.64,35.656 38.291,37.287 43.751,14.996 36.939,13.326 						"/>
					</g>
				</g>
				<g id="XMLID_2514_">
					<g id="XMLID_2515_">
						<polygon id="XMLID_2516_" fill="#18FFFF" points="42.631,14.722 37.332,37.052 38.291,37.287 43.751,14.996 						"/>
					</g>
				</g>
			</g>
			<g id="XMLID_2501_">
				<g id="XMLID_2510_">
					<g id="XMLID_2511_">
						<polygon id="XMLID_2512_" fill="#FFFFFF" points="34.857,41.117 31.942,40.411 31.922,36.294 36.776,37.483 						"/>
					</g>
				</g>
				<g id="XMLID_2507_">
					<g id="XMLID_2508_">
						<polygon id="XMLID_2509_" fill="#CFD8DC" points="33.206,37.12 33.221,40.205 34.598,40.539 36.035,37.816 						"/>
					</g>
				</g>
				<g id="XMLID_2502_">
					<g id="XMLID_2503_">
						<path id="XMLID_2504_" fill="#37474F" d="M35.119,41.695l-3.675-0.89l-0.025-5.149l6.099,1.495L35.119,41.695z M32.44,40.017
							l2.157,0.521l1.438-2.723l-3.61-0.885L32.44,40.017z"/>
					</g>
				</g>
			</g>
			<g id="XMLID_2392_">
				<g id="XMLID_2498_">
					<g id="XMLID_2499_">
						
							<rect id="XMLID_2500_" x="38.032" y="5.746" transform="matrix(0.9713 0.238 -0.238 0.9713 2.9174 -9.6754)" fill="#FFFFFF" width="7.001" height="3"/>
					</g>
				</g>
				<g id="XMLID_2401_">
					<g id="XMLID_2494_">
						<path id="XMLID_2495_" fill="#37474F" d="M44.94,10.14l-7.77-1.904l0.951-3.885l7.771,1.904L44.94,10.14z M38.378,7.502
							l5.83,1.428l0.476-1.943l-5.828-1.427L38.378,7.502z"/>
					</g>
				</g>
				<g id="XMLID_2398_">
					<g id="XMLID_2399_">
						<polygon id="XMLID_2400_" fill="#CFD8DC" points="39.212,8.182 44.685,9.427 45.326,6.872 39.853,5.626 						"/>
					</g>
				</g>
				<g id="XMLID_2393_">
					<g id="XMLID_2394_">
						<path id="XMLID_2395_" fill="#37474F" d="M44.94,10.14l-7.77-1.904l0.951-3.885l7.771,1.904L44.94,10.14z M38.378,7.502
							l5.83,1.428l0.476-1.943l-5.828-1.427L38.378,7.502z"/>
					</g>
				</g>
			</g>
			<g id="XMLID_2381_">
				<g id="XMLID_2389_">
					<g id="XMLID_2390_">
						<circle id="XMLID_2391_" fill="#CFD8DC" cx="41.433" cy="26.029" r="5"/>
					</g>
				</g>
				<g id="XMLID_2387_">
					<path id="XMLID_2388_" fill="#37474F" d="M39.527,32.238l-1.236,5.048l-7.771-1.904l5.462-22.291l7.77,1.904l-1.138,4.645
						c0.33,0.061,0.653,0.147,0.967,0.256l1.38-5.634l-9.713-2.38L29.31,36.115l9.714,2.381l1.479-6.039
						C40.17,32.41,39.845,32.335,39.527,32.238z"/>
				</g>
				<g id="XMLID_2382_">
					<g id="XMLID_2383_">
						<path id="XMLID_2384_" fill="#37474F" d="M41.071,31.517c-3.026-0.199-5.326-2.824-5.127-5.849
							c0.199-3.026,2.823-5.326,5.851-5.127c3.026,0.199,5.325,2.823,5.126,5.849S44.099,31.716,41.071,31.517z M41.729,21.539
							c-2.476-0.163-4.623,1.719-4.786,4.195c-0.162,2.476,1.719,4.623,4.194,4.786c2.477,0.163,4.624-1.719,4.786-4.195
							C46.086,23.848,44.205,21.702,41.729,21.539z"/>
					</g>
				</g>
			</g>
			<g id="XMLID_2369_">
				<g id="XMLID_2378_">
					<g id="XMLID_2379_">
						<circle id="XMLID_2380_" fill="#FFFFFF" cx="41.432" cy="26.029" r="2.5"/>
					</g>
				</g>
				<g id="XMLID_2371_">
					<g id="XMLID_2372_">
						<path id="XMLID_2373_" fill="#37474F" d="M41.235,29.022c-1.65-0.109-2.904-1.541-2.796-3.19
							c0.108-1.651,1.539-2.905,3.191-2.797c1.649,0.109,2.904,1.54,2.795,3.19C44.318,27.876,42.887,29.131,41.235,29.022z
							 M41.564,24.033c-1.101-0.073-2.055,0.764-2.128,1.864c-0.072,1.101,0.764,2.054,1.864,2.127
							c1.102,0.073,2.055-0.764,2.128-1.864C43.501,25.06,42.666,24.106,41.564,24.033z"/>
					</g>
				</g>
			</g>
			<g id="XMLID_2355_">
				<g id="XMLID_2365_">
					<g id="XMLID_2366_">
						<path id="XMLID_2367_" fill="#FFFFFF" d="M54.5,53h-32c-2.762,0-5,2-5,5l0,0h40.973C58.325,55,57.459,53,54.5,53z"/>
					</g>
				</g>
				<g id="XMLID_2362_">
					<g id="XMLID_2363_">
						<path id="XMLID_2364_" fill="#84FFFF" d="M56.285,53.073C56.029,53.034,55.769,53,55.473,53h-32C21.16,53,19.25,54.753,19,57
							h39C57.783,54.586,57.879,53.364,56.285,53.073z"/>
					</g>
				</g>
				<path id="XMLID_2361_" fill="#18FFFF" d="M19.244,56c-0.114,0.32-0.205,0.651-0.244,1h39c-0.032-0.363-0.059-0.69-0.084-1
					H19.244z"/>
				<g id="XMLID_2356_">
					<g id="XMLID_2357_">
						<path id="XMLID_2358_" fill="#37474F" d="M59,58H17v-0.5c0-3.032,2.467-5.5,5.5-5.5h32c4.186,0,4.402,4.12,4.473,5.474L59,58z
							 M18.027,57h39.909c-0.251-2.797-1.298-4-3.437-4h-32C20.188,53,18.277,54.753,18.027,57z"/>
					</g>
				</g>
			</g>
		</g>
		<g id="XMLID_2349_">
			<path id="XMLID_2354_" fill="#FFFFFF" d="M30.25,18c0-6.905-5.471-12.5-12.375-12.5S5.438,11.095,5.438,18
				s5.627,12.5,12.531,12.5c1.418,0,2.541-0.247,3.811-0.682L26,36.5v-9.353C29,24.865,30.25,21.617,30.25,18z"/>
			<path id="XMLID_2353_" fill="#ECEFF1" d="M30.25,18c0-4.738-2.577-8.859-6.426-10.979C22.347,6.369,20.717,6,19,6
				C12.383,6,7,11.383,7,18s5.383,12,12,12c0.155,0,0.391,0.134,0.677,0.357c0.706-0.115,1.383-0.293,2.103-0.539L26,36.5v-9.353
				C29,24.865,30.25,21.617,30.25,18z"/>
			<path id="XMLID_2350_" fill="#37474F" d="M27,38.151l-5.16-7.74C20.581,30.802,19.292,31,18,31c-7.168,0-13-5.832-13-13
				S10.832,5,18,5s13,5.832,13,13c0,3.516-1.455,6.916-4,9.363V38.151z M22.247,29.221L26,34.849V26.93l0.159-0.148
				C28.636,24.479,30,21.36,30,18c0-6.617-5.383-12-12-12S6,11.383,6,18s5.383,12,12,12c1.308,0,2.614-0.22,3.883-0.655
				L22.247,29.221z"/>
		</g>
	</g>
	<g id="XMLID_2326_">
		<g id="XMLID_2335_">
			<g id="XMLID_2346_">
				<path id="XMLID_2348_" fill="#CCFF90" d="M21.381,10.75L14.619,25.25L21.381,10.75z"/>
				
					<rect id="XMLID_2347_" x="17.599" y="10.022" transform="matrix(0.9062 0.4228 -0.4228 0.9062 9.2186 -5.9846)" fill="#37474F" width="1" height="15.531"/>
			</g>
			<g id="XMLID_2342_">
				<path id="XMLID_2345_" fill="#CCFF90" d="M25.518,15.264l-15.035,5.473L25.518,15.264z"/>
				
					<rect id="XMLID_2343_" x="17.262" y="10.382" transform="matrix(0.3378 0.9412 -0.9412 0.3378 28.8148 -4.7205)" fill="#37474F" width="1" height="15.473"/>
			</g>
			<g id="XMLID_2339_">
				<path id="XMLID_2341_" fill="#CCFF90" d="M25.25,21.381l-14.501-6.762L25.25,21.381z"/>
				
					<rect id="XMLID_2340_" x="10" y="17.5" transform="matrix(0.9063 0.4226 -0.4226 0.9063 9.2933 -5.9204)" fill="#37474F" width="16" height="1"/>
			</g>
			<g id="XMLID_2336_">
				<path id="XMLID_2338_" fill="#CCFF90" d="M20.736,25.518l-5.473-15.035L20.736,25.518z"/>
				
					<rect id="XMLID_2337_" x="10" y="17.5" transform="matrix(0.342 0.9397 -0.9397 0.342 28.7577 -5.071)" fill="#37474F" width="16" height="1"/>
			</g>
		</g>
		<g id="XMLID_2330_">
			<circle id="XMLID_2334_" fill="#FF8A80" cx="18" cy="18" r="5"/>
			<path id="XMLID_2331_" fill="#37474F" d="M18,23.5c-3.032,0-5.5-2.467-5.5-5.5s2.468-5.5,5.5-5.5s5.5,2.467,5.5,5.5
				S21.032,23.5,18,23.5z M18,13.5c-2.481,0-4.5,2.019-4.5,4.5s2.019,4.5,4.5,4.5s4.5-2.019,4.5-4.5S20.481,13.5,18,13.5z"/>
		</g>
		<rect id="XMLID_2329_" x="17" y="16" fill="#37474F" width="1" height="1"/>
		<rect id="XMLID_2328_" x="20" y="18" fill="#37474F" width="1" height="1"/>
		<rect id="XMLID_2327_" x="16" y="19" fill="#37474F" width="1" height="1"/>
	</g>
</g>
</svg>
