<?xml version="1.0" encoding="utf-8"?>
<!-- Generator: Adobe Illustrator 16.0.0, SVG Export Plug-In . SVG Version: 6.00 Build 0)  -->
<!DOCTYPE svg PUBLIC "-//W3C//DTD SVG 1.1//EN" "http://www.w3.org/Graphics/SVG/1.1/DTD/svg11.dtd">
<svg version="1.1" id="_x3C_Layer_x3E_" xmlns="http://www.w3.org/2000/svg" xmlns:xlink="http://www.w3.org/1999/xlink" x="0px"
	 y="0px" width="64px" height="64px" viewBox="0 0 64 64" enable-background="new 0 0 64 64" xml:space="preserve">
<g id="man_x2C__mask_x2C__sick_x2C__protection_myself_1_">
	<g id="XMLID_2568_">
		<g id="XMLID_2569_">
			<polygon id="XMLID_2593_" fill="#B2FF59" points="59,59.005 32.5,49.229 6,59.005 			"/>
			<polygon id="XMLID_2592_" fill="#37474F" points="58.835,58.977 32.5,49.758 6.165,58.977 5.835,58.034 32.5,48.699 
				32.665,48.757 59.165,58.034 			"/>
			<path id="XMLID_2591_" fill="#E6CAA0" d="M39.152,56.172L32.5,58.5l-6.652-2.328c-2.005-0.702-3.348-2.595-3.348-4.719V40.5h20
				v10.953C42.5,53.577,41.157,55.47,39.152,56.172z"/>
			<path id="XMLID_2590_" fill="#37474F" d="M32.5,59.03l-6.817-2.386C23.48,55.873,22,53.787,22,51.453V43.5h1v7.953
				c0,1.91,1.211,3.617,3.013,4.247L32.5,57.97l6.487-2.271C40.789,55.069,42,53.362,42,51.453V43.5h1v7.953
				c0,2.334-1.48,4.42-3.683,5.191L32.5,59.03z"/>
			<g id="XMLID_2585_">
				<path id="XMLID_2589_" fill="#FFE0B2" d="M44.038,34.866l1.734-0.578c2.239-0.746,3.749-2.841,3.749-5.201v-2.651
					c0-1.247-1.222-2.128-2.406-1.734l-3.077,1.026V34.866z"/>
				<path id="XMLID_2586_" fill="#37474F" d="M43.538,35.56V25.368l3.418-1.14c0.241-0.08,0.489-0.121,0.738-0.121
					c1.282,0,2.326,1.045,2.326,2.329v2.651c0,2.579-1.644,4.86-4.09,5.675L43.538,35.56z M44.538,26.089v8.083l1.076-0.358
					c2.038-0.679,3.407-2.579,3.407-4.727v-2.651c0-0.875-0.895-1.544-1.748-1.259L44.538,26.089z"/>
			</g>
			<g id="XMLID_2576_">
				<path id="XMLID_2582_" fill="#FFE0B2" d="M21.021,34.866l-1.733-0.578c-2.239-0.746-3.749-2.841-3.749-5.201v-2.651
					c0-1.247,1.222-2.128,2.406-1.734l3.077,1.026V34.866z"/>
				<path id="XMLID_2577_" fill="#37474F" d="M21.521,35.56l-2.392-0.798c-2.447-0.815-4.091-3.096-4.091-5.675v-2.651
					c0-1.284,1.043-2.329,2.326-2.329c0.25,0,0.498,0.041,0.738,0.121l3.419,1.141V35.56z M17.364,25.107
					c-0.731,0-1.326,0.596-1.326,1.329v2.651c0,2.148,1.369,4.047,3.407,4.727l1.075,0.358v-8.083l-2.735-0.913
					C17.647,25.13,17.505,25.107,17.364,25.107z"/>
			</g>
			<path id="XMLID_2575_" fill="#FFFFFF" d="M32.885,5.625h-0.753c-8.396,0-15.063,7.053-14.6,15.437
				c0.468,8.494,1.377,17.366,3.258,20.195c1.871,2.813,5.724,6.988,8.408,8.243h6.607c2.674-1.25,6.494-5.419,8.377-8.205
				c1.926-2.85,2.839-11.74,3.305-20.241C47.943,12.673,41.278,5.625,32.885,5.625z"/>
			<path id="XMLID_2573_" fill="#FFE0B2" d="M41.634,8.547c-2.133-1.22-4.604-1.922-7.249-1.922h-0.753
				c-8.396,0-15.063,7.053-14.6,15.437c0.468,8.494,1.377,17.366,3.258,20.195c1.459,2.194,4.123,5.211,6.499,7.03
				c0.138,0.076,0.276,0.151,0.409,0.213h6.607c2.674-1.25,6.494-5.419,8.377-8.205c1.926-2.85,2.839-11.74,3.305-20.241
				C47.764,15.962,45.404,11.374,41.634,8.547z"/>
			<path id="XMLID_2570_" fill="#37474F" d="M35.917,50l-6.93-0.047c-2.702-1.264-6.574-5.354-8.612-8.419
				c-1.625-2.443-2.717-9.13-3.341-20.445c-0.232-4.195,1.23-8.186,4.117-11.236c2.885-3.049,6.785-4.728,10.982-4.728h0.753
				c4.195,0,8.094,1.677,10.978,4.723c2.887,3.049,4.351,7.038,4.123,11.233c-0.62,11.333-1.729,18.036-3.39,20.493
				c-1.739,2.574-5.669,7.017-8.579,8.378L35.917,50z M29.312,49h6.379c2.617-1.283,6.354-5.437,8.077-7.985
				c1.535-2.271,2.618-8.997,3.22-19.988c0.213-3.918-1.154-7.644-3.851-10.491c-2.694-2.844-6.334-4.411-10.252-4.411h-0.753
				c-3.92,0-7.562,1.568-10.256,4.415c-2.696,2.849-4.062,6.576-3.845,10.494c0.605,10.977,1.674,17.688,3.176,19.946
				C23.153,43.906,26.847,47.79,29.312,49z"/>
		</g>
	</g>
	<path id="XMLID_2567_" fill="#FFFFFF" d="M44.5,31.612l-12-3.112l-12,3.11v9.115c0.094,0.198,0.19,0.381,0.291,0.532
		c1.871,2.813,5.724,6.988,8.408,8.243h6.607c2.674-1.25,6.494-5.419,8.377-8.205c0.109-0.162,0.215-0.361,0.318-0.578V31.612z"/>
	<path id="XMLID_2566_" fill="#84FFFF" d="M20.5,33.11v7.115c0.094,0.198,0.19,0.381,0.291,0.532
		c1.871,2.813,5.724,6.988,8.408,8.243h6.607c2.674-1.25,6.494-5.419,8.377-8.205c0.109-0.162,0.215-0.361,0.318-0.578v-7.105
		l-9.662-2.505c-1.534-0.398-3.143-0.398-4.677,0L20.5,33.11z"/>
	<path id="XMLID_2565_" fill="#37474F" d="M39.376,33.3l-4.663-1.209c-1.448-0.375-2.978-0.376-4.425,0l-4.618,1.197l-0.251-0.968
		l4.618-1.197c1.611-0.418,3.315-0.418,4.927,0l4.663,1.209L39.376,33.3z"/>
	<path id="XMLID_2562_" fill="#37474F" d="M35.917,50l-6.93-0.047c-2.702-1.264-6.574-5.354-8.612-8.419
		c-0.112-0.168-0.22-0.372-0.326-0.594L20,40.725v-9.502l10.037-2.601c1.608-0.417,3.319-0.417,4.927,0L45,31.225l-0.048,9.707
		c-0.115,0.241-0.233,0.462-0.355,0.643c-1.74,2.575-5.67,7.018-8.58,8.378L35.917,50z M29.312,49h6.38
		c2.616-1.283,6.354-5.437,8.076-7.985c0.08-0.118,0.156-0.259,0.232-0.413v-8.604l-9.287-2.408c-1.445-0.375-2.982-0.375-4.425,0
		L21,31.997v8.614c0.067,0.137,0.136,0.263,0.207,0.37C23.153,43.906,26.847,47.79,29.312,49z"/>
</g>
</svg>
