<?xml version="1.0" encoding="utf-8"?>
<!-- Generator: Adobe Illustrator 16.0.0, SVG Export Plug-In . SVG Version: 6.00 Build 0)  -->
<!DOCTYPE svg PUBLIC "-//W3C//DTD SVG 1.1//EN" "http://www.w3.org/Graphics/SVG/1.1/DTD/svg11.dtd">
<svg version="1.1" id="_x3C_Layer_x3E_" xmlns="http://www.w3.org/2000/svg" xmlns:xlink="http://www.w3.org/1999/xlink" x="0px"
	 y="0px" width="64px" height="64px" viewBox="0 0 64 64" enable-background="new 0 0 64 64" xml:space="preserve">
<g id="male_x2C__man_x2C__nurse">
	<g>
		<g>
			<path fill="#FFFFFF" d="M49.837,42.166C43.884,40.64,32.709,37.703,32.006,37c-0.682,0.682-11.878,3.621-17.856,5.154
				c-2.31,0.592-4.152,2.317-4.901,4.58l-0.538,1.625c0,0,8.217,9.141,23.295,9.141c15.078,0,23.283-9.119,23.283-9.119
				l-0.564-1.675C53.967,44.462,52.132,42.755,49.837,42.166z"/>
		</g>
	</g>
	<path fill="#84FFFF" d="M49.837,43.666c-5.953-1.526-17.128-4.463-17.831-5.166c-0.682,0.682-11.878,3.621-17.856,5.154
		c-2.31,0.592-4.152,2.317-4.901,4.58L9.081,48.74c1.747,1.723,9.692,8.76,22.925,8.76c13.213,0,21.146-7.001,22.907-8.733
		l-0.188-0.561C53.967,45.962,52.132,44.255,49.837,43.666z"/>
	<g>
		<g>
			<path fill="#37474F" d="M32.006,58C16.88,58,8.423,48.787,8.339,48.693l-0.194-0.216l0.629-1.9
				c0.806-2.437,2.769-4.271,5.251-4.907c12.264-3.146,17.155-4.664,17.642-5.037l0.354-0.354l0.338,0.367
				c0.477,0.37,5.361,1.896,17.602,5.035c2.464,0.633,4.422,2.451,5.237,4.864l0.658,1.952l-0.195,0.217
				C55.577,48.809,47.132,58,32.006,58z M9.28,48.23C10.611,49.57,18.599,57,32.006,57c13.402,0,21.378-7.405,22.712-8.747
				l-0.467-1.387c-0.707-2.092-2.403-3.668-4.539-4.216c-13.547-3.474-16.822-4.626-17.709-5.065
				c-0.897,0.437-4.198,1.583-17.729,5.054c-2.15,0.551-3.852,2.141-4.55,4.253L9.28,48.23z"/>
		</g>
	</g>
	<g>
		<g>
			<path fill="#18FFFF" d="M55.116,48.648c0.056-0.09,0.118-0.177,0.173-0.268c-0.003-0.002-0.006-0.004-0.008-0.007
				C55.227,48.466,55.172,48.558,55.116,48.648z"/>
		</g>
	</g>
	<g>
		<g>
			<g>
				<g>
					<polygon fill="#E6CAA0" points="26.506,40.5 26.506,34.25 37.506,34.25 37.506,40.5 31.996,48.5 					"/>
					<path fill="#37474F" d="M31.995,49.383l-5.989-8.728V33.75h12v6.905L31.995,49.383z M27.006,40.345l4.991,7.272l5.009-7.272
						V34.75h-10V40.345z"/>
				</g>
			</g>
		</g>
	</g>
	<g>
		<g>
			<path fill="#FFE0B2" d="M32.006,37.25c-4.178,0-8.219-5.611-8.474-10.034c-0.015-0.265-0.233-0.472-0.499-0.472
				c-0.02,0-0.041,0.002-0.063,0.005c-0.26-0.018-0.965-0.234-0.965-0.499v-5c0-0.275,0.725,1.5,1,1.5c0.276,0-0.5-3-0.5-3
				c0-4.688,4.813-8.5,9.5-8.5s9.5,3.813,9.5,8.5c0,0-0.776,3-0.5,3c0.275,0,1-1.775,1-1.5v5c0,0.265-0.706,0.481-0.966,0.499
				c-0.021-0.003-0.042-0.005-0.062-0.005c-0.266,0-0.484,0.207-0.499,0.472C40.225,31.639,36.184,37.25,32.006,37.25z"/>
		</g>
	</g>
	<g>
		<g>
			<g>
				<path fill="#FFFFFF" d="M22.654,22.459c-0.371-1.296-0.736-3.198-0.736-5.68c0-6.244,2.973-9.279,9.088-9.279
					c3.527,0,5.678,0.677,6.973,2.192l0.15,0.176h0.23c2.513,0,3.734,2.261,3.734,6.911c0,2.271-0.326,4.096-0.678,5.4
					c0-1.867-0.095-4.136-1.564-6.707c-0.35-0.612-0.826-0.924-1.416-0.924c-0.663,0-1.377,0.394-2.282,0.893
					c-1.454,0.801-3.445,1.897-6.265,1.897c-2.684,0-4.078-0.651-4.911-1.04c-0.379-0.176-0.652-0.304-0.929-0.304
					c-0.796,0-0.9,0.866-1.01,1.784C22.816,19.628,22.729,21.131,22.654,22.459z"/>
			</g>
		</g>
		<g>
			<path fill="#CFD8DC" d="M38.947,11.092h-0.461l-0.299-0.167C36.995,9.53,34.962,9,31.594,9c-5.563,0-8.3,2.563-8.563,7.948
				c0.032-0.579,0.244-1.022,1.018-0.953c0,0,1.285,0.745,1.705,0.941C26.551,17.308,27.893,17,30.466,17
				c2.691,0,4.544-1.182,6.028-2c0.968-0.533,1.15-0.451,1.941-0.451c0.537,0,2.069,1.889,2.57,2.891
				c0.69,1.38,0.318,2.555,0.098,3.476c0.052,0.031,0.107,0.059,0.156,0.093c0.346-1.165,0.922-2.93,0.922-3.32
				C42.182,11.275,39.747,11.092,38.947,11.092z"/>
		</g>
		<g>
			<g>
				<path fill="#37474F" d="M31.006,8c3.368,0,5.401,0.622,6.594,2.018l0.299,0.351h0.461c0.8,0,3.234,0,3.234,6.411
					c0,0.551-0.02,1.073-0.055,1.568c-0.237-0.98-0.625-2.023-1.253-3.123c-0.556-0.972-1.313-1.176-1.851-1.176
					c-0.791,0-1.556,0.421-2.523,0.954c-1.484,0.817-3.332,1.836-6.023,1.836c-2.573,0-3.904-0.621-4.7-0.992
					c-0.421-0.196-0.752-0.352-1.139-0.352h-0.001c-1.239,0-1.394,1.285-1.506,2.224c-0.027,0.217-0.051,0.428-0.073,0.635
					c-0.033-0.494-0.052-1.019-0.052-1.574C22.418,10.79,25.146,8,31.006,8L31.006,8z M31.006,7c-7.941,0-9.588,5.015-9.588,9.779
					c0,5.264,1.588,8.221,1.588,8.221c0.166-1.917,0.176-4.22,0.529-7.161c0.121-1.008,0.221-1.344,0.514-1.344
					c0.589,0,1.957,1.344,5.84,1.344c4.617,0,7.068-2.79,8.547-2.79c0.387,0,0.707,0.19,0.982,0.672
					c2.117,3.706,1.254,6.945,1.588,9.279c0,0,1.588-3.125,1.588-8.221c0-3.088-0.529-7.411-4.234-7.411
					C36.814,7.56,34.238,7,31.006,7L31.006,7z"/>
			</g>
		</g>
	</g>
	<g>
		<g>
			<g>
				<path fill="#37474F" d="M41.006,26.25c-0.01,0-0.018-0.005-0.026-0.006h-0.001c-0.529,0-0.968,0.414-0.998,0.942
					c-0.268,4.648-4.367,9.563-7.975,9.563s-7.707-4.915-7.975-9.563c-0.03-0.528-0.469-0.942-0.998-0.942h-0.001
					c-0.009,0.001-0.017,0.006-0.026,0.006c-0.55,0-1-0.45-1-1v1c0,0.55,0.45,1,1,1c0.01,0,0.018-0.006,0.027-0.006
					c0.28,4.867,4.62,10.506,8.973,10.506s8.692-5.639,8.973-10.506c0.01,0,0.018,0.006,0.027,0.006c0.55,0,1-0.45,1-1v-1
					C42.006,25.8,41.556,26.25,41.006,26.25z"/>
			</g>
		</g>
	</g>
</g>
</svg>
