<?xml version="1.0" encoding="utf-8"?>
<!-- Generator: Adobe Illustrator 16.0.0, SVG Export Plug-In . SVG Version: 6.00 Build 0)  -->
<!DOCTYPE svg PUBLIC "-//W3C//DTD SVG 1.1//EN" "http://www.w3.org/Graphics/SVG/1.1/DTD/svg11.dtd">
<svg version="1.1" id="_x3C_Layer_x3E_" xmlns="http://www.w3.org/2000/svg" xmlns:xlink="http://www.w3.org/1999/xlink" x="0px"
	 y="0px" width="64px" height="64px" viewBox="0 0 64 64" enable-background="new 0 0 64 64" xml:space="preserve">
<g id="cross_x2C__star_x2C__medicine">
	<g>
		<circle fill="#FF8A80" cx="32" cy="32" r="26.5"/>
		<path fill="#37474F" d="M32,59C17.112,59,5,46.888,5,32S17.112,5,32,5s27,12.112,27,27S46.888,59,32,59z M32,6
			C17.664,6,6,17.663,6,32s11.664,26,26,26s26-11.663,26-26S46.336,6,32,6z"/>
	</g>
	<g>
		<polygon fill="#FFFFFF" points="46.308,27.781 42.808,21.719 35.5,25.938 35.5,17.5 28.5,17.5 28.5,25.938 21.192,21.719 
			17.692,27.781 25,32 17.692,36.219 21.192,42.281 28.5,38.063 28.5,46.5 35.5,46.5 35.5,38.063 42.808,42.281 46.308,36.219 
			39,32 		"/>
		<path fill="#37474F" d="M36,47h-8v-8.071l-6.991,4.035l-4-6.928L24,32l-6.991-4.036l4-6.928L28,25.071V17h8v8.071l6.991-4.035
			l4,6.928L40,32l6.991,4.036l-4,6.928L36,38.929V47z M29,46h6v-8.804l7.625,4.402l3-5.197L38,32l7.625-4.401l-3-5.197L35,26.804V18
			h-6v8.804l-7.625-4.402l-3,5.197L26,32l-7.625,4.401l3,5.197L29,37.196V46z"/>
	</g>
</g>
</svg>
