<?xml version="1.0" encoding="utf-8"?>
<!-- Generator: Adobe Illustrator 16.0.0, SVG Export Plug-In . SVG Version: 6.00 Build 0)  -->
<!DOCTYPE svg PUBLIC "-//W3C//DTD SVG 1.1//EN" "http://www.w3.org/Graphics/SVG/1.1/DTD/svg11.dtd">
<svg version="1.1" id="_x3C_Layer_x3E_" xmlns="http://www.w3.org/2000/svg" xmlns:xlink="http://www.w3.org/1999/xlink" x="0px"
	 y="0px" width="64px" height="64px" viewBox="0 0 64 64" enable-background="new 0 0 64 64" xml:space="preserve">
<g id="Corona_virus_x2C__Covid-19_x2C__bacteria_1_">
	<circle id="XMLID_37_" fill="#CFD8DC" cx="22.5" cy="43" r="16"/>
	<path id="XMLID_38_" fill="#CFD8DC" d="M22.466,27c12.813-0.027,15.064-4.228,16.778-11.64L50.46,26.796
		c-7.444,1.569-11.688,3.739-11.964,16.549L22.466,27z"/>
	<circle id="XMLID_39_" fill="#CFD8DC" cx="48.5" cy="17.5" r="9.5"/>
	<g id="XMLID_40_">
		<circle id="XMLID_41_" fill="#FFFFFF" cx="45.523" cy="45.924" r="8.24"/>
		<path id="XMLID_42_" fill="#FF8A80" d="M53.764,45.924c0-1.371-0.34-2.66-0.932-3.796c-1.512-1.799-3.775-2.944-6.309-2.944
			c-4.551,0-8.24,3.689-8.24,8.24c0,1.369,0.34,2.658,0.932,3.795c1.512,1.799,3.775,2.944,6.309,2.944
			C50.074,54.163,53.764,50.474,53.764,45.924z"/>
		<path id="XMLID_43_" fill="#FF5252" d="M52.316,41.263c0.285,0.835,0.447,1.728,0.447,2.661c0,4.55-3.689,8.239-8.24,8.239
			c-2.82,0-5.307-1.419-6.793-3.579c1.108,3.243,4.175,5.579,7.793,5.579c4.551,0,8.24-3.689,8.24-8.239
			C53.764,44.192,53.228,42.588,52.316,41.263z"/>
		<g>
			<circle id="XMLID_45_" fill="#FF5252" cx="48" cy="44.5" r="1"/>
			<path fill="#37474F" d="M48,46c-0.827,0-1.5-0.673-1.5-1.5S47.173,43,48,43s1.5,0.673,1.5,1.5S48.827,46,48,46z M48,44
				c-0.275,0-0.5,0.224-0.5,0.5S47.725,45,48,45s0.5-0.224,0.5-0.5S48.275,44,48,44z"/>
		</g>
		<g>
			<circle id="XMLID_46_" fill="#FF5252" cx="44.5" cy="48.5" r="1"/>
			<path fill="#37474F" d="M44.5,50c-0.827,0-1.5-0.673-1.5-1.5s0.673-1.5,1.5-1.5s1.5,0.673,1.5,1.5S45.327,50,44.5,50z M44.5,48
				c-0.275,0-0.5,0.224-0.5,0.5s0.225,0.5,0.5,0.5s0.5-0.224,0.5-0.5S44.775,48,44.5,48z"/>
		</g>
		<g>
			<circle id="XMLID_1054_" fill="#FF5252" cx="42.5" cy="43.5" r="1"/>
			<path fill="#37474F" d="M42.5,45c-0.827,0-1.5-0.673-1.5-1.5s0.673-1.5,1.5-1.5s1.5,0.673,1.5,1.5S43.327,45,42.5,45z M42.5,43
				c-0.275,0-0.5,0.224-0.5,0.5s0.225,0.5,0.5,0.5s0.5-0.224,0.5-0.5S42.775,43,42.5,43z"/>
		</g>
		<g id="XMLID_47_">
			<g>
				<circle id="XMLID_1052_" fill="#FF5252" cx="41.904" cy="35.188" r="1.177"/>
				<path fill="#37474F" d="M41.903,36.865c-0.74,0-1.385-0.476-1.603-1.186c-0.131-0.428-0.087-0.882,0.123-1.277
					s0.562-0.686,0.99-0.817c0.876-0.269,1.828,0.244,2.094,1.112c0.131,0.427,0.088,0.88-0.121,1.276
					c-0.21,0.396-0.563,0.687-0.991,0.818C42.235,36.841,42.07,36.865,41.903,36.865z M41.905,34.512
					c-0.066,0-0.133,0.01-0.198,0.03c-0.173,0.053-0.315,0.17-0.4,0.33s-0.103,0.342-0.049,0.515
					c0.106,0.351,0.49,0.559,0.845,0.449c0.174-0.053,0.315-0.17,0.4-0.33c0.084-0.16,0.102-0.342,0.049-0.514
					C42.465,34.708,42.2,34.512,41.905,34.512z"/>
			</g>
			<g>
				<path id="XMLID_1051_" fill="#FF5252" d="M42.18,36.089l1.131,3.663L42.18,36.089z"/>
				
					<rect x="40.828" y="37.421" transform="matrix(0.295 0.9555 -0.9555 0.295 66.3692 -14.1085)" fill="#37474F" width="3.834" height="1"/>
			</g>
		</g>
		<g id="XMLID_48_">
			<g>
				<circle id="XMLID_1050_" fill="#FF5252" cx="48.5" cy="57.637" r="0.942"/>
				<path fill="#37474F" d="M48.5,59.079c-0.651,0-1.224-0.439-1.393-1.068c-0.101-0.372-0.049-0.761,0.144-1.095
					c0.193-0.333,0.504-0.572,0.876-0.671c0.753-0.201,1.565,0.268,1.766,1.018c0.205,0.769-0.252,1.562-1.019,1.767
					C48.751,59.063,48.626,59.079,48.5,59.079z M48.501,57.195c-0.039,0-0.078,0.005-0.115,0.015
					c-0.114,0.03-0.21,0.104-0.269,0.206c-0.06,0.103-0.075,0.222-0.045,0.335c0.063,0.23,0.309,0.376,0.542,0.313
					c0.235-0.063,0.376-0.307,0.313-0.543C48.876,57.33,48.7,57.195,48.501,57.195z"/>
			</g>
			<g>
				<path id="XMLID_1049_" fill="#FF5252" d="M47.596,54.163l0.66,2.564L47.596,54.163z"/>
				
					<rect x="46.602" y="54.945" transform="matrix(0.2493 0.9684 -0.9684 0.2493 89.6727 -4.7897)" fill="#37474F" width="2.648" height="1"/>
			</g>
		</g>
		<g id="XMLID_49_">
			<g>
				<circle id="XMLID_1048_" fill="#FF5252" cx="48.595" cy="34.459" r="0.942"/>
				<path fill="#37474F" d="M48.596,35.901c-0.126,0-0.252-0.017-0.374-0.049c-0.768-0.206-1.225-0.999-1.02-1.767
					c0.201-0.75,1.008-1.22,1.766-1.02c0.768,0.206,1.225,0.998,1.021,1.766C49.818,35.462,49.246,35.901,48.596,35.901z
					 M48.596,34.017c-0.2,0-0.375,0.135-0.428,0.328c-0.063,0.235,0.078,0.479,0.313,0.542c0.232,0.066,0.479-0.082,0.541-0.313
					c0.063-0.235-0.078-0.479-0.313-0.542C48.673,34.022,48.634,34.017,48.596,34.017z"/>
			</g>
			<g>
				<path id="XMLID_1047_" fill="#FF5252" d="M48.352,35.369l-1.244,4.642L48.352,35.369z"/>
				
					<rect x="47.229" y="35.287" transform="matrix(0.966 0.2586 -0.2586 0.966 11.3688 -11.0598)" fill="#37474F" width="1.001" height="4.805"/>
			</g>
		</g>
		<g id="XMLID_50_">
			<g>
				<circle id="XMLID_80_" fill="#FF5252" cx="41.529" cy="57.094" r="0.941"/>
				<path fill="#37474F" d="M41.528,58.536c-0.194,0-0.383-0.039-0.563-0.115c-0.354-0.15-0.63-0.43-0.773-0.787
					c-0.145-0.357-0.141-0.749,0.01-1.103c0.302-0.712,1.175-1.068,1.89-0.765c0.731,0.311,1.074,1.159,0.764,1.891
					C42.629,58.191,42.108,58.536,41.528,58.536z M41.53,56.652c-0.178,0-0.338,0.106-0.408,0.27
					c-0.046,0.109-0.047,0.229-0.003,0.338s0.128,0.195,0.237,0.241c0.224,0.093,0.486-0.017,0.579-0.234
					c0.095-0.225-0.01-0.484-0.234-0.58C41.646,56.664,41.589,56.652,41.53,56.652z"/>
			</g>
			<g>
				<path id="XMLID_79_" fill="#FF5252" d="M43.773,51.803l-1.877,4.424L43.773,51.803z"/>
				
					<rect x="42.335" y="51.612" transform="matrix(0.9205 0.3909 -0.3909 0.9205 24.519 -12.4454)" fill="#37474F" width="0.999" height="4.806"/>
			</g>
		</g>
		<g id="XMLID_51_">
			<g>
				<circle id="XMLID_78_" fill="#FF5252" cx="53.246" cy="37.273" r="0.942"/>
				<path fill="#37474F" d="M53.245,38.715c-0.385,0-0.746-0.15-1.019-0.422c-0.272-0.273-0.423-0.635-0.423-1.021
					c0.001-0.385,0.15-0.747,0.423-1.019c0.545-0.543,1.493-0.543,2.038,0c0.563,0.563,0.563,1.477,0.002,2.04
					C53.992,38.565,53.63,38.715,53.245,38.715z M53.245,36.832c-0.117,0-0.229,0.046-0.312,0.129
					c-0.084,0.083-0.13,0.194-0.13,0.312s0.046,0.229,0.13,0.313c0.167,0.167,0.459,0.167,0.626-0.001
					c0.171-0.171,0.171-0.452-0.001-0.624C53.476,36.878,53.363,36.832,53.245,36.832z"/>
			</g>
			<g>
				<path id="XMLID_77_" fill="#FF5252" d="M52.58,37.939l-1.512,2.008L52.58,37.939z"/>
				
					<rect x="51.324" y="37.687" transform="matrix(0.7988 0.6016 -0.6016 0.7988 33.8525 -23.3411)" fill="#37474F" width="1" height="2.513"/>
			</g>
		</g>
		<g id="XMLID_52_">
			<g>
				<circle id="XMLID_76_" fill="#FF5252" cx="36.288" cy="54.07" r="1.177"/>
				<path fill="#37474F" d="M36.287,55.747c-0.447,0-0.868-0.174-1.186-0.49c-0.652-0.655-0.652-1.718,0-2.372
					c0.634-0.635,1.74-0.634,2.372,0c0.654,0.654,0.654,1.718,0,2.372C37.156,55.572,36.735,55.747,36.287,55.747z M36.287,53.393
					c-0.181,0-0.351,0.07-0.479,0.198c-0.264,0.264-0.264,0.694,0,0.958c0.256,0.254,0.702,0.254,0.958-0.001
					c0.264-0.264,0.264-0.693,0-0.958C36.639,53.463,36.469,53.393,36.287,53.393z"/>
			</g>
			<g>
				<path id="XMLID_75_" fill="#FF5252" d="M40.252,50.643l-3.299,2.762L40.252,50.643z"/>
				
					<rect x="38.102" y="49.872" transform="matrix(0.6424 0.7664 -0.7664 0.6424 53.6742 -10.98)" fill="#37474F" width="1" height="4.302"/>
			</g>
		</g>
		<g id="XMLID_53_">
			<g>
				<circle id="XMLID_74_" fill="#FF5252" cx="56.452" cy="43.227" r="1.177"/>
				<path fill="#37474F" d="M56.451,44.904c-0.758,0-1.423-0.511-1.619-1.243c-0.116-0.432-0.057-0.883,0.167-1.271
					c0.225-0.389,0.586-0.667,1.02-0.782c0.879-0.236,1.818,0.313,2.053,1.186c0.116,0.433,0.057,0.885-0.167,1.273
					c-0.225,0.388-0.586,0.665-1.02,0.781C56.743,44.884,56.597,44.904,56.451,44.904z M56.452,42.55
					c-0.059,0-0.118,0.008-0.176,0.023c-0.175,0.047-0.32,0.159-0.411,0.316c-0.09,0.156-0.114,0.338-0.067,0.513
					c0.096,0.353,0.466,0.578,0.829,0.479c0.175-0.047,0.321-0.159,0.411-0.315s0.114-0.339,0.067-0.514
					C57.025,42.756,56.758,42.55,56.452,42.55z"/>
			</g>
			<g>
				<path id="XMLID_73_" fill="#FF5252" d="M55.543,43.471l-4.798,1.167L55.543,43.471z"/>
				
					<rect x="52.644" y="41.585" transform="matrix(0.2363 0.9717 -0.9717 0.2363 83.391 -17.9956)" fill="#37474F" width="1" height="4.938"/>
			</g>
		</g>
		<g id="XMLID_54_">
			<g>
				<circle id="XMLID_72_" fill="#FF5252" cx="34.059" cy="48.995" r="0.941"/>
				<path fill="#37474F" d="M34.059,50.437c-0.651,0-1.224-0.44-1.392-1.07c-0.1-0.371-0.049-0.759,0.144-1.092
					c0.192-0.333,0.503-0.572,0.875-0.671c0.76-0.202,1.564,0.268,1.767,1.02c0.1,0.372,0.048,0.76-0.145,1.094
					c-0.193,0.333-0.504,0.571-0.875,0.671C34.31,50.42,34.185,50.437,34.059,50.437z M34.061,48.554
					c-0.039,0-0.078,0.005-0.115,0.015c-0.114,0.031-0.21,0.104-0.269,0.206c-0.059,0.102-0.074,0.22-0.044,0.334
					c0.062,0.231,0.311,0.378,0.54,0.313c0.114-0.031,0.21-0.104,0.269-0.206c0.06-0.102,0.075-0.22,0.045-0.333
					C34.434,48.688,34.259,48.554,34.061,48.554z"/>
			</g>
			<g>
				<path id="XMLID_71_" fill="#FF5252" d="M39.611,47.508l-4.643,1.244L39.611,47.508z"/>
				
					<rect x="36.79" y="45.727" transform="matrix(0.2597 0.9657 -0.9657 0.2597 74.0829 -0.3811)" fill="#37474F" width="1" height="4.806"/>
			</g>
		</g>
		<g id="XMLID_55_">
			<g>
				<circle id="XMLID_70_" fill="#FF5252" cx="56.752" cy="49.701" r="0.942"/>
				<path fill="#37474F" d="M56.752,51.144c-0.126,0-0.251-0.017-0.374-0.049c-0.768-0.206-1.224-0.999-1.019-1.767
					c0.2-0.75,1.007-1.223,1.766-1.02c0.769,0.206,1.226,0.999,1.021,1.767C57.976,50.704,57.403,51.144,56.752,51.144z
					 M56.753,49.259c-0.2,0-0.376,0.135-0.427,0.327c-0.063,0.236,0.076,0.479,0.312,0.542c0.232,0.064,0.479-0.083,0.542-0.313
					c0.063-0.235-0.078-0.478-0.313-0.542C56.83,49.264,56.791,49.259,56.753,49.259z"/>
			</g>
			<g>
				<path id="XMLID_65_" fill="#FF5252" d="M55.843,49.457l-2.591-0.709L55.843,49.457z"/>
				
					<rect x="53.204" y="48.602" transform="matrix(0.9645 0.2639 -0.2639 0.9645 14.8949 -12.6563)" fill="#37474F" width="2.686" height="1"/>
			</g>
		</g>
		<g id="XMLID_56_">
			<g>
				<circle id="XMLID_64_" fill="#FF5252" cx="35.116" cy="44.511" r="0.941"/>
				<path fill="#37474F" d="M35.117,45.952c-0.126,0-0.252-0.017-0.375-0.049c-0.768-0.206-1.224-0.998-1.018-1.765
					c0.2-0.75,1.008-1.219,1.765-1.019c0.372,0.1,0.683,0.338,0.875,0.671c0.192,0.333,0.244,0.722,0.144,1.094
					C36.34,45.513,35.768,45.952,35.117,45.952z M35.115,44.069c-0.199,0-0.374,0.134-0.425,0.327
					c-0.063,0.236,0.076,0.478,0.312,0.541c0.226,0.063,0.479-0.081,0.54-0.313c0.031-0.114,0.016-0.232-0.043-0.334
					c-0.06-0.102-0.154-0.175-0.27-0.206C35.192,44.074,35.153,44.069,35.115,44.069z"/>
			</g>
			<g>
				<path id="XMLID_63_" fill="#FF5252" d="M37.813,44.981l-1.787-0.228L37.813,44.981z"/>
				
					<rect x="36.018" y="44.368" transform="matrix(0.992 0.1263 -0.1263 0.992 5.9626 -4.3037)" fill="#37474F" width="1.802" height="1"/>
			</g>
		</g>
		<g id="XMLID_57_">
			<g>
				<circle id="XMLID_62_" fill="#FF5252" cx="54.187" cy="54.305" r="0.942"/>
				<path fill="#37474F" d="M54.187,55.747c-0.346,0-0.68-0.125-0.942-0.351c-0.291-0.251-0.467-0.602-0.495-0.986
					c-0.027-0.384,0.096-0.756,0.347-1.047c0.5-0.579,1.454-0.65,2.034-0.148c0.291,0.251,0.467,0.601,0.495,0.985
					c0.028,0.384-0.095,0.756-0.346,1.047C55.004,55.565,54.606,55.747,54.187,55.747z M54.188,53.863
					c-0.129,0-0.25,0.056-0.334,0.153c-0.078,0.089-0.115,0.204-0.106,0.321c0.008,0.118,0.062,0.225,0.151,0.302
					c0.28,0.242,0.491,0.107,0.624-0.045c0.076-0.089,0.114-0.203,0.105-0.32s-0.063-0.225-0.152-0.302
					C54.373,53.882,54.263,53.863,54.188,53.863z"/>
			</g>
			<g>
				<path id="XMLID_61_" fill="#FF5252" d="M53.475,53.689L50,50.143L53.475,53.689z"/>
				
					<rect x="49.255" y="51.416" transform="matrix(0.6998 0.7143 -0.7143 0.6998 52.618 -21.3728)" fill="#37474F" width="4.965" height="1.001"/>
			</g>
		</g>
		<g id="XMLID_58_">
			<g>
				<circle id="XMLID_60_" fill="#FF5252" cx="36.755" cy="37.443" r="0.942"/>
				<path fill="#37474F" d="M36.755,38.885c-0.385,0-0.747-0.149-1.02-0.421c-0.272-0.273-0.423-0.636-0.423-1.021
					c0.001-0.385,0.15-0.747,0.423-1.019c0.545-0.543,1.492-0.544,2.039,0c0.272,0.272,0.422,0.634,0.423,1.019
					c0,0.386-0.15,0.748-0.423,1.021C37.502,38.735,37.14,38.885,36.755,38.885z M36.755,37.001c-0.118,0-0.229,0.046-0.313,0.129
					c-0.084,0.083-0.13,0.194-0.13,0.312s0.046,0.229,0.13,0.313c0.166,0.166,0.459,0.167,0.625,0
					c0.084-0.083,0.13-0.194,0.13-0.313s-0.046-0.229-0.13-0.312C36.984,37.048,36.873,37.001,36.755,37.001z"/>
			</g>
			<g>
				<path id="XMLID_59_" fill="#FF5252" d="M40.393,41.223l-2.972-3.113L40.393,41.223z"/>
				
					<rect x="36.755" y="39.166" transform="matrix(0.6905 0.7234 -0.7234 0.6905 40.736 -15.8658)" fill="#37474F" width="4.304" height="0.999"/>
			</g>
		</g>
		<path fill="#37474F" d="M42.977,38.612l-0.328-0.944c0.922-0.321,1.889-0.484,2.875-0.484v1
			C44.649,38.184,43.793,38.328,42.977,38.612z"/>
		<path fill="#37474F" d="M39.871,40.637l-0.73-0.684c0.546-0.583,1.166-1.087,1.844-1.5l0.52,0.854
			C40.904,39.673,40.354,40.12,39.871,40.637z"/>
		<path fill="#37474F" d="M36.796,46.383c-0.009-0.153-0.013-0.305-0.013-0.459c0-1.638,0.456-3.235,1.319-4.619l0.848,0.529
			c-0.764,1.225-1.167,2.639-1.167,4.09c0,0.135,0.004,0.27,0.011,0.404L36.796,46.383z"/>
		<path fill="#37474F" d="M37.835,50.082c-0.325-0.6-0.579-1.238-0.756-1.896l0.967-0.259c0.155,0.583,0.38,1.147,0.668,1.678
			L37.835,50.082z"/>
		<path fill="#37474F" d="M41.253,53.55c-0.927-0.52-1.742-1.196-2.423-2.008l0.766-0.643c0.604,0.72,1.326,1.318,2.147,1.779
			L41.253,53.55z"/>
		<path fill="#37474F" d="M45.523,54.663c-0.881,0-1.752-0.131-2.591-0.391l0.295-0.955c0.743,0.229,1.516,0.346,2.296,0.346
			c4.268,0,7.74-3.472,7.74-7.739c0-0.67-0.085-1.333-0.254-1.972l0.967-0.255c0.19,0.722,0.287,1.471,0.287,2.227
			C54.264,50.743,50.343,54.663,45.523,54.663z"/>
		<path fill="#37474F" d="M52.497,42.561c-0.982-2.034-2.794-3.534-4.97-4.115l0.258-0.966c2.457,0.656,4.503,2.349,5.612,4.646
			L52.497,42.561z"/>
		<rect id="XMLID_2293_" x="48" y="49" fill="#37474F" width="1" height="1"/>
		<rect id="XMLID_2292_" x="49" y="47" fill="#37474F" width="1" height="1"/>
		<rect id="XMLID_2291_" x="45" y="41" fill="#37474F" width="1" height="1"/>
		<rect id="XMLID_2290_" x="41" y="48" fill="#37474F" width="1" height="1"/>
	</g>
	<g id="XMLID_66_">
		<circle id="XMLID_67_" fill="#FFFFFF" cx="23.597" cy="24.864" r="13.411"/>
		<path id="XMLID_68_" fill="#FF8A80" d="M25.098,12.953c-7.406,0-13.411,6.005-13.411,13.411c0,3.321,1.214,6.354,3.214,8.696
			c2.342,2,5.375,3.215,8.697,3.215c7.406,0,13.41-6.005,13.41-13.411c0-3.321-1.214-6.354-3.213-8.696
			C31.451,14.168,28.418,12.953,25.098,12.953z"/>
		<path id="XMLID_69_" fill="#FF5252" d="M33.627,15.983c-0.168-0.149-0.35-0.285-0.525-0.427c1.259,2.039,1.99,4.436,1.99,7.009
			c0,7.406-6.004,13.411-13.41,13.411c-3.168,0-6.062-1.117-8.354-2.955c0.41,0.664,0.874,1.291,1.39,1.873
			c2.367,2.097,5.471,3.381,8.881,3.381c7.406,0,13.41-6.005,13.41-13.411C37.008,21.453,35.725,18.35,33.627,15.983z"/>
		<path fill="#37474F" d="M11.124,21.522l-0.967-0.258c0.278-1.044,0.683-2.06,1.201-3.017l0.879,0.476
			C11.757,19.612,11.382,20.554,11.124,21.522z"/>
		<path fill="#37474F" d="M9.774,26.441c-0.059-0.524-0.088-1.055-0.088-1.577c0-0.553,0.033-1.11,0.099-1.656l0.992,0.118
			c-0.061,0.507-0.091,1.024-0.091,1.538c0,0.486,0.027,0.979,0.082,1.466L9.774,26.441z"/>
		<path fill="#37474F" d="M12.117,32.722c-0.894-1.303-1.553-2.735-1.96-4.257l0.967-0.258c0.377,1.412,0.988,2.741,1.817,3.95
			L12.117,32.722z"/>
		<path fill="#37474F" d="M16.458,36.806c-1.22-0.731-2.317-1.642-3.266-2.708l0.748-0.664c0.88,0.99,1.899,1.835,3.031,2.515
			L16.458,36.806z"/>
		<path fill="#37474F" d="M23.598,38.775c-1.834,0-3.616-0.352-5.298-1.045l0.381-0.925c1.561,0.644,3.215,0.97,4.917,0.97
			c7.119,0,12.91-5.792,12.91-12.911c0-1.91-0.407-3.749-1.21-5.464l0.906-0.424c0.865,1.849,1.304,3.83,1.304,5.888
			C37.508,32.535,31.268,38.775,23.598,38.775z"/>
		<path fill="#37474F" d="M34.407,17.802c-0.896-1.367-2.024-2.537-3.354-3.478l0.578-0.816c1.432,1.014,2.646,2.274,3.611,3.747
			L34.407,17.802z"/>
		<path fill="#37474F" d="M29.425,13.34c-0.789-0.4-1.626-0.72-2.484-0.95l0.258-0.966c0.927,0.248,1.828,0.592,2.68,1.024
			L29.425,13.34z"/>
		<path fill="#37474F" d="M21.059,12.203l-0.195-0.98c1.466-0.292,2.993-0.348,4.484-0.16l-0.125,0.992
			C23.84,11.881,22.421,11.932,21.059,12.203z"/>
		<path fill="#37474F" d="M16.588,14.02l-0.543-0.84c0.941-0.61,1.957-1.104,3.016-1.469l0.326,0.945
			C18.403,12.995,17.462,13.453,16.588,14.02z"/>
		<path fill="#37474F" d="M12.991,17.5l-0.82-0.571c0.654-0.941,1.422-1.798,2.281-2.548l0.658,0.753
			C14.313,15.831,13.6,16.627,12.991,17.5z"/>
		<g>
			<circle id="XMLID_81_" fill="#FF5252" cx="24.747" cy="31.378" r="1.533"/>
			<path fill="#37474F" d="M24.746,33.41c-1.12,0-2.032-0.912-2.032-2.032s0.912-2.032,2.032-2.032c1.121,0,2.033,0.912,2.033,2.032
				S25.867,33.41,24.746,33.41z M24.746,30.346c-0.569,0-1.032,0.463-1.032,1.032s0.463,1.032,1.032,1.032s1.033-0.463,1.033-1.032
				S25.315,30.346,24.746,30.346z"/>
		</g>
		<g>
			<circle id="XMLID_82_" fill="#FF5252" cx="17.85" cy="17.967" r="1.533"/>
			<path fill="#37474F" d="M17.85,20c-1.12,0-2.032-0.912-2.032-2.033c0-1.121,0.912-2.032,2.032-2.032
				c1.121,0,2.033,0.912,2.033,2.032C19.883,19.088,18.971,20,17.85,20z M17.85,16.935c-0.569,0-1.032,0.463-1.032,1.032
				c0,0.57,0.463,1.033,1.032,1.033s1.033-0.463,1.033-1.033C18.883,17.397,18.419,16.935,17.85,16.935z"/>
		</g>
		<g>
			<circle id="XMLID_83_" fill="#FF5252" cx="17.85" cy="26.78" r="1.533"/>
			<path fill="#37474F" d="M17.85,28.813c-1.12,0-2.032-0.912-2.032-2.032s0.912-2.032,2.032-2.032c1.121,0,2.033,0.912,2.033,2.032
				S18.971,28.813,17.85,28.813z M17.85,25.748c-0.569,0-1.032,0.463-1.032,1.032s0.463,1.032,1.032,1.032s1.033-0.463,1.033-1.032
				S18.419,25.748,17.85,25.748z"/>
		</g>
		<g>
			<circle id="XMLID_84_" fill="#FF5252" cx="28.579" cy="19.117" r="1.533"/>
			<path fill="#37474F" d="M28.578,21.149c-1.12,0-2.032-0.912-2.032-2.032c0-1.121,0.912-2.033,2.032-2.033
				c1.121,0,2.033,0.912,2.033,2.033C30.611,20.238,29.699,21.149,28.578,21.149z M28.578,18.084c-0.569,0-1.032,0.463-1.032,1.033
				c0,0.569,0.463,1.032,1.032,1.032s1.033-0.463,1.033-1.032C29.611,18.547,29.147,18.084,28.578,18.084z"/>
		</g>
		<g>
			<circle id="XMLID_85_" fill="#FF5252" cx="29.728" cy="26.396" r="1.916"/>
			<path fill="#37474F" d="M29.729,28.813c-1.332,0-2.416-1.084-2.416-2.416s1.084-2.416,2.416-2.416s2.415,1.084,2.415,2.416
				S31.061,28.813,29.729,28.813z M29.729,24.98c-0.781,0-1.416,0.635-1.416,1.416s0.635,1.416,1.416,1.416
				c0.78,0,1.415-0.635,1.415-1.416S30.509,24.98,29.729,24.98z"/>
		</g>
		<g>
			<circle id="XMLID_1046_" fill="#FF5252" cx="23.598" cy="22.565" r="1.916"/>
			<path fill="#37474F" d="M23.598,24.98c-1.332,0-2.416-1.083-2.416-2.415c0-1.332,1.084-2.416,2.416-2.416
				s2.416,1.084,2.416,2.416C26.014,23.897,24.93,24.98,23.598,24.98z M23.598,21.149c-0.781,0-1.416,0.635-1.416,1.416
				c0,0.78,0.635,1.415,1.416,1.415s1.416-0.635,1.416-1.415C25.014,21.785,24.379,21.149,23.598,21.149z"/>
		</g>
		<g id="XMLID_86_">
			<g>
				<circle id="XMLID_1045_" fill="#FF5252" cx="17.708" cy="7.393" r="1.915"/>
				<path fill="#37474F" d="M17.706,9.809c-1.067,0-1.995-0.687-2.309-1.709c-0.188-0.617-0.126-1.27,0.177-1.84
					S16.383,5.272,17,5.083c1.258-0.389,2.633,0.351,3.017,1.602c0.389,1.273-0.33,2.626-1.603,3.017
					C18.184,9.773,17.945,9.809,17.706,9.809z M17.708,5.977c-0.14,0-0.279,0.021-0.415,0.063c-0.361,0.111-0.658,0.355-0.836,0.689
					c-0.177,0.333-0.214,0.716-0.103,1.078c0.224,0.734,1.033,1.166,1.767,0.94c0.746-0.229,1.167-1.022,0.939-1.769
					C18.877,6.379,18.333,5.977,17.708,5.977z"/>
			</g>
			<g>
				<path id="XMLID_1044_" fill="#FF5252" d="M18.156,8.858l1.839,5.962L18.156,8.858z"/>
				
					<rect x="15.956" y="11.34" transform="matrix(0.2947 0.9556 -0.9556 0.2947 24.7669 -9.8784)" fill="#37474F" width="6.239" height="1"/>
			</g>
		</g>
		<g id="XMLID_87_">
			<g>
				<circle id="XMLID_1043_" fill="#FF5252" cx="25.271" cy="43.828" r="1.533"/>
				<path fill="#37474F" d="M25.271,45.861c-0.917,0-1.725-0.62-1.962-1.507c-0.29-1.082,0.354-2.199,1.437-2.49
					c1.069-0.289,2.206,0.379,2.49,1.438c0.14,0.525,0.067,1.073-0.203,1.542c-0.271,0.47-0.71,0.807-1.235,0.947
					C25.625,45.838,25.448,45.861,25.271,45.861z M25.272,42.795c-0.09,0-0.181,0.012-0.269,0.035
					c-0.549,0.148-0.877,0.715-0.729,1.265c0.145,0.538,0.721,0.875,1.264,0.73c0.268-0.071,0.49-0.242,0.628-0.48
					c0.138-0.239,0.174-0.518,0.103-0.785C26.148,43.11,25.738,42.795,25.272,42.795z"/>
			</g>
			<g>
				<path id="XMLID_1042_" fill="#FF5252" d="M24.363,35.88l0.512,6.468L24.363,35.88z"/>
				
					<rect x="21.375" y="38.614" transform="matrix(0.0789 0.9969 -0.9969 0.0789 61.6693 11.4864)" fill="#37474F" width="6.488" height="0.999"/>
			</g>
		</g>
		<g id="XMLID_88_">
			<g>
				<circle id="XMLID_1041_" fill="#FF5252" cx="28.578" cy="7.01" r="1.533"/>
				<path fill="#37474F" d="M28.579,9.043c-0.177,0-0.354-0.023-0.526-0.07c-1.083-0.29-1.728-1.406-1.438-2.489
					c0.284-1.059,1.432-1.723,2.489-1.438c1.083,0.291,1.728,1.407,1.438,2.489C30.305,8.423,29.497,9.043,28.579,9.043z
					 M28.577,5.977c-0.466,0-0.876,0.314-0.996,0.766c-0.147,0.55,0.18,1.118,0.729,1.265c0.552,0.146,1.122-0.192,1.265-0.73
					c0.147-0.55-0.18-1.117-0.73-1.265C28.758,5.989,28.667,5.977,28.577,5.977z"/>
			</g>
			<g>
				<path id="XMLID_1040_" fill="#FF5252" d="M28.182,8.49l-2.006,6.752L28.182,8.49z"/>
				
					<rect x="26.678" y="8.344" transform="matrix(0.9585 0.285 -0.285 0.9585 4.5094 -7.2543)" fill="#37474F" width="1" height="7.044"/>
			</g>
		</g>
		<g id="XMLID_89_">
			<g>
				<circle id="XMLID_1039_" fill="#FF5252" cx="16.552" cy="42.028" r="1.533"/>
				<path fill="#37474F" d="M16.551,44.062c-0.273,0-0.54-0.055-0.793-0.162c-1.031-0.438-1.515-1.634-1.077-2.665
					c0.425-1.005,1.655-1.506,2.665-1.078c0.5,0.212,0.887,0.606,1.091,1.109c0.203,0.503,0.198,1.056-0.014,1.556
					C18.104,43.575,17.368,44.062,16.551,44.062z M16.553,40.995c-0.416,0-0.79,0.247-0.952,0.629
					c-0.222,0.524,0.024,1.132,0.548,1.355c0.516,0.218,1.137-0.038,1.354-0.548c0.107-0.254,0.109-0.535,0.006-0.791
					s-0.3-0.456-0.554-0.563C16.826,41.023,16.691,40.995,16.553,40.995z"/>
			</g>
			<g>
				<path id="XMLID_1038_" fill="#FF5252" d="M20.205,33.416l-3.055,7.201L20.205,33.416z"/>
				
					<rect x="18.178" y="33.105" transform="matrix(0.9205 0.3909 -0.3909 0.9205 15.9537 -4.3557)" fill="#37474F" width="0.999" height="7.822"/>
			</g>
		</g>
		<g id="XMLID_90_">
			<g>
				<circle id="XMLID_1037_" fill="#FF5252" cx="34.646" cy="9.863" r="1.533"/>
				<path fill="#37474F" d="M34.646,11.896c-0.543,0-1.054-0.211-1.438-0.594c-0.791-0.794-0.791-2.083,0-2.875
					c0.768-0.769,2.107-0.768,2.875,0c0.791,0.792,0.791,2.082,0.001,2.875C35.7,11.685,35.189,11.896,34.646,11.896z M34.646,8.831
					c-0.276,0-0.535,0.107-0.73,0.302c-0.401,0.402-0.401,1.058,0.001,1.461c0.389,0.388,1.069,0.389,1.46-0.001
					c0.401-0.402,0.401-1.058,0-1.461C35.182,8.938,34.923,8.831,34.646,8.831z"/>
			</g>
			<g>
				<path id="XMLID_1036_" fill="#FF5252" d="M33.563,10.947l-2.285,3.52L33.563,10.947z"/>
				
					<rect x="31.92" y="10.609" transform="matrix(0.8383 0.5452 -0.5452 0.8383 12.1698 -15.6206)" fill="#37474F" width="1" height="4.196"/>
			</g>
		</g>
		<g id="XMLID_91_">
			<g>
				<circle id="XMLID_1002_" fill="#FF5252" cx="9.649" cy="37.356" r="1.916"/>
				<path fill="#37474F" d="M9.649,39.772c-0.646,0-1.252-0.251-1.708-0.708s-0.708-1.063-0.708-1.708s0.252-1.252,0.708-1.708
					c0.912-0.912,2.504-0.912,3.416,0c0.456,0.456,0.708,1.063,0.708,1.708s-0.252,1.252-0.708,1.708S10.295,39.772,9.649,39.772z
					 M9.649,35.941c-0.378,0-0.733,0.147-1.001,0.415c-0.268,0.268-0.415,0.623-0.415,1.001s0.147,0.733,0.415,1.001
					c0.535,0.534,1.467,0.534,2.002,0c0.268-0.268,0.415-0.623,0.415-1.001s-0.147-0.733-0.415-1.001
					C10.383,36.088,10.027,35.941,9.649,35.941z"/>
			</g>
			<g>
				<path id="XMLID_736_" fill="#FF5252" d="M14.167,33.644l-3.434,2.63L14.167,33.644z"/>
				
					<rect x="11.95" y="32.796" transform="matrix(0.6076 0.7942 -0.7942 0.6076 32.6498 3.8284)" fill="#37474F" width="1" height="4.325"/>
			</g>
		</g>
		<g id="XMLID_92_">
			<g>
				<circle id="XMLID_734_" fill="#FF5252" cx="41.49" cy="16.818" r="1.915"/>
				<path fill="#37474F" d="M41.488,19.233c-1.09,0-2.049-0.736-2.332-1.791c-0.344-1.286,0.423-2.613,1.708-2.958
					c1.268-0.34,2.622,0.449,2.959,1.708c0.166,0.623,0.081,1.274-0.241,1.833c-0.323,0.559-0.844,0.959-1.468,1.125
					C41.91,19.206,41.699,19.233,41.488,19.233z M41.491,15.402c-0.123,0-0.247,0.017-0.367,0.049
					c-0.754,0.203-1.203,0.98-1.001,1.733c0.197,0.738,0.989,1.199,1.733,1.001c0.365-0.098,0.67-0.332,0.859-0.659
					c0.188-0.328,0.239-0.709,0.141-1.074C42.691,15.833,42.13,15.402,41.491,15.402z"/>
			</g>
			<g>
				<path id="XMLID_728_" fill="#FF5252" d="M40.01,17.215l-8.004,3.56L40.01,17.215z"/>
				
					<rect x="35.508" y="14.615" transform="matrix(0.4061 0.9138 -0.9138 0.4061 38.7412 -21.6242)" fill="#37474F" width="1" height="8.76"/>
			</g>
		</g>
		<g id="XMLID_93_">
			<g>
				<circle id="XMLID_718_" fill="#FF5252" cx="6.125" cy="29.462" r="1.532"/>
				<path fill="#37474F" d="M6.124,31.495c-0.918,0-1.725-0.62-1.963-1.506c-0.289-1.083,0.355-2.2,1.438-2.489
					c1.062-0.286,2.204,0.378,2.489,1.437c0.14,0.524,0.067,1.072-0.203,1.542c-0.271,0.47-0.71,0.807-1.235,0.947
					C6.479,31.472,6.301,31.495,6.124,31.495z M6.127,28.43c-0.09,0-0.181,0.012-0.269,0.036c-0.551,0.147-0.878,0.714-0.73,1.265
					c0.144,0.538,0.721,0.877,1.264,0.729c0.268-0.071,0.49-0.242,0.628-0.481s0.174-0.517,0.103-0.784
					C7.002,28.744,6.593,28.43,6.127,28.43z"/>
			</g>
			<g>
				<path id="XMLID_716_" fill="#FF5252" d="M13.975,27.443l-6.369,1.622L13.975,27.443z"/>
				
					<rect x="10.29" y="24.968" transform="matrix(0.2462 0.9692 -0.9692 0.2462 35.518 10.8399)" fill="#37474F" width="1" height="6.572"/>
			</g>
		</g>
		<g id="XMLID_94_">
			<g>
				<circle id="XMLID_715_" fill="#FF5252" cx="43.439" cy="31.014" r="1.533"/>
				<path fill="#37474F" d="M43.44,33.046c-0.178,0-0.354-0.023-0.526-0.069c-1.083-0.291-1.728-1.407-1.438-2.489
					c0.283-1.058,1.428-1.723,2.489-1.438c0.525,0.14,0.964,0.477,1.235,0.947c0.271,0.47,0.343,1.018,0.203,1.542
					C45.165,32.427,44.358,33.046,43.44,33.046z M43.438,29.98c-0.466,0-0.876,0.315-0.996,0.766c-0.147,0.55,0.18,1.117,0.73,1.265
					c0.54,0.146,1.12-0.192,1.264-0.73c0.071-0.267,0.035-0.545-0.103-0.784c-0.138-0.238-0.36-0.409-0.627-0.48
					C43.618,29.993,43.528,29.98,43.438,29.98z"/>
			</g>
			<g>
				<path id="XMLID_708_" fill="#FF5252" d="M41.959,30.617l-5.53-1.845L41.959,30.617z"/>
				
					<rect x="36.279" y="29.195" transform="matrix(0.9486 0.3164 -0.3164 0.9486 11.4102 -10.8762)" fill="#37474F" width="5.83" height="1"/>
			</g>
		</g>
		<g id="XMLID_95_">
			<g>
				<circle id="XMLID_680_" fill="#FF5252" cx="6.658" cy="22.565" r="1.533"/>
				<path fill="#37474F" d="M6.659,24.598c-0.177,0-0.354-0.023-0.526-0.069c-1.083-0.291-1.728-1.408-1.438-2.49
					c0.286-1.06,1.425-1.721,2.49-1.437c0.524,0.14,0.963,0.477,1.234,0.947c0.271,0.47,0.343,1.018,0.203,1.542
					C8.384,23.979,7.577,24.598,6.659,24.598z M6.657,21.532c-0.466,0-0.875,0.315-0.997,0.766
					c-0.146,0.549,0.182,1.117,0.731,1.265c0.539,0.145,1.121-0.192,1.264-0.73c0.071-0.267,0.035-0.545-0.103-0.784
					s-0.36-0.41-0.627-0.481C6.837,21.544,6.747,21.532,6.657,21.532z"/>
			</g>
			<g>
				<path id="XMLID_677_" fill="#FF5252" d="M10.79,23.268l-2.651-0.306L10.79,23.268z"/>
				
					<rect x="8.13" y="22.615" transform="matrix(0.9934 0.1145 -0.1145 0.9934 2.7095 -0.9318)" fill="#37474F" width="2.669" height="1"/>
			</g>
		</g>
		<g id="XMLID_96_">
			<g>
				<circle id="XMLID_674_" fill="#FF5252" cx="6.125" cy="16" r="1.533"/>
				<path fill="#37474F" d="M6.126,18.033c-0.177,0-0.354-0.023-0.526-0.07c-0.525-0.14-0.964-0.477-1.235-0.947
					c-0.271-0.47-0.343-1.018-0.203-1.542c0.283-1.058,1.428-1.724,2.489-1.438c0.525,0.14,0.964,0.477,1.235,0.947
					c0.271,0.47,0.343,1.018,0.203,1.542C7.852,17.413,7.044,18.033,6.126,18.033z M6.124,14.967c-0.466,0-0.876,0.315-0.996,0.766
					C5.057,16,5.093,16.278,5.23,16.517s0.36,0.41,0.627,0.481c0.551,0.146,1.122-0.192,1.265-0.73
					C7.193,16,7.157,15.722,7.02,15.483s-0.36-0.41-0.627-0.481C6.304,14.979,6.214,14.967,6.124,14.967z"/>
			</g>
			<g>
				<path id="XMLID_671_" fill="#FF5252" d="M13.975,19.5l-6.369-3.104L13.975,19.5z"/>
				
					<rect x="7.248" y="17.448" transform="matrix(0.899 0.438 -0.438 0.899 8.9523 -2.9129)" fill="#37474F" width="7.085" height="1"/>
			</g>
		</g>
		<g id="XMLID_97_">
			<g>
				<circle id="XMLID_668_" fill="#FF5252" cx="10.707" cy="10.456" r="1.532"/>
				<path fill="#37474F" d="M10.706,12.488c-0.543,0-1.054-0.211-1.437-0.595C8.886,11.51,8.674,11,8.673,10.457
					c0-0.543,0.212-1.054,0.597-1.438c0.766-0.767,2.106-0.767,2.874,0c0.384,0.384,0.596,0.895,0.596,1.438
					s-0.212,1.053-0.596,1.437C11.76,12.276,11.249,12.488,10.706,12.488z M10.706,9.423c-0.275,0-0.534,0.107-0.729,0.302
					c-0.195,0.196-0.304,0.456-0.304,0.731c0.001,0.275,0.108,0.534,0.303,0.729c0.394,0.392,1.071,0.39,1.461,0
					c0.195-0.195,0.303-0.454,0.303-0.729c0-0.276-0.107-0.535-0.303-0.73C11.241,9.531,10.982,9.423,10.706,9.423z"/>
			</g>
			<g>
				<path id="XMLID_640_" fill="#FF5252" d="M15,15.242l-3.21-3.703L15,15.242z"/>
				
					<rect x="10.945" y="12.89" transform="matrix(0.655 0.7556 -0.7556 0.655 14.7397 -5.5019)" fill="#37474F" width="4.901" height="1"/>
			</g>
		</g>
		<g id="XMLID_98_">
			<g>
				<circle id="XMLID_633_" fill="#FF5252" cx="31.644" cy="40.037" r="1.533"/>
				<path fill="#37474F" d="M31.643,42.07c-0.917,0-1.725-0.62-1.962-1.507c-0.29-1.082,0.354-2.199,1.437-2.49
					c1.065-0.284,2.205,0.378,2.489,1.437c0.142,0.525,0.069,1.073-0.202,1.543c-0.271,0.47-0.71,0.806-1.233,0.946
					C31.998,42.047,31.82,42.07,31.643,42.07z M31.645,39.004c-0.09,0-0.181,0.012-0.269,0.035
					c-0.549,0.148-0.877,0.715-0.729,1.265c0.145,0.538,0.721,0.879,1.265,0.73c0.267-0.071,0.489-0.242,0.627-0.481
					s0.175-0.517,0.104-0.783C32.52,39.319,32.11,39.004,31.645,39.004z"/>
			</g>
			<g>
				<path id="XMLID_603_" fill="#FF5252" d="M30,36.984l0.877,1.732L30,36.984z"/>
				
					<rect x="29.468" y="37.351" transform="matrix(0.4516 0.8922 -0.8922 0.4516 50.4618 -6.4013)" fill="#37474F" width="1.942" height="1"/>
			</g>
		</g>
		<g id="XMLID_99_">
			<g>
				<circle id="XMLID_108_" fill="#FF5252" cx="40.543" cy="24.251" r="1.532"/>
				<path fill="#37474F" d="M40.542,26.283c-1.083,0-1.975-0.847-2.029-1.929c-0.028-0.542,0.157-1.063,0.521-1.465
					c0.364-0.403,0.863-0.64,1.405-0.668l0.104-0.002c1.083,0,1.974,0.847,2.028,1.929c0.058,1.119-0.807,2.076-1.926,2.133
					L40.542,26.283z M40.544,23.219c-0.329,0.015-0.583,0.136-0.768,0.341c-0.186,0.205-0.279,0.469-0.266,0.744
					c0.028,0.549,0.481,0.979,1.031,0.979v0.5l0.054-0.501c0.275-0.014,0.529-0.134,0.714-0.339s0.278-0.469,0.265-0.745
					C41.546,23.649,41.094,23.219,40.544,23.219z"/>
			</g>
			<g>
				<path id="XMLID_107_" fill="#FF5252" d="M36.911,24.258l2.101,0.071L36.911,24.258z"/>
				
					<rect x="36.911" y="23.794" transform="matrix(0.9994 0.0339 -0.0339 0.9994 0.8458 -1.2736)" fill="#37474F" width="2.102" height="1"/>
			</g>
		</g>
		<rect id="XMLID_2227_" x="30" y="31" fill="#37474F" width="1" height="1"/>
		<rect id="XMLID_2226_" x="28" y="33" fill="#37474F" width="1" height="1"/>
		<rect id="XMLID_2225_" x="22" y="26" fill="#37474F" width="1" height="1"/>
		<rect id="XMLID_2224_" x="34" y="24" fill="#37474F" width="1" height="1"/>
		<rect id="XMLID_2223_" x="15" y="30" fill="#37474F" width="1" height="1"/>
		<rect id="XMLID_2222_" x="14" y="23" fill="#37474F" width="1" height="1"/>
		<rect id="XMLID_2221_" x="22" y="17" fill="#37474F" width="1" height="1"/>
		<rect id="XMLID_2220_" x="23" y="14" fill="#37474F" width="1" height="1"/>
	</g>
	<g id="XMLID_664_">
		<g id="XMLID_669_">
			<g id="XMLID_679_">
				<path id="XMLID_681_" fill="#CCFF90" d="M17.454,46.753l-4.908,10.526L17.454,46.753z"/>
				
					<rect x="14.572" y="46.225" transform="matrix(0.9062 0.4228 -0.4228 0.9062 23.3424 -1.5086)" fill="#37474F" width="1" height="11.274"/>
			</g>
			<g id="XMLID_676_">
				<path id="XMLID_678_" fill="#CCFF90" d="M20.457,50.029L9.543,54.002L20.457,50.029z"/>
				
					<rect x="14.327" y="46.486" transform="matrix(0.3378 0.9412 -0.9412 0.3378 58.8568 20.5451)" fill="#37474F" width="1" height="11.231"/>
			</g>
			<g id="XMLID_673_">
				<path id="XMLID_675_" fill="#CCFF90" d="M20.264,54.471L9.736,49.563L20.264,54.471z"/>
				
					<rect x="9.192" y="51.517" transform="matrix(0.9063 0.4226 -0.4226 0.9063 23.3853 -1.4662)" fill="#37474F" width="11.615" height="1"/>
			</g>
			<g id="XMLID_670_">
				<path id="XMLID_672_" fill="#CCFF90" d="M16.986,57.473l-3.973-10.914L16.986,57.473z"/>
				
					<rect x="9.093" y="51.559" transform="matrix(0.3261 0.9453 -0.9453 0.3261 59.2604 20.9848)" fill="#37474F" width="11.636" height="1"/>
			</g>
		</g>
		<g>
			<circle id="XMLID_104_" fill="#FF8A80" cx="15" cy="52.016" r="3.629"/>
			<path fill="#37474F" d="M15,56.146c-2.276,0-4.129-1.853-4.129-4.131c0-2.277,1.853-4.129,4.129-4.129s4.129,1.852,4.129,4.129
				C19.129,54.293,17.276,56.146,15,56.146z M15,48.887c-1.726,0-3.129,1.404-3.129,3.129c0,1.727,1.403,3.131,3.129,3.131
				s3.129-1.404,3.129-3.131C18.129,50.291,16.726,48.887,15,48.887z"/>
		</g>
	</g>
	<g id="XMLID_100_">
		<g id="XMLID_101_">
			<g id="XMLID_639_">
				<path id="XMLID_641_" fill="#CCFF90" d="M54.381,4.75l-6.762,14.5L54.381,4.75z"/>
				
					<rect x="50.599" y="4.022" transform="matrix(0.9062 0.4228 -0.4228 0.9062 9.7769 -20.5008)" fill="#37474F" width="1" height="15.53"/>
			</g>
			<g id="XMLID_602_">
				<path id="XMLID_604_" fill="#CCFF90" d="M58.518,9.264l-15.035,5.473L58.518,9.264z"/>
				
					<rect x="50.771" y="4.758" transform="matrix(0.3419 0.9397 -0.9397 0.3419 44.9822 -40.3086)" fill="#37474F" width="1" height="14.408"/>
			</g>
			<g id="XMLID_102_">
				<path id="XMLID_103_" fill="#CCFF90" d="M58.25,15.381l-14.5-6.762L58.25,15.381z"/>
				
					<rect x="43" y="11.5" transform="matrix(0.9063 0.4226 -0.4226 0.9063 9.8502 -20.4298)" fill="#37474F" width="15.999" height="1"/>
			</g>
			<g id="XMLID_105_">
				<path id="XMLID_106_" fill="#CCFF90" d="M53.736,19.518L48.264,4.482L53.736,19.518z"/>
				
					<rect x="43.321" y="11.877" transform="matrix(0.325 0.9457 -0.9457 0.325 46.1271 -39.8737)" fill="#37474F" width="15.351" height="1"/>
			</g>
		</g>
		<g>
			<circle id="XMLID_1_" fill="#FF8A80" cx="51" cy="12" r="5"/>
			<path fill="#37474F" d="M51,17.5c-3.032,0-5.5-2.467-5.5-5.5s2.468-5.5,5.5-5.5s5.5,2.467,5.5,5.5S54.032,17.5,51,17.5z M51,7.5
				c-2.481,0-4.5,2.019-4.5,4.5s2.019,4.5,4.5,4.5s4.5-2.019,4.5-4.5S53.481,7.5,51,7.5z"/>
		</g>
		<rect id="XMLID_109_" x="50" y="10" fill="#37474F" width="1" height="1"/>
		<rect id="XMLID_110_" x="53" y="12" fill="#37474F" width="1" height="1"/>
		<rect id="XMLID_111_" x="49" y="13" fill="#37474F" width="1" height="1"/>
	</g>
</g>
</svg>
