<?xml version="1.0" encoding="utf-8"?>
<!-- Generator: Adobe Illustrator 16.0.0, SVG Export Plug-In . SVG Version: 6.00 Build 0)  -->
<!DOCTYPE svg PUBLIC "-//W3C//DTD SVG 1.1//EN" "http://www.w3.org/Graphics/SVG/1.1/DTD/svg11.dtd">
<svg version="1.1" id="_x3C_Layer_x3E_" xmlns="http://www.w3.org/2000/svg" xmlns:xlink="http://www.w3.org/1999/xlink" x="0px"
	 y="0px" width="64px" height="64px" viewBox="0 0 64 64" enable-background="new 0 0 64 64" xml:space="preserve">
<g id="lung_x2C__protection_x2C__safe_x2C__shield_x2C__check_mark">
	<g id="lungs_2_">
		<path id="XMLID_2111_" fill="#FFFFFF" d="M54.722,58.028l-14.011-7.31c-3.203-1.671-5.211-4.983-5.211-8.596V14.769
			c0-2.357,1.911-4.269,4.269-4.269l0,0c1.11,0,2.177,0.433,2.974,1.206l1.459,1.416C53.342,21.996,58.5,34.192,58.5,46.933v8.806
			C58.5,57.678,56.441,58.926,54.722,58.028z"/>
		<path id="XMLID_2107_" fill="#FF8A80" d="M42.844,11.804c-0.497-0.197-1.03-0.304-1.575-0.304C38.911,11.5,37,13.411,37,15.769
			v27.354c0,2.989,1.391,5.759,3.681,7.577c0.011,0.006,0.02,0.013,0.03,0.019l14.011,7.31c1.72,0.897,3.778-0.351,3.778-2.29
			v-8.806c0-12.74-5.158-24.937-14.299-33.811L42.844,11.804z"/>
		<path id="XMLID_2109_" fill="#FF8A80" d="M9.278,58.028l14.011-7.31c3.203-1.671,5.211-4.983,5.211-8.596V14.769
			c0-2.357-1.911-4.269-4.269-4.269l0,0c-1.11,0-2.177,0.433-2.974,1.206l-1.459,1.416C10.658,21.996,5.5,34.192,5.5,46.933v8.806
			C5.5,57.678,7.559,58.926,9.278,58.028z"/>
		<path id="XMLID_2108_" fill="#FFFFFF" d="M9.278,58.028l14.011-7.31c3.203-1.671,5.211-4.983,5.211-8.596V14.769
			c0-2.357-1.911-4.269-4.269-4.269l0,0c-1.11,0-2.177,0.433-2.974,1.206l-1.459,1.416C10.658,21.996,5.5,34.192,5.5,46.933v8.806
			C5.5,57.678,7.559,58.926,9.278,58.028z"/>
		<path id="XMLID_2106_" fill="#FF8A80" d="M9.278,58.028l13.841-7.221l0.67-0.589c0.74-0.387,1.409-0.869,2.012-1.414
			c1.695-1.775,2.699-4.148,2.699-6.682V14.769c0-1.153-0.462-2.195-1.205-2.964c-0.484-0.193-1.01-0.305-1.563-0.305
			c-1.11,0-2.177,0.433-2.974,1.206l-1.459,1.416C12.158,22.996,7,35.192,7,47.933v8.806c0,0.063,0.003,0.605,0.009,1.328
			C7.695,58.385,8.517,58.426,9.278,58.028z"/>
		<g id="XMLID_2096_">
			<path id="XMLID_2105_" fill="#ECEFF1" d="M33.5,24.183V5h-3v19.183c0,0.467-0.323,0.879-0.781,0.971
				c-3.547,0.711-6.219,3.341-6.219,7.097v1.25c0,0.553,0.447,1,1,1l0,0c0.553,0,1-0.447,1-1v-0.25c0-3.176,2.574-5.75,5.75-5.75
				h1.5c3.176,0,5.75,2.574,5.75,5.75v0.25c0,0.553,0.447,1,1,1l0,0c0.553,0,1-0.447,1-1v-1.25c0-3.756-2.672-6.386-6.219-7.097
				C33.823,25.062,33.5,24.649,33.5,24.183z"/>
			<path fill="#37474F" d="M46,42h-2.265c-2.186,0-4.152-1.215-5.13-3.171C38.209,38.037,38,37.149,38,36.264V33.5
				c0-3.032-2.467-5.5-5.5-5.5v-1c3.584,0,6.5,2.916,6.5,6.5v2.764c0,0.731,0.173,1.464,0.5,2.118C40.308,39.997,41.93,41,43.735,41
				H46V42z"/>
			
				<rect x="39.114" y="42" transform="matrix(0.3511 0.9363 -0.9363 0.3511 66.5602 -11.0463)" fill="#37474F" width="4.272" height="1"/>
			<path fill="#37474F" d="M20.265,42H18v-1h2.265c1.805,0,3.428-1.003,4.235-2.618c0.327-0.654,0.5-1.387,0.5-2.118V33.5
				c0-3.584,2.916-6.5,6.5-6.5h1.25v1H31.5c-3.033,0-5.5,2.468-5.5,5.5v2.764c0,0.886-0.209,1.773-0.605,2.565
				C24.417,40.785,22.451,42,20.265,42z"/>
			<path fill="#37474F" d="M48,36h-4.5c-1.846,0-3.362-1.437-3.491-3.25H40c0-3.442-2.446-6.431-5.816-7.106
				C33.498,25.507,33,24.892,33,24.183V5h1v19.183c0,0.234,0.16,0.437,0.38,0.48c3.754,0.753,6.5,4.026,6.616,7.837H41
				c0,1.379,1.122,2.5,2.5,2.5H48V36z"/>
			<path fill="#37474F" d="M20.5,36H16v-1h4.5c1.378,0,2.5-1.121,2.5-2.5h0.004c0.116-3.811,2.862-7.084,6.616-7.837
				c0.22-0.044,0.38-0.246,0.38-0.48V5h1v19.183c0,0.709-0.498,1.324-1.184,1.461C26.446,26.319,24,29.308,24,32.75h-0.009
				C23.862,34.563,22.346,36,20.5,36z"/>
			
				<rect x="22.25" y="40.364" transform="matrix(0.9362 0.3514 -0.3514 0.9362 16.3876 -5.2842)" fill="#37474F" width="1" height="4.272"/>
			
				<rect x="44.25" y="32.047" transform="matrix(0.7681 0.6403 -0.6403 0.7681 32.1452 -20.7694)" fill="#37474F" width="1.001" height="3.905"/>
			
				<rect x="17.297" y="33.5" transform="matrix(0.6402 0.7682 -0.7682 0.6402 33.046 -2.5545)" fill="#37474F" width="3.905" height="1.001"/>
		</g>
		<path id="XMLID_2094_" fill="#37474F" d="M28,30.706v11.417c0,3.438-1.894,6.563-4.942,8.152l-14.011,7.31
			c-0.651,0.34-1.416,0.315-2.044-0.065S6,56.473,6,55.738v-8.806c0-12.53,5.156-24.724,14.147-33.451l1.459-1.417
			C22.313,11.378,23.246,11,24.231,11C26.31,11,28,12.69,28,14.769v9.345c0.327-0.125,0.655-0.249,1-0.335v-9.01
			C29,12.139,26.861,10,24.231,10c-1.247,0-2.427,0.479-3.322,1.348l-1.459,1.416C10.267,21.68,5,34.133,5,46.933v8.806
			c0,1.088,0.555,2.072,1.484,2.637c0.494,0.299,1.045,0.45,1.598,0.45c0.487,0,0.976-0.117,1.428-0.353l14.011-7.311
			C26.9,49.398,29,45.936,29,42.123V29.762C28.616,30.02,28.288,30.347,28,30.706z"/>
	</g>
	<g>
		<path fill="#37474F" d="M54.925,28.077l-0.764,0.401C56.658,34.269,58,40.556,58,46.933v8.806c0,0.734-0.375,1.4-1.003,1.781
			s-1.393,0.406-2.044,0.065l-14.011-7.31C37.894,48.686,36,45.561,36,42.123V30.706c-0.288-0.359-0.616-0.687-1-0.944v12.361
			c0,3.813,2.1,7.275,5.479,9.039l14.011,7.311c0.452,0.235,0.94,0.353,1.428,0.353c0.553,0,1.104-0.151,1.598-0.45
			C58.445,57.811,59,56.826,59,55.738v-8.806c0-6.543-1.384-12.992-3.956-18.929C55.003,28.026,54.967,28.056,54.925,28.077
			L54.925,28.077z"/>
		<path fill="#37474F" d="M35,14.769v9.01c0.345,0.086,0.673,0.21,1,0.335v-9.345c0-1.436,0.816-2.671,2-3.308v-1.112
			C36.245,11.053,35,12.765,35,14.769z"/>
	</g>
	<g>
		<path id="XMLID_697_" fill="#CCFF90" d="M54.227,26.75L49,29.5l-5.227-2.75c-2.628-1.384-4.273-4.109-4.273-7.08V8l0,0
			c3.24,0,6.389-1.08,8.947-3.069L49,4.5l0.553,0.43C52.111,6.92,55.26,8,58.5,8l0,0v11.67C58.5,22.641,56.854,25.366,54.227,26.75z
			"/>
		<path fill="#37474F" d="M49,30.065l-5.459-2.873C40.74,25.718,39,22.835,39,19.67V7.5h0.5c3.113,0,6.182-1.053,8.64-2.964
			L49,3.866l0.86,0.669C52.318,6.447,55.386,7.5,58.5,7.5H59v12.17c0,3.165-1.74,6.048-4.541,7.522L49,30.065z M40,8.491V19.67
			c0,2.793,1.535,5.336,4.006,6.638L49,28.935l4.994-2.627C56.465,25.006,58,22.463,58,19.67V8.491
			c-3.162-0.106-6.253-1.222-8.754-3.167L49,5.134l-0.246,0.191C46.253,7.271,43.162,8.385,40,8.491z"/>
	</g>
	<g id="XMLID_2110_">
		<circle id="XMLID_2114_" fill="#B2FF59" cx="49" cy="17.5" r="6.188"/>
		<polygon fill="#37474F" points="48.909,19.994 46.058,16.671 46.817,16.021 48.907,18.455 54.807,11.539 55.568,12.188 		"/>
	</g>
</g>
</svg>
