<?xml version="1.0" encoding="utf-8"?>
<!-- Generator: Adobe Illustrator 16.0.0, SVG Export Plug-In . SVG Version: 6.00 Build 0)  -->
<!DOCTYPE svg PUBLIC "-//W3C//DTD SVG 1.1//EN" "http://www.w3.org/Graphics/SVG/1.1/DTD/svg11.dtd">
<svg version="1.1" id="_x3C_Layer_x3E_" xmlns="http://www.w3.org/2000/svg" xmlns:xlink="http://www.w3.org/1999/xlink" x="0px"
	 y="0px" width="64px" height="64px" viewBox="0 0 64 64" enable-background="new 0 0 64 64" xml:space="preserve">
<g id="pharmacy">
	<g>
		<g>
			<g>
				<g>
					<path fill="#FFFFFF" d="M43,7.478c-0.828,0-1.5,0.671-1.5,1.5s0.672,1.5,1.5,1.5c4.889,0,12.5,0.5,12.5,7.5
						c0,8.567-8.34,13.823-18.931,17c-1.734,0.521-5.069,1.2-5.069,1.2v3.644c1.534-1,3.572-1.263,5.931-1.971
						C46.617,35.095,58.5,29.494,58.5,17.978C58.5,10.347,51.958,7.478,43,7.478z"/>
				</g>
				<g>
					<path fill="#B2FF59" d="M32,39c0.973-0.468,2.072-0.749,3.305-1.062c0.631-0.16,1.292-0.329,1.982-0.536
						C51.031,33.279,58,27.724,58,18.978c0-8.265-8.157-10-15-10c-0.552,0-1,0.449-1,1S42.448,10,43,10c3.556,0,13,0.978,13,8.978
						c0,7.759-6.489,13.64-19.287,17.479c-1.397,0.419-3.77,0.93-4.713,1.128V39z"/>
				</g>
				<g>
					<path fill="#37474F" d="M31,40.745V35.77l0.4-0.082c0.033-0.007,3.332-0.681,5.025-1.189C48.751,30.802,55,25.243,55,17.978
						c0-6.205-6.413-7-12-7c-1.103,0-2-0.897-2-2s0.897-2,2-2c10.468,0,16,3.804,16,11c0,9.109-7.409,16.147-21.426,20.352
						c-0.704,0.211-1.38,0.383-2.022,0.547c-1.485,0.378-2.767,0.704-3.778,1.364L31,40.745z M32,36.585v2.385
						c0.973-0.468,2.072-0.749,3.305-1.062c0.631-0.16,1.292-0.329,1.982-0.536C51.031,33.249,58,26.724,58,17.978
						c0-8.265-8.157-10-15-10c-0.552,0-1,0.449-1,1s0.448,1,1,1c3.556,0,13,0,13,8c0,7.759-6.489,13.64-19.287,17.479
						C35.315,35.876,32.943,36.387,32,36.585z"/>
				</g>
			</g>
		</g>
		<g>
			<rect x="30" y="28.978" fill="#FFFFFF" width="3" height="28"/>
		</g>
		<g>
			<rect x="31" y="28.978" fill="#FFD740" width="3" height="28"/>
		</g>
		<g>
			<rect x="31" y="28.978" fill="#FFE57F" width="1" height="28"/>
		</g>
		<g>
			<g>
				<path fill="#FFFFFF" d="M21.569,58c0-3,6.745-3.522,10.432-3.522S42.432,55,42.432,58H21.569z"/>
			</g>
			<g>
				<g>
					<path fill="#FFE57F" d="M32.76,54.498c-0.727,0.035-1.532,0.118-2.359,0.25c-0.143,0.023-0.285,0.049-0.427,0.075
						c-0.097,0.017-0.194,0.034-0.291,0.053c-2.823,0.553-5.513,1.654-6.025,3.104h18.187C41.143,55.997,36.379,54.667,32.76,54.498
						z"/>
				</g>
			</g>
			<g>
				<path fill="#FFD740" d="M32.76,54.498c-0.316,0.015-0.653,0.043-0.994,0.077c3.441,0.34,7.44,1.601,8.078,3.403h2
					C41.143,55.997,36.379,54.667,32.76,54.498z"/>
			</g>
		</g>
		<g>
			<g>
				<path fill="#FFFFFF" d="M50.5,17.978C50.5,26.978,40,32,32,32s-18.5-5.022-18.5-14.022H50.5z"/>
			</g>
			<g>
				<g>
					<path fill="#FFE57F" d="M50,17.978H15.012c0.383,8.699,10.769,13.5,17.988,13.5S49.615,26.677,50,17.978z"/>
				</g>
			</g>
			<g>
				<path fill="#FFD740" d="M48.489,17.978C48.117,26.38,38.417,31.145,31.25,31.46c0.253,0.011,0.504,0.018,0.75,0.018
					c7.22,0,17.604-4.801,17.989-13.5H48.489z"/>
			</g>
			<g>
				<g>
					<path fill="#37474F" d="M31,33.447c-0.329-0.018-0.662-0.045-1-0.08v19.227c0.349-0.036,0.683-0.063,1-0.082V33.447z"/>
				</g>
				<g>
					<path fill="#37474F" d="M34,33.368c-0.338,0.035-0.671,0.062-1,0.08v19.065c0.317,0.019,0.651,0.046,1,0.082V33.368z"/>
				</g>
			</g>
		</g>
		<g>
			<g>
				<path fill="#FFFFFF" d="M43.5,8.978c0,1.76-1.427,3.188-3.188,3.188c-2.833,0-5.313-1.771-5.313-3.188s2.479-3.188,5.313-3.188
					C42.073,5.791,43.5,7.218,43.5,8.978z"/>
			</g>
			<g>
				<g>
					<path fill="#CCFF90" d="M42.949,9.478c-0.235-1.243-1.326-2.188-2.637-2.188c-2.265,0-4.153,1.181-4.664,2.188
						c0.511,1.006,2.399,2.188,4.664,2.188C41.623,11.666,42.714,10.721,42.949,9.478z"/>
				</g>
			</g>
			<g>
				<path fill="#B2FF59" d="M40.313,10.666c-1.896,0-3.515-0.828-4.297-1.688c-0.152,0.167-0.284,0.336-0.367,0.5
					c0.511,1.006,2.399,2.188,4.664,2.188c1.311,0,2.401-0.944,2.637-2.188c-0.033-0.174-0.086-0.34-0.15-0.5
					C42.401,9.965,41.439,10.666,40.313,10.666z"/>
			</g>
			<g>
				<path fill="#37474F" d="M40.313,12.666c-2.934,0-5.813-1.827-5.813-3.688s2.879-3.688,5.813-3.688
					C42.346,5.291,44,6.945,44,8.978S42.346,12.666,40.313,12.666z M40.313,6.291c-2.656,0-4.813,1.626-4.813,2.688
					s2.156,2.688,4.813,2.688c1.481,0,2.688-1.206,2.688-2.688S41.794,6.291,40.313,6.291z"/>
			</g>
		</g>
		<g>
			<g>
				<g>
					<path fill="#FFE57F" d="M13,16.978h38H13z"/>
				</g>
				<g>
					<rect x="13" y="16.478" fill="#37474F" width="38" height="1"/>
				</g>
			</g>
			<g>
				<g>
					<g>
						<path fill="#FFFFFF" d="M13,18.478c-0.551,0-1-0.449-1-1s0.449-1,1-1h38c0.552,0,1,0.449,1,1s-0.448,1-1,1H13z"/>
					</g>
				</g>
				<g>
					<g>
						<path fill="#37474F" d="M51,16.978c0.276,0,0.5,0.224,0.5,0.5s-0.224,0.5-0.5,0.5H13c-0.276,0-0.5-0.224-0.5-0.5
							s0.224-0.5,0.5-0.5H51L51,16.978z M51,15.978H13c-0.827,0-1.5,0.673-1.5,1.5s0.673,1.5,1.5,1.5h38c0.827,0,1.5-0.673,1.5-1.5
							S51.827,15.978,51,15.978L51,15.978z"/>
					</g>
				</g>
				<g>
					<path fill="#FFE57F" d="M15,17.978h36c0.276,0,0.5-0.224,0.5-0.5s-0.224-0.5-0.5-0.5H15c-0.276,0-0.5,0.224-0.5,0.5
						S14.724,17.978,15,17.978z"/>
				</g>
				<g>
					<path fill="#FFD740" d="M51,16.978h-2.5c0.276,0,0.5,0.224,0.5,0.5s-0.224,0.5-0.5,0.5H51c0.276,0,0.5-0.224,0.5-0.5
						S51.276,16.978,51,16.978z"/>
				</g>
			</g>
		</g>
		<g>
			<g>
				<path fill="#FFFFFF" d="M26.667,51.379c0.362-1.369,1.5-2.984,3.833-3.157l-0.33-2.735c-3.004-0.216-5.92,2.867-6.303,5.692
					c-0.559,4.128,3.615,7.633,9.933,7.299C32.587,57.666,25.416,56.103,26.667,51.379z"/>
			</g>
			<g>
				<path fill="#B2FF59" d="M26.184,52.251c0.389-1.471,1.576-3.092,3.76-3.465L31,46c-2.644,0.098-6.313,3.852-6.637,6.246
					c-0.195,1.443,0.234,2.817,1.245,3.973C26.844,57.633,28.656,57.684,31,58C28.439,56.9,25.222,55.885,26.184,52.251z"/>
			</g>
			<g>
				<g>
					<path fill="#37474F" d="M25.743,58h-3.586c0.225-1,0.87-1.21,1.756-1.694c-0.215-0.267-0.41-0.549-0.583-0.834
						C21.95,56.236,21,57.225,21,58.478V59h6.613C26.942,59,26.312,58,25.743,58z"/>
				</g>
				<g>
					<path fill="#37474F" d="M32,53.478c-0.975,0-2.202,0.108-3.479,0.328c0.229,0.302,0.535,0.588,0.909,0.864
						c0.896-0.123,1.775-0.18,2.571-0.18c3.673,0,9.092,1.511,9.843,3.511h-6.633c0.101,0,0.118,0.596,0.034,0.9
						c-0.01,0.036-0.032,0.1-0.045,0.1H43v-0.522C43,54.988,35.693,53.478,32,53.478z"/>
				</g>
			</g>
			<g>
				<path fill="#37474F" d="M32.975,59L32.975,59c-3.426,0-6.385-1.139-8.119-3.124c-1.188-1.36-1.715-3.052-1.484-4.765
					c0.406-2.997,3.473-6.366,6.835-6.124c0.238,0.017,0.432,0.201,0.46,0.438l0.33,2.735c0.017,0.136-0.023,0.272-0.109,0.378
					c-0.088,0.105-0.213,0.171-0.35,0.181c-2.508,0.186-3.227,2.18-3.387,2.787c-0.818,3.092,2.413,4.672,5.506,5.91
					c0.659,0.264,1.135,0.454,1.422,0.646c0.179,0.12,0.261,0.341,0.203,0.548c-0.057,0.208-0.24,0.355-0.455,0.367
					C33.537,58.993,33.254,59,32.975,59z M29.726,45.978c-2.644,0.098-5.038,2.874-5.362,5.268
					c-0.195,1.443,0.234,2.817,1.245,3.973c1.235,1.415,3.202,2.347,5.546,2.663c-2.561-1.1-5.933-2.996-4.971-6.63
					c0.389-1.471,1.576-3.092,3.76-3.465L29.726,45.978z"/>
			</g>
		</g>
		<g>
			<g>
				<path fill="#FFFFFF" d="M30.5,39.416c0-1.842,0-3.001,0-3.001c-4,0.483-6.398,2.867-6.398,5.302
					c0,6.698,14.898,7.262,13.898,2.698c-0.374-1.708-2.249-0.875-4-0.555c-1.75,0.321-6.359,0.09-6.359-2.334
					C27.641,40.116,29.709,39.642,30.5,39.416z"/>
			</g>
			<g>
				<path fill="#B2FF59" d="M24.602,42.716c0,3.353,4.316,4.284,8.379,4.284c2.016,0,3.659,0.392,4.288-0.39
					c0.255-0.316,0.334-0.672,0.243-1.089c-0.105-0.479-0.328-0.649-0.854-0.649c-0.443,0-1.002,0.13-1.594,0.268
					c-0.322,0.075-0.65,0.152-0.975,0.211c-0.43,0.079-0.99,0.123-1.574,0.123c-2.599,0-5.375-0.775-5.375-2.949
					c0-1.593,1.817-2.194,2.859-2.489v-2.043C26.453,38.608,24.602,40.785,24.602,42.716z"/>
			</g>
			<g>
				<path fill="#37474F" d="M32.98,47.877c-4.547,0-9.379-2.159-9.379-6.161c0-2.471,2.35-5.255,6.838-5.798L31,35.851v3.942
					l-0.539,0.153c-0.754,0.209-2.32,0.644-2.32,1.58c0,1.538,2.75,1.949,4.375,1.949c0.525,0,1.021-0.038,1.395-0.106
					c0.309-0.057,0.621-0.13,0.928-0.201c0.649-0.151,1.262-0.294,1.82-0.294c1.253,0,1.687,0.78,1.83,1.435
					c0.156,0.71,0.004,1.378-0.44,1.93C37.209,47.28,35.361,47.877,32.98,47.877z M30,36.993c-3.547,0.615-5.398,2.792-5.398,4.723
					c0,3.353,4.316,5.161,8.379,5.161c2.016,0,3.659-0.485,4.288-1.267c0.255-0.316,0.334-0.672,0.243-1.089
					c-0.105-0.479-0.328-0.649-0.854-0.649c-0.443,0-1.002,0.13-1.594,0.268c-0.322,0.075-0.65,0.152-0.975,0.211
					c-0.43,0.079-0.99,0.123-1.574,0.123c-2.599,0-5.375-0.775-5.375-2.949c0-1.593,1.817-2.194,2.859-2.489V36.993z"/>
			</g>
		</g>
		<g>
			<g>
				<path fill="#B2FF59" d="M40,10.841l-0.438-0.5L40,10.841z"/>
			</g>
			<g>
				<path fill="#37474F" d="M40,11.341c-0.139,0-0.277-0.058-0.376-0.171l-0.438-0.5c-0.183-0.208-0.161-0.523,0.047-0.706
					c0.207-0.182,0.522-0.162,0.705,0.047l0.438,0.5c0.183,0.208,0.161,0.523-0.047,0.706C40.234,11.3,40.117,11.341,40,11.341z"/>
			</g>
		</g>
		<g>
			<g>
				<path fill="#B2FF59" d="M40,7.041l-0.438,0.5L40,7.041z"/>
			</g>
			<g>
				<path fill="#37474F" d="M39.563,8.041c-0.117,0-0.234-0.041-0.329-0.124c-0.208-0.182-0.229-0.498-0.047-0.706l0.438-0.5
					c0.183-0.209,0.498-0.228,0.705-0.047c0.208,0.182,0.229,0.498,0.047,0.706l-0.438,0.5C39.84,7.983,39.701,8.041,39.563,8.041z"
					/>
			</g>
		</g>
		<g>
			<g>
				<path fill="#B2FF59" d="M31.938,8.966H35H31.938z"/>
			</g>
			<g>
				<path fill="#37474F" d="M35,9.466h-3.063c-0.276,0-0.5-0.224-0.5-0.5s0.224-0.5,0.5-0.5H35c0.276,0,0.5,0.224,0.5,0.5
					S35.276,9.466,35,9.466z"/>
			</g>
		</g>
		<g>
			<g>
				<path fill="#37474F" d="M31,10.478c-0.128,0-0.256-0.049-0.354-0.146c-0.195-0.195-0.195-0.512,0-0.707l0.646-0.646
					l-0.646-0.646c-0.195-0.195-0.195-0.512,0-0.707s0.512-0.195,0.707,0l1,1c0.195,0.195,0.195,0.512,0,0.707l-1,1
					C31.256,10.429,31.128,10.478,31,10.478z"/>
			</g>
		</g>
	</g>
	<g>
		<path fill="#37474F" d="M49.964,18.291C49.346,26.791,39.132,31.478,32,31.478c-6.645,0-15.965-4.07-17.707-11.5h-1.027
			c1.73,8.075,11.668,12.5,18.734,12.5c7.545,0,18.361-5.043,18.971-14.188H49.964z"/>
	</g>
</g>
</svg>
