<?xml version="1.0" encoding="utf-8"?>
<!-- Generator: Adobe Illustrator 16.0.0, SVG Export Plug-In . SVG Version: 6.00 Build 0)  -->
<!DOCTYPE svg PUBLIC "-//W3C//DTD SVG 1.1//EN" "http://www.w3.org/Graphics/SVG/1.1/DTD/svg11.dtd">
<svg version="1.1" id="_x3C_Layer_x3E_" xmlns="http://www.w3.org/2000/svg" xmlns:xlink="http://www.w3.org/1999/xlink" x="0px"
	 y="0px" width="64px" height="64px" viewBox="0 0 64 64" enable-background="new 0 0 64 64" xml:space="preserve">
<g id="medical_prescription">
	<g>
		<g>
			<g>
				<polygon fill="#FFFFFF" points="6,59 6,5 36.793,5 48,16.207 48,59 				"/>
			</g>
		</g>
	</g>
	<g>
		<g>
			<g>
				<polygon fill="#ECEFF1" points="37,16 47,16 48,27 				"/>
			</g>
		</g>
	</g>
	<g>
		<g>
			<g>
				<polygon fill="#84FFFF" points="37,16 37,6.207 46.793,16 				"/>
			</g>
		</g>
	</g>
	<g>
		<g>
			<g>
				<g>
					<rect x="20" y="20" fill="#37474F" width="13" height="1"/>
				</g>
			</g>
			<g>
				<g>
					<rect x="14" y="49" fill="#37474F" width="8" height="1"/>
				</g>
			</g>
			<g>
				<g>
					<rect x="14" y="45" fill="#37474F" width="8" height="1"/>
				</g>
			</g>
			<g>
				<g>
					<rect x="14" y="41" fill="#37474F" width="8" height="1"/>
				</g>
			</g>
			<g>
				<g>
					<rect x="14" y="37" fill="#37474F" width="8" height="1"/>
				</g>
			</g>
			<g>
				<g>
					<rect x="14" y="29" fill="#37474F" width="28" height="1"/>
				</g>
			</g>
			<g>
				<g>
					<rect x="14" y="25" fill="#37474F" width="28" height="1"/>
				</g>
			</g>
			<g>
				<g>
					<g>
						<g>
							<rect x="11" y="49" fill="#37474F" width="1" height="1"/>
						</g>
					</g>
				</g>
				<g>
					<g>
						<g>
							<rect x="11" y="45" fill="#37474F" width="1" height="1"/>
						</g>
					</g>
				</g>
				<g>
					<g>
						<g>
							<rect x="11" y="41" fill="#37474F" width="1" height="1"/>
						</g>
					</g>
				</g>
				<g>
					<g>
						<g>
							<rect x="11" y="37" fill="#37474F" width="1" height="1"/>
						</g>
					</g>
				</g>
				<g>
					<g>
						<g>
							<rect x="11" y="33" fill="#37474F" width="1" height="1"/>
						</g>
					</g>
				</g>
				<g>
					<g>
						<g>
							<rect x="11" y="29" fill="#37474F" width="1" height="1"/>
						</g>
					</g>
				</g>
			</g>
			<g>
				<g>
					<rect x="11" y="25" fill="#37474F" width="1" height="1"/>
				</g>
			</g>
		</g>
		<g>
			<g>
				<g>
					<circle fill="#FF8A80" cx="14.5" cy="14.5" r="4.5"/>
				</g>
				<g>
					<path fill="#37474F" d="M14.5,19.5c-2.757,0-5-2.243-5-5s2.243-5,5-5s5,2.243,5,5S17.257,19.5,14.5,19.5z M14.5,10.5
						c-2.206,0-4,1.794-4,4s1.794,4,4,4s4-1.794,4-4S16.706,10.5,14.5,10.5z"/>
				</g>
			</g>
			<g>
				<g>
					<rect x="14" y="12" fill="#37474F" width="1" height="5"/>
				</g>
			</g>
			<g>
				<g>
					<rect x="12" y="14" fill="#37474F" width="5" height="1"/>
				</g>
			</g>
		</g>
	</g>
	<g>
		<g>
			<path fill="#37474F" d="M22.762,58H6V6h30.586H37v10h10v15h1V16L37,5H5v54h18.707C23.346,58.712,23.02,58.384,22.762,58z
				 M38,7.414L45.586,15H38V7.414z"/>
		</g>
		<g>
			<g>
				<g>
					<path fill="#FFE57F" d="M23.5,55.5c0,1.65,1.35,3,3,3h29c1.65,0,3-1.35,3-3v-20c0-1.65-1.35-3-3-3h-29c-1.65,0-3,1.35-3,3V55.5
						z"/>
				</g>
			</g>
			<g>
				<g>
					<path fill="#37474F" d="M55.5,59h-29c-1.93,0-3.5-1.57-3.5-3.5v-20c0-1.93,1.57-3.5,3.5-3.5h29c1.93,0,3.5,1.57,3.5,3.5v20
						C59,57.43,57.43,59,55.5,59z M26.5,33c-1.378,0-2.5,1.122-2.5,2.5v20c0,1.378,1.122,2.5,2.5,2.5h29c1.378,0,2.5-1.122,2.5-2.5
						v-20c0-1.378-1.122-2.5-2.5-2.5H26.5z"/>
				</g>
			</g>
		</g>
		<g>
			<g>
				<path fill="#37474F" d="M22.762,33H14v1h8.276C22.402,33.646,22.556,33.307,22.762,33z"/>
			</g>
		</g>
		<g>
			<g>
				<g>
					<g>
						<path fill="#FF5252" d="M53,48c-0.551,0-1,0.449-1,1v5c0,0.551,0.449,1,1,1s1-0.449,1-1v-5C54,48.449,53.551,48,53,48z"/>
					</g>
				</g>
				<g>
					<g>
						<g>
							<path fill="#18FFFF" d="M53,55c0.551,0,1-0.449,1-1v-2c0-0.551-0.449-1-1-1s-1,0.449-1,1v2C52,54.551,52.449,55,53,55z"/>
						</g>
					</g>
				</g>
				<g>
					<g>
						<g>
							<path fill="#37474F" d="M53,56c-1.103,0-2-0.897-2-2v-5c0-1.103,0.897-2,2-2s2,0.897,2,2v5C55,55.103,54.103,56,53,56z
								 M53,48c-0.551,0-1,0.449-1,1v5c0,0.551,0.449,1,1,1s1-0.449,1-1v-5C54,48.449,53.551,48,53,48z"/>
						</g>
					</g>
				</g>
			</g>
			<g>
				<g>
					<g>
						<path fill="#FF5252" d="M47,48c-0.551,0-1,0.449-1,1v5c0,0.551,0.449,1,1,1s1-0.449,1-1v-5C48,48.449,47.551,48,47,48z"/>
					</g>
				</g>
				<g>
					<g>
						<g>
							<path fill="#18FFFF" d="M47,55c0.551,0,1-0.449,1-1v-2c0-0.551-0.449-1-1-1s-1,0.449-1,1v2C46,54.551,46.449,55,47,55z"/>
						</g>
					</g>
				</g>
				<g>
					<g>
						<g>
							<path fill="#37474F" d="M47,56c-1.103,0-2-0.897-2-2v-5c0-1.103,0.897-2,2-2s2,0.897,2,2v5C49,55.103,48.103,56,47,56z
								 M47,48c-0.551,0-1,0.449-1,1v5c0,0.551,0.449,1,1,1s1-0.449,1-1v-5C48,48.449,47.551,48,47,48z"/>
						</g>
					</g>
				</g>
			</g>
			<g>
				<g>
					<g>
						<path fill="#FF5252" d="M41,48c-0.551,0-1,0.449-1,1v5c0,0.551,0.449,1,1,1s1-0.449,1-1v-5C42,48.449,41.551,48,41,48z"/>
					</g>
				</g>
				<g>
					<g>
						<g>
							<path fill="#18FFFF" d="M41,55c0.551,0,1-0.449,1-1v-2c0-0.551-0.449-1-1-1s-1,0.449-1,1v2C40,54.551,40.449,55,41,55z"/>
						</g>
					</g>
				</g>
				<g>
					<g>
						<g>
							<path fill="#37474F" d="M41,56c-1.103,0-2-0.897-2-2v-5c0-1.103,0.897-2,2-2s2,0.897,2,2v5C43,55.103,42.103,56,41,56z
								 M41,48c-0.551,0-1,0.449-1,1v5c0,0.551,0.449,1,1,1s1-0.449,1-1v-5C42,48.449,41.551,48,41,48z"/>
						</g>
					</g>
				</g>
			</g>
			<g>
				<g>
					<g>
						<path fill="#FF5252" d="M35,48c-0.551,0-1,0.449-1,1v5c0,0.551,0.449,1,1,1s1-0.449,1-1v-5C36,48.449,35.551,48,35,48z"/>
					</g>
				</g>
				<g>
					<g>
						<g>
							<path fill="#18FFFF" d="M35,55c0.551,0,1-0.449,1-1v-2c0-0.551-0.449-1-1-1s-1,0.449-1,1v2C34,54.551,34.449,55,35,55z"/>
						</g>
					</g>
				</g>
				<g>
					<g>
						<g>
							<path fill="#37474F" d="M35,56c-1.103,0-2-0.897-2-2v-5c0-1.103,0.897-2,2-2s2,0.897,2,2v5C37,55.103,36.103,56,35,56z
								 M35,48c-0.551,0-1,0.449-1,1v5c0,0.551,0.449,1,1,1s1-0.449,1-1v-5C36,48.449,35.551,48,35,48z"/>
						</g>
					</g>
				</g>
			</g>
			<g>
				<g>
					<g>
						<path fill="#FF5252" d="M29,48c-0.551,0-1,0.449-1,1v5c0,0.551,0.449,1,1,1s1-0.449,1-1v-5C30,48.449,29.551,48,29,48z"/>
					</g>
				</g>
				<g>
					<g>
						<g>
							<path fill="#18FFFF" d="M29,55c0.551,0,1-0.449,1-1v-2c0-0.551-0.449-1-1-1s-1,0.449-1,1v2C28,54.551,28.449,55,29,55z"/>
						</g>
					</g>
				</g>
				<g>
					<g>
						<g>
							<path fill="#37474F" d="M29,56c-1.103,0-2-0.897-2-2v-5c0-1.103,0.897-2,2-2s2,0.897,2,2v5C31,55.103,30.103,56,29,56z
								 M29,48c-0.551,0-1,0.449-1,1v5c0,0.551,0.449,1,1,1s1-0.449,1-1v-5C30,48.449,29.551,48,29,48z"/>
						</g>
					</g>
				</g>
			</g>
			<g>
				<g>
					<g>
						<path fill="#FF5252" d="M53,36c-0.551,0-1,0.449-1,1v5c0,0.551,0.449,1,1,1s1-0.449,1-1v-5C54,36.449,53.551,36,53,36z"/>
					</g>
				</g>
				<g>
					<g>
						<g>
							<path fill="#18FFFF" d="M53,43c0.551,0,1-0.449,1-1v-2c0-0.551-0.449-1-1-1s-1,0.449-1,1v2C52,42.551,52.449,43,53,43z"/>
						</g>
					</g>
				</g>
				<g>
					<g>
						<g>
							<path fill="#37474F" d="M53,44c-1.103,0-2-0.897-2-2v-5c0-1.103,0.897-2,2-2s2,0.897,2,2v5C55,43.103,54.103,44,53,44z
								 M53,36c-0.551,0-1,0.449-1,1v5c0,0.551,0.449,1,1,1s1-0.449,1-1v-5C54,36.449,53.551,36,53,36z"/>
						</g>
					</g>
				</g>
			</g>
			<g>
				<g>
					<g>
						<path fill="#FF5252" d="M47,36c-0.551,0-1,0.449-1,1v5c0,0.551,0.449,1,1,1s1-0.449,1-1v-5C48,36.449,47.551,36,47,36z"/>
					</g>
				</g>
				<g>
					<g>
						<g>
							<path fill="#18FFFF" d="M47,43c0.551,0,1-0.449,1-1v-2c0-0.551-0.449-1-1-1s-1,0.449-1,1v2C46,42.551,46.449,43,47,43z"/>
						</g>
					</g>
				</g>
				<g>
					<g>
						<g>
							<path fill="#37474F" d="M47,44c-1.103,0-2-0.897-2-2v-5c0-1.103,0.897-2,2-2s2,0.897,2,2v5C49,43.103,48.103,44,47,44z
								 M47,36c-0.551,0-1,0.449-1,1v5c0,0.551,0.449,1,1,1s1-0.449,1-1v-5C48,36.449,47.551,36,47,36z"/>
						</g>
					</g>
				</g>
			</g>
			<g>
				<g>
					<g>
						<path fill="#FF5252" d="M41,36c-0.551,0-1,0.449-1,1v5c0,0.551,0.449,1,1,1s1-0.449,1-1v-5C42,36.449,41.551,36,41,36z"/>
					</g>
				</g>
				<g>
					<g>
						<g>
							<path fill="#18FFFF" d="M41,43c0.551,0,1-0.449,1-1v-2c0-0.551-0.449-1-1-1s-1,0.449-1,1v2C40,42.551,40.449,43,41,43z"/>
						</g>
					</g>
				</g>
				<g>
					<g>
						<g>
							<path fill="#37474F" d="M41,44c-1.103,0-2-0.897-2-2v-5c0-1.103,0.897-2,2-2s2,0.897,2,2v5C43,43.103,42.103,44,41,44z
								 M41,36c-0.551,0-1,0.449-1,1v5c0,0.551,0.449,1,1,1s1-0.449,1-1v-5C42,36.449,41.551,36,41,36z"/>
						</g>
					</g>
				</g>
			</g>
			<g>
				<g>
					<g>
						<path fill="#FF5252" d="M35,36c-0.551,0-1,0.449-1,1v5c0,0.551,0.449,1,1,1s1-0.449,1-1v-5C36,36.449,35.551,36,35,36z"/>
					</g>
				</g>
				<g>
					<g>
						<g>
							<path fill="#18FFFF" d="M35,43c0.551,0,1-0.449,1-1v-2c0-0.551-0.449-1-1-1s-1,0.449-1,1v2C34,42.551,34.449,43,35,43z"/>
						</g>
					</g>
				</g>
				<g>
					<g>
						<g>
							<path fill="#37474F" d="M35,44c-1.103,0-2-0.897-2-2v-5c0-1.103,0.897-2,2-2s2,0.897,2,2v5C37,43.103,36.103,44,35,44z
								 M35,36c-0.551,0-1,0.449-1,1v5c0,0.551,0.449,1,1,1s1-0.449,1-1v-5C36,36.449,35.551,36,35,36z"/>
						</g>
					</g>
				</g>
			</g>
			<g>
				<g>
					<g>
						<path fill="#FF5252" d="M29,36c-0.551,0-1,0.449-1,1v5c0,0.551,0.449,1,1,1s1-0.449,1-1v-5C30,36.449,29.551,36,29,36z"/>
					</g>
				</g>
				<g>
					<g>
						<g>
							<path fill="#18FFFF" d="M29,43c0.551,0,1-0.449,1-1v-2c0-0.551-0.449-1-1-1s-1,0.449-1,1v2C28,42.551,28.449,43,29,43z"/>
						</g>
					</g>
				</g>
				<g>
					<g>
						<g>
							<path fill="#37474F" d="M29,44c-1.103,0-2-0.897-2-2v-5c0-1.103,0.897-2,2-2s2,0.897,2,2v5C31,43.103,30.103,44,29,44z
								 M29,36c-0.551,0-1,0.449-1,1v5c0,0.551,0.449,1,1,1s1-0.449,1-1v-5C30,36.449,29.551,36,29,36z"/>
						</g>
					</g>
				</g>
			</g>
		</g>
		<g>
			<g>
				<g>
					<g>
						<path fill="#37474F" d="M58,45.5c0,0.275-0.225,0.5-0.5,0.5h-1c-0.275,0-0.5-0.225-0.5-0.5l0,0c0-0.275,0.225-0.5,0.5-0.5h1
							C57.775,45,58,45.225,58,45.5L58,45.5z"/>
					</g>
				</g>
			</g>
			<g>
				<g>
					<g>
						<path fill="#37474F" d="M54,45.5c0,0.275-0.225,0.5-0.5,0.5h-1c-0.275,0-0.5-0.225-0.5-0.5l0,0c0-0.275,0.225-0.5,0.5-0.5h1
							C53.775,45,54,45.225,54,45.5L54,45.5z"/>
					</g>
				</g>
			</g>
			<g>
				<g>
					<g>
						<path fill="#37474F" d="M50,45.5c0,0.275-0.225,0.5-0.5,0.5h-1c-0.275,0-0.5-0.225-0.5-0.5l0,0c0-0.275,0.225-0.5,0.5-0.5h1
							C49.775,45,50,45.225,50,45.5L50,45.5z"/>
					</g>
				</g>
			</g>
			<g>
				<g>
					<g>
						<path fill="#37474F" d="M46,45.5c0,0.275-0.225,0.5-0.5,0.5h-1c-0.275,0-0.5-0.225-0.5-0.5l0,0c0-0.275,0.225-0.5,0.5-0.5h1
							C45.775,45,46,45.225,46,45.5L46,45.5z"/>
					</g>
				</g>
			</g>
			<g>
				<g>
					<g>
						<path fill="#37474F" d="M42,45.5c0,0.275-0.225,0.5-0.5,0.5h-1c-0.275,0-0.5-0.225-0.5-0.5l0,0c0-0.275,0.225-0.5,0.5-0.5h1
							C41.775,45,42,45.225,42,45.5L42,45.5z"/>
					</g>
				</g>
			</g>
			<g>
				<g>
					<g>
						<path fill="#37474F" d="M38,45.5c0,0.275-0.225,0.5-0.5,0.5h-1c-0.275,0-0.5-0.225-0.5-0.5l0,0c0-0.275,0.225-0.5,0.5-0.5h1
							C37.775,45,38,45.225,38,45.5L38,45.5z"/>
					</g>
				</g>
			</g>
			<g>
				<g>
					<g>
						<path fill="#37474F" d="M34,45.5c0,0.275-0.225,0.5-0.5,0.5h-1c-0.275,0-0.5-0.225-0.5-0.5l0,0c0-0.275,0.225-0.5,0.5-0.5h1
							C33.775,45,34,45.225,34,45.5L34,45.5z"/>
					</g>
				</g>
			</g>
			<g>
				<g>
					<g>
						<path fill="#37474F" d="M30,45.5c0,0.275-0.225,0.5-0.5,0.5h-1c-0.275,0-0.5-0.225-0.5-0.5l0,0c0-0.275,0.225-0.5,0.5-0.5h1
							C29.775,45,30,45.225,30,45.5L30,45.5z"/>
					</g>
				</g>
			</g>
			<g>
				<g>
					<g>
						<path fill="#37474F" d="M26,45.5c0,0.275-0.225,0.5-0.5,0.5h-1c-0.275,0-0.5-0.225-0.5-0.5l0,0c0-0.275,0.225-0.5,0.5-0.5h1
							C25.775,45,26,45.225,26,45.5L26,45.5z"/>
					</g>
				</g>
			</g>
		</g>
	</g>
</g>
</svg>
