<?xml version="1.0" encoding="utf-8"?>
<!-- Generator: Adobe Illustrator 16.0.0, SVG Export Plug-In . SVG Version: 6.00 Build 0)  -->
<!DOCTYPE svg PUBLIC "-//W3C//DTD SVG 1.1//EN" "http://www.w3.org/Graphics/SVG/1.1/DTD/svg11.dtd">
<svg version="1.1" id="_x3C_Layer_x3E_" xmlns="http://www.w3.org/2000/svg" xmlns:xlink="http://www.w3.org/1999/xlink" x="0px"
	 y="0px" width="64px" height="64px" viewBox="0 0 64 64" enable-background="new 0 0 64 64" xml:space="preserve">
<g id="female_x2C__woman_x2C__nurse">
	<g>
		<path fill="#FFFFFF" d="M50.188,44.1C44.852,42.102,32.729,37.877,32,37.148c-0.707,0.707-13.35,4.945-18.688,6.949
			C12.333,44.465,10.503,47.001,10,48c4.76,6.125,15.542,8.898,22,8.898S49.239,54.124,54,48
			C53.496,47.002,51.166,44.467,50.188,44.1z"/>
		<path fill="#84FFFF" d="M44.58,43.581c-7.601-2.757-11.397-4.175-12.582-4.838c-1.177,0.651-4.932,2.055-12.427,4.776
			c-2.123,0.771-4.111,1.494-5.583,2.047c-0.732,0.273-2.689,2.319-3.382,3.386C15.333,54.477,23.188,57.5,32,57.5
			s16.668-3.026,21.394-8.548c-0.693-1.066-2.651-3.11-3.382-3.384C48.575,45.03,46.646,44.331,44.58,43.581z"/>
	</g>
	<path fill="#37474F" d="M32,58c-10,0-17.326-3.171-22.395-9.693l-0.194-0.249l0.142-0.282c0.447-0.888,2.374-3.692,3.584-4.146
		c1.797-0.675,4.387-1.591,7.129-2.561c4.568-1.614,10.824-3.826,11.391-4.285l0.354-0.354l0.342,0.364
		c0.607,0.509,7.805,3.119,12.567,4.846c2.07,0.751,4.002,1.452,5.442,1.991c1.131,0.424,3.532,3.051,4.083,4.143l0.143,0.282
		l-0.194,0.25C49.324,54.829,41.999,58,32,58z M10.596,47.949C15.515,54.122,22.327,57,32,57c9.667,0,16.477-2.875,21.397-9.042
		c-0.69-1.065-2.653-3.115-3.385-3.391c-1.436-0.537-3.365-1.237-5.432-1.986c-7.608-2.759-11.405-4.177-12.585-4.84
		c-1.16,0.627-4.777,1.932-11.395,4.271c-2.737,0.968-5.323,1.882-7.111,2.553C12.811,44.819,11.27,46.774,10.596,47.949z"/>
	<g>
		<g>
			<g>
				<g>
					<polygon fill="#E6CAA0" points="27.5,40.3 27.5,33.898 36.5,33.898 36.5,40.3 32,49 					"/>
					<path fill="#37474F" d="M32,50.088l-5-9.666v-7.023h10v7.023L32,50.088z M28,40.178l4,7.734l4-7.734v-5.779h-8V40.178z"/>
				</g>
			</g>
		</g>
	</g>
	<g>
		<path fill="#FFE0B2" d="M32,36.898c-3.813,0-8.5-5.789-8.5-10.5V20c0-4.688,3.813-8.5,8.5-8.5c4.687,0,8.5,3.813,8.5,8.5v6.398
			C40.5,31.109,35.813,36.898,32,36.898z"/>
	</g>
	<g>
		<g>
			<g>
				<path fill="#FFFFFF" d="M40.936,35.674c-1.288,0-3.134-0.622-4.099-0.983c1.846-2.218,3.89-5.507,4.161-8.243
					c0.078-0.793-0.44-6.742-0.5-7.486c0.002-0.949-0.585-1.846-1.494-2.246l-0.135-0.059l-0.146,0.023
					c-2.663,0.43-4.184,1.078-5.526,1.65C31.664,18.984,30.453,19.5,28,19.5c-1.314,0-2.551-0.469-3.575-1.355l-0.608-0.526
					l-0.203,0.778C23.549,18.627,23.5,18.799,23.5,19c-0.059,0.689-0.586,6.521-0.498,7.445c0.301,3.147,2.559,6.342,4.158,8.245
					c-0.967,0.361-2.816,0.983-4.094,0.983c-1.154-0.017-2.804-0.208-3.771-0.458c0.865-1.299,0.603-2.927,0.255-5.079
					C19.306,28.615,19,26.72,19,24.398C19,16.415,20.842,7.5,32,7.5c2.123,0,3.409,0.444,3.821,1.32l0.232,0.494l0.472-0.275
					c0.235-0.138,0.487-0.205,0.77-0.205c0.969,0,2.011,0.817,2.354,1.086C43.531,12.963,45,17.435,45,24.398
					c0,2.322-0.303,4.221-0.545,5.746c-0.343,2.15-0.603,3.78,0.249,5.069c-0.915,0.233-2.418,0.429-3.679,0.459L40.936,35.674z"/>
			</g>
		</g>
	</g>
	<g>
		<g>
			<g>
				<path fill="#CFD8DC" d="M36.837,34.69c0.009,0.003,0.021,0.008,0.03,0.011c0.008-0.025,0.016-0.051,0.022-0.076
					C36.872,34.646,36.854,34.67,36.837,34.69z"/>
			</g>
		</g>
		<g>
			<g>
				<path fill="#CFD8DC" d="M40.498,19.961c0.06,0.744,0.078,6.693,0,7.486c-0.251,2.533-2.021,5.143-3.748,7.334
					c1.004,0.333,3.345,1.117,4.186,1.117c0,0,2.529-0.268,3.516-0.432c-0.542-1.326-0.289-2.466,0.01-4.345
					C44.701,29.614,45,27.709,45,25.427c0-6.802-1.404-11.156-5.16-14.099c-0.309-0.242-1.248-0.986-2.045-0.986
					c-0.191,0-0.36,0.041-0.517,0.133l-0.944,0.55l-0.466-0.99C35.555,9.367,34.358,9,32.5,9C21.756,9,20,17.643,20,25.398
					c0,2.281,0.303,4.154,0.545,5.659c0.304,1.883,0.56,2.968,0.006,4.303c1.047,0.173,2.967,0.313,2.967,0.313
					c0.886,0,3.81-1.342,3.876-1.312c-1.574-1.929-3.606-3.937-3.892-6.916c-0.088-0.924,0.314-9.327,0.314-9.327l1.108,0.526
					c1.024,0.887,2.261,0.855,3.575,0.855c2.453,0,3.664-0.516,5.196-1.17c1.343-0.572,2.863-1.221,5.526-1.65
					C39.223,16.68,40.75,18.188,40.498,19.961z"/>
			</g>
		</g>
	</g>
	<g>
		<g>
			<path fill="#37474F" d="M45.5,24.398c0-6.045-0.953-11.275-5.543-14.872c-0.499-0.392-1.566-1.192-2.662-1.192
				c-0.343,0-0.689,0.079-1.021,0.273C35.792,7.584,34.459,7,32,7c-11,0-13.5,8.398-13.5,17.398c0,6,1.979,9.021,0,11
				c0.556,0.556,3.766,0.764,4.502,0.774c0.021,0,0.043,0.001,0.064,0.001c1.869,0,4.78-1.211,4.92-1.27
				c-0.646-0.088-0.695-0.465-1.299-0.631c-0.994,0.324-2.784,0.899-3.67,0.899h-0.001c-0.824-0.012-1.919-0.14-2.966-0.313
				c0.554-1.335,0.298-2.92-0.006-4.803c-0.242-1.505-0.545-3.378-0.545-5.659C19.5,16.643,21.256,8,32,8
				c1.858,0,3.055,0.367,3.368,1.033l0.466,0.989l0.944-0.552c0.156-0.092,0.325-0.137,0.517-0.137c0.797,0,1.736,0.737,2.045,0.979
				c3.756,2.942,5.16,7.282,5.16,14.085c0,2.282-0.299,4.159-0.539,5.667c-0.299,1.879-0.552,3.463-0.01,4.789
				c-0.986,0.164-1.979,0.295-2.938,0.318l-0.077,0.001c-0.857,0-2.76-0.7-3.748-1.025c-0.428,0.231-0.175,0.804-0.648,0.964
				c0.952,0.363,2.969,1.062,4.396,1.062c0.034,0,0.068,0,0.102-0.001c0.722-0.018,3.917-0.229,4.463-0.774
				C43.543,33.441,45.5,30.398,45.5,24.398z"/>
		</g>
	</g>
	<g>
		<path fill="#37474F" d="M39.206,16.258l-0.271-0.119l-0.292,0.047c-2.724,0.439-4.274,1.102-5.644,1.686
			C31.521,18.502,30.352,19,28,19c-1.191,0-2.314-0.427-3.248-1.234l-1.216-1.051c0,0-0.599,2.129-0.536,3.285v6.398
			c0,4.971,4.917,11,9,11s9-6.029,9-11V20C41,19.313,41.25,17.063,39.206,16.258z M40,26.398c0,4.393-4.486,10-8,10s-8-5.607-8-10
			V20c0-0.494,0.063-0.971,0.151-1.438C25.195,19.445,26.523,20,28,20c4.75,0,5.168-1.917,10.803-2.827
			C40.094,17.719,40.125,18.594,40,20V26.398z"/>
	</g>
</g>
</svg>
