<?xml version="1.0" encoding="utf-8"?>
<!-- Generator: Adobe Illustrator 16.0.0, SVG Export Plug-In . SVG Version: 6.00 Build 0)  -->
<!DOCTYPE svg PUBLIC "-//W3C//DTD SVG 1.1//EN" "http://www.w3.org/Graphics/SVG/1.1/DTD/svg11.dtd">
<svg version="1.1" id="_x3C_Layer_x3E_" xmlns="http://www.w3.org/2000/svg" xmlns:xlink="http://www.w3.org/1999/xlink" x="0px"
	 y="0px" width="64px" height="64px" viewBox="0 0 64 64" enable-background="new 0 0 64 64" xml:space="preserve">
<g id="online_healthcare">
	<g id="macbook">
		<g>
			<g>
				<path fill="#CFD8DC" d="M11.5,53V27c0-0.553,1.947-1,2.5-1h36c0.553,0,2.5,0.447,2.5,1v26H11.5z"/>
			</g>
		</g>
		<g>
			<g>
				<g>
					<rect x="13" y="29" fill="#FFFFFF" width="37" height="23"/>
				</g>
			</g>
			<g>
				<g>
					<rect x="15" y="30" fill="#84FFFF" width="35" height="22"/>
				</g>
			</g>
		</g>
		<g>
			<g>
				<g>
					<path fill="#FFFFFF" d="M5.375,57.375c0.257,0.11,0.557,0.238,0.875,0.375C7.217,58.164,8.896,58.5,10,58.5h44
						c1.104,0,2.783-0.336,3.75-0.75c0,0,0.392-0.168,0.875-0.375S59.5,56.664,59.5,56.25V55.5h-55c0,0,0,0.336,0,0.75
						S4.891,57.168,5.375,57.375z"/>
				</g>
			</g>
			<g>
				<g>
					<polygon fill="#CFD8DC" points="57,58 7,58 5,57 59,57 					"/>
				</g>
			</g>
			<g>
				<g>
					<path fill="#37474F" d="M54,59H10c-1.179,0-2.912-0.348-3.947-0.79l-0.875-0.376C4.507,57.548,4,56.866,4,56.25V55h56v1.25
						c0,0.616-0.507,1.297-1.178,1.585l-0.875,0.375C56.912,58.652,55.179,59,54,59z M5,56v0.25c0,0.168,0.228,0.519,0.571,0.665
						l0.876,0.376C7.345,57.675,8.972,58,10,58h44c1.028,0,2.655-0.325,3.553-0.71l0.875-0.375C58.771,56.769,59,56.417,59,56.25V56
						H5z"/>
				</g>
			</g>
		</g>
		<g>
			<g>
				<polygon fill="#ECEFF1" points="38,57 26,57 25,56 39,56 				"/>
			</g>
		</g>
	</g>
	<g>
		<g>
			<path fill="#37474F" d="M43.5,24.5c-3.995,0-7.5-3.038-7.5-6.5V9.5C36,7.57,37.57,6,39.5,6v1C38.121,7,37,8.122,37,9.5V18
				c0,2.596,2.779,5.5,6.5,5.5S50,20.596,50,18V9.5C50,8.122,48.879,7,47.5,7V6C49.43,6,51,7.57,51,9.5V18
				C51,21.462,47.495,24.5,43.5,24.5z"/>
		</g>
	</g>
	<g>
		<g>
			<path fill="#37474F" d="M43.5,22.169c-3.995,0-7.5-3.038-7.5-6.5v-1h1v1c0,2.596,2.779,5.5,6.5,5.5s6.5-2.904,6.5-5.5l0.5-0.834
				l0.5,0.834C51,19.131,47.495,22.169,43.5,22.169z M51,14.669h-0.4L51,14V14.669z M50.4,14.669H50V14L50.4,14.669z"/>
		</g>
	</g>
	<g>
		<g>
			<g>
				<path fill="#CFD8DC" d="M48.5,6.5c0,0.55-0.45,1-1,1l0,0c-0.55,0-1-0.45-1-1l0,0c0-0.55,0.45-1,1-1l0,0
					C48.05,5.5,48.5,5.95,48.5,6.5L48.5,6.5z"/>
			</g>
		</g>
		<g>
			<g>
				<path fill="#37474F" d="M47.5,8C46.673,8,46,7.327,46,6.5S46.673,5,47.5,5S49,5.673,49,6.5S48.327,8,47.5,8z M47.5,6
					C47.225,6,47,6.224,47,6.5S47.225,7,47.5,7S48,6.776,48,6.5S47.775,6,47.5,6z"/>
			</g>
		</g>
	</g>
	<g>
		<g>
			<g>
				<path fill="#CFD8DC" d="M40.5,6.5c0,0.55-0.45,1-1,1l0,0c-0.55,0-1-0.45-1-1l0,0c0-0.55,0.45-1,1-1l0,0
					C40.05,5.5,40.5,5.95,40.5,6.5L40.5,6.5z"/>
			</g>
		</g>
		<g>
			<g>
				<path fill="#37474F" d="M39.5,8C38.673,8,38,7.327,38,6.5S38.673,5,39.5,5S41,5.673,41,6.5S40.327,8,39.5,8z M39.5,6
					C39.225,6,39,6.224,39,6.5S39.225,7,39.5,7S40,6.776,40,6.5S39.775,6,39.5,6z"/>
			</g>
		</g>
	</g>
	<g>
		<g>
			<circle fill="#ECEFF1" cx="21.5" cy="42" r="4"/>
		</g>
		<g>
			<path fill="#37474F" d="M21.5,46.5c-2.481,0-4.5-2.019-4.5-4.5s2.019-4.5,4.5-4.5S26,39.519,26,42S23.981,46.5,21.5,46.5z
				 M21.5,38.5c-1.93,0-3.5,1.57-3.5,3.5s1.57,3.5,3.5,3.5S25,43.93,25,42S23.43,38.5,21.5,38.5z"/>
		</g>
	</g>
	<g>
		<g>
			<g>
				<rect x="33" y="26" fill="#37474F" width="9" height="1"/>
			</g>
		</g>
		<g>
			<g>
				<rect x="22" y="26" fill="#37474F" width="9" height="1"/>
			</g>
		</g>
		<g>
			<g>
				<path fill="#37474F" d="M51.5,26H44v1h7.5c0.275,0,0.5,0.225,0.5,0.5V53H12V27.5c0-0.275,0.225-0.5,0.5-0.5H20v-1h-7.5
					c-0.827,0-1.5,0.673-1.5,1.5V54h42V27.5C53,26.673,52.327,26,51.5,26z"/>
			</g>
		</g>
	</g>
	<g>
		<g>
			<g>
				<polygon fill="#37474F" points="44,28 44,29 50,29 50,51 14,51 14,29 20,29 20,28 13,28 13,52 51,52 51,28 				"/>
			</g>
		</g>
		<g>
			<g>
				<rect x="22" y="28" fill="#37474F" width="9" height="1"/>
			</g>
		</g>
		<g>
			<g>
				<rect x="33" y="28" fill="#37474F" width="9" height="1"/>
			</g>
		</g>
	</g>
	<g>
		<g>
			<g>
				<path fill="#37474F" d="M38,43c-3.309,0-6-2.916-6-6.5v-12c0-3.033-2.243-5.5-5-5.5s-5,2.467-5,5.5V42
					c0,0.276-0.224,0.5-0.5,0.5S21,42.276,21,42V24.5c0-3.584,2.691-6.5,6-6.5s6,2.916,6,6.5v12c0,3.033,2.243,5.5,5,5.5
					s5-2.467,5-5.5V24c0-0.276,0.224-0.5,0.5-0.5S44,23.724,44,24v12.5C44,40.084,41.309,43,38,43z"/>
			</g>
		</g>
	</g>
	<g>
		<g>
			<circle fill="#CFD8DC" cx="21.5" cy="42" r="1.5"/>
		</g>
		<g>
			<path fill="#37474F" d="M21.5,44c-1.103,0-2-0.897-2-2s0.897-2,2-2s2,0.897,2,2S22.603,44,21.5,44z M21.5,41
				c-0.552,0-1,0.449-1,1s0.448,1,1,1s1-0.449,1-1S22.052,41,21.5,41z"/>
		</g>
	</g>
</g>
</svg>
