<?xml version="1.0" encoding="utf-8"?>
<!-- Generator: Adobe Illustrator 16.0.0, SVG Export Plug-In . SVG Version: 6.00 Build 0)  -->
<!DOCTYPE svg PUBLIC "-//W3C//DTD SVG 1.1//EN" "http://www.w3.org/Graphics/SVG/1.1/DTD/svg11.dtd">
<svg version="1.1" id="_x3C_Layer_x3E_" xmlns="http://www.w3.org/2000/svg" xmlns:xlink="http://www.w3.org/1999/xlink" x="0px"
	 y="0px" width="64px" height="64px" viewBox="0 0 64 64" enable-background="new 0 0 64 64" xml:space="preserve">
<g id="medical_folder">
	<g>
		<g>
			<path fill="#18FFFF" d="M19.5,12h-12C6.396,12,5,12.396,5,13.5V54c0,1.104,2.896,3,4,3h4v-5h41V16H23.5l-2.4-3.2
				C20.769,12.358,20.053,12,19.5,12z"/>
		</g>
		<g>
			<path fill="#37474F" d="M14,57H7.5C6.121,57,5,55.878,5,54.5v-41C5,12.122,6.121,11,7.5,11h12c0.712,0,1.572,0.43,2,1l2.25,3H55
				v37H14V57z M7.5,12C6.673,12,6,12.673,6,13.5v41C6,55.327,6.673,56,7.5,56H13v-5h41V16H23.25l-2.55-3.4
				c-0.235-0.313-0.808-0.6-1.2-0.6H7.5z"/>
		</g>
	</g>
	<g>
		<g>
			<path fill="#FFFFFF" d="M9,56.5c-0.827,0-1.5-0.673-1.5-1.5V17.5h49V55c0,0.827-0.673,1.5-1.5,1.5H9z"/>
		</g>
		<g>
			<path fill="#37474F" d="M56,18v37c0,0.552-0.448,1-1,1H9c-0.552,0-1-0.448-1-1V18H56L56,18z M57,17h-1H8H7v1v37
				c0,1.103,0.897,2,2,2h46c1.103,0,2-0.897,2-2V18V17L57,17z"/>
		</g>
	</g>
	<g>
		<g>
			<path fill="#FFFFFF" d="M9,57h47.5c1.104,0,1.5-1.396,1.5-2.5V20H9v34.5C9,55.604,10.104,57,9,57z"/>
		</g>
		<g>
			<path fill="#84FFFF" d="M9,57h47.5c1.104,0,1.5-1.396,1.5-2.5V21H11v33h-1C10,54,9.393,57,9,57z"/>
		</g>
		<g>
			<rect x="9" y="55" fill="#18FFFF" width="49" height="1"/>
		</g>
		<g>
			<path fill="#37474F" d="M56.5,57h-49v-1c1,0,1.5-0.673,1.5-1.5V19h50v35.5C59,55.878,57.879,57,56.5,57z M9.499,56H56.5
				c0.827,0,1.5-0.673,1.5-1.5V20H10v34.5C10,55.063,9.813,55.582,9.499,56z"/>
		</g>
	</g>
	<g>
		<g>
			<rect x="10" y="53" fill="#37474F" width="43" height="1"/>
		</g>
	</g>
	<g>
		<g>
			<g>
				<circle fill="#FF8A80" cx="34" cy="37" r="9.5"/>
				<path fill="#37474F" d="M34,47c-5.514,0-10-4.486-10-10s4.486-10,10-10s10,4.486,10,10S39.514,47,34,47z M34,28
					c-4.962,0-9,4.038-9,9s4.038,9,9,9s9-4.038,9-9S38.962,28,34,28z"/>
			</g>
		</g>
		<g>
			<g>
				<polygon fill="#FFFFFF" points="32.5,42.5 32.5,38.5 28.5,38.5 28.5,35.5 32.5,35.5 32.5,31.5 35.5,31.5 35.5,35.5 39.5,35.5 
					39.5,38.5 35.5,38.5 35.5,42.5 				"/>
			</g>
			<g>
				<path fill="#37474F" d="M35,32v3v1h1h3v2h-3h-1v1v3h-2v-3v-1h-1h-3v-2h3h1v-1v-3H35L35,32z M36,31h-4v4h-4v4h4v4h4v-4h4v-4h-4
					V31L36,31z"/>
			</g>
		</g>
	</g>
	<g>
		<rect x="14" y="23" fill="#37474F" width="8" height="1"/>
	</g>
	<g>
		<rect x="14" y="26" fill="#37474F" width="4" height="1"/>
	</g>
</g>
</svg>
