<?xml version="1.0" encoding="utf-8"?>
<!-- Generator: Adobe Illustrator 16.0.0, SVG Export Plug-In . SVG Version: 6.00 Build 0)  -->
<!DOCTYPE svg PUBLIC "-//W3C//DTD SVG 1.1//EN" "http://www.w3.org/Graphics/SVG/1.1/DTD/svg11.dtd">
<svg version="1.1" id="_x3C_Layer_x3E_" xmlns="http://www.w3.org/2000/svg" xmlns:xlink="http://www.w3.org/1999/xlink" x="0px"
	 y="0px" width="64px" height="64px" viewBox="0 0 64 64" enable-background="new 0 0 64 64" xml:space="preserve">
<g id="sick_x2C__sore_x2C__throat_1_">
	<g id="fever_x2C__sick_7_">
		<g id="XMLID_2725_">
			<g id="creative_idea_10_">
				<g id="Public_Relations_10_">
					<path id="XMLID_2732_" fill="#FFFFFF" d="M51.436,35.869l-4.884-9.317l0.188-3.346c0-9.739-8.49-17.888-19.48-17.654
						C17.279,5.764,8.5,12.917,8.5,24.121c0,8.173,3.9,13.92,6.443,17.768c1.832,2.774-0.548,14.654-1.066,17.111h21.327
						l0.882-8.441h6.808c1.555,0,2.816-1.261,2.816-2.816V37.506h4.246C50.982,37.506,51.92,36.772,51.436,35.869z"/>
					<path id="XMLID_2731_" fill="#FFE0B2" d="M46.552,26.551l0.188-3.346c0-3.083-0.855-6.004-2.367-8.553
						c-3.466-4.672-9.307-7.746-16.113-7.601C18.279,7.264,9.5,14.417,9.5,25.621c0,8.173,3.9,13.92,6.443,17.768
						c1.579,2.393,0.027,11.557-0.763,15.611h20.023l0.882-8.441h6.808c1.555,0,2.816-1.261,2.816-2.816V37.506h4.246
						c1.026,0,1.964-0.733,1.479-1.637L46.552,26.551z"/>
					<polygon id="XMLID_2730_" fill="#E6CAA0" points="26.561,50.125 35.204,56 36.086,50.559 					"/>
					
						<rect id="XMLID_2729_" x="35.054" y="52.235" transform="matrix(0.9945 0.1045 -0.1045 0.9945 6.0121 -3.4116)" fill="#37474F" width="1" height="6.833"/>
					<path id="XMLID_2728_" fill="#37474F" d="M42.791,51c-0.001,0-0.002,0-0.004,0h-7.589l0.002-1h7.589c0,0,0.001,0,0.002,0
						c0.732,0,1.398-0.304,1.877-0.857c0.483-0.559,0.699-1.303,0.591-2.043c-0.297-2.05-0.115-3.534,0.54-4.408l0.801,0.6
						c-0.484,0.645-0.605,1.912-0.351,3.665c0.149,1.027-0.151,2.063-0.825,2.842C44.763,50.562,43.803,51,42.791,51z"/>
					<path id="XMLID_2727_" fill="#37474F" d="M14.356,59.153l-0.979-0.207c1.367-6.472,2.488-14.75,1.148-16.782l-0.139-0.21
						C11.844,38.108,8,32.297,8,24.121C8,13.25,16.279,5.052,27.259,5.052c12.138,0,19.98,7.126,19.98,18.154l-0.181,3.241
						l4.715,9.427c0.218,0.485,0.176,1.02-0.102,1.448c-0.277,0.428-0.748,0.684-1.259,0.684h-4.217
						c0.008,0.774,0.077,2.308,0.469,3.313l-0.41,0.679l-4.5,0.5l-0.111-0.994l3.895-0.433c-0.401-1.541-0.342-3.488-0.339-3.581
						l0.5-0.483h4.714c0.173,0,0.325-0.083,0.42-0.228c0.094-0.145,0.107-0.319,0.037-0.477l-4.766-9.526l-0.052-0.251l0.188-3.346
						c-0.001-8.265-4.987-17.126-18.981-17.126C16.85,6.052,9,13.82,9,24.121c0,7.875,3.744,13.536,6.222,17.282l0.139,0.21
						C17.26,44.49,15.072,55.766,14.356,59.153z"/>
				</g>
			</g>
			<polygon id="XMLID_2726_" fill="#37474F" points="44.199,28 39.699,28 39.699,27 42.238,27 38.46,24.939 38.938,24.061 
				44.438,27.061 			"/>
		</g>
	</g>
	<g id="XMLID_2709_">
		<circle id="XMLID_2724_" fill="#FF8A80" cx="27" cy="46" r="8"/>
		<path id="XMLID_2710_" fill="#37474F" d="M27,54.5c-0.34,0-0.676-0.02-1.006-0.059l0.117-0.993c0.59,0.069,1.213,0.07,1.807-0.003
			l0.121,0.993C27.698,54.479,27.351,54.5,27,54.5z M24.005,53.957c-0.64-0.241-1.251-0.56-1.815-0.948l0.566-0.824
			c0.499,0.343,1.037,0.625,1.601,0.837L24.005,53.957z M30.028,53.944l-0.357-0.934c0.563-0.216,1.101-0.499,1.596-0.843
			l0.57,0.822C31.275,53.379,30.667,53.701,30.028,53.944z M20.654,51.655c-0.455-0.51-0.849-1.075-1.169-1.678l0.883-0.47
			c0.283,0.533,0.631,1.032,1.032,1.483L20.654,51.655z M33.367,51.632l-0.748-0.664c0.4-0.451,0.745-0.951,1.026-1.486l0.885,0.465
			C34.212,50.554,33.821,51.121,33.367,51.632z M18.752,48.063c-0.164-0.66-0.249-1.343-0.252-2.03l1-0.005
			c0.003,0.607,0.077,1.211,0.223,1.793L18.752,48.063z M35.255,48.032l-0.971-0.238C34.428,47.209,34.5,46.606,34.5,46l1-0.062V46
			C35.5,46.686,35.418,47.37,35.255,48.032z M19.709,44.235L18.736,44c0.161-0.665,0.402-1.311,0.719-1.917l0.887,0.461
			C20.063,43.079,19.851,43.648,19.709,44.235z M34.272,44.151c-0.149-0.586-0.369-1.152-0.653-1.684l0.881-0.472
			c0.322,0.602,0.572,1.244,0.741,1.908L34.272,44.151z M21.363,41.053l-0.752-0.66c0.45-0.512,0.963-0.971,1.523-1.364l0.574,0.819
			C22.213,40.195,21.761,40.601,21.363,41.053z M32.58,40.989c-0.402-0.448-0.86-0.849-1.36-1.189l0.564-0.826
			c0.565,0.386,1.084,0.839,1.54,1.348L32.58,40.989z M24.302,39l-0.359-0.933c0.638-0.247,1.306-0.415,1.984-0.5l0.125,0.992
			C25.453,38.634,24.864,38.782,24.302,39z M29.616,38.969c-0.566-0.21-1.157-0.352-1.757-0.42l0.113-0.993
			c0.68,0.077,1.35,0.238,1.991,0.476L29.616,38.969z"/>
	</g>
	<g id="XMLID_2704_">
		<circle id="XMLID_2708_" fill="#FF5252" cx="27" cy="46" r="4"/>
		<path id="XMLID_2705_" fill="#37474F" d="M27,50.5c-2.481,0-4.5-2.019-4.5-4.5s2.019-4.5,4.5-4.5s4.5,2.019,4.5,4.5
			S29.481,50.5,27,50.5z M27,42.5c-1.93,0-3.5,1.57-3.5,3.5s1.57,3.5,3.5,3.5s3.5-1.57,3.5-3.5S28.93,42.5,27,42.5z"/>
	</g>
	<polygon id="XMLID_2703_" fill="#37474F" points="52.262,59.152 47.286,57.564 46.975,59.048 39.328,56.37 39.658,55.426 
		46.23,57.728 46.534,56.275 52.566,58.199 	"/>
	<polygon id="XMLID_2702_" fill="#37474F" points="45.75,55.141 40.129,53.735 40.371,52.765 44.75,53.859 44.75,52.436 
		53.622,53.503 53.503,54.497 45.75,53.564 	"/>
</g>
</svg>
