<?xml version="1.0" encoding="utf-8"?>
<!-- Generator: Adobe Illustrator 16.0.0, SVG Export Plug-In . SVG Version: 6.00 Build 0)  -->
<!DOCTYPE svg PUBLIC "-//W3C//DTD SVG 1.1//EN" "http://www.w3.org/Graphics/SVG/1.1/DTD/svg11.dtd">
<svg version="1.1" id="_x3C_Layer_x3E_" xmlns="http://www.w3.org/2000/svg" xmlns:xlink="http://www.w3.org/1999/xlink" x="0px"
	 y="0px" width="64px" height="64px" viewBox="0 0 64 64" enable-background="new 0 0 64 64" xml:space="preserve">
<g id="nurse">
	<g id="woman">
		<g>
			<g>
				<g>
					<g>
						<path fill="#FFFFFF" d="M50.188,47.1C44.852,45.102,32.729,40.877,32,40.148c-0.707,0.707-12.85,4.945-18.188,6.949
							C12.833,47.465,10.503,50.001,10,51c4.76,6.125,22,7.898,22,7.898S49.239,57.124,54,51
							C53.496,50.002,51.166,47.467,50.188,47.1z"/>
					</g>
				</g>
				<g>
					<g>
						<path fill="#ECEFF1" d="M44.58,46.581c-7.601-2.757-11.397-4.175-12.582-4.839c-1.177,0.652-4.932,2.056-12.427,4.777
							c-2.123,0.771-4.111,1.494-5.583,2.047c-0.732,0.273-2.689,2.319-3.382,3.386C15.333,57.477,30.979,58.888,32,59
							c1.021-0.112,16.668-1.526,21.394-7.048c-0.693-1.066-2.651-3.11-3.382-3.384C48.575,48.029,46.646,47.331,44.58,46.581z"/>
					</g>
				</g>
				<g>
					<g>
						<path fill="#37474F" d="M32,59.4l-0.051-0.004c-0.713-0.074-17.509-1.867-22.344-8.09l-0.194-0.25l0.143-0.281
							c0.55-1.093,2.951-3.721,4.083-4.146c1.474-0.553,3.466-1.276,5.594-2.049c4.706-1.709,11.818-4.293,12.425-4.794l0.351-0.29
							l0.348,0.299c0.606,0.51,7.805,3.119,12.567,4.846c2.07,0.751,4.003,1.451,5.442,1.99c1.131,0.425,3.531,3.052,4.083,4.144
							l0.143,0.282l-0.194,0.25c-4.836,6.221-21.631,8.016-22.344,8.09L32,59.4z M10.606,50.952
							c4.727,5.524,20.373,7.331,21.394,7.443c1.021-0.112,16.668-1.922,21.394-7.443c-0.693-1.066-2.651-3.11-3.382-3.384
							c-1.437-0.539-3.365-1.237-5.432-1.987c-7.601-2.757-11.397-4.175-12.582-4.839c-1.177,0.652-4.932,2.056-12.427,4.777
							c-2.123,0.771-4.111,1.494-5.583,2.047C13.256,47.84,11.299,49.886,10.606,50.952z"/>
					</g>
				</g>
			</g>
		</g>
		<g>
			<g>
				<g>
					<g>
						<polygon fill="#E6CAA0" points="27.5,46.3 27.5,36.898 36.5,36.898 36.5,46.3 32,58 						"/>
					</g>
				</g>
			</g>
			<g>
				<g>
					<g>
						<polygon fill="#37474F" points="28,45 28,35.5 36,35.5 36,45 37,45 37,34.5 27,34.5 27,45 						"/>
					</g>
				</g>
			</g>
		</g>
		<g>
			<g>
				<g>
					<polygon fill="#FFFFFF" points="25.809,47.007 23.146,45.264 23.222,42.929 26.674,41.703 32,58 23.859,48.816 					"/>
				</g>
				<g>
					<path fill="#37474F" d="M32,58.5c-0.139,0-0.276-0.059-0.374-0.168l-8.141-9.184c-0.181-0.203-0.165-0.513,0.034-0.697
						L25,47.075l-2.127-1.394c-0.146-0.096-0.231-0.26-0.227-0.434l0.075-2.336c0.007-0.205,0.139-0.386,0.333-0.455l3.452-1.226
						c0.126-0.043,0.267-0.036,0.388,0.022c0.121,0.061,0.213,0.165,0.255,0.294l5.326,16.297c0.073,0.226-0.021,0.472-0.227,0.589
						C32.171,58.479,32.085,58.5,32,58.5z M24.558,48.851l6.219,7.016l-4.419-13.521l-2.647,0.939l-0.055,1.714l2.427,1.589
						c0.129,0.085,0.212,0.224,0.225,0.377s-0.045,0.304-0.158,0.408L24.558,48.851z"/>
				</g>
			</g>
		</g>
		<g>
			<g>
				<g>
					<polygon fill="#FFFFFF" points="38.051,47.007 40.713,45.264 40.638,42.929 37.186,41.703 32,58 40,48.816 					"/>
				</g>
				<g>
					<path fill="#37474F" d="M32,58.5c-0.084,0-0.168-0.021-0.245-0.064c-0.207-0.115-0.304-0.361-0.231-0.587l5.186-16.298
						c0.041-0.128,0.133-0.235,0.254-0.295c0.122-0.061,0.264-0.068,0.39-0.024l3.452,1.226c0.194,0.069,0.326,0.25,0.333,0.455
						l0.075,2.336c0.005,0.174-0.08,0.338-0.227,0.434l-2.127,1.394l1.48,1.376c0.198,0.184,0.215,0.49,0.037,0.694l-8,9.183
						C32.279,58.44,32.141,58.5,32,58.5z M37.505,42.348l-4.297,13.505l6.097-6.999l-1.594-1.48
						c-0.113-0.104-0.171-0.255-0.158-0.408s0.096-0.292,0.225-0.377l2.427-1.589l-0.055-1.714L37.505,42.348z"/>
				</g>
			</g>
		</g>
		<g>
			<g>
				<path fill="#FFE0B2" d="M32,39.898c-3.813,0-8.5-5.789-8.5-10.5V23c0-4.688,3.813-8.5,8.5-8.5c4.687,0,8.5,3.813,8.5,8.5v6.398
					C40.5,34.109,35.813,39.898,32,39.898z"/>
			</g>
		</g>
		<g>
			<g>
				<g>
					<g>
						<path fill="#FFFFFF" d="M40.936,38.674c-1.288,0-3.134-0.622-4.099-0.983c1.846-2.218,3.89-5.507,4.161-8.243
							c0.078-0.793-0.44-6.742-0.5-7.486c0.002-0.949-0.585-1.846-1.494-2.246l-0.135-0.059l-0.146,0.023
							c-2.663,0.43-4.184,1.078-5.526,1.65C31.664,21.984,30.453,22.5,28,22.5c-1.314,0-2.551-0.469-3.575-1.355l-0.608-0.526
							l-0.203,0.778C23.549,21.627,23.5,21.799,23.5,22c-0.059,0.689-0.586,6.521-0.498,7.445c0.301,3.147,2.559,6.342,4.158,8.245
							c-0.967,0.361-2.816,0.983-4.094,0.983c-1.154-0.017-2.804-0.208-3.771-0.458c0.865-1.299,0.603-2.927,0.255-5.079
							C19.306,31.615,19,29.72,19,27.398C19,19.415,20.842,10.5,32,10.5c2.123,0,3.409,0.444,3.821,1.32l0.232,0.494l0.472-0.275
							c0.235-0.138,0.487-0.205,0.77-0.205c0.969,0,2.011,0.817,2.354,1.086C43.531,15.963,45,20.435,45,27.398
							c0,2.322-0.303,4.221-0.545,5.746c-0.343,2.15-0.603,3.78,0.249,5.069c-0.915,0.233-2.418,0.429-3.679,0.459L40.936,38.674z"
							/>
					</g>
				</g>
			</g>
			<g>
				<g>
					<g>
						<path fill="#CFD8DC" d="M36.837,37.69c0.009,0.003,0.021,0.008,0.03,0.011c0.008-0.025,0.016-0.051,0.022-0.076
							C36.872,37.646,36.854,37.67,36.837,37.69z"/>
					</g>
				</g>
				<g>
					<g>
						<path fill="#CFD8DC" d="M40.498,22.961c0.06,0.744,0.078,6.693,0,7.486c-0.251,2.533-2.021,5.143-3.748,7.334
							c1.004,0.333,3.345,1.117,4.186,1.117c0,0,2.529-0.268,3.516-0.432c-0.542-1.326-0.289-2.466,0.01-4.345
							C44.701,32.614,45,30.709,45,28.427c0-6.802-1.404-11.156-5.16-14.099c-0.309-0.242-1.248-0.986-2.045-0.986
							c-0.191,0-0.36,0.041-0.517,0.133l-0.944,0.55l-0.466-0.99C35.555,12.367,34.358,12,32.5,12C21.756,12,20,20.643,20,28.398
							c0,2.281,0.303,4.154,0.545,5.659c0.304,1.883,0.56,2.968,0.006,4.303c1.047,0.173,2.967,0.313,2.967,0.313
							c0.886,0,3.81-1.342,3.876-1.312c-1.574-1.929-3.606-3.937-3.892-6.916c-0.088-0.924,0.314-9.327,0.314-9.327l1.108,0.526
							c1.024,0.887,2.261,0.855,3.575,0.855c2.453,0,3.664-0.516,5.196-1.17c1.343-0.572,2.863-1.221,5.526-1.65
							C39.223,19.68,40.75,21.188,40.498,22.961z"/>
					</g>
				</g>
			</g>
			<g>
				<g>
					<path fill="#37474F" d="M45.5,27.398c0-6.045-0.953-11.275-5.543-14.872c-0.499-0.392-1.566-1.192-2.662-1.192
						c-0.343,0-0.689,0.079-1.021,0.273C35.792,10.584,34.459,10,32,10c-11,0-13.5,8.398-13.5,17.398c0,6,1.979,9.021,0,11
						c0.556,0.556,3.766,0.764,4.502,0.774c0.021,0,0.043,0.001,0.064,0.001c1.869,0,4.78-1.211,4.92-1.27
						c-0.646-0.088-0.695-0.465-1.299-0.631c-0.994,0.324-2.784,0.899-3.67,0.899h-0.001c-0.824-0.012-1.919-0.14-2.966-0.313
						c0.554-1.335,0.298-2.92-0.006-4.803c-0.242-1.505-0.545-3.378-0.545-5.659C19.5,19.643,21.256,11,32,11
						c1.858,0,3.055,0.367,3.368,1.033l0.466,0.989l0.944-0.552c0.156-0.092,0.325-0.137,0.517-0.137
						c0.797,0,1.736,0.737,2.045,0.979c3.756,2.942,5.16,7.282,5.16,14.085c0,2.282-0.299,4.159-0.539,5.667
						c-0.299,1.879-0.552,3.463-0.01,4.789c-0.986,0.164-1.979,0.295-2.938,0.318l-0.077,0.001c-0.857,0-2.76-0.7-3.748-1.025
						c-0.428,0.231-0.175,0.804-0.648,0.964c0.952,0.363,2.969,1.062,4.396,1.062c0.034,0,0.068,0,0.102-0.001
						c0.722-0.018,3.917-0.229,4.463-0.774C43.543,36.441,45.5,33.398,45.5,27.398z"/>
				</g>
			</g>
		</g>
		<g>
			<g>
				<path fill="#37474F" d="M39.206,19.258l-0.271-0.119l-0.292,0.047c-2.724,0.439-4.274,1.102-5.644,1.686
					C31.521,21.502,30.352,22,28,22c-1.191,0-2.314-0.427-3.248-1.234l-1.216-1.051c0,0-0.599,2.129-0.536,3.285v6.398
					c0,4.971,4.917,11,9,11s9-6.029,9-11V23C41,22.313,41.25,20.063,39.206,19.258z M40,29.398c0,4.393-4.486,10-8,10s-8-5.607-8-10
					V23c0-0.494,0.063-0.971,0.151-1.438C25.195,22.445,26.523,23,28,23c4.75,0,5.168-1.917,10.803-2.827
					C40.094,20.719,40.125,21.594,40,23V29.398z"/>
			</g>
		</g>
	</g>
	<g>
		<g>
			<path fill="#FFFFFF" d="M32,4.602c-9,0-11,6-11,6l1,7c0,0,2-4,10-4s10,4,10,4l1-7C43,10.602,41,4.602,32,4.602z"/>
		</g>
		<g>
			<path fill="#37474F" d="M42.269,19.257l-0.715-1.43c-0.031-0.06-2.031-3.726-9.554-3.726c-7.546,0-9.535,3.688-9.554,3.727
				l-0.719,1.392l-1.239-8.664l0.037-0.112C20.612,10.185,22.746,4.102,32,4.102s11.388,6.083,11.475,6.342l0.037,0.112
				L42.269,19.257z M32,13.102c5.702,0,8.479,1.976,9.675,3.243l0.813-5.688C42.173,9.859,39.961,5.102,32,5.102
				c-7.901,0-10.176,4.795-10.486,5.557l0.812,5.687C23.521,15.077,26.298,13.102,32,13.102z"/>
		</g>
	</g>
	<g>
		<g>
			<rect x="31.5" y="6.602" fill="#37474F" width="1" height="5"/>
		</g>
	</g>
	<g>
		<g>
			<rect x="29.5" y="8.602" fill="#37474F" width="5" height="1"/>
		</g>
	</g>
</g>
</svg>
