<?xml version="1.0" encoding="utf-8"?>
<!-- Generator: Adobe Illustrator 16.0.0, SVG Export Plug-In . SVG Version: 6.00 Build 0)  -->
<!DOCTYPE svg PUBLIC "-//W3C//DTD SVG 1.1//EN" "http://www.w3.org/Graphics/SVG/1.1/DTD/svg11.dtd">
<svg version="1.1" id="_x3C_Layer_x3E_" xmlns="http://www.w3.org/2000/svg" xmlns:xlink="http://www.w3.org/1999/xlink" x="0px"
	 y="0px" width="64px" height="64px" viewBox="0 0 64 64" enable-background="new 0 0 64 64" xml:space="preserve">
<g id="skull_x2C__braincase_x2C__brainpan_x2C__death">
	<circle id="XMLID_1412_" fill="#ECEFF1" cx="32" cy="32" r="24"/>
	<path fill-rule="evenodd" clip-rule="evenodd" fill="#F0F2F4" d="M40.319,55.639L34.16,58.5h-4.32l-6.159-2.861
		c-1.893-0.891-3.181-2.794-3.181-4.886V40.5h23v10.253C43.5,52.845,42.212,54.748,40.319,55.639z"/>
	<path fill="#37474F" d="M34.271,59l-4.641-0.047l-6.159-2.861C21.361,55.1,20,53.005,20,50.753V43.5h1v7.253
		c0,1.866,1.136,3.606,2.894,4.434L29.95,58h4.1l6.059-2.814C41.864,54.359,43,52.619,43,50.753V43.5h1v7.253
		c0,2.252-1.361,4.347-3.468,5.338L34.271,59z"/>
	<g>
		<path fill-rule="evenodd" clip-rule="evenodd" fill="#D9E0E3" d="M49.5,21.5L49.5,21.5c0-9.389-7.611-17-17-17h-1
			c-9.389,0-17,7.611-17,17v0.014c0,3.044,0.412,6.073,1.225,9.006l1.111,4.016l-0.102,0.237c-0.281,0.655-0.423,1.344-0.423,2.044
			c0,2.853,2.319,5.172,5.171,5.172C21.652,41.988,22.5,42,22.5,42v5.239c0.287,0.487,4.754,3.46,9.5,3.46
			c4.721,0,9.223-2.999,9.5-3.461V42c0,0,0.853-0.012,0.988-0.012c2.859,0,5.186-2.319,5.186-5.172c0-0.712-0.141-1.399-0.416-2.044
			l-0.102-0.237l1.112-4.003C49.086,27.591,49.5,24.553,49.5,21.5z"/>
		<path fill-rule="evenodd" clip-rule="evenodd" fill="#FFFFFF" d="M40.561,6.531C38.162,5.236,35.417,4.5,32.5,4.5h-1
			c-9.389,0-17,7.611-17,17v0.014c0,3.044,0.412,6.073,1.225,9.006l1.111,4.016l-0.102,0.237c-0.281,0.655-0.423,1.344-0.423,2.044
			c0,2.697,2.081,4.892,4.718,5.125c0.581-0.227,1.053-0.36,1.371-0.36c0.489,0,1.537-0.269,1.619,0.788v5.972
			c1.708,0.999,4.635,2.278,7.717,2.349C31.898,50.39,32,50.047,32,49.68v-12.24c0.001,0,0-5.861,0-8.646
			c0-3.413,3.465-5.979,9.721-3.413c0.779-2.756,2.791-3.706,3.239-7.301C45.504,13.724,43.951,9.305,40.561,6.531z M23.653,36.9
			c-3.171,0-5.903-3.44-4.72-7.08c1.032-3.171,4.474-4.721,7.081-4.721c2.604,0,4.72,1.401,4.72,4.721
			C30.734,33.729,26.26,36.9,23.653,36.9z"/>
		<path fill="#37474F" d="M32,51.199c-4.747,0-9.494-2.965-9.931-3.706L22,47.376v-4.883c-0.217-0.002-0.439-0.005-0.518-0.005
			c-3.127,0-5.671-2.544-5.671-5.672c0-0.771,0.156-1.524,0.463-2.241l0.032-0.075l-1.064-3.847C14.418,27.677,14,24.602,14,21.514
			C14,11.851,21.851,4,31.5,4h1C42.149,4,50,11.851,50,21.5c0,3.098-0.42,6.182-1.25,9.166L47.685,34.5l0.032,0.076
			c0.303,0.708,0.457,1.462,0.457,2.24c0,3.128-2.55,5.672-5.686,5.672c-0.062,0-0.276,0.003-0.488,0.005v4.884l-0.071,0.119
			C41.484,48.237,36.721,51.199,32,51.199z M23,47.057c0.648,0.599,4.65,3.143,9,3.143c4.266,0,8.286-2.516,9-3.154v-5.538
			l0.493-0.007c0,0,0.858-0.012,0.995-0.012c2.583,0,4.686-2.096,4.686-4.672c0-0.643-0.126-1.264-0.376-1.848l-0.17-0.398
			l1.159-4.172C48.592,27.502,49,24.508,49,21.5C49,12.402,41.598,5,32.5,5h-1C22.402,5,15,12.402,15,21.5
			c0,3.012,0.406,5.996,1.207,8.886l1.158,4.185l-0.171,0.398c-0.254,0.592-0.382,1.213-0.382,1.848
			c0,2.576,2.095,4.672,4.671,4.672c0.171,0,1.024,0.012,1.024,0.012L23,41.507V47.057z"/>
		<g>
			<g>
				<path fill-rule="evenodd" clip-rule="evenodd" fill="#37474F" d="M33.916,31.14c0,3.181,3.641,5.761,5.76,5.761
					c2.58,0,4.805-2.8,3.84-5.761c-0.84-2.58-3.639-3.84-5.76-3.84C35.636,27.3,33.916,28.439,33.916,31.14z"/>
			</g>
			<g>
				<path fill-rule="evenodd" clip-rule="evenodd" fill="#37474F" d="M30.08,31.14c0,3.181-3.639,5.761-5.76,5.761
					c-2.58,0-4.804-2.8-3.841-5.761c0.841-2.58,3.64-3.84,5.761-3.84C28.36,27.3,30.08,28.439,30.08,31.14z"/>
			</g>
			<g>
				<path fill="#37474F" d="M34.881,40.74c-0.959,2.034-1.291,0.096-2.881,0.096c-1.592,0-1.92,1.938-2.881-0.096
					C28.441,39.301,32,34.021,32,34.021S35.559,39.301,34.881,40.74z"/>
			</g>
		</g>
	</g>
	<g>
		<path fill-rule="evenodd" clip-rule="evenodd" fill="#D9E0E3" d="M25.5,49v-2.5V49z"/>
		<rect x="25" y="46.5" fill="#37474F" width="1" height="2.5"/>
	</g>
	<g>
		<path fill-rule="evenodd" clip-rule="evenodd" fill="#D9E0E3" d="M38.5,49v-2.5V49z"/>
		<rect x="38" y="46.5" fill="#37474F" width="1" height="2.5"/>
	</g>
	<g>
		<path fill-rule="evenodd" clip-rule="evenodd" fill="#D9E0E3" d="M36.5,49.5V47V49.5z"/>
		<rect x="36" y="47" fill="#37474F" width="1" height="2.5"/>
	</g>
	<g>
		<path fill-rule="evenodd" clip-rule="evenodd" fill="#D9E0E3" d="M27.5,49.5V47V49.5z"/>
		<rect x="27" y="47" fill="#37474F" width="1" height="2.5"/>
	</g>
	<g>
		<path fill-rule="evenodd" clip-rule="evenodd" fill="#D9E0E3" d="M34.5,47.5v3V47.5z"/>
		<rect x="34" y="47.5" fill="#37474F" width="1" height="3"/>
	</g>
	<g>
		<path fill-rule="evenodd" clip-rule="evenodd" fill="#D9E0E3" d="M32,47.5v3V47.5z"/>
		<rect x="31.5" y="47.5" fill="#37474F" width="1" height="3"/>
	</g>
	<g>
		<path fill-rule="evenodd" clip-rule="evenodd" fill="#D9E0E3" d="M29.5,47.5v3V47.5z"/>
		<rect x="29" y="47.5" fill="#37474F" width="1" height="3"/>
	</g>
</g>
</svg>
