<?xml version="1.0" encoding="utf-8"?>
<!-- Generator: Adobe Illustrator 16.0.0, SVG Export Plug-In . SVG Version: 6.00 Build 0)  -->
<!DOCTYPE svg PUBLIC "-//W3C//DTD SVG 1.1//EN" "http://www.w3.org/Graphics/SVG/1.1/DTD/svg11.dtd">
<svg version="1.1" id="_x3C_Layer_x3E_" xmlns="http://www.w3.org/2000/svg" xmlns:xlink="http://www.w3.org/1999/xlink" x="0px"
	 y="0px" width="64px" height="64px" viewBox="0 0 64 64" enable-background="new 0 0 64 64" xml:space="preserve">
<g id="human_x2C__person_x2C__body">
	<circle id="XMLID_1415_" fill="#CFD8DC" cx="32" cy="32" r="24"/>
	<path fill="#ECEFF1" d="M34,14.5v-2.279c0.609-0.549,1-1.336,1-2.221V8.612c0-1.451-0.98-2.782-2.406-3.056
		C30.677,5.189,29,6.649,29,8.5V10c0,0.885,0.391,1.672,1,2.221V14.5l-4.081,1.36c-2.042,0.681-3.419,2.591-3.419,4.743v14.789
		c0,0.996,0.681,1.92,1.664,2.08c1.253,0.204,2.336-0.758,2.336-1.973V21v38h3.504L32,36l1.926,23H37.5V21v14.393
		c0,0.996,0.681,1.92,1.664,2.08c1.253,0.204,2.336-0.758,2.336-1.973V20.604c0-2.152-1.377-4.063-3.419-4.743L34,14.5z"/>
	<polygon fill="#37474F" points="30.502,59.043 29.506,58.957 31.502,35.957 32.498,35.958 34.424,58.958 33.428,59.042 
		31.991,41.886 	"/>
	<path fill="#37474F" d="M57,59H37V21h1v14.393c0,0.789,0.535,1.471,1.245,1.587c0.45,0.069,0.886-0.046,1.226-0.336
		C40.807,36.357,41,35.94,41,35.5V20.604c0-1.939-1.237-3.655-3.077-4.269L33.5,14.86v-2.862l0.166-0.148
		C34.204,11.364,34.5,10.708,34.5,10V8.612c0-1.264-0.841-2.343-2-2.564c-0.759-0.145-1.504,0.04-2.091,0.524
		C29.831,7.05,29.5,7.752,29.5,8.5V10c0,0.708,0.296,1.364,0.834,1.85l0.166,0.148v2.862l-4.423,1.475
		C24.237,16.948,23,18.664,23,20.604v14.789c0,0.789,0.535,1.471,1.245,1.587c0.449,0.069,0.886-0.046,1.226-0.336
		C25.807,36.357,26,35.94,26,35.5V21h1v38h-1V37.5c-0.544,0.408-1.234,0.575-1.917,0.466C22.896,37.772,22,36.666,22,35.393V20.604
		c0-2.371,1.511-4.468,3.761-5.218L29.5,14.14v-1.706c-0.638-0.654-1-1.528-1-2.434V8.5c0-1.047,0.463-2.031,1.271-2.699
		c0.808-0.668,1.868-0.935,2.917-0.735C34.317,5.378,35.5,6.87,35.5,8.612V10c0,0.905-0.362,1.779-1,2.434v1.706l3.739,1.246
		c2.25,0.75,3.761,2.847,3.761,5.218V35.5c0,0.734-0.321,1.429-0.881,1.905c-0.559,0.477-1.298,0.682-2.035,0.561
		C38.681,37.9,38.312,37.73,38,37.483V58h19V59z"/>
	<path fill="#37474F" d="M32,13.5c-0.164,0-0.324-0.012-0.483-0.033l0.135-0.99C31.766,12.492,31.882,12.5,32,12.5
		c1.378,0,2.5-1.121,2.5-2.5V8.5C34.5,7.121,33.378,6,32,6s-2.5,1.121-2.5,2.5V10c0,0.354,0.073,0.697,0.216,1.019l-0.913,0.408
		C28.602,10.976,28.5,10.496,28.5,10V8.5C28.5,6.57,30.07,5,32,5s3.5,1.57,3.5,3.5V10C35.5,11.93,33.93,13.5,32,13.5z"/>
	<rect id="XMLID_1413_" x="58" y="58" fill="#37474F" width="1" height="1"/>
</g>
</svg>
