<?xml version="1.0" encoding="utf-8"?>
<!-- Generator: Adobe Illustrator 16.0.0, SVG Export Plug-In . SVG Version: 6.00 Build 0)  -->
<!DOCTYPE svg PUBLIC "-//W3C//DTD SVG 1.1//EN" "http://www.w3.org/Graphics/SVG/1.1/DTD/svg11.dtd">
<svg version="1.1" id="_x3C_Layer_x3E_" xmlns="http://www.w3.org/2000/svg" xmlns:xlink="http://www.w3.org/1999/xlink" x="0px"
	 y="0px" width="64px" height="64px" viewBox="0 0 64 64" enable-background="new 0 0 64 64" xml:space="preserve">
<g id="thermometer_2_">
	<g id="XMLID_3064_">
		<g id="XMLID_3065_">
			<path id="XMLID_3066_" fill="#ECEFF1" d="M56,32c0,13.258-10.743,24-24,24S8,45.258,8,32S18.743,8,32,8S56,18.742,56,32z"/>
		</g>
	</g>
	<path id="XMLID_3063_" fill="#ECEFF1" d="M46.057,6.13L27.988,24.199c-2.305,2.305-4.082,5.081-5.209,8.14l-2.328,6.319
		c-0.601,1.63-1.547,3.109-2.775,4.338L5.751,54.92c-0.781,0.781-0.781,2.048,0,2.828l0,0c0.781,0.781,2.048,0.781,2.829,0
		l11.925-11.924c1.228-1.229,2.707-2.175,4.337-2.775l6.319-2.328c3.059-1.127,5.836-2.904,8.141-5.209L57.37,17.443
		c1.952-1.952,1.952-5.118,0-7.07L53.127,6.13C51.175,4.178,48.009,4.178,46.057,6.13z"/>
	<path id="XMLID_3062_" fill="#CFD8DC" d="M57.37,10.373L56.31,9.313c1.952,1.952,1.952,5.117,0,7.07L38.241,34.451
		c-2.305,2.305-5.082,4.082-8.141,5.209l-6.319,2.328c-1.63,0.6-3.109,1.547-4.337,2.775L7.519,56.688
		c-0.593,0.594-1.465,0.734-2.192,0.426c0.097,0.23,0.237,0.447,0.425,0.635c0.781,0.781,2.048,0.781,2.829,0l11.925-11.924
		c1.228-1.229,2.707-2.175,4.337-2.775l6.319-2.328c3.059-1.127,5.836-2.904,8.141-5.209L57.37,17.443
		C59.322,15.491,59.322,12.325,57.37,10.373z"/>
	<path id="XMLID_3061_" fill="#FFFFFF" d="M6.812,55.98l11.925-11.924c1.229-1.229,2.175-2.708,2.775-4.338l2.328-6.319
		c1.127-3.058,2.904-5.835,5.209-8.14L47.117,7.19c1.952-1.952,5.118-1.952,7.071,0L53.127,6.13c-1.952-1.952-5.118-1.952-7.07,0
		L27.988,24.199c-2.305,2.305-4.082,5.081-5.209,8.14l-2.328,6.319c-0.601,1.63-1.547,3.109-2.775,4.338L5.751,54.92
		c-0.781,0.781-0.781,2.048,0,2.828c0.188,0.188,0.405,0.328,0.636,0.426C6.078,57.446,6.219,56.574,6.812,55.98z"/>
	<path id="XMLID_3058_" fill="#37474F" d="M7.165,58.834c-0.667,0-1.295-0.26-1.768-0.732c-0.473-0.471-0.732-1.1-0.732-1.768
		s0.26-1.295,0.732-1.768l11.925-11.924c1.185-1.186,2.08-2.584,2.66-4.156l2.328-6.32c1.144-3.104,2.984-5.98,5.324-8.32
		L45.703,5.776c1.038-1.039,2.42-1.61,3.889-1.61s2.851,0.571,3.889,1.61l4.243,4.243c2.144,2.145,2.144,5.633,0,7.777
		L39.655,35.865c-2.339,2.34-5.217,4.181-8.321,5.324l-6.319,2.328c-1.551,0.572-2.988,1.491-4.156,2.66L8.934,58.102
		C8.461,58.574,7.833,58.834,7.165,58.834z M49.592,5.166c-1.202,0-2.332,0.467-3.182,1.317L28.342,24.553
		c-2.238,2.238-3.999,4.99-5.094,7.959l-2.328,6.32c-0.63,1.71-1.603,3.229-2.891,4.518L6.104,55.273
		c-0.283,0.283-0.439,0.66-0.439,1.061c0,0.401,0.156,0.777,0.439,1.061c0.567,0.568,1.557,0.566,2.122,0l11.925-11.924
		c1.27-1.271,2.832-2.27,4.518-2.891l6.319-2.328c2.97-1.095,5.723-2.855,7.96-5.094L57.017,17.09c1.754-1.754,1.754-4.609,0-6.363
		l-4.243-4.243C51.924,5.633,50.794,5.166,49.592,5.166z"/>
	<g id="XMLID_3053_">
		<path id="XMLID_3057_" fill="#B2FF59" d="M33.328,33L30.5,30.172c-0.391-0.391-0.391-1.023,0-1.414l7.778-7.779
			c0.391-0.39,1.023-0.39,1.414,0l2.828,2.829c0.391,0.391,0.391,1.023,0,1.414L34.742,33C34.353,33.391,33.719,33.391,33.328,33z"
			/>
		<path id="XMLID_3054_" fill="#37474F" d="M34.035,33.793c-0.4,0-0.777-0.156-1.061-0.439l-2.828-2.828
			c-0.283-0.283-0.439-0.66-0.439-1.061s0.156-0.777,0.439-1.061l7.778-7.779c0.566-0.566,1.555-0.565,2.121,0l2.828,2.829
			c0.283,0.283,0.439,0.66,0.439,1.061s-0.156,0.777-0.439,1.061l-7.778,7.778C34.813,33.637,34.437,33.793,34.035,33.793z
			 M38.985,21.187c-0.134,0-0.259,0.052-0.354,0.146l-7.778,7.778c-0.095,0.094-0.146,0.22-0.146,0.354
			c0,0.133,0.052,0.258,0.146,0.353l2.828,2.829c0.189,0.188,0.518,0.189,0.707,0l7.778-7.778c0.095-0.095,0.146-0.22,0.146-0.354
			s-0.052-0.259-0.146-0.354l-2.828-2.829C39.244,21.238,39.119,21.187,38.985,21.187z"/>
	</g>
	<g id="XMLID_3048_">
		<circle id="XMLID_3052_" fill="#CFD8DC" cx="44.996" cy="18.504" r="2.5"/>
		<path id="XMLID_3049_" fill="#37474F" d="M44.996,21.504c-0.802,0-1.556-0.312-2.122-0.879c-1.169-1.169-1.169-3.072,0-4.242
			c1.132-1.133,3.109-1.133,4.243,0c0.566,0.566,0.879,1.32,0.879,2.121c0,0.802-0.313,1.555-0.879,2.121
			C46.551,21.192,45.797,21.504,44.996,21.504z M44.996,16.504c-0.535,0-1.037,0.209-1.415,0.586c-0.779,0.779-0.779,2.049,0,2.828
			c0.755,0.756,2.072,0.757,2.829,0c0.378-0.377,0.586-0.879,0.586-1.414c0-0.533-0.208-1.036-0.586-1.414
			C46.032,16.713,45.53,16.504,44.996,16.504z"/>
	</g>
	<path id="XMLID_3047_" fill="#84FFFF" d="M57.37,10.373L53.127,6.13c-1.952-1.952-5.118-1.952-7.07,0l-1.414,1.414l11.313,11.313
		l1.414-1.414C59.322,15.491,59.322,12.325,57.37,10.373z"/>
	<path id="XMLID_3046_" fill="#18FFFF" d="M57.37,10.373L56.31,9.313c1.952,1.952,1.952,5.117,0,7.07l-1.414,1.414l1.061,1.061
		l1.414-1.414C59.322,15.491,59.322,12.325,57.37,10.373z"/>
	<path id="XMLID_3045_" fill="#FFFFFF" d="M47.117,7.19c1.952-1.952,5.118-1.952,7.071,0L53.127,6.13
		c-1.952-1.952-5.118-1.952-7.07,0l-1.414,1.414l1.061,1.062L47.117,7.19z"/>
	<path id="XMLID_3042_" fill="#37474F" d="M55.956,19.564L43.936,7.544l1.768-1.768c1.038-1.039,2.42-1.61,3.889-1.61
		s2.851,0.571,3.889,1.61l4.243,4.243c2.144,2.145,2.144,5.633,0,7.777L55.956,19.564z M45.35,7.544L55.956,18.15l1.061-1.061
		c1.754-1.754,1.754-4.609,0-6.363l-4.243-4.243c-0.85-0.851-1.979-1.317-3.182-1.317S47.26,5.633,46.41,6.483L45.35,7.544z"/>
	<path id="XMLID_3041_" fill="#84FFFF" d="M9.287,51.385L5.751,54.92c-0.781,0.781-0.781,2.048,0,2.828
		c0.781,0.781,2.048,0.781,2.829,0l3.535-3.535L9.287,51.385z"/>
	<path id="XMLID_3040_" fill="#18FFFF" d="M11.055,53.152l-3.536,3.535c-0.593,0.594-1.465,0.734-2.192,0.426
		c0.097,0.23,0.237,0.447,0.425,0.635c0.781,0.781,2.048,0.781,2.829,0l3.535-3.535L11.055,53.152z"/>
	<path id="XMLID_3039_" fill="#FFFFFF" d="M6.812,55.98l3.536-3.535l-1.061-1.061L5.751,54.92c-0.781,0.781-0.781,2.048,0,2.828
		c0.188,0.188,0.405,0.328,0.636,0.426C6.078,57.446,6.219,56.574,6.812,55.98z"/>
	<path id="XMLID_3036_" fill="#37474F" d="M7.166,58.834c-0.668,0-1.296-0.26-1.769-0.732c-0.473-0.471-0.732-1.1-0.732-1.768
		s0.26-1.295,0.732-1.768l3.89-3.889l3.535,3.535l-3.889,3.889C8.461,58.574,7.833,58.834,7.166,58.834z M9.287,52.092l-3.183,3.182
		c-0.283,0.283-0.439,0.66-0.439,1.061c0,0.401,0.156,0.777,0.439,1.061c0.565,0.566,1.555,0.568,2.122,0l3.182-3.182L9.287,52.092z
		"/>
</g>
</svg>
