<?xml version="1.0" encoding="utf-8"?>
<!-- Generator: Adobe Illustrator 16.0.0, SVG Export Plug-In . SVG Version: 6.00 Build 0)  -->
<!DOCTYPE svg PUBLIC "-//W3C//DTD SVG 1.1//EN" "http://www.w3.org/Graphics/SVG/1.1/DTD/svg11.dtd">
<svg version="1.1" id="_x3C_Layer_x3E_" xmlns="http://www.w3.org/2000/svg" xmlns:xlink="http://www.w3.org/1999/xlink" x="0px"
	 y="0px" width="64px" height="64px" viewBox="0 0 64 64" enable-background="new 0 0 64 64" xml:space="preserve">
<g id="injection">
	<g>
		<g>
			<circle fill="#ECEFF1" cx="33" cy="32.5" r="24"/>
		</g>
	</g>
	<g>
		<g>
			<polygon fill="#CFD8DC" points="22.999,44.469 19.53,41 9.916,50.601 13.385,54.07 			"/>
		</g>
	</g>
	<g>
		<g>
			<g>
				<g>
					<path fill="#FFFFFF" d="M15.208,57.777c0.389-0.389,0.389-1.025,0-1.414l-7.586-7.586c-0.389-0.389-1.025-0.389-1.414,0
						l-0.086,0.086c-0.389,0.389-0.389,1.025,0,1.414l7.586,7.586c0.389,0.389,1.025,0.389,1.414,0L15.208,57.777z"/>
				</g>
				<g>
					<polygon fill="#37474F" points="10.83,49.864 20,40.707 23.293,44 14.123,53.157 14.83,53.864 24.707,44 20,39.293 
						10.123,49.157 					"/>
				</g>
			</g>
		</g>
		<g>
			<g>
				<g>
					<path fill="#FFFFFF" d="M15.208,57.777c0.389-0.389,0.389-1.025,0-1.414l-7.586-7.586c-0.389-0.389-1.025-0.389-1.414,0
						l-0.086,0.086c-0.389,0.389-0.389,1.025,0,1.414l7.586,7.586c0.389,0.389,1.025,0.389,1.414,0L15.208,57.777z"/>
				</g>
			</g>
		</g>
		<g>
			<g>
				<g>
					<path fill="#37474F" d="M14.415,58.654c-0.401,0-0.778-0.156-1.061-0.438L5.769,50.63c-0.585-0.585-0.585-1.536,0-2.121
						l0.086-0.086c0.564-0.564,1.557-0.564,2.121,0l7.586,7.586c0.585,0.585,0.585,1.536,0,2.121l-0.086,0.086
						C15.193,58.499,14.816,58.654,14.415,58.654z M6.915,48.985c-0.134,0-0.26,0.051-0.354,0.145l-0.086,0.086
						c-0.094,0.094-0.145,0.219-0.145,0.354s0.051,0.26,0.145,0.354l7.586,7.586c0.188,0.188,0.52,0.188,0.707,0l0.086-0.086
						C14.948,57.33,15,57.204,15,57.07s-0.051-0.26-0.145-0.354L7.269,49.13C7.175,49.037,7.049,48.985,6.915,48.985z"/>
				</g>
			</g>
		</g>
	</g>
	<g>
		<g>
			<g>
				<polygon fill="#FFFFFF" points="44.5,17.5 39,15 17,37 27,47 49,25 46.5,19.5 				"/>
			</g>
		</g>
		<g>
			<g>
				<polygon fill="#18FFFF" points="40.108,16.599 18.707,38 27.354,46.646 48.998,25.002 47.083,20.79 45.21,18.917 				"/>
			</g>
		</g>
		<g>
			<g>
				
					<rect x="22.738" y="28.268" transform="matrix(-0.7071 -0.7071 0.7071 -0.7071 23.4437 82.7131)" fill="#ECEFF1" width="12.228" height="16.467"/>
			</g>
		</g>
		<g>
			<g>
				<polygon fill="#37474F" points="18.414,36.293 39.108,15.599 44.21,17.917 46.083,19.79 48.401,24.892 27.707,45.586 
					28.414,46.293 49.599,25.108 46.955,19.293 44.854,17.146 38.892,14.401 17.707,35.586 				"/>
			</g>
		</g>
	</g>
	<g>
		<g>
			<g>
				<g>
					<path fill="#FFFFFF" d="M28.293,49.707c0.389-0.389,0.389-1.025,0-1.414L15.707,35.707c-0.389-0.389-1.025-0.389-1.414,0
						l-0.086,0.086c-0.389,0.389-0.389,1.025,0,1.414l12.586,12.586c0.389,0.389,1.025,0.389,1.414,0L28.293,49.707z"/>
				</g>
			</g>
		</g>
		<g>
			<g>
				<g>
					<path fill="#37474F" d="M27.5,50.584c-0.401,0-0.778-0.156-1.061-0.438L13.854,37.561c-0.282-0.282-0.438-0.659-0.438-1.061
						s0.156-0.778,0.438-1.061l0.086-0.086c0.564-0.564,1.557-0.564,2.121,0l12.586,12.586c0.282,0.282,0.438,0.659,0.438,1.061
						s-0.156,0.778-0.438,1.061l-0.086,0.086C28.278,50.429,27.901,50.584,27.5,50.584z M15,35.916c-0.134,0-0.26,0.051-0.354,0.145
						l-0.086,0.086c-0.195,0.195-0.195,0.512,0,0.707l12.586,12.586c0.188,0.188,0.52,0.188,0.707,0l0.086-0.086
						c0.195-0.195,0.195-0.512,0-0.707L15.354,36.061C15.26,35.967,15.134,35.916,15,35.916z"/>
				</g>
			</g>
		</g>
	</g>
	<g>
		<g>
			<g>
				<polygon fill="#18FFFF" points="46.5,19.5 44.5,17.5 48,14.5 49.5,16 				"/>
			</g>
		</g>
		<g>
			<g>
				<path fill="#37474F" d="M46.528,20.235l-2.764-2.764l4.262-3.653l2.155,2.155L46.528,20.235z M45.235,17.528l1.236,1.236
					l2.347-2.738l-0.845-0.845L45.235,17.528z"/>
			</g>
		</g>
	</g>
	<g>
		<g>
			<g>
				<path fill="#84FFFF" d="M60.5,20c0,1.381-1.119,2.5-2.5,2.5s-2.5-1.119-2.5-2.5s2.5-6.5,2.5-6.5S60.5,18.619,60.5,20z"/>
			</g>
		</g>
		<g>
			<g>
				<path fill="#37474F" d="M58,23c-1.654,0-3-1.346-3-3c0-1.455,2.29-6.185,2.551-6.719L58,12.361l0.449,0.92
					C58.71,13.815,61,18.545,61,20C61,21.654,59.654,23,58,23z M58,14.663c-0.909,1.952-2,4.552-2,5.337c0,1.103,0.897,2,2,2
					s2-0.897,2-2C60,19.215,58.909,16.614,58,14.663z"/>
			</g>
		</g>
	</g>
	<g>
		<g>
			<g>
				<g>
					<g>
						
							<rect x="36.586" y="18" transform="matrix(0.7071 0.7071 -0.7071 0.7071 24.6508 -22.5122)" fill="#37474F" width="5.828" height="1"/>
					</g>
				</g>
			</g>
		</g>
		<g>
			<g>
				<g>
					<g>
						
							<rect x="34.586" y="20" transform="matrix(0.7071 0.7071 -0.7071 0.7071 25.4792 -20.5122)" fill="#37474F" width="5.828" height="1"/>
					</g>
				</g>
			</g>
		</g>
		<g>
			<g>
				<g>
					<g>
						
							<rect x="32.586" y="22" transform="matrix(0.7071 0.7071 -0.7071 0.7071 26.3076 -18.5122)" fill="#37474F" width="5.828" height="1"/>
					</g>
				</g>
			</g>
		</g>
		<g>
			<g>
				<g>
					<g>
						
							<rect x="30.586" y="24" transform="matrix(0.7071 0.7071 -0.7071 0.7071 27.136 -16.5122)" fill="#37474F" width="5.828" height="1"/>
					</g>
				</g>
			</g>
		</g>
		<g>
			<g>
				<g>
					<g>
						
							<rect x="28.586" y="26" transform="matrix(0.7071 0.7071 -0.7071 0.7071 27.9645 -14.5122)" fill="#37474F" width="5.828" height="1"/>
					</g>
				</g>
			</g>
		</g>
		<g>
			<g>
				<g>
					<g>
						
							<rect x="26.586" y="28" transform="matrix(0.7071 0.7071 -0.7071 0.7071 28.7929 -12.5122)" fill="#37474F" width="5.828" height="1"/>
					</g>
				</g>
			</g>
		</g>
		<g>
			<g>
				<g>
					<g>
						
							<rect x="24.586" y="30" transform="matrix(0.7071 0.7071 -0.7071 0.7071 29.6213 -10.5122)" fill="#37474F" width="5.828" height="1"/>
					</g>
				</g>
			</g>
		</g>
		<g>
			<g>
				<g>
					<g>
						
							<rect x="22.586" y="32" transform="matrix(0.7071 0.7071 -0.7071 0.7071 30.4497 -8.5122)" fill="#37474F" width="5.828" height="1"/>
					</g>
				</g>
			</g>
		</g>
		<g>
			<g>
				<g>
					<g>
						
							<rect x="20.586" y="34" transform="matrix(0.7071 0.7071 -0.7071 0.7071 31.2782 -6.5122)" fill="#37474F" width="5.828" height="1"/>
					</g>
				</g>
			</g>
		</g>
	</g>
	<g>
		<g>
			<rect x="34" y="30" transform="matrix(0.7071 -0.7071 0.7071 0.7071 -11.4619 33.3284)" fill="#37474F" width="1" height="1"/>
		</g>
		<g>
			<g>
				<polygon fill="#37474F" points="35.113,31.887 38.249,35.002 39.31,34.649 35.82,31.18 				"/>
			</g>
		</g>
	</g>
	<g>
		<g>
			<polygon fill="#37474F" points="59,4.293 48.646,14.646 49.354,15.354 59,5.707 			"/>
		</g>
	</g>
</g>
</svg>
