<?xml version="1.0" encoding="utf-8"?>
<!-- Generator: Adobe Illustrator 16.0.0, SVG Export Plug-In . SVG Version: 6.00 Build 0)  -->
<!DOCTYPE svg PUBLIC "-//W3C//DTD SVG 1.1//EN" "http://www.w3.org/Graphics/SVG/1.1/DTD/svg11.dtd">
<svg version="1.1" id="_x3C_Layer_x3E_" xmlns="http://www.w3.org/2000/svg" xmlns:xlink="http://www.w3.org/1999/xlink" x="0px"
	 y="0px" width="64px" height="64px" viewBox="0 0 64 64" enable-background="new 0 0 64 64" xml:space="preserve">
<g id="anti-AIDS">
	<g>
		<g>
			<path fill="#FF5252" d="M32,14c9,0,13,5,13,5L39,8c0,0-2-3-7-3s-7,3-7,3l-6,11C19,19,23,14,32,14z"/>
		</g>
		<g>
			<path fill="#37474F" d="M44.61,19.313C44.571,19.265,40.628,14.5,32,14.5s-12.571,4.765-12.61,4.813l5.171-11.552
				C24.672,7.591,26.792,4.5,32,4.5s7.328,3.091,7.416,3.223L44.61,19.313z M32,5.5c-4.678,0-6.565,2.75-6.584,2.777l-4.618,8.47
				C22.894,15.273,26.547,13.5,32,13.5c5.452,0,9.105,1.772,11.201,3.247l-4.64-8.507C38.508,8.166,36.647,5.5,32,5.5z"/>
		</g>
	</g>
	<g>
		<g>
			<path fill="#FFFFFF" d="M39,8c3,13-27,38-27,38l5,12c0,0,28-28,28-37C45,18,44,16,39,8z"/>
		</g>
		<g>
			<g>
				<path fill="#FF8A80" d="M44.5,21c0-2.477-0.659-4.173-4.335-10.171c-0.873,13.215-22.113,32.352-27.028,36.598l4.037,9.687
					C21.013,53.213,44.5,29.021,44.5,21z"/>
			</g>
		</g>
		<g>
			<g>
				<path fill="#37474F" d="M39.424,7.735l-0.911,0.377c0.988,4.282-1.792,9.976-5.887,15.632c0.209,0.282,0.427,0.565,0.643,0.848
					c3.675-5.053,6.375-10.204,6.44-14.505C43.796,16.704,44.5,18.422,44.5,21c0,8.021-23.487,32.213-27.327,36.114l-4.57-10.968
					c1.32-1.116,6.495-5.568,11.974-11.303c-0.212-0.286-0.414-0.568-0.619-0.852c-6.25,6.563-12.146,11.514-12.278,11.625
					l-0.141,0.577l5,12l0.815,0.161C18.503,57.204,45.5,30.103,45.5,21C45.5,17.783,44.349,15.614,39.424,7.735z"/>
			</g>
		</g>
	</g>
	<g>
		<g>
			<path fill="#FFFFFF" d="M25,8c-3,13,27,38,27,38l-5,12c0,0-28-28-28-37C19,18,20,16,25,8z"/>
		</g>
		<g>
			<path fill="#37474F" d="M47.174,58.881l-0.528-0.528C45.497,57.204,18.5,30.103,18.5,21c0-3.217,1.151-5.386,6.076-13.265
				l0.911,0.377C22.59,20.666,52.022,45.368,52.32,45.616l0.283,0.236L47.174,58.881z M24.292,10.087
				C20.204,16.704,19.5,18.422,19.5,21c0,8.022,23.487,32.213,27.327,36.114l4.57-10.968C48.331,43.556,24.488,22.992,24.292,10.087
				z"/>
		</g>
		<g>
			<g>
				<path fill="#FF8A80" d="M24.413,11.522C21.106,16.964,20.5,18.621,20.5,21c0,7.309,20.271,28.563,26.712,35.19l4.186-10.044
					C48.442,43.649,26.198,24.462,24.413,11.522z"/>
			</g>
		</g>
	</g>
</g>
</svg>
