<?xml version="1.0" encoding="utf-8"?>
<!-- Generator: Adobe Illustrator 16.0.0, SVG Export Plug-In . SVG Version: 6.00 Build 0)  -->
<!DOCTYPE svg PUBLIC "-//W3C//DTD SVG 1.1//EN" "http://www.w3.org/Graphics/SVG/1.1/DTD/svg11.dtd">
<svg version="1.1" id="_x3C_Layer_x3E_" xmlns="http://www.w3.org/2000/svg" xmlns:xlink="http://www.w3.org/1999/xlink" x="0px"
	 y="0px" width="64px" height="64px" viewBox="0 0 64 64" enable-background="new 0 0 64 64" xml:space="preserve">
<g id="medical_records_1_">
	<g id="clipboard_1_">
		<g id="planchette_2_">
			<g>
				<g>
					<g>
						<g>
							<path fill="#18FFFF" d="M9,58c-0.827,0-0.5,0.327-0.5-0.5V11c0-0.827,0.673-1.5,1.5-1.5h36c0.827,0,1.5,0.673,1.5,1.5v46.5
								c0,0.827-0.673,0.5-1.5,0.5H9z"/>
						</g>
					</g>
				</g>
			</g>
			<g>
				<g>
					<g>
						<polygon fill="#FFFFFF" points="22,55 12,45 12,13 44,13 44,55 						"/>
					</g>
				</g>
			</g>
			<g>
				<g>
					<g>
						<polygon fill="#ECEFF1" points="33,56 22,56 22,45 						"/>
					</g>
				</g>
			</g>
			<g>
				<g>
					<g>
						<g>
							<polygon fill="#84FFFF" points="12.207,45.707 21.5,45.707 21.5,55 							"/>
						</g>
					</g>
				</g>
			</g>
			<g>
				<g>
					<g>
						<path fill="#ECEFF1" d="M39.025,12.658C38.819,12.041,37.873,11.5,37,11.5h-4.5v-2h-0.862l-0.149-0.174
							c-0.253-0.293-0.47-0.496-0.65-0.664C30.394,8.247,30.042,7.918,30,7c0-1.103-0.897-2-2-2s-2,0.897-2.005,1.93l0.009,0.061
							l-0.003,0.052c-0.043,0.875-0.395,1.203-0.839,1.619c-0.181,0.168-0.397,0.371-0.65,0.664L24.362,9.5H23.5v2H19
							c-0.873,0-1.819,0.541-2.025,1.158c-0.161,0.483-0.308,1.296-0.395,1.842h22.811L39.025,12.658z M28,9c-1.105,0-2-0.896-2-2
							s0.895-2,2-2s2,0.896,2,2S29.105,9,28,9z"/>
					</g>
				</g>
			</g>
			<g>
				<g>
					<g>
						<path fill="#37474F" d="M23,9v2h-4c-0.869,0-1.741,0.419-2.211,1H11v33l11,11h23V12h-5.789c-0.47-0.581-1.342-1-2.211-1h-4V9
							h-1.133c-0.855-0.993-1.32-1.002-1.369-1.981C30.498,7.013,30.5,7.006,30.5,7c0-1.378-1.121-2.5-2.5-2.5
							c-1.236,0-2.258,0.904-2.458,2.083C25.52,6.72,25.5,6.857,25.5,7c0,0.006,0.002,0.013,0.002,0.019
							C25.453,7.998,24.988,8.007,24.133,9H23z M21,53.586L13.414,46H21V53.586z M39.6,13H44v42H22V45H12V13h4.362
							C16.153,13.864,16,15,16,15h24L39.6,13z M26.502,6.985c0-0.058,0.01-0.114,0.017-0.17c0.007-0.047,0.009-0.094,0.02-0.14
							h-0.001C26.688,6.004,27.285,5.5,28,5.5c0.813,0,1.472,0.649,1.496,1.456l-0.002,0.008l0.003,0.064
							C29.481,7.842,28.817,8.5,28,8.5c-0.82,0-1.488-0.663-1.498-1.481V6.985z M24,10h0.591l0.3-0.347
							c0.232-0.27,0.435-0.459,0.612-0.625c0.175-0.163,0.351-0.328,0.507-0.531C26.467,9.102,27.185,9.5,28,9.5
							c0.814,0,1.533-0.397,1.989-1.002c0.155,0.201,0.333,0.366,0.508,0.53c0.178,0.167,0.38,0.355,0.612,0.625l0.3,0.347H32v2h5
							c0.737,0,1.388,0.452,1.535,0.776L38.78,14H17.173c0.08-0.437,0.178-0.889,0.275-1.184C17.557,12.492,18.231,12,19,12h5V10z"
							/>
					</g>
				</g>
				<g>
					<g>
						<path fill="#37474F" d="M46,9H34v1h12c0.552,0,1,0.449,1,1v46c0,0.551-0.448,1-1,1H10c-0.552,0-1-0.449-1-1V11
							c0-0.551,0.448-1,1-1h12V9H10c-1.1,0-2,0.9-2,2v46c0,1.1,0.9,2,2,2h36c1.1,0,2-0.9,2-2V11C48,9.9,47.1,9,46,9z"/>
					</g>
				</g>
			</g>
		</g>
	</g>
	<g id="Document_1_">
		<g>
			<g>
				<g>
					<g>
						<g>
							<path fill="#37474F" d="M56.103,9.367L50,9v40.93V50h6V12h1v17l1,1V12C58,10.896,57.15,9.717,56.103,9.367z"/>
						</g>
					</g>
				</g>
				<g>
					<g>
						<g>
							<polygon fill="#FFFFFF" points="55.875,10.222 50.125,8.938 50.125,48.995 50.125,49.063 55.875,49.063 							"/>
						</g>
					</g>
				</g>
				<g>
					<g>
						<g>
							<polygon fill="#FF5252" points="52,10 52,50 55.563,50 55.652,10.816 							"/>
						</g>
					</g>
				</g>
				<g>
					<g>
						<g>
							<rect x="50" y="28" fill="#37474F" width="6" height="1"/>
						</g>
					</g>
				</g>
				<g>
					<g>
						<g>
							<path fill="#37474F" d="M51,9.248l4,0.894V12v19v18h-4V9.248L51,9.248z M50,8v41.93V50h6V31V12V9.34L50,8L50,8z"/>
						</g>
					</g>
				</g>
				<g>
					<g>
						<g>
							<g>
								<polygon fill="#F0F2F4" points="50.5,49.919 50.5,49.5 55.5,49.5 55.5,49.919 53,57.419 								"/>
							</g>
						</g>
					</g>
					<g>
						<g>
							<g>
								<path fill="#37474F" d="M54.945,50L53,55.838L51.055,50H54.945L54.945,50z M56,49h-6v1l3,9l3-9V49L56,49z"/>
							</g>
						</g>
					</g>
				</g>
			</g>
		</g>
	</g>
	<g>
		<g>
			<rect x="26" y="19" fill="#37474F" width="15" height="5"/>
		</g>
	</g>
	<g>
		<g>
			<rect x="27" y="20" fill="#FFE57F" width="13" height="3"/>
		</g>
	</g>
	<g>
		<g>
			<circle fill="#FF8A80" cx="19.5" cy="21.5" r="4"/>
		</g>
		<g>
			<path fill="#37474F" d="M19.5,26c-2.481,0-4.5-2.019-4.5-4.5s2.019-4.5,4.5-4.5s4.5,2.019,4.5,4.5S21.981,26,19.5,26z M19.5,18
				c-1.93,0-3.5,1.57-3.5,3.5s1.57,3.5,3.5,3.5s3.5-1.57,3.5-3.5S21.43,18,19.5,18z"/>
		</g>
	</g>
	<g>
		<g>
			<rect x="19" y="19" fill="#37474F" width="1" height="5"/>
		</g>
	</g>
	<g>
		<g>
			<rect x="17" y="21" fill="#37474F" width="5" height="1"/>
		</g>
	</g>
	<g>
		<g>
			<rect x="16" y="43" fill="#37474F" width="1" height="1"/>
		</g>
	</g>
	<g>
		<g>
			<rect x="20" y="43" fill="#37474F" width="21" height="1"/>
		</g>
	</g>
	<g>
		<g>
			<rect x="16" y="40" fill="#37474F" width="1" height="1"/>
		</g>
	</g>
	<g>
		<g>
			<rect x="20" y="40" fill="#37474F" width="21" height="1"/>
		</g>
	</g>
	<g>
		<g>
			<rect x="16" y="37" fill="#37474F" width="1" height="1"/>
		</g>
	</g>
	<g>
		<g>
			<rect x="20" y="37" fill="#37474F" width="21" height="1"/>
		</g>
	</g>
	<g>
		<g>
			<rect x="16" y="34" fill="#37474F" width="1" height="1"/>
		</g>
	</g>
	<g>
		<g>
			<rect x="20" y="34" fill="#37474F" width="21" height="1"/>
		</g>
	</g>
	<g>
		<g>
			<rect x="16" y="31" fill="#37474F" width="1" height="1"/>
		</g>
	</g>
	<g>
		<g>
			<rect x="20" y="31" fill="#37474F" width="21" height="1"/>
		</g>
	</g>
	<g>
		<g>
			<rect x="16" y="28" fill="#37474F" width="1" height="1"/>
		</g>
	</g>
	<g>
		<g>
			<rect x="20" y="28" fill="#37474F" width="21" height="1"/>
		</g>
	</g>
	<g>
		<g>
			<rect x="40" y="48" fill="#37474F" width="1" height="1"/>
		</g>
	</g>
	<g>
		<g>
			<rect x="32" y="48" fill="#37474F" width="7" height="1"/>
		</g>
	</g>
</g>
</svg>
