<?xml version="1.0" encoding="utf-8"?>
<!-- Generator: Adobe Illustrator 16.0.0, SVG Export Plug-In . SVG Version: 6.00 Build 0)  -->
<!DOCTYPE svg PUBLIC "-//W3C//DTD SVG 1.1//EN" "http://www.w3.org/Graphics/SVG/1.1/DTD/svg11.dtd">
<svg version="1.1" id="_x3C_Layer_x3E_" xmlns="http://www.w3.org/2000/svg" xmlns:xlink="http://www.w3.org/1999/xlink" x="0px"
	 y="0px" width="64px" height="64px" viewBox="0 0 64 64" enable-background="new 0 0 64 64" xml:space="preserve">
<g id="hospital_bed_x2C__hospital_x2C__bed">
	<g>
		<g>
			<path fill="#ECEFF1" d="M52,58.5h-1c-0.275,0-0.5-0.224-0.5-0.5v-9.5h2V58C52.5,58.276,52.275,58.5,52,58.5z"/>
			<path fill="#37474F" d="M52,59h-1c-0.551,0-1-0.448-1-1V48h3v10C53,58.552,52.551,59,52,59z M52,58v0.5V58L52,58z M51,49v9h1l0-9
				H51z"/>
		</g>
		<g>
			<path fill="#ECEFF1" d="M13,58.5h-1c-0.276,0-0.5-0.224-0.5-0.5v-9.5h2V58C13.5,58.276,13.276,58.5,13,58.5z"/>
			<path fill="#37474F" d="M13,59h-1c-0.551,0-1-0.448-1-1V48h3v10C14,58.552,13.551,59,13,59z M13,58v0.5V58L13,58z M12,49v9h1v-9
				H12z"/>
		</g>
	</g>
	<g>
		<path fill="#FFFFFF" d="M49.5,32.5h-35v-18c0-2.209,1.791-4,4-4h27c2.209,0,4,1.791,4,4V32.5z"/>
		<path fill="#37474F" d="M50,33H14V14.5c0-2.481,2.019-4.5,4.5-4.5h27c2.481,0,4.5,2.019,4.5,4.5V33z M15,32h34V14.5
			c0-1.93-1.57-3.5-3.5-3.5h-27c-1.93,0-3.5,1.57-3.5,3.5V32z"/>
	</g>
	<g>
		<path fill="#ECEFF1" d="M34,16.5v-2.279c0.609-0.549,1-1.336,1-2.221v-1.388c0-1.451-0.98-2.782-2.406-3.056
			C30.677,7.189,29,8.649,29,10.5V12c0,0.885,0.391,1.672,1,2.221V16.5l-4.081,1.36c-2.042,0.681-3.419,2.591-3.419,4.743v14.789
			c0,0.996,0.681,1.92,1.664,2.08c1.253,0.204,2.336-0.758,2.336-1.973V23v21h3.504h3.922H37.5V23v14.393
			c0,0.996,0.681,1.92,1.664,2.08c1.253,0.204,2.336-0.758,2.336-1.973V22.604c0-2.152-1.377-4.063-3.419-4.743L34,16.5z"/>
		<path fill="#37474F" d="M27,44h-1v-4.5c-0.544,0.408-1.234,0.577-1.917,0.466C22.896,39.772,22,38.666,22,37.393V22.604
			c0-2.371,1.511-4.468,3.761-5.218L29.5,16.14v-1.706c-0.638-0.654-1-1.528-1-2.434v-1.5c0-1.047,0.463-2.031,1.271-2.699
			c0.808-0.668,1.87-0.935,2.917-0.735C34.317,7.378,35.5,8.87,35.5,10.612V12c0,0.905-0.362,1.779-1,2.434v1.706l3.739,1.246
			c2.25,0.75,3.761,2.847,3.761,5.218V37.5c0,0.734-0.321,1.429-0.881,1.905c-0.559,0.476-1.299,0.682-2.035,0.561
			C38.681,39.9,38.312,39.73,38,39.483V43.5h-1V23h1v14.393c0,0.789,0.535,1.471,1.245,1.587c0.449,0.071,0.886-0.046,1.226-0.336
			C40.807,38.357,41,37.94,41,37.5V22.604c0-1.939-1.237-3.655-3.077-4.269L33.5,16.86v-2.862l0.166-0.148
			C34.204,13.364,34.5,12.708,34.5,12v-1.388c0-1.264-0.841-2.343-2-2.564c-0.76-0.145-1.505,0.04-2.091,0.524
			C29.831,9.05,29.5,9.752,29.5,10.5V12c0,0.708,0.296,1.364,0.834,1.85l0.166,0.148v2.862l-4.423,1.475
			C24.237,18.948,23,20.664,23,22.604v14.789c0,0.789,0.535,1.471,1.245,1.587c0.449,0.071,0.886-0.046,1.226-0.336
			C25.807,38.357,26,37.94,26,37.5V23h1V44z"/>
		<path fill="#37474F" d="M32,15.5c-0.164,0-0.324-0.012-0.483-0.033l0.135-0.99C31.766,14.492,31.882,14.5,32,14.5
			c1.378,0,2.5-1.121,2.5-2.5v-1.5C34.5,9.121,33.378,8,32,8s-2.5,1.121-2.5,2.5V12c0,0.354,0.073,0.697,0.216,1.019l-0.913,0.408
			C28.602,12.976,28.5,12.496,28.5,12v-1.5C28.5,8.57,30.07,7,32,7s3.5,1.57,3.5,3.5V12C35.5,13.93,33.93,15.5,32,15.5z"/>
	</g>
	<g>
		<path fill="#FFFFFF" d="M51.5,45.5h-39v-10c0-5.522,4.477-10,10-10h19c5.523,0,10,4.478,10,10V45.5z"/>
		<path fill="#37474F" d="M52,46H12V35.5C12,29.71,16.71,25,22.5,25h19C47.29,25,52,29.71,52,35.5V46z M13,45h38v-9.5
			c0-5.238-4.262-9.5-9.5-9.5h-19c-5.238,0-9.5,4.262-9.5,9.5V45z"/>
	</g>
	<g>
		<path fill="#84FFFF" d="M53.5,47.5h-43v-11c0-1.104,0.896-2,2-2h39c1.104,0,2,0.896,2,2V47.5z"/>
		<path fill="#37474F" d="M54,48H10V36.5c0-1.379,1.122-2.5,2.5-2.5h39c1.378,0,2.5,1.121,2.5,2.5V48z M11,47h42V36.5
			c0-0.827-0.673-1.5-1.5-1.5h-39c-0.827,0-1.5,0.673-1.5,1.5V47z"/>
	</g>
	<g>
		<rect x="9.5" y="47.5" fill="#ECEFF1" width="45" height="2"/>
		<path fill="#37474F" d="M55,50H9v-3h46V50z M10,49h44v-1H10V49z"/>
	</g>
	<rect x="51" y="58" fill="#37474F" width="6" height="1"/>
	<rect id="XMLID_1399_" x="58" y="58" fill="#37474F" width="1" height="1"/>
</g>
</svg>
