<?xml version="1.0" encoding="utf-8"?>
<!-- Generator: Adobe Illustrator 16.0.0, SVG Export Plug-In . SVG Version: 6.00 Build 0)  -->
<!DOCTYPE svg PUBLIC "-//W3C//DTD SVG 1.1//EN" "http://www.w3.org/Graphics/SVG/1.1/DTD/svg11.dtd">
<svg version="1.1" id="_x3C_Layer_x3E_" xmlns="http://www.w3.org/2000/svg" xmlns:xlink="http://www.w3.org/1999/xlink" x="0px"
	 y="0px" width="64px" height="64px" viewBox="0 0 64 64" enable-background="new 0 0 64 64" xml:space="preserve">
<g id="X-ray_x2C__check_mark_1_">
	<g id="X-ray_3_">
		<g id="XMLID_2933_">
			<g id="XMLID_3034_">
				<rect id="XMLID_3035_" x="5.5" y="6.5" fill="#CFD8DC" width="49" height="51"/>
			</g>
			<g id="XMLID_3021_">
				<g id="XMLID_3031_">
					<g id="XMLID_3032_">
						<polygon id="XMLID_3033_" fill="#37474F" points="9,56 7,56 7,54 8,54 8,55 9,55 						"/>
					</g>
				</g>
				<g id="XMLID_3028_">
					<g id="XMLID_3029_">
						<polygon id="XMLID_3030_" fill="#37474F" points="8,10 7,10 7,8 9,8 9,9 8,9 						"/>
					</g>
				</g>
				<g id="XMLID_3025_">
					<g id="XMLID_3026_">
						<polygon id="XMLID_3027_" fill="#37474F" points="53,10 52,10 52,9 51,9 51,8 53,8 						"/>
					</g>
				</g>
				<g id="XMLID_3022_">
					<g id="XMLID_3023_">
						<polygon id="XMLID_3024_" fill="#37474F" points="53,56 50,56 50,55 52,55 52,54 53,54 						"/>
					</g>
				</g>
			</g>
			<g id="XMLID_2934_">
				<g id="XMLID_3018_">
					<g id="XMLID_3019_">
						<path id="XMLID_3020_" fill="#FFFFFF" d="M48.271,42.766c0.299-0.984,0.339-2.008,0.151-2.759
							c-0.199,0.396-0.52-1.731-0.45-2.024c0.192-0.826,0.172-1.594-0.032-2.254c-0.188,0.354-0.621-1.211-0.507-1.613
							c0.286-0.996,0.167-1.882-0.29-2.563c-0.192,0.295-0.028-3.232-1.167-4.547c-0.08,0.097,0.012-2.523-0.683-3.471
							c-0.218-0.298-0.496-0.559-0.798-0.804c-0.115,0.147-0.199-2.162-0.859-3.063c-0.358-0.488-0.817-0.896-1.337-1.243
							c-0.151,0.296-0.652-1.724-1.321-2.569c-0.539-0.684-1.254-1.256-2.049-1.721c-0.014,0.343-1.068-0.442-1.246-0.95
							c-0.347-0.993-1.504-1.979-2.815-2.397c-1.284-0.411-2.543-0.242-3.551,0.473c-0.008,0.006-0.013,0.016-0.021,0.021
							c-0.738,0.26-1.858,0.154-2.106-0.021c-1.008-0.715-2.268-0.884-3.551-0.473c-1.311,0.418-2.469,1.404-2.814,2.397
							c-0.242,0.69-1.233,1.298-1.247,0.95c-0.795,0.465-1.51,1.037-2.049,1.721c-0.668,0.846-1.16,2.883-1.322,2.569
							c-0.519,0.347-0.979,0.755-1.337,1.243c-0.66,0.901-0.743,3.211-0.857,3.063c-0.303,0.245-0.582,0.506-0.8,0.804
							c-0.693,0.947-0.611,3.555-0.682,3.471c-0.918,1.059-0.553,3.482-0.57,3.487c-0.155,0.035-0.444,1.294-0.598,1.06
							c-0.456,0.681-0.574,1.566-0.288,2.563c0.088,0.307-0.262,2.07-0.507,1.613c-0.206,0.66-0.226,1.428-0.032,2.254
							c0.117,0.502-0.199,2.406-0.45,1.904c-0.188,0.752-0.148,1.655,0.15,2.639c0.302,0.992,0.33,3.131-0.096,2.438
							c0,0.614,0.133,1.278,0.408,1.953c0.365,0.89,1.231,3.418,0.983,3.203c0.013,0.035,0.019,0.072,0.031,0.106
							c0.63,1.625,1.919,2.532,3.569,2.532c0.117,0,0.236-0.005,0.358-0.015c2.588-0.197,4.28-3.699,6.158-7.364
							c1.75-3.417,3.153-5.523,4.137-6.791c0.244,1.048,1.238,1.304,2.43,1.304c1.221,0,2.232-0.27,2.445-1.38
							c0.987,1.259,2.411,3.38,4.198,6.867c1.877,3.665,3.569,7.167,6.158,7.364c0.122,0.01,0.239,0.015,0.357,0.015
							c1.651,0,2.939-0.907,3.568-2.532c0.014-0.034,0.02-0.071,0.031-0.106c-0.187,0.161,0.646-2.382,0.984-3.203
							c0.275-0.675,0.409-1.339,0.407-1.953C48.054,45.474,48.052,43.486,48.271,42.766z"/>
					</g>
				</g>
				<g id="XMLID_2993_">
					<g id="XMLID_3014_">
						<g id="XMLID_3015_">
							<g id="XMLID_3016_">
								<path id="XMLID_3017_" fill="#37474F" d="M31.303,32.824c0.67,0.494,0.419,0.146,1.161,0.496
									c2.868,2.541,6.542,5.666,8.801,5.082c2.561-0.658,4.608-2.852,5.105-4.59c0.111-0.389,0.175-0.884,0.027-1.327
									c0.003-0.003,0.006-0.005,0.008-0.007c0.294-0.296,0.529-0.607,0.737-0.926c0.457,0.681,0.576,1.566,0.29,2.563
									c-0.575,2.01-2.837,4.57-5.895,5.357c-0.332,0.085-0.666,0.125-1,0.125c-2.562,0-5.21-2.346-7.996-4.813
									c-0.421-0.373-0.843-0.748-1.269-1.116c-0.229-0.2-0.255-0.549-0.056-0.779C31.243,32.862,31.274,32.848,31.303,32.824z"/>
							</g>
						</g>
					</g>
					<g id="XMLID_3010_">
						<g id="XMLID_3011_">
							<g id="XMLID_3012_">
								<path id="XMLID_3013_" fill="#37474F" d="M31.469,30.094c4.406,4.289,10.859,3.355,13.368,0.828
									c0.619-0.625,1.427-1.836,0.343-3.144c0.196-0.157,0.391-0.315,0.554-0.483c0.09-0.094,0.162-0.192,0.242-0.289
									c1.239,1.43,1.124,3.203-0.354,4.693c-1.472,1.484-4.028,2.497-6.838,2.497c-2.709,0-5.653-0.942-8.086-3.312
									c-0.218-0.212-0.223-0.562-0.01-0.78C30.901,29.885,31.25,29.882,31.469,30.094z"/>
							</g>
						</g>
					</g>
					<g id="XMLID_3006_">
						<g id="XMLID_3007_">
							<g id="XMLID_3008_">
								<path id="XMLID_3009_" fill="#37474F" d="M31.392,26.718c3.699,2.498,10.652,1.226,12.75-0.954
									c0.721-0.748,0.493-1.258,0.261-1.576c-0.191-0.26-0.439-0.484-0.715-0.695c0.143-0.109,0.301-0.215,0.424-0.333
									c0.144-0.138,0.269-0.28,0.384-0.428c0.302,0.245,0.58,0.506,0.798,0.804c0.694,0.947,0.565,2.039-0.356,2.994
									c-1.442,1.499-4.871,2.652-8.28,2.652c-2.131,0-4.256-0.45-5.881-1.548c-0.254-0.171-0.32-0.515-0.148-0.767
									C30.797,26.613,31.14,26.548,31.392,26.718z"/>
							</g>
						</g>
					</g>
					<g id="XMLID_3002_">
						<g id="XMLID_3003_">
							<g id="XMLID_3004_">
								<path id="XMLID_3005_" fill="#37474F" d="M31.98,22.877c1.699,1.354,8.732,0.483,10.601-1.311
									c0.557-0.533,0.407-0.913,0.164-1.246c-0.294-0.401-0.675-0.738-1.109-1.025c0.285-0.266,0.503-0.557,0.663-0.87
									c0.52,0.347,0.979,0.755,1.337,1.243c0.66,0.901,0.554,1.884-0.289,2.695c-1.457,1.398-5.111,2.26-8.113,2.26
									c-1.692,0-3.178-0.273-3.941-0.882c-0.238-0.19-0.277-0.538-0.087-0.776S31.742,22.687,31.98,22.877z"/>
							</g>
						</g>
					</g>
					<g id="XMLID_2998_">
						<g id="XMLID_2999_">
							<g id="XMLID_3000_">
								<path id="XMLID_3001_" fill="#37474F" d="M32.005,19.031c0.892,0.333,7.072,0.02,8.26-1.479
									c0.104-0.133,0.322-0.408-0.154-1.013c-0.393-0.498-0.892-0.922-1.445-1.281c0.159-0.351,0.248-0.728,0.264-1.123
									c0.795,0.465,1.51,1.037,2.049,1.721c0.669,0.846,0.59,1.535,0.404,1.967c-0.7,1.627-4.052,2.166-5.985,2.343
									c-0.544,0.05-1.243,0.099-1.92,0.099c-1.047,0-2.035-0.115-2.3-0.515c-0.17-0.255-0.101-0.597,0.153-0.767
									C31.544,18.841,31.822,18.867,32.005,19.031z"/>
							</g>
						</g>
					</g>
					<g id="XMLID_2994_">
						<g id="XMLID_2995_">
							<g id="XMLID_2996_">
								<path id="XMLID_2997_" fill="#37474F" d="M33.513,16.526c1.028,0,2.171-0.194,2.96-0.587
									c1.176-0.585,1.616-1.588,1.21-2.755c-0.347-0.993-1.504-1.979-2.815-2.397c-1.284-0.411-2.543-0.242-3.551,0.473
									c-0.25,0.176-0.308,0.52-0.131,0.77c0.176,0.248,0.521,0.307,0.77,0.131c0.917-0.651,1.906-0.533,2.576-0.322
									c1.105,0.354,1.911,1.145,2.107,1.711c0.182,0.518,0.084,0.885-0.313,1.191c-1.146,0.879-3.874,0.746-4.287,0.466
									c-0.169-0.253-0.482-0.292-0.736-0.122c-0.255,0.17-0.295,0.545-0.125,0.799C31.461,16.309,32.424,16.526,33.513,16.526z"/>
							</g>
						</g>
					</g>
				</g>
				<g id="XMLID_2965_">
					<g id="XMLID_2990_">
						<g id="XMLID_2991_">
							<path id="XMLID_2992_" fill="#37474F" d="M29.286,36.204c-0.201-0.23-0.55-0.255-0.779-0.056
								c-0.61,0.529-1.22,1.096-1.831,1.662c-2.721,2.521-5.539,5.125-8.556,4.455c-2.364-0.529-4.088-2.731-4.509-4.535
								c-0.037-0.156-0.071-0.346-0.091-0.552c-0.385-0.474-0.692-0.962-0.953-1.45c-0.206,0.66-0.226,1.428-0.032,2.254
								c0.511,2.184,2.51,4.727,5.343,5.36c0.426,0.095,0.843,0.14,1.252,0.14c1.969,0,3.773-1.03,5.5-2.4
								c-0.802,2.216-3.391,5.634-6.591,5.59c-2.256-0.031-4.125-2.422-4.747-4.467c-0.072-0.242-0.108-0.465-0.146-0.689
								c-0.422-0.521-0.78-1.067-1.061-1.629c-0.188,0.752-0.148,1.655,0.15,2.639c0.747,2.459,2.954,5.049,5.725,5.248
								c0.142,0.01,0.281,0.015,0.419,0.015c1.31,0,2.427-0.454,3.411-1.179c-0.323,0.624-1.207,1.487-2.115,2.146
								c-0.539,0.363-1.114,0.608-1.739,0.681c-1.852,0.218-3.352-1.033-4.117-2.43c-0.654-0.6-1.222-1.297-1.679-2.042
								c0,0.614,0.133,1.278,0.408,1.953c0.771,1.876,2.57,3.649,4.947,3.649c0.187,0,0.375-0.011,0.569-0.033
								c0.602-0.07,1.156-0.262,1.674-0.531c-0.738,0.947-1.51,1.578-2.333,1.641c-0.499,0.038-0.909-0.037-1.258-0.17
								c-1.018-0.242-1.896-0.729-2.616-1.353c0.013,0.035,0.019,0.072,0.031,0.106c0.63,1.625,1.919,2.532,3.569,2.532
								c0.117,0,0.236-0.005,0.358-0.015c2.588-0.197,4.28-3.699,6.158-7.364c3.01-5.88,5.003-7.895,5.582-8.397
								C29.461,36.783,29.485,36.436,29.286,36.204z"/>
						</g>
					</g>
					<g id="XMLID_2986_">
						<g id="XMLID_2987_">
							<g id="XMLID_2988_">
								<path id="XMLID_2989_" fill="#37474F" d="M29.202,32.824c-0.67,0.494-0.42,0.146-1.162,0.496
									c-2.867,2.541-6.539,5.666-8.799,5.082c-2.562-0.658-4.608-2.852-5.106-4.59c-0.109-0.389-0.173-0.884-0.025-1.327
									c-0.004-0.003-0.007-0.005-0.009-0.007c-0.294-0.296-0.529-0.607-0.738-0.926c-0.456,0.681-0.574,1.566-0.288,2.563
									c0.575,2.01,2.835,4.57,5.893,5.357c0.333,0.085,0.666,0.125,1.002,0.125c2.562,0,5.209-2.346,7.993-4.813
									c0.422-0.373,0.845-0.748,1.269-1.116c0.23-0.2,0.255-0.549,0.056-0.779C29.262,32.862,29.23,32.848,29.202,32.824z"/>
							</g>
						</g>
					</g>
					<g id="XMLID_2982_">
						<g id="XMLID_2983_">
							<g id="XMLID_2984_">
								<path id="XMLID_2985_" fill="#37474F" d="M29.036,30.094c-4.404,4.289-10.859,3.355-13.368,0.828
									c-0.617-0.625-1.427-1.836-0.342-3.144c-0.197-0.157-0.393-0.315-0.554-0.483c-0.091-0.094-0.162-0.192-0.242-0.289
									c-1.24,1.43-1.124,3.203,0.354,4.693c1.473,1.484,4.028,2.497,6.838,2.497c2.709,0,5.652-0.942,8.084-3.312
									c0.218-0.212,0.223-0.562,0.011-0.78C29.604,29.885,29.254,29.882,29.036,30.094z"/>
							</g>
						</g>
					</g>
					<g id="XMLID_2978_">
						<g id="XMLID_2979_">
							<g id="XMLID_2980_">
								<path id="XMLID_2981_" fill="#37474F" d="M29.111,26.718c-3.698,2.498-10.648,1.226-12.748-0.954
									c-0.72-0.748-0.493-1.258-0.26-1.576c0.189-0.26,0.44-0.484,0.716-0.695c-0.145-0.109-0.302-0.215-0.426-0.333
									c-0.142-0.138-0.268-0.28-0.382-0.428c-0.303,0.245-0.582,0.506-0.8,0.804c-0.693,0.947-0.564,2.039,0.356,2.994
									c1.443,1.499,4.871,2.652,8.282,2.652c2.129,0,4.253-0.45,5.879-1.548c0.254-0.171,0.32-0.515,0.149-0.767
									C29.708,26.613,29.365,26.548,29.111,26.718z"/>
							</g>
						</g>
					</g>
					<g id="XMLID_2974_">
						<g id="XMLID_2975_">
							<g id="XMLID_2976_">
								<path id="XMLID_2977_" fill="#37474F" d="M28.524,22.877c-1.698,1.354-8.731,0.483-10.601-1.311
									c-0.555-0.533-0.406-0.913-0.164-1.246c0.295-0.401,0.676-0.738,1.11-1.025c-0.286-0.266-0.502-0.557-0.664-0.87
									c-0.519,0.347-0.979,0.755-1.337,1.243c-0.66,0.901-0.554,1.884,0.291,2.695c1.456,1.398,5.11,2.26,8.111,2.26
									c1.693,0,3.179-0.273,3.941-0.882c0.238-0.19,0.278-0.538,0.088-0.776S28.764,22.687,28.524,22.877z"/>
							</g>
						</g>
					</g>
					<g id="XMLID_2970_">
						<g id="XMLID_2971_">
							<g id="XMLID_2972_">
								<path id="XMLID_2973_" fill="#37474F" d="M28.499,19.031c-0.89,0.333-7.07,0.02-8.258-1.479
									c-0.105-0.133-0.323-0.408,0.153-1.013c0.394-0.498,0.894-0.922,1.446-1.281c-0.159-0.351-0.248-0.728-0.264-1.123
									c-0.795,0.465-1.51,1.037-2.049,1.721c-0.668,0.846-0.589,1.535-0.404,1.967c0.7,1.627,4.05,2.166,5.985,2.343
									c0.544,0.05,1.243,0.099,1.92,0.099c1.045,0,2.033-0.115,2.3-0.515c0.168-0.255,0.1-0.597-0.154-0.767
									C28.961,18.841,28.682,18.867,28.499,19.031z"/>
							</g>
						</g>
					</g>
					<g id="XMLID_2966_">
						<g id="XMLID_2967_">
							<g id="XMLID_2968_">
								<path id="XMLID_2969_" fill="#37474F" d="M26.994,16.526c-1.03,0-2.172-0.194-2.961-0.587
									c-1.176-0.585-1.617-1.588-1.209-2.755c0.346-0.993,1.504-1.979,2.814-2.397c1.283-0.411,2.543-0.242,3.551,0.473
									c0.248,0.176,0.306,0.52,0.13,0.77c-0.177,0.248-0.521,0.307-0.77,0.131c-0.918-0.651-1.906-0.533-2.575-0.322
									c-1.105,0.354-1.911,1.145-2.108,1.711c-0.18,0.518-0.083,0.885,0.315,1.191c1.144,0.879,3.871,0.746,4.285,0.466
									c0.169-0.253,0.483-0.292,0.737-0.122s0.293,0.545,0.125,0.799C29.044,16.309,28.081,16.526,26.994,16.526z"/>
							</g>
						</g>
					</g>
				</g>
				<g id="XMLID_2956_">
					<g id="XMLID_2962_">
						<g id="XMLID_2963_">
							<path id="XMLID_2964_" fill="#FFFFFF" d="M30.215,39.393c-1.656,0-1.989-0.514-1.989-1.342c0-0.4,0.099-0.785,0.293-1.143
								c0.081-0.148,0.081-0.328,0-0.477c-0.194-0.359-0.293-0.743-0.293-1.143c0-0.315,0.061-0.624,0.18-0.918
								c0.048-0.12,0.048-0.254,0-0.375c-0.119-0.295-0.18-0.604-0.18-0.917c0-0.454,0.121-0.892,0.351-1.263
								c0.091-0.147,0.099-0.332,0.021-0.486c-0.162-0.324-0.245-0.665-0.245-1.013c0-0.397,0.104-0.788,0.303-1.13
								c0.09-0.155,0.09-0.346,0-0.501c-0.198-0.343-0.303-0.734-0.303-1.132c0-0.461,0.139-0.904,0.402-1.278
								c0.108-0.155,0.121-0.356,0.031-0.523c-0.162-0.304-0.245-0.627-0.245-0.959c0-0.397,0.113-0.78,0.327-1.106
								c0.109-0.167,0.109-0.383,0-0.549c-0.214-0.326-0.327-0.709-0.327-1.107c0-0.397,0.113-0.779,0.327-1.105
								c0.109-0.167,0.109-0.383,0-0.549c-0.214-0.326-0.327-0.709-0.327-1.107c0-0.397,0.113-0.779,0.327-1.105
								c0.109-0.167,0.109-0.383,0-0.549c-0.214-0.326-0.327-0.709-0.327-1.107c0-1.037,0.751-1.882,1.675-1.882
								s1.675,0.845,1.675,1.882c0,0.397-0.113,0.781-0.326,1.108c-0.108,0.166-0.108,0.38,0,0.546
								c0.214,0.328,0.326,0.711,0.326,1.107c0,0.397-0.112,0.781-0.326,1.108c-0.108,0.166-0.108,0.38,0,0.546
								c0.214,0.328,0.326,0.711,0.326,1.107c0,0.397-0.113,0.781-0.326,1.108c-0.108,0.166-0.108,0.38,0,0.546
								c0.213,0.328,0.326,0.711,0.326,1.108c0,0.335-0.082,0.657-0.244,0.958c-0.089,0.166-0.077,0.368,0.03,0.523
								c0.264,0.377,0.403,0.82,0.403,1.279c0,0.397-0.104,0.789-0.303,1.132c-0.09,0.155-0.09,0.346,0,0.501
								c0.198,0.342,0.303,0.732,0.303,1.13c0,0.348-0.083,0.688-0.245,1.013c-0.078,0.154-0.07,0.34,0.021,0.487
								c0.229,0.37,0.351,0.807,0.351,1.262c0,0.313-0.061,0.621-0.181,0.916c-0.05,0.121-0.05,0.257,0,0.377
								c0.12,0.294,0.181,0.603,0.181,0.917c0,0.396-0.099,0.781-0.294,1.143c-0.081,0.148-0.081,0.328,0,0.477
								c0.195,0.359,0.294,0.744,0.294,1.143C32.206,38.879,31.873,39.393,30.215,39.393z"/>
						</g>
					</g>
					<g id="XMLID_2957_">
						<g id="XMLID_2958_">
							<path id="XMLID_2959_" fill="#37474F" d="M30.215,15.126c0.647,0,1.175,0.62,1.175,1.382c0,0.301-0.085,0.59-0.245,0.836
								c-0.216,0.332-0.216,0.76,0,1.092c0.16,0.246,0.245,0.534,0.245,0.834c0,0.301-0.085,0.59-0.245,0.836
								c-0.216,0.332-0.216,0.76,0,1.092c0.16,0.246,0.245,0.534,0.245,0.834c0,0.301-0.085,0.59-0.245,0.836
								c-0.216,0.332-0.216,0.76,0,1.091c0.16,0.247,0.245,0.536,0.245,0.836c0,0.251-0.062,0.493-0.185,0.721
								c-0.179,0.333-0.155,0.737,0.061,1.046c0.205,0.294,0.313,0.638,0.313,0.994c0,0.31-0.082,0.614-0.236,0.881
								c-0.179,0.311-0.179,0.692,0.001,1.002c0.154,0.266,0.235,0.57,0.235,0.88c0,0.269-0.064,0.534-0.192,0.788
								c-0.156,0.311-0.14,0.68,0.043,0.976c0.181,0.291,0.276,0.636,0.276,0.998c0,0.248-0.049,0.493-0.144,0.728
								c-0.099,0.242-0.099,0.513,0,0.754c0.095,0.234,0.144,0.479,0.144,0.729c0,0.313-0.079,0.617-0.234,0.905
								c-0.16,0.297-0.16,0.654,0.001,0.951c0.154,0.286,0.233,0.591,0.233,0.905c0,0.434,0,0.842-1.491,0.842
								c-1.489,0-1.489-0.408-1.489-0.842c0-0.316,0.078-0.621,0.232-0.903c0.161-0.298,0.161-0.657,0-0.955
								c-0.154-0.284-0.232-0.589-0.232-0.903c0-0.25,0.048-0.496,0.143-0.73c0.098-0.24,0.098-0.51,0-0.75
								c-0.095-0.234-0.143-0.48-0.143-0.729c0-0.362,0.096-0.708,0.275-0.999c0.183-0.296,0.199-0.665,0.043-0.975
								c-0.128-0.254-0.192-0.52-0.192-0.788c0-0.31,0.081-0.614,0.235-0.88c0.18-0.31,0.18-0.691,0.001-1.002
								c-0.154-0.267-0.236-0.571-0.236-0.881c0-0.358,0.107-0.701,0.312-0.991c0.217-0.31,0.241-0.714,0.063-1.047
								c-0.124-0.23-0.187-0.474-0.187-0.723c0-0.3,0.085-0.589,0.245-0.833c0.219-0.333,0.219-0.764,0-1.097
								c-0.16-0.245-0.245-0.532-0.245-0.833c0-0.3,0.085-0.588,0.245-0.832c0.219-0.332,0.219-0.764,0-1.098
								c-0.16-0.244-0.245-0.531-0.245-0.832c0-0.3,0.085-0.588,0.245-0.832c0.219-0.332,0.219-0.764,0-1.097
								c-0.16-0.245-0.245-0.532-0.245-0.833C29.04,15.746,29.567,15.126,30.215,15.126L30.215,15.126z M30.215,14.126
								c-1.201,0-2.175,1.067-2.175,2.382c0,0.516,0.153,0.991,0.409,1.381c-0.256,0.391-0.409,0.865-0.409,1.381
								c0,0.517,0.153,0.992,0.409,1.381c-0.256,0.391-0.409,0.865-0.409,1.381c0,0.517,0.153,0.991,0.409,1.381
								c-0.256,0.391-0.409,0.865-0.409,1.382c0,0.438,0.116,0.843,0.305,1.194c-0.307,0.438-0.493,0.977-0.493,1.566
								c0,0.51,0.139,0.981,0.37,1.382c-0.231,0.399-0.37,0.871-0.37,1.381c0,0.45,0.113,0.868,0.299,1.237
								c-0.269,0.435-0.425,0.959-0.425,1.524c0,0.394,0.079,0.767,0.216,1.104c-0.137,0.338-0.216,0.711-0.216,1.105
								c0,0.506,0.133,0.974,0.354,1.381c-0.221,0.405-0.354,0.875-0.354,1.381c0,1.506,1.115,1.842,2.489,1.842
								c1.376,0,2.491-0.336,2.491-1.842c0-0.506-0.135-0.976-0.354-1.381c0.22-0.407,0.354-0.875,0.354-1.381
								c0-0.395-0.08-0.768-0.218-1.105c0.138-0.338,0.218-0.711,0.218-1.104c0-0.565-0.156-1.09-0.426-1.524
								c0.186-0.369,0.299-0.787,0.299-1.237c0-0.51-0.139-0.981-0.37-1.381c0.231-0.4,0.37-0.872,0.37-1.382
								c0-0.59-0.188-1.129-0.493-1.566c0.189-0.352,0.304-0.757,0.304-1.194c0-0.517-0.153-0.991-0.407-1.382
								c0.254-0.39,0.407-0.864,0.407-1.381c0-0.516-0.153-0.99-0.407-1.381c0.254-0.389,0.407-0.864,0.407-1.381
								c0-0.516-0.153-0.99-0.407-1.381c0.254-0.39,0.407-0.865,0.407-1.381C32.39,15.193,31.417,14.126,30.215,14.126
								L30.215,14.126z"/>
						</g>
					</g>
				</g>
				<g id="XMLID_2949_">
					<g id="XMLID_2954_">
						<path id="XMLID_2955_" fill="#FFFFFF" d="M32.538,49.112c0,1.11-1.04,2.01-2.323,2.01c-1.282,0-2.322-0.899-2.322-2.01
							c0-1.111,1.04-0.429,2.322-0.429C31.498,48.684,32.538,48.001,32.538,49.112z"/>
					</g>
					<g id="XMLID_2950_">
						<path id="XMLID_2951_" fill="#37474F" d="M30.215,51.622c-1.557,0-2.822-1.126-2.822-2.51c0-0.722,0.385-1.136,1.057-1.136
							c0.21,0,0.466,0.041,0.752,0.091c0.619,0.108,1.41,0.108,2.027,0c0.287-0.05,0.543-0.091,0.753-0.091
							c0.672,0,1.057,0.414,1.057,1.136C33.038,50.496,31.771,51.622,30.215,51.622z M28.427,48.963
							c-0.022,0-0.034,0.049-0.034,0.149c0,0.833,0.817,1.51,1.822,1.51s1.823-0.677,1.823-1.51c0-0.131-0.021-0.175-0.021-0.175
							c-0.198,0.039-0.395,0.076-0.616,0.115c-0.664,0.116-1.71,0.116-2.372,0c-0.222-0.039-0.418-0.076-0.58-0.076
							C28.44,48.967,28.434,48.963,28.427,48.963z"/>
					</g>
				</g>
				<g id="XMLID_2942_">
					<g id="XMLID_2947_">
						<path id="XMLID_2948_" fill="#FFFFFF" d="M32.333,45.381c0,1.013-0.949,1.832-2.118,1.832s-2.116-0.819-2.116-1.832
							s0.947-0.391,2.116-0.391S32.333,44.368,32.333,45.381z"/>
					</g>
					<g id="XMLID_2943_">
						<path id="XMLID_2944_" fill="#37474F" d="M30.215,47.713c-1.442,0-2.616-1.047-2.616-2.332c0-0.687,0.367-1.08,1.007-1.08
							c0.193,0,0.429,0.038,0.693,0.084c0.559,0.098,1.273,0.098,1.832,0c0.265-0.046,0.5-0.084,0.694-0.084
							c0.641,0,1.008,0.394,1.008,1.08C32.833,46.666,31.658,47.713,30.215,47.713z M28.603,45.301
							c-0.002,0.021-0.004,0.047-0.004,0.08c0,0.734,0.725,1.332,1.616,1.332c0.893,0,1.618-0.598,1.618-1.332
							c0-0.03-0.001-0.055-0.003-0.075c-0.187,0.003-0.348,0.033-0.526,0.064c-0.609,0.106-1.568,0.106-2.178,0
							C28.926,45.335,28.755,45.296,28.603,45.301z"/>
					</g>
				</g>
				<g id="XMLID_2935_">
					<g id="XMLID_2940_">
						<path id="XMLID_2941_" fill="#FFFFFF" d="M32.333,41.596c0,1.012-0.949,1.832-2.118,1.832s-2.116-0.82-2.116-1.832
							s0.947-0.391,2.116-0.391S32.333,40.584,32.333,41.596z"/>
					</g>
					<g id="XMLID_2936_">
						<path id="XMLID_2937_" fill="#37474F" d="M30.215,43.928c-1.442,0-2.616-1.047-2.616-2.332c0-0.686,0.367-1.08,1.007-1.08
							c0.193,0,0.429,0.039,0.693,0.085c0.559,0.098,1.273,0.098,1.832,0c0.265-0.046,0.501-0.085,0.694-0.085
							c0.641,0,1.008,0.395,1.008,1.08C32.833,42.881,31.658,43.928,30.215,43.928z M28.603,41.516
							c-0.002,0.021-0.004,0.047-0.004,0.08c0,0.734,0.725,1.332,1.616,1.332c0.893,0,1.618-0.598,1.618-1.332
							c0-0.03-0.001-0.055-0.003-0.074c-0.187,0.002-0.348,0.033-0.526,0.064c-0.607,0.105-1.57,0.105-2.178,0
							C28.925,41.551,28.755,41.487,28.603,41.516z"/>
					</g>
				</g>
			</g>
		</g>
		<g id="XMLID_2930_">
			<g id="XMLID_2931_">
				<rect id="XMLID_2932_" x="7" y="16" fill="#37474F" width="3" height="1"/>
			</g>
		</g>
		<g id="XMLID_2927_">
			<g id="XMLID_2928_">
				<rect id="XMLID_2929_" x="7" y="13" fill="#37474F" width="5" height="1"/>
			</g>
		</g>
		<g id="XMLID_2924_">
			<g id="XMLID_2925_">
				<rect id="XMLID_2926_" x="27" y="55" fill="#37474F" width="6" height="1"/>
			</g>
		</g>
		<g id="XMLID_2921_">
			<g id="XMLID_2922_">
				<rect id="XMLID_2923_" x="6" y="7" fill="#FFFFFF" width="1" height="50"/>
			</g>
		</g>
		<g id="XMLID_2918_">
			<g id="XMLID_2919_">
				<rect id="XMLID_2920_" x="7" y="7" fill="#FFFFFF" width="47" height="1"/>
			</g>
		</g>
	</g>
	<g id="XMLID_2915_">
		<path id="XMLID_2917_" fill="#37474F" d="M6,57V7h48v35.349c0.348,0.202,0.68,0.425,1,0.665V6H5v52h36.864
			c-0.307-0.313-0.587-0.649-0.851-1H6z"/>
		<path id="XMLID_2916_" fill="#37474F" d="M38.716,46.609c0.325,0.24,0.673,0.437,1.029,0.61c0.149-0.367,0.319-0.724,0.511-1.066
			c-2.144-1.033-3.773-3.396-4.379-5.071c1.726,1.37,3.53,2.4,5.498,2.4c0.389,0,0.783-0.044,1.188-0.129
			c0.973-0.82,2.104-1.457,3.342-1.859c1.057-1.036,1.789-2.322,2.067-3.512c0.192-0.826,0.172-1.594-0.032-2.254
			c-0.261,0.488-0.568,0.977-0.954,1.45c-0.02,0.206-0.054,0.396-0.09,0.552c-0.422,1.804-2.146,4.006-4.51,4.535
			c-3.017,0.67-5.836-1.934-8.555-4.455c-0.613-0.566-1.222-1.133-1.832-1.662c-0.231-0.199-0.58-0.175-0.781,0.056
			c-0.199,0.231-0.174,0.579,0.056,0.778c0.58,0.503,2.573,2.518,5.585,8.397c0.76,1.483,1.489,2.936,2.261,4.157
			c0.094-0.639,0.246-1.257,0.455-1.85C39.19,47.305,38.88,46.927,38.716,46.609z"/>
	</g>
	<circle id="XMLID_2914_" fill="#B2FF59" cx="49" cy="51" r="8.5"/>
	<path id="XMLID_2913_" fill="#37474F" d="M49,60c-4.963,0-9-4.037-9-9s4.037-9,9-9c2.066,0,4.085,0.718,5.684,2.021l-0.633,0.775
		C52.631,43.638,50.837,43,49,43c-4.411,0-8,3.589-8,8s3.589,8,8,8s8-3.589,8-8c0-1.763-0.563-3.434-1.625-4.834l0.796-0.605
		C57.367,47.137,58,49.018,58,51C58,55.963,53.963,60,49,60z"/>
	<polygon id="XMLID_2912_" fill="#37474F" points="49.006,54.775 44.309,49.302 45.066,48.65 48.994,53.225 58.24,42.107 
		59.01,42.748 	"/>
</g>
</svg>
