<?xml version="1.0" encoding="utf-8"?>
<!-- Generator: Adobe Illustrator 16.0.0, SVG Export Plug-In . SVG Version: 6.00 Build 0)  -->
<!DOCTYPE svg PUBLIC "-//W3C//DTD SVG 1.1//EN" "http://www.w3.org/Graphics/SVG/1.1/DTD/svg11.dtd">
<svg version="1.1" id="_x3C_Layer_x3E_" xmlns="http://www.w3.org/2000/svg" xmlns:xlink="http://www.w3.org/1999/xlink" x="0px"
	 y="0px" width="64px" height="64px" viewBox="0 0 64 64" enable-background="new 0 0 64 64" xml:space="preserve">
<g id="Cough_x2C__coughing_x2C__flu_x2C__infection_x2C__sick_1_">
	<g id="fever_x2C__sick_6_">
		<g id="XMLID_2694_">
			<g id="creative_idea_9_">
				<g id="Public_Relations_9_">
					<path id="XMLID_2701_" fill="#FFFFFF" d="M47.524,37.668l-4.19-9.648l0.43-3.323c0.71-9.713-7.163-18.459-18.141-19.026
						C15.654,5.155,6.377,11.648,5.561,22.822c-0.596,8.152,2.875,14.167,5.131,18.19C12.315,43.914,8.896,56.543,8.377,59h21.327
						l0.762-6.63l5.549,0.992c1.53,0.275,2.994-0.743,3.269-2.274l0.899-4.548l-4.779-2.189l5.478-1.347l0.814-4.12l4.235,0.31
						C46.953,39.269,47.942,38.605,47.524,37.668z"/>
					<path id="XMLID_2700_" fill="#FFE0B2" d="M43.334,28.02l0.43-3.323c0.225-3.075-0.415-6.051-1.737-8.703
						C38.91,11.082,33.31,7.59,26.511,7.239C16.542,6.724,7.265,13.217,6.448,24.391c-0.596,8.152,2.876,14.167,5.131,18.19
						C12.98,45.083,10.471,54.945,9.681,59h20.023l1.3-6.462l5.011,0.824c1.53,0.275,2.994-0.743,3.269-2.274l0.899-4.549
						l-4.779-2.188l6.449-1.597l-0.157-3.87l4.235,0.31c1.022,0.075,2.012-0.588,1.594-1.525L43.334,28.02z"/>
					<polygon id="XMLID_2699_" fill="#E6CAA0" points="21.833,50.514 29.957,57.742 31.004,52.538 					"/>
					
						<rect id="XMLID_2698_" x="29.658" y="54.109" transform="matrix(0.9828 0.1846 -0.1846 0.9828 10.9694 -4.5952)" fill="#37474F" width="1" height="4.983"/>
					<path id="XMLID_2697_" fill="#37474F" d="M8.856,59.153l-0.979-0.207c0.073-0.347,0.21-0.915,0.385-1.643
						c0.9-3.753,3.293-13.724,1.992-16.046l-0.123-0.219c-2.256-4.021-5.666-10.097-5.07-18.252
						c0.381-5.218,2.662-9.882,6.423-13.132c3.796-3.281,8.834-4.875,14.175-4.482c12.105,0.885,19.407,8.563,18.604,19.562
						l-0.416,3.219l4.015,9.746c0.183,0.5,0.103,1.029-0.206,1.437c-0.307,0.407-0.785,0.635-1.306,0.591l-4.206-0.307
						c-0.048,0.773-0.09,2.307,0.227,3.338l-0.384,0.638l-5.763,1.094l4.541,1.543l0.18,0.839c-0.591,0.55-0.934,1.776-0.991,3.544
						c-0.035,1.039-0.515,2.006-1.316,2.653c-0.787,0.636-1.809,0.895-2.806,0.716l-5.332-0.961l0.178-0.984l5.332,0.961
						c0.721,0.132,1.432-0.05,2-0.51c0.575-0.464,0.92-1.16,0.944-1.908c0.053-1.6,0.328-2.816,0.82-3.631l-5.668-1.927l0.067-0.965
						l7.108-1.35c-0.312-1.58-0.104-3.586-0.094-3.681l0.533-0.445l4.701,0.344c0.181,0.012,0.332-0.06,0.437-0.197
						c0.104-0.138,0.13-0.31,0.071-0.472l-4.058-9.849l-0.034-0.254l0.43-3.323c0.602-8.243-3.725-17.444-17.681-18.464
						c-5.092-0.371-9.856,1.135-13.448,4.241C8.58,13.486,6.421,17.907,6.06,22.859c-0.574,7.855,2.747,13.773,4.944,17.69
						l0.124,0.219c1.314,2.347-0.22,9.793-1.894,16.768C9.063,58.252,8.929,58.812,8.856,59.153z"/>
				</g>
				<path id="XMLID_2696_" fill="#37474F" d="M32.062,53.113l-8.466-1.616c-2.971-0.542-4.956-3.405-4.423-6.382l0.091-0.506
					l0.984,0.177l-0.091,0.506c-0.437,2.436,1.188,4.778,3.622,5.222l8.47,1.617L32.062,53.113z"/>
			</g>
			<polygon id="XMLID_2695_" fill="#37474F" points="40.882,29.293 36.394,28.965 36.466,27.968 38.999,28.153 35.381,25.822 
				35.922,24.981 41.188,28.375 			"/>
		</g>
	</g>
	<g id="XMLID_2691_">
		<path id="XMLID_2693_" fill="#CFD8DC" d="M55.5,40.417L47.333,43L55.5,40.417z"/>
		
			<rect id="XMLID_2692_" x="50.917" y="37.425" transform="matrix(0.3009 0.9536 -0.9536 0.3009 75.7177 -19.8765)" fill="#37474F" width="0.999" height="8.566"/>
	</g>
	<g id="XMLID_2688_">
		<path id="XMLID_2690_" fill="#CFD8DC" d="M55.553,50.259l-7.459-2.843L55.553,50.259z"/>
		
			<rect id="XMLID_2689_" x="47.832" y="48.338" transform="matrix(0.9344 0.3561 -0.3561 0.9344 20.7905 -15.2539)" fill="#37474F" width="7.982" height="1"/>
	</g>
	<g id="XMLID_2685_">
		<path id="XMLID_2687_" fill="#CFD8DC" d="M50.333,57.742l-6.083-7.234L50.333,57.742z"/>
		
			<rect id="XMLID_2686_" x="42.566" y="53.625" transform="matrix(0.6436 0.7654 -0.7654 0.6436 58.2799 -16.905)" fill="#37474F" width="9.452" height="1"/>
	</g>
	<rect id="XMLID_2684_" x="52" y="44" fill="#37474F" width="1" height="1"/>
	<rect id="XMLID_2683_" x="52" y="59" fill="#37474F" width="1" height="1"/>
	<rect id="XMLID_2682_" x="54" y="55" fill="#37474F" width="1" height="1"/>
	<rect id="XMLID_2681_" x="55" y="57" fill="#37474F" width="1" height="1"/>
	<rect id="XMLID_2680_" x="57" y="51" fill="#37474F" width="1" height="1"/>
	<rect id="XMLID_2679_" x="57" y="42" fill="#37474F" width="1" height="1"/>
	<rect id="XMLID_2678_" x="54" y="45" fill="#37474F" width="1" height="1"/>
</g>
</svg>
