<?xml version="1.0" encoding="utf-8"?>
<!-- Generator: Adobe Illustrator 16.0.0, SVG Export Plug-In . SVG Version: 6.00 Build 0)  -->
<!DOCTYPE svg PUBLIC "-//W3C//DTD SVG 1.1//EN" "http://www.w3.org/Graphics/SVG/1.1/DTD/svg11.dtd">
<svg version="1.1" id="_x3C_Layer_x3E_" xmlns="http://www.w3.org/2000/svg" xmlns:xlink="http://www.w3.org/1999/xlink" x="0px"
	 y="0px" width="64px" height="64px" viewBox="0 0 64 64" enable-background="new 0 0 64 64" xml:space="preserve">
<g id="emergency_helicopter">
	<g>
		<path fill="#ECEFF1" d="M37.5,15.5c0-3.313-2.687-6-6-6c-1.691,0-3.409,0.375-4.5,1.5c-0.947-3.361-3.835-5.5-7.5-5.5
			c-4.268,0-7.744,3.344-7.978,7.553C11.35,13.03,11.179,13,11,13c-2.209,0-4,1.791-4,4s1.791,4,4,4v1c0,0,14,0,19,0
			S37.5,19,37.5,15.5z"/>
	</g>
	<g>
		<path fill="#ECEFF1" d="M53,14c-0.922,0-1.259-0.435-2,0c-0.157-3.449-3.511-5.5-7-5.5c-3.59,0-6.5,2.911-6.5,6.5
			c0,0.017,0.002,0.034,0.003,0.051C37.335,15.034,34,16,34,20c0,2.761,2.238,5,5,5c0.343,0,14,0,14,0v-1c2.761,0,5-2.239,5-5
			S55.761,14,53,14z"/>
	</g>
	<g>
		<g>
			<g>
				<g>
					<path fill="#37474F" d="M54,57H33c-0.276,0-0.5-0.224-0.5-0.5S32.724,56,33,56h21c1.919,0,3.732,0,4.584-1.277
						c0.152-0.23,0.463-0.292,0.693-0.139c0.23,0.153,0.292,0.463,0.139,0.693C58.268,57,56.098,57,54,57z"/>
				</g>
			</g>
			<g>
				<g>
					<path fill="#37474F" d="M55,56.5c-0.276,0-0.5-0.224-0.5-0.5c0-2.645-1.684-3.5-2.5-3.5c-0.276,0-0.5-0.224-0.5-0.5
						s0.224-0.5,0.5-0.5c1.142,0,3.5,1.1,3.5,4.5C55.5,56.276,55.276,56.5,55,56.5z"/>
				</g>
			</g>
			<g>
				<g>
					<path fill="#37474F" d="M37,56.5c-0.276,0-0.5-0.224-0.5-0.5c0-3.4,2.358-4.5,3.5-4.5c0.276,0,0.5,0.224,0.5,0.5
						s-0.224,0.5-0.5,0.5c-0.816,0-2.5,0.855-2.5,3.5C37.5,56.276,37.276,56.5,37,56.5z"/>
				</g>
			</g>
		</g>
		<g>
			<g>
				<g>
					<path fill="#ECEFF1" d="M35.5,33.5c0,0.55-0.45,1-1,1h-2c-0.55,0-1-0.45-1-1v-1c0-0.55,0.45-1,1-1h2c0.55,0,1,0.45,1,1V33.5z"
						/>
				</g>
			</g>
			<g>
				<g>
					<path fill="#37474F" d="M34.5,35h-2c-0.827,0-1.5-0.673-1.5-1.5v-1c0-0.827,0.673-1.5,1.5-1.5h2c0.827,0,1.5,0.673,1.5,1.5v1
						C36,34.327,35.327,35,34.5,35z M32.5,32c-0.276,0-0.5,0.224-0.5,0.5v1c0,0.276,0.224,0.5,0.5,0.5h2c0.276,0,0.5-0.224,0.5-0.5
						v-1c0-0.276-0.224-0.5-0.5-0.5H32.5z"/>
				</g>
			</g>
		</g>
		<g>
			<g>
				<path fill="#ECEFF1" d="M32.5,34c-1.839,0-3.195,0-3.846,2H7v2.5l22.057,2.617l5.182,8.252C35.418,51.236,38.291,52,40.5,52h14
					c2.209,0,4-0.791,4-3c0-8.284-7.5-15-17-15H32.5z"/>
			</g>
			<g>
				<path fill="#FF5252" d="M54.5,54c0.276,0,0.546-0.028,0.807-0.082C55.044,53.966,54.776,54,54.5,54z"/>
			</g>
			<g>
				<g>
					<path fill="#FF5252" d="M41.5,35h-9c-1.577,0-2.817,0.632-3.404,1.735L28.955,37h-0.3H8v1.057l21.603,2.592l5.184,8.203
						C35.882,50.588,38.446,52,40.5,52h14c1.93,0,3.5-1.57,3.5-3.5c0-2.53-0.745-4.909-2.047-6.981C52.703,37.596,47.243,35,41.5,35
						z"/>
				</g>
			</g>
			<g>
				<path fill="#37474F" d="M54.5,53h-14c-2.398,0-5.279-1.587-6.56-3.614l-4.93-7.801L7,38.943V35h21.367
					c0.811-1.275,2.298-2,4.133-2h9C51.149,33,59,39.953,59,48.5C59,50.981,56.981,53,54.5,53z M8,38.057l21.603,2.592l5.184,8.203
					C35.882,50.588,38.446,52,40.5,52h14c1.93,0,3.5-1.57,3.5-3.5C58,40.505,50.598,34,41.5,34h-9c-1.577,0-2.817,0.632-3.404,1.735
					L28.955,36H8V38.057z"/>
			</g>
		</g>
		<g>
			<g>
				<circle fill="#ECEFF1" cx="9" cy="37" r="4"/>
			</g>
			<g>
				<path fill="#FFFFFF" d="M6.171,39.829L9,37l2.829,2.829C10.267,41.391,7.733,41.39,6.171,39.829z"/>
			</g>
			<g>
				<path fill="#FFFFFF" d="M11.829,34.171L9,37l-2.829-2.829C7.733,32.609,10.267,32.61,11.829,34.171z"/>
			</g>
			<g>
				<path fill="#37474F" d="M9,41.5c-2.481,0-4.5-2.019-4.5-4.5s2.019-4.5,4.5-4.5s4.5,2.019,4.5,4.5S11.481,41.5,9,41.5z M9,33.5
					c-1.93,0-3.5,1.57-3.5,3.5s1.57,3.5,3.5,3.5s3.5-1.57,3.5-3.5S10.93,33.5,9,33.5z"/>
			</g>
		</g>
		<g>
			<g>
				<circle fill="#37474F" cx="9" cy="37" r="1"/>
			</g>
		</g>
		<g>
			<g>
				<rect x="8" y="29" fill="#37474F" width="51" height="1"/>
			</g>
		</g>
		<g>
			<g>
				<path fill="#FFFFFF" d="M49.5,47h8.834c-1.096-8-8.113-13-16.834-13h-0.333l3.068,9.205C44.934,45.301,47.291,47,49.5,47z"/>
			</g>
			<g>
				<g>
					<path fill="#84FFFF" d="M57.497,46c-1.712-6.223-7.773-10.654-15.157-10.97c-0.046-0.002-0.092-0.003-0.137-0.005l2.507,7.521
						C45.344,44.451,47.493,46,49.5,46H57.497z"/>
				</g>
			</g>
			<g>
				<path fill="#37474F" d="M58.914,47H49.5c-2.404,0-4.979-1.856-5.739-4.137L40.473,33H41.5c8.879,0,16.167,5.646,17.329,13.426
					L58.914,47z M41.862,34.003l2.848,8.543C45.344,44.451,47.493,46,49.5,46h8.241C56.407,39.115,49.856,34.149,41.862,34.003z"/>
			</g>
		</g>
		<g>
			<g>
				<circle fill="#FFFFFF" cx="36.5" cy="40.5" r="3.5"/>
			</g>
			<g>
				<path fill="#37474F" d="M36.5,44.5c-2.206,0-4-1.794-4-4s1.794-4,4-4s4,1.794,4,4S38.706,44.5,36.5,44.5z M36.5,37.5
					c-1.654,0-3,1.346-3,3s1.346,3,3,3s3-1.346,3-3S38.154,37.5,36.5,37.5z"/>
			</g>
		</g>
		<g>
			<g>
				<rect x="36" y="39" fill="#37474F" width="1" height="3"/>
			</g>
		</g>
		<g>
			<g>
				<rect x="35" y="40" fill="#37474F" width="3" height="1"/>
			</g>
		</g>
		<g>
			<g>
				<g>
					<path fill="#37474F" d="M36,30h-5v-0.5c0-1.378,1.122-2.5,2.5-2.5s2.5,1.122,2.5,2.5V30z M32.085,29h2.829
						c-0.207-0.582-0.763-1-1.415-1S32.292,28.418,32.085,29z"/>
				</g>
			</g>
		</g>
		<g>
			<g>
				<rect x="10" y="46" fill="#37474F" width="11" height="1"/>
			</g>
		</g>
		<g>
			<g>
				<rect x="18" y="49" fill="#37474F" width="8" height="1"/>
			</g>
		</g>
		<g>
			<g>
				<g>
					<rect x="19" y="21" fill="#37474F" width="4" height="1"/>
				</g>
			</g>
			<g>
				<g>
					<path fill="#37474F" d="M30.9,8.949c-1.217,0-2.396,0.287-3.445,0.881c-1.451-2.816-4.356-4.619-7.555-4.619
						c-4.438,0-8.122,3.453-8.47,7.817c-0.146-0.016-0.29-0.027-0.431-0.027c-2.481,0-4.5,2.017-4.5,4.499s2.019,4.499,4.5,4.499V22
						h7v-1h-7v-0.001c-1.93,0-3.5-1.57-3.5-3.5s1.57-3.5,3.5-3.5c0.246,0,0.506,0.032,0.791,0.099l0.606,0.142l0.007-0.623
						c0.045-4.09,3.407-7.417,7.496-7.417c2.992,0,5.695,1.776,6.884,4.525l0.24,0.556l0.501-0.341
						c0.998-0.68,2.164-0.99,3.375-0.99c3.309,0,6,3.051,6,6.051h1C37.9,12,34.76,8.949,30.9,8.949z"/>
				</g>
			</g>
			<g>
				<g>
					<path fill="#37474F" d="M58.882,19.04c0-3.287-2.674-5.96-5.961-5.96c-0.458,0-0.916,0.054-1.367,0.162
						c-0.735-3.243-3.664-5.623-7.034-5.623c-3.013,0-5.599,1.856-6.68,4.483c0.243,0.45,0.445,0.925,0.601,1.421
						c0.606-2.799,3.1-4.904,6.079-4.904c3.067,0,5.711,2.29,6.148,5.327l0.086,0.596l0.57-0.194
						c0.522-0.177,1.06-0.268,1.597-0.268c2.735,0,4.961,2.225,4.961,4.96c0,2.734-2.223,4.958-4.956,4.96H46v1h6.921l0,0
						c0.003,0,0.007,0,0.01,0H53v-0.003C56.25,24.954,58.882,22.3,58.882,19.04z"/>
				</g>
			</g>
		</g>
	</g>
	<g>
		<rect x="55" y="27" fill="#37474F" width="4" height="1"/>
	</g>
	<g>
		<rect x="8" y="27" fill="#37474F" width="4" height="1"/>
	</g>
</g>
</svg>
