<?xml version="1.0" encoding="utf-8"?>
<!-- Generator: Adobe Illustrator 16.0.0, SVG Export Plug-In . SVG Version: 6.00 Build 0)  -->
<!DOCTYPE svg PUBLIC "-//W3C//DTD SVG 1.1//EN" "http://www.w3.org/Graphics/SVG/1.1/DTD/svg11.dtd">
<svg version="1.1" id="_x3C_Layer_x3E_" xmlns="http://www.w3.org/2000/svg" xmlns:xlink="http://www.w3.org/1999/xlink" x="0px"
	 y="0px" width="64px" height="64px" viewBox="0 0 64 64" enable-background="new 0 0 64 64" xml:space="preserve">
<g id="Antivirus_x2C__injection_x2C__syringe_x2C__vaccine_x2C__medicine">
	<polygon id="XMLID_2804_" fill="#FFFFFF" points="23.5,46.5 11.5,46.5 11.5,18.5 16,17.5 19,17.5 23.5,18.5 	"/>
	<polygon id="XMLID_2803_" fill="#84FFFF" points="13,19 13,46.5 23.5,46.5 23.5,18.666 20.5,18 17.5,18 	"/>
	<rect id="XMLID_2802_" x="13" y="38.5" fill="#ECEFF1" width="10.5" height="8"/>
	<rect id="XMLID_2801_" x="17" y="38" fill="#37474F" width="6.5" height="1"/>
	<g id="XMLID_2788_">
		<g id="XMLID_2799_">
			<rect id="XMLID_2800_" x="11.5" y="22" fill="#37474F" width="3.5" height="1"/>
		</g>
		<g id="XMLID_2797_">
			<rect id="XMLID_2798_" x="11.5" y="26" fill="#37474F" width="3.5" height="1"/>
		</g>
		<g id="XMLID_2795_">
			<rect id="XMLID_2796_" x="11.5" y="30" fill="#37474F" width="3.5" height="1"/>
		</g>
		<g id="XMLID_2793_">
			<rect id="XMLID_2794_" x="11.5" y="34" fill="#37474F" width="3.5" height="1"/>
		</g>
		<g id="XMLID_2791_">
			<rect id="XMLID_2792_" x="11.5" y="42" fill="#37474F" width="3.5" height="1"/>
		</g>
		<g id="XMLID_2789_">
			<rect id="XMLID_2790_" x="11.5" y="38" fill="#37474F" width="3.5" height="1"/>
		</g>
	</g>
	<g id="XMLID_2783_">
		<polygon id="XMLID_2787_" fill="#84FFFF" points="19,17.5 16,17.5 16.5,12.5 18.5,12.5 		"/>
		<path id="XMLID_2784_" fill="#37474F" d="M19.552,18h-4.104l0.6-6h2.905L19.552,18z M16.553,17h1.895l-0.4-4h-1.095L16.553,17z"/>
	</g>
	<g id="XMLID_2778_">
		<path id="XMLID_2782_" fill="#FFFFFF" d="M24.5,48.5h-14c-0.552,0-1-0.447-1-1l0,0c0-0.553,0.448-1,1-1h14c0.552,0,1,0.447,1,1
			l0,0C25.5,48.053,25.052,48.5,24.5,48.5z"/>
		<path id="XMLID_2779_" fill="#37474F" d="M24.5,49h-14C9.673,49,9,48.327,9,47.5S9.673,46,10.5,46h14c0.827,0,1.5,0.673,1.5,1.5
			S25.327,49,24.5,49z M10.5,47c-0.276,0-0.5,0.225-0.5,0.5s0.224,0.5,0.5,0.5h14c0.276,0,0.5-0.225,0.5-0.5S24.776,47,24.5,47H10.5
			z"/>
	</g>
	<g id="XMLID_2773_">
		<rect id="XMLID_2777_" x="14.5" y="48.5" fill="#CFD8DC" width="6" height="8"/>
		<path id="XMLID_2774_" fill="#37474F" d="M21,57h-7v-9h7V57z M15,56h5v-7h-5V56z"/>
	</g>
	<g id="XMLID_2768_">
		<path id="XMLID_2772_" fill="#FFFFFF" d="M22.5,58.5h-10c-0.552,0-1-0.447-1-1l0,0c0-0.553,0.448-1,1-1h10c0.552,0,1,0.447,1,1
			l0,0C23.5,58.053,23.052,58.5,22.5,58.5z"/>
		<path id="XMLID_2769_" fill="#37474F" d="M22.5,59h-10c-0.827,0-1.5-0.673-1.5-1.5s0.673-1.5,1.5-1.5h10
			c0.827,0,1.5,0.673,1.5,1.5S23.327,59,22.5,59z M12.5,57c-0.276,0-0.5,0.225-0.5,0.5s0.224,0.5,0.5,0.5h10
			c0.276,0,0.5-0.225,0.5-0.5S22.776,57,22.5,57H12.5z"/>
	</g>
	<g id="XMLID_2765_">
		<path id="XMLID_2767_" fill="#FFFFFF" d="M17.5,12.5V4V12.5z"/>
		<rect id="XMLID_2766_" x="17" y="4" fill="#37474F" width="1" height="8.5"/>
	</g>
	<path id="XMLID_2764_" fill="#FFFFFF" d="M32,55.5v-23c0-1.604,0.426-2.978,1.5-3.615V28.5c-2.209,0-4,1.791-4,4v23
		c0,1.656,1.343,3,3,3H35C33.343,58.5,32,57.156,32,55.5z"/>
	<path id="XMLID_2763_" fill="#84FFFF" d="M47.5,28.5v-3h-11H35h-1.5v3.385C32.426,29.522,32,30.896,32,32.5v23c0,1.656,1.343,3,3,3
		h13.5c1.657,0,3-1.344,3-3v-23C51.5,30.291,49.709,28.5,47.5,28.5z"/>
	<path id="XMLID_2762_" fill="#18FFFF" d="M49,55.5v-23c0-1.604-0.426-2.978-1.5-3.615V28.5c2.209,0,4,1.791,4,4v23
		c0,1.656-1.343,3-3,3H46C47.657,58.5,49,57.156,49,55.5z"/>
	<path id="XMLID_2759_" fill="#37474F" d="M48.5,59h-16c-1.93,0-3.5-1.57-3.5-3.5v-23c0-2.313,1.753-4.223,4-4.473V25h15v3.027
		c2.247,0.25,4,2.16,4,4.473v23C52,57.43,50.43,59,48.5,59z M33.5,29c-1.93,0-3.5,1.57-3.5,3.5v23c0,1.379,1.122,2.5,2.5,2.5h16
		c1.378,0,2.5-1.121,2.5-2.5v-23c0-1.93-1.57-3.5-3.5-3.5H47v-3H34v3H33.5z"/>
	<path id="XMLID_2758_" fill="#FFFFFF" d="M48.5,19.5h-16c-1.104,0-2,0.896-2,2v2c0,1.104,0.896,2,2,2h16c1.104,0,2-0.896,2-2v-2
		C50.5,20.396,49.604,19.5,48.5,19.5z"/>
	<path id="XMLID_2757_" fill="#FFFFFF" d="M48.5,19.5h-16c-1.104,0-2,0.896-2,2v2c0,1.104,0.896,2,2,2h16c1.104,0,2-0.896,2-2v-2
		C50.5,20.396,49.604,19.5,48.5,19.5z"/>
	<path id="XMLID_2756_" fill="#FFE57F" d="M50.5,23.5v-2c0-1.104-0.896-2-2-2H34c-1.104,0-2,0.896-2,2v2c0,1.104,0.896,2,2,2h14.5
		C49.604,25.5,50.5,24.604,50.5,23.5z"/>
	<path id="XMLID_2755_" fill="#FFD740" d="M50.5,23.5v-2c0-1.104-0.896-2-2-2H47c1.104,0,2,0.896,2,2v2c0,1.104-0.896,2-2,2h1.5
		C49.604,25.5,50.5,24.604,50.5,23.5z"/>
	<path id="XMLID_2752_" fill="#37474F" d="M48.5,26h-16c-1.378,0-2.5-1.121-2.5-2.5v-2c0-1.379,1.122-2.5,2.5-2.5h16
		c1.378,0,2.5,1.121,2.5,2.5v2C51,24.879,49.878,26,48.5,26z M32.5,20c-0.827,0-1.5,0.673-1.5,1.5v2c0,0.827,0.673,1.5,1.5,1.5h16
		c0.827,0,1.5-0.673,1.5-1.5v-2c0-0.827-0.673-1.5-1.5-1.5H32.5z"/>
	<rect id="XMLID_2751_" x="29.5" y="35.5" fill="#FFFFFF" width="22" height="17"/>
	<rect id="XMLID_2750_" x="32" y="35.5" fill="#ECEFF1" width="19.5" height="17"/>
	<rect id="XMLID_2749_" x="49" y="35.5" fill="#CFD8DC" width="2.5" height="17"/>
	<path id="XMLID_2746_" fill="#37474F" d="M52,53H29V35h23V53z M30,52h21V36H30V52z"/>
	<g id="XMLID_2743_">
		<path id="XMLID_2745_" fill="#FFFFFF" d="M58,58.5h1H58z"/>
		<rect id="XMLID_2744_" x="58" y="58" fill="#37474F" width="1" height="1"/>
	</g>
	<g id="XMLID_2740_">
		<path id="XMLID_2742_" fill="#FFFFFF" d="M19,58.5h38H19z"/>
		<rect id="XMLID_2741_" x="19" y="58" fill="#37474F" width="38" height="1"/>
	</g>
	<path id="XMLID_2737_" fill="#37474F" d="M24,47H11V18.1l5-1.1l3.108,0.012L24,18.1V47z M12,46h11V18.9L18.945,18h-2.891L12,18.9
		V46z"/>
	<rect id="XMLID_2736_" x="34" y="26" fill="#18FFFF" width="13" height="1"/>
	<circle id="XMLID_2735_" fill="#B2FF59" cx="41" cy="44" r="5"/>
	<path id="XMLID_2734_" fill="#37474F" d="M41,49.5c-3.033,0-5.5-2.467-5.5-5.5s2.467-5.5,5.5-5.5c0.996,0,1.972,0.27,2.822,0.779
		l-0.514,0.857C42.613,39.721,41.815,39.5,41,39.5c-2.481,0-4.5,2.019-4.5,4.5s2.019,4.5,4.5,4.5s4.5-2.019,4.5-4.5
		c0-0.463-0.07-0.919-0.207-1.354l0.953-0.301C46.415,42.877,46.5,43.435,46.5,44C46.5,47.033,44.033,49.5,41,49.5z"/>
	<polygon id="XMLID_2733_" fill="#37474F" points="40.932,46.168 38.55,43.393 39.309,42.741 40.92,44.619 44.999,39.715 
		45.768,40.354 	"/>
</g>
</svg>
