<?xml version="1.0" encoding="utf-8"?>
<!-- Generator: Adobe Illustrator 16.0.0, SVG Export Plug-In . SVG Version: 6.00 Build 0)  -->
<!DOCTYPE svg PUBLIC "-//W3C//DTD SVG 1.1//EN" "http://www.w3.org/Graphics/SVG/1.1/DTD/svg11.dtd">
<svg version="1.1" id="_x3C_Layer_x3E_" xmlns="http://www.w3.org/2000/svg" xmlns:xlink="http://www.w3.org/1999/xlink" x="0px"
	 y="0px" width="64px" height="64px" viewBox="0 0 64 64" enable-background="new 0 0 64 64" xml:space="preserve">
<g id="DNA">
	<g id="XMLID_2_">
		<g id="XMLID_3_">
			<path id="XMLID_4_" fill="#ECEFF1" d="M56,32c0,13.258-10.743,24-24,24S8,45.258,8,32S18.743,8,32,8S56,18.742,56,32z"/>
		</g>
	</g>
	<g>
		<g>
			<g>
				<g>
					<g>
						<circle fill="#FF5252" cx="6.19" cy="44.582" r="2"/>
					</g>
					<g>
						<path fill="#37474F" d="M6.19,47.082c-0.668,0-1.296-0.26-1.768-0.732c-0.974-0.975-0.974-2.561,0-3.536
							c0.944-0.944,2.591-0.945,3.536,0c0.974,0.975,0.974,2.561,0,3.536C7.486,46.822,6.858,47.082,6.19,47.082z M6.19,43.082
							c-0.401,0-0.778,0.156-1.061,0.439c-0.584,0.585-0.584,1.537,0,2.122c0.566,0.566,1.555,0.566,2.122,0
							c0.584-0.585,0.584-1.537,0-2.122C6.968,43.238,6.591,43.082,6.19,43.082z"/>
					</g>
				</g>
				<g>
					<g>
						<circle fill="#FF5252" cx="44.374" cy="12.055" r="1"/>
					</g>
					<g>
						<path fill="#37474F" d="M44.374,13.555c-0.401,0-0.777-0.156-1.061-0.439c-0.585-0.585-0.585-1.537,0-2.122
							c0.566-0.566,1.555-0.566,2.121,0c0.585,0.585,0.585,1.537,0,2.122C45.151,13.399,44.775,13.555,44.374,13.555z
							 M44.374,11.555c-0.134,0-0.259,0.052-0.354,0.146c-0.195,0.195-0.195,0.512,0,0.708c0.188,0.188,0.519,0.188,0.707,0
							c0.195-0.195,0.195-0.512,0-0.708C44.633,11.607,44.508,11.555,44.374,11.555z"/>
					</g>
				</g>
				<g>
					<g>
						<circle fill="#FF5252" cx="45.081" cy="26.904" r="1"/>
					</g>
					<g>
						<path fill="#37474F" d="M45.081,28.404c-0.401,0-0.777-0.156-1.061-0.439s-0.439-0.66-0.439-1.061s0.156-0.777,0.439-1.061
							c0.566-0.566,1.555-0.566,2.121,0c0.283,0.283,0.439,0.66,0.439,1.061s-0.156,0.777-0.439,1.061S45.482,28.404,45.081,28.404z
							 M45.081,26.405c-0.134,0-0.259,0.052-0.354,0.146c-0.195,0.195-0.195,0.512,0,0.707c0.188,0.188,0.519,0.188,0.707,0
							c0.195-0.195,0.195-0.512,0-0.707C45.34,26.457,45.215,26.405,45.081,26.405z"/>
					</g>
				</g>
				<g>
					<g>
						<circle fill="#FF5252" cx="45.081" cy="5.691" r="1.25"/>
					</g>
					<g>
						<path fill="#37474F" d="M45.081,7.44c-0.468,0-0.907-0.182-1.237-0.512c-0.682-0.682-0.682-1.792,0-2.475
							c0.662-0.661,1.814-0.66,2.475,0C47,5.137,47,6.247,46.318,6.928C45.988,7.259,45.549,7.44,45.081,7.44z M45.081,4.941
							c-0.2,0-0.389,0.078-0.53,0.219c-0.292,0.292-0.292,0.768,0,1.061c0.283,0.283,0.777,0.283,1.061,0
							c0.292-0.292,0.292-0.768,0-1.062C45.47,5.019,45.282,4.941,45.081,4.941z"/>
					</g>
				</g>
				<g>
					<g>
						<circle fill="#FF5252" cx="43.667" cy="32.561" r="1.25"/>
					</g>
					<g>
						<path fill="#37474F" d="M43.667,34.311c-0.468,0-0.907-0.182-1.238-0.513c-0.682-0.682-0.682-1.792,0-2.475
							c0.661-0.661,1.815-0.66,2.475,0c0.682,0.682,0.682,1.792,0,2.475C44.575,34.128,44.135,34.311,43.667,34.311z M43.667,31.811
							c-0.2,0-0.389,0.078-0.53,0.219c-0.292,0.292-0.292,0.768,0,1.061c0.283,0.283,0.777,0.284,1.061,0
							c0.292-0.292,0.292-0.768,0-1.061C44.056,31.889,43.868,31.811,43.667,31.811z"/>
					</g>
				</g>
				<g>
					<g>
						<circle fill="#FF5252" cx="41.546" cy="37.511" r="1.5"/>
					</g>
					<g>
						<path fill="#37474F" d="M41.545,39.511c-0.534,0-1.037-0.208-1.414-0.586c-0.377-0.377-0.585-0.879-0.585-1.414
							c0-0.534,0.208-1.037,0.585-1.414c0.755-0.755,2.073-0.755,2.829,0c0.78,0.78,0.78,2.048,0,2.828
							C42.582,39.303,42.08,39.511,41.545,39.511z M41.545,36.511c-0.267,0-0.518,0.104-0.707,0.292
							c-0.188,0.189-0.292,0.44-0.292,0.707s0.104,0.518,0.293,0.707c0.378,0.378,1.036,0.378,1.414,0c0.39-0.39,0.39-1.024,0-1.414
							C42.064,36.615,41.813,36.511,41.545,36.511z"/>
					</g>
				</g>
				<g>
					<g>
						<circle fill="#FF5252" cx="38.01" cy="41.046" r="1.75"/>
					</g>
					<g>
						<path fill="#37474F" d="M38.01,43.296c-0.601,0-1.167-0.234-1.591-0.659c-0.425-0.425-0.659-0.99-0.659-1.591
							c0-0.602,0.234-1.167,0.659-1.591c0.849-0.85,2.332-0.851,3.182,0c0.425,0.425,0.659,0.99,0.659,1.59
							c0,0.601-0.234,1.167-0.659,1.591C39.177,43.062,38.611,43.296,38.01,43.296z M38.011,39.796c-0.334,0-0.648,0.13-0.884,0.366
							c-0.236,0.236-0.366,0.55-0.366,0.884s0.13,0.648,0.366,0.884c0.472,0.472,1.295,0.472,1.768,0
							c0.236-0.236,0.366-0.55,0.366-0.884s-0.13-0.648-0.366-0.884C38.658,39.926,38.344,39.796,38.011,39.796z"/>
					</g>
				</g>
				<g>
					<g>
						<circle fill="#FF5252" cx="33.06" cy="43.168" r="2"/>
					</g>
					<g>
						<path fill="#37474F" d="M33.061,45.667c-0.668,0-1.296-0.26-1.768-0.732c-0.975-0.975-0.975-2.561,0-3.536
							c0.945-0.944,2.591-0.944,3.536,0c0.975,0.975,0.975,2.561,0,3.536C34.356,45.408,33.728,45.667,33.061,45.667z
							 M33.061,41.667c-0.401,0-0.777,0.156-1.061,0.439c-0.584,0.585-0.584,1.537,0,2.122c0.566,0.566,1.555,0.567,2.122,0
							c0.584-0.585,0.584-1.537,0-2.122C33.838,41.824,33.461,41.667,33.061,41.667z"/>
					</g>
				</g>
				<g>
					<g>
						<circle fill="#FF5252" cx="26.873" cy="44.052" r="2.25"/>
					</g>
					<g>
						<path fill="#37474F" d="M26.873,46.801c-0.735,0-1.425-0.286-1.944-0.805c-1.072-1.072-1.072-2.817,0-3.889
							c1.038-1.039,2.85-1.039,3.889,0c1.072,1.072,1.072,2.817,0,3.889C28.298,46.516,27.607,46.801,26.873,46.801z M26.873,42.302
							c-0.467,0-0.907,0.182-1.237,0.512c-0.682,0.683-0.682,1.792,0,2.475c0.661,0.661,1.813,0.661,2.475,0
							c0.682-0.683,0.682-1.792,0-2.475C27.78,42.483,27.34,42.302,26.873,42.302z"/>
					</g>
				</g>
				<g>
					<g>
						<circle fill="#FF5252" cx="12.554" cy="43.875" r="2.25"/>
					</g>
					<g>
						<path fill="#37474F" d="M12.554,46.625c-0.734,0-1.425-0.286-1.944-0.806c-1.072-1.073-1.072-2.817,0-3.889
							c1.038-1.039,2.849-1.04,3.889,0c0.52,0.52,0.806,1.21,0.806,1.944c0,0.734-0.286,1.425-0.806,1.945
							S13.289,46.625,12.554,46.625z M12.554,42.125c-0.467,0-0.907,0.182-1.237,0.512c-0.682,0.682-0.682,1.792,0,2.475
							c0.661,0.661,1.813,0.661,2.475,0c0.331-0.331,0.513-0.771,0.513-1.238s-0.182-0.907-0.513-1.237S13.021,42.125,12.554,42.125
							z"/>
					</g>
				</g>
				<g>
					<g>
						<circle fill="#FF5252" cx="19.625" cy="43.875" r="2.5"/>
					</g>
					<g>
						<path fill="#37474F" d="M19.625,46.875c-0.801,0-1.555-0.312-2.121-0.879c-1.17-1.17-1.17-3.073,0-4.243
							c1.133-1.134,3.109-1.134,4.243,0c1.17,1.17,1.17,3.073,0,4.243C21.18,46.563,20.426,46.875,19.625,46.875z M19.625,41.875
							c-0.534,0-1.036,0.208-1.414,0.586c-0.78,0.78-0.78,2.049,0,2.829c0.756,0.756,2.073,0.756,2.829,0
							c0.78-0.78,0.78-2.049,0-2.829C20.662,42.083,20.159,41.875,19.625,41.875z"/>
					</g>
				</g>
			</g>
			<g>
				<g>
					<g>
						<circle fill="#18FFFF" cx="57.809" cy="18.419" r="2"/>
					</g>
					<g>
						<path fill="#37474F" d="M57.809,20.919c-0.668,0-1.296-0.26-1.768-0.732c-0.472-0.472-0.732-1.1-0.732-1.768
							s0.26-1.296,0.732-1.768c0.943-0.944,2.592-0.944,3.535,0c0.472,0.472,0.732,1.1,0.732,1.768s-0.26,1.296-0.732,1.768
							C59.105,20.659,58.477,20.919,57.809,20.919z M57.809,16.919c-0.401,0-0.777,0.156-1.061,0.439s-0.439,0.66-0.439,1.061
							s0.156,0.777,0.439,1.061c0.566,0.566,1.555,0.566,2.121,0c0.283-0.283,0.439-0.66,0.439-1.061s-0.156-0.777-0.439-1.061
							S58.21,16.919,57.809,16.919z"/>
					</g>
				</g>
				<g>
					<g>
						<circle fill="#18FFFF" cx="19.625" cy="50.946" r="1"/>
					</g>
					<g>
						<path fill="#37474F" d="M19.625,52.445c-0.401,0-0.778-0.156-1.061-0.439s-0.439-0.66-0.439-1.061s0.156-0.777,0.439-1.061
							c0.566-0.566,1.555-0.566,2.122,0c0.585,0.585,0.585,1.536,0,2.121C20.403,52.29,20.026,52.445,19.625,52.445z M19.625,50.446
							c-0.134,0-0.26,0.052-0.354,0.146c-0.195,0.195-0.195,0.512,0,0.707c0.188,0.188,0.519,0.188,0.708,0
							c0.195-0.195,0.195-0.512,0-0.707C19.885,50.498,19.759,50.446,19.625,50.446z"/>
					</g>
				</g>
				<g>
					<g>
						<circle fill="#18FFFF" cx="18.918" cy="36.097" r="1"/>
					</g>
					<g>
						<path fill="#37474F" d="M18.918,37.596c-0.401,0-0.778-0.156-1.061-0.439s-0.439-0.66-0.439-1.061s0.156-0.777,0.439-1.061
							c0.566-0.565,1.555-0.566,2.122,0c0.585,0.585,0.585,1.536,0,2.121C19.696,37.44,19.319,37.596,18.918,37.596z M18.918,35.597
							c-0.134,0-0.26,0.052-0.354,0.146c-0.195,0.195-0.195,0.512,0,0.707c0.188,0.188,0.518,0.188,0.708,0
							c0.195-0.195,0.195-0.512,0-0.707C19.178,35.649,19.052,35.597,18.918,35.597z"/>
					</g>
				</g>
				<g>
					<g>
						<circle fill="#18FFFF" cx="18.918" cy="57.31" r="1.25"/>
					</g>
					<g>
						<path fill="#37474F" d="M18.918,59.06c-0.468,0-0.907-0.182-1.237-0.512c-0.331-0.331-0.513-0.77-0.513-1.238
							s0.182-0.907,0.513-1.237c0.66-0.661,1.814-0.661,2.475,0c0.682,0.682,0.682,1.792,0,2.475
							C19.825,58.878,19.386,59.06,18.918,59.06z M18.918,56.56c-0.2,0-0.389,0.078-0.53,0.219s-0.22,0.33-0.22,0.53
							c0,0.2,0.078,0.389,0.22,0.531c0.284,0.284,0.778,0.283,1.061,0c0.292-0.292,0.292-0.769,0-1.061
							C19.307,56.638,19.119,56.56,18.918,56.56z"/>
					</g>
				</g>
				<g>
					<g>
						<g>
							<circle fill="#18FFFF" cx="20.333" cy="30.44" r="1.25"/>
						</g>
					</g>
					<g>
						<g>
							<path fill="#37474F" d="M20.333,32.189c-0.468,0-0.907-0.182-1.237-0.512c-0.331-0.33-0.513-0.77-0.513-1.238
								c0-0.468,0.182-0.907,0.513-1.237c0.659-0.661,1.813-0.662,2.475,0c0.682,0.682,0.682,1.792,0,2.475
								C21.239,32.008,20.8,32.189,20.333,32.189z M20.332,29.689c-0.2,0-0.388,0.078-0.529,0.219
								c-0.142,0.142-0.22,0.331-0.22,0.531c0,0.201,0.078,0.389,0.22,0.531c0.283,0.283,0.777,0.283,1.061,0
								c0.292-0.292,0.292-0.768,0-1.061C20.721,29.768,20.533,29.689,20.332,29.689z"/>
						</g>
					</g>
				</g>
				<g>
					<g>
						<circle fill="#18FFFF" cx="22.454" cy="25.49" r="1.5"/>
					</g>
					<g>
						<path fill="#37474F" d="M22.454,27.49c-0.534,0-1.037-0.208-1.414-0.585c-0.78-0.78-0.78-2.049,0-2.829
							c0.755-0.755,2.073-0.755,2.828,0c0.378,0.377,0.586,0.88,0.586,1.414s-0.208,1.037-0.586,1.415
							C23.49,27.282,22.988,27.49,22.454,27.49z M22.454,24.49c-0.267,0-0.518,0.104-0.707,0.292c-0.39,0.39-0.39,1.024,0,1.415
							c0.378,0.377,1.036,0.377,1.414,0c0.189-0.189,0.293-0.44,0.293-0.708s-0.104-0.518-0.293-0.707
							C22.972,24.594,22.721,24.49,22.454,24.49z"/>
					</g>
				</g>
				<g>
					<g>
						<circle fill="#18FFFF" cx="25.989" cy="21.954" r="1.75"/>
					</g>
					<g>
						<path fill="#37474F" d="M25.989,24.204c-0.601,0-1.166-0.234-1.591-0.659c-0.425-0.424-0.659-0.989-0.659-1.59
							s0.234-1.167,0.659-1.591c0.85-0.85,2.333-0.85,3.182,0c0.425,0.425,0.659,0.99,0.659,1.591s-0.234,1.166-0.659,1.591
							S26.59,24.204,25.989,24.204z M25.99,20.704c-0.334,0-0.648,0.13-0.884,0.366c-0.236,0.236-0.366,0.55-0.366,0.884
							c0,0.333,0.13,0.647,0.366,0.883c0.473,0.474,1.296,0.473,1.768,0.001c0.236-0.236,0.366-0.55,0.366-0.884
							s-0.13-0.648-0.366-0.884C26.637,20.834,26.324,20.704,25.99,20.704z"/>
					</g>
				</g>
				<g>
					<g>
						<circle fill="#18FFFF" cx="30.939" cy="19.833" r="2"/>
					</g>
					<g>
						<path fill="#37474F" d="M30.939,22.333c-0.668,0-1.296-0.26-1.768-0.732c-0.472-0.472-0.732-1.1-0.732-1.768
							s0.26-1.296,0.732-1.768c0.944-0.944,2.591-0.944,3.535,0c0.472,0.472,0.732,1.1,0.732,1.768c0,0.667-0.26,1.295-0.732,1.768
							C32.235,22.073,31.607,22.333,30.939,22.333z M30.939,18.333c-0.401,0-0.777,0.156-1.061,0.439s-0.439,0.66-0.439,1.061
							c0,0.4,0.156,0.777,0.439,1.061c0.566,0.566,1.555,0.566,2.121,0c0.284-0.284,0.439-0.66,0.439-1.061S32.283,19.056,32,18.772
							C31.716,18.489,31.339,18.333,30.939,18.333z"/>
					</g>
				</g>
				<g>
					<g>
						<circle fill="#18FFFF" cx="37.303" cy="19.126" r="2.25"/>
					</g>
					<g>
						<path fill="#37474F" d="M37.303,21.876c-0.734,0-1.425-0.286-1.945-0.806c-0.52-0.519-0.805-1.21-0.806-1.944
							c0-0.735,0.286-1.425,0.806-1.944c1.039-1.039,2.85-1.039,3.889,0c1.072,1.072,1.072,2.816,0,3.889
							C38.728,21.59,38.038,21.876,37.303,21.876z M37.303,17.376c-0.467,0-0.907,0.182-1.238,0.513s-0.513,0.77-0.513,1.237
							s0.182,0.907,0.513,1.237c0.661,0.661,1.814,0.661,2.475,0c0.331-0.331,0.512-0.77,0.512-1.237s-0.182-0.907-0.512-1.237
							S37.771,17.376,37.303,17.376z"/>
					</g>
				</g>
				<g>
					<g>
						<circle fill="#18FFFF" cx="51.445" cy="19.126" r="2.25"/>
					</g>
					<g>
						<path fill="#37474F" d="M51.445,21.876c-0.734,0-1.425-0.286-1.945-0.806c-1.072-1.072-1.072-2.816,0-3.889
							c1.04-1.04,2.85-1.039,3.889,0c1.072,1.072,1.072,2.816,0,3.889C52.87,21.59,52.18,21.876,51.445,21.876z M51.445,17.376
							c-0.467,0-0.907,0.182-1.238,0.513c-0.331,0.331-0.512,0.77-0.512,1.237s0.182,0.907,0.512,1.237
							c0.662,0.661,1.814,0.661,2.475,0c0.682-0.682,0.682-1.792,0-2.475C52.352,17.558,51.913,17.376,51.445,17.376z"/>
					</g>
				</g>
				<g>
					<g>
						<circle fill="#18FFFF" cx="44.374" cy="19.126" r="2.5"/>
					</g>
					<g>
						<path fill="#37474F" d="M44.374,22.126c-0.801,0-1.555-0.312-2.121-0.879c-0.567-0.566-0.879-1.32-0.879-2.121
							s0.312-1.555,0.879-2.121c1.133-1.134,3.11-1.133,4.242,0c0.567,0.566,0.879,1.32,0.879,2.121s-0.312,1.555-0.879,2.121
							C45.929,21.814,45.176,22.126,44.374,22.126z M44.374,17.126c-0.534,0-1.036,0.208-1.414,0.586s-0.586,0.88-0.586,1.414
							s0.208,1.036,0.586,1.414c0.756,0.756,2.072,0.756,2.828,0c0.378-0.378,0.586-0.88,0.586-1.414s-0.208-1.036-0.586-1.414
							S44.908,17.126,44.374,17.126z"/>
					</g>
				</g>
			</g>
			<g>
				<g>
					<g>
						
							<rect x="48.981" y="8.019" transform="matrix(0.7071 0.7071 -0.7071 0.7071 22.1274 -36.3822)" fill="#37474F" width="12" height="1"/>
					</g>
				</g>
				<g>
					<g>
						
							<rect x="43.591" y="11.201" transform="matrix(0.7071 0.7071 -0.7071 0.7071 23.2385 -32.6999)" fill="#37474F" width="15" height="1"/>
					</g>
				</g>
				<g>
					<g>
						
							<rect x="44.056" y="14.737" transform="matrix(0.7071 0.7071 -0.7071 0.7071 24.703 -29.1643)" fill="#37474F" width="7" height="1"/>
					</g>
				</g>
				<g>
					<g>
						
							<rect x="37.546" y="22.869" transform="matrix(0.7071 0.7071 -0.7071 0.7071 28.6946 -22.5332)" fill="#37474F" width="8" height="1"/>
					</g>
				</g>
				<g>
					<g>
						
							<rect x="30.156" y="26.051" transform="matrix(0.7071 0.7071 -0.7071 0.7071 29.8034 -18.8507)" fill="#37474F" width="15" height="1"/>
					</g>
				</g>
				<g>
					<g>
						
							<rect x="24.621" y="29.586" transform="matrix(0.7071 0.7071 -0.7071 0.7071 31.2679 -15.315)" fill="#37474F" width="19" height="1"/>
					</g>
				</g>
				<g>
					<g>
						
							<rect x="3.019" y="53.981" transform="matrix(0.7071 0.7071 -0.7071 0.7071 41.168 9.5813)" fill="#37474F" width="12" height="1"/>
					</g>
				</g>
				<g>
					<g>
						
							<rect x="5.408" y="50.799" transform="matrix(0.7071 0.7071 -0.7071 0.7071 40.0567 5.8991)" fill="#37474F" width="15" height="1"/>
					</g>
				</g>
				<g>
					<g>
						
							<rect x="12.943" y="47.264" transform="matrix(0.7071 0.7071 -0.7071 0.7071 38.5903 2.3627)" fill="#37474F" width="7" height="1"/>
					</g>
				</g>
				<g>
					<g>
						
							<rect x="18.454" y="39.132" transform="matrix(0.7071 0.7071 -0.7071 0.7071 34.6007 -4.2693)" fill="#37474F" width="8" height="1"/>
					</g>
				</g>
				<g>
					<g>
						
							<rect x="18.843" y="35.95" transform="matrix(0.7071 0.7071 -0.7071 0.7071 33.4898 -7.9511)" fill="#37474F" width="15" height="1"/>
					</g>
				</g>
				<g>
					<g>
						
							<rect x="20.378" y="32.415" transform="matrix(0.7071 0.7071 -0.7071 0.7071 32.0244 -11.4866)" fill="#37474F" width="19" height="1"/>
					</g>
				</g>
			</g>
		</g>
	</g>
</g>
</svg>
