<?xml version="1.0" encoding="utf-8"?>
<!-- Generator: Adobe Illustrator 16.0.0, SVG Export Plug-In . SVG Version: 6.00 Build 0)  -->
<!DOCTYPE svg PUBLIC "-//W3C//DTD SVG 1.1//EN" "http://www.w3.org/Graphics/SVG/1.1/DTD/svg11.dtd">
<svg version="1.1" id="_x3C_Layer_x3E_" xmlns="http://www.w3.org/2000/svg" xmlns:xlink="http://www.w3.org/1999/xlink" x="0px"
	 y="0px" width="64px" height="64px" viewBox="0 0 64 64" enable-background="new 0 0 64 64" xml:space="preserve">
<g id="donor">
	<g id="social_integration_4_">
		<g>
			<g>
				<g>
					<g>
						<path fill="#FFFFFF" d="M55.5,37h-3h-9.482H41v-1h2.018H52.5c1.379,0,2.5-1.121,2.5-2.5S53.879,31,52.5,31H30.895l0.42-0.746
							c0.021-0.037,2.086-3.772,1.688-8.714C32.672,17.445,30.988,15,28.5,15c-0.858,0-1.007,0.215-1.008,0.217l0.008,7.954l-9.5,11
							V51h2c0.631,0,1.561,0.237,2.116,0.539l3.745,2.044C26.277,53.809,27.028,54,27.5,54h23c1.448,0,2.5-1.196,2.5-2.5
							S51.948,49,50.5,49h-7.583H41v-1h1.917H50.5H54c1.379,0,2.5-1.121,2.5-2.5S55.379,43,54,43H42.917H41v-1h1.917H54h1.5
							c1.379,0,2.5-1.121,2.5-2.5S56.879,37,55.5,37z"/>
					</g>
				</g>
				<g>
					<g>
						<path fill="#FFE0B2" d="M55.5,38h-3h-9.482H41v-1h2.018H52.5c1.379,0,2.5-1.121,2.5-2.5S53.879,32,52.5,32H30.895l0.42-0.746
							C31.335,31.217,33.398,25.941,33,21c-0.33-4.095-1.012-5-3.5-5c-0.858,0-1.007,0.215-1.008,0.217l0.008,7.454l-10.5,12V51h2
							c0.631,0,1.561,0.237,2.116,0.539l3.745,2.044C26.277,53.809,27.028,54,27.5,54l23,1c1.448,0,2.5-1.196,2.5-2.5
							S51.948,50,50.5,50h-7.583H41v-1h1.917H50.5H54c1.379,0,2.5-1.121,2.5-2.5S55.379,44,54,44H42.917H41v-1h1.917H54h1.5
							c1.379,0,2.5-1.121,2.5-2.5S56.879,38,55.5,38z"/>
					</g>
				</g>
				<g>
					<g>
						<path fill="#E6CAA0" d="M50.5,53h-23c-0.472,0-1.223-0.191-1.639-0.417l-3.745-2.044C21.561,50.237,20.631,50,20,50h-2v1h2
							c0.631,0,1.561,0.237,2.116,0.539l3.745,2.044C26.277,53.809,27.028,54,27.5,54l23,1c1.448,0,2.5-1.196,2.5-2.5
							c0-0.349-0.08-0.688-0.219-1C52.404,52.355,51.561,53,50.5,53z"/>
					</g>
				</g>
				<g>
					<path fill="#E6CAA0" d="M55.5,42c1.379,0,2.5-1.121,2.5-2.5c0-0.171-0.018-0.338-0.051-0.5c-0.232,1.14-1.241,2-2.449,2H41v1
						H55.5z"/>
				</g>
				<g>
					<path fill="#E6CAA0" d="M53,36c1.379,0,2.5-1.121,2.5-2.5c0-0.172-0.018-0.338-0.051-0.5c-0.232,1.14-1.241,2-2.449,2H41v1H53z
						"/>
				</g>
				<g>
					<path fill="#E6CAA0" d="M55,47H41v1h14c1.379,0,2.5-1.121,2.5-2.5c0-0.171-0.018-0.338-0.051-0.5C57.217,46.14,56.208,47,55,47
						z"/>
				</g>
			</g>
			<g>
				<g>
					<path fill="#37474F" d="M54,42H42.917v1H54c1.379,0,2.5,1.121,2.5,2.5S55.379,48,54,48H42.917v1H54c1.93,0,3.5-1.57,3.5-3.5
						S55.93,42,54,42z"/>
				</g>
			</g>
			<g>
				<g>
					<path fill="#37474F" d="M55.5,36H43.018v1H55.5c1.379,0,2.5,1.121,2.5,2.5S56.879,42,55.5,42H41v1h14.5
						c1.93,0,3.5-1.57,3.5-3.5S57.43,36,55.5,36z"/>
				</g>
			</g>
			<g>
				<path fill="#37474F" d="M52.5,36H41v1h11.5c1.93,0,3.5-1.57,3.5-3.5S54.43,30,52.5,30H32.552
					c0.619-1.385,1.768-4.564,1.446-8.54C33.555,15.959,30.867,14,28.5,14c-0.885,0-1.468,0.191-1.784,0.585
					c-0.192,0.239-0.238,0.507-0.216,0.702v7.542l-9.5,11V52h3c0.472,0,1.223,0.191,1.639,0.417l3.745,2.044
					C25.939,54.763,26.869,55,27.5,55h23c1.995,0,3.5-1.646,3.5-3.5S52.495,48,50.5,48H41v1h9.5c1.448,0,2.5,1.196,2.5,2.5
					S51.948,54,50.5,54h-23c-0.472,0-1.223-0.191-1.639-0.417l-3.745-2.044C21.561,51.237,20.631,51,20,51h-2V34.171l9.5-11
					l-0.008-7.954C27.493,15.215,27.642,15,28.5,15c2.488,0,4.172,2.445,4.502,6.54c0.398,4.941-1.667,8.677-1.688,8.714L30.895,31
					H52.5c1.379,0,2.5,1.121,2.5,2.5S53.879,36,52.5,36z"/>
			</g>
			<g>
				<g>
					<path fill="#37474F" d="M54,42H42.917v1H54c1.379,0,2.5,1.121,2.5,2.5S55.379,48,54,48H42.917v1H54c1.93,0,3.5-1.57,3.5-3.5
						S55.93,42,54,42z"/>
				</g>
			</g>
			<g>
				<g>
					<path fill="#37474F" d="M55.5,36H43.018v1H55.5c1.379,0,2.5,1.121,2.5,2.5S56.879,42,55.5,42H41v1h14.5
						c1.93,0,3.5-1.57,3.5-3.5S57.43,36,55.5,36z"/>
				</g>
			</g>
		</g>
		<g>
			<rect x="5" y="33" fill="#84FFFF" width="8" height="26"/>
		</g>
		<g>
			<g>
				<g>
					<rect x="5" y="39" fill="#18FFFF" width="8" height="19"/>
				</g>
			</g>
		</g>
		<g>
			<rect x="13.5" y="33.5" fill="#FFFFFF" width="4" height="22"/>
		</g>
		<g>
			<g>
				<g>
					<rect x="14" y="39" fill="#ECEFF1" width="3" height="16"/>
				</g>
			</g>
		</g>
		<g>
			<path fill="#37474F" d="M18,56h-5V33h5V56z M14,55h3V34h-3V55z"/>
		</g>
		<g>
			<polygon fill="#37474F" points="13,32 5,32 5,33 13,33 13,58 5,58 5,59 13,59 14,59 14,58 14,33 14,32 			"/>
		</g>
	</g>
	<g>
		<g>
			<path fill="#FFFFFF" d="M50,21c0,2.485-2.016,4.5-4.5,4.5S41,23.485,41,21c0-4,4.5-10.5,4.5-10.5S50,17,50,21z"/>
		</g>
		<g>
			<path fill="#FF5252" d="M46,24.949c1.968-0.249,3.5-1.915,3.5-3.949c0-2.703-2.208-6.694-3.5-8.798
				c-1.292,2.104-3.5,6.098-3.5,8.798C42.5,23.034,44.032,24.7,46,24.949z"/>
		</g>
		<g>
			<path fill="#37474F" d="M45.5,26c-2.757,0-5-2.243-5-5c0-4.109,4.401-10.514,4.589-10.785L45.5,9.622l0.411,0.594
				C46.099,10.486,50.5,16.891,50.5,21C50.5,23.757,48.257,26,45.5,26z M45.5,11.406c-1.096,1.699-4,6.497-4,9.594
				c0,2.206,1.794,4,4,4s4-1.794,4-4C49.5,17.901,46.596,13.105,45.5,11.406z"/>
		</g>
	</g>
	<g>
		<rect x="43" y="20" fill="#37474F" width="5" height="1"/>
	</g>
	<g>
		<rect x="45" y="18" fill="#37474F" width="1" height="5"/>
	</g>
</g>
</svg>
