<?xml version="1.0" encoding="utf-8"?>
<!-- Generator: Adobe Illustrator 16.0.0, SVG Export Plug-In . SVG Version: 6.00 Build 0)  -->
<!DOCTYPE svg PUBLIC "-//W3C//DTD SVG 1.1//EN" "http://www.w3.org/Graphics/SVG/1.1/DTD/svg11.dtd">
<svg version="1.1" id="_x3C_Layer_x3E_" xmlns="http://www.w3.org/2000/svg" xmlns:xlink="http://www.w3.org/1999/xlink" x="0px"
	 y="0px" width="64px" height="64px" viewBox="0 0 64 64" enable-background="new 0 0 64 64" xml:space="preserve">
<g id="Death_x2C__percent_x2C__rate_x2C__rates_x2C__skull_1_">
	<g id="error_2_">
		<g id="XMLID_3551_">
			<path id="XMLID_3554_" fill-rule="evenodd" clip-rule="evenodd" fill="#D9E0E3" d="M10.899,40.415
				c-0.247-0.437-0.399-0.934-0.399-1.471c0-1.657,1.343-3,3-3s3,1.343,3,3c0,0.479,0.116,0.849-0.083,1.25l37.38,11.099
				c0.269-1.382,1.242-2.349,2.703-2.349c1.657,0,3,1.343,3,3c0,1.067-0.561,1.998-1.399,2.529c0.247,0.437,0.399,0.934,0.399,1.471
				c0,1.657-1.343,3-3,3s-3-1.343-3-3c0-0.551,0.159-0.961,0.418-1.404L15.461,43.427c-0.189,1.475-1.435,2.518-2.961,2.518
				c-1.657,0-3-1.343-3-3C9.5,41.877,10.061,40.946,10.899,40.415z"/>
			<path id="XMLID_3553_" fill="#37474F" d="M56.5,48.444c-1.485,0-2.791,0.94-3.287,2.302l-9.699-2.88l-1.758,0.521l12.188,3.618
				l0.105-0.54c0.228-1.172,1.258-2.021,2.451-2.021c1.379,0,2.5,1.121,2.5,2.5c0,0.856-0.437,1.645-1.167,2.106l-0.402,0.255
				l0.234,0.414C57.888,55.112,58,55.524,58,55.944c0,1.379-1.121,2.5-2.5,2.5s-2.5-1.121-2.5-2.5c0-0.433,0.118-0.854,0.35-1.252
				l0.321-0.55l-15.655-4.646l-1.758,0.521l15.959,4.735C52.072,55.138,52,55.536,52,55.944c0,1.93,1.57,3.5,3.5,3.5
				s3.5-1.57,3.5-3.5c0-0.45-0.09-0.891-0.267-1.313C59.534,53.97,60,52.994,60,51.944C60,50.015,58.43,48.444,56.5,48.444z"/>
			<path id="XMLID_3552_" fill-rule="evenodd" clip-rule="evenodd" fill="#FFFFFF" d="M58.101,40.415
				c0.247-0.437,0.399-0.934,0.399-1.471c0-1.657-1.343-3-3-3s-3,1.343-3,3c0,0.479,0.123,0.926,0.322,1.327L15.442,51.37
				c-0.269-1.382-1.481-2.426-2.942-2.426c-1.657,0-3,1.343-3,3c0,1.067,0.561,1.998,1.399,2.529
				c-0.247,0.437-0.399,0.934-0.399,1.471c0,1.657,1.343,3,3,3s3-1.343,3-3c0-0.551-0.159-1.061-0.418-1.504l37.457-11.113
				c0.189,1.475,1.435,2.617,2.961,2.617c1.657,0,3-1.343,3-3C59.5,41.877,58.939,40.946,58.101,40.415z"/>
		</g>
		<g id="XMLID_3535_">
			<g id="XMLID_3548_">
				<g id="XMLID_3549_">
					<path id="XMLID_3550_" fill-rule="evenodd" clip-rule="evenodd" fill="#D9E0E3" d="M49.814,25.35
						c0-8.462-4.147-17.016-15.314-17.016S19.186,16.888,19.186,25.35c0,2.83,0.782,5.665,2.119,8.191
						c-0.266,0.621-0.418,1.301-0.418,2.018c0,2.818,2.288,5.105,5.105,5.105c0.575,0,1.173-0.117,1.69-0.293
						c0.021,0.013,0.118,0.021,0.118,0.033v1.748c0,0,1.808,3.402,6.7,3.402s6.7-3.402,6.7-3.402v-1.748
						c0-0.012,0.097-0.021,0.118-0.033c0.518,0.176,1.088,0.293,1.664,0.293c2.817,0,5.119-2.287,5.119-5.105
						c0-0.717-0.146-1.396-0.411-2.018C49.027,31.015,49.814,28.18,49.814,25.35z"/>
				</g>
			</g>
			<g id="XMLID_3543_">
				<g id="XMLID_3544_">
					<path id="XMLID_3545_" fill-rule="evenodd" clip-rule="evenodd" fill="#FFFFFF" d="M34.509,8.217
						c-14.139,0-15.438,13.046-15.438,17.045c0,2.742,0.938,5.586,2.331,8.221l0.228,0.43l-0.191,0.446
						c-0.24,0.556-0.361,1.142-0.361,1.739c0,2.428,1.975,4.402,4.403,4.402c0.46,0,0.981-0.092,1.466-0.257l0.44-0.149l0.285,0.166
						c0.584,0.186,0.743,0.691,0.743,0.981v1.568c0.366,0.546,1.591,2.085,4.081,2.661c1.093,0.254,2.015-0.688,2.015-1.811v-7.055
						c0.001,0,0-5.514,0-8.133c0-3.211,3.259-5.623,9.143-3.211c0.626-1.654,3.048-2.91,3.048-4.91
						C46.7,14.637,43.145,8.217,34.509,8.217z M26.658,36.098c-2.982,0-5.553-3.236-4.439-6.66c0.971-2.982,4.208-4.439,6.661-4.439
						c2.451,0,4.439,1.317,4.439,4.439C33.319,33.115,29.11,36.098,26.658,36.098z"/>
				</g>
			</g>
			<g id="XMLID_3536_">
				<g id="XMLID_3541_">
					<path id="XMLID_3542_" fill-rule="evenodd" clip-rule="evenodd" fill="#37474F" d="M36.274,30.61
						c0,2.945,3.37,5.334,5.333,5.334c2.389,0,4.448-2.592,3.556-5.334c-0.777-2.389-3.37-3.555-5.333-3.555
						C37.866,27.056,36.274,28.11,36.274,30.61z"/>
				</g>
				<g id="XMLID_3539_">
					<path id="XMLID_3540_" fill-rule="evenodd" clip-rule="evenodd" fill="#37474F" d="M32.723,30.61
						c0,2.945-3.37,5.334-5.334,5.334c-2.389,0-4.447-2.592-3.556-5.334c0.778-2.389,3.37-3.555,5.334-3.555
						C31.13,27.056,32.723,28.11,32.723,30.61z"/>
				</g>
				<g id="XMLID_3537_">
					<path id="XMLID_3538_" fill="#37474F" d="M37.167,39.5c-0.888,1.884-1.194,0.089-2.667,0.089c-1.474,0-1.777,1.795-2.667-0.089
						c-0.628-1.333,2.667-6.222,2.667-6.222S37.795,38.167,37.167,39.5z"/>
				</g>
			</g>
		</g>
	</g>
	<g id="XMLID_3524_">
		<g id="XMLID_3533_">
			<path id="XMLID_3534_" fill="#37474F" d="M26.5,43.082v-0.268l-9.654-2.866C16.948,39.619,17,39.283,17,38.944
				c0-1.93-1.57-3.5-3.5-3.5s-3.5,1.57-3.5,3.5c0,0.45,0.09,0.891,0.267,1.313C9.466,40.919,9,41.895,9,42.944
				c0,1.93,1.57,3.5,3.5,3.5c1.551,0,2.896-1.034,3.335-2.484l9.651,2.863l1.758-0.521L15.04,42.681l-0.075,0.583
				c-0.159,1.243-1.22,2.181-2.465,2.181c-1.379,0-2.5-1.121-2.5-2.5c0-0.856,0.437-1.645,1.167-2.106l0.402-0.255l-0.234-0.414
				C11.112,39.776,11,39.364,11,38.944c0-1.379,1.121-2.5,2.5-2.5s2.5,1.121,2.5,2.5c0,0.372-0.091,0.744-0.271,1.104l-0.264,0.533
				l11.65,3.459c-0.316-0.406-0.477-0.696-0.5-0.738L26.5,43.082z"/>
		</g>
		<g id="XMLID_3531_">
			<path id="XMLID_3532_" fill="#37474F" d="M58.733,40.258C58.91,39.835,59,39.395,59,38.944c0-1.93-1.57-3.5-3.5-3.5
				s-3.5,1.57-3.5,3.5c0,0.339,0.052,0.675,0.154,1.004L42.5,42.814v0.268l-0.117,0.221c-0.023,0.042-0.183,0.332-0.5,0.738
				l11.65-3.459l-0.264-0.533C53.091,39.688,53,39.316,53,38.944c0-1.379,1.121-2.5,2.5-2.5s2.5,1.121,2.5,2.5
				c0,0.42-0.112,0.832-0.335,1.225l-0.234,0.414l0.402,0.255C58.563,41.3,59,42.088,59,42.944c0,1.379-1.121,2.5-2.5,2.5
				c-1.245,0-2.306-0.938-2.465-2.181l-0.075-0.583L15.329,54.143l0.321,0.55C15.882,55.09,16,55.512,16,55.944
				c0,1.379-1.121,2.5-2.5,2.5s-2.5-1.121-2.5-2.5c0-0.42,0.112-0.832,0.335-1.225l0.234-0.414l-0.402-0.255
				C10.437,53.589,10,52.801,10,51.944c0-1.379,1.121-2.5,2.5-2.5c1.193,0,2.224,0.85,2.451,2.021l0.105,0.54l16.71-4.961
				c-0.582-0.154-1.111-0.35-1.584-0.572l-14.395,4.273c-0.496-1.361-1.802-2.302-3.287-2.302c-1.93,0-3.5,1.57-3.5,3.5
				c0,1.05,0.466,2.025,1.267,2.687C10.09,55.054,10,55.494,10,55.944c0,1.93,1.57,3.5,3.5,3.5s3.5-1.57,3.5-3.5
				c0-0.408-0.072-0.807-0.217-1.19L53.165,43.96c0.438,1.45,1.784,2.484,3.335,2.484c1.93,0,3.5-1.57,3.5-3.5
				C60,41.895,59.534,40.919,58.733,40.258z"/>
		</g>
		<g id="XMLID_3529_">
			<path id="XMLID_3530_" fill="#37474F" d="M50.5,25.278c0-8.841-4.333-17.778-16-17.778c-3.565,0-6.439,0.842-8.72,2.254
				c0.142,0.291,0.274,0.586,0.392,0.889C28.246,9.336,30.955,8.5,34.5,8.5c13.918,0,15,12.843,15,16.778
				c0,2.691-0.728,5.489-2.104,8.091l-0.224,0.423l0.188,0.439c0.231,0.538,0.349,1.114,0.349,1.713c0,2.39-1.95,4.334-4.348,4.334
				c-0.441,0-0.931-0.088-1.415-0.253l-0.443-0.151l-0.28,0.17c-0.566,0.181-0.723,0.68-0.723,0.964v1.543
				c-0.451,0.674-2.199,2.838-6,2.838c-3.807,0-5.554-2.171-6-2.837v-1.544c0-0.282-0.154-0.776-0.72-0.962l-0.283-0.172
				l-0.443,0.151c-0.478,0.163-0.989,0.253-1.442,0.253c-2.39,0-4.334-1.944-4.334-4.334c0-0.588,0.119-1.164,0.355-1.713
				l0.188-0.439l-0.224-0.423c-1.232-2.328-1.938-4.82-2.07-7.26c-0.321,0.131-0.647,0.254-0.982,0.357
				c0.186,2.557,0.958,5.084,2.168,7.37c-0.278,0.647-0.437,1.358-0.437,2.107c0,2.945,2.39,5.334,5.334,5.334
				c0.601,0,1.226-0.122,1.766-0.307c0.022,0.014,0.123,0.023,0.123,0.036v1.825c0,0,1.889,3.556,7,3.556s7-3.556,7-3.556v-1.825
				c0-0.013,0.101-0.022,0.123-0.036c0.54,0.185,1.137,0.307,1.738,0.307c2.943,0,5.348-2.389,5.348-5.334
				c0-0.749-0.151-1.46-0.43-2.107C49.677,31.196,50.5,28.235,50.5,25.278z"/>
		</g>
		<circle id="XMLID_3528_" fill="#FFE57F" cx="15" cy="15" r="10.5"/>
		<path id="XMLID_3525_" fill="#37474F" d="M15,26C8.935,26,4,21.065,4,15S8.935,4,15,4s11,4.935,11,11S21.065,26,15,26z M15,5
			C9.486,5,5,9.486,5,15s4.486,10,10,10s10-4.486,10-10S20.514,5,15,5z"/>
	</g>
	<g id="XMLID_3516_">
		<g id="XMLID_3517_">
			<path id="XMLID_3518_" fill="#37474F" d="M8.943,11.959c0-0.804,0.203-1.487,0.607-2.051c0.405-0.564,0.991-0.846,1.76-0.846
				c0.707,0,1.292,0.253,1.756,0.757c0.464,0.505,0.696,1.247,0.696,2.226c0,0.953-0.235,1.686-0.704,2.201
				c-0.469,0.515-1.046,0.772-1.733,0.772c-0.682,0-1.25-0.253-1.703-0.76C9.169,13.752,8.943,12.984,8.943,11.959z M11.349,10.016
				c-0.344,0-0.63,0.148-0.858,0.445c-0.228,0.298-0.341,0.843-0.341,1.637c0,0.723,0.115,1.232,0.346,1.525
				c0.23,0.296,0.515,0.442,0.854,0.442c0.348,0,0.636-0.148,0.864-0.445c0.228-0.298,0.342-0.841,0.342-1.63
				c0-0.728-0.115-1.238-0.346-1.533C11.979,10.162,11.692,10.016,11.349,10.016z M11.356,20.938l6.165-11.875h1.123l-6.142,11.875
				H11.356z M16.23,17.879c0-0.811,0.202-1.495,0.607-2.057c0.405-0.561,0.994-0.841,1.768-0.841c0.707,0,1.292,0.253,1.756,0.757
				c0.464,0.506,0.696,1.246,0.696,2.225c0,0.953-0.235,1.687-0.704,2.203c-0.469,0.514-1.049,0.771-1.741,0.771
				c-0.682,0-1.25-0.254-1.703-0.766C16.456,19.663,16.23,18.898,16.23,17.879z M18.644,15.935c-0.349,0-0.637,0.148-0.865,0.445
				c-0.228,0.298-0.342,0.843-0.342,1.637c0,0.718,0.115,1.225,0.346,1.522c0.23,0.297,0.515,0.445,0.853,0.445
				c0.354,0,0.644-0.148,0.872-0.445c0.228-0.298,0.342-0.841,0.342-1.63c0-0.728-0.115-1.239-0.346-1.534
				C19.274,16.081,18.987,15.935,18.644,15.935z"/>
		</g>
	</g>
</g>
</svg>
