<?xml version="1.0" encoding="utf-8"?>
<!-- Generator: Adobe Illustrator 16.0.0, SVG Export Plug-In . SVG Version: 6.00 Build 0)  -->
<!DOCTYPE svg PUBLIC "-//W3C//DTD SVG 1.1//EN" "http://www.w3.org/Graphics/SVG/1.1/DTD/svg11.dtd">
<svg version="1.1" id="_x3C_Layer_x3E_" xmlns="http://www.w3.org/2000/svg" xmlns:xlink="http://www.w3.org/1999/xlink" x="0px"
	 y="0px" width="64px" height="64px" viewBox="0 0 64 64" enable-background="new 0 0 64 64" xml:space="preserve">
<g id="crutches">
	<g>
		<g>
			<g>
				<g>
					<path fill="#ECEFF1" d="M40.243,46.025c-0.568-0.677-1.823-1.435-2.686-1.622l-5.67-1.23c-1.306-0.285-2.936-1.271-3.793-2.292
						L8.489,17.517l1.532-1.286l19.605,23.365c0.567,0.677,1.822,1.435,2.686,1.622l5.67,1.231c0.239,0.052,0.495,0.13,0.76,0.231
						c-0.054-0.279-0.086-0.544-0.096-0.789l-0.228-5.797c-0.035-0.883-0.563-2.25-1.131-2.926L17.681,9.803l1.533-1.285
						l19.604,23.364c0.858,1.022,1.545,2.799,1.598,4.133l0.228,5.797c0.035,0.883,0.564,2.25,1.131,2.927l8.196,9.767l-1.533,1.285
						L40.243,46.025z"/>
				</g>
			</g>
		</g>
		<g>
			<g>
				<path fill="#CFD8DC" d="M50.244,59.5l-1.286-1.532c-0.71-0.846-0.6-2.107,0.247-2.818l0,0c0.846-0.71,2.107-0.599,2.817,0.247
					l1.286,1.532L50.244,59.5z"/>
			</g>
			<g>
				<path fill="#37474F" d="M50.244,60c-0.143,0-0.285-0.061-0.383-0.179l-1.286-1.532c-0.886-1.055-0.748-2.636,0.309-3.522
					c1.017-0.854,2.669-0.708,3.521,0.309l1.286,1.532c0.085,0.102,0.127,0.233,0.115,0.365c-0.012,0.132-0.075,0.254-0.177,0.339
					l-3.064,2.571C50.471,59.961,50.357,60,50.244,60z M50.489,55.182c-0.352,0-0.693,0.125-0.962,0.351
					c-0.634,0.532-0.717,1.481-0.186,2.114l0.964,1.149l2.298-1.928l-0.964-1.149C51.354,55.377,50.934,55.182,50.489,55.182z"/>
			</g>
		</g>
		<g>
			<g>
				
					<rect x="19.779" y="25.04" transform="matrix(0.766 -0.6428 0.6428 0.766 -10.9412 22.0217)" fill="#FFD740" width="10.001" height="2"/>
			</g>
			<g>
				<path fill="#37474F" d="M21.53,30.725l-1.928-2.298l8.426-7.07l1.929,2.297L21.53,30.725z M21.01,28.55l0.643,0.766l6.895-5.786
					l-0.643-0.766L21.01,28.55z"/>
			</g>
		</g>
	</g>
	<g>
		<g>
			<path fill="#37474F" d="M36.904,33.489c0.096,0.114,0.191,0.26,0.284,0.418l0.674-0.803c-0.063-0.091-0.126-0.181-0.191-0.258
				l-4.365-5.202l-0.653,0.778L36.904,33.489z"/>
		</g>
		<g>
			<path fill="#37474F" d="M29.243,39.917c0.068,0.082,0.148,0.164,0.232,0.246l1.239-0.269c-0.284-0.203-0.536-0.418-0.705-0.619
				l-2.885-3.438c-0.024,0.115-0.042,0.225-0.045,0.317l-0.044,1.132L29.243,39.917z"/>
		</g>
		<g>
			<path fill="#37474F" d="M38.146,41.911c0,0.021,0.001,0.042,0.003,0.063c-0.021-0.005-0.041-0.009-0.061-0.014l-0.957-0.208
				l-0.078,0.093c-0.215,0.257-0.474,0.507-0.752,0.75l1.574,0.342c0.507,0.11,1.078,0.348,1.628,0.651
				c-0.203-0.595-0.338-1.198-0.358-1.717l-0.095-2.407l-0.956,1.139L38.146,41.911z"/>
		</g>
		<g>
			<path fill="#37474F" d="M38.436,32.204c0.029,0.035,0.057,0.077,0.085,0.114l0.658-0.784l-4.569-5.445l-0.653,0.777
				L38.436,32.204z"/>
		</g>
		<g>
			<path fill="#37474F" d="M22.594,33.548l-13.4-15.97l0.766-0.643L23.028,32.51c0.16-0.329,0.336-0.641,0.524-0.931L10.726,16.293
				l-0.643-0.766l-0.766,0.643l-0.766,0.643l-0.766,0.643l0.643,0.766l13.829,16.48C22.341,34.319,22.458,33.932,22.594,33.548z"/>
		</g>
		<g>
			<polygon fill="#37474F" points="27.245,40.647 28.349,40.407 26.977,38.771 26.918,40.258 			"/>
		</g>
		<g>
			<path fill="#37474F" d="M42.159,44.419c-0.491-0.585-0.984-1.861-1.015-2.626l-0.181-4.606l-0.956,1.139l0.138,3.507
				c0.04,0.99,0.61,2.469,1.248,3.229l7.874,9.384L48.5,55.088l-7.874-9.384c-0.637-0.759-1.994-1.579-2.962-1.789l-2.417-0.524
				c-0.428,0.279-0.877,0.527-1.333,0.734l3.537,0.768c0.746,0.162,1.917,0.869,2.408,1.455l7.874,9.384l0.643,0.766l0.766-0.642
				l0.767-0.643l0.767-0.643l-0.643-0.766L42.159,44.419z"/>
		</g>
		<g>
			<polygon fill="#37474F" points="29.389,24.533 30.041,23.755 18.386,9.865 19.152,9.223 30.694,22.977 31.347,22.199 
				19.918,8.58 19.276,7.814 18.51,8.456 17.743,9.099 16.977,9.742 17.62,10.508 			"/>
		</g>
	</g>
	<g>
		<g>
			<g>
				<path fill="#FFE57F" d="M19.177,5.829c0.892,0.644,1,2.026,0.173,3.013c-2.971,3.556-6.548,6.558-10.566,8.866
					c-1.115,0.642-2.458,0.296-2.937-0.694c-0.149-0.298-0.297-0.596-0.446-0.895c-0.48-0.99-0.061-2.196,0.892-2.746
					c3.506-2.015,6.629-4.635,9.222-7.737c0.706-0.843,1.966-1.046,2.859-0.401C18.642,5.433,18.909,5.631,19.177,5.829z"/>
			</g>
		</g>
		<g>
			<g>
				<g>
					<path fill="#FFD740" d="M18.186,6.354c-0.49,0-0.972,0.225-1.288,0.603c-2.639,3.158-5.787,5.799-9.356,7.85
						c-0.747,0.432-1.051,1.352-0.691,2.094l0.271,0.542c0.44,0.131,0.963,0.092,1.414-0.168c3.979-2.286,7.489-5.231,10.432-8.753
						c0.335-0.399,0.493-0.901,0.434-1.376c-0.016-0.129-0.068-0.24-0.115-0.354l-0.209-0.155
						C18.823,6.453,18.513,6.354,18.186,6.354z"/>
				</g>
			</g>
		</g>
		<g>
			<g>
				<g>
					<path fill="#37474F" d="M7.592,18.534c-0.964,0-1.805-0.499-2.194-1.302l-0.443-0.889c-0.591-1.217-0.111-2.709,1.089-3.402
						c3.467-1.992,6.524-4.557,9.088-7.625c0.859-1.025,2.472-1.254,3.536-0.486l0.808,0.598c0.508,0.366,0.835,0.934,0.918,1.593
						c0.094,0.75-0.146,1.531-0.659,2.143c-3.019,3.612-6.619,6.633-10.7,8.979C8.588,18.398,8.089,18.534,7.592,18.534z
						 M17.186,5.354c-0.49,0-0.972,0.225-1.288,0.603c-2.639,3.158-5.787,5.799-9.356,7.85c-0.747,0.432-1.051,1.352-0.691,2.094
						l0.444,0.889c0.348,0.719,1.419,0.958,2.24,0.484c3.979-2.286,7.489-5.231,10.432-8.753c0.335-0.399,0.493-0.901,0.434-1.376
						c-0.048-0.381-0.231-0.704-0.516-0.91l-0.809-0.598C17.823,5.453,17.513,5.354,17.186,5.354z"/>
				</g>
			</g>
		</g>
	</g>
	<g>
		<g>
			<g>
				<g>
					<path fill="#ECEFF1" d="M14.029,54.506l8.194-9.766c0.568-0.677,1.096-2.044,1.131-2.927l0.228-5.797
						c0.054-1.335,0.741-3.112,1.598-4.134L44.784,8.518l1.533,1.285L26.711,33.167c-0.567,0.677-1.096,2.044-1.13,2.927
						l-0.228,5.797c-0.01,0.246-0.042,0.511-0.096,0.789c0.266-0.102,0.521-0.179,0.76-0.231l5.669-1.23
						c0.863-0.188,2.119-0.946,2.686-1.623l19.606-23.365l1.532,1.286L35.904,40.881c-0.857,1.022-2.488,2.008-3.793,2.292
						l-5.669,1.23c-0.864,0.188-2.119,0.946-2.686,1.622l-8.196,9.768L14.029,54.506z"/>
				</g>
			</g>
			<g>
				<g>
					<path fill="#37474F" d="M44.846,9.222l0.767,0.643L26.329,32.846c-0.637,0.759-1.208,2.238-1.247,3.229l-0.228,5.797
						c-0.021,0.519-0.155,1.122-0.359,1.716c0.55-0.303,1.121-0.541,1.629-0.651l5.669-1.23c0.969-0.211,2.326-1.031,2.963-1.79
						L54.04,16.936l0.766,0.643L35.521,40.56c-0.781,0.932-2.326,1.865-3.517,2.124l-5.669,1.23c-0.969,0.211-2.326,1.03-2.963,1.79
						l-7.874,9.384l-0.766-0.644l7.873-9.383c0.638-0.76,1.209-2.239,1.248-3.229l0.228-5.797c0.049-1.217,0.699-2.9,1.481-3.832
						L44.846,9.222L44.846,9.222z M44.723,7.813L44.08,8.58L24.797,31.561c-0.92,1.096-1.657,3.002-1.714,4.435l-0.228,5.798
						c-0.03,0.764-0.523,2.04-1.015,2.625l-7.873,9.384l-0.642,0.765l0.765,0.643l0.766,0.644l0.766,0.644l0.644-0.767l7.874-9.384
						c0.491-0.585,1.662-1.292,2.41-1.455l5.668-1.23c1.401-0.304,3.151-1.361,4.071-2.458l19.284-22.982l0.643-0.766l-0.766-0.643
						l-0.766-0.643l-0.766-0.643l-0.643,0.766L33.989,39.274c-0.491,0.585-1.662,1.293-2.41,1.456l-5.668,1.23
						c-0.021,0.004-0.041,0.009-0.062,0.014c0.001-0.021,0.002-0.041,0.003-0.061l0.228-5.799c0.03-0.764,0.523-2.04,1.014-2.625
						l19.284-22.981l0.643-0.766l-0.767-0.643l-0.767-0.643L44.723,7.813L44.723,7.813z"/>
				</g>
			</g>
		</g>
		<g>
			<g>
				<g>
					<path fill="#FFE57F" d="M58.151,17.014c-0.479,0.989-1.821,1.335-2.937,0.693c-4.019-2.308-7.595-5.31-10.566-8.866
						c-0.826-0.987-0.718-2.369,0.173-3.013c0.269-0.198,0.536-0.396,0.805-0.595c0.892-0.645,2.152-0.441,2.859,0.401
						c2.593,3.104,5.714,5.723,9.221,7.738c0.952,0.549,1.372,1.755,0.892,2.746C58.449,16.418,58.3,16.716,58.151,17.014z"/>
				</g>
			</g>
			<g>
				<g>
					<g>
						<path fill="#FFD740" d="M55.463,17.274c0.451,0.259,0.975,0.297,1.415,0.167l0.271-0.544c0.358-0.739,0.054-1.659-0.694-2.09
							c-3.567-2.049-6.715-4.691-9.354-7.85c-0.316-0.376-0.798-0.602-1.289-0.602c-0.327,0-0.636,0.099-0.894,0.285l-0.205,0.152
							c-0.046,0.114-0.099,0.224-0.115,0.354c-0.06,0.475,0.098,0.977,0.433,1.376C47.977,12.045,51.486,14.99,55.463,17.274z"/>
					</g>
				</g>
			</g>
			<g>
				<g>
					<g>
						<path fill="#37474F" d="M56.408,18.533c-0.498,0-0.997-0.136-1.443-0.393c-4.079-2.343-7.68-5.364-10.701-8.978
							c-0.512-0.611-0.751-1.392-0.658-2.142c0.083-0.66,0.41-1.227,0.922-1.597l0.8-0.592c1.074-0.777,2.681-0.541,3.54,0.482
							c2.564,3.069,5.622,5.635,9.087,7.625c1.201,0.693,1.681,2.185,1.092,3.398l-0.449,0.901
							C58.213,18.035,57.372,18.533,56.408,18.533z M46.813,5.354c-0.327,0-0.636,0.099-0.894,0.285l-0.801,0.592
							c-0.289,0.208-0.472,0.532-0.519,0.913c-0.06,0.475,0.098,0.977,0.433,1.376c2.945,3.524,6.455,6.469,10.432,8.753
							c0.822,0.473,1.894,0.231,2.237-0.478l0.449-0.9c0.358-0.739,0.054-1.659-0.694-2.09c-3.567-2.049-6.715-4.691-9.354-7.85
							C47.785,5.58,47.303,5.354,46.813,5.354z"/>
					</g>
				</g>
			</g>
		</g>
		<g>
			<g>
				<path fill="#CFD8DC" d="M10.691,56.929l1.285-1.532c0.71-0.846,1.972-0.957,2.818-0.247l0,0c0.846,0.71,0.956,1.972,0.246,2.817
					L13.754,59.5L10.691,56.929z"/>
			</g>
			<g>
				<path fill="#37474F" d="M13.754,60c-0.117,0-0.231-0.041-0.321-0.117l-3.063-2.571c-0.211-0.177-0.239-0.493-0.062-0.704
					l1.285-1.532c0.854-1.016,2.505-1.162,3.523-0.309c0.512,0.43,0.825,1.032,0.883,1.698c0.058,0.665-0.146,1.313-0.576,1.824
					l-1.286,1.533c-0.085,0.102-0.207,0.165-0.339,0.177C13.783,60,13.769,60,13.754,60z M11.395,56.867l2.298,1.928l0.965-1.149
					c0.257-0.307,0.38-0.696,0.345-1.095c-0.035-0.399-0.223-0.761-0.53-1.019c-0.612-0.513-1.603-0.424-2.114,0.185L11.395,56.867z
					"/>
			</g>
		</g>
		<g>
			<g>
				
					<rect x="34.22" y="25.04" transform="matrix(0.766 0.6428 -0.6428 0.766 25.9142 -19.1178)" fill="#FFD740" width="10" height="2"/>
			</g>
			<g>
				<path fill="#37474F" d="M42.468,30.725l-8.426-7.071l1.929-2.298l8.426,7.071L42.468,30.725z M35.451,23.531l6.894,5.785
					l0.643-0.766l-6.894-5.785L35.451,23.531z"/>
			</g>
		</g>
	</g>
</g>
</svg>
