<?xml version="1.0" encoding="utf-8"?>
<!-- Generator: Adobe Illustrator 16.0.0, SVG Export Plug-In . SVG Version: 6.00 Build 0)  -->
<!DOCTYPE svg PUBLIC "-//W3C//DTD SVG 1.1//EN" "http://www.w3.org/Graphics/SVG/1.1/DTD/svg11.dtd">
<svg version="1.1" id="_x3C_Layer_x3E_" xmlns="http://www.w3.org/2000/svg" xmlns:xlink="http://www.w3.org/1999/xlink" x="0px"
	 y="0px" width="64px" height="64px" viewBox="0 0 64 64" enable-background="new 0 0 64 64" xml:space="preserve">
<g id="protection_x2C__self_quarantine_x2C__social_distancing_x2C__quarantine_1_">
	<g id="XMLID_3509_">
		<path id="XMLID_3515_" fill="#FFFFFF" d="M50.5,58.5H57H13.5V24c0-10.217,8.282-18.5,18.5-18.5l0,0c10.217,0,18.5,8.283,18.5,18.5
			V58.5z"/>
		<path id="XMLID_3514_" fill="#84FFFF" d="M15,24.5v34h35.5V24c0-7.907-4.97-14.637-11.949-17.284C36.943,6.26,35.254,6,33.5,6
			C23.282,6,15,14.283,15,24.5z"/>
		<path id="XMLID_3513_" fill="#18FFFF" d="M38.551,6.716C36.943,6.26,35.254,6,33.5,6c-0.213,0-0.42,0.025-0.631,0.031
			c1.443,0.071,2.842,0.305,4.182,0.685C44.03,9.363,49,16.093,49,24v34.5h1.5V24C50.5,16.093,45.53,9.363,38.551,6.716z"/>
		<path id="XMLID_3510_" fill="#37474F" d="M57,59H13V24c0-10.477,8.523-19,19-19s19,8.523,19,19v34h6V59z M14,58h36V24
			c0-9.926-8.075-18-18-18s-18,8.074-18,18V58z"/>
	</g>
	<g id="XMLID_3504_">
		<path id="XMLID_3508_" fill="#ECEFF1" d="M36.5,37.5V26V37.5L36.5,37.5c0,0.828,0.672,1.5,1.5,1.5s1.5-0.672,1.5-1.5V24.102
			c0-1.262-0.789-2.389-1.975-2.82L34,20v-2.279c0.609-0.549,1-1.336,1-2.221v-0.986c0-1.656-1.343-3-3-3s-3,1.344-3,3V15.5
			c0,0.885,0.391,1.672,1,2.221V20l-3.525,1.281c-1.186,0.432-1.975,1.559-1.975,2.82V37.5c0,0.828,0.672,1.5,1.5,1.5
			s1.5-0.672,1.5-1.5l0,0V26v11.5l0,0V57h3L32,37.5L33.451,57H36.5V37.5L36.5,37.5z"/>
		<path id="XMLID_3507_" fill="#37474F" d="M32,19c-0.165,0-0.328-0.012-0.487-0.033l0.139-0.99C31.766,17.992,31.882,18,32,18
			c1.379,0,2.5-1.121,2.5-2.5v-0.986c0-1.378-1.121-2.5-2.5-2.5s-2.5,1.122-2.5,2.5V15.5h-1v-0.986c0-1.93,1.57-3.5,3.5-3.5
			s3.5,1.57,3.5,3.5V15.5C35.5,17.43,33.93,19,32,19z"/>
		<path id="XMLID_3506_" fill="#37474F" d="M37,57h-1V26h1v11.5c0,0.551,0.448,1,1,1s1-0.449,1-1V24.102
			c0-1.048-0.661-1.992-1.646-2.35L33.5,20.35v-2.852l0.165-0.148c0.538-0.484,0.835-1.142,0.835-1.85v-0.986
			c0-1.378-1.121-2.5-2.5-2.5s-2.5,1.122-2.5,2.5V15.5c0,0.708,0.297,1.365,0.835,1.85l0.165,0.148v2.852l-3.854,1.402
			C25.661,22.109,25,23.054,25,24.102V37.5c0,0.551,0.448,1,1,1s1-0.449,1-1V26h1v31h-1V39.231c-0.294,0.171-0.636,0.269-1,0.269
			c-1.103,0-2-0.896-2-2V24.102c0-1.467,0.926-2.789,2.304-3.289L29.5,19.65v-1.717c-0.638-0.654-1-1.528-1-2.434v-0.986
			c0-1.93,1.57-3.5,3.5-3.5s3.5,1.57,3.5,3.5V15.5c0,0.905-0.362,1.779-1,2.434v1.717l3.196,1.162
			c1.378,0.5,2.304,1.822,2.304,3.289V37.5c0,1.104-0.897,2-2,2c-0.364,0-0.706-0.098-1-0.269V57z"/>
		<polygon id="XMLID_3505_" fill="#37474F" points="31.004,57.038 30.006,56.962 31.501,37.462 32.499,37.463 33.925,56.963 
			32.927,57.037 31.988,44.195 		"/>
	</g>
	<rect id="XMLID_3503_" x="58" y="58" fill="#37474F" width="1" height="1"/>
	<g id="XMLID_3494_">
		<rect id="XMLID_3502_" x="8" y="15" fill="#37474F" width="1" height="1"/>
		<rect id="XMLID_3501_" x="10" y="18" fill="#37474F" width="1" height="1"/>
		<rect id="XMLID_3500_" x="16" y="8" fill="#37474F" width="1" height="1"/>
		<rect id="XMLID_3499_" x="9" y="9" fill="#37474F" width="1" height="1"/>
		<rect id="XMLID_3498_" x="19" y="5" fill="#37474F" width="1" height="1"/>
		<rect id="XMLID_3497_" x="9" y="22" fill="#37474F" width="1" height="1"/>
		<rect id="XMLID_3496_" x="13" y="5" fill="#37474F" width="1" height="1"/>
		<rect id="XMLID_3495_" x="11" y="12" fill="#37474F" width="1" height="1"/>
	</g>
	<g id="XMLID_3485_">
		<rect id="XMLID_3493_" x="55" y="15" fill="#37474F" width="1" height="1"/>
		<rect id="XMLID_3492_" x="53" y="18" fill="#37474F" width="1" height="1"/>
		<rect id="XMLID_3491_" x="47" y="8" fill="#37474F" width="1" height="1"/>
		<rect id="XMLID_3490_" x="54" y="9" fill="#37474F" width="1" height="1"/>
		<rect id="XMLID_3489_" x="44" y="5" fill="#37474F" width="1" height="1"/>
		<rect id="XMLID_3488_" x="54" y="22" fill="#37474F" width="1" height="1"/>
		<rect id="XMLID_3487_" x="50" y="5" fill="#37474F" width="1" height="1"/>
		<rect id="XMLID_3486_" x="52" y="12" fill="#37474F" width="1" height="1"/>
	</g>
</g>
</svg>
