<?xml version="1.0" encoding="utf-8"?>
<!-- Generator: Adobe Illustrator 16.0.0, SVG Export Plug-In . SVG Version: 6.00 Build 0)  -->
<!DOCTYPE svg PUBLIC "-//W3C//DTD SVG 1.1//EN" "http://www.w3.org/Graphics/SVG/1.1/DTD/svg11.dtd">
<svg version="1.1" id="_x3C_Layer_x3E_" xmlns="http://www.w3.org/2000/svg" xmlns:xlink="http://www.w3.org/1999/xlink" x="0px"
	 y="0px" width="64px" height="64px" viewBox="0 0 64 64" enable-background="new 0 0 64 64" xml:space="preserve">
<g id="lungs_x2C__pneumonia_x2C__virus_x2C__flu">
	<g id="lungs_3_">
		<path id="XMLID_2325_" fill="#FFFFFF" d="M53.722,53.029l-14.011-7.31c-3.203-1.671-5.211-4.984-5.211-8.596V9.769
			c0-2.357,1.911-4.269,4.269-4.269l0,0c1.11,0,2.177,0.433,2.974,1.206l1.459,1.416C52.342,16.996,57.5,29.193,57.5,41.933v8.806
			C57.5,52.678,55.441,53.926,53.722,53.029z"/>
		<path id="XMLID_2324_" fill="#FF8A80" d="M41.844,6.804C41.347,6.607,40.813,6.5,40.269,6.5C37.911,6.5,36,8.411,36,10.769v27.354
			c0,2.99,1.391,5.759,3.681,7.578c0.011,0.005,0.02,0.013,0.03,0.019l14.011,7.31c1.72,0.897,3.778-0.351,3.778-2.291v-8.806
			c0-12.74-5.158-24.937-14.299-33.811L41.844,6.804z"/>
		<path id="XMLID_2323_" fill="#FF8A80" d="M9.278,53.029l14.011-7.31c3.203-1.671,5.211-4.984,5.211-8.596V9.769
			c0-2.357-1.911-4.269-4.269-4.269l0,0c-1.11,0-2.177,0.433-2.974,1.206l-1.459,1.416C10.658,16.996,5.5,29.193,5.5,41.933v8.806
			C5.5,52.678,7.559,53.926,9.278,53.029z"/>
		<path id="XMLID_2322_" fill="#FFFFFF" d="M9.278,53.029l14.011-7.31c3.203-1.671,5.211-4.984,5.211-8.596V9.769
			c0-2.357-1.911-4.269-4.269-4.269l0,0c-1.11,0-2.177,0.433-2.974,1.206l-1.459,1.416C10.658,16.996,5.5,29.193,5.5,41.933v8.806
			C5.5,52.678,7.559,53.926,9.278,53.029z"/>
		<path id="XMLID_2321_" fill="#FF8A80" d="M9.278,53.029l13.841-7.222l0.67-0.588c0.74-0.386,1.409-0.869,2.012-1.414
			c1.695-1.776,2.699-4.148,2.699-6.682V9.769c0-1.153-0.462-2.196-1.205-2.964C26.811,6.612,26.285,6.5,25.731,6.5
			c-1.11,0-2.177,0.433-2.974,1.206l-1.459,1.416C12.158,17.996,7,30.193,7,42.933v8.806c0,0.063,0.003,0.605,0.009,1.328
			C7.695,53.385,8.517,53.426,9.278,53.029z"/>
		<g id="XMLID_2312_">
			<path id="XMLID_2320_" fill="#ECEFF1" d="M32.5,19.182V5h-2v14.182c0,0.468-0.323,0.879-0.781,0.971
				c-3.547,0.711-6.219,3.341-6.219,7.097v1.25c0,0.552,0.447,1,1,1l0,0c0.553,0,1-0.448,1-1v-0.25c0-3.176,2.574-5.75,5.75-5.75
				h0.5c3.176,0,5.75,2.574,5.75,5.75v0.25c0,0.552,0.447,1,1,1l0,0c0.553,0,1-0.448,1-1v-1.25c0-3.756-2.672-6.386-6.219-7.097
				C32.823,20.062,32.5,19.65,32.5,19.182z"/>
			<path id="XMLID_2318_" fill="#37474F" d="M40.291,35.953c-1.159-0.546-2.112-1.478-2.686-2.624
				C37.209,32.536,37,31.649,37,30.764V28c0-3.033-2.468-5.5-5.5-5.5v-1c3.584,0,6.5,2.916,6.5,6.5v2.764
				c0,0.731,0.173,1.463,0.5,2.118c0.473,0.946,1.261,1.715,2.217,2.167L40.291,35.953z"/>
			<path id="XMLID_2317_" fill="#37474F" d="M20.265,37H18v-1h2.265c1.806,0,3.428-1.003,4.235-2.618
				c0.327-0.654,0.5-1.387,0.5-2.118V28c0-3.584,2.916-6.5,6.5-6.5h0.25v1H31.5c-3.032,0-5.5,2.467-5.5,5.5v3.264
				c0,0.885-0.209,1.772-0.605,2.565C24.417,35.785,22.451,37,20.265,37z"/>
			<path id="XMLID_2316_" fill="#37474F" d="M47,31h-4.5c-1.846,0-3.362-1.437-3.491-3.25H39c0-3.442-2.446-6.431-5.816-7.106
				C32.498,20.506,32,19.891,32,19.182V5h1v14.182c0,0.235,0.16,0.437,0.381,0.481c3.753,0.752,6.5,4.025,6.615,7.836H40
				c0,1.378,1.121,2.5,2.5,2.5H47V31z"/>
			<path id="XMLID_2315_" fill="#37474F" d="M20.5,31H16v-1h4.5c1.379,0,2.5-1.122,2.5-2.5h0.004
				c0.115-3.811,2.862-7.084,6.615-7.836C29.84,19.619,30,19.417,30,19.182V5h1v14.182c0,0.709-0.498,1.324-1.184,1.462
				C26.446,21.319,24,24.308,24,27.75h-0.009C23.862,29.563,22.346,31,20.5,31z"/>
			
				<rect id="XMLID_2314_" x="22.25" y="35.364" transform="matrix(0.9361 0.3518 -0.3518 0.9361 14.6452 -5.606)" fill="#37474F" width="0.999" height="4.272"/>
			
				<rect id="XMLID_2313_" x="17.297" y="28.5" transform="matrix(0.6402 0.7682 -0.7682 0.6402 29.2049 -4.3536)" fill="#37474F" width="3.905" height="1"/>
		</g>
		<path id="XMLID_2311_" fill="#37474F" d="M28,25.207v11.916c0,3.438-1.894,6.563-4.942,8.153l-14.011,7.31
			C8.396,52.925,7.631,52.9,7.003,52.52C6.375,52.139,6,51.473,6,50.738v-8.806c0-12.531,5.156-24.723,14.147-33.452l1.459-1.416
			C22.313,6.378,23.246,6,24.231,6C26.31,6,28,7.69,28,9.769v9.345c0.327-0.125,0.655-0.249,1-0.335v-9.01
			C29,7.139,26.861,5,24.231,5c-1.247,0-2.427,0.479-3.322,1.347L19.45,7.763C10.267,16.679,5,29.133,5,41.933v8.806
			c0,1.087,0.555,2.073,1.484,2.637c0.494,0.299,1.045,0.45,1.598,0.45c0.487,0,0.976-0.117,1.428-0.353l14.011-7.31
			C26.9,44.399,29,40.935,29,37.123V24.262C28.616,24.52,28.288,24.846,28,25.207z"/>
	</g>
	
		<rect id="XMLID_2310_" x="43.25" y="27.047" transform="matrix(0.7677 0.6408 -0.6408 0.7677 28.7434 -21.2978)" fill="#37474F" width="1" height="3.905"/>
	<g id="XMLID_2265_">
		<g id="XMLID_2306_">
			<path id="XMLID_2309_" fill="#37474F" d="M35,9.769C35,7.69,36.69,6,38.769,6c0.985,0,1.918,0.378,2.625,1.065l1.459,1.416
				c7.911,7.68,12.849,18.042,13.922,28.955c0.384,0.353,0.75,0.723,1.089,1.119c-0.838-11.591-5.94-22.663-14.313-30.792
				l-1.459-1.416C41.195,5.479,40.016,5,38.769,5C36.139,5,34,7.139,34,9.769v9.01c0.345,0.086,0.673,0.21,1,0.334V9.769z"/>
			<path id="XMLID_2308_" fill="#37474F" d="M36.184,41.613C35.429,40.266,35,38.732,35,37.123V25.207
				c-0.288-0.36-0.616-0.687-1-0.945v12.861c0,2.057,0.628,4.002,1.722,5.644C35.858,42.373,36.012,41.988,36.184,41.613z"/>
		</g>
		<g id="XMLID_2301_">
			<circle id="XMLID_2305_" fill="#84FFFF" cx="48" cy="47" r="11.5"/>
			<path id="XMLID_2302_" fill="#37474F" d="M48,59c-6.617,0-12-5.383-12-12s5.383-12,12-12s12,5.383,12,12S54.617,59,48,59z M48,36
				c-6.065,0-11,4.935-11,11s4.935,11,11,11s11-4.935,11-11S54.065,36,48,36z"/>
		</g>
		<g id="XMLID_2266_">
			<g id="XMLID_2282_">
				<g id="XMLID_2298_">
					<path id="XMLID_2300_" fill="#CCFF90" d="M51.381,39.75L44.619,54.25L51.381,39.75z"/>
					
						<rect id="XMLID_2299_" x="47.599" y="39.022" transform="matrix(0.9062 0.4228 -0.4228 0.9062 24.2945 -15.9496)" fill="#37474F" width="1" height="15.531"/>
				</g>
				<g id="XMLID_2295_">
					<path id="XMLID_2297_" fill="#CCFF90" d="M55.518,44.264l-15.035,5.473L55.518,44.264z"/>
					
						<rect id="XMLID_2296_" x="47.262" y="39.382" transform="matrix(0.3378 0.9412 -0.9412 0.3378 75.9753 -13.7536)" fill="#37474F" width="1" height="15.473"/>
				</g>
				<g id="XMLID_2287_">
					<path id="XMLID_2294_" fill="#CCFF90" d="M55.25,50.381l-14.501-6.762L55.25,50.381z"/>
					
						<rect id="XMLID_2288_" x="40" y="46.5" transform="matrix(0.9063 0.4226 -0.4226 0.9063 24.3595 -15.8817)" fill="#37474F" width="16" height="1"/>
				</g>
				<g id="XMLID_2283_">
					<path id="XMLID_2285_" fill="#CCFF90" d="M50.736,54.518l-5.473-15.035L50.736,54.518z"/>
					
						<rect id="XMLID_2284_" x="40" y="46.5" transform="matrix(0.342 0.9397 -0.9397 0.342 75.7475 -14.1807)" fill="#37474F" width="16" height="1"/>
				</g>
			</g>
			<g id="XMLID_2270_">
				<circle id="XMLID_2280_" fill="#FF8A80" cx="48" cy="47" r="5"/>
				<path id="XMLID_2271_" fill="#37474F" d="M48,52.5c-3.032,0-5.5-2.467-5.5-5.5s2.468-5.5,5.5-5.5s5.5,2.467,5.5,5.5
					S51.032,52.5,48,52.5z M48,42.5c-2.481,0-4.5,2.019-4.5,4.5s2.019,4.5,4.5,4.5s4.5-2.019,4.5-4.5S50.481,42.5,48,42.5z"/>
			</g>
			<rect id="XMLID_2269_" x="47" y="45" fill="#37474F" width="1" height="1"/>
			<rect id="XMLID_2268_" x="50" y="47" fill="#37474F" width="1" height="1"/>
			<rect id="XMLID_2267_" x="46" y="48" fill="#37474F" width="1" height="1"/>
		</g>
	</g>
	<g id="XMLID_2240_">
		<g id="XMLID_2258_">
			<circle id="XMLID_2263_" fill="#FF5252" cx="12.5" cy="31.5" r="1"/>
			<path id="XMLID_2259_" fill="#37474F" d="M12.5,33c-0.827,0-1.5-0.673-1.5-1.5s0.673-1.5,1.5-1.5s1.5,0.673,1.5,1.5
				S13.327,33,12.5,33z M12.5,31c-0.275,0-0.5,0.224-0.5,0.5s0.225,0.5,0.5,0.5s0.5-0.224,0.5-0.5S12.775,31,12.5,31z"/>
		</g>
		<g id="XMLID_2252_">
			<circle id="XMLID_2257_" fill="#FF5252" cx="22.5" cy="17.5" r="1"/>
			<path id="XMLID_2253_" fill="#37474F" d="M22.5,19c-0.827,0-1.5-0.673-1.5-1.5s0.673-1.5,1.5-1.5s1.5,0.673,1.5,1.5
				S23.327,19,22.5,19z M22.5,17c-0.275,0-0.5,0.224-0.5,0.5s0.225,0.5,0.5,0.5s0.5-0.224,0.5-0.5S22.775,17,22.5,17z"/>
		</g>
		<g id="XMLID_2247_">
			<circle id="XMLID_2251_" fill="#FF5252" cx="16" cy="42" r="1.5"/>
			<path id="XMLID_2248_" fill="#37474F" d="M16,44c-1.103,0-2-0.897-2-2s0.897-2,2-2s2,0.897,2,2S17.103,44,16,44z M16,41
				c-0.552,0-1,0.449-1,1s0.448,1,1,1s1-0.449,1-1S16.552,41,16,41z"/>
		</g>
		<g id="XMLID_2241_">
			<circle id="XMLID_2245_" fill="#FF5252" cx="16" cy="22" r="1.5"/>
			<path id="XMLID_2242_" fill="#37474F" d="M16,24c-1.103,0-2-0.897-2-2s0.897-2,2-2s2,0.897,2,2S17.103,24,16,24z M16,21
				c-0.552,0-1,0.449-1,1s0.448,1,1,1s1-0.449,1-1S16.552,21,16,21z"/>
		</g>
	</g>
	<g id="XMLID_2214_">
		<g id="XMLID_2234_">
			<circle id="XMLID_2239_" fill="#FF5252" cx="50.5" cy="31.5" r="1"/>
			<path id="XMLID_2235_" fill="#37474F" d="M50.5,33c-0.827,0-1.5-0.673-1.5-1.5s0.673-1.5,1.5-1.5s1.5,0.673,1.5,1.5
				S51.327,33,50.5,33z M50.5,31c-0.275,0-0.5,0.224-0.5,0.5s0.225,0.5,0.5,0.5s0.5-0.224,0.5-0.5S50.775,31,50.5,31z"/>
		</g>
		<g id="XMLID_2229_">
			<circle id="XMLID_2233_" fill="#FF5252" cx="40.5" cy="17.5" r="1"/>
			<path id="XMLID_2230_" fill="#37474F" d="M40.5,19c-0.827,0-1.5-0.673-1.5-1.5s0.673-1.5,1.5-1.5s1.5,0.673,1.5,1.5
				S41.327,19,40.5,19z M40.5,17c-0.275,0-0.5,0.224-0.5,0.5s0.225,0.5,0.5,0.5s0.5-0.224,0.5-0.5S40.775,17,40.5,17z"/>
		</g>
		<g id="XMLID_2215_">
			<circle id="XMLID_2219_" fill="#FF5252" cx="47" cy="22" r="1.5"/>
			<path id="XMLID_2216_" fill="#37474F" d="M47,24c-1.103,0-2-0.897-2-2s0.897-2,2-2s2,0.897,2,2S48.103,24,47,24z M47,21
				c-0.552,0-1,0.449-1,1s0.448,1,1,1s1-0.449,1-1S47.552,21,47,21z"/>
		</g>
	</g>
</g>
</svg>
