<?xml version="1.0" encoding="utf-8"?>
<!-- Generator: Adobe Illustrator 16.0.0, SVG Export Plug-In . SVG Version: 6.00 Build 0)  -->
<!DOCTYPE svg PUBLIC "-//W3C//DTD SVG 1.1//EN" "http://www.w3.org/Graphics/SVG/1.1/DTD/svg11.dtd">
<svg version="1.1" id="_x3C_Layer_x3E_" xmlns="http://www.w3.org/2000/svg" xmlns:xlink="http://www.w3.org/1999/xlink" x="0px"
	 y="0px" width="64px" height="64px" viewBox="0 0 64 64" enable-background="new 0 0 64 64" xml:space="preserve">
<g id="male_x2C__man_x2C__doctor">
	<g>
		<g>
			<path fill="#FFFFFF" d="M49.837,42.166C43.884,40.64,32.709,37.703,32.006,37c-0.682,0.682-11.878,3.621-17.856,5.154
				c-2.31,0.592-4.152,2.317-4.901,4.58l-0.537,1.625c0,0,8.218,9.141,23.295,9.141s23.283-9.119,23.283-9.119l-0.565-1.675
				C53.966,44.462,52.132,42.755,49.837,42.166z"/>
		</g>
	</g>
	<path fill="#ECEFF1" d="M49.837,43.666c-5.953-1.526-17.128-4.463-17.831-5.166c-0.682,0.682-11.878,3.621-17.856,5.154
		c-2.31,0.592-4.152,2.317-4.901,4.58L9.081,48.74c1.747,1.723,9.692,8.76,22.925,8.76c13.213,0,21.146-7.001,22.907-8.733
		l-0.189-0.561C53.966,45.962,52.132,44.255,49.837,43.666z"/>
	<g>
		<g>
			<path fill="#18FFFF" d="M55.116,48.648c0.056-0.09,0.118-0.177,0.173-0.268c-0.003-0.002-0.006-0.004-0.008-0.007
				C55.227,48.466,55.172,48.558,55.116,48.648z"/>
		</g>
	</g>
	<g>
		<g>
			<g>
				<rect x="26.506" y="34.25" fill="#E6CAA0" width="11" height="13.25"/>
			</g>
		</g>
	</g>
	<g>
		<path fill="#FFFFFF" d="M31.756,56.688h1.342l4.471-15.144c-0.653,1.185-2.19,2.956-5.563,2.956c-2.92,0-4.463-1.329-5.25-2.456
			l4.25,14.456L31.756,56.688z"/>
	</g>
	<g id="creative_idea_5_">
		<g>
			<g>
				<path fill="#84FFFF" d="M32.5,47l4.5-5H27l4.5,5l-2.791,5.372l0.449,5.014c0.921,0.072,1.868,0.114,2.848,0.114
					c0.976,0,1.919-0.041,2.836-0.112l0.449-5.016L32.5,47z"/>
			</g>
		</g>
		<g>
			<g>
				<path fill="#FFFFFF" d="M32.41,41.812c3.188-0.843,4.625-2.967,5.214-4.224l1.318,1.977l-2.608,6.955L32.41,41.812z"/>
			</g>
			<g>
				<path fill="#FFFFFF" d="M25.059,39.564l1.316-1.975c0.589,1.262,2.023,3.393,5.213,4.225l-3.922,4.705L25.059,39.564z"/>
			</g>
		</g>
	</g>
	<g>
		<g>
			<path fill="#FFE0B2" d="M32.006,37.25c-4.178,0-8.219-5.611-8.474-10.034c-0.015-0.265-0.233-0.472-0.499-0.472
				c-0.02,0-0.041,0.002-0.063,0.005c-0.26-0.018-0.965-0.234-0.965-0.499v-5c0-0.275,0.725,1.5,1,1.5c0.276,0-0.5-3-0.5-3
				c0-4.688,4.813-8.5,9.5-8.5s9.5,3.813,9.5,8.5c0,0-0.776,3-0.5,3c0.275,0,1-1.775,1-1.5v5c0,0.265-0.706,0.481-0.966,0.499
				c-0.021-0.003-0.042-0.005-0.062-0.005c-0.266,0-0.484,0.207-0.499,0.472C40.225,31.639,36.184,37.25,32.006,37.25z"/>
		</g>
	</g>
	<g>
		<g>
			<g>
				<path fill="#FFFFFF" d="M22.654,22.459c-0.371-1.296-0.736-3.198-0.736-5.68c0-6.244,2.973-9.279,9.088-9.279
					c3.527,0,5.678,0.677,6.973,2.192l0.15,0.176h0.23c2.513,0,3.734,2.261,3.734,6.911c0,2.271-0.326,4.096-0.678,5.4
					c0-1.867-0.095-4.136-1.564-6.707c-0.35-0.612-0.826-0.924-1.416-0.924c-0.663,0-1.377,0.394-2.282,0.893
					c-1.454,0.801-3.445,1.897-6.265,1.897c-2.684,0-4.078-0.651-4.911-1.04c-0.379-0.176-0.652-0.304-0.929-0.304
					c-0.796,0-0.9,0.866-1.01,1.784C22.816,19.628,22.729,21.131,22.654,22.459z"/>
			</g>
		</g>
		<g>
			<path fill="#CFD8DC" d="M38.947,11.092h-0.461l-0.299-0.167C36.995,9.53,34.962,9,31.594,9c-5.563,0-8.3,2.563-8.563,7.948
				c0.032-0.579,0.244-1.022,1.018-0.953c0,0,1.285,0.745,1.705,0.941C26.551,17.308,27.893,17,30.466,17
				c2.691,0,4.544-1.182,6.028-2c0.968-0.533,1.15-0.451,1.941-0.451c0.537,0,2.069,1.889,2.57,2.891
				c0.69,1.38,0.318,2.555,0.098,3.476c0.052,0.031,0.107,0.059,0.156,0.093c0.346-1.165,0.922-2.93,0.922-3.32
				C42.182,11.275,39.747,11.092,38.947,11.092z"/>
		</g>
	</g>
	<g>
		<g>
			<path fill="#FFFFFF" d="M39.566,43.5l3-1.25l-0.5-3.25l-4.506-1.25l-4.509,19.711c0.995-0.028,1.958-0.095,2.89-0.196
				L41.566,45.5L39.566,43.5z"/>
		</g>
		<g>
			<path fill="#FFFFFF" d="M22,39l-0.5,3.25l3,1.25l-2,2l5.628,11.771c0.932,0.101,1.894,0.165,2.888,0.192l-4.51-19.713L22,39z"/>
		</g>
	</g>
	<g>
		<g>
			<g>
				<g>
					<circle fill="#ECEFF1" cx="46.5" cy="55" r="3"/>
				</g>
				<g>
					<g>
						<g>
							<circle fill="#CFD8DC" cx="46.5" cy="55" r="1"/>
						</g>
					</g>
				</g>
			</g>
		</g>
		<g>
			<g>
				<g>
					<g>
						<path fill="#CFD8DC" d="M19.5,58.5c0-0.55,0.45-1,1-1l0,0c0.55,0,1,0.45,1,1l0,0c0,0.55-0.45,1-1,1l0,0
							C19.95,59.5,19.5,59.05,19.5,58.5L19.5,58.5z"/>
					</g>
				</g>
			</g>
			<g>
				<g>
					<g>
						<path fill="#CFD8DC" d="M13.5,58.5c0-0.55,0.45-1,1-1l0,0c0.55,0,1,0.45,1,1l0,0c0,0.55-0.45,1-1,1l0,0
							C13.95,59.5,13.5,59.05,13.5,58.5L13.5,58.5z"/>
					</g>
				</g>
			</g>
		</g>
	</g>
	<g id="male_x2C__man_x2C__doctor_1_">
		<g>
			<polygon fill="#37474F" points="34.374,44.169 31.999,46.809 29.624,44.169 28.977,44.945 30.896,47.077 29.329,50.094 
				29.673,51.599 31.999,47.122 34.371,51.688 34.716,50.183 33.103,47.077 35.021,44.945 			"/>
		</g>
		<g>
			<g>
				<g>
					<path fill="#37474F" d="M31.005,8c3.368,0,5.401,0.622,6.594,2.018l0.299,0.351h0.461c0.8,0,3.234,0,3.234,6.411
						c0,0.551-0.02,1.073-0.055,1.568c-0.237-0.98-0.625-2.023-1.253-3.123c-0.556-0.972-1.313-1.176-1.851-1.176
						c-0.791,0-1.556,0.421-2.523,0.954c-1.484,0.817-3.332,1.836-6.023,1.836c-2.573,0-3.904-0.621-4.7-0.992
						c-0.421-0.196-0.752-0.352-1.139-0.352h-0.001c-1.239,0-1.394,1.285-1.506,2.224c-0.027,0.217-0.051,0.428-0.073,0.635
						c-0.033-0.494-0.052-1.019-0.052-1.574C22.417,10.79,25.146,8,31.005,8L31.005,8z M31.005,7c-7.941,0-9.588,5.015-9.588,9.779
						c0,5.264,1.588,8.221,1.588,8.221c0.166-1.917,0.176-4.22,0.529-7.161c0.121-1.008,0.221-1.344,0.514-1.344
						c0.589,0,1.957,1.344,5.84,1.344c4.617,0,7.068-2.79,8.547-2.79c0.387,0,0.707,0.19,0.982,0.672
						c2.117,3.706,1.254,6.945,1.588,9.279c0,0,1.588-3.125,1.588-8.221c0-3.088-0.529-7.411-4.234-7.411
						C36.813,7.56,34.237,7,31.005,7L31.005,7z"/>
				</g>
			</g>
		</g>
		<g>
			<path fill="#37474F" d="M32.419,57.979l4.77-20.852l5.322,1.477l0.608,3.956l-2.672,1.114l1.722,1.722l-5.897,12.335l-0.277,0.03
				c-0.952,0.104-1.938,0.171-2.929,0.199L32.419,57.979z M37.931,38.372l-4.247,18.565c0.65-0.03,1.295-0.077,1.927-0.141
				l5.352-11.193l-2.278-2.278l3.328-1.386l-0.392-2.544L37.931,38.372z"/>
			<g>
				<path fill="#37474F" d="M35.861,45.173l-2.587-3.104c1.938-0.681,3.175-1.826,3.953-2.868l0.332-1.451l0.948,0.263l-0.961-1.44
					l-0.377,0.804c-0.531,1.134-1.872,3.155-4.889,3.952l-0.759,0.2l4.059,4.87L35.861,45.173z"/>
				<path fill="#37474F" d="M26.505,37.75l0.363,1.587c0.783,1.01,1.995,2.09,3.852,2.736l-2.531,3.037l0.28,1.226l4.007-4.807
					l-0.763-0.198c-3.013-0.786-4.354-2.814-4.886-3.953l-0.376-0.805l-0.975,1.462L26.505,37.75z"/>
				<g>
					<path fill="#37474F" d="M37.999,37.872V34h-0.38c-0.291,0.355-0.601,0.688-0.921,1h0.301v5.2l0.561-2.45L37.999,37.872z"/>
					<path fill="#37474F" d="M26.999,39.91V35h0.313c-0.32-0.312-0.63-0.645-0.921-1h-0.392v3.891l0.506-0.141L26.999,39.91z"/>
				</g>
				<path fill="#37474F" d="M31.646,57.98l-0.645-0.018c-0.998-0.027-1.983-0.094-2.928-0.195l-0.277-0.03l-5.9-12.341l1.722-1.722
					l-2.672-1.114l0.608-3.956l5.322-1.477L31.646,57.98z M28.457,56.802c0.627,0.063,1.271,0.108,1.925,0.138l-4.248-18.567
					l-3.689,1.023l-0.392,2.544l3.328,1.386l-2.278,2.278L28.457,56.802z"/>
			</g>
		</g>
		<g>
			<g>
				<g>
					<path fill="#37474F" d="M41.005,26.25c-0.01,0-0.018-0.005-0.026-0.006h-0.001c-0.529,0-0.968,0.414-0.998,0.942
						c-0.268,4.648-4.367,9.563-7.975,9.563s-7.707-4.915-7.975-9.563c-0.03-0.528-0.469-0.942-0.998-0.942h-0.001
						c-0.009,0.001-0.017,0.006-0.026,0.006c-0.55,0-1-0.45-1-1v1c0,0.55,0.45,1,1,1c0.01,0,0.018-0.006,0.027-0.006
						c0.28,4.867,4.62,10.506,8.973,10.506s8.692-5.639,8.973-10.506c0.01,0,0.018,0.006,0.027,0.006c0.55,0,1-0.45,1-1v-1
						C42.005,25.8,41.555,26.25,41.005,26.25z"/>
				</g>
			</g>
		</g>
		<g>
			<g>
				<path fill="#37474F" d="M46.999,52h-1v-9.5c0-3.032-2.468-5.5-5.5-5.5h-1.5v-1h1.5c3.584,0,6.5,2.916,6.5,6.5V52z"/>
				<g>
					<g>
						<g>
							<path fill="#37474F" d="M42.218,39.65v1.038c0.817,0.22,1.719,0.459,2.67,0.709c-0.081-0.396-0.207-0.773-0.368-1.133
								C43.713,40.051,42.936,39.844,42.218,39.65z"/>
							<path fill="#37474F" d="M55.196,46.546c-0.815-2.414-2.772-4.232-5.236-4.864c-1.534-0.394-2.946-0.76-4.251-1.103
								c0.109,0.353,0.184,0.72,0.231,1.095c1.162,0.304,2.408,0.627,3.771,0.977c2.135,0.548,3.831,2.124,4.537,4.216l0.468,1.387
								c-0.63,0.634-2.754,2.614-6.211,4.531c0.251,0.228,0.458,0.496,0.62,0.796c4.228-2.37,6.491-4.817,6.534-4.865l0.195-0.217
								L55.196,46.546z"/>
						</g>
						<path fill="#37474F" d="M46.499,58.5c-1.93,0-3.5-1.57-3.5-3.5s1.57-3.5,3.5-3.5s3.5,1.57,3.5,3.5S48.429,58.5,46.499,58.5z
							 M46.499,52.5c-1.379,0-2.5,1.121-2.5,2.5s1.121,2.5,2.5,2.5s2.5-1.121,2.5-2.5S47.878,52.5,46.499,52.5z"/>
					</g>
					<g>
						<g>
							<g>
								<path fill="#37474F" d="M46.499,56.5c-0.827,0-1.5-0.673-1.5-1.5s0.673-1.5,1.5-1.5s1.5,0.673,1.5,1.5
									S47.326,56.5,46.499,56.5z M46.499,54.5c-0.275,0-0.5,0.225-0.5,0.5s0.225,0.5,0.5,0.5s0.5-0.225,0.5-0.5
									S46.774,54.5,46.499,54.5z"/>
							</g>
						</g>
					</g>
				</g>
			</g>
			<g>
				<path fill="#37474F" d="M17.029,41.927c1.66-0.432,3.149-0.825,4.47-1.179v-1.037c-1.273,0.342-2.691,0.717-4.239,1.121
					C17.147,41.184,17.068,41.549,17.029,41.927z"/>
				<path fill="#37474F" d="M17.999,46.5h-1v-4c0-3.584,2.916-6.5,6.5-6.5h1.5v1h-1.5c-3.032,0-5.5,2.468-5.5,5.5V46.5z"/>
				<g>
					<path fill="#37474F" d="M9.279,48.23l0.442-1.339c0.699-2.112,2.4-3.702,4.551-4.253c0.606-0.155,1.179-0.303,1.742-0.449
						c0.018-0.364,0.06-0.722,0.135-1.067c-0.681,0.176-1.388,0.358-2.125,0.548c-2.482,0.636-4.445,2.471-5.252,4.907l-0.628,1.9
						l0.193,0.216c0.027,0.03,0.951,1.027,2.685,2.352c0.031-0.38,0.1-0.748,0.205-1.103C10.248,49.165,9.582,48.535,9.279,48.23z"
						/>
					<path fill="#37474F" d="M12.52,50.904v1.213c2.079,1.402,4.91,2.955,8.442,4.118c0.013-0.078,0.037-0.153,0.037-0.235v-0.787
						C17.35,53.979,14.518,52.322,12.52,50.904z"/>
					<g>
						<path fill="#37474F" d="M42.031,55.518C39.139,56.398,35.797,57,32.005,57c-3.702,0-6.969-0.581-9.818-1.431v1.054
							C25.052,57.449,28.327,58,32.005,58c3.868,0,7.285-0.609,10.248-1.508C42.131,56.187,42.063,55.857,42.031,55.518z"/>
					</g>
				</g>
				<path fill="#37474F" d="M17.499,46c-3.032,0-5.5,2.468-5.5,5.5V56c0,1.05,0.651,1.946,1.569,2.316
					c-0.011-0.357,0.149-0.71,0.469-0.896c-0.601-0.196-1.038-0.755-1.038-1.42v-4.5c0-2.481,2.019-4.5,4.5-4.5s4.5,2.019,4.5,4.5
					V56c0,0.644-0.409,1.188-0.979,1.401c0.295,0.209,0.43,0.563,0.398,0.918c0.924-0.367,1.58-1.266,1.58-2.319v-4.5
					C22.999,48.468,20.531,46,17.499,46z"/>
				<g>
					<g>
						<g>
							<path fill="#37474F" d="M20.499,57c0.827,0,1.5,0.673,1.5,1.5s-0.673,1.5-1.5,1.5s-1.5-0.673-1.5-1.5S19.672,57,20.499,57z
								 M20.499,59c0.275,0,0.5-0.224,0.5-0.5c0-0.275-0.225-0.5-0.5-0.5s-0.5,0.225-0.5,0.5C19.999,58.776,20.224,59,20.499,59z"/>
						</g>
					</g>
				</g>
				<g>
					<g>
						<g>
							<path fill="#37474F" d="M14.499,57c0.827,0,1.5,0.673,1.5,1.5s-0.673,1.5-1.5,1.5s-1.5-0.673-1.5-1.5S13.672,57,14.499,57z
								 M14.499,59c0.275,0,0.5-0.224,0.5-0.5c0-0.275-0.225-0.5-0.5-0.5s-0.5,0.225-0.5,0.5C13.999,58.776,14.224,59,14.499,59z"/>
						</g>
					</g>
				</g>
			</g>
		</g>
	</g>
</g>
</svg>
