<?xml version="1.0" encoding="utf-8"?>
<!-- Generator: Adobe Illustrator 16.0.0, SVG Export Plug-In . SVG Version: 6.00 Build 0)  -->
<!DOCTYPE svg PUBLIC "-//W3C//DTD SVG 1.1//EN" "http://www.w3.org/Graphics/SVG/1.1/DTD/svg11.dtd">
<svg version="1.1" id="_x3C_Layer_x3E_" xmlns="http://www.w3.org/2000/svg" xmlns:xlink="http://www.w3.org/1999/xlink" x="0px"
	 y="0px" width="64px" height="64px" viewBox="0 0 64 64" enable-background="new 0 0 64 64" xml:space="preserve">
<g id="Clean_x2C__cleaning_x2C__hand_x2C__hygiene_x2C__wash_x2C__washing_3_">
	<path id="XMLID_3466_" fill="#FFE57F" d="M56.711,30.152c-0.436-1.092-1.689-1.619-2.826-1.321l-16.034,4.192l13.814-4.006
		c0.983-0.285,1.58-1.244,1.451-2.223c-0.441-0.256-0.976-0.348-1.506-0.218l-21.353,5.419c-0.821,0.208-1.514-0.635-1.149-1.4
		l0.128-0.268l-0.263,0.064l4.308-9.039c0.844-1.474,0.637-3.264-0.393-4.518l-7.357,9.858l-3.832,4.804L19,38.479L5,41.135v12.688
		l16.597-4.645c0,0,5.3,2.121,9.729,0.836l20.263-5.877c1.01-0.293,1.726-1.276,1.554-2.313c-0.197-1.197-1.361-1.938-2.504-1.655
		l-10.482,2.6l13.887-4.475c1.126-0.362,1.895-1.494,1.662-2.654c-0.269-1.336-1.607-2.12-2.878-1.752l2.404-0.697
		C56.515,32.816,57.214,31.416,56.711,30.152z"/>
	<g id="XMLID_3460_">
		<path id="XMLID_3465_" fill="#FFFFFF" d="M57.114,45.727C57.933,45.316,59,43.979,59,43c0-1.002-1.093-2.359-1.943-2.758
			C57.33,39.9,57.5,39.472,57.5,39c0-1.104-0.896-2-2-2c-0.519,0-0.987,0.203-1.343,0.526c-1.789-4.129-5.98-7.026-10.865-7.026
			C36.779,30.5,31.5,35.648,31.5,42c0,4.986,3.261,9.221,7.813,10.814C39.119,53.168,39,53.568,39,54c0,1.381,1.119,2.5,2.5,2.5
			c0.698,0,1.327-0.287,1.781-0.748C43.756,56.781,44.791,57.5,46,57.5c1.541,0,2.796-1.166,2.966-2.662
			C49.54,55.251,50.239,55.5,51,55.5c1.933,0,3.5-1.566,3.5-3.5c0-0.375-0.074-0.73-0.184-1.068C54.537,50.975,54.766,51,55,51
			c1.933,0,3.5-1.566,3.5-3.5C58.5,46.365,57.951,46.367,57.114,45.727z"/>
		<path id="XMLID_3464_" fill="#37474F" d="M46,58c-1.36,0-2.608-0.799-3.18-2.035l0.908-0.419C44.137,56.43,45.028,57,46,57
			c1.302,0,2.396-1.016,2.492-2.311l0.998,0.074C49.355,56.578,47.822,58,46,58z"/>
		<path id="XMLID_3463_" fill="#37474F" d="M51,56c-1.463,0-2.809-0.798-3.511-2.082l0.877-0.48C48.894,54.401,49.902,55,51,55
			c1.654,0,3-1.346,3-3c0-0.311-0.048-0.619-0.143-0.916l-0.256-0.803l0.828,0.16C54.614,50.479,54.805,50.5,55,50.5
			c1.654,0,3-1.346,3-3c0-0.681-0.223-1.322-0.643-1.855l0.785-0.619C58.703,45.736,59,46.592,59,47.5c0,2.205-1.794,4-4,4
			c-0.011,0-0.021,0-0.031,0C54.989,51.666,55,51.832,55,52C55,54.205,53.206,56,51,56z"/>
		<path id="XMLID_3462_" fill="#37474F" d="M56.5,46v-1c1.103,0,2-0.896,2-2c0-0.771-0.452-1.482-1.151-1.811l-0.572-0.268
			l0.393-0.496c0.217-0.273,0.331-0.594,0.331-0.926c0-0.566-0.313-1.078-0.817-1.336l0.455-0.891
			c0.841,0.431,1.362,1.283,1.362,2.227c0,0.373-0.084,0.734-0.245,1.068C59.024,41.126,59.5,42.031,59.5,43
			C59.5,44.654,58.154,46,56.5,46z"/>
		<path id="XMLID_3461_" fill="#37474F" d="M41.5,57c-1.331,0-2.484-0.855-2.871-2.127l0.957-0.291C39.844,55.43,40.612,56,41.5,56
			c0.82,0,1.549-0.492,1.855-1.252l0.928,0.373C43.822,56.263,42.73,57,41.5,57z"/>
	</g>
	<g id="XMLID_3452_">
		<path id="XMLID_3459_" fill="#FFFFFF" d="M58.292,26.664c0.13-0.386,0.208-0.783,0.208-1.164c0-1.277-1-3.375-3.776-3.471
			C54.901,21.554,55,21.039,55,20.5c0-2.485-2.015-4.5-4.5-4.5c-0.417,0-0.819,0.058-1.201,0.164
			c0.284-1.616-0.384-4.004-2.007-4.416c-1.622-0.412-3.209,0.043-4.061,1.236C42.423,11.787,41.054,11,39.5,11
			c-1.73,0-3.215,0.987-3.968,2.419C34.799,12.558,33.72,12,32.5,12c-1.998,0-3.64,1.469-3.938,3.383C28.09,15.146,27.564,15,27,15
			c-1.933,0-3.5,1.566-3.5,3.5S25.067,22,27,22c1.628,0-0.75,2.117-0.75,5.094c0,4.746,5.7,8.594,12.731,8.594
			c6.274,0,11.478-3.066,12.526-7.1c0.441,0.256,3.446,0.537,3.992,0.537c0.036,0,0.069-0.014,0.104-0.016
			c0.26,0.805,1.005,1.391,1.896,1.391c1.104,0,2-0.896,2-2C59.5,27.678,59.002,26.972,58.292,26.664z"/>
		<path id="XMLID_3458_" fill="#37474F" d="M23.466,20.375C23.161,19.801,23,19.152,23,18.5c0-2.205,1.794-4,4-4
			c0.407,0,0.811,0.065,1.206,0.195c0.563-1.884,2.28-3.195,4.294-3.195c1.322,0,2.572,0.578,3.429,1.586l-0.762,0.647
			C34.501,12.949,33.528,12.5,32.5,12.5c-1.729,0-3.177,1.245-3.443,2.96l-0.105,0.678l-0.613-0.308
			C27.901,15.611,27.451,15.5,27,15.5c-1.654,0-3,1.346-3,3c0,0.49,0.121,0.977,0.349,1.406L23.466,20.375z"/>
		<path id="XMLID_3457_" fill="#37474F" d="M35.5,15.5h-1c0-2.757,2.243-5,5-5c1.629,0,3.16,0.797,4.097,2.133l-0.818,0.574
			c-0.75-1.068-1.976-1.707-3.278-1.707C37.294,11.5,35.5,13.295,35.5,15.5z"/>
		<path id="XMLID_3456_" fill="#37474F" d="M48.684,17.967l-0.672-0.742C48.64,16.656,49,15.846,49,15c0-1.654-1.346-3-3-3
			c-0.954,0-1.861,0.461-2.425,1.234c-0.136,0.186-0.249,0.385-0.337,0.594l-0.922-0.391c0.118-0.277,0.27-0.545,0.45-0.793
			C43.519,11.615,44.728,11,46,11c2.206,0,4,1.795,4,4C50,16.128,49.521,17.209,48.684,17.967z"/>
		<path id="XMLID_3455_" fill="#37474F" d="M58.717,30.674l-0.488-0.873C58.704,29.534,59,29.035,59,28.5
			c0-0.602-0.357-1.143-0.912-1.38l-0.432-0.185l0.158-0.443C57.939,26.142,58,25.816,58,25.5c0-1.654-1.346-3-3-3
			c-0.035,0-0.069,0.006-0.104,0.011l-0.92,0.077l0.273-0.734c0.166-0.444,0.25-0.899,0.25-1.354c0-2.205-1.794-4-4-4
			c-0.301,0-0.6,0.033-0.891,0.1l-0.221-0.976c0.362-0.082,0.736-0.124,1.111-0.124c2.757,0,5,2.243,5,5
			c0,0.341-0.037,0.682-0.111,1.019C57.413,21.715,59,23.426,59,25.5c0,0.303-0.039,0.605-0.118,0.917
			C59.573,26.875,60,27.652,60,28.5C60,29.396,59.509,30.229,58.717,30.674z"/>
		<path id="XMLID_3454_" fill="#37474F" d="M43.319,17.969C42.48,17.212,42,16.13,42,15c0-2.205,1.794-4,4-4s4,1.795,4,4h-1
			c0-1.654-1.346-3-3-3s-3,1.346-3,3c0,0.848,0.36,1.658,0.989,2.227L43.319,17.969z"/>
		<path id="XMLID_3453_" fill="#37474F" d="M23.842,20.955C23.291,20.246,23,19.397,23,18.5c0-2.205,1.794-4,4-4v1
			c-1.654,0-3,1.346-3,3c0,0.674,0.218,1.311,0.631,1.842L23.842,20.955z"/>
	</g>
	<path id="XMLID_3451_" fill="#E6CAA0" d="M52.429,42.729c0.542-0.916,0.288-2.096-0.583-2.707L33.611,27.217l9.541-2.295
		c2.053-0.354,3.49-2.227,3.303-4.301l-0.049-0.534l-12.79,0.743c0,0-5.149-0.072-5.825-0.004l-6.541,2.158L5,11.209l0.223,17.135
		l8.555,5.313c0,0,2.719,5.745,6.6,8.236l18.285,10.748c0.971,0.572,2.221,0.247,2.792-0.725c0.555-0.943,0.265-2.157-0.657-2.748
		l-9.154-5.389l12.612,7.584c1.083,0.651,2.49,0.299,3.139-0.787c0.631-1.058,0.31-2.426-0.728-3.092l2.106,1.352
		c1.083,0.696,2.528,0.356,3.188-0.749c0.619-1.036,0.323-2.374-0.675-3.053l-13.818-9.399l12.104,7.771
		C50.544,44.031,51.84,43.725,52.429,42.729z"/>
	<g id="XMLID_3447_">
		<path id="XMLID_3450_" fill="#37474F" d="M14.229,33.442c-0.041-0.087-0.106-0.16-0.188-0.211l-8.551-5.31l-0.527,0.85
			l8.428,5.232c0.151,0.308,0.552,1.089,1.15,2.074l1.063-0.192C14.744,34.514,14.241,33.467,14.229,33.442z"/>
		<path id="XMLID_3449_" fill="#37474F" d="M21.336,22.43L5.289,10.802l-0.586,0.81L20.957,23.39
			c0.129,0.095,0.298,0.122,0.449,0.069l3.464-1.143l1.042-1.396L21.336,22.43z"/>
		<path id="XMLID_3448_" fill="#37474F" d="M52.859,42.983c0.67-1.134,0.352-2.614-0.727-3.372L34.805,27.444l8.433-2.029
			c2.293-0.396,3.925-2.521,3.716-4.84l-0.049-0.534c-0.024-0.268-0.266-0.472-0.527-0.453L33.623,20.33
			c-0.386-0.006-2.941-0.039-4.581-0.031v1c1.253-0.006,3.188,0.012,4.604,0.03l12.307-0.715l0.005,0.052
			c0.163,1.803-1.106,3.455-2.922,3.77l-9.541,2.295c-0.19,0.047-0.337,0.2-0.374,0.394c-0.037,0.192,0.043,0.39,0.204,0.503
			L51.559,40.43c0.653,0.459,0.847,1.357,0.439,2.045c-0.215,0.363-0.559,0.617-0.969,0.714c-0.415,0.098-0.834,0.024-1.188-0.202
			l-12.104-7.771c-0.231-0.148-0.537-0.084-0.688,0.145c-0.151,0.229-0.091,0.535,0.136,0.689l13.818,9.398
			c0.778,0.529,1.01,1.576,0.526,2.384c-0.248,0.417-0.646,0.708-1.119,0.819c-0.476,0.112-0.96,0.029-1.368-0.234l-14.007-8.994
			c-0.233-0.149-0.542-0.082-0.691,0.15s-0.082,0.541,0.15,0.691l11.9,7.641c0.814,0.523,1.064,1.584,0.568,2.416
			c-0.244,0.41-0.635,0.699-1.099,0.816c-0.462,0.117-0.943,0.045-1.353-0.202L31.9,43.351c-0.236-0.142-0.543-0.065-0.686,0.17
			s-0.067,0.542,0.168,0.687l9.2,5.596c0.68,0.477,0.861,1.396,0.413,2.094c-0.222,0.346-0.565,0.585-0.968,0.672
			c-0.403,0.089-0.813,0.014-1.173-0.217l-18.208-10.88c-1.152-0.739-2.205-1.789-3.11-2.886l-1.125,0.203
			c1.035,1.315,2.29,2.623,3.708,3.533l18.208,10.879c0.415,0.267,0.887,0.404,1.367,0.404c0.182,0,0.365-0.02,0.547-0.06
			c0.662-0.145,1.229-0.538,1.596-1.109c0.34-0.529,0.46-1.136,0.38-1.715l1.779,1.07c0.638,0.384,1.389,0.496,2.111,0.314
			c0.724-0.181,1.332-0.634,1.715-1.274c0.331-0.555,0.449-1.177,0.376-1.77l0.303,0.195c0.639,0.41,1.397,0.539,2.138,0.366
			c0.739-0.175,1.361-0.629,1.749-1.28c0.754-1.262,0.393-2.896-0.822-3.723l-0.599-0.408c0.098-0.011,0.195-0.028,0.292-0.051
			C51.937,44.001,52.505,43.582,52.859,42.983z"/>
	</g>
	<path id="XMLID_3446_" fill="#FFFFFF" d="M43.5,24.5c-0.536,0-1.03,0.172-1.438,0.46c-0.525-0.871-1.472-1.46-2.563-1.46
		c-1.563,0-2.832,1.199-2.973,2.727C36.213,26.084,35.867,26,35.5,26c-1.381,0-2.5,1.119-2.5,2.5s1.119,2.5,2.5,2.5
		c1.191,0,2.185-0.836,2.436-1.951C38.392,29.33,38.925,29.5,39.5,29.5c0.826,0,1.573-0.334,2.115-0.874
		c0.459,0.531,1.128,0.874,1.885,0.874c1.381,0,2.5-1.119,2.5-2.5S44.881,24.5,43.5,24.5z"/>
	<g id="XMLID_3437_">
		<path id="XMLID_3445_" fill="#FFFFFF" d="M56.762,30.295c-0.373-1.146-1.576-1.805-2.743-1.499l-16.168,4.228l13.814-4.006
			c1.11-0.322,1.836-1.195,1.495-2.301c-0.313-1.018-1.357-1.621-2.396-1.389l-21.79,5.064l4.308-9.039
			c1.036-1.809,0.511-4.109-1.208-5.288l-0.441-0.303l-7.469,10.008l-3.832,4.804L18,36.979L5,39.32v14.502l16.597-4.645
			c0,0,5.3,2.121,9.729,0.836l20.432-6.619c1.06-0.379,1.612-1.547,1.232-2.607c-0.369-1.031-1.289-0.883-2.352-0.619l-10.482,2.6
			l14.007-4.514c1.204-0.387,1.863-1.679,1.472-2.881c-0.382-1.172-1.624-1.83-2.808-1.486l2.404-0.697
			C56.467,32.83,57.161,31.52,56.762,30.295z"/>
		<path id="XMLID_3444_" fill="#FFE0B2" d="M56.711,29.652c-0.436-1.092-1.689-1.619-2.826-1.321l-16.034,4.192l13.9-3.734
			c0.989-0.266,1.604-1.213,1.495-2.193c-0.437-0.264-0.97-0.367-1.502-0.248l-21.486,5.148c-0.821,0.208-1.514-0.635-1.149-1.4
			l0.128-0.268l-0.263,0.064l4.308-9.039c0.844-1.474,0.637-3.264-0.393-4.518l-7.357,9.858l-3.832,4.804L19,38.479L5,41.135v12.188
			l16.597-4.645c0,0,5.3,2.121,9.729,0.836l20.295-6.58c0.99-0.354,1.644-1.381,1.408-2.405c-0.271-1.183-1.478-1.851-2.602-1.498
			l-10.271,3.237l13.887-4.475c1.126-0.362,1.895-1.494,1.662-2.654c-0.269-1.336-1.607-2.12-2.878-1.752l2.404-0.697
			C56.515,32.316,57.214,30.916,56.711,29.652z"/>
		<g id="XMLID_3442_">
			<path id="XMLID_3443_" fill="#E6CAA0" d="M52.902,40.587c-0.21,0.608-0.704,1.119-1.344,1.349l-20.233,6.578
				c-4.429,1.285-9.729-0.836-9.729-0.836L5,52.322V41.135l0,0v12.688l16.597-4.645c0,0,5.3,2.121,9.729,0.836l20.325-6.581
				c0.99-0.354,1.644-1.38,1.409-2.405C53.023,40.871,52.969,40.725,52.902,40.587z"/>
		</g>
		<g id="XMLID_3440_">
			<path id="XMLID_3441_" fill="#37474F" d="M32.549,28.021l1.095-0.254c0.294-0.741,1.013-1.268,1.856-1.268
				c0.278,0,0.555,0.061,0.821,0.182l0.64,0.289l0.064-0.699C37.145,24.977,38.208,24,39.5,24c0.876,0,1.674,0.455,2.135,1.219
				l0.277,0.459l0.438-0.31C42.692,25.127,43.09,25,43.5,25c0.349,0,0.671,0.098,0.957,0.255l1.235-0.288
				C45.145,24.376,44.368,24,43.5,24c-0.451,0-0.89,0.102-1.293,0.297C41.546,23.477,40.564,23,39.5,23
				c-1.603,0-2.954,1.069-3.361,2.57c-0.21-0.047-0.424-0.07-0.639-0.07C34.01,25.5,32.779,26.596,32.549,28.021z"/>
		</g>
		<g id="XMLID_3438_">
			<path id="XMLID_3439_" fill="#37474F" d="M5.135,54.304l-0.27-0.963l16.597-4.645c0.105-0.029,0.219-0.022,0.32,0.017
				c0.051,0.021,5.193,2.04,9.403,0.821l20.417-6.615c0.373-0.134,0.683-0.415,0.858-0.786c0.176-0.372,0.196-0.789,0.058-1.177
				c-0.279-0.782-1.123-1.197-1.91-0.95l-10.303,3.238c-0.266,0.084-0.544-0.063-0.627-0.324c-0.083-0.264,0.062-0.544,0.323-0.629
				l14.007-4.513c0.455-0.146,0.825-0.461,1.042-0.886c0.218-0.426,0.256-0.91,0.107-1.365c-0.299-0.92-1.261-1.428-2.192-1.16
				l-13.583,3.938c-0.268,0.077-0.543-0.075-0.62-0.341c-0.076-0.266,0.076-0.543,0.341-0.619l15.987-4.637
				c0.467-0.135,0.85-0.447,1.077-0.877c0.227-0.43,0.27-0.92,0.118-1.382c-0.29-0.896-1.235-1.413-2.141-1.171l-16.168,4.229
				c-0.271,0.068-0.539-0.09-0.61-0.355c-0.07-0.267,0.088-0.539,0.354-0.611l13.891-3.734c0.407-0.109,0.744-0.373,0.948-0.743
				c0.203-0.37,0.247-0.796,0.123-1.198c-0.234-0.764-1.024-1.227-1.81-1.049l-21.786,5.063c-0.193,0.044-0.384-0.023-0.503-0.173
				c-0.12-0.149-0.145-0.354-0.062-0.528l4.308-9.039c0.917-1.605,0.453-3.637-1.04-4.661l-0.045-0.03l-7.182,9.622l-3.791,4.753
				l-2.303,6.327c-0.061,0.167-0.206,0.29-0.381,0.321l-13,2.342l-0.178-0.984l12.718-2.291l2.232-6.134
				c0.019-0.051,0.045-0.099,0.079-0.142l3.832-4.803l7.459-9.995c0.16-0.216,0.461-0.267,0.684-0.113l0.441,0.303
				c1.919,1.315,2.516,3.929,1.358,5.948l-3.844,8.068l20.779-4.828c1.296-0.29,2.6,0.471,2.987,1.729
				c0.19,0.617,0.143,1.266-0.135,1.844l0.389-0.102c1.427-0.369,2.891,0.431,3.346,1.828c0.235,0.721,0.169,1.488-0.186,2.16
				c-0.355,0.671-0.952,1.157-1.682,1.369l-0.347,0.1c0.495,0.336,0.886,0.834,1.086,1.449c0.23,0.708,0.171,1.465-0.168,2.128
				s-0.916,1.155-1.626,1.384l-1.875,0.604c0.457,0.293,0.822,0.734,1.02,1.285c0.229,0.639,0.195,1.328-0.095,1.941
				s-0.802,1.076-1.439,1.305L31.479,50.49c-4.173,1.209-8.959-0.433-9.907-0.787L5.135,54.304z"/>
		</g>
	</g>
	<g id="XMLID_3432_">
		<circle id="XMLID_3436_" fill="#FFFFFF" cx="46" cy="7.5" r="1.5"/>
		<path id="XMLID_3433_" fill="#37474F" d="M46,9.5c-1.103,0-2-0.896-2-2s0.897-2,2-2s2,0.896,2,2S47.103,9.5,46,9.5z M46,6.5
			c-0.552,0-1,0.449-1,1s0.448,1,1,1s1-0.449,1-1S46.552,6.5,46,6.5z"/>
	</g>
	<g id="XMLID_3427_">
		<circle id="XMLID_3431_" fill="#FFFFFF" cx="51.5" cy="5.5" r="1.5"/>
		<path id="XMLID_3428_" fill="#37474F" d="M51.5,7.5c-1.103,0-2-0.896-2-2s0.897-2,2-2s2,0.896,2,2S52.603,7.5,51.5,7.5z M51.5,4.5
			c-0.552,0-1,0.449-1,1s0.448,1,1,1s1-0.449,1-1S52.052,4.5,51.5,4.5z"/>
	</g>
	<g id="XMLID_3422_">
		<circle id="XMLID_3426_" fill="#FFFFFF" cx="55.5" cy="11.5" r="2"/>
		<path id="XMLID_3423_" fill="#37474F" d="M55.5,14c-1.379,0-2.5-1.121-2.5-2.5S54.121,9,55.5,9s2.5,1.121,2.5,2.5
			S56.879,14,55.5,14z M55.5,10c-0.827,0-1.5,0.673-1.5,1.5s0.673,1.5,1.5,1.5s1.5-0.673,1.5-1.5S56.327,10,55.5,10z"/>
	</g>
	<g id="XMLID_3417_">
		<path id="XMLID_3421_" fill="#FFFFFF" d="M33.5,47c-0.883,0-1.624,0.576-1.889,1.37c-0.542-0.537-1.288-0.87-2.111-0.87
			c-1.132,0-2.105,0.635-2.616,1.561c-0.36-0.346-0.846-0.561-1.384-0.561c-1.104,0-2,0.896-2,2s0.896,2,2,2
			c0.538,0,1.023-0.215,1.384-0.561c0.511,0.926,1.484,1.561,2.616,1.561c1.585,0,2.868-1.232,2.979-2.789
			C32.778,50.891,33.125,51,33.5,51c1.104,0,2-0.896,2-2S34.604,47,33.5,47z"/>
		<path id="XMLID_3418_" fill="#37474F" d="M29.5,54c-1.075,0-2.082-0.504-2.739-1.344C26.38,52.881,25.947,53,25.5,53
			c-1.379,0-2.5-1.121-2.5-2.5s1.121-2.5,2.5-2.5c0.447,0,0.88,0.119,1.261,0.344C27.418,47.504,28.425,47,29.5,47
			c0.702,0,1.373,0.206,1.944,0.59c0.457-0.671,1.219-1.09,2.056-1.09c1.379,0,2.5,1.121,2.5,2.5s-1.121,2.5-2.5,2.5
			c-0.214,0-0.428-0.029-0.636-0.086C32.459,52.908,31.092,54,29.5,54z M27.007,51.128l0.314,0.569C27.765,52.501,28.6,53,29.5,53
			c1.298,0,2.388-1.021,2.479-2.324l0.058-0.813l0.698,0.419c0.241,0.145,0.499,0.218,0.765,0.218c0.827,0,1.5-0.673,1.5-1.5
			s-0.673-1.5-1.5-1.5c-0.641,0-1.209,0.413-1.414,1.028l-0.255,0.764l-0.571-0.567C30.787,48.258,30.163,48,29.5,48
			c-0.9,0-1.735,0.498-2.179,1.302l-0.313,0.569l-0.47-0.45C26.255,49.149,25.886,49,25.5,49c-0.827,0-1.5,0.673-1.5,1.5
			s0.673,1.5,1.5,1.5c0.386,0,0.755-0.149,1.038-0.422L27.007,51.128z"/>
	</g>
	<g id="XMLID_3412_">
		<circle id="XMLID_3416_" fill="#FFFFFF" cx="34.5" cy="56.5" r="2"/>
		<path id="XMLID_3413_" fill="#37474F" d="M34.5,59c-1.379,0-2.5-1.121-2.5-2.5s1.121-2.5,2.5-2.5s2.5,1.121,2.5,2.5
			S35.879,59,34.5,59z M34.5,55c-0.827,0-1.5,0.673-1.5,1.5s0.673,1.5,1.5,1.5s1.5-0.673,1.5-1.5S35.327,55,34.5,55z"/>
	</g>
</g>
</svg>
