<?xml version="1.0" encoding="utf-8"?>
<!-- Generator: Adobe Illustrator 16.0.0, SVG Export Plug-In . SVG Version: 6.00 Build 0)  -->
<!DOCTYPE svg PUBLIC "-//W3C//DTD SVG 1.1//EN" "http://www.w3.org/Graphics/SVG/1.1/DTD/svg11.dtd">
<svg version="1.1" id="_x3C_Layer_x3E_" xmlns="http://www.w3.org/2000/svg" xmlns:xlink="http://www.w3.org/1999/xlink" x="0px"
	 y="0px" width="64px" height="64px" viewBox="0 0 64 64" enable-background="new 0 0 64 64" xml:space="preserve">
<g id="medicament">
	<g>
		<g>
			<g>
				<g>
					<g>
						<path fill="#FFFFFF" d="M58.5,54.5c0,1.65-1.35,3-3,3h-35c-1.65,0-3-1.35-3-3v-23c0-1.65,1.35-3,3-3h35c1.65,0,3,1.35,3,3
							V54.5z"/>
					</g>
				</g>
			</g>
			<g>
				<path fill="#FFD740" d="M58,32.5c0-1.378-1.121-2.5-2.5-2.5h-35c-1.379,0-2.5,1.122-2.5,2.5v23c0,1.378,1.121,2.5,2.5,2.5H54
					c1.379,0,4-1.122,4-2.5V32.5z"/>
			</g>
		</g>
		<g>
			<g>
				<circle fill="#FFD740" cx="31" cy="52" r="3"/>
			</g>
			<g>
				<path fill="#37474F" d="M31,55.5c-1.93,0-3.5-1.57-3.5-3.5s1.57-3.5,3.5-3.5s3.5,1.57,3.5,3.5S32.93,55.5,31,55.5z M31,49.5
					c-1.379,0-2.5,1.122-2.5,2.5s1.121,2.5,2.5,2.5s2.5-1.122,2.5-2.5S32.379,49.5,31,49.5z"/>
			</g>
		</g>
		<g>
			<g>
				<circle fill="#FFD740" cx="31" cy="34" r="3"/>
			</g>
			<g>
				<path fill="#37474F" d="M31,37.5c-1.93,0-3.5-1.57-3.5-3.5s1.57-3.5,3.5-3.5s3.5,1.57,3.5,3.5S32.93,37.5,31,37.5z M31,31.5
					c-1.379,0-2.5,1.122-2.5,2.5s1.121,2.5,2.5,2.5s2.5-1.122,2.5-2.5S32.379,31.5,31,31.5z"/>
			</g>
		</g>
		<g>
			<g>
				<circle fill="#FFD740" cx="31" cy="43" r="3"/>
			</g>
			<g>
				<path fill="#37474F" d="M31,46.5c-1.93,0-3.5-1.57-3.5-3.5s1.57-3.5,3.5-3.5s3.5,1.57,3.5,3.5S32.93,46.5,31,46.5z M31,40.5
					c-1.379,0-2.5,1.122-2.5,2.5s1.121,2.5,2.5,2.5s2.5-1.122,2.5-2.5S32.379,40.5,31,40.5z"/>
			</g>
		</g>
		<g>
			<g>
				<circle fill="#FFFFFF" cx="41" cy="52" r="3"/>
			</g>
			<g>
				<path fill="#37474F" d="M41,55.5c-1.93,0-3.5-1.57-3.5-3.5s1.57-3.5,3.5-3.5s3.5,1.57,3.5,3.5S42.93,55.5,41,55.5z M41,49.5
					c-1.379,0-2.5,1.122-2.5,2.5s1.121,2.5,2.5,2.5s2.5-1.122,2.5-2.5S42.379,49.5,41,49.5z"/>
			</g>
		</g>
		<g>
			<g>
				<circle fill="#FFFFFF" cx="41" cy="34" r="3"/>
			</g>
			<g>
				<path fill="#37474F" d="M41,37.5c-1.93,0-3.5-1.57-3.5-3.5s1.57-3.5,3.5-3.5s3.5,1.57,3.5,3.5S42.93,37.5,41,37.5z M41,31.5
					c-1.379,0-2.5,1.122-2.5,2.5s1.121,2.5,2.5,2.5s2.5-1.122,2.5-2.5S42.379,31.5,41,31.5z"/>
			</g>
		</g>
		<g>
			<g>
				<circle fill="#FFFFFF" cx="41" cy="43" r="3"/>
			</g>
			<g>
				<path fill="#37474F" d="M41,46.5c-1.93,0-3.5-1.57-3.5-3.5s1.57-3.5,3.5-3.5s3.5,1.57,3.5,3.5S42.93,46.5,41,46.5z M41,40.5
					c-1.379,0-2.5,1.122-2.5,2.5s1.121,2.5,2.5,2.5s2.5-1.122,2.5-2.5S42.379,40.5,41,40.5z"/>
			</g>
		</g>
		<g>
			<g>
				<circle fill="#FFFFFF" cx="51" cy="52" r="3"/>
			</g>
			<g>
				<path fill="#37474F" d="M51,55.5c-1.93,0-3.5-1.57-3.5-3.5s1.57-3.5,3.5-3.5s3.5,1.57,3.5,3.5S52.93,55.5,51,55.5z M51,49.5
					c-1.379,0-2.5,1.122-2.5,2.5s1.121,2.5,2.5,2.5s2.5-1.122,2.5-2.5S52.379,49.5,51,49.5z"/>
			</g>
		</g>
		<g>
			<g>
				<circle fill="#FFFFFF" cx="51" cy="34" r="3"/>
			</g>
			<g>
				<path fill="#37474F" d="M51,37.5c-1.93,0-3.5-1.57-3.5-3.5s1.57-3.5,3.5-3.5s3.5,1.57,3.5,3.5S52.93,37.5,51,37.5z M51,31.5
					c-1.379,0-2.5,1.122-2.5,2.5s1.121,2.5,2.5,2.5s2.5-1.122,2.5-2.5S52.379,31.5,51,31.5z"/>
			</g>
		</g>
		<g>
			<g>
				<circle fill="#FFFFFF" cx="51" cy="43" r="3"/>
			</g>
			<g>
				<path fill="#37474F" d="M51,46.5c-1.93,0-3.5-1.57-3.5-3.5s1.57-3.5,3.5-3.5s3.5,1.57,3.5,3.5S52.93,46.5,51,46.5z M51,40.5
					c-1.379,0-2.5,1.122-2.5,2.5s1.121,2.5,2.5,2.5s2.5-1.122,2.5-2.5S52.379,40.5,51,40.5z"/>
			</g>
		</g>
		<g>
			<g>
				
					<rect x="48.172" y="51.5" transform="matrix(0.7071 -0.7071 0.7071 0.7071 -21.832 51.2929)" fill="#37474F" width="5.657" height="1"/>
			</g>
			<g>
				
					<rect x="38.172" y="51.5" transform="matrix(0.7071 -0.7071 0.7071 0.7071 -24.7609 44.2218)" fill="#37474F" width="5.657" height="1"/>
			</g>
			<g>
				
					<rect x="48.172" y="42.5" transform="matrix(0.7071 -0.7071 0.7071 0.7071 -15.468 48.6569)" fill="#37474F" width="5.657" height="1"/>
			</g>
			<g>
				
					<rect x="38.172" y="42.5" transform="matrix(0.7071 -0.7071 0.7071 0.7071 -18.397 41.5858)" fill="#37474F" width="5.657" height="1"/>
			</g>
			<g>
				
					<rect x="48.172" y="33.5" transform="matrix(-0.7071 0.7071 -0.7071 -0.7071 111.1041 21.9792)" fill="#37474F" width="5.657" height="1"/>
			</g>
			<g>
				
					<rect x="38.172" y="33.5" transform="matrix(0.7071 -0.7071 0.7071 0.7071 -12.033 38.9497)" fill="#37474F" width="5.657" height="1"/>
			</g>
		</g>
	</g>
	<g>
		<g>
			<path fill="#FFFFFF" d="M30.5,57.5h-19c-2.209,0-4-1.791-4-4v-30h27v30C34.5,55.709,32.709,57.5,30.5,57.5z"/>
		</g>
		<g>
			<path fill="#B2FF59" d="M34,24H10v29.5c0,1.93,1.57,3.5,3.5,3.5h17c1.93,0,3.5-1.57,3.5-3.5V24z"/>
		</g>
		<g>
			<path fill="#CCFF90" d="M32,24H10v29.5c0,1.93,1.57,3.5,3.5,3.5h15c1.93,0,3.5-1.57,3.5-3.5V24z"/>
		</g>
		<g>
			<g>
				<path fill="#37474F" d="M55.5,28H36v1h19.5c1.379,0,2.5,1.122,2.5,2.5v23c0,1.378-1.121,2.5-2.5,2.5H34.739
					c-0.315,0.381-0.683,0.715-1.087,1H55.5c1.93,0,3.5-1.57,3.5-3.5v-23C59,29.57,57.43,28,55.5,28z"/>
			</g>
		</g>
		<g>
			<path fill="#37474F" d="M30.5,58h-19C9.019,58,7,55.981,7,53.5V23h28v30.5C35,55.981,32.981,58,30.5,58z M8,24v29.5
				c0,1.93,1.57,3.5,3.5,3.5h19c1.93,0,3.5-1.57,3.5-3.5V24H8z"/>
		</g>
	</g>
	<g>
		<g>
			<path fill="#FFFFFF" d="M7.5,16.5v-7c0-1.104,0.896-2,2-2h23c1.104,0,2,0.896,2,2v7H7.5z"/>
		</g>
		<g>
			<path fill="#ECEFF1" d="M9,16h25V9.5C34,8.673,33.327,8,32.5,8h-22C9.673,8,9,8.673,9,9.5V16z"/>
		</g>
		<g>
			<path fill="#37474F" d="M35,17H7V9.5C7,8.122,8.121,7,9.5,7h23C33.879,7,35,8.122,35,9.5V17z M8,16h26V9.5
				C34,8.673,33.327,8,32.5,8h-23C8.673,8,8,8.673,8,9.5V16z"/>
		</g>
	</g>
	<g>
		<g>
			<rect x="6.5" y="16.5" fill="#FFFFFF" width="29" height="3"/>
		</g>
		<g>
			<path fill="#37474F" d="M36,20H6v-4h30V20z M7,19h28v-2H7V19z"/>
		</g>
	</g>
	<g>
		<g>
			<rect x="5.5" y="19.5" fill="#CCFF90" width="31" height="5"/>
		</g>
		<g>
			<path fill="#37474F" d="M37,25H5v-6h32V25z M6,24h30v-4H6V24z"/>
		</g>
	</g>
	<g>
		<g>
			<rect x="7.5" y="31.5" fill="#FFFFFF" width="27" height="19"/>
		</g>
		<g>
			<path fill="#37474F" d="M35,51H7V31h28V51z M8,50h26V32H8V50z"/>
		</g>
	</g>
	<g>
		<g>
			<g>
				<g>
					<rect x="32" y="9" fill="#FFFFFF" width="1" height="6"/>
				</g>
			</g>
		</g>
		<g>
			<g>
				<g>
					<rect x="29" y="9" fill="#FFFFFF" width="1" height="6"/>
				</g>
			</g>
		</g>
		<g>
			<g>
				<g>
					<rect x="26" y="9" fill="#FFFFFF" width="1" height="6"/>
				</g>
			</g>
		</g>
		<g>
			<g>
				<g>
					<rect x="23" y="9" fill="#FFFFFF" width="1" height="6"/>
				</g>
			</g>
		</g>
		<g>
			<g>
				<g>
					<rect x="20" y="9" fill="#FFFFFF" width="1" height="6"/>
				</g>
			</g>
		</g>
		<g>
			<g>
				<g>
					<rect x="17" y="9" fill="#FFFFFF" width="1" height="6"/>
				</g>
			</g>
		</g>
		<g>
			<g>
				<g>
					<rect x="14" y="9" fill="#FFFFFF" width="1" height="6"/>
				</g>
			</g>
		</g>
		<g>
			<g>
				<g>
					<rect x="11" y="9" fill="#FFFFFF" width="1" height="6"/>
				</g>
			</g>
		</g>
		<g>
			<g>
				<g>
					<rect x="31" y="9" fill="#37474F" width="1" height="6"/>
				</g>
			</g>
		</g>
		<g>
			<g>
				<g>
					<rect x="28" y="9" fill="#37474F" width="1" height="6"/>
				</g>
			</g>
		</g>
		<g>
			<g>
				<g>
					<rect x="25" y="9" fill="#37474F" width="1" height="6"/>
				</g>
			</g>
		</g>
		<g>
			<g>
				<g>
					<rect x="22" y="9" fill="#37474F" width="1" height="6"/>
				</g>
			</g>
		</g>
		<g>
			<g>
				<g>
					<rect x="19" y="9" fill="#37474F" width="1" height="6"/>
				</g>
			</g>
		</g>
		<g>
			<g>
				<g>
					<rect x="16" y="9" fill="#37474F" width="1" height="6"/>
				</g>
			</g>
		</g>
		<g>
			<g>
				<g>
					<rect x="13" y="9" fill="#37474F" width="1" height="6"/>
				</g>
			</g>
		</g>
		<g>
			<g>
				<g>
					<rect x="10" y="9" fill="#37474F" width="1" height="6"/>
				</g>
			</g>
		</g>
	</g>
	<g>
		<rect x="10" y="32" fill="#ECEFF1" width="24" height="18"/>
	</g>
	<g>
		<g>
			<polygon fill="#B2FF59" points="27.5,38.5 23.5,38.5 23.5,34.5 18.5,34.5 18.5,38.5 14.5,38.5 14.5,43.5 18.5,43.5 18.5,47.5 
				23.5,47.5 23.5,43.5 27.5,43.5 			"/>
		</g>
		<g>
			<path fill="#37474F" d="M24,48h-6v-4h-4v-6h4v-4h6v4h4v6h-4V48z M19,47h4v-4h4v-4h-4v-4h-4v4h-4v4h4V47z"/>
		</g>
	</g>
	<g>
		<rect x="6" y="23" fill="#B2FF59" width="30" height="1"/>
	</g>
	<g>
		<rect x="6" y="20" fill="#FFFFFF" width="30" height="1"/>
	</g>
	<g>
		<rect x="6" y="20" fill="#FFFFFF" width="2" height="4"/>
	</g>
	<g>
		<rect x="32" y="32" fill="#CFD8DC" width="2" height="18"/>
	</g>
	<g>
		<rect x="10" y="25" fill="#B2FF59" width="24" height="1"/>
	</g>
</g>
</svg>
