<?xml version="1.0" encoding="utf-8"?>
<!-- Generator: Adobe Illustrator 16.0.0, SVG Export Plug-In . SVG Version: 6.00 Build 0)  -->
<!DOCTYPE svg PUBLIC "-//W3C//DTD SVG 1.1//EN" "http://www.w3.org/Graphics/SVG/1.1/DTD/svg11.dtd">
<svg version="1.1" id="_x3C_Layer_x3E_" xmlns="http://www.w3.org/2000/svg" xmlns:xlink="http://www.w3.org/1999/xlink" x="0px"
	 y="0px" width="64px" height="64px" viewBox="0 0 64 64" enable-background="new 0 0 64 64" xml:space="preserve">
<g id="crowded_x2C__people_x2C__prevent_x2C__social_distancing_x2C__extras_x2C__ban_1_">
	<g id="XMLID_3822_">
		<path id="XMLID_3826_" fill="#CFD8DC" d="M25,17.071L25,17.071c-1.381,0-2.5-1.119-2.5-2.5V14c0-1.381,1.119-2.5,2.5-2.5l0,0
			c1.381,0,2.5,1.119,2.5,2.5v0.571C27.5,15.952,26.381,17.071,25,17.071z"/>
		<path id="XMLID_3823_" fill="#37474F" d="M25,17.571c-1.654,0-3-1.346-3-3V14c0-1.654,1.346-3,3-3s3,1.346,3,3v0.571
			C28,16.226,26.654,17.571,25,17.571z M25,12c-1.103,0-2,0.896-2,2v0.571c0,1.103,0.897,2,2,2s2-0.897,2-2V14
			C27,12.896,26.103,12,25,12z"/>
	</g>
	<g id="XMLID_3817_">
		<path id="XMLID_3821_" fill="#CFD8DC" d="M39,17.071L39,17.071c-1.381,0-2.5-1.119-2.5-2.5V14c0-1.381,1.119-2.5,2.5-2.5l0,0
			c1.381,0,2.5,1.119,2.5,2.5v0.571C41.5,15.952,40.381,17.071,39,17.071z"/>
		<path id="XMLID_3818_" fill="#37474F" d="M39,17.571c-1.654,0-3-1.346-3-3V14c0-1.654,1.346-3,3-3s3,1.346,3,3v0.571
			C42,16.226,40.654,17.571,39,17.571z M39,12c-1.103,0-2,0.896-2,2v0.571c0,1.103,0.897,2,2,2s2-0.897,2-2V14
			C41,12.896,40.103,12,39,12z"/>
	</g>
	<g id="XMLID_3816_">
		<path fill="#84FFFF" d="M24.5,43.5V32V43.5L24.5,43.5c0,0.828,0.672,1.5,1.5,1.5s1.5-0.672,1.5-1.5V30.102
			c0-1.262-0.789-2.389-1.975-2.82L22,26v-2.279c0.609-0.549,1-1.336,1-2.221v-0.986c0-1.656-1.343-3-3-3s-3,1.344-3,3V21.5
			c0,0.885,0.391,1.672,1,2.221V26l-3.525,1.281c-1.186,0.432-1.975,1.559-1.975,2.82V43.5c0,0.828,0.672,1.5,1.5,1.5
			s1.5-0.672,1.5-1.5l0,0V32v11.5l0,0v7.936c1.193,1.014,2.481,1.918,3.849,2.701l1.347,0.721c1.217,0.604,2.487,1.115,3.805,1.52
			V43.5L24.5,43.5z"/>
	</g>
	<g id="XMLID_3815_">
		<path fill="#CCFF90" d="M48.5,43.5V32V43.5L48.5,43.5c0,0.828,0.672,1.5,1.5,1.5s1.5-0.672,1.5-1.5V30.102
			c0-1.262-0.789-2.389-1.975-2.82L46,26v-2.279c0.609-0.549,1-1.336,1-2.221v-0.986c0-1.656-1.343-3-3-3s-3,1.344-3,3V21.5
			c0,0.885,0.391,1.672,1,2.221V26l-3.525,1.281c-1.186,0.432-1.975,1.559-1.975,2.82V43.5c0,0.828,0.672,1.5,1.5,1.5
			s1.5-0.672,1.5-1.5l0,0V32v11.5l0,0v12.877c1.317-0.404,2.588-0.916,3.805-1.52l1.347-0.721c1.367-0.783,2.655-1.688,3.849-2.701
			V43.5L48.5,43.5z"/>
	</g>
	<g id="XMLID_3813_">
		<path id="XMLID_3814_" fill="#37474F" d="M14,45.5c-1.103,0-2-0.896-2-2V30.102c0-1.467,0.926-2.789,2.304-3.289L17.5,25.65
			v-1.717c-0.638-0.654-1-1.528-1-2.434v-0.986c0-1.93,1.57-3.5,3.5-3.5s3.5,1.57,3.5,3.5V21.5c0,0.905-0.362,1.779-1,2.434v1.717
			l3.196,1.162l-0.342,0.939L21.5,26.35v-2.852l0.165-0.148c0.538-0.484,0.835-1.142,0.835-1.85v-0.986c0-1.378-1.121-2.5-2.5-2.5
			s-2.5,1.122-2.5,2.5V21.5c0,0.708,0.297,1.365,0.835,1.85l0.165,0.148v2.852l-3.854,1.402C13.661,28.109,13,29.054,13,30.102V43.5
			c0,0.551,0.448,1,1,1s1-0.449,1-1V32h1v11.5C16,44.604,15.103,45.5,14,45.5z"/>
	</g>
	<g id="XMLID_3811_">
		<rect id="XMLID_3812_" x="24" y="44" fill="#37474F" width="1" height="12.326"/>
	</g>
	<g id="XMLID_3809_">
		<rect id="XMLID_3810_" x="43.5" y="43.5" fill="#37474F" width="1" height="11"/>
	</g>
	<g id="XMLID_3807_">
		<rect id="XMLID_3808_" x="19.5" y="43.5" fill="#37474F" width="1" height="11"/>
	</g>
	<g id="XMLID_3805_">
		<path id="XMLID_3806_" fill="#37474F" d="M20,25c-0.165,0-0.328-0.012-0.487-0.033l0.139-0.99C19.766,23.992,19.882,24,20,24
			c1.379,0,2.5-1.121,2.5-2.5v-0.986c0-1.378-1.121-2.5-2.5-2.5s-2.5,1.122-2.5,2.5V21.5h-1v-0.986c0-1.93,1.57-3.5,3.5-3.5
			s3.5,1.57,3.5,3.5V21.5C23.5,23.43,21.93,25,20,25z"/>
	</g>
	<g id="XMLID_3803_">
		<rect id="XMLID_3804_" x="39" y="44" fill="#37474F" width="1" height="12.326"/>
	</g>
	<g id="XMLID_3800_">
		<path id="XMLID_3802_" fill="#37474F" d="M41.5,23.934v1.717l-3.196,1.162C36.926,27.313,36,28.635,36,30.102h1
			c0-1.048,0.661-1.992,1.646-2.35L42.5,26.35v-2.852l-0.165-0.148c-0.366-0.33-0.61-0.744-0.736-1.195l-0.775,0.775
			C40.991,23.296,41.213,23.639,41.5,23.934z"/>
		<path id="XMLID_3801_" fill="#37474F" d="M49.696,26.813L46.5,25.65v-1.717c0.638-0.654,1-1.528,1-2.434v-0.986
			c0-1.158-0.573-2.18-1.443-2.817l-0.715,0.716c0.694,0.444,1.158,1.219,1.158,2.102V21.5c0,0.708-0.297,1.365-0.835,1.85
			L45.5,23.498v2.852l3.854,1.402C50.339,28.109,51,29.054,51,30.102V43.5c0,0.551-0.448,1-1,1s-1-0.449-1-1V32h-1v19.109h1v-5.878
			c0.294,0.171,0.636,0.269,1,0.269c1.103,0,2-0.896,2-2V30.102C52,28.635,51.074,27.313,49.696,26.813z"/>
	</g>
	<g id="XMLID_3794_">
		<g id="XMLID_3799_">
			<path fill="#ECEFF1" d="M36.5,41.5V30V41.5L36.5,41.5c0,0.828,0.672,1.5,1.5,1.5s1.5-0.672,1.5-1.5V28.102
				c0-1.262-0.789-2.389-1.975-2.82L34,24v-2.279c0.609-0.549,1-1.336,1-2.221v-0.986c0-1.656-1.343-3-3-3s-3,1.344-3,3V19.5
				c0,0.885,0.391,1.672,1,2.221V24l-3.525,1.281c-1.186,0.432-1.975,1.559-1.975,2.82V41.5c0,0.828,0.672,1.5,1.5,1.5
				s1.5-0.672,1.5-1.5l0,0V30v11.5l0,0v15.877l3.505,0.48L32,41.5l0.951,16.438l3.549-0.502V41.5L36.5,41.5z"/>
		</g>
		<g id="XMLID_3797_">
			<path id="XMLID_3798_" fill="#37474F" d="M32,23c-0.165,0-0.328-0.012-0.487-0.033l0.139-0.99C31.766,21.992,31.882,22,32,22
				c1.379,0,2.5-1.121,2.5-2.5v-0.986c0-1.378-1.121-2.5-2.5-2.5s-2.5,1.122-2.5,2.5V19.5h-1v-0.986c0-1.93,1.57-3.5,3.5-3.5
				s3.5,1.57,3.5,3.5V19.5C35.5,21.43,33.93,23,32,23z"/>
		</g>
		<g id="XMLID_3795_">
			<polygon id="XMLID_3796_" fill="#37474F" points="31.504,57.889 30.506,57.828 31.501,41.47 32.499,41.471 33.425,57.471 
				32.427,57.529 31.987,49.939 			"/>
		</g>
	</g>
	<g id="XMLID_3788_">
		<path id="XMLID_3793_" fill="#37474F" d="M40.516,20.363l3.334-3.334C42.042,17.107,40.594,18.557,40.516,20.363z"/>
		<path id="XMLID_3792_" fill="#37474F" d="M39,28.102V41.5c0,0.551-0.448,1-1,1s-1-0.449-1-1V30h-1v27.08h1V43.231
			c0.294,0.171,0.636,0.269,1,0.269c1.103,0,2-0.896,2-2V28.102c0-1.153-0.577-2.211-1.492-2.855l-0.72,0.719
			C38.526,26.412,39,27.218,39,28.102z"/>
		<path id="XMLID_3791_" fill="#37474F" d="M25,28.102c0-1.048,0.661-1.992,1.646-2.35L30.5,24.35v-2.852l-0.165-0.148
			c-0.538-0.484-0.835-1.142-0.835-1.85v-0.986c0-1.378,1.121-2.5,2.5-2.5s2.5,1.122,2.5,2.5V19.5c0,0.708-0.297,1.365-0.835,1.85
			L33.5,21.498v2.852l2.222,0.809l0.779-0.781L34.5,23.65v-1.717c0.638-0.654,1-1.528,1-2.434v-0.986c0-1.93-1.57-3.5-3.5-3.5
			s-3.5,1.57-3.5,3.5V19.5c0,0.905,0.362,1.779,1,2.434v1.717l-3.196,1.162C24.926,25.313,24,26.635,24,28.102v8.777l1-1V28.102z"/>
		<polygon id="XMLID_3790_" fill="#37474F" points="27,30 27,33.879 28,32.879 28,30 		"/>
		<path id="XMLID_3789_" fill="#37474F" d="M27,41.5c0,0.551-0.448,1-1,1s-1-0.449-1-1v-2.746l-1,1V41.5c0,1.104,0.897,2,2,2
			c0.364,0,0.706-0.098,1-0.269V57.08h1V35.754l-1,1V41.5z"/>
	</g>
	
		<rect id="XMLID_3787_" x="31" y="5.01" transform="matrix(0.7071 0.7071 -0.7071 0.7071 31.5 -13.0477)" fill="#37474F" width="1" height="52.981"/>
	<g id="XMLID_3785_">
		
			<rect id="XMLID_3786_" x="31.9" y="5.409" transform="matrix(0.7071 0.7071 -0.7071 0.7071 32.046 -13.5671)" fill="#FF8A80" width="1" height="52.98"/>
	</g>
	<g id="XMLID_3781_">
		<path id="XMLID_3782_" fill="#FF8A80" d="M32,58C17.663,58,6,46.336,6,32S17.663,6,32,6s26,11.664,26,26S46.337,58,32,58z M32,7
			C18.215,7,7,18.215,7,32s11.215,25,25,25s25-11.215,25-25S45.785,7,32,7z"/>
	</g>
	<g id="XMLID_3777_">
		<path id="XMLID_3778_" fill="#37474F" d="M32,59C17.112,59,5,46.888,5,32S17.112,5,32,5s27,12.112,27,27S46.888,59,32,59z M32,6
			C17.663,6,6,17.664,6,32s11.663,26,26,26s26-11.664,26-26S46.337,6,32,6z"/>
	</g>
</g>
</svg>
