<?xml version="1.0" encoding="utf-8"?>
<!-- Generator: Adobe Illustrator 16.0.0, SVG Export Plug-In . SVG Version: 6.00 Build 0)  -->
<!DOCTYPE svg PUBLIC "-//W3C//DTD SVG 1.1//EN" "http://www.w3.org/Graphics/SVG/1.1/DTD/svg11.dtd">
<svg version="1.1" id="_x3C_Layer_x3E_" xmlns="http://www.w3.org/2000/svg" xmlns:xlink="http://www.w3.org/1999/xlink" x="0px"
	 y="0px" width="64px" height="64px" viewBox="0 0 64 64" enable-background="new 0 0 64 64" xml:space="preserve">
<g id="emergency_call">
	<g>
		<g>
			<g>
				<circle fill="#84FFFF" cx="36.5" cy="27.5" r="22.5"/>
			</g>
		</g>
		<g>
			<g>
				<path fill="#37474F" d="M35.493,50.478c-0.684-0.029-1.375-0.09-2.054-0.18l0.131-0.991c0.65,0.086,1.312,0.144,1.966,0.172
					L35.493,50.478z M37.556,50.476l-0.045-0.999c0.657-0.03,1.318-0.089,1.965-0.177l0.135,0.991
					C38.934,50.383,38.242,50.445,37.556,50.476z M31.409,49.935c-0.669-0.151-1.338-0.335-1.989-0.545l0.307-0.951
					c0.623,0.201,1.264,0.376,1.903,0.521L31.409,49.935z M41.639,49.923l-0.223-0.975c0.636-0.145,1.276-0.322,1.902-0.525
					l0.309,0.951C42.973,49.587,42.304,49.772,41.639,49.923z M27.486,48.667c-0.629-0.268-1.255-0.569-1.859-0.894l0.475-0.881
					c0.577,0.311,1.176,0.599,1.777,0.855L27.486,48.667z M45.558,48.647l-0.395-0.919c0.602-0.258,1.199-0.546,1.776-0.858
					l0.475,0.88C46.812,48.076,46.187,48.378,45.558,48.647z M23.855,46.715c-0.57-0.376-1.132-0.784-1.67-1.211l0.623-0.783
					c0.514,0.409,1.052,0.799,1.598,1.159L23.855,46.715z M49.184,46.689l-0.553-0.833c0.546-0.363,1.083-0.754,1.596-1.163
					l0.623,0.781C50.314,45.902,49.754,46.311,49.184,46.689z M20.631,44.148c-0.496-0.473-0.977-0.974-1.428-1.489L19.955,42
					c0.432,0.493,0.891,0.972,1.365,1.424L20.631,44.148z M52.402,44.117l-0.691-0.722c0.474-0.454,0.932-0.934,1.362-1.427
					l0.754,0.657C53.377,43.141,52.897,43.643,52.402,44.117z M17.914,41.05c-0.403-0.551-0.787-1.13-1.141-1.719l0.857-0.515
					c0.338,0.563,0.705,1.116,1.09,1.644L17.914,41.05z M55.114,41.013l-0.809-0.589c0.384-0.527,0.75-1.081,1.087-1.646
					l0.859,0.513C55.898,39.882,55.516,40.461,55.114,41.013z M15.791,37.517c-0.301-0.621-0.574-1.258-0.814-1.895l0.936-0.353
					c0.229,0.608,0.491,1.217,0.779,1.812L15.791,37.517z M57.23,37.475l-0.9-0.434c0.283-0.589,0.544-1.2,0.775-1.815l0.936,0.352
					C57.8,36.22,57.527,36.859,57.23,37.475z M14.336,33.663c-0.182-0.655-0.337-1.332-0.462-2.01l0.984-0.181
					c0.118,0.649,0.267,1.296,0.44,1.923L14.336,33.663z M58.679,33.615l-0.965-0.266c0.174-0.629,0.321-1.276,0.438-1.923
					l0.984,0.178C59.014,32.28,58.86,32.957,58.679,33.615z M13.596,29.609c-0.062-0.679-0.094-1.373-0.095-2.06l1-0.001
					c0.001,0.658,0.031,1.32,0.091,1.97L13.596,29.609z M59.409,29.56l-0.996-0.088c0.058-0.654,0.087-1.317,0.087-1.972l1-0.095
					V27.5C59.5,28.184,59.47,28.877,59.409,29.56z M14.583,25.575l-0.996-0.086c0.059-0.681,0.15-1.369,0.271-2.045l0.984,0.176
					C14.727,24.266,14.64,24.924,14.583,25.575z M58.403,25.435c-0.061-0.65-0.151-1.308-0.271-1.953l0.984-0.182
					c0.124,0.675,0.219,1.362,0.282,2.043L58.403,25.435z M15.273,21.695l-0.965-0.263c0.18-0.659,0.393-1.32,0.633-1.964
					l0.938,0.35C15.648,20.434,15.445,21.065,15.273,21.695z M57.69,21.56c-0.177-0.632-0.385-1.262-0.618-1.874l0.936-0.355
					c0.243,0.639,0.46,1.298,0.646,1.959L57.69,21.56z M16.65,18.001l-0.902-0.433c0.296-0.615,0.623-1.227,0.975-1.818l0.859,0.511
					C17.246,16.827,16.933,17.413,16.65,18.001z M56.289,17.876c-0.285-0.585-0.602-1.168-0.942-1.732l0.855-0.517
					c0.356,0.59,0.688,1.199,0.985,1.812L56.289,17.876z M18.668,14.613l-0.811-0.587c0.401-0.554,0.833-1.097,1.282-1.615
					l0.756,0.655C19.465,13.563,19.052,14.083,18.668,14.613z M54.252,14.502c-0.388-0.528-0.804-1.046-1.236-1.537l0.75-0.661
					c0.453,0.514,0.888,1.055,1.293,1.607L54.252,14.502z M21.256,11.638l-0.693-0.721c0.495-0.475,1.016-0.934,1.549-1.362
					l0.627,0.779C22.228,10.745,21.729,11.184,21.256,11.638z M51.645,11.543c-0.472-0.449-0.974-0.884-1.489-1.293l0.621-0.783
					c0.539,0.428,1.063,0.883,1.558,1.352L51.645,11.543z M24.33,9.17l-0.555-0.832c0.572-0.381,1.167-0.739,1.767-1.064
					l0.477,0.879C25.445,8.463,24.877,8.806,24.33,9.17z M48.556,9.094c-0.549-0.36-1.12-0.699-1.697-1.008l0.473-0.882
					c0.603,0.323,1.199,0.677,1.773,1.054L48.556,9.094z M27.794,7.29l-0.396-0.918c0.633-0.273,1.282-0.519,1.93-0.73l0.311,0.95
					C29.019,6.794,28.398,7.029,27.794,7.29z M45.079,7.235c-0.608-0.257-1.231-0.488-1.851-0.687l0.305-0.952
					c0.648,0.208,1.3,0.45,1.935,0.718L45.079,7.235z M31.539,6.062l-0.225-0.975c0.671-0.154,1.354-0.279,2.029-0.372l0.135,0.991
					C32.833,5.795,32.181,5.915,31.539,6.062z M41.324,6.03c-0.639-0.143-1.293-0.258-1.941-0.343l0.129-0.991
					c0.68,0.089,1.362,0.209,2.031,0.359L41.324,6.03z M35.443,5.525l-0.047-0.999c0.365-0.018,0.73-0.038,1.104-0.026
					c0.319,0,0.64,0.006,0.957,0.02l-0.043,0.999c-0.313-0.013-0.639-0.021-0.943-0.019C36.128,5.5,35.785,5.509,35.443,5.525z"/>
			</g>
		</g>
	</g>
	<g>
		<g>
			<circle fill="#B2FF59" cx="36.5" cy="27.5" r="11.5"/>
		</g>
		<g>
			<path fill="#37474F" d="M36.5,39.5c-6.617,0-12-5.383-12-12s5.383-12,12-12s12,5.383,12,12S43.117,39.5,36.5,39.5z M36.5,16.5
				c-6.065,0-11,4.935-11,11s4.935,11,11,11s11-4.935,11-11S42.565,16.5,36.5,16.5z"/>
		</g>
	</g>
	<g id="Hot_phone_2_">
		<g id="handset_3_">
			<g>
				<g>
					<g>
						<g>
							<path fill="#FFFFFF" d="M44,58.5c1.395,0,4.178-2.676,7.445-7.159c0.225-0.309,0.309-0.678,0.235-1.039
								c-0.075-0.374-0.308-0.694-0.653-0.901l-11.57-6.943c-0.222-0.133-0.469-0.203-0.715-0.203c-0.507,0-0.952,0.283-1.189,0.759
								l-2.142,4.284l-0.058,0.057c-0.924,0.924-1.953,1.393-3.057,1.393c-1.52,0-3.119-0.861-4.893-2.635l-9.516-9.516
								c-3.049-3.049-3.467-5.725-1.242-7.949l0.057-0.058l4.284-2.142c0.353-0.176,0.603-0.47,0.707-0.827s0.05-0.74-0.151-1.078
								L14.6,12.973c-0.249-0.417-0.67-0.666-1.125-0.666c-0.279,0-0.552,0.095-0.788,0.273C8.187,15.972,5.5,18.746,5.5,20
								c0,2.668,0,8.918,11.89,23.687l2.964,2.96C35.176,58.5,41.136,58.5,44,58.5z"/>
						</g>
					</g>
				</g>
				<g>
					<g>
						<path fill="#FF5252" d="M6,20.979c0-0.651,1.472-2.863,6.988-7.021c0.148-0.111,0.316-0.172,0.486-0.172
							c0.281,0,0.535,0.154,0.696,0.422l6.942,11.571c0.131,0.216,0.166,0.458,0.102,0.681s-0.225,0.406-0.451,0.52l-4.211,2.105
							l-0.145,0.072l-0.115,0.115c-1.33,1.33-1.811,2.911-1.391,4.573c0.33,1.307,1.191,2.642,2.633,4.083l9.516,9.516
							c1.871,1.872,3.588,2.781,5.246,2.781c1.242,0,2.389-0.518,3.41-1.539l0.115-0.115l0.072-0.145L38,44.215
							c0.15-0.303,0.429-0.482,0.742-0.482c0.158,0,0.312,0.045,0.459,0.133l11.569,6.941c0.224,0.135,0.372,0.338,0.421,0.573
							c0.031,0.157,0.031,0.396-0.15,0.645C47.3,57.158,44.91,58,44,58c-2.805,0-8.638,0.979-23.332-10.767l-2.923-2.923
							C6.001,29.709,6,23.592,6,20.979z"/>
					</g>
				</g>
				<g>
					<g>
						<g>
							<path fill="#37474F" d="M13.475,12.807c0.281,0,0.535,0.154,0.696,0.422L21.113,24.8c0.131,0.216,0.166,0.458,0.102,0.681
								S20.99,25.887,20.764,26l-4.211,2.105l-0.145,0.072l-0.115,0.115c-1.33,1.33-1.811,2.911-1.391,4.573
								c0.33,1.307,1.191,2.642,2.633,4.083l9.516,9.516c1.871,1.872,3.588,2.781,5.246,2.781c1.242,0,2.389-0.518,3.41-1.539
								l0.115-0.115l0.072-0.145L38,43.236c0.15-0.303,0.429-0.482,0.742-0.482c0.158,0,0.312,0.045,0.459,0.133l11.569,6.941
								c0.224,0.135,0.372,0.338,0.421,0.573c0.031,0.157,0.031,0.396-0.15,0.645C47.3,56.179,44.91,58,44,58
								c-2.805,0-8.638,0-23.332-11.746l-2.923-2.923C6.001,28.73,6,22.613,6,20c0-0.651,1.472-2.863,6.988-7.021
								C13.137,12.867,13.305,12.807,13.475,12.807L13.475,12.807z M13.475,11.807c-0.373,0-0.754,0.121-1.089,0.373
								C9.796,14.133,5,18.016,5,20c0,2.719,0,9.094,12,24l3,3c15,12,21,12,24,12c2.184,0,5.958-4.77,7.85-7.365
								c0.65-0.893,0.383-2.096-0.564-2.664l-11.57-6.941c-0.311-0.188-0.646-0.275-0.973-0.275c-0.668,0-1.305,0.371-1.637,1.035
								L35,47c-0.875,0.875-1.784,1.246-2.703,1.246c-1.528,0-3.082-1.031-4.539-2.488l-9.516-9.516
								C15.91,33.91,14.668,31.332,17,29l4.211-2.105c0.988-0.494,1.328-1.662,0.76-2.609l-6.941-11.57
								C14.677,12.127,14.084,11.807,13.475,11.807L13.475,11.807z"/>
						</g>
					</g>
				</g>
			</g>
		</g>
		<g>
			<g>
				<g>
					<g>
						<g>
							<path fill="#FFFFFF" d="M20.987,26.447c0.353-0.176,0.603-0.47,0.707-0.827s0.05-0.74-0.151-1.077L14.6,12.973
								c-0.249-0.416-0.67-0.664-1.124-0.664c-0.28,0-0.552,0.094-0.788,0.271c-0.555,0.42-1.213,0.928-1.901,1.486l8.068,13.447
								L20.987,26.447z"/>
						</g>
					</g>
				</g>
				<g>
					<g>
						<path fill="#FF8A80" d="M12.988,13.98c0.148-0.113,0.317-0.172,0.487-0.172c0.282,0,0.535,0.152,0.695,0.42L21.113,25.8
							c0.131,0.216,0.166,0.458,0.102,0.681S20.99,26.887,20.764,27l-1.719,0.859l-7.605-12.677
							C11.937,14.785,12.455,14.382,12.988,13.98z"/>
					</g>
				</g>
				<g>
					<g>
						<g>
							<path fill="#37474F" d="M13.476,12.809c0.282,0,0.535,0.152,0.695,0.42L21.113,24.8c0.131,0.216,0.166,0.458,0.102,0.681
								S20.99,25.887,20.764,26l-1.719,0.859l-7.605-12.677c0.497-0.397,1.016-0.801,1.549-1.202
								C13.137,12.867,13.306,12.809,13.476,12.809L13.476,12.809z M13.476,11.809c-0.374,0-0.755,0.12-1.09,0.373
								c-0.648,0.489-1.436,1.1-2.251,1.771l8.529,14.215l2.547-1.273c0.988-0.494,1.328-1.662,0.76-2.609l-6.941-11.57
								C14.677,12.128,14.085,11.809,13.476,11.809L13.476,11.809z"/>
						</g>
					</g>
				</g>
			</g>
			<g>
				<g>
					<g>
						<g>
							<path fill="#FFFFFF" d="M49.993,53.25c0.478-0.604,0.965-1.244,1.451-1.91c0.226-0.309,0.31-0.678,0.235-1.039
								c-0.076-0.375-0.307-0.694-0.652-0.9l-11.57-6.943c-0.222-0.133-0.469-0.203-0.715-0.203c-0.507,0-0.952,0.283-1.189,0.759
								l-1.066,2.133L49.993,53.25z"/>
						</g>
					</g>
				</g>
				<g>
					<g>
						<path fill="#FF8A80" d="M49.873,53.594l-12.732-7.639L38,44.236c0.15-0.303,0.429-0.482,0.742-0.482
							c0.158,0,0.312,0.045,0.459,0.133l11.569,6.941c0.224,0.135,0.372,0.337,0.419,0.572c0.032,0.156,0.032,0.396-0.148,0.645
							C50.649,52.58,50.259,53.099,49.873,53.594z"/>
					</g>
				</g>
				<g>
					<g>
						<g>
							<path fill="#37474F" d="M38.742,42.754c0.158,0,0.312,0.045,0.459,0.133l11.569,6.941c0.224,0.135,0.372,0.337,0.419,0.572
								c0.032,0.156,0.032,0.396-0.148,0.645c-0.392,0.535-0.782,1.054-1.168,1.549l-12.732-7.639L38,43.236
								C38.15,42.934,38.429,42.754,38.742,42.754L38.742,42.754z M38.742,41.754c-0.668,0-1.305,0.371-1.637,1.035l-1.273,2.547
								l14.279,8.567c0.66-0.82,1.259-1.614,1.736-2.269c0.651-0.893,0.385-2.096-0.563-2.664l-11.57-6.941
								C39.404,41.842,39.069,41.754,38.742,41.754L38.742,41.754z"/>
						</g>
					</g>
				</g>
			</g>
		</g>
	</g>
	<g>
		<g>
			<polygon fill="#FFFFFF" points="43.5,25.5 38.5,25.5 38.5,20.5 34.5,20.5 34.5,25.5 29.5,25.5 29.5,29.5 34.5,29.5 34.5,34.5 
				38.5,34.5 38.5,29.5 43.5,29.5 			"/>
		</g>
		<g>
			<path fill="#37474F" d="M39,35h-5v-5h-5v-5h5v-5h5v5h5v5h-5V35z M35,34h3v-5h5v-3h-5v-5h-3v5h-5v3h5V34z"/>
		</g>
	</g>
</g>
</svg>
