<?xml version="1.0" encoding="utf-8"?>
<!-- Generator: Adobe Illustrator 16.0.0, SVG Export Plug-In . SVG Version: 6.00 Build 0)  -->
<!DOCTYPE svg PUBLIC "-//W3C//DTD SVG 1.1//EN" "http://www.w3.org/Graphics/SVG/1.1/DTD/svg11.dtd">
<svg version="1.1" id="_x3C_Layer_x3E_" xmlns="http://www.w3.org/2000/svg" xmlns:xlink="http://www.w3.org/1999/xlink" x="0px"
	 y="0px" width="64px" height="64px" viewBox="0 0 64 64" enable-background="new 0 0 64 64" xml:space="preserve">
<g id="dna_x2C__chromosome_x2C__biology">
	<g id="XMLID_896_">
		
			<rect x="33.716" y="46.18" transform="matrix(0.9206 0.3905 -0.3905 0.9206 20.9864 -9.8502)" fill="#FF5252" width="1.998" height="1"/>
		<path fill="#FF5252" d="M48.504,59.06l-0.06-0.496c-0.651-5.34-7.008-8.475-13.463-11.229l-0.46-0.196l0.393-0.92l0.46,0.196
			c6.724,2.868,13.348,6.159,14.063,12.027l0.061,0.496L48.504,59.06z"/>
		<path fill="#FF5252" d="M49.5,60h-1v-0.5c0-0.32-0.019-0.632-0.056-0.937l-0.061-0.496l0.992-0.121l0.061,0.496
			c0.042,0.344,0.063,0.696,0.063,1.058V60z"/>
	</g>
	<g id="XMLID_895_">
		<path fill="#FF5252" d="M49.376,6.053l-0.992-0.121l0.061-0.496C48.481,5.131,48.5,4.82,48.5,4.5V4h1v0.5
			c0,0.361-0.021,0.713-0.063,1.057L49.376,6.053z"/>
		<path fill="#FF5252" d="M27.656,44.228l-0.455-0.207C21.124,41.258,15.5,37.89,15.5,32c0-7.208,8.544-10.769,16.807-14.211
			c7.579-3.158,15.415-6.423,16.137-12.354l0.06-0.496l0.993,0.121l-0.061,0.496c-0.792,6.509-8.902,9.888-16.745,13.155
			C24.731,22.029,16.5,25.459,16.5,32c0,5.324,5.342,8.486,11.115,11.11l0.455,0.207L27.656,44.228z"/>
		<path fill="#FF5252" d="M28.578,44.635l-0.457-0.202c-0.309-0.137-0.615-0.272-0.919-0.411l-0.455-0.207l0.415-0.91l0.455,0.207
			c0.3,0.137,0.604,0.272,0.908,0.407l0.458,0.202L28.578,44.635z"/>
	</g>
	<g id="XMLID_769_">
		<path fill="#18FFFF" d="M28.571,16.913l-0.456-0.205c-0.308-0.139-0.613-0.277-0.917-0.417l-0.454-0.211l0.421-0.907l0.454,0.21
			c0.299,0.14,0.602,0.276,0.906,0.413l0.456,0.205L28.571,16.913z"/>
		<path fill="#18FFFF" d="M27.653,16.501l-0.454-0.21c-5.15-2.386-10.5-5.526-11.135-10.732l-0.061-0.496l0.993-0.121l0.06,0.496
			c0.576,4.72,5.663,7.676,10.563,9.945l0.454,0.211L27.653,16.501z"/>
		<path fill="#18FFFF" d="M16.123,6.054l-0.06-0.497C16.022,5.213,16,4.861,16,4.5V4h1v0.5c0,0.32,0.019,0.633,0.056,0.938
			l0.06,0.496L16.123,6.054z"/>
	</g>
	<g id="XMLID_894_">
		<path fill="#18FFFF" d="M17,60h-1v-0.5c0-0.361,0.021-0.713,0.063-1.057l0.061-0.496l0.992,0.121l-0.061,0.496
			C17.019,58.869,17,59.18,17,59.5V60z"/>
		<path fill="#18FFFF" d="M16.996,59.061l-0.993-0.121l0.061-0.496c0.792-6.509,8.902-9.888,16.745-13.155
			C40.769,41.971,49,38.541,49,32c0-5.909-6.71-9.264-13.583-12.193l-0.46-0.196l0.392-0.92l0.46,0.196
			C42.989,21.947,50,25.48,50,32c0,7.208-8.544,10.769-16.807,14.211c-7.579,3.158-15.415,6.423-16.137,12.354L16.996,59.061z"/>
		
			<rect x="34.15" y="18.651" transform="matrix(0.9211 0.3893 -0.3893 0.9211 10.2299 -12.1741)" fill="#18FFFF" width="1.999" height="1"/>
	</g>
	<g id="XMLID_1292_">
		<path fill="#37474F" d="M48,60h-1v-0.5c0-5.873-6.522-9.164-13.203-12.03l-0.459-0.197l0.395-0.919l0.459,0.196
			C41.178,49.549,48,53.019,48,59.5V60z"/>
		<path fill="#37474F" d="M28.308,45.164l-0.459-0.196C20.841,41.962,14,38.485,14,32c0-7.208,8.544-10.769,16.808-14.212
			C38.769,14.472,47,11.042,47,4.5V4h1v0.5c0,7.208-8.544,10.769-16.808,14.212C23.231,22.028,15,25.458,15,32
			c0,5.877,6.542,9.174,13.243,12.048l0.459,0.197L28.308,45.164z"/>
		<path fill="#37474F" d="M28.303,17.448l-0.458-0.198C21.388,14.45,14.5,10.925,14.5,4.5V4h1v0.5
			c0,5.819,6.577,9.159,12.742,11.832l0.459,0.199L28.303,17.448z"/>
		<path fill="#37474F" d="M15.5,60h-1v-0.5c0-7.208,8.544-10.769,16.808-14.212C39.269,41.972,47.5,38.542,47.5,32
			c0-5.872-6.515-9.16-13.188-12.025l-0.459-0.196l0.395-0.919l0.459,0.197C41.686,22.053,48.5,25.521,48.5,32
			c0,7.208-8.544,10.769-16.808,14.212C23.731,49.528,15.5,52.958,15.5,59.5V60z"/>
	</g>
	<g id="XMLID_1333_">
		<rect x="18.5" y="58" fill="#37474F" width="29" height="1"/>
		<rect x="21.5" y="54" fill="#37474F" width="24" height="1"/>
		<rect x="26.5" y="50" fill="#37474F" width="14.5" height="1"/>
		<rect x="29.5" y="42" fill="#37474F" width="9.5" height="1"/>
		<rect x="23.5" y="38" fill="#37474F" width="21.5" height="1"/>
		<rect x="19.5" y="34" fill="#37474F" width="28" height="1"/>
		<rect x="18.5" y="30" fill="#37474F" width="29.5" height="1"/>
		<rect x="21.5" y="26" fill="#37474F" width="24.5" height="1"/>
		<rect x="27.5" y="22" fill="#37474F" width="13" height="1"/>
		<rect x="28.5" y="14" fill="#37474F" width="11" height="1"/>
		<rect x="23.5" y="10" fill="#37474F" width="21.5" height="1"/>
		<rect x="19.5" y="6" fill="#37474F" width="28" height="1"/>
	</g>
</g>
</svg>
