<?xml version="1.0" encoding="utf-8"?>
<!-- Generator: Adobe Illustrator 16.0.0, SVG Export Plug-In . SVG Version: 6.00 Build 0)  -->
<!DOCTYPE svg PUBLIC "-//W3C//DTD SVG 1.1//EN" "http://www.w3.org/Graphics/SVG/1.1/DTD/svg11.dtd">
<svg version="1.1" id="_x3C_Layer_x3E_" xmlns="http://www.w3.org/2000/svg" xmlns:xlink="http://www.w3.org/1999/xlink" x="0px"
	 y="0px" width="64px" height="64px" viewBox="0 0 64 64" enable-background="new 0 0 64 64" xml:space="preserve">
<g id="sanitizer_x2C__personal_care_products_1_">
	<path id="XMLID_3355_" fill="#FFFFFF" d="M41.5,57.5h-25l-2.098-25.17c-0.486-5.83,4.115-10.83,9.966-10.83h9.264
		c5.851,0,10.452,5,9.966,10.83L41.5,57.5z"/>
	<path id="XMLID_3354_" fill="#FFE57F" d="M40.049,24.294C38.6,23.475,36.926,23,35.132,23H23.694c-4.68,0-8.361,4-7.972,8.664
		L17.875,57.5H41l2.098-25.17C43.359,29.191,42.138,26.301,40.049,24.294z"/>
	<path id="XMLID_3353_" fill="#FFD740" d="M40.549,24.294c-0.776-0.438-1.62-0.769-2.508-0.99c0.345,0.147,0.684,0.308,1.008,0.49
		c2.089,2.007,3.31,4.897,3.049,8.036l-1.701,19.602C40.172,54.017,38.009,56,35.415,56H17.333l0.042,1.5H41.5l2.098-25.17
		C43.859,29.191,42.638,26.301,40.549,24.294z"/>
	<path id="XMLID_3352_" fill="#FFFFFF" d="M21.5,49.5h20.667l1.431-17.17c0.052-0.622,0.034-1.232-0.025-1.83H21.5
		c-1.104,0-2,0.896-2,2v15C19.5,48.604,20.396,49.5,21.5,49.5z"/>
	<path id="XMLID_3351_" fill="#ECEFF1" d="M43.572,30.5h-1.5c0.06,0.598,0.077,1.208,0.025,1.83L40.667,49.5h1.5l1.431-17.17
		C43.649,31.708,43.632,31.098,43.572,30.5z"/>
	<g id="XMLID_3346_">
		<rect id="XMLID_3350_" x="24.5" y="14.5" fill="#ECEFF1" width="9" height="7"/>
		<path id="XMLID_3347_" fill="#37474F" d="M34,22H24v-8h10V22z M25,21h8v-6h-8V21z"/>
	</g>
	<g id="XMLID_3341_">
		<rect id="XMLID_3345_" x="27.5" y="9.5" fill="#ECEFF1" width="3" height="5"/>
		<path id="XMLID_3342_" fill="#37474F" d="M31,15h-4V9h4V15z M28,14h2v-4h-2V14z"/>
	</g>
	<g id="XMLID_3336_">
		<path id="XMLID_3340_" fill="#ECEFF1" d="M27.033,7.5H25.5c-0.552,0-1,0.447-1,1l0,0c0,0.553,0.448,1,1,1h4.179
			c2.543,0,5.082,0.21,7.591,0.629L39.5,10.5l1-1l-0.782-0.224C35.593,8.098,31.323,7.5,27.033,7.5z"/>
		<path id="XMLID_3337_" fill="#37474F" d="M39.671,11.035l-2.484-0.414c-2.473-0.412-5-0.621-7.509-0.621H25.5
			C24.673,10,24,9.327,24,8.5S24.673,7,25.5,7h1.533c4.338,0,8.652,0.604,12.822,1.795l1.599,0.458L39.671,11.035z M25.5,8
			C25.224,8,25,8.225,25,8.5S25.224,9,25.5,9h4.179c2.564,0,5.146,0.214,7.673,0.635l1.977,0.33l0.217-0.218
			C35.476,8.588,31.266,8,27.033,8H25.5z"/>
	</g>
	<path id="XMLID_3335_" fill="#37474F" d="M42.167,50H21.5c-1.378,0-2.5-1.121-2.5-2.5v-15c0-1.379,1.122-2.5,2.5-2.5h20.572v1H21.5
		c-0.827,0-1.5,0.673-1.5,1.5v15c0,0.827,0.673,1.5,1.5,1.5h20.667V50z"/>
	<g id="XMLID_3327_">
		<path id="XMLID_3334_" fill="#FFFFFF" d="M48.5,57.5h-15c-2.209,0-4-1.791-4-4v-7c0-2.209,1.791-4,4-4h15c2.209,0,4,1.791,4,4v7
			C52.5,55.709,50.709,57.5,48.5,57.5z"/>
		<path id="XMLID_3333_" fill="#FF8A80" d="M34,44c-1.657,0-3,1.344-3,3v8c0,0.718,0.204,1.382,0.536,1.965
			c0.582,0.33,1.247,0.535,1.964,0.535h15c2.209,0,4-1.791,4-4v-7c0-0.718-0.205-1.382-0.536-1.965C51.382,44.205,50.718,44,50,44
			H34z"/>
		<path id="XMLID_3332_" fill="#FF5252" d="M51.964,44.535c-0.333-0.189-0.696-0.33-1.077-0.422C50.956,44.398,51,44.693,51,45v8.5
			c0,1.381-1.119,2.5-2.5,2.5H32c-0.307,0-0.602-0.044-0.887-0.113c0.092,0.382,0.233,0.744,0.423,1.078
			c0.582,0.33,1.247,0.535,1.964,0.535h15c2.209,0,4-1.791,4-4v-7C52.5,45.782,52.295,45.118,51.964,44.535z"/>
		<path id="XMLID_3329_" fill="#37474F" d="M48.5,58h-15c-2.481,0-4.5-2.019-4.5-4.5v-7c0-2.481,2.019-4.5,4.5-4.5h15
			c2.481,0,4.5,2.019,4.5,4.5v7C53,55.981,50.981,58,48.5,58z M33.5,43c-1.93,0-3.5,1.57-3.5,3.5v7c0,1.93,1.57,3.5,3.5,3.5h15
			c1.93,0,3.5-1.57,3.5-3.5v-7c0-1.93-1.57-3.5-3.5-3.5H33.5z"/>
		<path id="XMLID_3328_" fill="#FF5252" d="M46,53H36c-0.552,0-1-0.447-1-1v-4c0-0.553,0.448-1,1-1h10c0.552,0,1,0.447,1,1v4
			C47,52.553,46.552,53,46,53z"/>
	</g>
	<g id="XMLID_3297_">
		<g id="XMLID_3302_">
			<path id="XMLID_3326_" fill="#FFFFFF" d="M16.5,57.5h-10c-0.552,0-1-0.447-1-1v-28c0-0.553,0.448-1,1-1h10c0.552,0,1,0.447,1,1
				v28C17.5,57.053,17.052,57.5,16.5,57.5z"/>
			<path id="XMLID_3325_" fill="#84FFFF" d="M7,29v28.5h9.5c0.552,0,1-0.447,1-1V29H7z"/>
			<path id="XMLID_3324_" fill="#18FFFF" d="M16,29v27H7v1.5h9.5c0.552,0,1-0.447,1-1V29H16z"/>
			<rect id="XMLID_3323_" x="7.5" y="33.5" fill="#CCFF90" width="10" height="18"/>
			<rect id="XMLID_3322_" x="16" y="33.5" fill="#B2FF59" width="1.5" height="18"/>
			<g id="XMLID_3320_">
				<path id="XMLID_3321_" fill="#37474F" d="M44.096,32.372c0.243-2.918-0.754-5.827-2.737-7.981S36.56,21,33.632,21h-9.264
					c-2.928,0-5.745,1.236-7.727,3.391c-0.458,0.498-0.858,1.04-1.208,1.609H16.5c0.042,0,0.083,0.01,0.125,0.013
					c0.232-0.328,0.478-0.647,0.752-0.945C19.171,23.118,21.719,22,24.368,22h9.264c2.649,0,5.197,1.118,6.991,3.067
					c1.794,1.95,2.696,4.582,2.477,7.222L42.374,41h1.003L44.096,32.372z"/>
			</g>
			<path id="XMLID_3317_" fill="#37474F" d="M16.5,58h-10C5.673,58,5,57.327,5,56.5v-28C5,27.673,5.673,27,6.5,27h10
				c0.827,0,1.5,0.673,1.5,1.5v28C18,57.327,17.327,58,16.5,58z M6.5,28C6.224,28,6,28.225,6,28.5v28C6,56.775,6.224,57,6.5,57h10
				c0.276,0,0.5-0.225,0.5-0.5v-28c0-0.275-0.224-0.5-0.5-0.5H6.5z"/>
			<g id="XMLID_3312_">
				<rect id="XMLID_3316_" x="8.5" y="21.5" fill="#ECEFF1" width="6" height="6"/>
				<path id="XMLID_3313_" fill="#37474F" d="M15,28H8v-7h7V28z M9,27h5v-5H9V27z"/>
			</g>
			<g id="XMLID_3307_">
				<rect id="XMLID_3311_" x="9.5" y="16.5" fill="#ECEFF1" width="4" height="5"/>
				<path id="XMLID_3308_" fill="#37474F" d="M14,22H9v-6h5V22z M10,21h3v-4h-3V21z"/>
			</g>
			<rect id="XMLID_3306_" x="9" y="22" fill="#FFFFFF" width="1" height="5"/>
			<rect id="XMLID_3305_" x="13" y="22" fill="#CFD8DC" width="1" height="5"/>
			<rect id="XMLID_3304_" x="12" y="17" fill="#CFD8DC" width="1" height="4"/>
			<rect id="XMLID_3303_" x="12" y="18" fill="#37474F" width="1" height="1"/>
		</g>
		<polygon id="XMLID_3301_" fill="#37474F" points="16,52 7,52 7,33 16,33 16,34 8,34 8,51 16,51 		"/>
		<g id="XMLID_3298_">
			<polygon id="XMLID_3300_" fill="#ECEFF1" points="16,41.5 14.5,41.5 14.5,39.5 12.5,39.5 12.5,41.5 10.5,41.5 10.5,43.5 
				12.5,43.5 12.5,45.5 14.5,45.5 14.5,43.5 16,43.5 			"/>
			<polygon id="XMLID_3299_" fill="#37474F" points="15,46 12,46 12,44 10,44 10,41 12,41 12,39 15,39 15,41 16,41 16,42 14,42 
				14,40 13,40 13,42 11,42 11,43 13,43 13,45 14,45 14,43 16,43 16,44 15,44 			"/>
		</g>
	</g>
	<g id="XMLID_3292_">
		<circle id="XMLID_3296_" fill="#FFFFFF" cx="56" cy="14" r="1.5"/>
		<path id="XMLID_3293_" fill="#37474F" d="M56,16c-1.103,0-2-0.896-2-2s0.897-2,2-2s2,0.896,2,2S57.103,16,56,16z M56,13
			c-0.551,0-1,0.449-1,1s0.449,1,1,1s1-0.449,1-1S56.551,13,56,13z"/>
	</g>
	<g id="XMLID_3287_">
		<circle id="XMLID_3291_" fill="#FFFFFF" cx="51.5" cy="29.5" r="1"/>
		<path id="XMLID_3288_" fill="#37474F" d="M51.5,31c-0.827,0-1.5-0.673-1.5-1.5s0.673-1.5,1.5-1.5s1.5,0.673,1.5,1.5
			S52.327,31,51.5,31z M51.5,29c-0.276,0-0.5,0.225-0.5,0.5s0.224,0.5,0.5,0.5s0.5-0.225,0.5-0.5S51.776,29,51.5,29z"/>
	</g>
	<g id="XMLID_3282_">
		<circle id="XMLID_3286_" fill="#FFFFFF" cx="52.5" cy="6.5" r="1"/>
		<path id="XMLID_3283_" fill="#37474F" d="M52.5,8C51.673,8,51,7.327,51,6.5S51.673,5,52.5,5S54,5.673,54,6.5S53.327,8,52.5,8z
			 M52.5,6C52.224,6,52,6.225,52,6.5S52.224,7,52.5,7S53,6.775,53,6.5S52.776,6,52.5,6z"/>
	</g>
	<g id="XMLID_3277_">
		<circle id="XMLID_3281_" fill="#FFFFFF" cx="47" cy="11" r="1.5"/>
		<path id="XMLID_3278_" fill="#37474F" d="M47,13c-1.103,0-2-0.896-2-2s0.897-2,2-2s2,0.896,2,2S48.103,13,47,13z M47,10
			c-0.551,0-1,0.449-1,1s0.449,1,1,1s1-0.449,1-1S47.551,10,47,10z"/>
	</g>
	<circle id="XMLID_3276_" fill="#FFFFFF" cx="46.5" cy="20.5" r="3"/>
	<g id="XMLID_3273_">
		<path id="XMLID_3275_" fill="#FFFFFF" d="M49.167,21.875C48.668,22.84,47.661,23.5,46.5,23.5c-1.657,0-3-1.344-3-3s1.343-3,3-3
			c0.17,0,0.337,0.014,0.5,0.041L49.167,21.875z"/>
		<path id="XMLID_3274_" fill="#37474F" d="M46.5,24c-1.93,0-3.5-1.57-3.5-3.5s1.57-3.5,3.5-3.5c0.199,0,0.394,0.017,0.583,0.049
			l-0.166,0.986C46.781,18.012,46.642,18,46.5,18c-1.378,0-2.5,1.121-2.5,2.5s1.122,2.5,2.5,2.5c0.939,0,1.791-0.52,2.223-1.354
			l0.889,0.459C49.007,23.273,47.814,24,46.5,24z"/>
	</g>
	<g id="XMLID_3268_">
		<circle id="XMLID_3272_" fill="#FFFFFF" cx="50.5" cy="18.5" r="2"/>
		<path id="XMLID_3269_" fill="#37474F" d="M50.5,21c-1.378,0-2.5-1.121-2.5-2.5s1.122-2.5,2.5-2.5s2.5,1.121,2.5,2.5
			S51.878,21,50.5,21z M50.5,17c-0.827,0-1.5,0.673-1.5,1.5s0.673,1.5,1.5,1.5s1.5-0.673,1.5-1.5S51.327,17,50.5,17z"/>
	</g>
	<rect id="XMLID_3267_" x="10" y="17" fill="#FFFFFF" width="1" height="4"/>
	<g id="XMLID_3264_">
		<polygon id="XMLID_3266_" fill="#84FFFF" points="51.5,57.5 57,57.5 41.5,57.5 		"/>
		<rect id="XMLID_3265_" x="14.5" y="57" fill="#37474F" width="42.5" height="1"/>
	</g>
	<rect id="XMLID_3263_" x="58" y="57" fill="#37474F" width="1" height="1"/>
</g>
</svg>
