<?xml version="1.0" encoding="utf-8"?>
<!-- Generator: Adobe Illustrator 16.0.0, SVG Export Plug-In . SVG Version: 6.00 Build 0)  -->
<!DOCTYPE svg PUBLIC "-//W3C//DTD SVG 1.1//EN" "http://www.w3.org/Graphics/SVG/1.1/DTD/svg11.dtd">
<svg version="1.1" id="_x3C_Layer_x3E_" xmlns="http://www.w3.org/2000/svg" xmlns:xlink="http://www.w3.org/1999/xlink" x="0px"
	 y="0px" width="64px" height="64px" viewBox="0 0 64 64" enable-background="new 0 0 64 64" xml:space="preserve">
<g id="Building_x2C__clinic_x2C__hospital">
	<rect x="5" y="58" fill="#37474F" width="54" height="1"/>
	<g>
		<rect x="5.5" y="20.5" fill="#18FFFF" width="53" height="2"/>
		<path fill="#37474F" d="M59,23H5v-3h54V23z M6,22h52v-1H6V22z"/>
	</g>
	<g>
		<rect x="6.5" y="22.5" fill="#84FFFF" width="51" height="34"/>
		<path fill="#37474F" d="M58,57H6V22h52V57z M7,56h50V23H7V56z"/>
	</g>
	<g id="XMLID_1337_">
		<g>
			<rect id="XMLID_413_" x="21.5" y="8.5" fill="#CCFF90" width="21" height="48"/>
			<path fill="#37474F" d="M43,57H21V8h22V57z M22,56h20V9H22V56z"/>
		</g>
	</g>
	<g>
		<g>
			<g>
				<rect x="30.5" y="39.5" fill="#FFFFFF" width="3" height="4"/>
				<path fill="#37474F" d="M34,44h-4v-5h4V44z M31,43h2v-3h-2V43z"/>
			</g>
			<g>
				<rect x="36.5" y="39.5" fill="#FFFFFF" width="3" height="4"/>
				<path fill="#37474F" d="M40,44h-4v-5h4V44z M37,43h2v-3h-2V43z"/>
			</g>
			<g>
				<rect x="24.5" y="39.5" fill="#FFFFFF" width="3" height="4"/>
				<path fill="#37474F" d="M28,44h-4v-5h4V44z M25,43h2v-3h-2V43z"/>
			</g>
		</g>
		<g>
			<g>
				<rect x="30.5" y="31.5" fill="#FFFFFF" width="3" height="4"/>
				<path fill="#37474F" d="M34,36h-4v-5h4V36z M31,35h2v-3h-2V35z"/>
			</g>
			<g>
				<rect x="36.5" y="31.5" fill="#FFFFFF" width="3" height="4"/>
				<path fill="#37474F" d="M40,36h-4v-5h4V36z M37,35h2v-3h-2V35z"/>
			</g>
			<g>
				<rect x="24.5" y="31.5" fill="#FFFFFF" width="3" height="4"/>
				<path fill="#37474F" d="M28,36h-4v-5h4V36z M25,35h2v-3h-2V35z"/>
			</g>
		</g>
		<g>
			<g>
				<rect x="30.5" y="23.5" fill="#FFFFFF" width="3" height="4"/>
				<path fill="#37474F" d="M34,28h-4v-5h4V28z M31,27h2v-3h-2V27z"/>
			</g>
			<g>
				<rect x="36.5" y="23.5" fill="#FFFFFF" width="3" height="4"/>
				<path fill="#37474F" d="M40,28h-4v-5h4V28z M37,27h2v-3h-2V27z"/>
			</g>
			<g>
				<rect x="24.5" y="23.5" fill="#FFFFFF" width="3" height="4"/>
				<path fill="#37474F" d="M28,28h-4v-5h4V28z M25,27h2v-3h-2V27z"/>
			</g>
		</g>
	</g>
	<g>
		<rect x="23.5" y="5.5" fill="#CCFF90" width="17" height="3"/>
		<path fill="#37474F" d="M41,9H23V5h18V9z M24,8h16V6H24V8z"/>
	</g>
	<g>
		<g>
			<g>
				<rect x="15.5" y="49.5" fill="#FFFFFF" width="3" height="4"/>
				<path fill="#37474F" d="M19,54h-4v-5h4V54z M16,53h2v-3h-2V53z"/>
			</g>
			<g>
				<rect x="9.5" y="49.5" fill="#FFFFFF" width="3" height="4"/>
				<path fill="#37474F" d="M13,54H9v-5h4V54z M10,53h2v-3h-2V53z"/>
			</g>
		</g>
		<g>
			<g>
				<rect x="15.5" y="41.5" fill="#FFFFFF" width="3" height="4"/>
				<path fill="#37474F" d="M19,46h-4v-5h4V46z M16,45h2v-3h-2V45z"/>
			</g>
			<g>
				<rect x="9.5" y="41.5" fill="#FFFFFF" width="3" height="4"/>
				<path fill="#37474F" d="M13,46H9v-5h4V46z M10,45h2v-3h-2V45z"/>
			</g>
		</g>
		<g>
			<g>
				<rect x="15.5" y="33.5" fill="#FFFFFF" width="3" height="4"/>
				<path fill="#37474F" d="M19,38h-4v-5h4V38z M16,37h2v-3h-2V37z"/>
			</g>
			<g>
				<rect x="9.5" y="33.5" fill="#FFFFFF" width="3" height="4"/>
				<path fill="#37474F" d="M13,38H9v-5h4V38z M10,37h2v-3h-2V37z"/>
			</g>
		</g>
		<g>
			<g>
				<rect x="15.5" y="25.5" fill="#FFFFFF" width="3" height="4"/>
				<path fill="#37474F" d="M19,30h-4v-5h4V30z M16,29h2v-3h-2V29z"/>
			</g>
			<g>
				<rect x="9.5" y="25.5" fill="#FFFFFF" width="3" height="4"/>
				<path fill="#37474F" d="M13,30H9v-5h4V30z M10,29h2v-3h-2V29z"/>
			</g>
		</g>
	</g>
	<g>
		<g>
			<g>
				<rect x="51.5" y="49.5" fill="#FFFFFF" width="3" height="4"/>
				<path fill="#37474F" d="M55,54h-4v-5h4V54z M52,53h2v-3h-2V53z"/>
			</g>
			<g>
				<rect x="45.5" y="49.5" fill="#FFFFFF" width="3" height="4"/>
				<path fill="#37474F" d="M49,54h-4v-5h4V54z M46,53h2v-3h-2V53z"/>
			</g>
		</g>
		<g>
			<g>
				<rect x="51.5" y="41.5" fill="#FFFFFF" width="3" height="4"/>
				<path fill="#37474F" d="M55,46h-4v-5h4V46z M52,45h2v-3h-2V45z"/>
			</g>
			<g>
				<rect x="45.5" y="41.5" fill="#FFFFFF" width="3" height="4"/>
				<path fill="#37474F" d="M49,46h-4v-5h4V46z M46,45h2v-3h-2V45z"/>
			</g>
		</g>
		<g>
			<g>
				<rect x="51.5" y="33.5" fill="#FFFFFF" width="3" height="4"/>
				<path fill="#37474F" d="M55,38h-4v-5h4V38z M52,37h2v-3h-2V37z"/>
			</g>
			<g>
				<rect x="45.5" y="33.5" fill="#FFFFFF" width="3" height="4"/>
				<path fill="#37474F" d="M49,38h-4v-5h4V38z M46,37h2v-3h-2V37z"/>
			</g>
		</g>
		<g>
			<g>
				<rect x="51.5" y="25.5" fill="#FFFFFF" width="3" height="4"/>
				<path fill="#37474F" d="M55,30h-4v-5h4V30z M52,29h2v-3h-2V29z"/>
			</g>
			<g>
				<rect x="45.5" y="25.5" fill="#FFFFFF" width="3" height="4"/>
				<path fill="#37474F" d="M49,30h-4v-5h4V30z M46,29h2v-3h-2V29z"/>
			</g>
		</g>
	</g>
	<g>
		<circle fill="#FF8A80" cx="32" cy="16" r="5.5"/>
		<path fill="#FFFFFF" d="M32,22c-3.309,0-6-2.691-6-6s2.691-6,6-6s6,2.691,6,6S35.309,22,32,22z M32,11c-2.757,0-5,2.243-5,5
			s2.243,5,5,5s5-2.243,5-5S34.757,11,32,11z"/>
	</g>
	<g>
		<path fill="#FFFFFF" d="M35,17h-6v-2h6V17z"/>
	</g>
	<g>
		<rect x="31" y="13" fill="#FFFFFF" width="2" height="6"/>
	</g>
	<g>
		<rect x="26.5" y="46.5" fill="#CFD8DC" width="11" height="10"/>
		<path fill="#37474F" d="M38,57H26V46h12V57z M27,56h10v-9H27V56z"/>
	</g>
	<g>
		<path fill="#CFD8DC" d="M32,56.5v-10V56.5z"/>
		<rect x="31.5" y="46.5" fill="#37474F" width="1" height="10"/>
	</g>
	<g>
		<path fill="#CFD8DC" d="M25,46.5h14H25z"/>
		<rect x="25" y="46" fill="#37474F" width="14" height="1"/>
	</g>
</g>
</svg>
