<?xml version="1.0" encoding="utf-8"?>
<!-- Generator: Adobe Illustrator 16.0.0, SVG Export Plug-In . SVG Version: 6.00 Build 0)  -->
<!DOCTYPE svg PUBLIC "-//W3C//DTD SVG 1.1//EN" "http://www.w3.org/Graphics/SVG/1.1/DTD/svg11.dtd">
<svg version="1.1" id="_x3C_Layer_x3E_" xmlns="http://www.w3.org/2000/svg" xmlns:xlink="http://www.w3.org/1999/xlink" x="0px"
	 y="0px" width="64px" height="64px" viewBox="0 0 64 64" enable-background="new 0 0 64 64" xml:space="preserve">
<g id="Corona_virus_x2C__Covid-19_x2C__clock_2_">
	<g id="Corona_virus_x2C__Covid-19_5_">
		<circle id="XMLID_1318_" fill="#ECEFF1" cx="22.408" cy="42.523" r="16"/>
		<path id="XMLID_1320_" fill="#ECEFF1" d="M22.374,26.523c12.813-0.027,15.064-4.228,16.778-11.64l11.216,11.436
			c-7.444,1.569-11.688,3.739-11.964,16.549L22.374,26.523z"/>
		<circle id="XMLID_1250_" fill="#ECEFF1" cx="48.408" cy="17.023" r="9.5"/>
		<g id="XMLID_1331_">
			<circle id="XMLID_1249_" fill="#FFFFFF" cx="23.505" cy="24.387" r="13.411"/>
			<path id="XMLID_1248_" fill="#FF8A80" d="M25.005,12.477c-7.406,0-13.411,6.004-13.411,13.411c0,3.321,1.214,6.354,3.214,8.697
				c2.342,2,5.375,3.214,8.697,3.214c7.407,0,13.411-6.004,13.411-13.411c0-3.321-1.214-6.354-3.213-8.697
				C31.36,13.69,28.327,12.477,25.005,12.477z"/>
			<path id="XMLID_1338_" fill="#FF5252" d="M33.535,15.506c-0.168-0.149-0.35-0.285-0.526-0.426C34.269,17.119,35,19.516,35,22.088
				c0,7.406-6.004,13.411-13.411,13.411c-3.167,0-6.062-1.117-8.354-2.954c0.41,0.664,0.875,1.291,1.39,1.873
				c2.367,2.097,5.47,3.38,8.88,3.38c7.407,0,13.411-6.004,13.411-13.411C36.916,20.977,35.632,17.873,33.535,15.506z"/>
			<path id="XMLID_1247_" fill="#37474F" d="M11.031,21.045l-0.966-0.258c0.279-1.047,0.684-2.062,1.201-3.018l0.879,0.477
				C11.666,19.133,11.291,20.074,11.031,21.045z"/>
			<path id="XMLID_1340_" fill="#37474F" d="M9.683,25.964c-0.059-0.522-0.088-1.053-0.088-1.577c0-0.551,0.033-1.108,0.098-1.655
				l0.993,0.117c-0.06,0.509-0.091,1.026-0.091,1.538c0,0.487,0.028,0.979,0.083,1.466L9.683,25.964z"/>
			<path id="XMLID_1341_" fill="#37474F" d="M12.025,32.245c-0.894-1.303-1.553-2.735-1.959-4.257l0.966-0.258
				c0.377,1.411,0.989,2.74,1.818,3.949L12.025,32.245z"/>
			<path id="XMLID_1246_" fill="#37474F" d="M16.367,36.329c-1.221-0.731-2.32-1.643-3.266-2.708l0.748-0.664
				c0.878,0.99,1.898,1.836,3.032,2.515L16.367,36.329z"/>
			<path id="XMLID_1343_" fill="#37474F" d="M34.315,17.325c-0.894-1.365-2.022-2.536-3.353-3.479l0.578-0.816
				c1.434,1.016,2.649,2.276,3.612,3.747L34.315,17.325z"/>
			<path id="XMLID_1344_" fill="#37474F" d="M29.333,12.863c-0.792-0.401-1.628-0.721-2.485-0.95l0.259-0.966
				c0.924,0.247,1.825,0.592,2.679,1.024L29.333,12.863z"/>
			<path id="XMLID_1245_" fill="#37474F" d="M20.967,11.726l-0.195-0.98c1.46-0.292,3.001-0.347,4.483-0.16l-0.124,0.992
				C23.754,11.407,22.324,11.456,20.967,11.726z"/>
			<path id="XMLID_1346_" fill="#37474F" d="M16.497,13.542l-0.544-0.839c0.942-0.611,1.957-1.105,3.016-1.47l0.326,0.945
				C18.313,12.517,17.372,12.976,16.497,13.542z"/>
			<path id="XMLID_1347_" fill="#37474F" d="M12.899,17.023l-0.82-0.571c0.653-0.938,1.42-1.795,2.281-2.547l0.658,0.753
				C14.219,15.356,13.506,16.152,12.899,17.023z"/>
			<g id="XMLID_1348_">
				<circle id="XMLID_1349_" fill="#FF5252" cx="24" cy="18" r="1.5"/>
				<path id="XMLID_1350_" fill="#37474F" d="M24,20c-1.103,0-2-0.897-2-2s0.897-2,2-2s2,0.897,2,2S25.103,20,24,20z M24,17
					c-0.551,0-1,0.449-1,1s0.449,1,1,1s1-0.449,1-1S24.551,17,24,17z"/>
			</g>
			<g id="XMLID_1244_">
				<circle id="XMLID_1354_" fill="#FF5252" cx="18" cy="24" r="1.5"/>
				<path id="XMLID_1355_" fill="#37474F" d="M18,26c-1.103,0-2-0.897-2-2s0.897-2,2-2s2,0.897,2,2S19.103,26,18,26z M18,23
					c-0.551,0-1,0.449-1,1s0.449,1,1,1s1-0.449,1-1S18.551,23,18,23z"/>
			</g>
			<g id="XMLID_1358_">
				<circle id="XMLID_1359_" fill="#FF5252" cx="25.5" cy="24.5" r="2"/>
				<path id="XMLID_1360_" fill="#37474F" d="M25.5,27c-1.378,0-2.5-1.122-2.5-2.5s1.122-2.5,2.5-2.5s2.5,1.122,2.5,2.5
					S26.878,27,25.5,27z M25.5,23c-0.827,0-1.5,0.673-1.5,1.5s0.673,1.5,1.5,1.5s1.5-0.673,1.5-1.5S26.327,23,25.5,23z"/>
			</g>
			<g id="XMLID_1363_">
				<g id="XMLID_1364_">
					<circle id="XMLID_1243_" fill="#FF5252" cx="17.615" cy="6.916" r="1.915"/>
					<path id="XMLID_1366_" fill="#37474F" d="M17.615,9.332c-1.068,0-1.996-0.687-2.309-1.708c-0.189-0.617-0.126-1.271,0.176-1.84
						c0.303-0.57,0.809-0.987,1.426-1.176c1.26-0.387,2.633,0.351,3.017,1.602c0.39,1.274-0.329,2.627-1.602,3.017
						C18.092,9.296,17.854,9.332,17.615,9.332z M17.616,5.5c-0.14,0-0.28,0.021-0.415,0.063c-0.361,0.111-0.658,0.355-0.835,0.689
						s-0.214,0.717-0.104,1.078c0.225,0.733,1.022,1.167,1.768,0.939c0.746-0.229,1.167-1.021,0.939-1.768
						C18.785,5.902,18.242,5.5,17.616,5.5z"/>
				</g>
				<g id="XMLID_1369_">
					<path id="XMLID_1370_" fill="#FF5252" d="M18.064,8.381l1.839,5.961L18.064,8.381z"/>
					
						<rect id="XMLID_1371_" x="15.865" y="10.862" transform="matrix(0.2948 0.9556 -0.9556 0.2948 24.2455 -10.1275)" fill="#37474F" width="6.239" height="1.001"/>
				</g>
			</g>
			<g id="XMLID_1372_">
				<g id="XMLID_1373_">
					<circle id="XMLID_1374_" fill="#FF5252" cx="28.487" cy="6.533" r="1.532"/>
					<path id="XMLID_1375_" fill="#37474F" d="M28.487,8.566c-0.177,0-0.354-0.023-0.527-0.07c-1.083-0.291-1.727-1.407-1.437-2.49
						c0.283-1.059,1.422-1.725,2.489-1.437c0.524,0.141,0.963,0.477,1.234,0.947c0.271,0.47,0.344,1.018,0.203,1.542
						C30.212,7.946,29.405,8.566,28.487,8.566z M28.485,5.5c-0.466,0-0.875,0.315-0.996,0.766c-0.147,0.55,0.18,1.118,0.73,1.265
						c0.543,0.146,1.121-0.192,1.265-0.73c0.071-0.267,0.035-0.544-0.103-0.783c-0.138-0.239-0.361-0.41-0.627-0.481
						C28.666,5.512,28.575,5.5,28.485,5.5z"/>
				</g>
				<g id="XMLID_1378_">
					<path id="XMLID_1379_" fill="#FF5252" d="M28.09,8.014l-2.006,6.751L28.09,8.014z"/>
					
						<rect id="XMLID_1380_" x="26.587" y="7.868" transform="matrix(0.9585 0.285 -0.285 0.9585 4.3696 -7.2479)" fill="#37474F" width="1" height="7.043"/>
				</g>
			</g>
			<g id="XMLID_1381_">
				<g id="XMLID_1382_">
					<circle id="XMLID_1383_" fill="#FF5252" cx="16.46" cy="41.551" r="1.533"/>
					<path id="XMLID_1384_" fill="#37474F" d="M16.459,43.584c-0.273,0-0.54-0.054-0.793-0.162c-0.5-0.212-0.887-0.606-1.091-1.11
						s-0.199-1.056,0.013-1.556c0.426-1.004,1.655-1.507,2.666-1.077c0.5,0.212,0.887,0.606,1.09,1.109
						c0.204,0.503,0.199,1.056-0.013,1.556C18.012,43.098,17.277,43.584,16.459,43.584z M16.46,40.518
						c-0.416,0-0.789,0.247-0.951,0.629c-0.108,0.254-0.11,0.535-0.007,0.791s0.3,0.456,0.554,0.563
						c0.518,0.22,1.138-0.037,1.354-0.547c0.108-0.254,0.11-0.535,0.007-0.79c-0.103-0.256-0.3-0.456-0.554-0.563
						C16.734,40.546,16.599,40.518,16.46,40.518z"/>
				</g>
				<g id="XMLID_1387_">
					<path id="XMLID_1388_" fill="#FF5252" d="M20.114,32.939l-3.055,7.201L20.114,32.939z"/>
					
						<rect id="XMLID_1389_" x="18.086" y="32.629" transform="matrix(0.9206 0.3905 -0.3905 0.9206 15.7445 -4.3568)" fill="#37474F" width="1" height="7.822"/>
				</g>
			</g>
			<g id="XMLID_1390_">
				<g id="XMLID_1391_">
					<circle id="XMLID_1241_" fill="#FF5252" cx="34.554" cy="9.386" r="1.533"/>
					<path id="XMLID_1393_" fill="#37474F" d="M34.555,11.419c-0.543,0-1.054-0.212-1.438-0.596c-0.792-0.792-0.792-2.082,0-2.875
						c0.768-0.768,2.107-0.768,2.875,0c0.792,0.792,0.792,2.082,0,2.875C35.608,11.207,35.098,11.419,34.555,11.419z M34.555,8.354
						c-0.276,0-0.535,0.107-0.73,0.302c-0.402,0.403-0.402,1.058,0,1.46c0.391,0.39,1.071,0.391,1.46,0
						c0.403-0.403,0.403-1.058,0-1.46C35.09,8.46,34.831,8.354,34.555,8.354z"/>
				</g>
				<g id="XMLID_1396_">
					<path id="XMLID_1397_" fill="#FF5252" d="M33.471,10.47l-2.285,3.52L33.471,10.47z"/>
					
						<rect id="XMLID_1398_" x="31.828" y="10.131" transform="matrix(0.8386 0.5447 -0.5447 0.8386 11.8799 -15.6368)" fill="#37474F" width="1" height="4.197"/>
				</g>
			</g>
			<g id="XMLID_1240_">
				<g id="XMLID_1400_">
					<circle id="XMLID_1401_" fill="#FF5252" cx="9.558" cy="36.88" r="1.916"/>
					<path id="XMLID_1402_" fill="#37474F" d="M9.558,39.295c-0.645,0-1.252-0.251-1.708-0.708c-0.942-0.941-0.942-2.474,0-3.417
						c0.912-0.913,2.504-0.913,3.417,0c0.942,0.942,0.942,2.475,0,3.417C10.81,39.044,10.203,39.295,9.558,39.295z M9.558,35.464
						c-0.378,0-0.733,0.147-1.001,0.415c-0.552,0.552-0.552,1.451,0,2.002c0.536,0.535,1.468,0.534,2.002,0
						c0.552-0.552,0.552-1.45,0-2.002C10.292,35.611,9.936,35.464,9.558,35.464z"/>
				</g>
				<g id="XMLID_1405_">
					<path id="XMLID_1406_" fill="#FF5252" d="M14.075,33.167l-3.434,2.629L14.075,33.167z"/>
					
						<rect id="XMLID_1407_" x="11.858" y="32.319" transform="matrix(0.6082 0.7937 -0.7937 0.6082 32.2108 3.6987)" fill="#37474F" width="1" height="4.325"/>
				</g>
			</g>
			<g id="XMLID_1408_">
				<g id="XMLID_1409_">
					<circle id="XMLID_1410_" fill="#FF5252" cx="41.398" cy="16.341" r="1.915"/>
					<path id="XMLID_1411_" fill="#37474F" d="M41.396,18.757c-1.09,0-2.049-0.736-2.332-1.791
						c-0.344-1.287,0.422-2.613,1.708-2.958c1.268-0.343,2.621,0.451,2.958,1.708c0.167,0.623,0.082,1.274-0.241,1.833
						s-0.843,0.958-1.467,1.125C41.818,18.729,41.607,18.757,41.396,18.757z M41.399,14.925c-0.123,0-0.247,0.017-0.368,0.049
						c-0.753,0.202-1.203,0.979-1.001,1.733c0.197,0.738,0.988,1.2,1.733,1.001c0.365-0.098,0.67-0.332,0.859-0.66
						c0.189-0.327,0.239-0.708,0.142-1.074C42.6,15.356,42.038,14.925,41.399,14.925z"/>
				</g>
				<g id="XMLID_1414_">
					<path id="XMLID_1236_" fill="#FF5252" d="M39.917,16.737l-8.003,3.56L39.917,16.737z"/>
					
						<rect id="XMLID_1416_" x="35.416" y="14.138" transform="matrix(0.4061 0.9138 -0.9138 0.4061 38.2505 -21.8237)" fill="#37474F" width="1" height="8.759"/>
				</g>
			</g>
			<g id="XMLID_1417_">
				<g id="XMLID_1418_">
					<circle id="XMLID_1419_" fill="#FF5252" cx="6.033" cy="28.985" r="1.532"/>
					<path id="XMLID_1420_" fill="#37474F" d="M6.032,31.018c-0.917,0-1.725-0.62-1.962-1.507c-0.141-0.524-0.068-1.072,0.203-1.542
						s0.71-0.807,1.234-0.947c1.064-0.289,2.206,0.378,2.489,1.437c0.141,0.524,0.068,1.072-0.203,1.542s-0.71,0.807-1.234,0.947
						C6.387,30.995,6.209,31.018,6.032,31.018z M6.034,27.952c-0.09,0-0.18,0.012-0.268,0.036C5.5,28.059,5.277,28.23,5.139,28.469
						c-0.138,0.239-0.174,0.517-0.103,0.784c0.145,0.538,0.718,0.875,1.265,0.73c0.267-0.071,0.489-0.242,0.627-0.481
						c0.138-0.239,0.174-0.517,0.103-0.784C6.91,28.267,6.5,27.952,6.034,27.952z"/>
				</g>
				<g id="XMLID_1423_">
					<path id="XMLID_1424_" fill="#FF5252" d="M13.883,26.966l-6.369,1.623L13.883,26.966z"/>
					
						<rect id="XMLID_1425_" x="10.198" y="24.491" transform="matrix(0.2471 0.969 -0.969 0.2471 34.9699 10.5461)" fill="#37474F" width="1" height="6.573"/>
				</g>
			</g>
			<g id="XMLID_1426_">
				<g id="XMLID_1427_">
					<circle id="XMLID_1428_" fill="#FF5252" cx="6.567" cy="22.088" r="1.533"/>
					<path id="XMLID_1429_" fill="#37474F" d="M6.568,24.122c-0.177,0-0.354-0.023-0.527-0.07c-0.524-0.141-0.963-0.477-1.234-0.947
						s-0.344-1.018-0.203-1.542c0.284-1.059,1.422-1.726,2.489-1.437c0.524,0.14,0.963,0.477,1.234,0.947s0.344,1.018,0.203,1.542
						C8.292,23.501,7.485,24.122,6.568,24.122z M6.566,21.055c-0.466,0-0.875,0.315-0.997,0.766
						c-0.071,0.267-0.035,0.545,0.103,0.784c0.138,0.239,0.361,0.41,0.627,0.481c0.544,0.145,1.12-0.192,1.265-0.73
						c0.071-0.266,0.035-0.545-0.104-0.784c-0.138-0.239-0.36-0.41-0.627-0.481C6.746,21.067,6.656,21.055,6.566,21.055z"/>
				</g>
				<g id="XMLID_1432_">
					<path id="XMLID_1433_" fill="#FF5252" d="M10.698,22.791l-2.651-0.306L10.698,22.791z"/>
					
						<rect id="XMLID_1434_" x="8.039" y="22.138" transform="matrix(0.9934 0.1145 -0.1145 0.9934 2.6548 -0.9246)" fill="#37474F" width="2.668" height="1"/>
				</g>
			</g>
			<g id="XMLID_1435_">
				<g id="XMLID_1436_">
					<circle id="XMLID_1437_" fill="#FF5252" cx="6.033" cy="15.523" r="1.533"/>
					<path id="XMLID_1438_" fill="#37474F" d="M6.034,17.556c-0.177,0-0.354-0.023-0.527-0.07c-0.524-0.141-0.963-0.477-1.234-0.947
						c-0.271-0.471-0.344-1.018-0.203-1.542c0.284-1.059,1.422-1.726,2.489-1.438c0.524,0.141,0.963,0.477,1.234,0.947
						c0.271,0.471,0.344,1.018,0.203,1.542C7.759,16.937,6.952,17.556,6.034,17.556z M6.032,14.49c-0.466,0-0.875,0.315-0.997,0.766
						c-0.071,0.267-0.035,0.544,0.103,0.783c0.138,0.239,0.361,0.41,0.627,0.481c0.547,0.145,1.12-0.192,1.265-0.73
						c0.071-0.267,0.035-0.544-0.103-0.783c-0.138-0.239-0.361-0.41-0.627-0.481C6.212,14.502,6.122,14.49,6.032,14.49z"/>
				</g>
				<g id="XMLID_1441_">
					<path id="XMLID_1442_" fill="#FF5252" d="M13.883,19.023l-6.369-3.104L13.883,19.023z"/>
					
						<rect id="XMLID_1443_" x="7.156" y="16.971" transform="matrix(0.899 0.438 -0.438 0.899 8.734 -2.9209)" fill="#37474F" width="7.085" height="1.001"/>
				</g>
			</g>
			<g id="XMLID_1234_">
				<g id="XMLID_1445_">
					<circle id="XMLID_1235_" fill="#FF5252" cx="10.615" cy="9.979" r="1.533"/>
					<path id="XMLID_1447_" fill="#37474F" d="M10.614,12.011c-0.542,0-1.053-0.211-1.437-0.595
						c-0.384-0.384-0.595-0.895-0.595-1.438s0.211-1.053,0.595-1.437c0.768-0.768,2.107-0.768,2.875,0
						c0.384,0.384,0.596,0.894,0.596,1.437s-0.212,1.054-0.596,1.438C11.667,11.8,11.157,12.011,10.614,12.011z M10.614,8.946
						c-0.275,0-0.535,0.107-0.73,0.302s-0.302,0.454-0.302,0.73s0.107,0.535,0.302,0.73c0.39,0.39,1.071,0.39,1.46,0
						c0.195-0.195,0.303-0.455,0.303-0.73s-0.107-0.535-0.303-0.73S10.89,8.946,10.614,8.946z"/>
				</g>
				<g id="XMLID_1450_">
					<path id="XMLID_1451_" fill="#FF5252" d="M14.908,14.765l-3.21-3.702L14.908,14.765z"/>
					
						<rect id="XMLID_1452_" x="10.853" y="12.413" transform="matrix(0.6551 0.7555 -0.7555 0.6551 14.3451 -5.5973)" fill="#37474F" width="4.9" height="1"/>
				</g>
			</g>
			<rect id="XMLID_1233_" x="33" y="22" fill="#37474F" width="1" height="1"/>
			<rect id="XMLID_1232_" x="17" y="31" fill="#37474F" width="1" height="1"/>
			<rect id="XMLID_1231_" x="22" y="30" fill="#37474F" width="1" height="1"/>
			<rect id="XMLID_1230_" x="14" y="21" fill="#37474F" width="1" height="1"/>
			<rect id="XMLID_1229_" x="19" y="17" fill="#37474F" width="1" height="1"/>
			<rect id="XMLID_1458_" x="29" y="18" fill="#37474F" width="1" height="1"/>
			<rect id="XMLID_1228_" x="23" y="14" fill="#37474F" width="1" height="1"/>
		</g>
	</g>
	<g id="XMLID_1317_">
		<g id="XMLID_1225_">
			<g id="XMLID_1461_">
				<path id="XMLID_1462_" fill="#CCFF90" d="M54.954,5.753l-4.908,10.526L54.954,5.753z"/>
				
					<rect id="XMLID_1463_" x="52.072" y="5.225" transform="matrix(0.9062 0.4228 -0.4228 0.9062 9.5235 -21.2103)" fill="#37474F" width="1" height="11.274"/>
			</g>
			<g id="XMLID_1464_">
				<path id="XMLID_1465_" fill="#CCFF90" d="M57.957,9.03l-10.914,3.973L57.957,9.03z"/>
				
					<rect id="XMLID_1466_" x="51.827" y="5.486" transform="matrix(0.3387 0.9409 -0.9409 0.3387 45.0506 -41.893)" fill="#37474F" width="1.001" height="11.232"/>
			</g>
			<g id="XMLID_1467_">
				<path id="XMLID_1468_" fill="#CCFF90" d="M57.763,13.471L47.237,8.562L57.763,13.471z"/>
				
					<rect id="XMLID_1469_" x="46.693" y="10.516" transform="matrix(0.9063 0.4226 -0.4226 0.9063 9.575 -21.1559)" fill="#37474F" width="11.615" height="1"/>
			</g>
			<g id="XMLID_1470_">
				<path id="XMLID_1471_" fill="#CCFF90" d="M54.486,16.473L50.514,5.559L54.486,16.473z"/>
				
					<rect id="XMLID_1472_" x="46.593" y="10.559" transform="matrix(0.3261 0.9453 -0.9453 0.3261 45.7746 -42.0932)" fill="#37474F" width="11.636" height="1"/>
			</g>
		</g>
		<g id="XMLID_1211_">
			<circle id="XMLID_1474_" fill="#FF8A80" cx="52.5" cy="11.016" r="3.629"/>
			<path id="XMLID_1212_" fill="#37474F" d="M52.5,15.146c-2.277,0-4.129-1.853-4.129-4.13c0-2.277,1.853-4.129,4.129-4.129
				s4.129,1.853,4.129,4.129C56.629,13.293,54.777,15.146,52.5,15.146z M52.5,7.887c-1.726,0-3.129,1.404-3.129,3.129
				s1.404,3.13,3.129,3.13s3.129-1.404,3.129-3.13S54.226,7.887,52.5,7.887z"/>
		</g>
	</g>
	<g id="XMLID_1205_">
		<g id="XMLID_1479_">
			<path id="XMLID_1480_" fill="#37474F" d="M37.357,23.288c-0.129-1.664-0.535-3.272-1.245-4.788l-0.906,0.424
				c0.675,1.441,1.052,2.974,1.161,4.559C36.694,23.407,37.024,23.345,37.357,23.288z"/>
			<path id="XMLID_1481_" fill="#37474F" d="M22.512,37.25c-1.352-0.103-2.668-0.404-3.923-0.921l-0.381,0.925
				c1.312,0.541,2.687,0.867,4.098,0.987C22.365,37.906,22.435,37.577,22.512,37.25z"/>
		</g>
		<g id="XMLID_1482_">
			<path id="XMLID_1483_" fill="#CFD8DC" d="M40.5,58.5c-9.374,0-17-7.626-17-17s7.626-17,17-17s17,7.626,17,17
				S49.874,58.5,40.5,58.5z"/>
			<path id="XMLID_1484_" fill="#37474F" d="M40.5,59C30.851,59,23,51.149,23,41.5S30.851,24,40.5,24S58,31.851,58,41.5
				S50.149,59,40.5,59z M40.5,25C31.402,25,24,32.402,24,41.5S31.402,58,40.5,58S57,50.598,57,41.5S49.598,25,40.5,25z"/>
		</g>
		<path id="XMLID_1487_" fill="#FFFFFF" d="M40.5,56C32.504,56,26,49.496,26,41.5S32.504,27,40.5,27S55,33.504,55,41.5
			S48.496,56,40.5,56z"/>
		<polygon id="XMLID_1209_" fill="#37474F" points="40.545,42.158 32.693,36.301 33.291,35.499 40.455,40.842 48.586,32.811 
			49.289,33.522 		"/>
		<g id="XMLID_1489_">
			<g id="XMLID_1490_">
				<g id="XMLID_1491_">
					<circle id="XMLID_1492_" fill="#FFFFFF" cx="40.5" cy="41.5" r="1"/>
					<path id="XMLID_1493_" fill="#37474F" d="M40.5,43c-0.827,0-1.5-0.673-1.5-1.5s0.673-1.5,1.5-1.5s1.5,0.673,1.5,1.5
						S41.327,43,40.5,43z M40.5,41c-0.276,0-0.5,0.224-0.5,0.5s0.224,0.5,0.5,0.5s0.5-0.224,0.5-0.5S40.776,41,40.5,41z"/>
				</g>
			</g>
		</g>
		<g id="XMLID_1496_">
			<g id="XMLID_1497_">
				
					<rect id="XMLID_1498_" x="46.75" y="28.809" transform="matrix(-0.8658 -0.5003 0.5003 -0.8658 73.2457 79.2593)" fill="#37474F" width="0.999" height="1.999"/>
				
					<rect id="XMLID_1499_" x="33.25" y="52.191" transform="matrix(-0.8661 -0.4999 0.4999 -0.8661 36.3886 116.1308)" fill="#37474F" width="1" height="2"/>
			</g>
			<g id="XMLID_1500_">
				
					<rect id="XMLID_1501_" x="51.692" y="33.75" transform="matrix(-0.5 -0.866 0.866 -0.5 48.1904 97.3241)" fill="#37474F" width="0.999" height="2"/>
				
					<rect id="XMLID_1502_" x="28.309" y="47.25" transform="matrix(-0.4999 -0.8661 0.8661 -0.4999 1.4232 97.3213)" fill="#37474F" width="1" height="2"/>
			</g>
			<g id="XMLID_1503_">
				<rect id="XMLID_1207_" x="53" y="41" fill="#37474F" width="2" height="1"/>
				<rect id="XMLID_1505_" x="26" y="41" fill="#37474F" width="2" height="1"/>
			</g>
			<g id="XMLID_1206_">
				
					<rect id="XMLID_1507_" x="51.691" y="47.25" transform="matrix(0.5001 -0.8659 0.8659 0.5001 -15.6933 69.3136)" fill="#37474F" width="1" height="2"/>
				
					<rect id="XMLID_1508_" x="28.309" y="33.75" transform="matrix(0.4999 -0.8661 0.8661 0.4999 -15.6893 42.3283)" fill="#37474F" width="1" height="2"/>
			</g>
			<g id="XMLID_1509_">
				
					<rect id="XMLID_1510_" x="46.75" y="52.191" transform="matrix(0.8661 -0.4999 0.4999 0.8661 -20.2632 30.745)" fill="#37474F" width="1" height="2"/>
				
					<rect id="XMLID_1511_" x="33.25" y="28.809" transform="matrix(0.8661 -0.4999 0.4999 0.8661 -10.3819 20.8645)" fill="#37474F" width="1" height="2"/>
			</g>
			<g id="XMLID_1512_">
				<rect id="XMLID_1513_" x="40" y="54" fill="#37474F" width="1" height="2"/>
				<rect id="XMLID_1514_" x="40" y="27" fill="#37474F" width="1" height="2"/>
			</g>
		</g>
	</g>
</g>
</svg>
