<?xml version="1.0" encoding="utf-8"?>
<!-- Generator: Adobe Illustrator 16.0.0, SVG Export Plug-In . SVG Version: 6.00 Build 0)  -->
<!DOCTYPE svg PUBLIC "-//W3C//DTD SVG 1.1//EN" "http://www.w3.org/Graphics/SVG/1.1/DTD/svg11.dtd">
<svg version="1.1" id="_x3C_Layer_x3E_" xmlns="http://www.w3.org/2000/svg" xmlns:xlink="http://www.w3.org/1999/xlink" x="0px"
	 y="0px" width="64px" height="64px" viewBox="0 0 64 64" enable-background="new 0 0 64 64" xml:space="preserve">
<g id="health_x2C__human_x2C__person_x2C__body">
	<circle id="XMLID_1488_" fill="#84FFFF" cx="32" cy="32" r="24"/>
	<path id="XMLID_1494_" fill="#ECEFF1" d="M56.18,10.919c-0.596-0.928-1.834-1.194-2.762-0.601
		c-0.071,0.045-6.275,3.938-16.576,4.944c-0.541-0.099-1.076-0.22-1.604-0.382L34,14.5v-2.278c0.609-0.55,1-1.337,1-2.222V8.5
		c0-1.657-1.344-3-3-3s-3,1.343-3,3V10c0,0.885,0.391,1.672,1,2.222V14.5l-1.238,0.381c-0.525,0.162-1.063,0.283-1.603,0.382
		c-10.264-1.002-16.461-4.871-16.575-4.944C9.656,9.723,8.421,9.986,7.82,10.914c-0.6,0.927-0.334,2.165,0.594,2.766
		c0.317,0.205,6.957,4.409,18.086,5.538V33.5l-3,25.5h3.504L32,35l4.926,24H40.5l-3-25.5V19.218
		c11.129-1.129,17.769-5.333,18.086-5.538C56.512,13.08,56.776,11.846,56.18,10.919z"/>
	<path fill="#37474F" d="M40.004,59.059l-3-25.5L37,18.766l0.449-0.045c11.041-1.12,17.592-5.284,17.865-5.461
		c0.691-0.448,0.892-1.377,0.445-2.07c-0.446-0.694-1.375-0.896-2.072-0.45c-0.262,0.165-6.468,4.013-16.797,5.021l-0.069,0.007
		l-0.069-0.013c-0.617-0.113-1.16-0.242-1.66-0.396L33.5,14.869v-2.87l0.165-0.148C34.203,11.364,34.5,10.707,34.5,10V8.5
		C34.5,7.121,33.379,6,32,6s-2.5,1.121-2.5,2.5V10c0,0.707,0.297,1.364,0.835,1.851l0.165,0.148v2.87l-1.591,0.489
		c-0.495,0.153-1.039,0.282-1.66,0.396l-0.068,0.013l-0.07-0.007c-10.453-1.021-16.734-4.981-16.796-5.021
		c-0.695-0.446-1.626-0.246-2.074,0.446c-0.449,0.694-0.249,1.625,0.445,2.074c0.273,0.177,6.824,4.341,17.865,5.461L27,18.766V33.5
		l-3.004,25.559l-0.992-0.117l3-25.5L26,19.668C14.993,18.457,8.421,14.279,8.143,14.1c-1.158-0.75-1.49-2.301-0.742-3.457
		c0.747-1.154,2.295-1.486,3.454-0.745c0.06,0.038,6.144,3.855,16.283,4.86c0.554-0.103,1.037-0.219,1.477-0.354l0.886-0.272v-1.696
		c-0.638-0.655-1-1.53-1-2.435V8.5C28.5,6.57,30.07,5,32,5s3.5,1.57,3.5,3.5V10c0,0.904-0.362,1.779-1,2.435v1.696l0.886,0.272
		c0.443,0.136,0.928,0.253,1.478,0.354c10.055-0.996,16.227-4.824,16.288-4.862c1.159-0.743,2.706-0.403,3.449,0.753
		c0.744,1.155,0.411,2.704-0.743,3.451c-0.278,0.18-6.851,4.357-17.857,5.568V33.5l2.996,25.441L40.004,59.059z"/>
	<polygon fill="#37474F" points="27.493,59.102 26.515,58.898 31.511,34.898 32.49,34.899 37.416,58.899 36.436,59.101 
		31.996,37.47 	"/>
	<path fill="#37474F" d="M32,13.5c-0.163,0-0.324-0.012-0.483-0.033l0.135-0.99C31.766,12.492,31.882,12.5,32,12.5
		c1.379,0,2.5-1.121,2.5-2.5V8.5C34.5,7.121,33.379,6,32,6s-2.5,1.121-2.5,2.5V10c0,0.354,0.072,0.697,0.216,1.018l-0.912,0.408
		C28.603,10.977,28.5,10.496,28.5,10V8.5C28.5,6.57,30.07,5,32,5s3.5,1.57,3.5,3.5V10C35.5,11.93,33.93,13.5,32,13.5z"/>
	<g>
		<polygon id="XMLID_414_" fill="#84FFFF" points="50.5,58.5 57,58.5 40.5,58.5 		"/>
		<rect x="40.5" y="58" fill="#37474F" width="16.5" height="1"/>
	</g>
	<rect id="XMLID_1460_" x="58" y="58" fill="#37474F" width="1" height="1"/>
</g>
</svg>
