<?xml version="1.0" encoding="utf-8"?>
<!-- Generator: Adobe Illustrator 16.0.0, SVG Export Plug-In . SVG Version: 6.00 Build 0)  -->
<!DOCTYPE svg PUBLIC "-//W3C//DTD SVG 1.1//EN" "http://www.w3.org/Graphics/SVG/1.1/DTD/svg11.dtd">
<svg version="1.1" id="_x3C_Layer_x3E_" xmlns="http://www.w3.org/2000/svg" xmlns:xlink="http://www.w3.org/1999/xlink" x="0px"
	 y="0px" width="64px" height="64px" viewBox="0 0 64 64" enable-background="new 0 0 64 64" xml:space="preserve">
<g id="X-ray_2_">
	<g>
		<g>
			<g>
				<rect x="7.5" y="5.5" fill="#CFD8DC" width="49" height="53"/>
			</g>
			<g>
				<path fill="#37474F" d="M57,59H7V5h50V59z M8,58h48V6H8V58z"/>
			</g>
		</g>
		<g>
			<g>
				<g>
					<polygon fill="#37474F" points="12,57 9,57 9,54 10,54 10,56 12,56 					"/>
				</g>
			</g>
			<g>
				<g>
					<polygon fill="#37474F" points="10,10 9,10 9,7 12,7 12,8 10,8 					"/>
				</g>
			</g>
			<g>
				<g>
					<polygon fill="#37474F" points="55,10 54,10 54,8 52,8 52,7 55,7 					"/>
				</g>
			</g>
			<g>
				<g>
					<polygon fill="#37474F" points="55,57 52,57 52,56 54,56 54,54 55,54 					"/>
				</g>
			</g>
		</g>
		<g>
			<g>
				<g>
					<path fill="#FFFFFF" d="M50.271,42.765c0.299-0.984,0.339-2.008,0.151-2.758c-0.199,0.396-0.52-1.731-0.45-2.025
						c0.192-0.825,0.172-1.593-0.032-2.254c-0.188,0.354-0.621-1.211-0.507-1.612c0.286-0.997,0.167-1.882-0.29-2.563
						c-0.192,0.295-0.028-3.232-1.167-4.547c-0.08,0.097,0.012-2.523-0.683-3.47c-0.218-0.298-0.496-0.559-0.798-0.804
						c-0.115,0.147-0.199-2.162-0.859-3.063c-0.358-0.489-0.817-0.897-1.337-1.244c-0.151,0.296-0.652-1.723-1.321-2.569
						c-0.539-0.684-1.254-1.256-2.049-1.721c-0.014,0.343-1.068-0.442-1.246-0.95c-0.347-0.994-1.504-1.979-2.815-2.398
						c-1.284-0.411-2.543-0.241-3.551,0.473c-0.008,0.006-0.013,0.016-0.021,0.022c-0.738,0.26-1.858,0.154-2.106-0.022
						c-1.008-0.714-2.268-0.883-3.551-0.473c-1.311,0.418-2.469,1.404-2.814,2.398c-0.242,0.691-1.233,1.298-1.247,0.95
						c-0.795,0.464-1.51,1.037-2.049,1.721c-0.668,0.846-1.16,2.883-1.322,2.569c-0.519,0.347-0.979,0.755-1.337,1.244
						c-0.66,0.901-0.743,3.21-0.857,3.063c-0.303,0.245-0.582,0.506-0.8,0.804c-0.693,0.947-0.611,3.555-0.682,3.47
						c-0.918,1.059-0.553,3.483-0.57,3.488c-0.155,0.035-0.444,1.293-0.598,1.06c-0.456,0.681-0.574,1.566-0.288,2.563
						c0.088,0.306-0.262,2.07-0.507,1.612c-0.206,0.661-0.226,1.428-0.032,2.254c0.117,0.503-0.199,2.406-0.45,1.905
						c-0.188,0.751-0.148,1.655,0.15,2.639c0.302,0.992,0.33,3.131-0.096,2.438c0,0.614,0.133,1.279,0.408,1.953
						c0.365,0.89,1.231,3.418,0.983,3.203c0.013,0.035,0.019,0.072,0.031,0.106c0.63,1.625,1.919,2.532,3.569,2.532
						c0.117,0,0.236-0.005,0.358-0.015c2.588-0.197,4.28-3.7,6.158-7.364c1.75-3.417,3.153-5.523,4.137-6.791
						c0.244,1.048,1.238,1.304,2.43,1.304c1.221,0,2.232-0.27,2.445-1.38c0.987,1.259,2.411,3.38,4.198,6.867
						c1.877,3.665,3.569,7.167,6.158,7.364c0.122,0.01,0.239,0.015,0.357,0.015c1.651,0,2.939-0.908,3.568-2.532
						c0.014-0.034,0.02-0.071,0.031-0.106c-0.187,0.162,0.646-2.382,0.984-3.203c0.275-0.674,0.409-1.339,0.407-1.953
						C50.054,45.474,50.052,43.486,50.271,42.765z"/>
				</g>
			</g>
			<g>
				<g>
					<g>
						<path fill="#37474F" d="M33.218,36.204c0.201-0.23,0.55-0.255,0.781-0.056c0.61,0.53,1.219,1.095,1.832,1.662
							c2.719,2.522,5.538,5.125,8.555,4.455c2.363-0.529,4.088-2.731,4.51-4.535c0.036-0.156,0.07-0.346,0.09-0.552
							c0.386-0.473,0.693-0.962,0.954-1.451c0.204,0.661,0.225,1.428,0.032,2.254c-0.512,2.185-2.512,4.727-5.345,5.361
							c-0.426,0.095-0.842,0.14-1.252,0.14c-1.968,0-3.772-1.03-5.498-2.4c0.801,2.216,3.389,5.634,6.59,5.59
							c2.255-0.031,4.125-2.422,4.747-4.467c0.072-0.242,0.108-0.465,0.146-0.69c0.421-0.52,0.779-1.067,1.062-1.628
							c0.188,0.751,0.147,1.655-0.151,2.639c-0.748,2.458-2.953,5.048-5.725,5.248c-0.142,0.01-0.281,0.014-0.418,0.014
							c-1.312,0-2.428-0.454-3.412-1.178c0.323,0.624,1.207,1.487,2.116,2.145c0.538,0.363,1.113,0.608,1.738,0.681
							c1.853,0.217,3.353-1.033,4.116-2.431c0.654-0.599,1.224-1.297,1.679-2.042c0.002,0.614-0.132,1.279-0.407,1.953
							c-0.771,1.876-2.571,3.65-4.947,3.65c-0.187,0-0.376-0.011-0.568-0.034c-0.602-0.071-1.157-0.261-1.676-0.531
							c0.738,0.947,1.51,1.578,2.334,1.641c0.499,0.038,0.908-0.037,1.258-0.17c1.017-0.242,1.896-0.729,2.615-1.353
							c-0.012,0.035-0.018,0.072-0.031,0.106c-0.629,1.625-1.917,2.532-3.568,2.532c-0.118,0-0.235-0.005-0.357-0.015
							c-2.589-0.197-4.281-3.7-6.158-7.364c-3.012-5.879-5.005-7.895-5.585-8.397C33.044,36.783,33.019,36.435,33.218,36.204z"/>
					</g>
				</g>
				<g>
					<g>
						<g>
							<path fill="#37474F" d="M33.303,32.825c0.67,0.494,0.419,0.146,1.161,0.496c2.868,2.54,6.542,5.666,8.801,5.082
								c2.561-0.659,4.608-2.851,5.105-4.59c0.111-0.388,0.175-0.883,0.027-1.327c0.003-0.003,0.006-0.004,0.008-0.007
								c0.294-0.295,0.529-0.607,0.737-0.925c0.457,0.681,0.576,1.566,0.29,2.563c-0.575,2.01-2.837,4.57-5.895,5.357
								c-0.332,0.085-0.666,0.125-1,0.125c-2.562,0-5.21-2.347-7.996-4.813c-0.421-0.373-0.843-0.748-1.269-1.116
								c-0.229-0.2-0.255-0.549-0.056-0.779C33.243,32.862,33.274,32.847,33.303,32.825z"/>
						</g>
					</g>
				</g>
				<g>
					<g>
						<g>
							<path fill="#37474F" d="M33.469,30.094c4.406,4.29,10.859,3.355,13.368,0.828c0.619-0.624,1.427-1.835,0.343-3.143
								c0.196-0.157,0.391-0.315,0.554-0.483c0.09-0.094,0.162-0.193,0.242-0.29c1.239,1.431,1.124,3.204-0.354,4.694
								c-1.472,1.483-4.028,2.497-6.838,2.497c-2.709,0-5.653-0.942-8.086-3.311c-0.218-0.212-0.223-0.562-0.01-0.781
								C32.901,29.885,33.25,29.882,33.469,30.094z"/>
						</g>
					</g>
				</g>
				<g>
					<g>
						<g>
							<path fill="#37474F" d="M33.392,26.718c3.699,2.498,10.652,1.226,12.75-0.954c0.721-0.749,0.493-1.258,0.261-1.576
								c-0.191-0.26-0.439-0.485-0.715-0.695c0.143-0.11,0.301-0.215,0.424-0.333c0.144-0.137,0.269-0.281,0.384-0.428
								c0.302,0.245,0.58,0.506,0.798,0.804c0.694,0.947,0.565,2.039-0.356,2.994c-1.442,1.499-4.871,2.653-8.28,2.653
								c-2.131,0-4.256-0.451-5.881-1.548c-0.254-0.171-0.32-0.515-0.148-0.767C32.797,26.613,33.14,26.548,33.392,26.718z"/>
						</g>
					</g>
				</g>
				<g>
					<g>
						<g>
							<path fill="#37474F" d="M33.98,22.877c1.699,1.354,8.732,0.483,10.601-1.311c0.557-0.533,0.407-0.913,0.164-1.245
								c-0.294-0.402-0.675-0.738-1.109-1.026c0.285-0.265,0.503-0.557,0.663-0.87c0.52,0.347,0.979,0.755,1.337,1.244
								c0.66,0.901,0.554,1.883-0.289,2.694c-1.457,1.398-5.111,2.261-8.113,2.261c-1.692,0-3.178-0.274-3.941-0.882
								c-0.238-0.19-0.277-0.538-0.087-0.776S33.742,22.687,33.98,22.877z"/>
						</g>
					</g>
				</g>
				<g>
					<g>
						<g>
							<path fill="#37474F" d="M34.005,19.032c0.892,0.333,7.072,0.019,8.26-1.48c0.104-0.133,0.322-0.408-0.154-1.012
								c-0.393-0.499-0.892-0.923-1.445-1.282c0.159-0.351,0.248-0.728,0.264-1.123c0.795,0.464,1.51,1.037,2.049,1.721
								c0.669,0.846,0.59,1.536,0.404,1.966c-0.7,1.627-4.052,2.167-5.985,2.343c-0.544,0.05-1.243,0.098-1.92,0.098
								c-1.047,0-2.035-0.115-2.3-0.514c-0.17-0.254-0.101-0.597,0.153-0.766C33.544,18.841,33.822,18.868,34.005,19.032z"/>
						</g>
					</g>
				</g>
				<g>
					<g>
						<g>
							<path fill="#37474F" d="M35.513,16.526c1.028,0,2.171-0.194,2.96-0.587c1.176-0.585,1.616-1.588,1.21-2.755
								c-0.347-0.994-1.504-1.979-2.815-2.398c-1.284-0.411-2.543-0.241-3.551,0.473c-0.25,0.176-0.308,0.521-0.131,0.77
								c0.176,0.248,0.521,0.307,0.77,0.13c0.917-0.651,1.906-0.533,2.576-0.321c1.105,0.353,1.911,1.145,2.107,1.71
								c0.182,0.518,0.084,0.885-0.313,1.192c-1.146,0.879-3.874,0.746-4.287,0.466c-0.169-0.253-0.482-0.292-0.736-0.122
								c-0.255,0.169-0.295,0.544-0.125,0.799C33.461,16.309,34.424,16.526,35.513,16.526z"/>
						</g>
					</g>
				</g>
			</g>
			<g>
				<g>
					<g>
						<path fill="#37474F" d="M31.286,36.204c-0.201-0.23-0.55-0.255-0.779-0.056c-0.61,0.53-1.22,1.095-1.831,1.662
							c-2.721,2.522-5.539,5.125-8.556,4.455c-2.364-0.529-4.088-2.731-4.509-4.535c-0.037-0.156-0.071-0.346-0.091-0.552
							c-0.385-0.473-0.692-0.962-0.953-1.451c-0.206,0.661-0.226,1.428-0.032,2.254c0.511,2.185,2.51,4.727,5.343,5.361
							c0.426,0.095,0.843,0.14,1.252,0.14c1.969,0,3.773-1.03,5.5-2.4c-0.802,2.216-3.391,5.634-6.591,5.59
							c-2.256-0.031-4.125-2.422-4.747-4.467c-0.072-0.242-0.108-0.465-0.146-0.69c-0.422-0.52-0.78-1.067-1.061-1.628
							c-0.188,0.751-0.148,1.655,0.15,2.639c0.747,2.458,2.954,5.048,5.725,5.248c0.142,0.01,0.281,0.014,0.419,0.014
							c1.31,0,2.427-0.454,3.411-1.178c-0.323,0.624-1.207,1.487-2.115,2.145c-0.539,0.363-1.114,0.608-1.739,0.681
							c-1.852,0.217-3.352-1.033-4.117-2.431c-0.654-0.599-1.222-1.297-1.679-2.042c0,0.614,0.133,1.279,0.408,1.953
							c0.771,1.876,2.57,3.65,4.947,3.65c0.187,0,0.375-0.011,0.569-0.034c0.602-0.071,1.156-0.261,1.674-0.531
							c-0.738,0.947-1.51,1.578-2.333,1.641c-0.499,0.038-0.909-0.037-1.258-0.17c-1.018-0.242-1.896-0.729-2.616-1.353
							c0.013,0.035,0.019,0.072,0.031,0.106c0.63,1.625,1.919,2.532,3.569,2.532c0.117,0,0.236-0.005,0.358-0.015
							c2.588-0.197,4.28-3.7,6.158-7.364c3.01-5.879,5.003-7.895,5.582-8.397C31.461,36.783,31.485,36.435,31.286,36.204z"/>
					</g>
				</g>
				<g>
					<g>
						<g>
							<path fill="#37474F" d="M31.202,32.825c-0.67,0.494-0.42,0.146-1.162,0.496c-2.867,2.54-6.539,5.666-8.799,5.082
								c-2.562-0.659-4.608-2.851-5.106-4.59c-0.109-0.388-0.173-0.883-0.025-1.327c-0.004-0.003-0.007-0.004-0.009-0.007
								c-0.294-0.295-0.529-0.607-0.738-0.925c-0.456,0.681-0.574,1.566-0.288,2.563c0.575,2.01,2.835,4.57,5.893,5.357
								c0.333,0.085,0.666,0.125,1.002,0.125c2.562,0,5.209-2.347,7.993-4.813c0.422-0.373,0.845-0.748,1.269-1.116
								c0.23-0.2,0.255-0.549,0.056-0.779C31.262,32.862,31.23,32.847,31.202,32.825z"/>
						</g>
					</g>
				</g>
				<g>
					<g>
						<g>
							<path fill="#37474F" d="M31.036,30.094c-4.404,4.29-10.859,3.355-13.368,0.828c-0.617-0.624-1.427-1.835-0.342-3.143
								c-0.197-0.157-0.393-0.315-0.554-0.483c-0.091-0.094-0.162-0.193-0.242-0.29c-1.24,1.431-1.124,3.204,0.354,4.694
								c1.473,1.483,4.028,2.497,6.838,2.497c2.709,0,5.652-0.942,8.084-3.311c0.218-0.212,0.223-0.562,0.011-0.781
								C31.604,29.885,31.254,29.882,31.036,30.094z"/>
						</g>
					</g>
				</g>
				<g>
					<g>
						<g>
							<path fill="#37474F" d="M31.111,26.718c-3.698,2.498-10.648,1.226-12.748-0.954c-0.72-0.749-0.493-1.258-0.26-1.576
								c0.189-0.26,0.44-0.485,0.716-0.695c-0.145-0.11-0.302-0.215-0.426-0.333c-0.142-0.137-0.268-0.281-0.382-0.428
								c-0.303,0.245-0.582,0.506-0.8,0.804c-0.693,0.947-0.564,2.039,0.356,2.994c1.443,1.499,4.871,2.653,8.282,2.653
								c2.129,0,4.253-0.451,5.879-1.548c0.254-0.171,0.32-0.515,0.149-0.767C31.708,26.613,31.365,26.548,31.111,26.718z"/>
						</g>
					</g>
				</g>
				<g>
					<g>
						<g>
							<path fill="#37474F" d="M30.524,22.877c-1.698,1.354-8.731,0.483-10.601-1.311c-0.555-0.533-0.406-0.913-0.164-1.245
								c0.295-0.402,0.676-0.738,1.11-1.026c-0.286-0.265-0.502-0.557-0.664-0.87c-0.519,0.347-0.979,0.755-1.337,1.244
								c-0.66,0.901-0.554,1.883,0.291,2.694c1.456,1.398,5.11,2.261,8.111,2.261c1.693,0,3.179-0.274,3.941-0.882
								c0.238-0.19,0.278-0.538,0.088-0.776S30.764,22.687,30.524,22.877z"/>
						</g>
					</g>
				</g>
				<g>
					<g>
						<g>
							<path fill="#37474F" d="M30.499,19.032c-0.89,0.333-7.07,0.019-8.258-1.48c-0.105-0.133-0.323-0.408,0.153-1.012
								c0.394-0.499,0.894-0.923,1.446-1.282c-0.159-0.351-0.248-0.728-0.264-1.123c-0.795,0.464-1.51,1.037-2.049,1.721
								c-0.668,0.846-0.589,1.536-0.404,1.966c0.7,1.627,4.05,2.167,5.985,2.343c0.544,0.05,1.243,0.098,1.92,0.098
								c1.045,0,2.033-0.115,2.3-0.514c0.168-0.254,0.1-0.597-0.154-0.766C30.961,18.841,30.682,18.868,30.499,19.032z"/>
						</g>
					</g>
				</g>
				<g>
					<g>
						<g>
							<path fill="#37474F" d="M28.994,16.526c-1.03,0-2.172-0.194-2.961-0.587c-1.176-0.585-1.617-1.588-1.209-2.755
								c0.346-0.994,1.504-1.979,2.814-2.398c1.283-0.411,2.543-0.241,3.551,0.473c0.248,0.176,0.306,0.521,0.13,0.77
								c-0.177,0.248-0.521,0.307-0.77,0.13c-0.918-0.651-1.906-0.533-2.575-0.321c-1.105,0.353-1.911,1.145-2.108,1.71
								c-0.18,0.518-0.083,0.885,0.315,1.192c1.144,0.879,3.871,0.746,4.285,0.466c0.169-0.253,0.483-0.292,0.737-0.122
								c0.254,0.169,0.293,0.544,0.125,0.799C31.044,16.309,30.081,16.526,28.994,16.526z"/>
						</g>
					</g>
				</g>
			</g>
			<g>
				<g>
					<g>
						<path fill="#FFFFFF" d="M32.215,39.393c-1.656,0-1.989-0.514-1.989-1.342c0-0.401,0.099-0.785,0.293-1.143
							c0.081-0.148,0.081-0.328,0-0.477c-0.194-0.358-0.293-0.743-0.293-1.143c0-0.315,0.061-0.624,0.18-0.917
							c0.048-0.12,0.048-0.254,0-0.375c-0.119-0.294-0.18-0.603-0.18-0.917c0-0.455,0.121-0.891,0.351-1.262
							c0.091-0.148,0.099-0.332,0.021-0.487c-0.162-0.324-0.245-0.665-0.245-1.012c0-0.397,0.104-0.788,0.303-1.13
							c0.09-0.155,0.09-0.346,0-0.5c-0.198-0.343-0.303-0.734-0.303-1.131c0-0.462,0.139-0.904,0.402-1.279
							c0.108-0.155,0.121-0.357,0.031-0.523c-0.162-0.304-0.245-0.627-0.245-0.959c0-0.398,0.113-0.781,0.327-1.107
							c0.109-0.167,0.109-0.382,0-0.549c-0.214-0.326-0.327-0.709-0.327-1.106c0-0.398,0.113-0.78,0.327-1.106
							c0.109-0.167,0.109-0.382,0-0.549c-0.214-0.326-0.327-0.708-0.327-1.107c0-0.397,0.113-0.78,0.327-1.106
							c0.109-0.167,0.109-0.382,0-0.549c-0.214-0.326-0.327-0.709-0.327-1.107c0-1.038,0.751-1.882,1.675-1.882
							s1.675,0.844,1.675,1.882c0,0.397-0.113,0.781-0.326,1.108c-0.108,0.166-0.108,0.38,0,0.546
							c0.214,0.328,0.326,0.71,0.326,1.107c0,0.397-0.112,0.781-0.326,1.108c-0.108,0.166-0.108,0.38,0,0.546
							c0.214,0.328,0.326,0.71,0.326,1.108c0,0.397-0.113,0.78-0.326,1.108c-0.108,0.166-0.108,0.38,0,0.546
							c0.213,0.328,0.326,0.711,0.326,1.108c0,0.335-0.082,0.657-0.244,0.958c-0.089,0.166-0.077,0.368,0.03,0.523
							c0.264,0.378,0.403,0.821,0.403,1.28c0,0.397-0.104,0.788-0.303,1.131c-0.09,0.155-0.09,0.346,0,0.5
							c0.198,0.342,0.303,0.733,0.303,1.13c0,0.348-0.083,0.688-0.245,1.012c-0.078,0.155-0.07,0.34,0.021,0.488
							c0.229,0.371,0.351,0.807,0.351,1.262c0,0.313-0.061,0.621-0.181,0.916c-0.05,0.121-0.05,0.256,0,0.377
							c0.12,0.294,0.181,0.603,0.181,0.917c0,0.397-0.099,0.782-0.294,1.143c-0.081,0.148-0.081,0.328,0,0.476
							c0.195,0.36,0.294,0.745,0.294,1.143C34.206,38.879,33.873,39.393,32.215,39.393z"/>
					</g>
				</g>
				<g>
					<g>
						<path fill="#37474F" d="M32.215,15.126c0.647,0,1.175,0.62,1.175,1.382c0,0.3-0.085,0.589-0.245,0.836
							c-0.216,0.332-0.216,0.76,0,1.091c0.16,0.246,0.245,0.535,0.245,0.834c0,0.3-0.085,0.589-0.245,0.835
							c-0.216,0.332-0.216,0.76,0,1.092c0.16,0.246,0.245,0.535,0.245,0.835c0,0.3-0.085,0.589-0.245,0.835
							c-0.216,0.332-0.216,0.759,0,1.091c0.16,0.247,0.245,0.536,0.245,0.836c0,0.251-0.062,0.494-0.185,0.721
							c-0.179,0.333-0.155,0.737,0.061,1.046c0.205,0.293,0.313,0.637,0.313,0.994c0,0.309-0.082,0.614-0.236,0.881
							c-0.179,0.31-0.179,0.692,0.001,1.001c0.154,0.266,0.235,0.57,0.235,0.88c0,0.269-0.064,0.534-0.192,0.788
							c-0.156,0.311-0.14,0.68,0.043,0.976c0.181,0.291,0.276,0.636,0.276,0.998c0,0.248-0.049,0.493-0.144,0.728
							c-0.099,0.242-0.099,0.513,0,0.754c0.095,0.234,0.144,0.479,0.144,0.728c0,0.313-0.079,0.618-0.234,0.906
							c-0.16,0.297-0.16,0.654,0.001,0.951c0.154,0.287,0.233,0.591,0.233,0.905c0,0.433,0,0.842-1.491,0.842
							c-1.489,0-1.489-0.409-1.489-0.842c0-0.316,0.078-0.621,0.232-0.903c0.161-0.298,0.161-0.657,0-0.955
							c-0.154-0.284-0.232-0.588-0.232-0.904c0-0.25,0.048-0.496,0.143-0.73c0.098-0.24,0.098-0.509,0-0.75
							c-0.095-0.235-0.143-0.48-0.143-0.73c0-0.362,0.096-0.708,0.275-1c0.183-0.295,0.199-0.665,0.043-0.975
							c-0.128-0.254-0.192-0.519-0.192-0.788c0-0.31,0.081-0.614,0.235-0.88c0.18-0.31,0.18-0.691,0.001-1.001
							c-0.154-0.267-0.236-0.572-0.236-0.881c0-0.359,0.107-0.702,0.312-0.992c0.217-0.309,0.241-0.714,0.063-1.047
							c-0.124-0.23-0.187-0.474-0.187-0.723c0-0.3,0.085-0.588,0.245-0.833c0.219-0.333,0.219-0.764,0-1.097
							c-0.16-0.245-0.245-0.533-0.245-0.833c0-0.3,0.085-0.588,0.245-0.832c0.219-0.333,0.219-0.765,0-1.098
							c-0.16-0.244-0.245-0.532-0.245-0.833c0-0.3,0.085-0.587,0.245-0.832c0.219-0.333,0.219-0.764,0-1.097
							c-0.16-0.245-0.245-0.533-0.245-0.833C31.04,15.746,31.567,15.126,32.215,15.126L32.215,15.126z M32.215,14.126
							c-1.201,0-2.175,1.067-2.175,2.382c0,0.516,0.153,0.991,0.409,1.381c-0.256,0.39-0.409,0.864-0.409,1.38
							c0,0.517,0.153,0.992,0.409,1.381c-0.256,0.39-0.409,0.865-0.409,1.381s0.153,0.991,0.409,1.381
							c-0.256,0.39-0.409,0.865-0.409,1.381c0,0.438,0.116,0.843,0.305,1.195c-0.307,0.437-0.493,0.976-0.493,1.566
							c0,0.509,0.139,0.981,0.37,1.381c-0.231,0.4-0.37,0.871-0.37,1.381c0,0.45,0.113,0.868,0.299,1.237
							c-0.269,0.435-0.425,0.96-0.425,1.525c0,0.394,0.079,0.766,0.216,1.104c-0.137,0.338-0.216,0.711-0.216,1.105
							c0,0.506,0.133,0.974,0.354,1.381c-0.221,0.406-0.354,0.875-0.354,1.381c0,1.505,1.115,1.842,2.489,1.842
							c1.376,0,2.491-0.337,2.491-1.842c0-0.506-0.135-0.976-0.354-1.381c0.22-0.407,0.354-0.875,0.354-1.381
							c0-0.394-0.08-0.767-0.218-1.105c0.138-0.338,0.218-0.711,0.218-1.104c0-0.565-0.156-1.09-0.426-1.525
							c0.186-0.369,0.299-0.787,0.299-1.237c0-0.51-0.139-0.981-0.37-1.381c0.231-0.4,0.37-0.872,0.37-1.381
							c0-0.591-0.188-1.13-0.493-1.566c0.189-0.352,0.304-0.757,0.304-1.195c0-0.517-0.153-0.991-0.407-1.381
							c0.254-0.39,0.407-0.865,0.407-1.381s-0.153-0.991-0.407-1.381c0.254-0.39,0.407-0.865,0.407-1.381
							c0-0.516-0.153-0.991-0.407-1.38c0.254-0.39,0.407-0.865,0.407-1.381C34.39,15.193,33.417,14.126,32.215,14.126L32.215,14.126
							z"/>
					</g>
				</g>
			</g>
			<g>
				<g>
					<path fill="#FFFFFF" d="M34.538,49.112c0,1.11-1.04,2.01-2.323,2.01c-1.282,0-2.322-0.9-2.322-2.01
						c0-1.111,1.04-0.429,2.322-0.429C33.498,48.683,34.538,48.001,34.538,49.112z"/>
				</g>
				<g>
					<path fill="#37474F" d="M32.215,51.622c-1.557,0-2.822-1.126-2.822-2.51c0-0.722,0.385-1.136,1.057-1.136
						c0.21,0,0.466,0.041,0.752,0.091c0.619,0.108,1.41,0.108,2.027,0c0.287-0.05,0.543-0.091,0.753-0.091
						c0.672,0,1.057,0.414,1.057,1.136C35.038,50.496,33.771,51.622,32.215,51.622z M30.427,48.962c-0.022,0-0.034,0.049-0.034,0.15
						c0,0.833,0.817,1.51,1.822,1.51s1.823-0.677,1.823-1.51c0-0.131-0.021-0.175-0.021-0.175c-0.198,0.039-0.395,0.077-0.616,0.116
						c-0.664,0.116-1.71,0.116-2.372,0c-0.222-0.039-0.418-0.077-0.58-0.077C30.44,48.967,30.434,48.962,30.427,48.962z"/>
				</g>
			</g>
			<g>
				<g>
					<path fill="#FFFFFF" d="M34.333,45.381c0,1.013-0.949,1.832-2.118,1.832s-2.116-0.819-2.116-1.832s0.947-0.391,2.116-0.391
						S34.333,44.368,34.333,45.381z"/>
				</g>
				<g>
					<path fill="#37474F" d="M32.215,47.713c-1.442,0-2.616-1.046-2.616-2.332c0-0.687,0.367-1.08,1.007-1.08
						c0.193,0,0.429,0.038,0.693,0.084c0.559,0.098,1.273,0.098,1.832,0c0.265-0.046,0.5-0.084,0.694-0.084
						c0.641,0,1.008,0.394,1.008,1.08C34.833,46.667,33.658,47.713,32.215,47.713z M30.603,45.301
						c-0.002,0.021-0.004,0.047-0.004,0.08c0,0.734,0.725,1.332,1.616,1.332c0.893,0,1.618-0.598,1.618-1.332
						c0-0.03-0.001-0.055-0.003-0.075c-0.187,0.002-0.348,0.033-0.526,0.064c-0.609,0.106-1.568,0.106-2.178,0
						C30.926,45.335,30.755,45.296,30.603,45.301z"/>
				</g>
			</g>
			<g>
				<g>
					<path fill="#FFFFFF" d="M34.333,41.596c0,1.012-0.949,1.832-2.118,1.832s-2.116-0.82-2.116-1.832
						c0-1.012,0.947-0.391,2.116-0.391S34.333,40.583,34.333,41.596z"/>
				</g>
				<g>
					<path fill="#37474F" d="M32.215,43.928c-1.442,0-2.616-1.046-2.616-2.332c0-0.686,0.367-1.08,1.007-1.08
						c0.193,0,0.429,0.038,0.693,0.084c0.559,0.098,1.273,0.098,1.832,0c0.265-0.046,0.501-0.084,0.694-0.084
						c0.641,0,1.008,0.394,1.008,1.08C34.833,42.881,33.658,43.928,32.215,43.928z M30.603,41.516
						c-0.002,0.021-0.004,0.047-0.004,0.08c0,0.734,0.725,1.332,1.616,1.332c0.893,0,1.618-0.598,1.618-1.332
						c0-0.03-0.001-0.055-0.003-0.075c-0.187,0.002-0.348,0.033-0.526,0.064c-0.607,0.106-1.57,0.106-2.178,0
						C30.925,41.55,30.755,41.487,30.603,41.516z"/>
				</g>
			</g>
		</g>
	</g>
	<g>
		<g>
			<rect x="9" y="16" fill="#37474F" width="3" height="1"/>
		</g>
	</g>
	<g>
		<g>
			<rect x="9" y="13" fill="#37474F" width="5" height="1"/>
		</g>
	</g>
	<g>
		<g>
			<rect x="29" y="56" fill="#37474F" width="6" height="1"/>
		</g>
	</g>
	<g>
		<g>
			<rect x="8" y="6" fill="#FFFFFF" width="1" height="52"/>
		</g>
	</g>
	<g>
		<g>
			<rect x="9" y="6" fill="#FFFFFF" width="47" height="1"/>
		</g>
	</g>
</g>
</svg>
