<?xml version="1.0" encoding="utf-8"?>
<!-- Generator: Adobe Illustrator 16.0.0, SVG Export Plug-In . SVG Version: 6.00 Build 0)  -->
<!DOCTYPE svg PUBLIC "-//W3C//DTD SVG 1.1//EN" "http://www.w3.org/Graphics/SVG/1.1/DTD/svg11.dtd">
<svg version="1.1" id="_x3C_Layer_x3E_" xmlns="http://www.w3.org/2000/svg" xmlns:xlink="http://www.w3.org/1999/xlink" x="0px"
	 y="0px" width="64px" height="64px" viewBox="0 0 64 64" enable-background="new 0 0 64 64" xml:space="preserve">
<g id="hands_x2C__shield_x2C__protection_x2C__insurance_x2C__medical_insurance">
	<g>
		<path fill="#CCFF90" d="M38.663,32.023L32,35.5l-6.663-3.477c-2.973-1.551-4.837-4.626-4.837-7.979V10.5l3.473-0.463
			c2.612-0.349,5.037-1.547,6.9-3.41L32,5.5l1.127,1.127c1.863,1.863,4.288,3.062,6.9,3.41L43.5,10.5v13.544
			C43.5,27.397,41.636,30.473,38.663,32.023z"/>
		<path fill="#37474F" d="M32,36.064l-6.895-3.598C21.956,30.824,20,27.597,20,24.044V10.063l3.906-0.521
			c2.489-0.332,4.838-1.492,6.613-3.268L32,4.793l1.48,1.48c1.775,1.775,4.124,2.936,6.613,3.268L44,10.063v13.981
			c0,3.553-1.956,6.78-5.105,8.423L32,36.064z M21,10.938v13.106c0,3.179,1.75,6.066,4.568,7.536L32,34.936l6.432-3.355
			C41.25,30.11,43,27.223,43,24.044V10.938l-3.039-0.404c-2.705-0.361-5.258-1.623-7.188-3.553L32,6.207L31.227,6.98
			c-1.93,1.93-4.482,3.191-7.188,3.553L21,10.938z"/>
	</g>
	<g id="XMLID_2319_">
		<g id="health_care">
			<g id="money_saving">
				<g id="XMLID_2448_">
					<g id="XMLID_2492_">
						<path id="XMLID_2493_" fill="#FFFFFF" d="M35.5,52.5V46c0-2.762,0.211-5.918,2.73-8.437c1.475-1.475,2.955-2.424,4.19-2.691
							l3.553-3.552c1.41-1.41,2.775-2.125,4.058-2.125c0.877,0,1.588,0.328,2.141,0.717l-0.141-0.131l0.156-0.332
							c0.299-0.634,0.313-1.447,0.313-1.455c0.008-0.171,0.174-3.827,0.561-5.752c0.342-1.7,1.491-2.715,3.074-2.715
							c1.143,0,2.365,0.592,2.365,1.473v8c0,0.609-0.16,1.536-0.365,2.11l-2.73,7.663c-0.213,0.597-0.752,1.392-1.227,1.811
							l-7.072,7.107C46.771,47.986,46.5,48.588,46.5,49v3.5H35.5z"/>
					</g>
					<g id="XMLID_2490_">
						<path id="XMLID_2491_" fill="#FFE0B2" d="M39.584,38.417C37.102,40.898,37,44.151,37,46.5v6h9.5v-3
							c0-0.553,0.336-1.296,0.75-1.661l7.097-7.13c0.415-0.365,0.901-1.083,1.087-1.604l2.73-7.663
							c0.186-0.521,0.336-1.39,0.336-1.942v-8c0-0.48-0.379-0.973-1.365-0.973c-1.055,0-2.232,0.564-2.584,2.313
							C54.167,24.75,54,28.5,54,28.5s-0.01,0.916-0.36,1.662L53,31.125c-0.48-0.445-0.391-0.93-1.969-0.93
							c-0.99,0-2.217,0.49-3.704,1.979l-3.661,3.66C42.635,36.01,41.207,36.794,39.584,38.417z"/>
					</g>
					<g id="XMLID_2485_">
						<g id="XMLID_2488_">
							<path id="XMLID_2489_" fill="#E6CAA0" d="M51.868,30.209c0.297,0.267,0.532,0.524,0.7,0.681l-7.854,7.854l0.693,0.691
								l8.092-8.311C53.059,30.716,53.083,30.278,51.868,30.209z"/>
						</g>
						<g id="XMLID_2486_">
							<path id="XMLID_2487_" fill="#E6CAA0" d="M56.885,20.527c-0.044,0,0.16,0.007,0.115,0.01V28.5
								c0,0.553-0.15,1.422-0.336,1.942l-2.73,7.663c-0.186,0.521-0.672,1.238-1.087,1.604l-7.097,7.13
								C45.336,47.204,45,47.947,45,48.5V52h-8v1h9v-3.5c0-0.553,0.586-1.296,1-1.661l7.222-7.13
								c0.415-0.365,0.964-1.083,1.149-1.604l2.512-7.663C58.068,30.922,58,30.053,58,29.5v-8C58,21.02,57.871,20.527,56.885,20.527
								z"/>
						</g>
					</g>
					<g id="XMLID_2481_">
						<path id="XMLID_2482_" fill="#37474F" d="M56.135,20.027C57.121,20.027,58,20.52,58,21v8c0,0.553-0.15,1.422-0.336,1.942
							l-2.73,7.663c-0.186,0.521-0.672,1.238-1.087,1.604l-7.097,7.13C46.336,47.704,46,48.447,46,49v3H36v-6
							c0-2.349,0.102-5.602,2.584-8.083c1.623-1.623,3.051-2.407,4.082-2.583l3.661-3.66c1.487-1.488,2.714-1.979,3.704-1.979
							c1.578,0,2.557,1.249,3.037,1.694l-7.854,7.854l0.693,0.691l8.576-8.577l-1.845-1.696C52.99,28.916,53,28,53,28
							s0.167-3.75,0.551-5.659C53.902,20.592,55.08,20.027,56.135,20.027L56.135,20.027z M56.135,19.027
							c-1.42,0-3.103,0.818-3.564,3.116c-0.395,1.962-0.563,5.655-0.569,5.812c-0.004,0.208-0.049,0.729-0.212,1.153
							c-0.5-0.243-1.086-0.413-1.758-0.413c-1.42-0.001-2.904,0.764-4.411,2.271l-3.451,3.451c-1.31,0.325-2.785,1.284-4.292,2.792
							C35,40.086,35,43.933,35,46v6v1h1h10h1v-1v-3c0-0.267,0.211-0.734,0.412-0.911l0.023-0.021l0.023-0.023l7.076-7.108
							c0.531-0.479,1.104-1.329,1.34-1.994l2.73-7.663C58.83,30.648,59,29.669,59,29v-8C59,19.781,57.513,19.027,56.135,19.027
							L56.135,19.027z"/>
					</g>
					<g id="XMLID_2476_">
						<g id="XMLID_2477_">
							<g id="XMLID_2478_">
								<g id="XMLID_2479_">
									<rect id="XMLID_2480_" x="34" y="50" fill="#FFFFFF" width="12" height="2"/>
								</g>
							</g>
						</g>
					</g>
					<g id="XMLID_2471_">
						<g id="XMLID_2472_">
							<g id="XMLID_2473_">
								<g id="XMLID_2474_">
									<rect id="XMLID_2475_" x="38" y="50" fill="#ECEFF1" width="10" height="2"/>
								</g>
							</g>
						</g>
					</g>
					<g id="XMLID_2466_">
						<g id="XMLID_2467_">
							<g id="XMLID_2468_">
								<g id="XMLID_2469_">
									<polygon id="XMLID_2470_" fill="#84FFFF" points="50,53 51,59 33,59 33,53 									"/>
								</g>
							</g>
						</g>
					</g>
					<g id="XMLID_2461_">
						<g id="XMLID_2462_">
							<g id="XMLID_2463_">
								<g id="XMLID_2464_">
									<rect id="XMLID_2465_" x="38" y="53" fill="#18FFFF" width="13" height="6"/>
								</g>
							</g>
						</g>
					</g>
					<g id="XMLID_2456_">
						<g id="XMLID_2457_">
							<g id="XMLID_2458_">
								<g id="XMLID_2459_">
									<polygon id="XMLID_2460_" fill="#37474F" points="33,59 34,59 34,53 50,53 50,59 51,59 51,52 33,52 									"/>
								</g>
							</g>
						</g>
					</g>
					<g id="XMLID_2449_">
						<g id="XMLID_2450_">
							<g id="XMLID_2451_">
								<g id="XMLID_2452_">
									<path id="XMLID_2453_" fill="#37474F" d="M34,53h15v-4H34V53z M48,50v2H35v-2H48z"/>
								</g>
							</g>
						</g>
					</g>
				</g>
				<g id="loan_money_5_">
					<g id="XMLID_2402_">
						<g id="XMLID_2446_">
							<path id="XMLID_2447_" fill="#FFFFFF" d="M28.5,52.5V46c0-2.762-0.211-5.918-2.73-8.437c-1.475-1.475-2.955-2.424-4.19-2.691
								l-3.553-3.552c-1.41-1.41-2.775-2.125-4.058-2.125c-0.877,0-1.588,0.328-2.141,0.717l0.141-0.131l-0.156-0.332
								c-0.299-0.634-0.313-1.447-0.313-1.455c-0.008-0.171-0.174-3.827-0.561-5.752c-0.342-1.7-1.491-2.715-3.074-2.715
								C6.723,19.527,5.5,20.119,5.5,21v8c0,0.609,0.16,1.536,0.365,2.11l2.73,7.663c0.213,0.597,0.752,1.392,1.227,1.811
								l7.072,7.107C17.229,47.986,17.5,48.588,17.5,49v3.5H28.5z"/>
						</g>
						<g id="XMLID_2444_">
							<path id="XMLID_2445_" fill="#FFE0B2" d="M24.416,38.417C26.898,40.898,27,44.151,27,46.5v6h-9.5v-3
								c0-0.553-0.336-1.296-0.75-1.661l-7.097-7.13c-0.415-0.365-0.901-1.083-1.087-1.604l-2.73-7.663
								C5.65,30.922,5.5,30.053,5.5,29.5v-8c0-0.48,0.379-0.973,1.365-0.973c1.055,0,2.232,0.564,2.584,2.313
								C9.833,24.75,10,28.5,10,28.5s0.01,0.916,0.36,1.662L11,31.125c0.48-0.445,0.391-0.93,1.969-0.93
								c0.99,0,2.217,0.49,3.704,1.979l3.661,3.66C21.365,36.01,22.793,36.794,24.416,38.417z"/>
						</g>
						<g id="XMLID_2439_">
							<g id="XMLID_2442_">
								<path id="XMLID_2443_" fill="#E6CAA0" d="M12.132,30.209c-0.297,0.267-0.532,0.524-0.7,0.681l7.854,7.854l-0.693,0.691
									L10.5,31.125C10.941,30.716,10.917,30.278,12.132,30.209z"/>
							</g>
							<g id="XMLID_2440_">
								<path id="XMLID_2441_" fill="#E6CAA0" d="M7.115,20.527c0.044,0-0.16,0.007-0.115,0.01V28.5c0,0.553,0.15,1.422,0.336,1.942
									l2.73,7.663c0.186,0.521,0.672,1.238,1.087,1.604l7.097,7.13C18.664,47.204,19,47.947,19,48.5V52h8v1h-9v-3.5
									c0-0.553-0.586-1.296-1-1.661l-7.222-7.13c-0.415-0.365-0.964-1.083-1.149-1.604l-2.512-7.663C5.932,30.922,6,30.053,6,29.5
									v-8C6,21.02,6.129,20.527,7.115,20.527z"/>
							</g>
						</g>
						<g id="XMLID_2435_">
							<path id="XMLID_2436_" fill="#37474F" d="M7.865,20.027c1.055,0,2.232,0.564,2.584,2.313C10.833,24.25,11,28,11,28
								s0.01,0.916,0.36,1.662l-1.845,1.696l8.576,8.577l0.693-0.691l-7.854-7.854c0.48-0.445,1.459-1.694,3.037-1.694
								c0.99,0,2.217,0.49,3.704,1.979l3.661,3.66c1.031,0.176,2.459,0.96,4.082,2.583C27.898,40.398,28,43.651,28,46v6H18v-3
								c0-0.553-0.336-1.296-0.75-1.661l-7.097-7.13c-0.415-0.365-0.901-1.083-1.087-1.604l-2.73-7.663C6.15,30.422,6,29.553,6,29
								v-8C6,20.52,6.879,20.027,7.865,20.027L7.865,20.027z M7.865,19.027C6.487,19.027,5,19.781,5,21v8
								c0,0.669,0.17,1.648,0.395,2.278l2.73,7.663c0.236,0.665,0.809,1.515,1.34,1.994l7.076,7.108l0.023,0.023l0.023,0.021
								C16.789,48.266,17,48.733,17,49v3v1h1h10h1v-1v-6c0-2.067,0-5.914-2.877-8.79c-1.507-1.508-2.982-2.467-4.292-2.792
								l-3.451-3.451c-1.507-1.508-2.991-2.272-4.411-2.271c-0.672,0-1.258,0.17-1.758,0.413c-0.163-0.424-0.208-0.945-0.212-1.153
								c-0.007-0.156-0.175-3.85-0.569-5.812C10.968,19.846,9.285,19.027,7.865,19.027L7.865,19.027z"/>
						</g>
						<g id="XMLID_2430_">
							<g id="XMLID_2431_">
								<g id="XMLID_2432_">
									<g id="XMLID_2433_">
										<rect id="XMLID_2434_" x="18" y="50" fill="#FFFFFF" width="12" height="2"/>
									</g>
								</g>
							</g>
						</g>
						<g id="XMLID_2425_">
							<g id="XMLID_2426_">
								<g id="XMLID_2427_">
									<g id="XMLID_2428_">
										<rect id="XMLID_2429_" x="16" y="50" fill="#ECEFF1" width="10" height="2"/>
									</g>
								</g>
							</g>
						</g>
						<g id="XMLID_2420_">
							<g id="XMLID_2421_">
								<g id="XMLID_2422_">
									<g id="XMLID_2423_">
										<polygon id="XMLID_2424_" fill="#84FFFF" points="14,53 13,59 31,59 31,53 										"/>
									</g>
								</g>
							</g>
						</g>
						<g id="XMLID_2415_">
							<g id="XMLID_2416_">
								<g id="XMLID_2417_">
									<g id="XMLID_2418_">
										<rect id="XMLID_2419_" x="13" y="53" fill="#18FFFF" width="13" height="6"/>
									</g>
								</g>
							</g>
						</g>
						<g id="XMLID_2410_">
							<g id="XMLID_2411_">
								<g id="XMLID_2412_">
									<g id="XMLID_2413_">
										<polygon id="XMLID_2414_" fill="#37474F" points="31,59 30,59 30,53 14,53 14,59 13,59 13,52 31,52 										"/>
									</g>
								</g>
							</g>
						</g>
						<g id="XMLID_2403_">
							<g id="XMLID_2404_">
								<g id="XMLID_2405_">
									<g id="XMLID_2406_">
										<path id="XMLID_2407_" fill="#37474F" d="M30,49H15v4h15V49z M29,50v2H16v-2H29z"/>
									</g>
								</g>
							</g>
						</g>
					</g>
				</g>
			</g>
		</g>
		<g>
			<polygon id="XMLID_411_" fill="#FFFFFF" points="36.5,18.5 33.5,18.5 33.5,15.5 30.5,15.5 30.5,18.5 27.5,18.5 27.5,21.5 
				30.5,21.5 30.5,24.5 33.5,24.5 33.5,21.5 36.5,21.5 			"/>
			<path fill="#37474F" d="M34,25h-4v-3h-3v-4h3v-3h4v3h3v4h-3V25z M31,24h2v-3h3v-2h-3v-3h-2v3h-3v2h3V24z"/>
		</g>
	</g>
</g>
</svg>
