<?xml version="1.0" encoding="utf-8"?>
<!-- Generator: Adobe Illustrator 16.0.0, SVG Export Plug-In . SVG Version: 6.00 Build 0)  -->
<!DOCTYPE svg PUBLIC "-//W3C//DTD SVG 1.1//EN" "http://www.w3.org/Graphics/SVG/1.1/DTD/svg11.dtd">
<svg version="1.1" id="_x3C_Layer_x3E_" xmlns="http://www.w3.org/2000/svg" xmlns:xlink="http://www.w3.org/1999/xlink" x="0px"
	 y="0px" width="64px" height="64px" viewBox="0 0 64 64" enable-background="new 0 0 64 64" xml:space="preserve">
<g id="healthy_weight">
	<g>
		<g>
			<g>
				<path fill="#CFD8DC" d="M57.5,55.5c0,1.65-1.35,3-3,3h-45c-1.65,0-3-1.35-3-3v-45c0-1.65,1.35-3,3-3h45c1.65,0,3,1.35,3,3V55.5z
					"/>
			</g>
		</g>
		<g>
			<g>
				<path fill="#37474F" d="M54.5,59h-45C7.57,59,6,57.43,6,55.5v-45C6,8.57,7.57,7,9.5,7h45c1.93,0,3.5,1.57,3.5,3.5v45
					C58,57.43,56.43,59,54.5,59z M9.5,8C8.122,8,7,9.122,7,10.5v45C7,56.878,8.122,58,9.5,58h45c1.378,0,2.5-1.122,2.5-2.5v-45
					C57,9.122,55.878,8,54.5,8H9.5z"/>
			</g>
		</g>
	</g>
	<g>
		<g>
			<path fill="#FFFFFF" d="M57.5,53.5c0,1.65-1.35,3-3,3h-45c-1.65,0-3-1.35-3-3v-45c0-1.65,1.35-3,3-3h45c1.65,0,3,1.35,3,3V53.5z"
				/>
		</g>
	</g>
	<g>
		<g>
			<path fill="#ECEFF1" d="M55.5,7h-46C8.671,7,8,7.671,8,8.5v46c0,1.378,1.122,2.5,2.5,2.5h44c1.378,0,3.5-3.122,3.5-4.5v-43
				C58,8.122,56.878,7,55.5,7z"/>
		</g>
	</g>
	<g>
		<g>
			<path fill="#37474F" d="M54.5,57h-45C7.57,57,6,55.43,6,53.5v-45C6,6.57,7.57,5,9.5,5h45C56.43,5,58,6.57,58,8.5v45
				C58,55.43,56.43,57,54.5,57z M9.5,6C8.122,6,7,7.122,7,8.5v45C7,54.878,8.122,56,9.5,56h45c1.378,0,2.5-1.122,2.5-2.5v-45
				C57,7.122,55.878,6,54.5,6H9.5z"/>
		</g>
	</g>
	<g>
		<g>
			<path fill="#84FFFF" d="M20,20.5c0-7.385,5.372-12,12-12s12,4.615,12,12H20z"/>
		</g>
		<g>
			<path fill="#37474F" d="M44.5,21h-25v-0.5C19.5,13.257,24.757,8,32,8s12.5,5.257,12.5,12.5V21z M20.509,20h22.982
				C43.264,13.497,38.603,9,32,9S20.736,13.497,20.509,20z"/>
		</g>
	</g>
	<g>
		<g>
			<polygon fill="#37474F" points="32,10.458 30.41,20 33.59,20 			"/>
		</g>
	</g>
	<g>
		<g>
			<path fill="#CFD8DC" d="M28.769,20.5c0-1.989,1.446-3.231,3.231-3.231s3.231,1.242,3.231,3.231H28.769z"/>
		</g>
		<g>
			<path fill="#37474F" d="M35.731,21h-7.462v-0.5c0-2.162,1.569-3.731,3.731-3.731s3.731,1.569,3.731,3.731V21z M29.307,20h5.386
				c-0.208-1.336-1.257-2.231-2.693-2.231S29.516,18.664,29.307,20z"/>
		</g>
	</g>
	<g>
		<g>
			<g>
				<path fill="#CCFF90" d="M49.986,34.163c-0.189,2.158-1.455,5.143-1.781,8.879c-0.25,2.864-0.436,4.981-0.436,4.981l-0.174,1.992
					c-0.193,2.201-2.131,3.829-4.333,3.636c-2.2-0.192-3.828-2.133-3.636-4.333l0,0c0.096-1.1,0.867-2.748,1.8-3.355
					c1.184-0.774,1.674-1.924,1.799-3.356l0.262-2.989c0.145-1.65-1.077-3.105-2.728-3.25l-1.992-0.174
					c-2.407-0.211-3.861-1.76-3.637-4.333l0,0c0.193-2.201,2.133-3.829,4.334-3.636l6.972,0.61c2.199,0.193,3.828,2.133,3.635,4.333
					L49.986,34.163z"/>
			</g>
			<g>
				<path fill="#37474F" d="M43.616,54.167c-0.131,0-0.263-0.006-0.396-0.018c-2.472-0.216-4.307-2.403-4.09-4.875
					c0.107-1.234,0.947-3.028,2.025-3.731c0.963-0.63,1.449-1.549,1.574-2.981l0.262-2.989c0.058-0.665-0.146-1.313-0.576-1.825
					c-0.429-0.511-1.032-0.825-1.697-0.883l-1.992-0.174c-2.765-0.242-4.333-2.11-4.091-4.875c0.217-2.474,2.358-4.319,4.875-4.091
					l6.972,0.61c1.197,0.105,2.282,0.67,3.054,1.59c0.773,0.921,1.141,2.088,1.035,3.285l-0.086,0.995
					c-0.085,0.974-0.37,2.067-0.699,3.333c-0.422,1.624-0.901,3.465-1.083,5.547l-0.609,6.973
					C47.888,52.401,45.963,54.167,43.616,54.167z M39.112,28.708c-1.795,0-3.325,1.404-3.483,3.196
					c-0.193,2.215,0.967,3.597,3.182,3.792l1.992,0.174c1.923,0.168,3.351,1.869,3.182,3.791l-0.262,2.989
					c-0.15,1.719-0.812,2.939-2.023,3.731c-0.786,0.512-1.492,2.022-1.575,2.98c-0.168,1.923,1.259,3.624,3.181,3.792
					c1.919,0.174,3.625-1.288,3.791-3.182l0.609-6.973c0.189-2.166,0.679-4.05,1.111-5.712c0.318-1.222,0.592-2.278,0.67-3.167
					l0.086-0.995c0.082-0.932-0.204-1.839-0.805-2.555s-1.444-1.156-2.375-1.237l-6.972-0.61
					C39.318,28.712,39.215,28.708,39.112,28.708z"/>
			</g>
		</g>
		<g>
			<g>
				
					<ellipse transform="matrix(-0.9962 -0.0872 0.0872 -0.9962 97.6116 58.7563)" fill="#CCFF90" cx="50.089" cy="27.247" rx="0.801" ry="1"/>
			</g>
			<g>
				<path fill="#37474F" d="M50.059,28.745L50.059,28.745l-0.101-0.004c-0.712-0.062-1.235-0.783-1.165-1.606
					c0.07-0.792,0.64-1.387,1.326-1.387l0.101,0.004c0.712,0.062,1.235,0.783,1.165,1.607C51.314,28.15,50.745,28.745,50.059,28.745
					z M50.131,26.748c-0.149,0-0.317,0.194-0.342,0.473c-0.024,0.284,0.115,0.512,0.256,0.524l0.013,0.5v-0.5
					c0.136,0,0.305-0.194,0.33-0.473C50.413,26.988,50.273,26.76,50.131,26.748L50.131,26.748z"/>
			</g>
		</g>
		<g>
			<g>
				
					<ellipse transform="matrix(-0.9962 -0.0874 0.0874 -0.9962 91.9251 56.0021)" fill="#CCFF90" cx="47.188" cy="25.989" rx="0.799" ry="1"/>
			</g>
			<g>
				<path fill="#37474F" d="M47.157,27.488l-0.099-0.004c-0.362-0.032-0.694-0.237-0.91-0.563c-0.197-0.296-0.287-0.667-0.253-1.046
					c0.07-0.79,0.639-1.385,1.323-1.385l0.101,0.004c0.313,0.027,0.604,0.184,0.819,0.439c0.258,0.308,0.384,0.734,0.345,1.169
					C48.412,26.893,47.842,27.488,47.157,27.488z M47.23,25.491c-0.147,0-0.314,0.194-0.339,0.473
					c-0.013,0.151,0.019,0.298,0.09,0.404c0.028,0.042,0.086,0.113,0.164,0.12l0.012,0.5v-0.5c0.136,0,0.305-0.194,0.33-0.474
					c0.015-0.17-0.028-0.333-0.116-0.438C47.34,25.54,47.292,25.496,47.23,25.491L47.23,25.491z"/>
			</g>
		</g>
		<g>
			<g>
				
					<ellipse transform="matrix(-0.9962 -0.0872 0.0872 -0.9962 86.042 54.8158)" fill="#CCFF90" cx="44.219" cy="25.528" rx="0.8" ry="1"/>
			</g>
			<g>
				<path fill="#37474F" d="M44.188,27.026L44.188,27.026l-0.101-0.004c-0.313-0.027-0.604-0.184-0.819-0.439
					c-0.258-0.308-0.384-0.734-0.345-1.169c0.069-0.789,0.638-1.385,1.325-1.385l0.1,0.004c0.714,0.063,1.237,0.784,1.166,1.607
					C45.444,26.431,44.874,27.026,44.188,27.026z M44.261,25.03c-0.149,0-0.317,0.194-0.341,0.472
					c-0.015,0.171,0.028,0.334,0.116,0.439c0.03,0.036,0.079,0.08,0.14,0.085l0.013,0.5v-0.5c0.136,0,0.305-0.194,0.33-0.473
					C44.543,25.269,44.403,25.042,44.261,25.03C44.261,25.03,44.261,25.03,44.261,25.03z"/>
			</g>
		</g>
		<g>
			<g>
				
					<ellipse transform="matrix(-0.9962 -0.0869 0.0869 -0.9962 80.1064 54.0212)" fill="#CCFF90" cx="41.229" cy="25.266" rx="0.8" ry="1"/>
			</g>
			<g>
				<path fill="#37474F" d="M41.198,26.765L41.198,26.765l-0.099-0.004c-0.714-0.063-1.237-0.784-1.165-1.607
					c0.069-0.79,0.639-1.385,1.326-1.385l0.1,0.004c0.362,0.031,0.694,0.236,0.911,0.562c0.197,0.295,0.287,0.667,0.254,1.045
					C42.457,26.169,41.886,26.765,41.198,26.765z M41.273,24.769c-0.15,0-0.318,0.194-0.343,0.472
					c-0.025,0.285,0.115,0.512,0.256,0.524l0.012,0.5v-0.5c0.137,0,0.306-0.194,0.331-0.473c0.013-0.151-0.02-0.298-0.09-0.404
					C41.411,24.847,41.353,24.775,41.273,24.769L41.273,24.769z"/>
			</g>
		</g>
		<g>
			<g>
				
					<ellipse transform="matrix(-0.9962 -0.0871 0.0871 -0.9962 71.2832 52.1492)" fill="#CCFF90" cx="36.78" cy="24.519" rx="1.6" ry="2.001"/>
			</g>
			<g>
				<path fill="#37474F" d="M36.718,27.017L36.718,27.017c-0.052,0-0.104-0.002-0.156-0.007c-0.58-0.051-1.095-0.372-1.448-0.903
					c-0.331-0.497-0.482-1.126-0.425-1.771c0.118-1.358,1.153-2.412,2.309-2.307c0.581,0.05,1.095,0.371,1.449,0.903
					c0.331,0.497,0.482,1.125,0.425,1.771C38.759,26,37.813,27.017,36.718,27.017z M36.906,23.025c-0.638,0-1.155,0.627-1.222,1.398
					c-0.037,0.42,0.056,0.821,0.261,1.129c0.183,0.274,0.432,0.438,0.703,0.461l0.069,0.003c0.571,0,1.09-0.629,1.158-1.402
					c0.037-0.419-0.056-0.82-0.261-1.129c-0.183-0.273-0.433-0.437-0.704-0.461C36.909,23.025,36.907,23.025,36.906,23.025z"/>
			</g>
		</g>
	</g>
	<g>
		<g>
			<g>
				<path fill="#CCFF90" d="M14.114,34.163c0.189,2.158,1.454,5.143,1.781,8.879c0.25,2.864,0.436,4.981,0.436,4.981l0.174,1.992
					c0.192,2.201,2.133,3.829,4.334,3.636c2.2-0.192,3.828-2.133,3.636-4.333l0,0c-0.096-1.1-0.867-2.748-1.8-3.355
					c-1.184-0.774-1.674-1.924-1.799-3.356l-0.262-2.989c-0.145-1.65,1.077-3.105,2.728-3.25l1.992-0.174
					c2.407-0.211,3.861-1.76,3.637-4.333l0,0c-0.193-2.201-2.133-3.829-4.334-3.636l-6.973,0.61
					c-2.201,0.193-3.829,2.133-3.637,4.333L14.114,34.163z"/>
			</g>
			<g>
				<path fill="#37474F" d="M20.486,54.167L20.486,54.167c-2.311,0-4.278-1.805-4.479-4.108l-0.609-6.973
					c-0.182-2.081-0.661-3.922-1.083-5.545c-0.329-1.267-0.613-2.36-0.699-3.333l-0.087-0.997c-0.216-2.472,1.619-4.659,4.091-4.875
					l6.973-0.61c2.515-0.223,4.659,1.618,4.875,4.09c0.241,2.765-1.326,4.633-4.091,4.875l-1.992,0.174
					c-1.374,0.12-2.393,1.335-2.273,2.708l0.262,2.989c0.125,1.432,0.61,2.351,1.574,2.981c1.078,0.703,1.917,2.496,2.024,3.73
					c0.216,2.472-1.619,4.659-4.09,4.875C20.749,54.161,20.617,54.167,20.486,54.167z M24.989,28.708
					c-0.103,0-0.206,0.004-0.31,0.014l-6.973,0.61c-1.922,0.168-3.35,1.87-3.182,3.792l0.087,0.996
					c0.078,0.89,0.353,1.946,0.67,3.169c0.432,1.662,0.921,3.545,1.111,5.71l0.609,6.973c0.157,1.792,1.687,3.195,3.483,3.195h0
					c0.102,0,0.205-0.005,0.309-0.014c1.922-0.168,3.349-1.869,3.181-3.792c-0.083-0.958-0.79-2.468-1.575-2.98
					c-1.212-0.792-1.874-2.013-2.024-3.732l-0.262-2.989c-0.168-1.922,1.259-3.623,3.182-3.791l1.992-0.174
					c2.215-0.194,3.375-1.576,3.182-3.792C28.315,30.112,26.785,28.708,24.989,28.708z"/>
			</g>
		</g>
		<g>
			<g>
				
					<ellipse transform="matrix(0.9962 -0.0872 0.0872 0.9962 -2.3234 1.3261)" fill="#CCFF90" cx="14.011" cy="27.247" rx="0.8" ry="1"/>
			</g>
			<g>
				<path fill="#37474F" d="M14.042,28.745c-0.688,0-1.257-0.596-1.326-1.385c-0.072-0.824,0.451-1.545,1.165-1.608l0.1-0.004
					c0.688,0,1.257,0.596,1.326,1.386c0.072,0.824-0.451,1.545-1.165,1.607L14.042,28.745z M13.98,26.748
					c-0.154,0.013-0.293,0.24-0.269,0.525c0.024,0.278,0.193,0.472,0.33,0.472v0.5l0.013-0.5c0.141-0.012,0.28-0.239,0.255-0.524
					C14.286,26.941,14.117,26.748,13.98,26.748z"/>
			</g>
		</g>
		<g>
			<g>
				
					<ellipse transform="matrix(0.9962 -0.0872 0.0872 0.9962 -2.2027 1.5744)" fill="#CCFF90" cx="16.912" cy="25.989" rx="0.8" ry="1"/>
			</g>
			<g>
				<path fill="#37474F" d="M16.943,27.488c-0.686,0-1.256-0.595-1.327-1.385c-0.072-0.825,0.451-1.546,1.166-1.608l0.1-0.004
					c0.686,0,1.255,0.595,1.325,1.384c0.072,0.825-0.451,1.546-1.165,1.609L16.943,27.488z M16.882,25.49
					c-0.155,0.013-0.294,0.24-0.27,0.525c0.025,0.278,0.194,0.473,0.331,0.473v0.5l0.013-0.5c0.141-0.012,0.28-0.24,0.255-0.525
					C17.187,25.685,17.018,25.49,16.882,25.49z"/>
			</g>
		</g>
		<g>
			<g>
				
					<ellipse transform="matrix(0.9962 -0.0872 0.0872 0.9962 -2.1511 1.8318)" fill="#CCFF90" cx="19.883" cy="25.528" rx="0.8" ry="1"/>
			</g>
			<g>
				<path fill="#37474F" d="M19.914,27.026c-0.686,0-1.256-0.595-1.326-1.385c-0.072-0.824,0.451-1.545,1.166-1.608l0.1-0.004
					c0.687,0,1.256,0.596,1.325,1.385c0.039,0.434-0.087,0.86-0.345,1.168c-0.214,0.255-0.505,0.412-0.819,0.439L19.914,27.026z
					 M19.853,25.029c-0.154,0.013-0.294,0.24-0.27,0.525c0.025,0.278,0.194,0.472,0.33,0.472v0.5l0.013-0.5
					c0.062-0.005,0.11-0.049,0.14-0.085c0.087-0.104,0.131-0.268,0.116-0.438C20.158,25.223,19.989,25.029,19.853,25.029z"/>
			</g>
		</g>
		<g>
			<g>
				
					<ellipse transform="matrix(0.9962 -0.0869 0.0869 0.9962 -2.1099 2.084)" fill="#CCFF90" cx="22.872" cy="25.266" rx="0.8" ry="1"/>
			</g>
			<g>
				<path fill="#37474F" d="M22.903,26.765c-0.688,0-1.258-0.596-1.327-1.386c-0.033-0.379,0.057-0.75,0.254-1.045
					c0.217-0.326,0.549-0.53,0.911-0.562l0.1-0.004c0.688,0,1.257,0.596,1.326,1.385c0.072,0.824-0.451,1.545-1.164,1.607
					L22.903,26.765z M22.841,24.768c-0.092,0.007-0.151,0.079-0.179,0.121c-0.07,0.105-0.103,0.253-0.09,0.404
					c0.024,0.279,0.194,0.473,0.331,0.473v0.5l0.013-0.5c0.14-0.012,0.28-0.239,0.255-0.524
					C23.147,24.962,22.978,24.768,22.841,24.768z"/>
			</g>
		</g>
		<g>
			<g>
				
					<ellipse transform="matrix(0.9962 -0.0871 0.0871 0.9962 -2.0326 2.474)" fill="#CCFF90" cx="27.322" cy="24.519" rx="1.6" ry="2.001"/>
			</g>
			<g>
				<path fill="#37474F" d="M27.384,27.017c-1.095,0-2.041-1.017-2.154-2.315c-0.057-0.645,0.094-1.273,0.425-1.77
					c0.354-0.532,0.869-0.853,1.449-0.903c1.16-0.104,2.191,0.948,2.309,2.307c0.057,0.645-0.094,1.273-0.425,1.771
					c-0.354,0.532-0.868,0.853-1.448,0.903C27.488,27.014,27.436,27.017,27.384,27.017z M27.261,23.022
					c-0.341,0.027-0.591,0.19-0.774,0.464c-0.205,0.309-0.298,0.709-0.261,1.128c0.067,0.773,0.586,1.402,1.158,1.402l0.069-0.003
					c0.271-0.024,0.521-0.188,0.703-0.461c0.205-0.309,0.298-0.709,0.261-1.129C28.35,23.65,27.832,23.022,27.261,23.022z"/>
			</g>
		</g>
	</g>
	<g>
		<g>
			<g>
				
					<rect x="21.573" y="16.751" transform="matrix(0.9398 0.3418 -0.3418 0.9398 7.2872 -6.8482)" fill="#37474F" width="3" height="1"/>
			</g>
		</g>
		<g>
			<g>
				
					<rect x="23.223" y="13.894" transform="matrix(0.7662 0.6426 -0.6426 0.7662 15.0299 -12.5218)" fill="#37474F" width="2.999" height="1"/>
			</g>
		</g>
		<g>
			<g>
				
					<rect x="25.75" y="11.773" transform="matrix(-0.5001 -0.8659 0.8659 -0.5001 30.251 42.0078)" fill="#37474F" width="2.999" height="1"/>
			</g>
		</g>
		<g>
			<g>
				
					<rect x="28.851" y="10.644" transform="matrix(-0.1737 -0.9848 0.9848 -0.1737 24.6477 42.9691)" fill="#37474F" width="2.999" height="1"/>
			</g>
		</g>
		<g>
			<g>
				
					<rect x="32.15" y="10.644" transform="matrix(0.1737 -0.9848 0.9848 0.1737 16.8295 42.3465)" fill="#37474F" width="2.999" height="1"/>
			</g>
		</g>
		<g>
			<g>
				
					<rect x="35.25" y="11.773" transform="matrix(-0.5001 0.8659 -0.8659 -0.5001 65.7574 -13.413)" fill="#37474F" width="2.999" height="1"/>
			</g>
		</g>
		<g>
			<g>
				
					<rect x="37.778" y="13.894" transform="matrix(-0.7662 0.6426 -0.6426 -0.7662 78.6207 0.1815)" fill="#37474F" width="2.999" height="1"/>
			</g>
		</g>
		<g>
			<g>
				
					<rect x="39.427" y="16.751" transform="matrix(-0.9397 0.342 -0.342 -0.9397 85.2858 19.4646)" fill="#37474F" width="3" height="1"/>
			</g>
		</g>
	</g>
</g>
</svg>
