<?xml version="1.0" encoding="utf-8"?>
<!-- Generator: Adobe Illustrator 16.0.0, SVG Export Plug-In . SVG Version: 6.00 Build 0)  -->
<!DOCTYPE svg PUBLIC "-//W3C//DTD SVG 1.1//EN" "http://www.w3.org/Graphics/SVG/1.1/DTD/svg11.dtd">
<svg version="1.1" id="_x3C_Layer_x3E_" xmlns="http://www.w3.org/2000/svg" xmlns:xlink="http://www.w3.org/1999/xlink" x="0px"
	 y="0px" width="64px" height="64px" viewBox="0 0 64 64" enable-background="new 0 0 64 64" xml:space="preserve">
<g id="Clean_x2C__cleaning_x2C__hand_x2C__hygiene_x2C__wash_x2C__washing_2_">
	<rect id="XMLID_3411_" x="30.5" y="44.5" fill="#84FFFF" width="7" height="14.5"/>
	<rect id="XMLID_3410_" x="36" y="44.5" fill="#18FFFF" width="1.5" height="14.5"/>
	<rect id="XMLID_3409_" x="30.5" y="44.5" fill="#FFFFFF" width="1.5" height="14.5"/>
	<rect id="XMLID_3408_" x="30" y="49" fill="#37474F" width="1" height="10"/>
	<rect id="XMLID_3407_" x="37" y="52" fill="#37474F" width="1" height="6"/>
	<path id="XMLID_3406_" fill="#E6CAA0" d="M5,36.368l13.357,3.903l15.152,3.859c0.844,0.234,2.174,0.123,2.967-0.246l3.857-1.859
		c0,0-0.27-8.325-0.734-8.325L34.447,32c-0.099-0.09-1.189-1.176-1.262-1.247c-0.766-0.753-4.236-2.127-7.141-2.571
		c-2.607-0.4-5.357-0.338-7.584,0.405L5,23.134V36.368z"/>
	<path id="XMLID_3405_" fill="#E6CAA0" d="M47.086,33.059c-2.182,1.309-6.906,2.391-8.247,3.322l-2.651,2.545v8.02l7.928-3.82
		l7.922-7.592C52.861,34.709,51.211,30.583,47.086,33.059z"/>
	<rect id="XMLID_3404_" x="38.5" y="14.5" fill="#84FFFF" width="6" height="24.25"/>
	<path id="XMLID_3403_" fill="#37474F" d="M52.512,33.816c-0.408-0.986-1.414-2.039-3.011-2.039c-0.831,0-1.729,0.287-2.673,0.852
		c-0.241,0.146-0.523,0.289-0.828,0.43v1.096c0.497-0.214,0.955-0.436,1.343-0.668c0.785-0.471,1.511-0.709,2.158-0.709
		c1.39,0,1.949,1.088,2.087,1.422c0.222,0.534,0.158,0.918,0.104,0.974l-3.566,3.417v1.367l4.266-4.07
		C52.811,35.467,52.859,34.653,52.512,33.816z"/>
	<path id="XMLID_3402_" fill="#FFE0B2" d="M51.586,33.059c-2.182,1.309-3.406,2.791-4.747,3.723l-9.442,3.293
		c0,0-3.461-4.708-4.128-5.365c-0.796-0.783-3.213-2.676-7.429-2.676c-4.215,0-5.281,1.851-6.932,1.851L5,29.384v12.728l13.884,2.5
		l15.763,4.014c0.879,0.244,2.262,0.129,3.086-0.256l10.883-5.244l7.922-7.592C57.361,34.709,55.711,30.583,51.586,33.059z"/>
	<g id="XMLID_3400_">
		<path id="XMLID_3401_" fill="#FFFFFF" d="M38.796,40.773l9.443-3.292c1.341-0.932,2.565-2.415,4.746-3.724
			c1.166-0.699,2.127-0.86,2.897-0.729c-0.83-0.805-2.261-1.193-4.297,0.029c-2.182,1.309-3.406,2.791-4.747,3.723l-8.741,3.049
			C38.512,40.389,38.796,40.773,38.796,40.773z"/>
	</g>
	<path id="XMLID_3399_" fill="#FFFFFF" d="M35.084,36.979c-0.788-1.035-1.54-1.998-1.815-2.27c-0.796-0.783-3.213-2.676-7.429-2.676
		c-4.215,0-5.281,1.85-6.932,1.85L5,29.383v1.5l13.908,4.5c1.65,0,2.717-1.85,6.932-1.85c4.216,0,6.86,1.592,7.943,3.445H35.084z"/>
	<path id="XMLID_3398_" fill="#E6CAA0" d="M56.537,34.033l-7.922,7.592l-10.883,5.244c-0.824,0.385-2.207,0.5-3.086,0.256
		l-15.763-4.014L5,40.611v1.5l13.884,2.5l15.763,4.014c0.879,0.244,2.262,0.129,3.086-0.256l10.883-5.244l7.922-7.592
		c0.269-0.269,0.27-0.889,0.012-1.518C56.544,34.021,56.541,34.029,56.537,34.033z"/>
	<path id="XMLID_3397_" fill="#37474F" d="M35.726,49.253c-0.437,0-0.858-0.048-1.213-0.146L18.76,45.096L4.912,42.604l0.176-0.984
		l13.885,2.5l15.797,4.021c0.776,0.215,2.033,0.111,2.752-0.225l10.805-5.207l7.864-7.536c0.099-0.099,0.116-0.839-0.435-1.544
		c-0.842-1.078-2.268-1.129-3.913-0.142c-1.29,0.774-2.247,1.621-3.091,2.368c-0.556,0.492-1.08,0.956-1.628,1.336l-0.12,0.063
		l-9.792,3.414l-0.219-0.298c-0.956-1.3-3.552-4.789-4.075-5.306c-0.604-0.594-2.897-2.531-7.078-2.531
		c-2.475,0-3.791,0.658-4.85,1.187c-0.713,0.356-1.328,0.664-2.082,0.664l-0.153-0.024l-13.909-4.5l0.309-0.951l13.828,4.475
		c0.488-0.021,0.943-0.249,1.561-0.558c1.092-0.546,2.586-1.292,5.297-1.292c4.561,0,7.107,2.158,7.779,2.818
		c0.601,0.592,3.146,4.024,3.961,5.129l9.028-3.148c0.481-0.342,0.968-0.771,1.48-1.226c0.877-0.776,1.87-1.655,3.239-2.477
		c3.105-1.862,4.776-0.179,5.216,0.384c0.765,0.98,0.924,2.296,0.347,2.873l-8.059,7.688L37.95,48.819
		C37.348,49.101,36.511,49.253,35.726,49.253z"/>
	<g id="XMLID_3395_">
		<path id="XMLID_3396_" fill="#37474F" d="M34.727,31.566c-0.877-0.953-3.877-3.818-8.623-4.382
			c-3.275-0.388-6.277,0.485-7.559,0.858l-0.057,0.016L5.188,22.67l-0.375,0.928l13.621,5.518l0.391-0.113
			c1.224-0.355,4.094-1.187,7.162-0.824c4.491,0.533,7.295,3.282,8.047,4.111L37,33.323v-1.007L34.727,31.566z"/>
	</g>
	<rect id="XMLID_3394_" x="38.5" y="14.5" fill="#FFFFFF" width="1.5" height="24.25"/>
	<rect id="XMLID_3393_" x="43" y="14.5" fill="#18FFFF" width="1.5" height="24.25"/>
	<polygon id="XMLID_3392_" fill="#37474F" points="45,34.75 44,34.75 44,15 39,15 39,33.75 38,33.75 38,14 45,14 	"/>
	<path id="XMLID_3391_" fill="#ECEFF1" d="M59,8.5l-8.562-1.976C47.488,5.844,45.472,5.5,42.444,5.5H40.5c-1.656,0-3,1.344-3,3v6h8
		v-4L59,15V8.5z"/>
	<path id="XMLID_3390_" fill="#FFFFFF" d="M39,9c0-1.656,1.344-3,3-3h1.944c3.027,0,5.045,0.344,7.994,1.024L59,8.654V8.5
		l-8.562-1.976C47.489,5.844,45.472,5.5,42.444,5.5H40.5c-1.656,0-3,1.344-3,3v6H39V9z"/>
	<path id="XMLID_3389_" fill="#37474F" d="M58.842,15.475L46,11.193V14.5L45.5,15h-8L37,14.5v-6C37,6.57,38.57,5,40.5,5h1.944
		c3.054,0,5.126,0.35,8.106,1.037l8.562,1.976l-0.225,0.975l-8.562-1.976C47.355,6.326,45.419,6,42.444,6H40.5
		C39.121,6,38,7.121,38,8.5V14h7v-3.5l0.658-0.475l13.5,4.5L58.842,15.475z"/>
	<rect id="XMLID_3388_" x="39" y="10.5" fill="#ECEFF1" width="6.5" height="4"/>
	<rect id="XMLID_3387_" x="44" y="10.5" fill="#CFD8DC" width="1.5" height="4"/>
	<path id="XMLID_3384_" fill="#37474F" d="M45.5,15h-8L37,14.5v-4l0.5-0.5h8l0.5,0.5v4L45.5,15z M38,14h7v-3h-7V14z"/>
	<path id="XMLID_3383_" fill="#84FFFF" d="M53.5,59h-7V44.5c0-3.866-3.134-7-7-7l0,0h5.031c4.953,0,8.969,4.016,8.969,8.969V59z"/>
	<path id="XMLID_3382_" fill="#FFFFFF" d="M41,37.5h-1.5c3.866,0,7,3.134,7,7V59H48V44.5C48,40.634,44.866,37.5,41,37.5z"/>
	<path id="XMLID_3381_" fill="#18FFFF" d="M44.531,37.5h-1.5c4.953,0,8.969,4.016,8.969,8.969V59h1.5V46.469
		C53.5,41.516,49.484,37.5,44.531,37.5z"/>
	<g id="XMLID_3377_">
		<g id="XMLID_3379_">
			<path id="XMLID_3380_" fill="#37474F" d="M48.137,37.673c-0.146,0.114-0.291,0.235-0.442,0.341l-0.362,0.184l-0.365,0.128
				C50.441,39.309,53,42.496,53,46.281V59h1V46.281C54,42.373,51.565,39.036,48.137,37.673z"/>
		</g>
		<path id="XMLID_3378_" fill="#37474F" d="M46,44.5V57h1V44.5c0-0.879-0.166-1.716-0.445-2.5h-1.057C45.82,42.77,46,43.614,46,44.5
			z"/>
	</g>
	<path id="XMLID_3376_" fill="#FFE0B2" d="M34.2,35.5h6.3c2.762,0,5,2.238,5,5l0,0h-12L34.2,35.5z"/>
	<path id="XMLID_3375_" fill="#FFFFFF" d="M33.7,37h6.8c2.235,0,4.105,1.477,4.746,3.5H45.5c0-2.762-2.238-5-5-5h-6.8V37z"/>
	<path id="XMLID_3374_" fill="#37474F" d="M46,41H33.5v-1h11.473c-0.25-2.247-2.16-4-4.473-4h-6.8v-1h6.8c3.033,0,5.5,2.467,5.5,5.5
		V41z"/>
	<rect id="XMLID_3373_" x="40" y="28" fill="#37474F" width="1" height="3"/>
	<g id="XMLID_3370_">
		<path id="XMLID_3372_" fill="#FFE57F" d="M42.5,16v8V16z"/>
		<rect id="XMLID_3371_" x="42" y="16" fill="#37474F" width="1" height="8"/>
	</g>
	<rect id="XMLID_3369_" x="42" y="25" fill="#37474F" width="1" height="1"/>
	<path id="XMLID_3368_" fill="#37474F" d="M48.344,30.594l-0.73-0.684c1.355-1.452,3.268-2.227,5.253-2.127l-0.051,0.999
		C51.119,28.693,49.498,29.356,48.344,30.594z"/>
	<path id="XMLID_3367_" fill="#37474F" d="M35.783,28.328c-0.357-2.363-2.173-4.271-4.517-4.746l0.198-0.98
		c2.754,0.559,4.887,2.801,5.307,5.578L35.783,28.328z"/>
	<path id="XMLID_3366_" fill="#37474F" d="M46.86,29.328l-0.989-0.148c0.42-2.777,2.553-5.02,5.307-5.578l0.199,0.98
		C49.032,25.058,47.217,26.965,46.86,29.328z"/>
	<rect id="XMLID_3365_" x="55" y="26" fill="#37474F" width="1" height="1"/>
	<rect id="XMLID_3364_" x="34" y="29" fill="#37474F" width="1" height="1"/>
	<rect id="XMLID_3363_" x="33" y="27" fill="#37474F" width="1" height="1"/>
	<rect id="XMLID_3362_" x="53" y="25" fill="#37474F" width="1" height="1"/>
	<rect id="XMLID_3361_" x="54" y="28" fill="#37474F" width="1" height="1"/>
	<g id="XMLID_3358_">
		<path id="XMLID_3360_" fill="#FFE57F" d="M51.5,48v6V48z"/>
		<rect id="XMLID_3359_" x="51" y="48" fill="#37474F" width="1" height="6"/>
	</g>
	<rect id="XMLID_3357_" x="51" y="55" fill="#37474F" width="1" height="1"/>
	<rect id="XMLID_3356_" x="35" y="51" fill="#37474F" width="1" height="4"/>
</g>
</svg>
