<?xml version="1.0" encoding="utf-8"?>
<!-- Generator: Adobe Illustrator 16.0.0, SVG Export Plug-In . SVG Version: 6.00 Build 0)  -->
<!DOCTYPE svg PUBLIC "-//W3C//DTD SVG 1.1//EN" "http://www.w3.org/Graphics/SVG/1.1/DTD/svg11.dtd">
<svg version="1.1" id="_x3C_Layer_x3E_" xmlns="http://www.w3.org/2000/svg" xmlns:xlink="http://www.w3.org/1999/xlink" x="0px"
	 y="0px" width="64px" height="64px" viewBox="0 0 64 64" enable-background="new 0 0 64 64" xml:space="preserve">
<g id="Building_x2C__clinic_x2C__hospital_1_">
	<rect x="5" y="58" fill="#37474F" width="54" height="1"/>
	<g>
		<rect x="5.5" y="20.5" fill="#FFFFFF" width="53" height="2"/>
		<path fill="#37474F" d="M59,23H5v-3h54V23z M6,22h52v-1H6V22z"/>
	</g>
	<g>
		<rect x="6.5" y="22.5" fill="#18FFFF" width="51" height="34"/>
		<path fill="#37474F" d="M58,57H6V22h52V57z M7,56h50V23H7V56z"/>
	</g>
	<g id="XMLID_762_">
		<g>
			<rect id="XMLID_1026_" x="21.5" y="10.5" fill="#84FFFF" width="21" height="46"/>
			<path fill="#37474F" d="M43,57H21V10h22V57z M22,56h20V11H22V56z"/>
		</g>
	</g>
	<g>
		<g>
			<g>
				<rect x="30.5" y="38.5" fill="#FFFFFF" width="3" height="4"/>
				<path fill="#37474F" d="M34,43h-4v-5h4V43z M31,42h2v-3h-2V42z"/>
			</g>
			<g>
				<rect x="36.5" y="38.5" fill="#FFFFFF" width="3" height="4"/>
				<path fill="#37474F" d="M40,43h-4v-5h4V43z M37,42h2v-3h-2V42z"/>
			</g>
			<g>
				<rect x="24.5" y="38.5" fill="#FFFFFF" width="3" height="4"/>
				<path fill="#37474F" d="M28,43h-4v-5h4V43z M25,42h2v-3h-2V42z"/>
			</g>
		</g>
		<g>
			<g>
				<rect x="30.5" y="30.5" fill="#FFFFFF" width="3" height="4"/>
				<path fill="#37474F" d="M34,35h-4v-5h4V35z M31,34h2v-3h-2V34z"/>
			</g>
			<g>
				<rect x="36.5" y="30.5" fill="#FFFFFF" width="3" height="4"/>
				<path fill="#37474F" d="M40,35h-4v-5h4V35z M37,34h2v-3h-2V34z"/>
			</g>
			<g>
				<rect x="24.5" y="30.5" fill="#FFFFFF" width="3" height="4"/>
				<path fill="#37474F" d="M28,35h-4v-5h4V35z M25,34h2v-3h-2V34z"/>
			</g>
		</g>
		<g>
			<g>
				<rect x="30.5" y="22.5" fill="#FFFFFF" width="3" height="4"/>
				<path fill="#37474F" d="M34,27h-4v-5h4V27z M31,26h2v-3h-2V26z"/>
			</g>
			<g>
				<rect x="36.5" y="22.5" fill="#FFFFFF" width="3" height="4"/>
				<path fill="#37474F" d="M40,27h-4v-5h4V27z M37,26h2v-3h-2V26z"/>
			</g>
			<g>
				<rect x="24.5" y="22.5" fill="#FFFFFF" width="3" height="4"/>
				<path fill="#37474F" d="M28,27h-4v-5h4V27z M25,26h2v-3h-2V26z"/>
			</g>
		</g>
		<g>
			<g>
				<rect x="30.5" y="14.5" fill="#FFFFFF" width="3" height="4"/>
				<path fill="#37474F" d="M34,19h-4v-5h4V19z M31,18h2v-3h-2V18z"/>
			</g>
			<g>
				<rect x="36.5" y="14.5" fill="#FFFFFF" width="3" height="4"/>
				<path fill="#37474F" d="M40,19h-4v-5h4V19z M37,18h2v-3h-2V18z"/>
			</g>
			<g>
				<rect x="24.5" y="14.5" fill="#FFFFFF" width="3" height="4"/>
				<path fill="#37474F" d="M28,19h-4v-5h4V19z M25,18h2v-3h-2V18z"/>
			</g>
		</g>
	</g>
	<g>
		<rect x="23.5" y="5.5" fill="#84FFFF" width="17" height="3"/>
		<path fill="#37474F" d="M41,9H23V5h18V9z M24,8h16V6H24V8z"/>
	</g>
	<g>
		<rect x="20.5" y="8.5" fill="#FFFFFF" width="23" height="2"/>
		<path fill="#37474F" d="M44,11H20V8h24V11z M21,10h22V9H21V10z"/>
	</g>
	<g>
		<g>
			<g>
				<rect x="15.5" y="49.5" fill="#FFFFFF" width="3" height="4"/>
				<path fill="#37474F" d="M19,54h-4v-5h4V54z M16,53h2v-3h-2V53z"/>
			</g>
			<g>
				<rect x="9.5" y="49.5" fill="#FFFFFF" width="3" height="4"/>
				<path fill="#37474F" d="M13,54H9v-5h4V54z M10,53h2v-3h-2V53z"/>
			</g>
		</g>
		<g>
			<g>
				<rect x="15.5" y="41.5" fill="#FFFFFF" width="3" height="4"/>
				<path fill="#37474F" d="M19,46h-4v-5h4V46z M16,45h2v-3h-2V45z"/>
			</g>
			<g>
				<rect x="9.5" y="41.5" fill="#FFFFFF" width="3" height="4"/>
				<path fill="#37474F" d="M13,46H9v-5h4V46z M10,45h2v-3h-2V45z"/>
			</g>
		</g>
		<g>
			<g>
				<rect x="15.5" y="33.5" fill="#FFFFFF" width="3" height="4"/>
				<path fill="#37474F" d="M19,38h-4v-5h4V38z M16,37h2v-3h-2V37z"/>
			</g>
			<g>
				<rect x="9.5" y="33.5" fill="#FFFFFF" width="3" height="4"/>
				<path fill="#37474F" d="M13,38H9v-5h4V38z M10,37h2v-3h-2V37z"/>
			</g>
		</g>
		<g>
			<g>
				<rect x="15.5" y="25.5" fill="#FFFFFF" width="3" height="4"/>
				<path fill="#37474F" d="M19,30h-4v-5h4V30z M16,29h2v-3h-2V29z"/>
			</g>
			<g>
				<rect x="9.5" y="25.5" fill="#FFFFFF" width="3" height="4"/>
				<path fill="#37474F" d="M13,30H9v-5h4V30z M10,29h2v-3h-2V29z"/>
			</g>
		</g>
	</g>
	<g>
		<g>
			<g>
				<rect x="51.5" y="49.5" fill="#FFFFFF" width="3" height="4"/>
				<path fill="#37474F" d="M55,54h-4v-5h4V54z M52,53h2v-3h-2V53z"/>
			</g>
			<g>
				<rect x="45.5" y="49.5" fill="#FFFFFF" width="3" height="4"/>
				<path fill="#37474F" d="M49,54h-4v-5h4V54z M46,53h2v-3h-2V53z"/>
			</g>
		</g>
		<g>
			<g>
				<rect x="51.5" y="41.5" fill="#FFFFFF" width="3" height="4"/>
				<path fill="#37474F" d="M55,46h-4v-5h4V46z M52,45h2v-3h-2V45z"/>
			</g>
			<g>
				<rect x="45.5" y="41.5" fill="#FFFFFF" width="3" height="4"/>
				<path fill="#37474F" d="M49,46h-4v-5h4V46z M46,45h2v-3h-2V45z"/>
			</g>
		</g>
		<g>
			<g>
				<rect x="51.5" y="33.5" fill="#FFFFFF" width="3" height="4"/>
				<path fill="#37474F" d="M55,38h-4v-5h4V38z M52,37h2v-3h-2V37z"/>
			</g>
			<g>
				<rect x="45.5" y="33.5" fill="#FFFFFF" width="3" height="4"/>
				<path fill="#37474F" d="M49,38h-4v-5h4V38z M46,37h2v-3h-2V37z"/>
			</g>
		</g>
		<g>
			<g>
				<rect x="51.5" y="25.5" fill="#FFFFFF" width="3" height="4"/>
				<path fill="#37474F" d="M55,30h-4v-5h4V30z M52,29h2v-3h-2V29z"/>
			</g>
			<g>
				<rect x="45.5" y="25.5" fill="#FFFFFF" width="3" height="4"/>
				<path fill="#37474F" d="M49,30h-4v-5h4V30z M46,29h2v-3h-2V29z"/>
			</g>
		</g>
	</g>
	<g>
		<rect x="26.5" y="46.5" fill="#CFD8DC" width="11" height="10"/>
		<path fill="#37474F" d="M38,57H26V46h12V57z M27,56h10v-9H27V56z"/>
	</g>
	<g>
		<path fill="#CFD8DC" d="M32,56.5v-10V56.5z"/>
		<rect x="31.5" y="46.5" fill="#37474F" width="1" height="10"/>
	</g>
	<g>
		<path fill="#CFD8DC" d="M25,46.5h14H25z"/>
		<rect x="25" y="46" fill="#37474F" width="14" height="1"/>
	</g>
</g>
</svg>
