<?xml version="1.0" encoding="utf-8"?>
<!-- Generator: Adobe Illustrator 16.0.0, SVG Export Plug-In . SVG Version: 6.00 Build 0)  -->
<!DOCTYPE svg PUBLIC "-//W3C//DTD SVG 1.1//EN" "http://www.w3.org/Graphics/SVG/1.1/DTD/svg11.dtd">
<svg version="1.1" id="_x3C_Layer_x3E_" xmlns="http://www.w3.org/2000/svg" xmlns:xlink="http://www.w3.org/1999/xlink" x="0px"
	 y="0px" width="64px" height="64px" viewBox="0 0 64 64" enable-background="new 0 0 64 64" xml:space="preserve">
<g id="home_x2C__house_x2C__protection_x2C__self_quarantine_x2C__social_distancing_x2C__quarantine">
	<g id="home_house">
		<g id="XMLID_1975_">
			<g id="XMLID_1977_">
				<g id="XMLID_1978_">
					<g id="XMLID_1979_">
						<g id="XMLID_1980_">
							<g>
								<rect id="XMLID_1068_" x="40.5" y="8.5" fill="#CCFF90" width="5" height="14"/>
								<path fill="#37474F" d="M46,23h-6V8h6V23z M41,22h4V9h-4V22z"/>
							</g>
						</g>
					</g>
				</g>
			</g>
			<polygon id="XMLID_2074_" fill="#CCFF90" points="32,5.5 7.5,32.5 13.5,32.5 13.5,58.5 50.5,58.5 50.5,32.5 56.5,32.5 			"/>
			<rect x="30" y="58" fill="#37474F" width="4" height="1"/>
		</g>
	</g>
	<g id="XMLID_2012_">
		<path id="XMLID_2016_" fill="#ECEFF1" d="M36.5,42.5V31V42.5L36.5,42.5c0,0.828,0.672,1.5,1.5,1.5s1.5-0.672,1.5-1.5V29.102
			c0-1.262-0.789-2.389-1.975-2.82L34,25v-2.279c0.609-0.549,1-1.336,1-2.221v-0.986c0-1.656-1.343-3-3-3s-3,1.344-3,3V20.5
			c0,0.885,0.391,1.672,1,2.221V25l-3.525,1.281c-1.186,0.432-1.975,1.559-1.975,2.82V42.5c0,0.828,0.672,1.5,1.5,1.5
			s1.5-0.672,1.5-1.5l0,0V31v11.5l0,0V59h3L32,42.5L33.451,59H36.5V42.5L36.5,42.5z"/>
		<path fill="#37474F" d="M32,24c-0.166,0-0.329-0.012-0.488-0.034l0.141-0.99C31.767,22.992,31.883,23,32,23
			c1.379,0,2.5-1.121,2.5-2.5v-0.986c0-1.379-1.121-2.5-2.5-2.5s-2.5,1.121-2.5,2.5V20.5h-1v-0.986c0-1.93,1.57-3.5,3.5-3.5
			s3.5,1.57,3.5,3.5V20.5C35.5,22.43,33.93,24,32,24z"/>
		<path fill="#37474F" d="M37,58.5h-1V31h1v11.5c0,0.552,0.448,1,1,1s1-0.448,1-1V29.102c0-1.048-0.661-1.992-1.646-2.351
			l-3.854-1.4v-2.853l0.165-0.148c0.538-0.485,0.835-1.142,0.835-1.85v-0.986c0-1.379-1.121-2.5-2.5-2.5s-2.5,1.121-2.5,2.5V20.5
			c0,0.708,0.297,1.364,0.835,1.85l0.165,0.148v2.853l-3.854,1.4C25.661,27.109,25,28.054,25,29.102V42.5c0,0.552,0.448,1,1,1
			s1-0.448,1-1V31h1v27.5h-1V44.231c-0.294,0.171-0.636,0.269-1,0.269c-1.103,0-2-0.897-2-2V29.102c0-1.466,0.926-2.788,2.304-3.29
			l3.196-1.162v-1.716c-0.638-0.654-1-1.528-1-2.434v-0.986c0-1.93,1.57-3.5,3.5-3.5s3.5,1.57,3.5,3.5V20.5
			c0,0.905-0.362,1.779-1,2.434v1.716l3.196,1.162C39.074,26.313,40,27.636,40,29.102V42.5c0,1.103-0.897,2-2,2
			c-0.364,0-0.706-0.098-1-0.269V58.5z"/>
		<polygon fill="#37474F" points="30.996,59.002 30,59.012 31.502,42.455 32.498,42.457 33.924,59.007 32.928,58.993 31.988,48.171 
					"/>
	</g>
	<polygon fill="#37474F" points="51,59 36,59 36,58 50,58 50,32 55.371,32 32,6.244 8.629,32 14,32 14,58 28,58 28,59 13,59 13,33 
		6.371,33 32,4.756 57.629,33 51,33 	"/>
	<g>
		<polygon id="XMLID_1067_" fill="#84FFFF" points="51.5,58.5 57,58.5 41.5,58.5 		"/>
		<rect x="41.5" y="58" fill="#37474F" width="15.5" height="1"/>
	</g>
	<rect id="XMLID_2089_" x="58" y="58" fill="#37474F" width="1" height="1"/>
</g>
</svg>
