<?xml version="1.0" encoding="utf-8"?>
<!-- Generator: Adobe Illustrator 16.0.0, SVG Export Plug-In . SVG Version: 6.00 Build 0)  -->
<!DOCTYPE svg PUBLIC "-//W3C//DTD SVG 1.1//EN" "http://www.w3.org/Graphics/SVG/1.1/DTD/svg11.dtd">
<svg version="1.1" id="_x3C_Layer_x3E_" xmlns="http://www.w3.org/2000/svg" xmlns:xlink="http://www.w3.org/1999/xlink" x="0px"
	 y="0px" width="64px" height="64px" viewBox="0 0 64 64" enable-background="new 0 0 64 64" xml:space="preserve">
<g id="human_x2C__person_x2C__shield_x2C__immunity_x2C__insurance">
	<g>
		<circle id="XMLID_1326_" fill="#CFD8DC" cx="31" cy="32" r="24"/>
		<g id="XMLID_1282_">
			<g id="XMLID_1294_">
				<path fill="#ECEFF1" d="M55.18,10.919c-0.596-0.928-1.834-1.194-2.762-0.601c-0.071,0.045-6.275,3.939-16.576,4.944
					c-0.541-0.099-1.076-0.22-1.604-0.382L33,14.5v-2.279c0.609-0.549,1-1.336,1-2.221V8.5c0-1.656-1.344-3-3-3s-3,1.344-3,3V10
					c0,0.885,0.391,1.672,1,2.221V14.5l-1.238,0.381c-0.525,0.162-1.063,0.283-1.603,0.382c-10.264-1.001-16.461-4.87-16.575-4.944
					C8.656,9.723,7.421,9.986,6.82,10.914c-0.6,0.927-0.334,2.165,0.594,2.766c0.317,0.205,6.957,4.408,18.086,5.537V33.5V59h3.504
					L31,35l1.926,24H36.5V33.5V19.217c11.129-1.129,17.769-5.332,18.086-5.537C55.512,13.08,55.776,11.846,55.18,10.919z"/>
				<path fill="#37474F" d="M31,13.5c-0.163,0-0.324-0.012-0.483-0.033l0.135-0.99C30.766,12.492,30.882,12.5,31,12.5
					c1.379,0,2.5-1.121,2.5-2.5V8.5C33.5,7.121,32.379,6,31,6s-2.5,1.121-2.5,2.5V10c0,0.354,0.073,0.697,0.217,1.019l-0.914,0.408
					C27.602,10.976,27.5,10.496,27.5,10V8.5C27.5,6.57,29.07,5,31,5s3.5,1.57,3.5,3.5V10C34.5,11.93,32.93,13.5,31,13.5z"/>
				<g>
					<polygon id="XMLID_410_" fill="#84FFFF" points="49.5,58.5 56,58.5 36.5,58.5 					"/>
					<rect x="36.5" y="58" fill="#37474F" width="19.5" height="1"/>
				</g>
				<rect id="XMLID_1298_" x="57" y="58" fill="#37474F" width="1" height="1"/>
				<g>
					<polygon fill="#37474F" points="32.516,59 33.52,59 32.06,41.638 31.1,42.144 					"/>
					<polygon fill="#37474F" points="28.411,59 29.414,59 30.882,42.133 29.922,41.628 					"/>
				</g>
			</g>
		</g>
		<g>
			<path fill="#37474F" d="M25.075,39.077c-0.026-0.014-0.049-0.032-0.075-0.046V59h1V39.563L25.075,39.077z"/>
			<path fill="#37474F" d="M55.6,10.648c-0.742-1.156-2.291-1.495-3.449-0.752c-0.062,0.038-6.205,3.863-16.287,4.861
				c-0.552-0.103-1.035-0.219-1.478-0.354L33.5,14.131v-1.697c0.639-0.654,1-1.528,1-2.434V8.5C34.5,6.57,32.93,5,31,5
				s-3.5,1.57-3.5,3.5V10c0,0.905,0.361,1.779,1,2.434v1.697l-0.885,0.272c-0.441,0.136-0.926,0.252-1.478,0.354
				C15.969,13.752,9.914,9.937,9.854,9.897C8.695,9.155,7.148,9.488,6.4,10.643C5.652,11.799,5.984,13.35,7.143,14.1
				c0.232,0.15,4.896,3.098,12.857,4.765V17.85c-7.65-1.632-12.092-4.445-12.314-4.59c-0.695-0.449-0.895-1.38-0.445-2.074
				c0.449-0.692,1.377-0.896,2.072-0.447c0.061,0.04,6.281,3.996,16.799,5.022l0.068,0.007l0.069-0.013
				c0.619-0.113,1.163-0.243,1.66-0.396l1.591-0.489v-2.871l-0.166-0.148C28.797,11.364,28.5,10.708,28.5,10V8.5
				C28.5,7.121,29.621,6,31,6s2.5,1.121,2.5,2.5V10c0,0.708-0.297,1.364-0.834,1.85L32.5,11.998v2.871l1.592,0.489
				c0.498,0.153,1.041,0.283,1.66,0.396l0.068,0.013l0.07-0.007c10.377-1.013,16.732-4.98,16.797-5.021
				c0.695-0.444,1.627-0.244,2.072,0.45c0.446,0.693,0.246,1.622-0.444,2.07C54.092,13.404,49.65,16.218,42,17.85v1.015
				c7.961-1.667,12.625-4.614,12.858-4.765C56.012,13.353,56.344,11.805,55.6,10.648z"/>
			<path fill="#37474F" d="M36.925,39.077L36,39.563V59h1V39.031C36.974,39.045,36.951,39.063,36.925,39.077z"/>
		</g>
		<g>
			<path id="XMLID_409_" fill="#FF8A80" d="M36.227,37.75L31,40.5l-5.227-2.75c-2.628-1.384-4.273-4.109-4.273-7.08V19l0,0
				c3.24,0,6.389-1.08,8.947-3.069L31,15.5l0.553,0.43C34.111,17.92,37.26,19,40.5,19l0,0v11.67
				C40.5,33.641,38.854,36.366,36.227,37.75z"/>
			<path fill="#37474F" d="M31,41.065l-5.459-2.873C22.74,36.718,21,33.835,21,30.67V18.5h0.5c3.113,0,6.182-1.053,8.641-2.964
				L31,14.866l0.859,0.669c2.458,1.912,5.527,2.965,8.641,2.965H41v12.17c0,3.165-1.74,6.048-4.54,7.522L31,41.065z M22,19.491
				V30.67c0,2.793,1.535,5.336,4.007,6.638L31,39.935l4.994-2.627C38.465,36.006,40,33.463,40,30.67V19.491
				c-3.162-0.106-6.253-1.222-8.754-3.167L31,16.134l-0.245,0.191C28.253,18.271,25.162,19.385,22,19.491z"/>
		</g>
	</g>
	<g>
		<rect x="27.5" y="26.5" fill="#CFD8DC" width="7" height="1"/>
		<path fill="#FFFFFF" d="M35,28h-8v-2h8V28z M28,27h6H28z"/>
	</g>
	<g>
		<rect x="30.5" y="23.5" fill="#CFD8DC" width="1" height="7"/>
		<rect x="30" y="23" fill="#FFFFFF" width="2" height="8"/>
	</g>
</g>
</svg>
