<?xml version="1.0" encoding="utf-8"?>
<!-- Generator: Adobe Illustrator 16.0.0, SVG Export Plug-In . SVG Version: 6.00 Build 0)  -->
<!DOCTYPE svg PUBLIC "-//W3C//DTD SVG 1.1//EN" "http://www.w3.org/Graphics/SVG/1.1/DTD/svg11.dtd">
<svg version="1.1" id="_x3C_Layer_x3E_" xmlns="http://www.w3.org/2000/svg" xmlns:xlink="http://www.w3.org/1999/xlink" x="0px"
	 y="0px" width="64px" height="64px" viewBox="0 0 64 64" enable-background="new 0 0 64 64" xml:space="preserve">
<g id="Kidneys_x2C__organ">
	<g>
		<path fill="#FFE0B2" d="M42.5,23.5v4h-4c-2.209,0-4,1.791-4,4V59h-2V30.5c0-3.866,3.134-7,7-7H42.5z"/>
		<path fill="#37474F" d="M35,59h-1V31.5c0-2.481,2.019-4.5,4.5-4.5H42v-3h-2.5c-3.584,0-6.5,2.916-6.5,6.5V59h-1V30.5
			c0-4.136,3.364-7.5,7.5-7.5H43v5h-4.5c-1.93,0-3.5,1.57-3.5,3.5V59z"/>
		<path fill="#FF8A80" d="M34.5,14.5c0-4.418,3.582-8,8-8c5.417,0,15,5.5,15,22.5c0,10.031-6.667,16-12,16
			c-4.694,0-8.5-3.806-8.5-8.5c0-2.537,1.118-4.808,2.88-6.365c-0.87-1.334-1.38-2.924-1.38-4.635c0-1.31,0.305-2.546,0.834-3.653
			C36.491,20.619,34.5,17.793,34.5,14.5z"/>
		<path fill="#FF5252" d="M44.998,6.848C50.143,8.948,56,15.209,56,28.5c0,10.031-6.667,16-12,16c-0.668,0-1.315-0.085-1.939-0.23
			C43.113,44.735,44.275,45,45.5,45c5.333,0,12-5.969,12-16C57.5,14.393,50.426,8.28,44.998,6.848z"/>
		<path fill="#FFFFFF" d="M38.5,37c0-2.537,1.118-4.808,2.88-6.365C40.51,29.301,40,27.711,40,26c0-1.31,0.305-2.546,0.834-3.653
			C37.991,21.119,36,18.293,36,15c0-4.418,3.582-8,8-8c0.762,0,1.609,0.113,2.498,0.348C45.063,6.762,43.682,6.5,42.5,6.5
			c-4.418,0-8,3.582-8,8c0,3.293,1.991,6.119,4.834,7.347C38.805,22.954,38.5,24.19,38.5,25.5c0,1.711,0.51,3.301,1.38,4.635
			C38.118,31.692,37,33.963,37,36.5c0,4.026,2.803,7.391,6.561,8.27C40.582,43.448,38.5,40.469,38.5,37z"/>
		<path fill="#37474F" d="M45.5,45.5c-4.962,0-9-4.037-9-9c0-2.43,0.993-4.758,2.738-6.452C38.427,28.667,38,27.104,38,25.5
			c0-1.174,0.228-2.318,0.678-3.408C35.82,20.652,34,17.726,34,14.5C34,9.813,37.813,6,42.5,6C48.73,6,58,12.125,58,29
			C58,39.766,50.741,45.5,45.5,45.5z M42.5,7c-4.136,0-7.5,3.364-7.5,7.5c0,2.995,1.779,5.699,4.532,6.888l0.477,0.206l-0.224,0.469
			C39.264,23.153,39,24.31,39,25.5c0,1.55,0.449,3.059,1.299,4.361l0.236,0.362l-0.324,0.286c-1.723,1.522-2.711,3.706-2.711,5.99
			c0,4.411,3.589,8,8,8C50.321,44.5,57,39.113,57,29C57,12.973,48.106,7,42.5,7z"/>
	</g>
	<g>
		<path fill="#FFE0B2" d="M20.5,23.5v4h4c2.209,0,4,1.791,4,4V59h2V30.5c0-3.866-3.134-7-7-7H20.5z"/>
		<path fill="#37474F" d="M31,59h-1V30.5c0-3.584-2.916-6.5-6.5-6.5H21v3h3.5c2.481,0,4.5,2.019,4.5,4.5V59h-1V31.5
			c0-1.93-1.57-3.5-3.5-3.5H20v-5h3.5c4.136,0,7.5,3.364,7.5,7.5V59z"/>
		<path fill="#FF8A80" d="M28.5,14.5c0-4.418-3.582-8-8-8c-5.417,0-15,5.5-15,22.5c0,10.031,6.667,16,12,16
			c4.694,0,8.5-3.806,8.5-8.5c0-2.537-1.118-4.808-2.88-6.365c0.87-1.334,1.38-2.924,1.38-4.635c0-1.31-0.305-2.546-0.834-3.653
			C26.509,20.619,28.5,17.793,28.5,14.5z"/>
		<path fill="#FF5252" d="M28.5,14.5c0-3.811-2.667-6.992-6.233-7.798C25.055,7.952,27,10.746,27,14
			c0,3.293-1.991,6.119-4.834,7.347C22.695,22.454,23,23.69,23,25c0,1.711-0.51,3.301-1.38,4.635c1.762,1.558,2.88,3.828,2.88,6.365
			c0,4.694-3.806,8.5-8.5,8.5c-0.604,0-1.225-0.087-1.852-0.237C15.276,44.74,16.416,45,17.5,45c4.694,0,8.5-3.806,8.5-8.5
			c0-2.537-1.118-4.808-2.88-6.365c0.87-1.334,1.38-2.924,1.38-4.635c0-1.31-0.305-2.546-0.834-3.653
			C26.509,20.619,28.5,17.793,28.5,14.5z"/>
		<path fill="#FFFFFF" d="M7,29.5C7,12.5,16.583,7,22,7c0.608,0,1.198,0.074,1.767,0.202C22.769,6.755,21.665,6.5,20.5,6.5
			c-5.417,0-15,5.5-15,22.5c0,8.896,5.242,14.587,10.148,15.763C11.231,42.892,7,37.491,7,29.5z"/>
		<path fill="#37474F" d="M17.5,45.5C12.259,45.5,5,39.766,5,29C5,12.125,14.27,6,20.5,6c4.687,0,8.5,3.813,8.5,8.5
			c0,3.226-1.82,6.152-4.678,7.592C24.772,23.182,25,24.326,25,25.5c0,1.604-0.427,3.167-1.238,4.548
			C25.507,31.742,26.5,34.07,26.5,36.5C26.5,41.463,22.462,45.5,17.5,45.5z M20.5,7C14.894,7,6,12.973,6,29
			c0,10.113,6.679,15.5,11.5,15.5c4.411,0,8-3.589,8-8c0-2.284-0.988-4.468-2.711-5.99l-0.324-0.286l0.236-0.362
			C23.551,28.559,24,27.05,24,25.5c0-1.19-0.264-2.347-0.785-3.438l-0.224-0.469l0.477-0.206C26.221,20.199,28,17.495,28,14.5
			C28,10.364,24.636,7,20.5,7z"/>
	</g>
</g>
</svg>
