<?xml version="1.0" encoding="utf-8"?>
<!-- Generator: Adobe Illustrator 16.0.0, SVG Export Plug-In . SVG Version: 6.00 Build 0)  -->
<!DOCTYPE svg PUBLIC "-//W3C//DTD SVG 1.1//EN" "http://www.w3.org/Graphics/SVG/1.1/DTD/svg11.dtd">
<svg version="1.1" id="_x3C_Layer_x3E_" xmlns="http://www.w3.org/2000/svg" xmlns:xlink="http://www.w3.org/1999/xlink" x="0px"
	 y="0px" width="64px" height="64px" viewBox="0 0 64 64" enable-background="new 0 0 64 64" xml:space="preserve">
<g id="handshake_x2C__forbidden">
	<g id="handshake_1_">
		<g id="partners_1_">
			<g id="service_2_">
				<g id="XMLID_3629_">
					<g id="XMLID_3630_">
						<g id="XMLID_3632_">
							<path fill="#E6CAA0" d="M28.998,34.601l1.563,5.631c-0.279,0.125,2.928,1.898,4.061,4.107
								c1.186,2.313,2.224,6.061,3.963,8.016c0,0,0.647-0.289,6.095-2.719c5.444-2.43,5.188-7.411,5.188-7.411l3.541-1.579
								l-5.05-10.761l-6.594,1.818l-4.23,0.203C37.533,31.906,28.099,33.638,28.998,34.601z"/>
						</g>
						<g id="XMLID_3631_">
							<path fill="#37474F" d="M48.631,29.291l-6.947,1.915l0.104,0.996l6.296-1.724l4.654,9.918l-3.389,1.511l0.018,0.343
								c0.001,0.025,0.05,1.433-0.742,3.068c0.302,0.183,0.568,0.4,0.783,0.661c0.759-1.464,0.92-2.811,0.951-3.428l3.717-1.657
								L48.631,29.291z"/>
						</g>
					</g>
				</g>
			</g>
			<g id="XMLID_3620_">
				<g id="XMLID_3628_">
					<path fill="#FFFFFF" d="M49.237,45.242l-5.534-3.028l-6.673-4.561l0.151-0.878c3.445,0.046,6.704-2.021,6.308-2.184
						l-6.455-2.659c-1.189-0.489-3.188-1.275-4.467-1.137l-7.098,0.76l-13.063-2.089v11.438l5.472,2.759l5.703,8.563
						c0.477,0.713,1.473,1.621,2.227,2.029l5.538,2.995c1.123,0.613,2.661,0.314,3.275-0.811c0.481-0.88,0.316-1.941-0.189-2.533
						l0.033-0.034l2.484,1.302c1.122,0.613,2.602,0.255,3.215-0.868c0.482-0.881,0.259-2.001-0.248-2.593l-2.402-1.671l4.372,2.39
						c1.123,0.611,2.484,0.136,3.097-0.987c0.614-1.123,0.286-2.456-0.837-3.069l-2.731-1.451l0.361-0.36l5.32,2.851
						c1.123,0.613,2.485,0.137,3.099-0.985C50.807,47.306,50.361,45.855,49.237,45.242z"/>
				</g>
				<g id="XMLID_3627_">
					<path fill="#FFE0B2" d="M24.5,33.363L13,31.075v9.522l5.149,2.62c0.078,0.039,0.097,0.097,0.145,0.169l5.703,8.563
						c0.431,0.644,1.368,1.499,2.049,1.867l5.538,2.995c0.893,0.486,2.158,0.194,2.599-0.61c0.394-0.72,0.226-1.552-0.131-1.969
						c-0.168-0.196-0.158-0.488,0.021-0.674c0.154-0.159,0.43-0.229,0.624-0.129l2.484,1.302c0.894,0.49,2.091,0.161,2.544-0.664
						c0.36-0.659,0.203-1.524-0.152-1.982l-2.345-1.632c-0.219-0.151-0.28-0.447-0.14-0.673c0.14-0.227,0.434-0.304,0.665-0.176
						l4.372,2.39c0.841,0.455,1.939,0.09,2.417-0.788c0.239-0.436,0.306-0.918,0.189-1.358c-0.116-0.438-0.41-0.806-0.826-1.033
						l-2.727-1.448c-0.141-0.074-0.236-0.211-0.26-0.368c-0.023-0.156,0.028-0.315,0.141-0.428l0.361-0.36
						c0.157-0.155,0.397-0.19,0.59-0.086l5.32,2.852c0.257,0.14,0.528,0.211,0.812,0.211c0.659,0,1.276-0.379,1.612-0.993
						c0.477-0.875,0.13-2.022-0.758-2.507l-5.535-3.021l-6.433-5.013l-4.463-5.857L24.5,33.363z"/>
				</g>
				<g id="XMLID_3622_">
					<g id="XMLID_3626_">
						<path fill="#E6CAA0" d="M40.226,53.568c-0.453,0.825-1.65,1.154-2.544,0.664l-2.484-1.302c-0.194-0.1-0.47-0.03-0.624,0.129
							c-0.18,0.186-0.189,0.478-0.021,0.674c0.056,0.064,0.096,0.154,0.141,0.237c0.154-0.091,0.354-0.118,0.505-0.04l2.484,1.302
							c0.894,0.49,2.091,0.161,2.544-0.664c0.232-0.425,0.235-0.928,0.122-1.36C40.315,53.331,40.287,53.455,40.226,53.568z"/>
					</g>
					<g id="XMLID_3625_">
						<path fill="#E6CAA0" d="M34.683,55.702c-0.44,0.805-1.706,1.097-2.599,0.61l-5.538-2.995
							c-0.681-0.368-1.618-1.224-2.049-1.867l-5.703-8.563c-0.048-0.072-0.066-0.13-0.145-0.169l-5.149-2.62v1l5.149,2.62
							c0.078,0.039,0.097,0.097,0.145,0.169l5.703,8.563c0.431,0.644,1.368,1.499,2.049,1.867l5.538,2.995
							c0.893,0.486,2.158,0.194,2.599-0.61c0.258-0.471,0.261-0.98,0.142-1.399C34.787,55.438,34.754,55.572,34.683,55.702z"/>
					</g>
					<g id="XMLID_3624_">
						<path fill="#E6CAA0" d="M45.21,50.289c-0.041,0.142-0.093,0.282-0.167,0.418c-0.478,0.878-1.576,1.243-2.417,0.788
							l-4.372-2.39c-0.231-0.128-0.525-0.051-0.665,0.176c-0.141,0.226-0.079,0.521,0.14,0.673l0.155,0.108
							c0.121-0.033,0.253-0.021,0.37,0.043l4.372,2.39c0.841,0.455,1.939,0.09,2.417-0.788c0.239-0.436,0.306-0.918,0.189-1.358
							C45.227,50.328,45.216,50.31,45.21,50.289z"/>
					</g>
					<g id="XMLID_3623_">
						<path fill="#E6CAA0" d="M50.256,47.694c-0.336,0.614-0.953,0.993-1.612,0.993c-0.283,0-0.555-0.071-0.812-0.211l-5.32-2.852
							c-0.192-0.104-0.433-0.069-0.59,0.086l-0.361,0.36c-0.112,0.112-0.164,0.271-0.141,0.428c0.023,0.157,0.119,0.294,0.26,0.368
							l0.056,0.029l0.187-0.186c0.157-0.155,0.397-0.19,0.59-0.086l5.32,2.852c0.257,0.14,0.528,0.211,0.812,0.211
							c0.659,0,1.276-0.379,1.612-0.993c0.229-0.422,0.265-0.906,0.143-1.351C50.364,47.464,50.317,47.582,50.256,47.694z"/>
					</g>
				</g>
				<g id="XMLID_3621_">
					<path fill="#37474F" d="M49.478,44.804l-5.492-3.003l-2.988-2.041c-0.111,0.009-0.213,0.032-0.33,0.032
						c-0.696,0-1.272-0.181-1.754-0.463c-0.141-0.017-0.291-0.018-0.422-0.047l4.972,3.384l5.535,3.021
						c0.888,0.484,1.234,1.632,0.758,2.507c-0.336,0.614-0.953,0.993-1.612,0.993c-0.283,0-0.555-0.071-0.812-0.211l-5.32-2.852
						c-0.192-0.104-0.433-0.069-0.59,0.086l-0.361,0.36c-0.112,0.112-0.164,0.271-0.141,0.428c0.023,0.157,0.119,0.294,0.26,0.368
						l2.727,1.448c0.416,0.228,0.71,0.595,0.826,1.033c0.116,0.44,0.05,0.923-0.189,1.358c-0.478,0.878-1.576,1.243-2.417,0.788
						l-4.372-2.39c-0.231-0.128-0.525-0.051-0.665,0.176c-0.141,0.226-0.079,0.521,0.14,0.673l2.345,1.632
						c0.355,0.458,0.513,1.323,0.152,1.982c-0.453,0.825-1.65,1.154-2.544,0.664l-2.484-1.302c-0.194-0.1-0.47-0.03-0.624,0.129
						c-0.18,0.186-0.189,0.478-0.021,0.674c0.356,0.417,0.524,1.249,0.131,1.969c-0.44,0.805-1.706,1.097-2.599,0.61l-5.538-2.995
						c-0.681-0.368-1.618-1.224-2.049-1.867l-5.703-8.563c-0.048-0.072-0.066-0.13-0.145-0.169L13,40.598V30.075l11.5,2.288
						c0.196-0.319,0.355-0.624,0.519-0.911l-12.503-2.476c-0.15-0.031-0.259,0.009-0.374,0.104C12.026,29.176,12,29.317,12,29.467
						v11.438c0,0.188,0.06,0.361,0.228,0.446l5.331,2.699l5.618,8.455c0.522,0.781,1.573,1.743,2.398,2.19l5.534,2.994
						c0.447,0.245,0.959,0.374,1.48,0.374c1.059,0,2.005-0.53,2.471-1.383c0.295-0.539,0.398-1.17,0.321-1.763l1.327,0.695
						c0.43,0.234,0.918,0.358,1.413,0.358c1.05,0,2.001-0.546,2.48-1.425c0.377-0.688,0.399-1.466,0.22-2.126l0.824,0.451
						c1.314,0.717,3.04,0.159,3.774-1.187c0.361-0.661,0.46-1.404,0.278-2.094c-0.041-0.154-0.096-0.303-0.162-0.444l1.319,0.706
						c0.401,0.22,0.835,0.331,1.287,0.331c1.024,0,1.979-0.58,2.49-1.516C51.369,47.317,50.84,45.547,49.478,44.804z"/>
				</g>
			</g>
			<g id="XMLID_3615_">
				<g id="XMLID_3619_">
					<path fill="#E6CAA0" d="M27.008,30.73c-0.517,1.422-1.841,3.199-3.102,5.43c1.486,2.392,4.136,2.198,5.43,0.775
						c0.471-0.517,1.099-1.486,1.552-2.326c0.533,0.437,3.926,0.048,4.653,0c0.098,2.134,2.854,5.747,6.98,5.43
						c4.203-0.324,6.353-4.752,3.104-8.533c0,0-8.974-4.079-10.084-3.878C33.39,28.02,28.463,30.149,27.008,30.73z"/>
				</g>
				<g id="XMLID_3617_">
					<g id="XMLID_3618_">
						<path fill="#FFFFFF" d="M24.578,36.998c0.387-0.664,0.774-1.291,1.137-1.873c0.706-1.133,1.322-2.123,1.682-3.012
							c0.213-0.087,0.475-0.195,0.773-0.318c1.997-0.823,5.715-2.357,7.465-2.674c0.875,0,8.729,2.366,8.729,2.366l0.765-0.205
							c-1.878-0.842-8.633-3.827-9.588-3.654c-2.151,0.392-7.078,2.521-8.533,3.103c-0.517,1.422-1.841,3.199-3.102,5.43
							C24.11,36.488,24.338,36.764,24.578,36.998z"/>
					</g>
				</g>
				<g id="XMLID_3616_">
					<path fill="#37474F" d="M41.669,39.53c-3.383-0.206-5.55-3.249-5.629-4.943c-0.006-0.135-0.065-0.261-0.166-0.351
						c-0.092-0.082-0.21-0.127-0.333-0.127c-0.011,0-0.021,0-0.033,0.001c-0.115,0.008-0.297,0.023-0.522,0.044
						c-0.68,0.06-1.817,0.16-2.712,0.16c-0.998,0-1.067-0.092-1.069-0.092c-0.115-0.095-0.267-0.134-0.413-0.104
						c-0.146,0.028-0.272,0.121-0.344,0.253c-0.476,0.882-1.07,1.776-1.481,2.228c-0.505,0.556-1.268,0.887-2.038,0.887h-0.001
						c-0.951,0-1.807-0.476-2.433-1.347c0.414-0.719,0.832-1.39,1.221-2.015c0.706-1.133,1.322-2.123,1.682-3.012
						c0.213-0.087,0.475-0.195,0.773-0.318c1.997-0.823,5.715-2.357,7.465-2.674c0.875,0,8.729,3.366,8.729,3.366l1.511-0.404
						c0,0-8.731-3.962-10.24-3.962c-0.03,0-0.153,0.01-0.184,0.015c-1.85,0.337-5.631,1.897-7.663,2.735
						c-0.396,0.163-0.728,0.3-0.966,0.396c-0.132,0.053-0.235,0.159-0.284,0.293c-0.308,0.846-0.939,1.86-1.672,3.036
						c-0.444,0.714-0.924,1.484-1.396,2.318c-0.09,0.159-0.086,0.354,0.011,0.51c0.814,1.311,2.07,2.063,3.445,2.063h0.001
						c1.063,0,2.076-0.442,2.777-1.214c0.476-0.521,1.016-1.357,1.41-2.044c0.282,0.06,0.656,0.086,1.158,0.086
						c0.938,0,2.104-0.103,2.8-0.164c0.011-0.001,0.021-0.002,0.031-0.003c0.444,2.292,3.082,5.308,6.736,5.402
						C41.738,40.221,41.683,39.877,41.669,39.53z"/>
				</g>
			</g>
			<g id="XMLID_3586_">
				<g id="XMLID_3608_">
					<g id="XMLID_3609_">
						<g id="XMLID_3614_">
							<path fill="#FFFFFF" d="M30.379,52.675c0.75,0.757,0.746,1.991-0.014,2.741l-1.104,1.089
								c-0.757,0.751-1.992,0.745-2.742-0.011l-0.548-0.552c-0.75-0.758-0.747-1.992,0.012-2.743l1.105-1.088
								c0.757-0.751,1.991-0.746,2.744,0.012L30.379,52.675z"/>
						</g>
						<g id="XMLID_3613_">
							<path fill="#E6CAA0" d="M27.327,55.591l0.547,0.551c0.538,0.542,1.493,0.546,2.035,0.009l1.104-1.09
								c0.271-0.269,0.423-0.628,0.425-1.014c0.002-0.386-0.146-0.748-0.415-1.021l-0.547-0.552
								c-0.271-0.272-0.634-0.423-1.022-0.423c-0.384,0-0.743,0.146-1.013,0.414l-1.108,1.09
								C26.771,54.112,26.767,55.025,27.327,55.591z"/>
						</g>
						<g id="XMLID_3610_">
							<path fill="#37474F" d="M27.896,57.564c-0.657,0-1.272-0.255-1.731-0.718l-0.548-0.552c-0.948-0.958-0.941-2.506,0.015-3.451
								l1.106-1.089c0.92-0.912,2.533-0.906,3.449,0.016l0.547,0.553c0.458,0.462,0.708,1.076,0.704,1.729
								c-0.004,0.652-0.259,1.264-0.722,1.719l-1.104,1.089C29.156,57.314,28.545,57.564,27.896,57.564z M28.454,52.052
								c-0.384,0-0.743,0.146-1.013,0.414l-1.108,1.09c-0.563,0.557-0.566,1.47-0.007,2.035l0.547,0.551
								c0.538,0.542,1.493,0.546,2.035,0.009l1.104-1.09c0.271-0.269,0.423-0.628,0.425-1.014c0.002-0.386-0.146-0.748-0.415-1.021
								l-0.547-0.552C29.206,52.202,28.842,52.052,28.454,52.052z"/>
						</g>
					</g>
				</g>
				<g id="XMLID_3601_">
					<g id="XMLID_3602_">
						<g id="XMLID_3607_">
							<path fill="#FFFFFF" d="M19.28,43.861c0.75,0.759,0.745,1.992-0.013,2.743l-1.105,1.087c-0.757,0.752-1.991,0.746-2.743-0.01
								l-0.547-0.553c-0.75-0.756-0.746-1.991,0.012-2.743l1.105-1.087c0.758-0.75,1.993-0.747,2.744,0.012L19.28,43.861z"/>
						</g>
						<g id="XMLID_3606_">
							<path fill="#E6CAA0" d="M16.226,46.776l0.548,0.554c0.538,0.54,1.493,0.546,2.035,0.007l1.107-1.089
								c0.562-0.557,0.566-1.471,0.008-2.035l-0.546-0.55c-0.271-0.273-0.634-0.424-1.022-0.424c-0.384,0-0.745,0.147-1.016,0.415
								l-1.106,1.088C15.671,45.3,15.667,46.214,16.226,46.776z"/>
						</g>
						<g id="XMLID_3603_">
							<path fill="#37474F" d="M16.796,48.752c-0.657,0-1.272-0.255-1.732-0.718l-0.548-0.554c-0.946-0.954-0.94-2.502,0.015-3.449
								l1.107-1.089c0.922-0.912,2.535-0.907,3.45,0.017l0.546,0.55c0.946,0.957,0.939,2.505-0.016,3.451l-1.106,1.088
								C18.056,48.501,17.446,48.752,16.796,48.752z M17.356,43.239c-0.384,0-0.745,0.147-1.016,0.415l-1.106,1.088
								c-0.563,0.558-0.566,1.472-0.008,2.034l0.548,0.554c0.538,0.54,1.493,0.546,2.035,0.007l1.107-1.089
								c0.562-0.557,0.566-1.471,0.008-2.035l-0.546-0.55C18.107,43.39,17.745,43.239,17.356,43.239z"/>
						</g>
					</g>
				</g>
				<g id="XMLID_3594_">
					<g id="XMLID_3595_">
						<g id="XMLID_3600_">
							<path fill="#FFFFFF" d="M23.14,46.631c0.75,0.758,0.745,1.99-0.014,2.742l-2.201,2.184c-0.758,0.752-1.993,0.746-2.743-0.012
								l-0.547-0.553c-0.752-0.754-0.745-1.988,0.013-2.74l2.203-2.186c0.756-0.75,1.989-0.744,2.742,0.014L23.14,46.631z"/>
						</g>
						<g id="XMLID_3599_">
							<path fill="#E6CAA0" d="M18.576,49.627c-0.001,0.383,0.146,0.744,0.414,1.014l0.548,0.553
								c0.538,0.543,1.492,0.547,2.036,0.008l2.2-2.184c0.564-0.559,0.568-1.473,0.011-2.035l-0.546-0.551
								c-0.272-0.273-0.637-0.424-1.025-0.424c-0.383,0-0.741,0.146-1.01,0.412L19,48.605C18.727,48.877,18.577,49.24,18.576,49.627
								z"/>
						</g>
						<g id="XMLID_3596_">
							<path fill="#37474F" d="M19.559,52.617c-0.657,0-1.272-0.256-1.732-0.721l-0.547-0.553c-0.456-0.457-0.706-1.068-0.704-1.721
								c0.002-0.654,0.258-1.268,0.72-1.727l2.203-2.186c0.922-0.914,2.534-0.906,3.449,0.016l0.547,0.551
								c0.946,0.957,0.938,2.504-0.017,3.451l-2.2,2.184C20.819,52.367,20.208,52.617,19.559,52.617z M21.213,46.008
								c-0.383,0-0.741,0.146-1.01,0.412L18,48.605c-0.273,0.271-0.424,0.635-0.425,1.021c-0.001,0.383,0.146,0.744,0.414,1.014
								l0.548,0.553c0.538,0.543,1.492,0.547,2.036,0.008l2.2-2.184c0.564-0.559,0.568-1.473,0.011-2.035l-0.546-0.551
								C21.966,46.158,21.602,46.008,21.213,46.008z"/>
						</g>
					</g>
				</g>
				<g id="XMLID_3587_">
					<g id="XMLID_3588_">
						<g id="XMLID_3593_">
							<path fill="#FFFFFF" d="M26.71,49.672c0.751,0.758,0.746,1.991-0.011,2.742l-1.654,1.636
								c-0.757,0.752-1.992,0.746-2.742-0.011l-0.547-0.552c-0.752-0.757-0.747-1.992,0.011-2.742l1.656-1.637
								c0.756-0.75,1.991-0.744,2.741,0.012L26.71,49.672z"/>
						</g>
						<g id="XMLID_3592_">
							<path fill="#E6CAA0" d="M22.695,52.115c-0.002,0.386,0.146,0.748,0.415,1.02l0.548,0.553
								c0.538,0.542,1.492,0.547,2.034,0.008l1.655-1.637c0.563-0.558,0.565-1.471,0.007-2.035l-0.546-0.552
								c-0.27-0.272-0.633-0.422-1.021-0.422c-0.384,0-0.743,0.146-1.012,0.413l-1.657,1.638
								C22.847,51.369,22.696,51.729,22.695,52.115z"/>
						</g>
						<g id="XMLID_3589_">
							<path fill="#37474F" d="M23.68,55.11c-0.657,0-1.272-0.256-1.732-0.72L21.4,53.839c-0.457-0.46-0.708-1.074-0.705-1.728
								s0.258-1.265,0.72-1.722l1.656-1.637c0.92-0.912,2.535-0.905,3.447,0.015l0.547,0.553c0.946,0.955,0.94,2.502-0.014,3.448
								l-1.655,1.637C24.939,54.859,24.329,55.11,23.68,55.11z M24.787,49.05c-0.384,0-0.743,0.146-1.012,0.413l-1.657,1.638
								c-0.271,0.269-0.422,0.629-0.423,1.015c-0.002,0.386,0.146,0.748,0.415,1.02l0.548,0.553
								c0.538,0.542,1.492,0.547,2.034,0.008l1.655-1.637c0.563-0.558,0.565-1.471,0.007-2.035l-0.546-0.552
								C25.539,49.199,25.176,49.05,24.787,49.05z"/>
						</g>
					</g>
				</g>
			</g>
			<g id="XMLID_3580_">
				<g id="XMLID_3585_">
					<polygon fill="#FFFFFF" points="54.181,26.878 46.401,29.955 51.056,42.366 54.181,41.128 					"/>
				</g>
				<g id="XMLID_3584_">
					<polygon fill="#ECEFF1" points="49.598,38.403 50.496,40.992 50.942,42.366 54,41.128 54,36.919 					"/>
				</g>
				<g id="XMLID_3581_">
					<path fill="#37474F" d="M50.767,43.019l-5.006-13.348l8.92-3.528v15.325L50.767,43.019z M47.042,30.239l4.303,11.475
						l2.336-0.926V27.613L47.042,30.239z"/>
				</g>
			</g>
			<g id="XMLID_3574_">
				<g id="XMLID_3579_">
					<polygon fill="#FFFFFF" points="8.766,26.533 8.766,40.729 13.046,42.366 17.7,29.955 					"/>
				</g>
				<g id="XMLID_3578_">
					<polygon fill="#ECEFF1" points="14.5,38.403 13.501,40.992 13.205,42.366 10.299,41.128 10.299,36.919 					"/>
				</g>
				<g id="XMLID_3575_">
					<path fill="#37474F" d="M13.337,43.013l-5.071-1.939V25.807l10.077,3.859L13.337,43.013z M9.266,40.386l3.489,1.334
						l4.303-11.476L9.266,27.26V40.386z"/>
				</g>
			</g>
		</g>
		<g id="XMLID_3569_">
			<g id="XMLID_3571_">
				<g id="XMLID_3573_">
					<polygon fill="#84FFFF" points="4.076,24.667 15.455,28.403 10.422,43.918 4.076,42.329 					"/>
				</g>
				<g id="XMLID_3572_">
					<polygon fill="#18FFFF" points="4.076,42.329 4.076,34.997 12.386,37.72 10.422,43.918 					"/>
				</g>
			</g>
			<g id="XMLID_3570_">
				<polygon fill="#37474F" points="4.083,41.65 9.813,43.301 14.738,28.71 4.083,25.063 4.083,23.96 16,28.097 10.452,44.535 
					4.083,42.702 				"/>
			</g>
		</g>
		<g id="XMLID_3565_">
			<g id="XMLID_3568_">
				<polygon fill="#84FFFF" points="60,24.667 48.688,28.403 53.799,43.918 60,42.329 				"/>
			</g>
			<g id="XMLID_3567_">
				<polygon fill="#18FFFF" points="60,42.329 60,34.997 51.757,37.72 53.799,43.918 				"/>
			</g>
			<g id="XMLID_3566_">
				<polygon fill="#37474F" points="60,41.65 54.493,43.301 49.568,28.71 60,25.063 60,23.96 48.307,28.097 53.854,44.535 
					60,42.702 				"/>
			</g>
		</g>
	</g>
	<g id="XMLID_3555_">
		<g id="XMLID_3560_">
			<circle id="XMLID_3564_" fill="#FF8A80" cx="32" cy="14" r="8.5"/>
			<path id="XMLID_3561_" fill="#37474F" d="M32,23c-4.962,0-9-4.037-9-9s4.038-9,9-9s9,4.037,9,9S36.962,23,32,23z M32,6
				c-4.411,0-8,3.589-8,8s3.589,8,8,8s8-3.589,8-8S36.411,6,32,6z"/>
		</g>
		<g id="XMLID_3558_">
			
				<rect id="XMLID_3559_" x="31.5" y="8.5" transform="matrix(0.7071 0.7071 -0.7071 0.7071 19.2721 -18.5269)" fill="#37474F" width="1" height="11"/>
		</g>
		<g id="XMLID_3556_">
			
				<rect id="XMLID_3557_" x="26.5" y="13.5" transform="matrix(0.7072 0.7071 -0.7071 0.7072 19.27 -18.5261)" fill="#37474F" width="11" height="1"/>
		</g>
	</g>
</g>
</svg>
