<svg xmlns="http://www.w3.org/2000/svg" viewBox="0 0 96 96"><defs><style>.cls-1{fill:#dc6941;}.cls-2{fill:#f0824b;}.cls-3{fill:#302d3d;}.cls-4{fill:#ffca6e;}.cls-5{fill:#ffa64d;}.cls-6{fill:#ffe391;}.cls-7{fill:#fff;}</style></defs><title>Achievement</title><g id="Achievement"><path class="cls-1" d="M15.46,87.53l-1.25-8.68a3.2,3.2,0,0,0-2.71-2.71L2.81,74.89a2,2,0,0,1-1.15-3.46L37.41,35.68,54.66,52.93,18.91,88.68A2,2,0,0,1,15.46,87.53Z"/><path class="cls-2" d="M7,70.61l8.68,1.25a3.18,3.18,0,0,1,2.71,2.71l.74,5.12,30-29.95L36.2,36.83,5.88,67.15A2,2,0,0,0,7,70.61Z"/><path class="cls-1" d="M94.4,71.43,58.65,35.68,41.4,52.93,77.15,88.68a2,2,0,0,0,3.46-1.15c.64-4.48.36-2.54,1.25-8.68a3.18,3.18,0,0,1,2.71-2.71l8.68-1.25A2,2,0,0,0,94.4,71.43Z"/><path class="cls-2" d="M89,70.61l-8.68,1.25a3.18,3.18,0,0,0-2.71,2.71l-.74,5.12L46.89,49.74,59.8,36.83,90.12,67.15A2,2,0,0,1,89,70.61Z"/><path class="cls-3" d="M14.44,87.68h0L13.19,79a2.22,2.22,0,0,0-1.87-1.86L2.64,75.88A3,3,0,0,1,.92,70.72L36.67,35a1,1,0,0,1,1.41,0L55.33,52.23a1,1,0,0,1,0,1.41L19.59,89.39A3,3,0,0,1,14.44,87.68Zm2-.29a1,1,0,0,0,1.75.58l35-35L37.38,37.1l-35,35a1,1,0,0,0,.58,1.76l8.69,1.25a4.23,4.23,0,0,1,3.56,3.56Z"/><path class="cls-3" d="M76.41,89.39,40.67,53.64a1,1,0,0,1,0-1.41L57.92,35a1,1,0,0,1,1.41,0L95.08,70.72a3,3,0,0,1-1.72,5.16l-8.68,1.25A2.22,2.22,0,0,0,82.81,79l-1.25,8.69h0A3,3,0,0,1,76.41,89.39ZM42.79,52.94l35,35a1,1,0,0,0,1.75-.58l1.26-8.68a4.21,4.21,0,0,1,3.55-3.56l8.69-1.25a1,1,0,0,0,.58-1.76l-35-35ZM80.57,87.53h0Z"/><path class="cls-4" d="M83.62,42.34c0,2.34-1.61,4.48-2,6.69s.21,4.86-.66,6.95-3.19,3.49-4.46,5.38-1.65,4.56-3.27,6.18-4.27,2-6.17,3.27-3.26,3.57-5.38,4.46-4.69.2-7,.65S50.33,78,48,78s-4.48-1.61-6.68-2-4.87.21-7-.65-3.49-3.2-5.38-4.46-4.56-1.66-6.17-3.27-2-4.27-3.27-6.18S16,58.11,15.08,56s-.21-4.68-.66-6.95-2-4.35-2-6.69,1.61-4.47,2-6.68-.21-4.86.66-6.95,3.19-3.49,4.46-5.38,1.65-4.56,3.27-6.18,4.27-2,6.17-3.27,3.26-3.57,5.38-4.46,4.69-.2,7-.65,4.35-2,6.68-2,4.48,1.61,6.68,2.05,4.87-.21,7,.65,3.49,3.2,5.38,4.46,4.56,1.66,6.17,3.27,2,4.27,3.27,6.18,3.58,3.25,4.46,5.38.21,4.68.66,6.95S83.62,40,83.62,42.34Z"/><path class="cls-5" d="M75.61,56.32a14.54,14.54,0,0,0-4.14,6.2c-1,2.39-.9,2.32-3.29,3.29A14.19,14.19,0,0,0,62,70c-2.24,2.24-1.64,1.68-5.67,1.79a2,2,0,0,0,.11,4c1.79,0,3.65.17,5.22-.48,2.12-.89,3.49-3.2,5.38-4.46s4.56-1.66,6.17-3.27,2-4.27,3.27-6.18S80,58.11,80.92,56c.66-1.58.44-3.43.49-5.23a2,2,0,0,0-1.6-2h0a2,2,0,0,0-2.4,1.87C77.29,54.59,77.89,54.1,75.61,56.32Z"/><path class="cls-6" d="M22.81,17.15c-1.62,1.62-2,4.27-3.27,6.18a24.56,24.56,0,0,1-2.83,3.06,2,2,0,0,0,2.92,2.74,26.09,26.09,0,0,0,3.23-3.58c1.45-2.17,2-4.8,2.78-5.57.94-.94,4.15-1.32,7-3.92a2,2,0,0,0-2.65-3C27.58,15.26,24.71,15.25,22.81,17.15Z"/><circle class="cls-5" cx="48" cy="42.34" r="26.34"/><path class="cls-3" d="M48,69.68A27.34,27.34,0,1,1,75.34,42.34,27.37,27.37,0,0,1,48,69.68ZM48,17A25.34,25.34,0,1,0,73.34,42.34,25.36,25.36,0,0,0,48,17Z"/><circle class="cls-2" cx="48" cy="42.34" r="20.5"/><path class="cls-3" d="M48,63.84a21.5,21.5,0,1,1,21.5-21.5A21.52,21.52,0,0,1,48,63.84Zm0-41a19.5,19.5,0,1,0,19.5,19.5A19.53,19.53,0,0,0,48,22.84Z"/><path class="cls-6" d="M50.6,20.9,55.41,30a2.93,2.93,0,0,0,2.09,1.51l10.1,1.79a2.94,2.94,0,0,1,1.6,4.94l-7.12,7.37a3,3,0,0,0-.8,2.46l1.43,10.15a2.94,2.94,0,0,1-4.2,3l-9.22-4.49a3,3,0,0,0-2.58,0l-9.22,4.49a2.94,2.94,0,0,1-4.2-3L34.72,48a3,3,0,0,0-.8-2.46L26.8,38.19a2.94,2.94,0,0,1,1.6-4.94l10.1-1.79A2.93,2.93,0,0,0,40.59,30l4.81-9A3,3,0,0,1,50.6,20.9Z"/><path class="cls-7" d="M51.48,52.24a8,8,0,0,0-7,0l-1.18.57A2.7,2.7,0,0,1,39.48,50a10.61,10.61,0,0,0-2.88-8.87,2.7,2.7,0,0,1,1.47-4.53,10.66,10.66,0,0,0,7.55-5.49,2.7,2.7,0,0,1,4.76,0,10.64,10.64,0,0,0,7.54,5.49,2.69,2.69,0,0,1,1.48,4.52A10.64,10.64,0,0,0,56.52,50a2.7,2.7,0,0,1-3.86,2.8Z"/><path class="cls-3" d="M59.8,62.52c-1.31,0-1.2-.14-10.95-4.89a2,2,0,0,0-1.7,0l-9.22,4.49A3.94,3.94,0,0,1,32.3,58l1.43-10.15a1.93,1.93,0,0,0-.53-1.62l-7.12-7.38a3.94,3.94,0,0,1,2.15-6.62l10.1-1.78a1.93,1.93,0,0,0,1.37-1l4.82-9a3.94,3.94,0,0,1,7,0h0l4.82,9.05a1.93,1.93,0,0,0,1.37,1l10.1,1.78a3.94,3.94,0,0,1,2.15,6.62L62.8,46.26a1.93,1.93,0,0,0-.53,1.62L63.7,58A4,4,0,0,1,59.8,62.52ZM48,55.43c1.31,0,1.12.11,10.94,4.9a2,2,0,0,0,2.78-2L60.29,48.16a3.92,3.92,0,0,1,1.07-3.29l7.12-7.38a1.94,1.94,0,0,0-1.06-3.26L57.33,32.45a3.89,3.89,0,0,1-2.8-2l-4.81-9a1.94,1.94,0,0,0-3.43,0l-4.82,9.05a3.89,3.89,0,0,1-2.8,2L28.58,34.23a1.94,1.94,0,0,0-1.06,3.26l7.12,7.38a3.92,3.92,0,0,1,1.07,3.29L34.28,58.31a2,2,0,0,0,2.78,2C47.31,55.33,46.79,55.43,48,55.43Z"/><path class="cls-3" d="M48,79c-2.62,0-4.77-1.65-6.87-2.07s-4.81.26-7.15-.71-3.77-3.36-5.55-4.55-4.52-1.59-6.33-3.4-2.19-4.53-3.39-6.32-3.57-3.18-4.56-5.55-.28-5-.71-7.15S11.38,45,11.38,42.34s1.65-4.79,2.06-6.87-.26-4.8.71-7.15,3.35-3.75,4.56-5.55,1.58-4.51,3.39-6.32,4.53-2.2,6.33-3.4S31.6,9.49,34,8.5s5-.29,7.15-.71S45.39,5.72,48,5.72s4.8,1.66,6.87,2.07,4.82-.26,7.15.71,3.77,3.36,5.55,4.55,4.52,1.59,6.33,3.4,2.19,4.53,3.39,6.32,3.57,3.18,4.56,5.55.28,5,.71,7.15,2.06,4.27,2.06,6.87S83,47.12,82.56,49.22s.26,4.8-.71,7.15-3.36,3.77-4.56,5.55-1.58,4.51-3.39,6.32-4.53,2.2-6.33,3.4S64.39,75.21,62,76.19s-5,.29-7.15.71S50.6,79,48,79Zm-9.06-4.23A11.14,11.14,0,0,1,44.44,76c3.2,1.36,3.92,1.36,7.12,0a11.58,11.58,0,0,1,6.11-1.2c3.39,0,4-.21,6.45-2.69a11.61,11.61,0,0,1,5.18-3.47c3.18-1.29,3.65-1.76,5-4.94a11.53,11.53,0,0,1,3.47-5.19c2.46-2.42,2.71-3,2.68-6.45a11.62,11.62,0,0,1,1.21-6.11C83,42.71,83,42,81.61,38.79a11.58,11.58,0,0,1-1.21-6.11c0-3.41-.21-4-2.68-6.45A11.56,11.56,0,0,1,74.25,21c-1.3-3.18-1.76-3.65-5-4.94a11.61,11.61,0,0,1-5.18-3.47c-2.42-2.47-3-2.71-6.45-2.69a11.54,11.54,0,0,1-6.11-1.2c-3.2-1.36-3.92-1.36-7.12,0a11.6,11.6,0,0,1-6.11,1.2c-3.4,0-4,.21-6.45,2.69A11.53,11.53,0,0,1,26.7,16.1c-3.18,1.29-3.65,1.76-4.95,4.94a11.59,11.59,0,0,1-3.46,5.19c-2.47,2.42-2.72,3-2.69,6.45a11.62,11.62,0,0,1-1.21,6.11C13,42,13,42.7,14.39,45.9A11.58,11.58,0,0,1,15.6,52c0,3.41.21,4,2.68,6.45a11.5,11.5,0,0,1,3.47,5.19c1.3,3.18,1.76,3.65,4.95,4.94a11.55,11.55,0,0,1,5.18,3.47C34.57,74.79,35.06,74.74,38.94,74.74Z"/></g></svg>