<svg xmlns="http://www.w3.org/2000/svg" viewBox="0 0 96 96"><defs><style>.cls-1{fill:#d2ddf2;}.cls-2{fill:#e6ecf2;}.cls-3{fill:#fff;}.cls-4{fill:#b3c4f3;}.cls-5{fill:#302d3d;}.cls-6{fill:#e6a779;}.cls-7{fill:#ffc088;}.cls-8{fill:#fe4a55;}.cls-9{fill:#ff736e;}.cls-10{fill:#3c3264;}.cls-11{fill:#46417d;}.cls-12{fill:#ffa64d;}.cls-13{fill:#ffca6e;}.cls-14{fill:#ffe391;}.cls-15{fill:#ff834d;}.cls-16{fill:#ff6f39;}.cls-17{fill:#bcbec0;}.cls-18{fill:#d1d3d4;}</style></defs><title>Agenda</title><g id="Agenda"><path class="cls-1" d="M77.4,10.87V90.5A4.5,4.5,0,0,1,72.9,95H9.58a4.5,4.5,0,0,1-4.5-4.5V10.87a4.5,4.5,0,0,1,4.5-4.5H72.9A4.5,4.5,0,0,1,77.4,10.87Z"/><rect class="cls-2" x="10.08" y="11.37" width="62.32" height="78.63"/><rect class="cls-3" x="26.54" y="16.29" width="40.64" height="36.45" rx="3.5"/><rect class="cls-3" x="26.54" y="60.07" width="40.64" height="9.85" rx="3.5"/><path class="cls-4" d="M77.4,43.53v47A4.5,4.5,0,0,1,72.9,95H63.36L39.85,81.23Z"/><path class="cls-4" d="M22.92,6.37V8.91a4.84,4.84,0,0,1-4.83,4.83,5.29,5.29,0,0,1-1.45-.13,4.8,4.8,0,0,1-3.73-4.7V6.37Z"/><path class="cls-4" d="M38.47,6.37V8.91a5,5,0,0,1-6.3,4.69,4.85,4.85,0,0,1-3.71-4.69V6.37Z"/><path class="cls-4" d="M54,6.37V8.91a4.84,4.84,0,0,1-4.83,4.83,5.29,5.29,0,0,1-1.45-.13A4.8,4.8,0,0,1,44,8.91V6.37Z"/><path class="cls-4" d="M69.57,6.37V8.91a4.84,4.84,0,0,1-4.83,4.83,5.22,5.22,0,0,1-1.45-.13,4.84,4.84,0,0,1-3.73-4.7V6.37Z"/><path class="cls-5" d="M72.9,96H9.58a5.51,5.51,0,0,1-5.5-5.5V10.87a5.51,5.51,0,0,1,5.5-5.5H72.9a5.51,5.51,0,0,1,5.5,5.5V90.5A5.51,5.51,0,0,1,72.9,96ZM9.58,7.37a3.5,3.5,0,0,0-3.5,3.5V90.5A3.5,3.5,0,0,0,9.58,94H72.9a3.5,3.5,0,0,0,3.5-3.5V10.87a3.5,3.5,0,0,0-3.5-3.5Z"/><path class="cls-5" d="M20.74,38.65a1,1,0,0,1-.7-.29l-5.65-5.65a1,1,0,0,1,0-1.42,1,1,0,0,1,1.41,0l5.65,5.65A1,1,0,0,1,20.74,38.65Z"/><path class="cls-5" d="M15.09,38.65a1,1,0,0,1-.7-1.71L20,31.29a1,1,0,0,1,1.41,0,1,1,0,0,1,0,1.42L15.8,38.36A1,1,0,0,1,15.09,38.65Z"/><path class="cls-5" d="M20.74,50.91a1,1,0,0,1-.7-.29L14.39,45a1,1,0,0,1,1.41-1.41l5.65,5.65A1,1,0,0,1,20.74,50.91Z"/><path class="cls-5" d="M15.09,50.91a1,1,0,0,1-.7-1.7L20,43.56A1,1,0,0,1,21.45,45L15.8,50.62A1,1,0,0,1,15.09,50.91Z"/><path class="cls-5" d="M20.74,63.18a1,1,0,0,1-.7-.3l-5.65-5.65a1,1,0,0,1,1.41-1.41l5.65,5.65A1,1,0,0,1,20.74,63.18Z"/><path class="cls-5" d="M15.09,63.18a1,1,0,0,1-.7-1.71L20,55.82a1,1,0,0,1,1.41,1.41L15.8,62.88A1,1,0,0,1,15.09,63.18Z"/><path class="cls-5" d="M20.74,75.44a1,1,0,0,1-.7-.29L14.39,69.5a1,1,0,0,1,0-1.42,1,1,0,0,1,1.41,0l5.65,5.65A1,1,0,0,1,20.74,75.44Z"/><path class="cls-5" d="M15.09,75.44a1,1,0,0,1-.7-1.71L20,68.08a1,1,0,0,1,1.41,0,1,1,0,0,1,0,1.42L15.8,75.15A1,1,0,0,1,15.09,75.44Z"/><path class="cls-5" d="M20.74,87.7a1,1,0,0,1-.7-.29l-5.65-5.65a1,1,0,0,1,1.41-1.41L21.45,86A1,1,0,0,1,20.74,87.7Z"/><path class="cls-5" d="M15.09,87.7a1,1,0,0,1-.7-1.7L20,80.35a1,1,0,0,1,1.41,1.41L15.8,87.41A1,1,0,0,1,15.09,87.7Z"/><path class="cls-5" d="M64.64,33H25.3a1,1,0,1,1,0-2H64.64a1,1,0,0,1,0,2Z"/><path class="cls-5" d="M54.39,38.56H25.3a1,1,0,1,1,0-2H54.39a1,1,0,0,1,0,2Z"/><path class="cls-5" d="M61.44,45.31H25.3a1,1,0,1,1,0-2H61.44a1,1,0,0,1,0,2Z"/><path class="cls-5" d="M54.39,50.87H25.3a1,1,0,0,1,0-2H54.39a1,1,0,0,1,0,2Z"/><path class="cls-5" d="M50.08,57.61H25.3a1,1,0,1,1,0-2H50.08a1,1,0,0,1,0,2Z"/><path class="cls-5" d="M45.6,63.18H25.3a1,1,0,0,1,0-2H45.6a1,1,0,0,1,0,2Z"/><path class="cls-5" d="M48.52,69.92H25.3a1,1,0,1,1,0-2H48.52a1,1,0,0,1,0,2Z"/><path class="cls-5" d="M59.89,75.48H25.3a1,1,0,1,1,0-2H59.89a1,1,0,0,1,0,2Z"/><path class="cls-5" d="M64.64,82.23H25.3a1,1,0,1,1,0-2H64.64a1,1,0,0,1,0,2Z"/><path class="cls-5" d="M54.39,87.79H25.3a1,1,0,1,1,0-2H54.39a1,1,0,0,1,0,2Z"/><path class="cls-6" d="M52.52,77.07,49.59,80l-1.76.22-7-7,.22-1.77L44,68.56C52.53,77.09,46.74,71.29,52.52,77.07Z"/><path class="cls-7" d="M49,73.51h0L46,76.44l-1.76.22-3.41-3.41.22-1.77L44,68.56C45.2,69.74,43.26,67.83,49,73.51Z"/><path class="cls-8" d="M90.32,39.27,86.69,42.9l-8.51-8.52,3.62-3.62a2.11,2.11,0,0,1,2.83-.15l5.69,5.68A2.11,2.11,0,0,1,90.32,39.27Z"/><path class="cls-9" d="M88,36.94l-3.63,3.63-6.18-6.19,3.62-3.62a2.11,2.11,0,0,1,2.83-.15L88,34A2.11,2.11,0,0,1,88,36.94Z"/><path class="cls-10" d="M47.83,80.22l-8,1,1-8Z"/><polygon class="cls-11" points="45.91 78.31 40.13 79.03 40.86 73.26 45.91 78.31"/><path class="cls-12" d="M82.71,46.88,52.52,77.07c-8.6-8.6-.89-.88-8.52-8.51l30.2-30.2Z"/><path class="cls-13" d="M75.81,40,45.62,70.17c3.46,3.47,1.88,1.89-1.62-1.61l30.2-30.2C77.71,41.87,79.28,43.43,75.81,40Z"/><path class="cls-14" d="M75.81,40,65.33,50.47l-1.62-1.62L74.2,38.36C77.71,41.87,79.28,43.43,75.81,40Z"/><path class="cls-15" d="M82.71,46.88,52.52,77.07l-4.26-4.26L78.45,42.62Z"/><rect class="cls-16" x="45.37" y="59.81" width="42.7" height="2.54" transform="translate(-23.65 65.07) rotate(-45)"/><rect class="cls-11" x="77.63" y="34.62" width="5.6" height="12.04" transform="translate(-5.18 68.78) rotate(-45)"/><path class="cls-5" d="M39.85,82.23a1,1,0,0,1-1-1.13c1.33-10.55,1.17-10,1.51-10.32L81.08,30.07a3.12,3.12,0,0,1,4.4,0L91,35.6A3.1,3.1,0,0,1,91,40C47.47,83.53,50.25,80.92,49.72,81,39.17,82.32,40,82.23,39.85,82.23ZM42,72l-1,8.12,8.13-1L89.59,38.59a1.13,1.13,0,0,0,0-1.58l-5.53-5.53a1.15,1.15,0,0,0-1.57,0Z"/><path class="cls-5" d="M39.85,82.23a1,1,0,0,1-1-1.13l1-8a1,1,0,0,1,1.7-.58l7,7a1,1,0,0,1-.58,1.7C39.42,82.29,40,82.23,39.85,82.23Zm1.74-6.83L41,80.07l4.67-.59Z"/><path class="cls-5" d="M51.81,77.78,43.3,69.26a1,1,0,0,1,0-1.41L73.49,37.66a1,1,0,0,1,1.41,0l8.52,8.51a1,1,0,0,1,0,1.42L53.23,77.78A1,1,0,0,1,51.81,77.78Zm-6.39-9.22,7.1,7.1L81.3,46.88l-7.1-7.1Z"/><path class="cls-5" d="M82,47.59l-8.51-8.52a1,1,0,0,1,0-1.41l4-4a1,1,0,0,1,1.41,0l8.52,8.51a1,1,0,0,1,0,1.42l-4,4A1,1,0,0,1,82,47.59Zm-6.39-9.23,7.1,7.1,2.55-2.54-7.1-7.1Z"/><path class="cls-5" d="M48.26,73.81a1,1,0,0,1-.71-1.7l30.2-30.2a1,1,0,0,1,1.41,0,1,1,0,0,1,0,1.42L49,73.52A1,1,0,0,1,48.26,73.81Z"/><path class="cls-17" d="M20.92,3.83V8.91a2.83,2.83,0,0,1-2.83,2.83,3.72,3.72,0,0,1-1-.07,2.84,2.84,0,0,1-2.21-2.76V3.83A2.84,2.84,0,0,1,17.75,1h.34A2.83,2.83,0,0,1,20.92,3.83Z"/><path class="cls-17" d="M36.47,3.83V8.91a2.83,2.83,0,0,1-2.83,2.83,3.53,3.53,0,0,1-1-.08,2.82,2.82,0,0,1-2.21-2.75V3.83A2.84,2.84,0,0,1,33.3,1h.34A2.83,2.83,0,0,1,36.47,3.83Z"/><path class="cls-17" d="M52,3.83V8.91a2.83,2.83,0,0,1-2.83,2.83,3.72,3.72,0,0,1-1-.07A2.84,2.84,0,0,1,46,8.91V3.83A2.84,2.84,0,0,1,48.85,1h.34A2.83,2.83,0,0,1,52,3.83Z"/><path class="cls-17" d="M67.57,3.83V8.91a2.83,2.83,0,0,1-2.83,2.83,3.69,3.69,0,0,1-1-.07,2.83,2.83,0,0,1-2.21-2.76V3.83A2.83,2.83,0,0,1,64.39,1h.35A2.83,2.83,0,0,1,67.57,3.83Z"/><path class="cls-18" d="M19,4.55c0,3.89,0,3.89-.1,4.38a2.06,2.06,0,0,1-4-.74c0-3.89,0-3.89.11-4.38A2,2,0,0,1,19,4.55Z"/><path class="cls-18" d="M34.56,4.55c0,3.89,0,3.89-.1,4.38a2.06,2.06,0,0,1-4-.74c0-3.89,0-3.89.11-4.38A2,2,0,0,1,34.56,4.55Z"/><path class="cls-18" d="M50.11,4.55c0,3.89,0,3.89-.1,4.38a2.06,2.06,0,0,1-4-.74c0-3.89,0-3.89.11-4.38A2,2,0,0,1,50.11,4.55Z"/><path class="cls-18" d="M65.66,4.55c0,3.89,0,3.89-.1,4.38a2.06,2.06,0,0,1-4-.74c0-3.89,0-3.89.11-4.38A2,2,0,0,1,65.66,4.55Z"/><path class="cls-5" d="M18.09,12.74h-.34a3.84,3.84,0,0,1-3.84-3.83V3.83A3.84,3.84,0,0,1,17.75,0h.34a3.84,3.84,0,0,1,3.83,3.83V8.91A3.84,3.84,0,0,1,18.09,12.74ZM17.75,2a1.84,1.84,0,0,0-1.84,1.83V8.91a1.84,1.84,0,0,0,1.84,1.83h.34a1.83,1.83,0,0,0,1.83-1.83V3.83A1.83,1.83,0,0,0,18.09,2Z"/><path class="cls-5" d="M33.64,12.74H33.3a3.84,3.84,0,0,1-3.84-3.83V3.83A3.84,3.84,0,0,1,33.3,0h.34a3.84,3.84,0,0,1,3.83,3.83V8.91A3.84,3.84,0,0,1,33.64,12.74ZM33.3,2a1.84,1.84,0,0,0-1.84,1.83V8.91a1.84,1.84,0,0,0,1.84,1.83h.34a1.83,1.83,0,0,0,1.83-1.83V3.83A1.83,1.83,0,0,0,33.64,2Z"/><path class="cls-5" d="M49.19,12.74h-.34A3.84,3.84,0,0,1,45,8.91V3.83A3.84,3.84,0,0,1,48.85,0h.34A3.84,3.84,0,0,1,53,3.83V8.91A3.84,3.84,0,0,1,49.19,12.74ZM48.85,2A1.83,1.83,0,0,0,47,3.83V8.91a1.83,1.83,0,0,0,1.84,1.83h.34A1.83,1.83,0,0,0,51,8.91V3.83A1.83,1.83,0,0,0,49.19,2Z"/><path class="cls-5" d="M64.74,12.74h-.35a3.84,3.84,0,0,1-3.83-3.83V3.83A3.84,3.84,0,0,1,64.39,0h.35a3.84,3.84,0,0,1,3.83,3.83V8.91A3.84,3.84,0,0,1,64.74,12.74ZM64.39,2a1.83,1.83,0,0,0-1.83,1.83V8.91a1.83,1.83,0,0,0,1.83,1.83h.35a1.83,1.83,0,0,0,1.83-1.83V3.83A1.83,1.83,0,0,0,64.74,2Z"/></g></svg>