<svg xmlns="http://www.w3.org/2000/svg" viewBox="0 0 96 96"><defs><style>.cls-1{fill:#84aeea;}.cls-2{fill:#302d3d;}.cls-3{fill:#d2ddf2;}.cls-4{fill:#e6ecf2;}.cls-5{fill:#fff;}.cls-6{fill:#95b5e4;}.cls-7{fill:#b3c4f3;}.cls-8{fill:#4d6dc7;}.cls-9{fill:#4359bd;}.cls-10{fill:#5c86c7;}.cls-11{fill:#3c3264;}.cls-12{fill:#46417d;}.cls-13{fill:#aacef0;}</style></defs><title>Application</title><g id="Application"><rect class="cls-1" x="2.27" y="5.83" width="63.5" height="89.17" rx="1.63"/><path class="cls-2" d="M63.83,96H3.6A2.64,2.64,0,0,1,1,93.37V7.47A2.64,2.64,0,0,1,3.6,4.83H63.83a2.64,2.64,0,0,1,2.63,2.64v85.9A2.63,2.63,0,0,1,63.83,96ZM3.6,6.83A.64.64,0,0,0,3,7.47v85.9A.64.64,0,0,0,3.6,94H63.83a.63.63,0,0,0,.63-.63V7.47a.64.64,0,0,0-.63-.64Z"/><path class="cls-3" d="M70.47,2.85c0,73.62.17,69.44-.36,70.54-.39.9.37,0-15.29,15.64a3.84,3.84,0,0,1-2.73,1.14H8.81A1.85,1.85,0,0,1,7,88.32V2.85A1.85,1.85,0,0,1,8.81,1H68.62A1.85,1.85,0,0,1,70.47,2.85Z"/><polygon class="cls-4" points="11.96 85.17 11.96 6 65.47 6 65.47 71.32 51.62 85.17 11.96 85.17"/><rect class="cls-5" x="18.4" y="18.77" width="40.64" height="36.45" rx="3.5"/><rect class="cls-5" x="22.15" y="62.55" width="33.14" height="9.85" rx="3.5"/><path class="cls-2" d="M36.85,69.09H13.67a1,1,0,0,1,0-2H36.85a1,1,0,0,1,0,2Z"/><path class="cls-2" d="M36.85,63.46H13.67a1,1,0,1,1,0-2H36.85a1,1,0,0,1,0,2Z"/><path class="cls-2" d="M36.85,57.83H13.67a1,1,0,0,1,0-2H36.85a1,1,0,1,1,0,2Z"/><path class="cls-2" d="M36.85,52.21H13.67a1,1,0,1,1,0-2H36.85a1,1,0,0,1,0,2Z"/><path class="cls-2" d="M36.85,46.58H13.67a1,1,0,0,1,0-2H36.85a1,1,0,1,1,0,2Z"/><path class="cls-2" d="M36.85,74.71H13.67a1,1,0,0,1,0-2H36.85a1,1,0,1,1,0,2Z"/><path class="cls-2" d="M30.92,80.34H13.67a1,1,0,0,1,0-2H30.92a1,1,0,0,1,0,2Z"/><path class="cls-6" d="M70.47,48.58c0,25,.15,23.74-.36,24.81-.39.9.37,0-15.29,15.64a3.84,3.84,0,0,1-2.73,1.14H41.74L30.91,79.34Z"/><path class="cls-2" d="M60.75,64.61H46.87a3.52,3.52,0,0,1-3.52-3.51v-13a3.52,3.52,0,0,1,3.52-3.51H60.75a3.52,3.52,0,0,1,3.51,3.51v13A3.52,3.52,0,0,1,60.75,64.61Zm-13.88-18a1.52,1.52,0,0,0-1.52,1.51v13a1.52,1.52,0,0,0,1.52,1.51H60.75a1.52,1.52,0,0,0,1.51-1.51v-13a1.52,1.52,0,0,0-1.51-1.51Z"/><path class="cls-2" d="M52.09,91.17H8.81A2.86,2.86,0,0,1,6,88.32V2.85A2.86,2.86,0,0,1,8.81,0H68.62a2.85,2.85,0,0,1,2.84,2.85V71.79a4.81,4.81,0,0,1-.44,2c-.48,1.09.2.23-15.49,15.92A4.85,4.85,0,0,1,52.09,91.17ZM8.81,2A.85.85,0,0,0,8,2.85V88.32a.85.85,0,0,0,.85.85H52.09a2.91,2.91,0,0,0,2-.84C70,72.48,68.91,73.65,69.2,73c.39-.84.26,3.67.26-70.14A.84.84,0,0,0,68.62,2Z"/><path class="cls-7" d="M70.11,73.39c-.4.91.43-.07-15.29,15.64a3.66,3.66,0,0,1-1.13.79V75.24a1.85,1.85,0,0,1,1.85-1.85Z"/><polygon class="cls-8" points="30.91 79.34 32.18 69.28 40.98 78.08 30.91 79.34"/><polygon class="cls-9" points="30.91 79.34 32.18 69.28 34.91 72.01 34.02 78.95 30.91 79.34"/><rect class="cls-8" x="77.99" y="20.5" width="11.09" height="12.43" transform="translate(5.6 66.94) rotate(-45.03)"/><rect class="cls-1" x="27.66" y="45.94" width="60.87" height="12.43" transform="translate(-19.87 56.36) rotate(-45)"/><polygon class="cls-9" points="78.05 29.07 75.22 26.25 83.06 18.4 85.89 21.22 78.05 29.07"/><rect class="cls-8" x="78.77" y="22.38" width="5.78" height="12.43" transform="translate(3.7 66.12) rotate(-45)"/><rect class="cls-10" x="80.18" y="25.79" width="5.78" height="8.44" transform="translate(3.11 67.53) rotate(-45)"/><rect class="cls-1" x="27.66" y="45.94" width="60.87" height="12.43" transform="translate(-19.87 56.36) rotate(-45)"/><rect class="cls-10" x="24.63" y="47.2" width="60.87" height="3.86" transform="translate(-18.61 53.33) rotate(-45)"/><rect class="cls-11" x="53.56" y="28.24" width="28.27" height="4.58" transform="translate(-1.76 56.81) rotate(-45)"/><rect class="cls-12" x="84.94" y="18.8" width="8.35" height="4.68" transform="translate(41.05 -56.82) rotate(45)"/><rect class="cls-11" x="85.62" y="17.15" width="3.68" height="4.68" transform="translate(39.4 -56.14) rotate(45)"/><path class="cls-13" d="M56.16,38h4.33a0,0,0,0,1,0,0V76.51a0,0,0,0,1,0,0H56.16a1.89,1.89,0,0,1-1.89-1.89V39.92A1.89,1.89,0,0,1,56.16,38Z" transform="translate(57.3 -23.8) rotate(45)"/><rect class="cls-5" x="56.21" y="45.04" width="2.35" height="24.47" rx="0.66" transform="translate(57.3 -23.8) rotate(45)"/><path class="cls-2" d="M53.69,90.82a1,1,0,0,1-1-1V75.24a2.86,2.86,0,0,1,2.85-2.85H70.11A1,1,0,0,1,71,73.8a4.83,4.83,0,0,1-1,1.43C55.62,89.65,54.76,90.82,53.69,90.82Zm1.85-16.43a.85.85,0,0,0-.85.85V87.75L68.05,74.39Z"/><path class="cls-2" d="M63.26,30.85H44.35a1,1,0,0,1,0-2H63.26a1,1,0,1,1,0,2Z"/><path class="cls-2" d="M63.26,25.23H44.35a1,1,0,0,1,0-2H63.26a1,1,0,1,1,0,2Z"/><path class="cls-2" d="M63.26,19.6H44.35a1,1,0,0,1,0-2H63.26a1,1,0,1,1,0,2Z"/><path class="cls-2" d="M63.26,14H44.35a1,1,0,0,1,0-2H63.26a1,1,0,1,1,0,2Z"/><path class="cls-2" d="M63.26,8.35H44.35a1,1,0,0,1,0-2H63.26a1,1,0,0,1,0,2Z"/><path class="cls-2" d="M55.43,36.48H44.35a1,1,0,0,1,0-2H55.43a1,1,0,0,1,0,2Z"/><path class="cls-2" d="M34.33,36.48H16.18A3.51,3.51,0,0,1,12.67,33V9.86a3.51,3.51,0,0,1,3.51-3.51H34.33a3.52,3.52,0,0,1,3.52,3.51V33A3.52,3.52,0,0,1,34.33,36.48ZM16.18,8.35a1.51,1.51,0,0,0-1.51,1.51V33a1.51,1.51,0,0,0,1.51,1.51H34.33A1.52,1.52,0,0,0,35.85,33V9.86a1.52,1.52,0,0,0-1.52-1.51Z"/><path class="cls-2" d="M29.93,79.21c1.37-10.92,1.21-10.3,1.55-10.64L82.37,17.69a1,1,0,0,1,1.41,0l8.79,8.79a1,1,0,0,1,.29.7c0,.65,3.24-2.82-51.17,51.6-.35.34.28.17-10.65,1.55A1,1,0,0,1,29.93,79.21Zm3.21-9.47-1.07,8.45,8.44-1.07L90.45,27.18l-7.38-7.37Z"/><path class="cls-2" d="M41,79.07a1,1,0,0,1-.71-.29L31.48,70a1,1,0,0,1,0-1.42l43-43a1,1,0,0,1,1.42,0l8.79,8.79a1,1,0,0,1,0,1.42C38.7,81.76,41.61,79.07,41,79.07ZM33.6,69.28,41,76.66,82.61,35l-7.38-7.38Z"/><path class="cls-2" d="M83.31,35.74,74.52,27a1,1,0,0,1,0-1.42l4.09-4.09a1,1,0,0,1,1.41,0l8.79,8.79a1,1,0,0,1,0,1.42l-4.08,4.09A1,1,0,0,1,83.31,35.74Zm-6.67-9.5L84,33.62l2.67-2.68-7.37-7.37Z"/><path class="cls-2" d="M58.62,42.85l-3.24-3.24a1,1,0,0,1,0-1.41l20-20a1,1,0,0,1,1.42,0L80,21.44a1,1,0,0,1,0,1.42l-20,20A1,1,0,0,1,58.62,42.85Zm-1.12-4,1.83,1.83L77.9,22.15l-1.82-1.82Z"/><path class="cls-2" d="M89.71,26.45l-5.9-5.91a1,1,0,0,1,0-1.41l3.31-3.31a1,1,0,0,1,1.41,0l5.91,5.91a1,1,0,0,1,0,1.41l-3.31,3.31A1,1,0,0,1,89.71,26.45Zm-3.78-6.61,4.49,4.49,1.9-1.9-4.5-4.49Z"/><path class="cls-2" d="M45.27,73.77l-3.1-3.1a2.84,2.84,0,0,1,0-4L66.79,42.05a2.85,2.85,0,0,1,4,0l3.1,3.1a1,1,0,0,1,0,1.42L46.69,73.77A1,1,0,0,1,45.27,73.77ZM68.79,43.22c-.5,0,1.08-1.42-25.2,24.86a.83.83,0,0,0,0,1.18L46,71.65l25.8-25.79C69.17,43.25,69.25,43.22,68.79,43.22Z"/></g></svg>