<svg xmlns="http://www.w3.org/2000/svg" viewBox="0 0 96 96"><defs><style>.cls-1{fill:#ffa64d;}.cls-2{fill:#f59350;}.cls-3{fill:#ffca6e;}.cls-4{fill:#302d3d;}.cls-5{fill:#ffe391;}.cls-6{fill:#fff;}</style></defs><title>Balance</title><g id="Balance"><rect class="cls-1" x="45.11" y="11.22" width="5.78" height="58.33"/><rect class="cls-2" x="45.11" y="57.23" width="5.78" height="3"/><rect class="cls-2" x="45.11" y="11.22" width="5.78" height="8"/><path class="cls-3" d="M39.82,38.79H18.91c1.19-2,1-3.6,1-5.79H39.82A8.59,8.59,0,0,0,39.82,38.79Z"/><path class="cls-3" d="M77.09,38.79H56.18a8.65,8.65,0,0,0,0-5.79H76.06C76.06,35.2,75.9,36.78,77.09,38.79Z"/><rect class="cls-1" x="18.86" y="35.82" width="58.23" height="2.9"/><path class="cls-2" d="M50.89,24.51V47.14a11.66,11.66,0,0,1-5.78,0V24.51A11.43,11.43,0,0,1,50.89,24.51Z"/><path class="cls-4" d="M50.89,70.55H45.11a1,1,0,0,1-1-1V11.22a1,1,0,0,1,1-1h5.78a1,1,0,0,1,1,1V69.55A1,1,0,0,1,50.89,70.55Zm-4.78-2h3.78V12.22H46.11Z"/><path class="cls-2" d="M39.82,33a8.59,8.59,0,0,0,0,5.79H36.71a11.45,11.45,0,0,1,0-5.79Z"/><path class="cls-2" d="M59.29,38.79H56.18a8.65,8.65,0,0,0,0-5.79h3.15A11.45,11.45,0,0,1,59.29,38.79Z"/><path class="cls-5" d="M56.68,35.82A8.68,8.68,0,1,1,48,27.14,8.69,8.69,0,0,1,56.68,35.82Z"/><path class="cls-1" d="M77.09,38.79H73.8A13.65,13.65,0,0,1,73.06,33h3C76.06,35.2,75.9,36.78,77.09,38.79Z"/><path class="cls-3" d="M92.93,29.2v5.72a7.54,7.54,0,0,1-7.53,7.54H83.59a7.55,7.55,0,0,1-7.53-7.54V29.2Z"/><path class="cls-1" d="M95,26.8v.47a1.93,1.93,0,0,1-1.92,1.93H75.91A1.93,1.93,0,0,1,74,27.27a2.86,2.86,0,0,1,.11-1.09,1.91,1.91,0,0,1,1.82-1.3H93.08A1.92,1.92,0,0,1,95,26.8Z"/><path class="cls-1" d="M22.94,33a13.59,13.59,0,0,1-.74,5.79H18.91c1.19-2,1-3.6,1-5.79Z"/><path class="cls-3" d="M19.94,29.2v5.72a7.54,7.54,0,0,1-7.53,7.54H10.6a7.54,7.54,0,0,1-7.53-7.54V29.2Z"/><path class="cls-5" d="M17.24,29.2v1.86c0,6.87-7.18,11.08-12.42,8.68a7.45,7.45,0,0,1-1.75-4.82V29.2Z"/><rect class="cls-2" x="3.07" y="29.2" width="16.87" height="3"/><path class="cls-6" d="M6.11,38.09a5.75,5.75,0,0,1-1-3.55.34.34,0,0,1,.34-.34h7.34a1,1,0,0,1,.76,1.59A7.06,7.06,0,0,1,6.11,38.09Z"/><path class="cls-5" d="M78.76,29.2v1.86c0,6.87,7.18,11.08,12.42,8.68a7.45,7.45,0,0,0,1.75-4.82V29.2Z"/><rect class="cls-2" x="76.05" y="29.2" width="16.87" height="3"/><path class="cls-6" d="M89.9,38.09a5.84,5.84,0,0,0,1-3.55.35.35,0,0,0-.35-.34H83.22a1,1,0,0,0-.77,1.59A7.07,7.07,0,0,0,89.9,38.09Z"/><path class="cls-1" d="M22,26.8v.47a1.93,1.93,0,0,1-1.93,1.93H2.92A1.93,1.93,0,0,1,1,27.27a2.86,2.86,0,0,1,.11-1.09,1.9,1.9,0,0,1,1.81-1.3H20.09A1.92,1.92,0,0,1,22,26.8Z"/><path class="cls-3" d="M94.89,26.18a1.92,1.92,0,0,1-1.81,1.3H75.91a1.93,1.93,0,0,1-1.82-1.3,1.91,1.91,0,0,1,1.82-1.3H93.08A1.9,1.9,0,0,1,94.89,26.18Z"/><path class="cls-3" d="M21.91,26.18a1.93,1.93,0,0,1-1.82,1.3H2.92a1.92,1.92,0,0,1-1.81-1.3,1.9,1.9,0,0,1,1.81-1.3H20.09A1.91,1.91,0,0,1,21.91,26.18Z"/><path class="cls-3" d="M53.26,54.84v.46a1.93,1.93,0,0,1-1.93,1.93H44.67a1.93,1.93,0,0,1-1.93-1.93v-.46a1.93,1.93,0,0,1,1.93-1.92h6.66A1.93,1.93,0,0,1,53.26,54.84Z"/><rect class="cls-3" x="42.75" y="69.55" width="10.51" height="4.31" rx="1.86"/><path class="cls-3" d="M61.6,84.78H34.4l1.48-2.66a3.19,3.19,0,0,1,2.8-1.65H57.32a3.19,3.19,0,0,1,2.8,1.65Z"/><path class="cls-5" d="M57.91,84.78H38.09l1.08-1.94a2.33,2.33,0,0,1,2-1.2H54.79a2.33,2.33,0,0,1,2,1.2Z"/><path class="cls-1" d="M54.83,80.47H41.17l3.29-6.61h7.08Z"/><path class="cls-2" d="M52.91,76.61c-1,.34-1,.25-8.3.25a4.8,4.8,0,0,1-1.52-.25l1.37-2.75h7.08Z"/><circle class="cls-1" cx="48" cy="35.82" r="2.89"/><rect class="cls-3" x="32.69" y="11.22" width="30.62" height="5"/><rect class="cls-5" x="36.32" y="11.22" width="23.36" height="5" rx="1.1"/><rect class="cls-6" x="39.32" y="12.67" width="17.36" height="2.1" rx="0.4"/><path class="cls-4" d="M48,45.5a9.68,9.68,0,1,1,9.13-12.9A9.68,9.68,0,0,1,48,45.5Zm0-17.36a7.68,7.68,0,1,0,7.24,5.12A7.68,7.68,0,0,0,48,28.14Z"/><path class="cls-4" d="M39.82,39.72H18.91a1,1,0,0,1-.86-1.52c1.05-1.76.89-3.2.89-5.27a1,1,0,0,1,1-1H39.82a1,1,0,0,1,.81.42c.55.78-.31,1.17-.31,3.47s.87,2.69.31,3.47A1,1,0,0,1,39.82,39.72Zm-19.35-2h18a9.67,9.67,0,0,1,0-3.79H20.94A10,10,0,0,1,20.47,37.72Z"/><path class="cls-4" d="M77.09,39.72H56.18a1,1,0,0,1-.81-.43c-.55-.77.31-1.17.31-3.47s-.87-2.69-.31-3.47a1,1,0,0,1,.81-.42H76.06a1,1,0,0,1,1,1c0,2.07-.16,3.51.89,5.27A1,1,0,0,1,77.09,39.72Zm-19.6-2h18a10.16,10.16,0,0,1-.47-3.79H57.49A9.67,9.67,0,0,1,57.49,37.72Z"/><path class="cls-4" d="M85.4,43.46H83.59a8.55,8.55,0,0,1-8.53-8.54V29.2a1,1,0,0,1,1-1H92.93a1,1,0,0,1,1,1v5.72A8.54,8.54,0,0,1,85.4,43.46ZM77.06,30.2v4.72a6.55,6.55,0,0,0,6.53,6.54H85.4a6.54,6.54,0,0,0,6.53-6.54V30.2Z"/><path class="cls-4" d="M93.08,30.2H75.91A2.93,2.93,0,0,1,73,27.27V26.8a2.93,2.93,0,0,1,2.93-2.92H93.08A2.92,2.92,0,0,1,96,26.8v.47A2.93,2.93,0,0,1,93.08,30.2ZM75.91,25.88a.93.93,0,0,0-.93.92v.47a.93.93,0,0,0,.93.93H93.08a.93.93,0,0,0,.92-.93V26.8a.92.92,0,0,0-.92-.92Z"/><path class="cls-4" d="M12.41,43.46H10.6a8.54,8.54,0,0,1-8.53-8.54V29.2a1,1,0,0,1,1-1H19.94a1,1,0,0,1,1,1v5.72A8.55,8.55,0,0,1,12.41,43.46ZM4.07,30.2v4.72a6.54,6.54,0,0,0,6.53,6.54h1.81a6.55,6.55,0,0,0,6.53-6.54V30.2Z"/><path class="cls-4" d="M20.09,30.2H2.92A2.93,2.93,0,0,1,0,27.27V26.8a2.92,2.92,0,0,1,2.92-2.92H20.09A2.93,2.93,0,0,1,23,26.8v.47A2.93,2.93,0,0,1,20.09,30.2ZM2.92,25.88A.92.92,0,0,0,2,26.8v.47a.93.93,0,0,0,.92.93H20.09a.93.93,0,0,0,.93-.93V26.8a.93.93,0,0,0-.93-.92Z"/><path class="cls-4" d="M51.33,58.23H44.67a2.93,2.93,0,0,1-2.93-2.93v-.46a2.93,2.93,0,0,1,2.93-2.92h6.66a2.93,2.93,0,0,1,2.93,2.92v.46A2.93,2.93,0,0,1,51.33,58.23Zm-6.66-4.31a.93.93,0,0,0-.93.92v.46a.93.93,0,0,0,.93.93h6.66a.93.93,0,0,0,.93-.93v-.46a.93.93,0,0,0-.93-.92Z"/><path class="cls-4" d="M51.39,74.86H44.61A2.86,2.86,0,0,1,41.75,72v-.59a2.86,2.86,0,0,1,2.86-2.86h6.78a2.86,2.86,0,0,1,2.86,2.86V72A2.86,2.86,0,0,1,51.39,74.86Zm-6.78-4.31a.86.86,0,0,0-.86.86V72a.86.86,0,0,0,.86.86h6.78a.86.86,0,0,0,.86-.86v-.59a.86.86,0,0,0-.86-.86Z"/><path class="cls-4" d="M61.59,85.78H34.41a1,1,0,0,1-.88-1.48L35,81.63a4.21,4.21,0,0,1,3.68-2.16H57.32A4.21,4.21,0,0,1,61,81.63l1.47,2.67A1,1,0,0,1,61.59,85.78Zm-25.49-2H59.9l-.65-1.18a2.21,2.21,0,0,0-1.93-1.13H38.68a2.21,2.21,0,0,0-1.93,1.13Z"/><path class="cls-4" d="M54.83,81.47H41.17a1,1,0,0,1-.9-1.45l3.29-6.6a1,1,0,0,1,.9-.56h7.08a1,1,0,0,1,.9.56L55.73,80A1,1,0,0,1,54.83,81.47Zm-12-2H53.22l-2.3-4.61H45.08Z"/><path class="cls-4" d="M48,39.72a3.9,3.9,0,1,1,3.89-3.89A3.89,3.89,0,0,1,48,39.72Zm0-5.79a1.9,1.9,0,1,0,1.89,1.9A1.9,1.9,0,0,0,48,33.93Z"/><path class="cls-4" d="M63.31,17.22H32.69a1,1,0,0,1-1-1v-5a1,1,0,0,1,1-1H63.31a1,1,0,0,1,1,1v5A1,1,0,0,1,63.31,17.22Zm-29.62-2H62.31v-3H33.69Z"/></g></svg>