<svg xmlns="http://www.w3.org/2000/svg" viewBox="0 0 96 96"><defs><style>.cls-1{fill:#6d7ea8;}.cls-2{fill:#302d3d;}.cls-3{fill:#dee2e6;}.cls-4{fill:#e9ecef;}.cls-5{fill:#f8f9fa;}.cls-6{fill:#fe4a55;}.cls-7{fill:#ff736e;}.cls-8{fill:#ffa68d;}.cls-9{fill:#3f3c6a;}.cls-10{fill:#302856;}.cls-11{fill:#4e5088;}.cls-12{fill:#fb8d74;}.cls-13{fill:#fbc4ab;}.cls-14{fill:#ffca6e;}.cls-15{fill:#ffe391;}.cls-16{fill:#4e5fba;}</style></defs><title>Best Employee</title><g id="Best_Employee" data-name="Best Employee"><path class="cls-1" d="M45.58,84.32a9.58,9.58,0,0,0-7.26-6.42l-5.87-1.14a1.69,1.69,0,0,1-1.36-1.66V72.54A1.69,1.69,0,0,1,32,71a12.7,12.7,0,0,0,6.93-10h1.64a2.84,2.84,0,0,0,2.88-2.58,2.73,2.73,0,0,0-2.73-2.87H39a12.68,12.68,0,0,0-25.32,0H12a2.83,2.83,0,0,0-2.88,2.58A2.73,2.73,0,0,0,11.87,61h1.81a12.69,12.69,0,0,0,6.91,10,1.66,1.66,0,0,1,.91,1.49V75.1a1.69,1.69,0,0,1-1.37,1.66l-4.89.95A11.28,11.28,0,0,0,6.7,85.26L3.51,95H49.08Z"/><path class="cls-2" d="M49.1,96H3.53a1,1,0,0,1-.95-1.31L5.77,85a12.27,12.27,0,0,1,9.3-8.22l4.89-1a.69.69,0,0,0,.56-.68V72.54a.67.67,0,0,0-.37-.61A13.66,13.66,0,0,1,12.83,62a4.31,4.31,0,0,1-3.65-1.16A3.74,3.74,0,0,1,12,54.59h.71a13.68,13.68,0,0,1,27.14,0h.85a3.72,3.72,0,0,1,3.72,3.93A3.8,3.8,0,0,1,40.59,62h-.77a13.64,13.64,0,0,1-7.35,9.9.66.66,0,0,0-.36.6V75.1a.69.69,0,0,0,.56.68l5.86,1.14a10.61,10.61,0,0,1,8,7.08h0l3.5,10.69A1,1,0,0,1,49.1,96ZM4.91,94H47.72l-3.07-9.37a8.57,8.57,0,0,0-6.5-5.74l-5.87-1.15a2.7,2.7,0,0,1-2.17-2.64V72.54a2.67,2.67,0,0,1,1.46-2.39A11.63,11.63,0,0,0,38,60.94a1,1,0,0,1,1-.9h1.64A1.74,1.74,0,0,0,42,57.13c-.65-.68-1.22-.54-3-.54a1,1,0,0,1-1-.94,11.68,11.68,0,0,0-23.32,0,1,1,0,0,1-1,.94H12a1.83,1.83,0,0,0-1.88,1.63A1.72,1.72,0,0,0,11.89,60H13.7a1,1,0,0,1,1,.9,11.64,11.64,0,0,0,6.37,9.2,2.68,2.68,0,0,1,1.46,2.4V75.1a2.7,2.7,0,0,1-2.17,2.64l-4.89,1a10.26,10.26,0,0,0-7.79,6.87Z"/><path class="cls-1" d="M89,84.32a9.58,9.58,0,0,0-7.26-6.42l-5.86-1.14A1.69,1.69,0,0,1,74.5,75.1V72.54a1.68,1.68,0,0,1,.92-1.5,12.69,12.69,0,0,0,6.92-10H84a2.83,2.83,0,0,0,2.88-2.58,2.73,2.73,0,0,0-2.73-2.87H82.37a12.68,12.68,0,0,0-25.31,0H55.43a2.84,2.84,0,0,0-2.88,2.58A2.73,2.73,0,0,0,55.28,61h1.81A12.71,12.71,0,0,0,64,71a1.66,1.66,0,0,1,.91,1.49V75.1a1.69,1.69,0,0,1-1.36,1.66l-4.89.95a11.28,11.28,0,0,0-8.55,7.55L46.92,95H92.49Z"/><path class="cls-2" d="M92.51,96H46.94A1,1,0,0,1,46,94.69L49.18,85a12.29,12.29,0,0,1,9.3-8.22l4.89-1a.69.69,0,0,0,.56-.68V72.54a.68.68,0,0,0-.36-.61A13.64,13.64,0,0,1,56.24,62a4.33,4.33,0,0,1-3.65-1.16,3.74,3.74,0,0,1,2.86-6.29h.72a13.68,13.68,0,0,1,27.13,0h.85a3.73,3.73,0,0,1,3.73,3.93A3.82,3.82,0,0,1,84,62h-.77a13.66,13.66,0,0,1-7.34,9.9.65.65,0,0,0-.37.6V75.1a.69.69,0,0,0,.56.68l5.86,1.14A10.59,10.59,0,0,1,90,84h0l3.5,10.69A1,1,0,0,1,92.51,96ZM48.32,94H91.13l-3.07-9.37a8.57,8.57,0,0,0-6.5-5.74l-5.87-1.15a2.7,2.7,0,0,1-2.17-2.64V72.54A2.66,2.66,0,0,1,75,70.15a11.67,11.67,0,0,0,6.38-9.21,1,1,0,0,1,1-.9H84a1.74,1.74,0,0,0,1.41-2.91c-.64-.68-1.22-.54-3-.54a1,1,0,0,1-1-.94,11.69,11.69,0,0,0-23.33,0,1,1,0,0,1-1,.94H55.45a1.83,1.83,0,0,0-1.88,1.63A1.73,1.73,0,0,0,55.3,60h1.81a1,1,0,0,1,1,.9,11.64,11.64,0,0,0,6.37,9.2,2.68,2.68,0,0,1,1.46,2.4V75.1a2.7,2.7,0,0,1-2.17,2.64l-4.89,1a10.26,10.26,0,0,0-7.79,6.87Z"/><path class="cls-3" d="M73.87,94.93H22.17l4.64-14.16A7.19,7.19,0,0,1,32.27,76l10.31-2H53.46l10.31,2a7.17,7.17,0,0,1,5.45,4.82Z"/><path class="cls-4" d="M71,94.93H24.8l4.43-13.37a4.64,4.64,0,0,1,3.52-3.12L41,76.82c2.41-.47.14-.35,12.19-.35l10.08,2a4.64,4.64,0,0,1,3.52,3.12Z"/><path class="cls-5" d="M34.61,94.93l2.54-7.68a2.7,2.7,0,0,1,2-1.79L45,84.33h6l5.79,1.13a2.68,2.68,0,0,1,2,1.8l2.41,7.67Z"/><path class="cls-2" d="M73.88,95.93H22.18a1,1,0,0,1-.95-1.31l4.64-14.16A8.22,8.22,0,0,1,32.09,75L42.4,73c.14,0-.57,0,11.07,0,.15,0-.51-.11,10.5,2a8.22,8.22,0,0,1,6.22,5.49l4.64,14.16A1,1,0,0,1,73.88,95.93Zm-50.32-2H72.5L68.29,81.08a6.21,6.21,0,0,0-4.7-4.15l-10.22-2H42.69l-10.22,2a6.21,6.21,0,0,0-4.7,4.15Z"/><path class="cls-5" d="M48,80.06l-5,2.46-2-5.57a1.78,1.78,0,0,1,.39-1.84l1.14-1.18Z"/><path class="cls-5" d="M48,80.06,53,82.52,55,77a1.79,1.79,0,0,0-.4-1.84l-1.14-1.18Z"/><polygon class="cls-6" points="50.3 85.01 45.73 85.01 44.67 81.72 48.02 80.06 51.36 81.72 50.3 85.01"/><polygon class="cls-6" points="52.26 94.93 43.77 94.93 45.73 85.01 50.3 85.01 52.26 94.93"/><polygon class="cls-7" points="49.69 94.93 46.34 94.93 47.12 85.01 48.92 85.01 49.69 94.93"/><polygon class="cls-8" points="53.46 66.08 53.46 73.93 48.02 80.05 42.58 73.93 42.58 66.08 53.46 66.08"/><path class="cls-9" d="M49.93,29.17H32.55a14.63,14.63,0,0,0,2.89,4.65,14.56,14.56,0,0,0-3.92,9.93v6.47h33V43.75A14.57,14.57,0,0,0,49.93,29.17Z"/><rect class="cls-10" x="31.52" y="44.96" width="32.99" height="5.26"/><path class="cls-2" d="M64.52,51.22h-33a1,1,0,0,1-1-1V43.75a15.52,15.52,0,0,1,3.59-9.93,16,16,0,0,1-2.5-4.29,1,1,0,0,1,.94-1.36H50A15.59,15.59,0,0,1,65.52,43.75v6.47A1,1,0,0,1,64.52,51.22Zm-32-2h31V43.75A13.59,13.59,0,0,0,50,30.17H34.1a13.92,13.92,0,0,0,2.09,3,1,1,0,0,1,0,1.35,13.55,13.55,0,0,0-3.65,9.25Z"/><path class="cls-2" d="M64.4,57.41H31.66a4.1,4.1,0,0,1,0-8.19H64.4a4.1,4.1,0,0,1,0,8.19ZM31.66,51.22a2.1,2.1,0,0,0,0,4.19H64.4a2.1,2.1,0,0,0,0-4.19Z"/><path class="cls-11" d="M52.82,36.34H42.47a5.34,5.34,0,0,1-4.25-2.09l-1.17-1.51a1,1,0,0,1,.78-1.57c13,0,13.38-.17,15.72.53A2.38,2.38,0,0,1,52.82,36.34Z"/><path class="cls-8" d="M67.48,53.32a3.09,3.09,0,0,1-3.09,3.09H31.65a3.1,3.1,0,0,1,0-6.19H64.39A3.1,3.1,0,0,1,67.48,53.32Z"/><path class="cls-12" d="M53.46,66.08v4.85a16.82,16.82,0,0,1-10.88,0V66.08Z"/><path class="cls-2" d="M47.28,80.72,41.85,74.6c-.36-.4-.26-.08-.26-8.52a1,1,0,0,1,1-1H53.47a1,1,0,0,1,1,1v7.85c0,.55.13.23-5.69,6.79A1,1,0,0,1,47.28,80.72Zm-3.69-7.17,4.44,5,4.44-5V67.08H43.59Zm9.88.38h0Z"/><path class="cls-2" d="M64.4,57.41H31.66a4.1,4.1,0,0,1,0-8.19H64.4a4.1,4.1,0,0,1,0,8.19ZM31.66,51.22a2.1,2.1,0,0,0,0,4.19H64.4a2.1,2.1,0,0,0,0-4.19Z"/><path class="cls-13" d="M62.41,50.22V54.9a14.4,14.4,0,0,1-28.79,0V50.22l2.67-3.39a5.4,5.4,0,0,0,1.13-3.11l.16-4.22a1.81,1.81,0,0,1,1.81-1.73,67.73,67.73,0,0,0,17,0,1.8,1.8,0,0,1,2,1.72l.16,4.22a5.34,5.34,0,0,0,1.14,3.11Z"/><path class="cls-14" d="M49.55,2.3l1.78,3.36a1.77,1.77,0,0,0,1.24.9l3.74.66a1.75,1.75,0,0,1,1,2.94l-2.64,2.73a1.76,1.76,0,0,0-.48,1.46l.53,3.76a1.75,1.75,0,0,1-2.5,1.82l-3.41-1.67a1.8,1.8,0,0,0-1.54,0l-3.41,1.67a1.75,1.75,0,0,1-2.5-1.82l.53-3.76a1.76,1.76,0,0,0-.48-1.46l-2.64-2.73a1.75,1.75,0,0,1,1-2.94l3.74-.66a1.77,1.77,0,0,0,1.24-.9L46.45,2.3A1.76,1.76,0,0,1,49.55,2.3Z"/><path class="cls-15" d="M49.64,16.47a3.71,3.71,0,0,0-3.28,0l-2,1a.62.62,0,0,1-.89-.64l.26-1.85a4.38,4.38,0,0,0-1.18-3.65L41.3,9.94a.62.62,0,0,1,.34-1l1.84-.32a4.36,4.36,0,0,0,3.1-2.25l.88-1.65a.61.61,0,0,1,1.08,0l.88,1.65a4.36,4.36,0,0,0,3.1,2.25l1.84.32a.62.62,0,0,1,.34,1l-1.3,1.35a4.35,4.35,0,0,0-1.18,3.64l.26,1.85a.62.62,0,0,1-.89.64Z"/><path class="cls-14" d="M28.74,11.43l1.31,2.47a1.28,1.28,0,0,0,.92.66l2.76.49a1.29,1.29,0,0,1,.7,2.17l-2,2a1.27,1.27,0,0,0-.34,1.07l.38,2.77a1.29,1.29,0,0,1-1.84,1.35L28.16,23.2a1.25,1.25,0,0,0-1.13,0l-2.52,1.23a1.29,1.29,0,0,1-1.84-1.35l.39-2.77a1.31,1.31,0,0,0-.35-1.07l-1.95-2a1.29,1.29,0,0,1,.71-2.17l2.75-.49a1.26,1.26,0,0,0,.92-.66l1.32-2.47A1.29,1.29,0,0,1,28.74,11.43Z"/><path class="cls-15" d="M29,21.4a3.31,3.31,0,0,0-2.88,0L24.83,22,25,20.89a4,4,0,0,0-1.07-3.27.61.61,0,0,1,.34-1h0a3.94,3.94,0,0,0,2.77-2,.62.62,0,0,1,1.09,0,3.91,3.91,0,0,0,2.77,2h0a.61.61,0,0,1,.34,1,3.92,3.92,0,0,0-1.06,3.27L30.36,22Z"/><path class="cls-14" d="M13.32,25.84l1.31,2.48a1.31,1.31,0,0,0,.92.66l2.76.49a1.29,1.29,0,0,1,.7,2.17l-1.94,2a1.27,1.27,0,0,0-.35,1.08l.39,2.77a1.29,1.29,0,0,1-1.85,1.34l-2.51-1.22a1.27,1.27,0,0,0-1.14,0L9.1,38.84A1.29,1.29,0,0,1,7.25,37.5l.39-2.77a1.27,1.27,0,0,0-.35-1.08l-1.94-2a1.29,1.29,0,0,1,.7-2.17L8.81,29a1.27,1.27,0,0,0,.91-.66L11,25.84A1.29,1.29,0,0,1,13.32,25.84Z"/><path class="cls-15" d="M9.58,35.3A3.9,3.9,0,0,0,8.52,32h0a.62.62,0,0,1,.34-1h0a3.89,3.89,0,0,0,2.77-2,.62.62,0,0,1,1.09,0h0a3.9,3.9,0,0,0,2.79,2,.62.62,0,0,1,.33,1,4,4,0,0,0-1.06,3.26l.16,1.16a6,6,0,0,0-2.76-1,6,6,0,0,0-2.76,1Z"/><path class="cls-14" d="M67.26,11.43,66,13.9a1.28,1.28,0,0,1-.92.66l-2.76.49a1.29,1.29,0,0,0-.7,2.17l2,2a1.27,1.27,0,0,1,.34,1.07l-.38,2.77a1.29,1.29,0,0,0,1.84,1.35l2.52-1.23a1.25,1.25,0,0,1,1.13,0l2.52,1.23a1.29,1.29,0,0,0,1.84-1.35l-.39-2.77a1.31,1.31,0,0,1,.35-1.07l1.95-2a1.29,1.29,0,0,0-.71-2.17l-2.75-.49a1.26,1.26,0,0,1-.92-.66l-1.32-2.47A1.29,1.29,0,0,0,67.26,11.43Z"/><path class="cls-15" d="M69.85,21.4a3.33,3.33,0,0,0-2.89,0L65.64,22l.16-1.15a4,4,0,0,0-1.06-3.27.61.61,0,0,1,.34-1h0a4,4,0,0,0,2.78-2,.62.62,0,0,1,1.09,0h0a3.93,3.93,0,0,0,2.78,2,.61.61,0,0,1,.34,1A4,4,0,0,0,71,20.89L71.17,22Z"/><path class="cls-14" d="M82.68,25.84l-1.31,2.48a1.31,1.31,0,0,1-.92.66l-2.76.49a1.29,1.29,0,0,0-.7,2.17l1.94,2a1.27,1.27,0,0,1,.35,1.08l-.39,2.77a1.29,1.29,0,0,0,1.85,1.34l2.51-1.22a1.27,1.27,0,0,1,1.14,0l2.51,1.22a1.29,1.29,0,0,0,1.85-1.34l-.39-2.77a1.27,1.27,0,0,1,.35-1.08l1.94-2a1.29,1.29,0,0,0-.7-2.17L87.19,29a1.27,1.27,0,0,1-.91-.66L85,25.84A1.29,1.29,0,0,0,82.68,25.84Z"/><path class="cls-15" d="M85.26,35.82a3.27,3.27,0,0,0-2.88,0l-1.32.64.16-1.16A4,4,0,0,0,80.16,32a.62.62,0,0,1,.33-1h0a3.92,3.92,0,0,0,2.78-2,.62.62,0,0,1,1.09,0h0a3.9,3.9,0,0,0,2.78,2,.62.62,0,0,1,.34,1,3.9,3.9,0,0,0-1.07,3.26l.16,1.16Z"/><rect class="cls-16" x="43.89" y="31.17" width="6.07" height="1.96" rx="0.98"/><path class="cls-2" d="M64.52,95.93h-33a1,1,0,0,1-1-1.26L32.63,87a1,1,0,1,1,1.93.52l-1.72,6.4H63.22l-1.72-6.4A1,1,0,1,1,63.43,87l2.06,7.66A1,1,0,0,1,64.52,95.93Z"/><path class="cls-2" d="M43.08,83.52a1,1,0,0,1-.94-.66l-2-5.57a2.76,2.76,0,0,1,.62-2.87c1.22-1.27,1.31-1.48,1.88-1.49a1,1,0,0,1,.72.34l5.44,6.12a1,1,0,0,1-.3,1.56C43.14,83.61,43.41,83.52,43.08,83.52Zm-.52-8.11-.39.4a.78.78,0,0,0-.17.8l1.64,4.52,2.77-1.39Z"/><path class="cls-2" d="M53,83.52c-.32,0,0,.13-5.4-2.57a1,1,0,0,1-.3-1.56l5.44-6.12a1,1,0,0,1,.72-.34c.6,0,.75.32,1.88,1.49a2.78,2.78,0,0,1,.62,2.87l-2,5.57A1,1,0,0,1,53,83.52Zm-3.33-3.78,2.77,1.39,1.64-4.52a.78.78,0,0,0-.17-.8l-.39-.4Z"/><path class="cls-2" d="M50.31,86H45.74a1,1,0,0,1-1-.69L43.73,82a1,1,0,0,1,.51-1.2l3.34-1.67a1,1,0,0,1,.9,0l3.34,1.67a1,1,0,0,1,.51,1.2l-1.06,3.29A1,1,0,0,1,50.31,86Zm-3.84-2h3.12l.57-1.78L48,81.17,45.9,82.23Z"/><path class="cls-2" d="M52.28,95.93h-8.5a1,1,0,0,1-1-1.19l2-9.92a1,1,0,0,1,1-.81h4.57a1,1,0,0,1,1,.81l2,9.92A1,1,0,0,1,52.28,95.93Zm-7.28-2h6.06L49.49,86H46.57Z"/><path class="cls-2" d="M48,70.29A15.41,15.41,0,0,1,32.63,54.9V50.22c0-.46-.05-.27,2.88-4a4.4,4.4,0,0,0,.93-2.52l.15-4.22a2.8,2.8,0,0,1,3.15-2.68,65.25,65.25,0,0,0,16.58,0,2.8,2.8,0,0,1,3.14,2.68l.16,4.22a4.33,4.33,0,0,0,.93,2.52c2.89,3.69,2.87,3.54,2.87,4V54.9A15.4,15.4,0,0,1,48,70.29ZM34.63,50.57V54.9a13.4,13.4,0,0,0,26.79,0V50.57L59,47.45a6.49,6.49,0,0,1-1.35-3.69l-.15-4.22a.78.78,0,0,0-.29-.58c-.4-.34-.47-.14-3.17.09a68.25,68.25,0,0,1-14.61-.28.81.81,0,0,0-.81.77l-.15,4.22a6.43,6.43,0,0,1-1.35,3.68Z"/><path class="cls-2" d="M53.78,51.9a1,1,0,0,1-1-1v-.64a1,1,0,1,1,2,0v.64A1,1,0,0,1,53.78,51.9Z"/><path class="cls-2" d="M55.24,48.43H52.31a1,1,0,0,1,0-2h2.93a1,1,0,0,1,0,2Z"/><path class="cls-2" d="M42.28,51.9a1,1,0,0,1-1-1v-.64a1,1,0,1,1,2,0v.64A1,1,0,0,1,42.28,51.9Z"/><path class="cls-2" d="M43.75,48.43H40.82a1,1,0,0,1,0-2h2.93a1,1,0,0,1,0,2Z"/><path class="cls-2" d="M44.29,61.35A1,1,0,0,1,44.56,60a1,1,0,0,1,1.39.27,2.51,2.51,0,0,0,4.17,0,1,1,0,0,1,1.39-.28,1,1,0,0,1,.28,1.39A4.52,4.52,0,0,1,44.29,61.35Z"/><path class="cls-2" d="M43.07,21.11A2.75,2.75,0,0,1,40.35,18l.53-3.76a.78.78,0,0,0-.21-.63L38,10.85a2.75,2.75,0,0,1,1.5-4.62l3.73-.66a.76.76,0,0,0,.54-.38l1.78-3.36a2.76,2.76,0,0,1,4.86,0l1.78,3.36a.76.76,0,0,0,.54.38l3.73.66A2.76,2.76,0,0,1,58,10.85l-2.64,2.73a.74.74,0,0,0-.2.63L55.69,18a2.75,2.75,0,0,1-3.93,2.86l-3.41-1.67a.76.76,0,0,0-.66,0C44.06,20.93,43.91,21.11,43.07,21.11ZM47.36,2.77,45.57,6.12a2.72,2.72,0,0,1-2,1.42l-3.74.66a.75.75,0,0,0-.41,1.26l2.64,2.74a2.77,2.77,0,0,1,.75,2.29l-.53,3.76A.75.75,0,0,0,43.4,19l3.41-1.66a2.71,2.71,0,0,1,2.42,0L52.64,19a.75.75,0,0,0,1.07-.78l-.53-3.76a2.77,2.77,0,0,1,.75-2.29l2.64-2.74a.75.75,0,0,0-.41-1.26l-3.74-.66a2.72,2.72,0,0,1-2-1.42L48.68,2.77h0A.75.75,0,0,0,47.36,2.77Z"/><path class="cls-2" d="M31.27,25.56c-.76,0-1.1-.28-3.53-1.46C27.57,24,27.67,24,25,25.32A2.29,2.29,0,0,1,21.7,23c.42-3,.44-2.88.31-3l-2-2a2.3,2.3,0,0,1,1.25-3.85l2.76-.49c.2,0,.12,0,1.52-2.62a2.3,2.3,0,0,1,4.05,0h0L31,13.43c.1.18,0,.12,3,.64a2.3,2.3,0,0,1,1.25,3.85c-2.11,2.18-2.05,2.06-2,2.25L33.53,23A2.29,2.29,0,0,1,31.27,25.56Zm-3.65-3.49c.75,0,1.08.27,3.52,1.46a.29.29,0,0,0,.41-.31l-.38-2.77a2.25,2.25,0,0,1,.62-1.91c2.06-2.14,2.08-2.07,2-2.31s-.06-.16-3-.68a2.27,2.27,0,0,1-1.62-1.18L27.87,11.9a.26.26,0,0,0-.51,0L26,14.37a2.27,2.27,0,0,1-1.62,1.18L21.66,16a.29.29,0,0,0-.16.49l1.95,2a2.28,2.28,0,0,1,.62,1.91c-.42,3-.47,2.91-.27,3.05s.13.11,2.81-1.2A2.23,2.23,0,0,1,27.62,22.07Z"/><path class="cls-2" d="M15.85,40c-.76,0-1.09-.27-3.52-1.46-.18-.08-.08-.08-2.78,1.23a2.29,2.29,0,0,1-3.27-2.38c.42-3,.45-2.87.31-3l-1.94-2A2.29,2.29,0,0,1,5.9,28.48L8.65,28c.2,0,.12,0,1.53-2.63a2.29,2.29,0,0,1,4,0h0C15.63,28,15.55,28,15.74,28l2.76.48a2.29,2.29,0,0,1,1.25,3.85l-1.94,2c-.14.14-.11,0,.31,3A2.3,2.3,0,0,1,15.85,40ZM12.2,26.16a.29.29,0,0,0-.26.15l-1.31,2.48A2.36,2.36,0,0,1,9,30l-2.76.48a.29.29,0,0,0-.16.49L8,33a2.27,2.27,0,0,1,.62,1.91c-.41,2.94-.47,2.9-.27,3.05s.13.1,2.82-1.2a2.27,2.27,0,0,1,2,0l2.52,1.22a.29.29,0,0,0,.42-.3l-.39-2.77A2.27,2.27,0,0,1,16.37,33c2.08-2.16,2.09-2.08,2-2.31s-.05-.17-3-.69a2.29,2.29,0,0,1-1.63-1.17C12.38,26.16,12.45,26.16,12.2,26.16Z"/><path class="cls-2" d="M72.07,25.56c-.75,0-1.09-.28-3.52-1.46-.17-.09-.07-.09-2.77,1.22A2.29,2.29,0,0,1,62.51,23c.42-3,.44-2.88.31-3l-2-2a2.29,2.29,0,0,1,1.25-3.85l2.76-.49c.19,0,.11,0,1.52-2.62h0a2.3,2.3,0,0,1,4,0l1.31,2.47c.1.18,0,.12,3,.64A2.3,2.3,0,0,1,76,17.92c-2.11,2.18-2,2.06-2,2.25L74.34,23A2.29,2.29,0,0,1,72.07,25.56Zm-3.65-3.49c.76,0,1.09.27,3.53,1.46a.29.29,0,0,0,.41-.31L72,20.45a2.28,2.28,0,0,1,.62-1.91c2.07-2.14,2.09-2.07,2-2.31s-.06-.16-3-.68A2.27,2.27,0,0,1,70,14.37L68.68,11.9a.26.26,0,0,0-.51,0l-1.32,2.47a2.27,2.27,0,0,1-1.62,1.18L62.47,16a.29.29,0,0,0-.16.49l1.94,2a2.29,2.29,0,0,1,.63,1.91c-.42,3-.47,2.91-.28,3.05s.13.11,2.82-1.2A2.22,2.22,0,0,1,68.42,22.07Z"/><path class="cls-2" d="M80.19,40a2.3,2.3,0,0,1-2.27-2.61c.42-3,.45-2.87.31-3l-1.94-2a2.29,2.29,0,0,1,1.25-3.85L80.3,28c.19,0,.11,0,1.52-2.63h0a2.29,2.29,0,0,1,4,0C87.27,28,87.19,28,87.38,28l2.76.48a2.29,2.29,0,0,1,1.25,3.85l-1.94,2c-.14.14-.11,0,.31,3a2.29,2.29,0,0,1-3.27,2.38c-2.73-1.33-2.6-1.31-2.78-1.23C81.09,39.79,80.89,40,80.19,40Zm3.65-3.49c.75,0,1.1.28,3.52,1.46a.29.29,0,0,0,.42-.3l-.39-2.77A2.27,2.27,0,0,1,88,33c2.07-2.15,2.09-2.07,2-2.31a.27.27,0,0,0-.22-.2L87,30a2.32,2.32,0,0,1-1.63-1.17c-1.39-2.63-1.32-2.63-1.57-2.63h0a.29.29,0,0,0-.26.15l-1.31,2.48A2.33,2.33,0,0,1,80.64,30l-2.75.48a.29.29,0,0,0-.16.49l1.94,2a2.27,2.27,0,0,1,.62,1.91c-.41,2.94-.47,2.9-.27,3.05s.15.1,2.82-1.2A2.23,2.23,0,0,1,83.84,36.48Z"/></g></svg>