<svg xmlns="http://www.w3.org/2000/svg" viewBox="0 0 96 96"><defs><style>.cls-1{fill:#3f3c6a;}.cls-2{fill:#302856;}.cls-3{fill:#302d3d;}.cls-4{fill:#4e5088;}.cls-5{fill:#4e5fba;}.cls-6{fill:#dee2e6;}.cls-7{fill:#e9ecef;}.cls-8{fill:#f8f9fa;}.cls-9{fill:#fe4a55;}.cls-10{fill:#ff736e;}.cls-11{fill:#ffa68d;}.cls-12{fill:#fb8d74;}.cls-13{fill:#fbc4ab;}.cls-14{fill:#87b5e3;}.cls-15{fill:#ffca6e;}</style></defs><title>Best Employee_1</title><g id="Human_Resource" data-name="Human Resource"><path class="cls-1" d="M36.17,6.35h-22a18.75,18.75,0,0,0,3.67,5.9,18.39,18.39,0,0,0-5,12.57V33H54.64v-8.2A18.47,18.47,0,0,0,36.17,6.35Z"/><rect class="cls-2" x="12.86" y="26.35" width="41.78" height="6.67"/><path class="cls-3" d="M54.63,34H12.84a1,1,0,0,1-1-1v-8.2a19.37,19.37,0,0,1,4.63-12.57,19.58,19.58,0,0,1-3.26-5.54,1,1,0,0,1,.93-1.36h22A19.49,19.49,0,0,1,55.63,24.82V33A1,1,0,0,1,54.63,34ZM13.84,32H53.63v-7.2A17.49,17.49,0,0,0,36.16,7.35H15.66a17.82,17.82,0,0,0,2.88,4.22,1,1,0,0,1,0,1.36,17.38,17.38,0,0,0-4.7,11.89Z"/><path class="cls-4" d="M39.82,15.44H26.72a6.81,6.81,0,0,1-5.39-2.65l-1.47-1.91a1.24,1.24,0,0,1,1-2c16.47,0,16.94-.22,19.9.67A3,3,0,0,1,39.82,15.44Z"/><rect class="cls-5" x="28.52" y="8.89" width="7.69" height="2.48" rx="1.24"/><path class="cls-6" d="M66.48,89.65H1L6.88,71.71a9.14,9.14,0,0,1,6.92-6.1l13.06-2.56H40.63L53.7,65.61a9.11,9.11,0,0,1,6.91,6.1Z"/><path class="cls-7" d="M4.56,89.65,10,72.74a5.82,5.82,0,0,1,4.41-3.89l12.75-2.5H40.31l12.75,2.5a5.81,5.81,0,0,1,4.42,3.9L63,89.65Z"/><path class="cls-8" d="M16,89.65l3.32-10.3A3.53,3.53,0,0,1,22,77c4.27-.84,7.12-1.52,11.76-1.52s7.53.69,11.76,1.52a3.53,3.53,0,0,1,2.69,2.37l3.34,10.3Z"/><path class="cls-3" d="M66.47,90.65H1a1,1,0,0,1-.95-1.31L5.93,71.4a10.1,10.1,0,0,1,7.66-6.77l13.07-2.56c.14,0-.74,0,14,0,.14,0-.78-.17,13.26,2.58a10.11,10.11,0,0,1,7.67,6.77l5.87,17.94A1,1,0,0,1,66.47,90.65Zm-64.09-2H65.09L59.65,72a8.11,8.11,0,0,0-6.15-5.43l-13-2.54H27L14,66.59A8.1,8.1,0,0,0,7.83,72Z"/><path class="cls-8" d="M33.75,70.81l-6.27,3.12-2.56-7.06a2.25,2.25,0,0,1,.5-2.33l1.44-1.49Z"/><path class="cls-8" d="M33.75,70.81,40,73.93l2.55-7.06a2.25,2.25,0,0,0-.49-2.33l-1.45-1.49Z"/><polygon class="cls-9" points="36.64 77.08 30.85 77.08 29.51 72.92 33.75 70.81 37.99 72.92 36.64 77.08"/><polygon class="cls-9" points="39.13 89.65 28.37 89.65 30.85 77.08 36.64 77.08 39.13 89.65"/><polygon class="cls-10" points="36.24 89.65 31.26 89.65 32.71 77.08 34.79 77.08 36.24 89.65"/><polygon class="cls-11" points="40.63 53.11 40.63 63.05 33.75 70.81 26.86 63.05 26.86 53.11 40.63 53.11"/><path class="cls-11" d="M58.4,36.94a3.93,3.93,0,0,1-3.92,3.92H13A3.92,3.92,0,1,1,13,33H54.48A3.93,3.93,0,0,1,58.4,36.94Z"/><path class="cls-12" d="M54.18,33c0,6.34,0,6.59-.1,7.84H13.42c-.13-1.24-.1-1.47-.1-7.84Z"/><path class="cls-3" d="M54.73,41.86h-42A4.66,4.66,0,0,1,8.09,37.2v-.52A4.66,4.66,0,0,1,12.75,32h42a4.66,4.66,0,0,1,4.66,4.66v.52A4.66,4.66,0,0,1,54.73,41.86ZM12.75,34a2.66,2.66,0,0,0-2.66,2.66v.52a2.66,2.66,0,0,0,2.66,2.66h42a2.67,2.67,0,0,0,2.66-2.66v-.52A2.67,2.67,0,0,0,54.73,34Z"/><path class="cls-12" d="M40.63,53.11v6.23a21.49,21.49,0,0,1-13.77,0V53.11Z"/><path class="cls-3" d="M33,71.47,26.1,63.72c-.35-.4-.25.18-.25-10.61a1,1,0,0,1,1-1H40.62a1,1,0,0,1,1,1v9.94c0,.55.29.05-7.14,8.42A1,1,0,0,1,33,71.47Zm-5.14-8.8,5.89,6.63,5.88-6.63V54.11H27.85Zm12.77.38h0Z"/><path class="cls-13" d="M52,33V39a18.23,18.23,0,0,1-36.46,0V33l3.37-4.3a6.78,6.78,0,0,0,1.44-3.93l.2-5.35a2.29,2.29,0,0,1,2.29-2.19,84.58,84.58,0,0,0,21.58,0A2.28,2.28,0,0,1,47,19.44l.2,5.35a6.84,6.84,0,0,0,1.43,3.93Z"/><path class="cls-11" d="M88.23,63.88a6.09,6.09,0,0,1-5.35,3.18H70.14c.58-1.87.39-1.28.81-2.64a5.85,5.85,0,0,1,5.59-4.11c10.42,0,9.82-.05,10.34.11A2.39,2.39,0,0,1,88.23,63.88Z"/><path class="cls-13" d="M86.67,62.31a6.09,6.09,0,0,1-5.35,3.19H70.62L71,64.42a5.85,5.85,0,0,1,5.59-4.11c10.42,0,9.82-.05,10.34.11A2.39,2.39,0,0,1,86.67,62.31Z"/><path class="cls-3" d="M82.88,68.06H70.14a1,1,0,0,1-1-1.29L70,64.13a6.82,6.82,0,0,1,6.54-4.83h9.61A3.39,3.39,0,0,1,89,64.49,7.08,7.08,0,0,1,82.88,68.06Zm-11.39-2H82.88a5.06,5.06,0,0,0,4.41-2.56,1.39,1.39,0,0,0-1.14-2.2H76.54a4.84,4.84,0,0,0-4.63,3.42Zm16.74-2.19h0Z"/><path class="cls-6" d="M76.48,73.83,69.42,89.65h-17L64.6,69.8C64.7,69.8,64.44,69.74,76.48,73.83Z"/><path class="cls-7" d="M79.34,67.42c-1.3,2.91-.81,1.8-2.86,6.41l-11.87-4c2.2-3.63,1.35-2.23,3.74-6.12Z"/><path class="cls-8" d="M72.62,72.52,65,89.65H52.45c12.86-21,11.09-18.14,12.16-19.85Z"/><path class="cls-14" d="M95,39.94A15.58,15.58,0,1,1,79.42,24.37,15.5,15.5,0,0,1,95,39.94Z"/><circle class="cls-15" cx="79.42" cy="34.34" r="5.6" transform="translate(27.75 103.75) rotate(-76.72)"/><path class="cls-15" d="M91.28,50a15.56,15.56,0,0,1-23.72,0,12,12,0,0,1,23.72,0Z"/><path class="cls-3" d="M27.47,74.93a1,1,0,0,1-.94-.66L24,67.21a3.25,3.25,0,0,1,.72-3.36c1.52-1.57,1.57-1.77,2.18-1.8a1,1,0,0,1,.73.34l6.88,7.75a1,1,0,0,1-.3,1.56C27.38,75.09,27.8,74.93,27.47,74.93Zm-.65-10.41-.69.72a1.26,1.26,0,0,0-.28,1.29l2.17,6,4.1-2Z"/><path class="cls-3" d="M40,74.93c-.34,0,.09.16-6.72-3.23a1,1,0,0,1-.3-1.56l6.88-7.75a1,1,0,0,1,.73-.34c.59,0,.59.15,2.18,1.8a3.25,3.25,0,0,1,.72,3.36L41,74.27A1,1,0,0,1,40,74.93Zm-4.66-4.44,4.1,2,2.17-6a1.27,1.27,0,0,0-.27-1.29l-.7-.72Z"/><path class="cls-3" d="M36.63,78.08H30.84a1,1,0,0,1-.95-.69l-1.34-4.17a1,1,0,0,1,.5-1.2l4.24-2.11a1,1,0,0,1,.89,0L38.42,72a1,1,0,0,1,.51,1.2l-1.35,4.17A1,1,0,0,1,36.63,78.08Zm-5.06-2H35.9l.86-2.65-3-1.5-3,1.5Z"/><path class="cls-3" d="M39.11,90.65H28.36a1,1,0,0,1-1-1.2l2.48-12.56a1,1,0,0,1,1-.81h5.79a1,1,0,0,1,1,.81L40.1,89.45A1,1,0,0,1,39.11,90.65Zm-9.53-2H37.9L35.81,78.08H31.66Z"/><path class="cls-3" d="M33.74,58.18A19.25,19.25,0,0,1,14.51,39V33c0-.48-.07-.26,3.58-4.92a5.78,5.78,0,0,0,1.23-3.35l.2-5.34a3.28,3.28,0,0,1,3.67-3.14,82.59,82.59,0,0,0,21.08,0A3.28,3.28,0,0,1,48,19.41l.2,5.34a5.91,5.91,0,0,0,1.23,3.36C53,32.69,53,32.54,53,33V39A19.26,19.26,0,0,1,33.74,58.18ZM16.51,33.36V39A17.23,17.23,0,0,0,51,39V33.36l-3.16-4a7.87,7.87,0,0,1-1.66-4.52L46,19.48a1.31,1.31,0,0,0-.46-.93c-.63-.53-.83-.23-4.21.05a86.25,86.25,0,0,1-18.48-.35,1.28,1.28,0,0,0-1.29,1.24l-.2,5.33a7.86,7.86,0,0,1-1.65,4.52Z"/><path class="cls-3" d="M41,34.88a1,1,0,0,1-1-1v-.82a1,1,0,0,1,2,0v.82A1,1,0,0,1,41,34.88Z"/><path class="cls-3" d="M42.87,30.49H39.16a1,1,0,0,1,0-2h3.71a1,1,0,0,1,0,2Z"/><path class="cls-3" d="M26.46,34.88a1,1,0,0,1-1-1v-.82a1,1,0,0,1,2,0v.82A1,1,0,0,1,26.46,34.88Z"/><path class="cls-3" d="M28.31,30.49H24.6a1,1,0,0,1,0-2h3.71a1,1,0,0,1,0,2Z"/><path class="cls-3" d="M29.23,47a1,1,0,1,1,1.65-1.11,3.45,3.45,0,0,0,5.73,0,1,1,0,1,1,1.66,1.1A5.43,5.43,0,0,1,29.23,47Z"/><path class="cls-3" d="M69.42,90.65h-17a1,1,0,0,1-.86-1.52L63.75,69.27a1,1,0,0,1,1.17-.42l11.88,4a1,1,0,0,1,.59,1.36L70.33,90.06A1,1,0,0,1,69.42,90.65Zm-15.19-2H68.77l6.35-14.22L65,71Z"/><path class="cls-3" d="M76.48,74.83c-.25,0,.69.29-12.2-4.08a1,1,0,0,1-.53-1.47c2.62-4.29.93-1.53,3.75-6.12a1,1,0,0,1,1.17-.43l11,3.74a1,1,0,0,1,.59,1.35l-2.87,6.42A1,1,0,0,1,76.48,74.83ZM66.11,69.25l9.83,3.34L78,68l-9.2-3.12Z"/><path class="cls-3" d="M79.42,56.52a16.57,16.57,0,0,1-.85-33.11,7.59,7.59,0,0,1,1.78,0,16.56,16.56,0,0,1-.93,33.1Zm0-31.15a14.57,14.57,0,1,0,11.1,24A14.58,14.58,0,0,0,79.42,25.37Z"/><path class="cls-3" d="M79.42,40.94a6.6,6.6,0,1,1,5.71-3.29A6.61,6.61,0,0,1,79.42,40.94Zm0-11.2a4.6,4.6,0,1,0,4.6,4.6A4.62,4.62,0,0,0,79.42,29.74Z"/><path class="cls-3" d="M66.8,50.67a1,1,0,0,1-.22-.8A13.05,13.05,0,0,1,78.76,39a7.14,7.14,0,0,1,1.39,0A13,13,0,0,1,92.27,49.87a1,1,0,0,1-.22.8A16.55,16.55,0,0,1,66.8,50.67Zm1.84-.94a14.54,14.54,0,0,0,21.57,0A11,11,0,0,0,80,41a4.73,4.73,0,0,0-1.06,0A11.06,11.06,0,0,0,68.64,49.73Z"/><path class="cls-3" d="M77.83,71.8c-.25,0,.16.12-6.18-2.1A1,1,0,0,1,71,68.43a1,1,0,0,1,1.28-.62l5.85,2A1,1,0,0,1,77.83,71.8Z"/></g></svg>