<svg xmlns="http://www.w3.org/2000/svg" viewBox="0 0 96 96"><defs><style>.cls-1{fill:#4d6dc7;}.cls-2{fill:#302d3d;}.cls-3{fill:#ffca6e;}.cls-4{fill:#ffe391;}.cls-5{fill:#ffa64d;}.cls-6{fill:#3c3264;}.cls-7{fill:#84aeea;}.cls-8{fill:#d2e7ff;}.cls-9{fill:#fff;}.cls-10{fill:#ffa188;}.cls-11{fill:#fbceab;}.cls-12{fill:#fbe2c9;}.cls-13{fill:#fbba8d;}</style></defs><title>Campaign</title><g id="Campaign"><circle class="cls-1" cx="75.68" cy="42.07" r="6.73"/><path class="cls-2" d="M75.68,49.79a7.73,7.73,0,1,1,7.72-7.72A7.73,7.73,0,0,1,75.68,49.79Zm0-13.45a5.73,5.73,0,1,0,5.72,5.73A5.74,5.74,0,0,0,75.68,36.34Z"/><path class="cls-3" d="M71,15.3V68.84L33.25,50.33V33.8Z"/><path class="cls-4" d="M71,15.3V62.88l-37.7-18.5V33.8Z"/><polygon class="cls-5" points="70.95 15.3 70.95 68.84 57.88 62.42 57.88 21.71 70.95 15.3"/><path class="cls-3" d="M71,15.3v33a9.07,9.07,0,0,1-13.07,8.15c-.1,0,0,1.89,0-34.76Z"/><path class="cls-3" d="M43.77,29.28c0,27.32,0,25.77-.07,26.18L33.25,50.33V33.8L43.7,28.67A2.48,2.48,0,0,1,43.77,29.28Z"/><path class="cls-2" d="M71,69.84c-.36,0,2.13,1.16-38.14-18.61a1,1,0,0,1-.56-.9V33.8a1,1,0,0,1,.56-.9l37.7-18.5a1,1,0,0,1,1.44.9V68.84A1,1,0,0,1,71,69.84ZM34.25,49.71,70,67.23V16.9L34.25,34.42Z"/><rect class="cls-1" x="24.53" y="50.88" width="10.68" height="10.68"/><polygon class="cls-6" points="35.21 50.88 35.21 56.74 24.53 54.27 24.53 50.88 35.21 50.88"/><path class="cls-2" d="M35.21,62.38H24.53a1,1,0,0,1-1-1V50.7a1,1,0,0,1,1-1H35.21a1,1,0,0,1,1,1V61.38A1,1,0,0,1,35.21,62.38Zm-9.68-2h8.68V51.7H25.53Z"/><path class="cls-1" d="M41.77,29.28V54.85a1,1,0,0,1-1.15.92L19.9,51a3.5,3.5,0,0,1-2.72-3.41v-11a3.51,3.51,0,0,1,2.72-3.41l20.72-4.81A1,1,0,0,1,41.77,29.28Z"/><path class="cls-7" d="M41.77,29.28V52.17a.93.93,0,0,1-1.15.91L19.9,48.28a3.5,3.5,0,0,1-2.72-3.41V36.58a3.51,3.51,0,0,1,2.72-3.41l20.72-4.81A1,1,0,0,1,41.77,29.28Z"/><polygon class="cls-8" points="34.3 29.83 34.3 44.87 24.64 42.64 24.64 32.07 34.3 29.83"/><polygon class="cls-9" points="27.64 40.25 27.64 34.45 31.3 33.6 31.3 41.1 27.64 40.25"/><path class="cls-10" d="M40,71.86s0,0,0,0a3.1,3.1,0,0,1-1.32,1c-.73.26-.88.2-4.46.2a2.89,2.89,0,0,1,2.86,3.17,3,3,0,0,1-3,2.57,2.84,2.84,0,0,1,2.14,4.66,3.14,3.14,0,0,1-2.36,1.07c-12.46,0-13,.26-18.52-1.11C11,82.33,8.37,82.55,1,82.55v-21H8.06c4.21,0,6.47-2.06,8.54-3.69a11.75,11.75,0,0,1,7.26-2.52h2a5.21,5.21,0,0,1,5.2,5.2v1h6.55a3,3,0,0,1,3,2.58,2.88,2.88,0,0,1-2.86,3.16A2.84,2.84,0,0,1,40,71.86Z"/><path class="cls-11" d="M30.93,59.57c.13.58.1.59.1,5.18-8.1,3.06-5.26,1.81-12.5,5.4V77.3a2.63,2.63,0,0,1-2.93,2.6A31.5,31.5,0,0,1,10.9,79c-3.82-1-6.39-.84-9.9-.84V61.56H8.06c4.21,0,6.47-2.06,8.54-3.69a11.75,11.75,0,0,1,7.26-2.52h2A5.19,5.19,0,0,1,30.93,59.57Z"/><path class="cls-12" d="M9.7,63.56a2.3,2.3,0,0,0-1.94,2.25h0A2.27,2.27,0,0,0,10,68.08h2.58a9.24,9.24,0,0,0,9.24-9.23,1,1,0,0,0-1.19-.94C16.54,59,15.76,62.46,9.7,63.56Z"/><path class="cls-2" d="M33.83,85.5c-10.67,0-13.15.25-17.68-.87C10.77,83.3,10,83.55,1,83.55a1,1,0,0,1-1-1v-21a1,1,0,0,1,1-1H8.06c3.86,0,5.93-1.91,7.92-3.48a12.79,12.79,0,0,1,7.88-2.73h2A6.21,6.21,0,0,1,32,60.56h5.55a3.89,3.89,0,0,1,2.75,6.75A3.88,3.88,0,0,1,37.6,74a3.79,3.79,0,0,1-.94,4.81A3.87,3.87,0,0,1,37.84,82h0A4,4,0,0,1,33.83,85.5ZM2,81.55c6.4,0,9.18-.21,13.55.87,5.25,1.31,5.33,1.08,18.28,1.08a2,2,0,0,0,2-1.67A1.87,1.87,0,0,0,34,79.77a1,1,0,1,1,0-2A1.88,1.88,0,1,0,34.21,74a1,1,0,0,1,0-2h3.34a1.88,1.88,0,0,0,1.55-3.12,1.86,1.86,0,0,0-1.38-.61,1,1,0,0,1,0-2,1.87,1.87,0,1,0-.14-3.74H31a1,1,0,0,1-1-1v-1a4.21,4.21,0,0,0-4.2-4.2c-2.43,0-5.38-.24-8.61,2.3L15.55,60a12.15,12.15,0,0,1-7.49,2.59H2Zm34.84.38h0Z"/><path class="cls-11" d="M36.86,81.28V82a2.51,2.51,0,0,1-2.52,2.51H27.05A2.51,2.51,0,0,1,24.53,82v-.71a2.51,2.51,0,0,1,2.52-2.51h7.29A2.51,2.51,0,0,1,36.86,81.28Z"/><rect class="cls-11" x="26.48" y="73.03" width="13.54" height="5.74" rx="2.52"/><path class="cls-11" d="M40.61,64.08v.7A2.51,2.51,0,0,1,38.1,67.3h-7a2.52,2.52,0,0,1-2.52-2.52v-.7a2.52,2.52,0,0,1,2.52-2.52h7A2.51,2.51,0,0,1,40.61,64.08Z"/><rect class="cls-11" x="25.89" y="67.3" width="14.72" height="5.73" rx="2.51"/><rect class="cls-13" x="23.46" y="78.77" width="10.68" height="5.73" rx="2.51"/><path class="cls-13" d="M37.44,75.55v.7a2.52,2.52,0,0,1-2.51,2.52h-7a2.52,2.52,0,0,1-2.52-2.52v-.7A2.52,2.52,0,0,1,27.93,73h7A2.52,2.52,0,0,1,37.44,75.55Z"/><path class="cls-13" d="M38.38,64.08v.7a2.52,2.52,0,0,1-2.52,2.52H30A2.53,2.53,0,0,1,28,66.2a3.22,3.22,0,0,1-.44-2.12A2.52,2.52,0,0,1,30,61.56h5.82A2.52,2.52,0,0,1,38.38,64.08Z"/><path class="cls-2" d="M38.1,68.3h-7a3.52,3.52,0,0,1-3.52-3.51v-.71a3.53,3.53,0,0,1,3.52-3.52h7a3.52,3.52,0,0,1,3.51,3.52v.71A3.51,3.51,0,0,1,38.1,68.3Zm-7-5.74a1.52,1.52,0,0,0-1.52,1.52v.71a1.52,1.52,0,0,0,1.52,1.51h7a1.52,1.52,0,0,0,1.51-1.51v-.71a1.52,1.52,0,0,0-1.51-1.52Z"/><path class="cls-13" d="M38.11,69.81v.71A2.51,2.51,0,0,1,35.59,73H27.33a2.51,2.51,0,0,1-2.51-2.51v-.71a2.51,2.51,0,0,1,2.51-2.51h8.26A2.51,2.51,0,0,1,38.11,69.81Z"/><path class="cls-2" d="M38.1,74H28.4a3.51,3.51,0,0,1-3.51-3.51v-.71A3.51,3.51,0,0,1,28.4,66.3h9.7a3.51,3.51,0,0,1,3.51,3.51v.71A3.51,3.51,0,0,1,38.1,74ZM28.4,68.3a1.52,1.52,0,0,0-1.51,1.51v.71A1.52,1.52,0,0,0,28.4,72h9.7a1.52,1.52,0,0,0,1.51-1.51v-.71A1.52,1.52,0,0,0,38.1,68.3Z"/><path class="cls-1" d="M17.18,37.27v9.6H11a2,2,0,0,1-2-2V39.26a2,2,0,0,1,2-2Z"/><rect class="cls-6" x="15.18" y="37.27" width="2" height="9.6"/><rect class="cls-4" x="70.95" y="11.5" width="5.06" height="61.14" rx="2.22"/><path class="cls-11" d="M31,60.55v7.31a2.87,2.87,0,0,1-5.74,0V60.38"/><path class="cls-4" d="M64.42,39a3,3,0,0,1-3-3V24.74a3,3,0,0,1,6,0V36A3,3,0,0,1,64.42,39Z"/><path class="cls-2" d="M89.86,56.18a1,1,0,0,1-.74-1.68,18.29,18.29,0,0,0,0-24.87,1,1,0,0,1,1.47-1.36,20.29,20.29,0,0,1,0,27.59A1,1,0,0,1,89.86,56.18Z"/><path class="cls-2" d="M84.84,51.54a1,1,0,0,1-.74-1.68,11.47,11.47,0,0,0,0-15.59,1,1,0,0,1,1.47-1.36,13.48,13.48,0,0,1,0,18.31A1,1,0,0,1,84.84,51.54Z"/><path class="cls-2" d="M71,69.84c-.33,0,.79.5-13.51-6.52a1,1,0,0,1-.56-.9V21.71a1,1,0,0,1,.56-.9L70.51,14.4a1,1,0,0,1,1.44.9V68.84A1,1,0,0,1,71,69.84Zm-12.07-8L70,67.23V16.9L58.88,22.33Z"/><path class="cls-2" d="M40.84,56.79c-.33,0,1,.28-21.17-4.85a4.49,4.49,0,0,1-3.49-4.39v-11a4.47,4.47,0,0,1,3.49-4.38l20.72-4.81a1.94,1.94,0,0,1,2.38,1.89V54.85A1.94,1.94,0,0,1,40.84,56.79Zm-.07-27.46L20.13,34.15a2.48,2.48,0,0,0-1.95,2.43v11A2.49,2.49,0,0,0,20.12,50l20.73,4.8Z"/><path class="cls-2" d="M34.3,45.87c-.16,0,.68.19-9.88-2.26a1,1,0,0,1-.78-1V32.07a1,1,0,0,1,.78-1l9.66-2.23a1,1,0,0,1,1.22,1v15A1,1,0,0,1,34.3,45.87Zm-8.66-4,7.66,1.78V31.09l-7.66,1.77Z"/><path class="cls-2" d="M16.34,71.32a1,1,0,0,1,0-2,8,8,0,0,0,8-7.94,1,1,0,0,1,2,0A10,10,0,0,1,16.34,71.32Z"/><path class="cls-2" d="M34.34,85.5H27.05A3.52,3.52,0,0,1,23.53,82v-.71a3.52,3.52,0,0,1,3.52-3.51h7.29a3.52,3.52,0,0,1,3.52,3.51V82A3.52,3.52,0,0,1,34.34,85.5Zm-7.29-5.73a1.52,1.52,0,0,0-1.52,1.51V82a1.52,1.52,0,0,0,1.52,1.51h7.29A1.52,1.52,0,0,0,35.86,82v-.71a1.52,1.52,0,0,0-1.52-1.51Z"/><path class="cls-2" d="M37.5,79.77H29a3.53,3.53,0,0,1-3.52-3.52v-.7A3.53,3.53,0,0,1,29,72h8.5A3.53,3.53,0,0,1,41,75.55v.7A3.53,3.53,0,0,1,37.5,79.77ZM29,74a1.52,1.52,0,0,0-1.52,1.52v.7A1.52,1.52,0,0,0,29,77.77h8.5A1.52,1.52,0,0,0,39,76.25v-.7A1.52,1.52,0,0,0,37.5,74Z"/><path class="cls-2" d="M73.79,73.64h-.62A3.22,3.22,0,0,1,70,70.42V13.71a3.22,3.22,0,0,1,3.22-3.21h.62A3.22,3.22,0,0,1,77,13.71V70.42A3.22,3.22,0,0,1,73.79,73.64ZM73.17,12.5A1.22,1.22,0,0,0,72,13.71V70.42a1.22,1.22,0,0,0,1.22,1.22h.62A1.22,1.22,0,0,0,75,70.42V13.71a1.22,1.22,0,0,0-1.22-1.21Z"/><path class="cls-2" d="M17.18,47.87H11a3,3,0,0,1-3-3V39.26a3,3,0,0,1,3-3h6.21a1,1,0,0,1,1,1v9.6A1,1,0,0,1,17.18,47.87ZM11,38.27a1,1,0,0,0-1,1v5.62a1,1,0,0,0,1,1h5.21v-7.6Z"/><path class="cls-2" d="M28.16,71.72a3.86,3.86,0,0,1-3.87-3.86V61.38a1,1,0,0,1,2,0v6.48a1.87,1.87,0,0,0,3.74,0V60.55a1,1,0,0,1,2,0v7.31A3.87,3.87,0,0,1,28.16,71.72Z"/></g></svg>