<svg xmlns="http://www.w3.org/2000/svg" viewBox="0 0 96 96"><defs><style>.cls-1{fill:#e61f34;}.cls-2{fill:#fe4a55;}.cls-3{fill:#ffa64d;}.cls-4{fill:#ffca6e;}.cls-5{fill:#3a9869;}.cls-6{fill:#3ab67d;}.cls-7{fill:#ff736e;}.cls-8{fill:#ffe391;}.cls-9{fill:#44cf87;}.cls-10{fill:#63e296;}.cls-11{fill:#fff2a5;}.cls-12{fill:#4d6dc7;}.cls-13{fill:#495f9c;}.cls-14{fill:#302d3d;}</style></defs><title>Career</title><g id="Career"><path class="cls-1" d="M19.9,84.17l-14.19.06c0-4.8,0-1.63-.06-13.86l14.19-.07Z"/><path class="cls-2" d="M34.1,84.1l-14.2.07c0-4.85,0-.53-.08-20.29L34,63.81Z"/><path class="cls-3" d="M48.29,84,34.1,84.1c0-4.81,0,.46-.12-28.51l14.19-.07Z"/><path class="cls-4" d="M62.49,84,48.29,84c0-5,0,1.31-.15-36.69l14.19-.06Z"/><path class="cls-5" d="M76.68,83.92,62.49,84c0-5.2,0,2.49-.2-46.57,12.56,0,9.46,0,14.19-.06Z"/><path class="cls-6" d="M90.88,83.86l-14.2.06c0-5.25,0,2.35-.23-54.59l14.19-.07Z"/><path class="cls-2" d="M5.69,80.63l0-10.26,10.64-.05A10.26,10.26,0,0,1,5.69,80.63Z"/><path class="cls-7" d="M19.89,80.57l-.07-16.69,10.63-.05,0,6.43A10.27,10.27,0,0,1,19.89,80.57Z"/><path class="cls-4" d="M34.08,80.51,34,55.59l10.64-.05.06,14.66A10.27,10.27,0,0,1,34.08,80.51Z"/><path class="cls-8" d="M48.28,80.45l-.14-33.1,10.63,0,.1,22.83A10.27,10.27,0,0,1,48.28,80.45Z"/><path class="cls-6" d="M62.47,80.39l-.18-43,10.64,0,.14,32.71A10.27,10.27,0,0,1,62.47,80.39Z"/><path class="cls-9" d="M76.66,80.33l-.21-51,10.64,0L87.27,70A10.28,10.28,0,0,1,76.66,80.33Z"/><path class="cls-10" d="M79.22,67.87H76.56L76.46,40a2.65,2.65,0,1,1,5.3,0l.09,25.19A2.65,2.65,0,0,1,79.22,67.87Z"/><path class="cls-9" d="M65.05,69.79l-2.66,0L62.29,50a2.65,2.65,0,0,1,5.3,0l.09,17.21A2.63,2.63,0,0,1,65.05,69.79Z"/><path class="cls-11" d="M50.9,73H48.24l-.1-14.81a2.65,2.65,0,1,1,5.3,0l.09,12.16A2.65,2.65,0,0,1,50.9,73Z"/><path class="cls-8" d="M36.79,74.86H34.13L34,66.46a2.65,2.65,0,0,1,5.3,0l.09,5.76A2.65,2.65,0,0,1,36.79,74.86Z"/><rect class="cls-12" x="1.01" y="84.04" width="94" height="5.76" transform="translate(-0.37 0.21) rotate(-0.25)"/><rect class="cls-13" x="1.02" y="86.92" width="94" height="2.88" transform="translate(-0.38 0.21) rotate(-0.25)"/><path class="cls-4" d="M84.51,7.52l1.43,2.88a1.16,1.16,0,0,0,.89.63l3.18.45a1.17,1.17,0,0,1,.66,2l-2.3,2.26a1.21,1.21,0,0,0-.33,1l.56,3.17a1.17,1.17,0,0,1-1.69,1.24l-2.86-1.49a1.15,1.15,0,0,0-1.08,0l-2.85,1.51A1.17,1.17,0,0,1,78.42,20L79,16.81a1.18,1.18,0,0,0-.34-1l-2.32-2.23a1.18,1.18,0,0,1,.64-2l3.19-.48a1.15,1.15,0,0,0,.88-.64l1.41-2.89A1.17,1.17,0,0,1,84.51,7.52Z"/><path class="cls-8" d="M82,16.86a4.19,4.19,0,0,0-1-2.92,4.22,4.22,0,0,0,2.48-1.82A4.14,4.14,0,0,0,86,13.92,4.2,4.2,0,0,0,85,16.85,4.17,4.17,0,0,0,82,16.86Z"/><path class="cls-14" d="M5.69,85.23a1,1,0,0,1-1-1L4.63,70.37a1,1,0,0,1,1-1l14.2-.07a1,1,0,0,1,1,1l.06,13.86a1,1,0,0,1-1,1Zm.94-13.87,0,11.86,12.2,0-.05-11.86Z"/><path class="cls-14" d="M19.88,85.17a1,1,0,0,1-1-1L18.8,63.88a1,1,0,0,1,1-1L34,62.81a1,1,0,0,1,1,1l.09,20.29a1,1,0,0,1-1,1Zm.92-20.3.08,18.29,12.2,0L33,64.82Z"/><path class="cls-14" d="M34.08,85.1a1,1,0,0,1-1-1L33,55.59a1,1,0,0,1,1-1l14.2-.06a1,1,0,0,1,1,1L49.27,84a1,1,0,0,1-1,1ZM35,56.58l.12,26.52,12.19,0-.11-26.52Z"/><path class="cls-14" d="M48.27,85a1,1,0,0,1-1-1l-.15-36.7a1,1,0,0,1,1-1l14.2-.06a1,1,0,0,1,1,1L63.47,84a1,1,0,0,1-1,1Zm.85-36.7L49.27,83,61.47,83l-.15-34.69Z"/><path class="cls-14" d="M62.47,85a1,1,0,0,1-1-1l-.2-46.57a1,1,0,0,1,1-1l14.2-.06a1,1,0,0,1,1,1l.21,46.58a1,1,0,0,1-1,1Zm.8-46.57L63.47,83l12.19-.06-.19-44.57Z"/><path class="cls-14" d="M76.67,84.92a1,1,0,0,1-1-1l-.24-54.59a1,1,0,0,1,1-1l14.19-.06a1,1,0,0,1,.71.29c.46.45.28-3.16.53,55.3a1,1,0,0,1-1,1Zm.76-54.6.23,52.6,12.2-.06-.23-52.59Z"/><path class="cls-14" d="M1,91a1,1,0,0,1-1-1l0-5.76a1,1,0,0,1,1-1l94-.41a1,1,0,0,1,1,1l0,5.76a1,1,0,0,1-1,1Zm1-5.77L2,89l92-.4,0-3.76Z"/><path class="cls-14" d="M79.55,22.35a2.17,2.17,0,0,1-2.14-2.53c.57-3.39.58-3.23.48-3.33l-2.31-2.24a2.17,2.17,0,0,1,1.18-3.7L80,10.07c.12,0,0,.16,1.54-3a2.17,2.17,0,0,1,3.89,0h0c1.55,3.11,1.43,2.95,1.56,3l3.19.45a2.17,2.17,0,0,1,1.22,3.7l-2.3,2.25c-.1.1-.08-.06.51,3.32a2.17,2.17,0,0,1-3.13,2.31c-3.09-1.61-2.91-1.55-3-1.49C80.39,22.18,80.26,22.35,79.55,22.35ZM83.44,7.87c-.17,0,0-.12-1.57,3a2.15,2.15,0,0,1-1.63,1.19c-3.53.53-3.27.45-3.32.59s-.14,0,2.36,2.41A2.16,2.16,0,0,1,79.91,17l-.53,3.18a.17.17,0,0,0,.25.17l2.84-1.51a2.21,2.21,0,0,1,2,0c3.06,1.59,2.91,1.57,3,1.48s.11.09-.5-3.34A2.18,2.18,0,0,1,87.65,15L90,12.76a.17.17,0,0,0-.1-.29L86.66,12A2.18,2.18,0,0,1,85,10.84C83.45,7.69,83.58,7.87,83.44,7.87Z"/></g></svg>