<svg xmlns="http://www.w3.org/2000/svg" viewBox="0 0 96 96"><defs><style>.cls-1{fill:#ffa64d;}.cls-2{fill:#ffca6e;}.cls-3{fill:#302d3d;}.cls-4{fill:#ffc088;}.cls-5{fill:#ffd9b5;}.cls-6{fill:#fff;}.cls-7{fill:#f09d65;}.cls-8{fill:#f0824b;}.cls-9{fill:#ffe391;}.cls-10{fill:#e9ecef;}.cls-11{fill:#4e69b5;}.cls-12{fill:#5d7db0;}.cls-13{fill:#f8f9fa;}.cls-14{fill:#fe4a55;}.cls-15{fill:#ff736e;}.cls-16{fill:#ffa68d;}.cls-17{fill:#fb8d74;}.cls-18{fill:#3f3c6a;}.cls-19{fill:#302856;}.cls-20{fill:#4e5088;}.cls-21{fill:#4e5fba;}.cls-22{fill:#fbc4ab;}.cls-23{fill:#6c96b5;}</style></defs><title>CEO</title><g id="CEO"><rect class="cls-1" x="11.93" y="19.26" width="49.34" height="64.85" rx="2.17"/><path class="cls-2" d="M16,28.87H58.53a0,0,0,0,1,0,0V68.21a0,0,0,0,1,0,0H16a1.32,1.32,0,0,1-1.32-1.32V30.18A1.32,1.32,0,0,1,16,28.87Z" transform="translate(85.14 11.94) rotate(90)"/><rect class="cls-1" x="23.33" y="19.26" width="26.54" height="64.85" rx="2.17"/><rect class="cls-2" x="29.69" y="19.26" width="13.82" height="51.93"/><path class="cls-3" d="M59.1,85.11h-45a3.17,3.17,0,0,1-3.16-3.17V21.42a3.17,3.17,0,0,1,3.16-3.16h45a3.17,3.17,0,0,1,3.17,3.16V81.94A3.17,3.17,0,0,1,59.1,85.11Zm-45-64.85a1.16,1.16,0,0,0-1.16,1.16V81.94a1.17,1.17,0,0,0,1.16,1.17h45a1.17,1.17,0,0,0,1.17-1.17V21.42a1.16,1.16,0,0,0-1.17-1.16Z"/><path class="cls-3" d="M47.7,85.11H25.5a3.17,3.17,0,0,1-3.17-3.17V21.42a3.17,3.17,0,0,1,3.17-3.16H47.7a3.17,3.17,0,0,1,3.17,3.16V81.94A3.17,3.17,0,0,1,47.7,85.11ZM25.5,20.26a1.16,1.16,0,0,0-1.17,1.16V81.94a1.17,1.17,0,0,0,1.17,1.17H47.7a1.18,1.18,0,0,0,1.17-1.17V21.42a1.17,1.17,0,0,0-1.17-1.16Z"/><path class="cls-3" d="M47.7,85.11H25.5a3.17,3.17,0,0,1-3.17-3.17V55.46a3.17,3.17,0,0,1,3.17-3.17H47.7a3.17,3.17,0,0,1,3.17,3.17V81.94A3.17,3.17,0,0,1,47.7,85.11ZM25.5,54.29a1.17,1.17,0,0,0-1.17,1.17V81.94a1.17,1.17,0,0,0,1.17,1.17H47.7a1.18,1.18,0,0,0,1.17-1.17V55.46a1.17,1.17,0,0,0-1.17-1.17Z"/><rect class="cls-4" x="1" y="70.47" width="94" height="5.63"/><rect class="cls-5" x="13.09" y="70.47" width="69.83" height="5.63"/><rect class="cls-6" x="32.28" y="72.18" width="31.44" height="2.21" rx="0.5"/><rect class="cls-4" x="5.25" y="76.1" width="85.5" height="12.2"/><rect class="cls-7" x="5.25" y="76.1" width="85.5" height="3.44"/><polygon class="cls-8" points="64.24 60.1 84.99 60.1 81.1 70.47 60.35 70.47 64.24 60.1"/><path class="cls-3" d="M81.1,71.47H60.35a1,1,0,0,1-.94-1.35l3.9-10.37a1,1,0,0,1,.93-.65H85a1,1,0,0,1,.94,1.35L82,70.82A1,1,0,0,1,81.1,71.47Zm-19.31-2H80.41l3.14-8.37H64.93Z"/><polygon class="cls-2" points="84.99 60.1 64.24 60.1 68.13 70.47 88.88 70.47 84.99 60.1"/><path class="cls-9" d="M70,66.89l-1-2.58a.9.9,0,0,1,.84-1.21H82.29a.89.89,0,0,1,.84.58l1,2.58a.89.89,0,0,1-.84,1.21H70.83A.9.9,0,0,1,70,66.89Z"/><path class="cls-10" d="M61.27,70.47H11.93L16.36,57a6.86,6.86,0,0,1,5.2-4.6l9.85-1.92H41.79l9.84,1.92A6.89,6.89,0,0,1,56.84,57Z"/><path class="cls-3" d="M61.27,71.47H11.93A1,1,0,0,1,11,70.16l4.43-13.52a7.88,7.88,0,0,1,6-5.27l9.85-1.92c.15,0-.5,0,10.57,0,.14,0-.63-.14,10,1.94a7.89,7.89,0,0,1,6,5.27l4.43,13.52A1,1,0,0,1,61.27,71.47Zm-48-2H59.89l-4-12.21a5.89,5.89,0,0,0-4.45-3.93l-9.75-1.9H31.51l-9.76,1.9a5.88,5.88,0,0,0-4.44,3.93Z"/><path class="cls-11" d="M21.57,52.35l5.27-1V70.47H11.93L16.36,57A6.86,6.86,0,0,1,21.57,52.35Z"/><path class="cls-11" d="M61.27,70.47H46.37V51.32l5.26,1A6.87,6.87,0,0,1,56.84,57Z"/><path class="cls-12" d="M46.37,70.47l3-15.5,1.68.33A3.88,3.88,0,0,1,54,57.89l4.2,12.58Z"/><path class="cls-12" d="M26.84,70.47l-3-15.5-1.68.33a3.88,3.88,0,0,0-2.94,2.59L15,70.47Z"/><path class="cls-13" d="M36.6,56.27l-4.73,2.35L30,53.31a1.7,1.7,0,0,1,.37-1.76l1.09-1.12Z"/><path class="cls-13" d="M36.6,56.27l4.72,2.35,1.93-5.31a1.71,1.71,0,0,0-.38-1.76l-1.08-1.12Z"/><polygon class="cls-14" points="38.78 61 34.42 61 33.4 57.86 36.6 56.27 39.79 57.86 38.78 61"/><polygon class="cls-14" points="40.65 70.47 32.55 70.47 34.42 61 38.78 61 40.65 70.47"/><polygon class="cls-15" points="38.15 70.47 35.05 70.47 35.76 61 37.43 61 38.15 70.47"/><polygon class="cls-16" points="41.79 42.94 41.79 50.43 36.6 56.28 31.41 50.43 31.41 42.94 41.79 42.94"/><path class="cls-17" d="M41.79,42.94v5.24a16.88,16.88,0,0,1-10.38,0V42.94Z"/><path class="cls-3" d="M35.85,56.94l-5.19-5.85c-.34-.38-.25,0-.25-8.15a1,1,0,0,1,1-1H41.79a1,1,0,0,1,1,1v7.49c0,.53.13.23-5.44,6.51A1,1,0,0,1,35.85,56.94Zm-3.44-6.89,4.19,4.72,4.19-4.72V43.94H32.41Zm9.38.38h0Z"/><path class="cls-18" d="M38.42,7.7H21.84a14.08,14.08,0,0,0,2.76,4.44,13.84,13.84,0,0,0-3.74,9.46v6.18H52.33V21.6A13.9,13.9,0,0,0,38.42,7.7Z"/><rect class="cls-19" x="20.86" y="22.76" width="31.46" height="5.02"/><path class="cls-20" d="M41.17,14.54H31.3a5.12,5.12,0,0,1-4.05-2l-1.11-1.43a.93.93,0,0,1,.74-1.5c12.14,0,12.74-.17,15,.5A2.27,2.27,0,0,1,41.17,14.54Z"/><rect class="cls-21" x="32.66" y="9.61" width="5.79" height="1.87" rx="0.93"/><path class="cls-3" d="M52.34,28.79H20.85a1,1,0,0,1-1-1V21.61a14.82,14.82,0,0,1,3.42-9.47A15,15,0,0,1,20.9,8.06a1,1,0,0,1,.93-1.36h16.6A14.93,14.93,0,0,1,53.34,21.61v6.18A1,1,0,0,1,52.34,28.79Zm-30.49-2H51.34V21.61A12.92,12.92,0,0,0,38.43,8.7h-15a13,13,0,0,0,1.95,2.77,1,1,0,0,1,0,1.35,12.92,12.92,0,0,0-3.47,8.79Z"/><path class="cls-16" d="M55.16,30.73a3,3,0,0,1-3,2.95H21a2.95,2.95,0,0,1,0-5.9H52.2A3,3,0,0,1,55.16,30.73Z"/><path class="cls-17" d="M51.94,27.78c0,4,0,4.87-.07,5.9H21.33c-.09-.9-.08-1-.08-5.9Z"/><path class="cls-3" d="M52.22,34.7H21a4,4,0,1,1,0-7.91H52.22a4,4,0,0,1,0,7.91ZM21,28.79a2,2,0,1,0,0,3.91H52.22a2,2,0,0,0,0-3.91Z"/><path class="cls-22" d="M50.32,27.78v4.46a13.73,13.73,0,1,1-27.45,0V27.78l2.54-3.24a5.08,5.08,0,0,0,1.08-3l.15-4a1.73,1.73,0,0,1,1.73-1.66,64.52,64.52,0,0,0,16.25,0,1.71,1.71,0,0,1,1.93,1.64l.15,4a5.15,5.15,0,0,0,1.08,3Z"/><polygon class="cls-23" points="24.68 51.74 21.41 59.69 24.68 59.69 22.86 66.45 26.84 70.47 26.84 51.32 24.68 51.74"/><polygon class="cls-23" points="48.53 51.74 51.8 59.69 48.53 59.69 50.35 66.45 46.37 70.47 46.37 51.32 48.53 51.74"/><path class="cls-3" d="M95,77.1H1a1,1,0,0,1-1-1V70.47a1,1,0,0,1,1-1H95a1,1,0,0,1,1,1V76.1A1,1,0,0,1,95,77.1Zm-93-2H94V71.47H2Z"/><path class="cls-3" d="M90.75,89.3H5.25a1,1,0,0,1-1-1V76.1a1,1,0,0,1,1-1h85.5a1,1,0,0,1,1,1V88.3A1,1,0,0,1,90.75,89.3Zm-84.5-2h83.5V77.1H6.25Z"/><path class="cls-3" d="M88.88,71.47H68.13a1,1,0,0,1-.93-.65L63.31,60.45a1,1,0,0,1,.93-1.35H85a1,1,0,0,1,.94.65l3.89,10.37A1,1,0,0,1,88.88,71.47Zm-20.06-2H87.44L84.3,61.1H65.68Z"/><path class="cls-3" d="M81.28,66.28H72.37a1,1,0,0,1,0-2h8.91a1,1,0,0,1,0,2Z"/><path class="cls-3" d="M26.84,71.47H11.93A1,1,0,0,1,11,70.16l4.43-13.52a7.87,7.87,0,0,1,6-5.27l5.27-1a1,1,0,0,1,1.2,1V70.47A1,1,0,0,1,26.84,71.47Zm-13.53-2H25.84V52.54c-4.76.93-4,.8-4.08.8a5.85,5.85,0,0,0-4.45,3.92Zm8.26-17.12h0Z"/><path class="cls-3" d="M61.27,71.47H46.37a1,1,0,0,1-1-1V51.32a1,1,0,0,1,1.2-1l5.25,1a7.89,7.89,0,0,1,6,5.27l4.43,13.52A1,1,0,0,1,61.27,71.47Zm-13.9-2H59.89l-4-12.21a5.86,5.86,0,0,0-4.45-3.92l-4.07-.8Z"/><path class="cls-3" d="M31.87,59.62a1,1,0,0,1-.94-.65L29,53.65a2.7,2.7,0,0,1,.59-2.79c1.14-1.18,1.26-1.42,1.83-1.43a1,1,0,0,1,.73.33l5.19,5.85A1,1,0,0,1,37,57.17C31.92,59.72,32.2,59.62,31.87,59.62Zm-.49-7.72-.34.35a.68.68,0,0,0-.15.72l1.54,4.26L35,56Z"/><path class="cls-3" d="M41.32,59.62c-.34,0-.09.08-5.17-2.45a1,1,0,0,1-.3-1.56L41,49.76a1,1,0,0,1,.72-.33c.57,0,.66.21,1.83,1.43a2.71,2.71,0,0,1,.6,2.79L42.26,59A1,1,0,0,1,41.32,59.62ZM38.21,56l2.55,1.27L42.31,53a.68.68,0,0,0-.16-.72l-.33-.35Z"/><path class="cls-3" d="M38.78,62H34.42a1,1,0,0,1-1-.69l-1-3.14A1,1,0,0,1,33,57l3.19-1.59a1,1,0,0,1,.89,0L40.24,57a1,1,0,0,1,.5,1.2l-1,3.14A1,1,0,0,1,38.78,62Zm-3.64-2h2.91l.52-1.63-2-1-2,1Z"/><path class="cls-3" d="M40.65,71.47H32.54a1,1,0,0,1-1-1.19l1.88-9.47a1,1,0,0,1,1-.81h4.36a1,1,0,0,1,1,.81l1.87,9.47A1,1,0,0,1,40.65,71.47Zm-6.89-2h5.67L38,62H35.24Z"/><path class="cls-3" d="M24.58,13.13a1,1,0,0,1-.73-1.68A15.31,15.31,0,0,1,26.64,9.1a1,1,0,0,1,1.09,1.68C25.38,12.31,25.44,13.13,24.58,13.13Z"/><path class="cls-3" d="M36.6,47A14.75,14.75,0,0,1,21.86,32.26V27.79c0-.46,0-.29,2.76-3.85a4.15,4.15,0,0,0,.87-2.38l.15-4a2.71,2.71,0,0,1,3-2.6,63,63,0,0,0,15.83,0,2.73,2.73,0,0,1,3.06,2.6l.15,4a4.16,4.16,0,0,0,.87,2.39l2.54,3.23c.29.37.22.18.22,5.09A14.75,14.75,0,0,1,36.6,47ZM23.86,28.14v4.12a12.74,12.74,0,0,0,25.48,0V28.14l-2.33-3a6.05,6.05,0,0,1-1.3-3.54c-.17-4.41-.08-4.27-.41-4.55s-.46-.12-3,.1a64.92,64.92,0,0,1-14-.27.73.73,0,0,0-.73.69l-.15,4a6.11,6.11,0,0,1-1.29,3.54Z"/><path class="cls-3" d="M42.08,29.44a1,1,0,0,1-1-1v-.61a1,1,0,0,1,2,0v.61A1,1,0,0,1,42.08,29.44Z"/><path class="cls-3" d="M43.48,26.13h-2.8a1,1,0,0,1,0-2h2.8a1,1,0,0,1,0,2Z"/><path class="cls-3" d="M31.11,29.44a1,1,0,0,1-1-1v-.61a1,1,0,0,1,2,0v.61A1,1,0,0,1,31.11,29.44Z"/><path class="cls-3" d="M32.51,26.13h-2.8a1,1,0,0,1,0-2h2.8a1,1,0,0,1,0,2Z"/><path class="cls-3" d="M33,38.44a1,1,0,0,1,.27-1.39,1,1,0,0,1,1.39.27,2.34,2.34,0,0,0,3.9,0,1,1,0,0,1,1.67,1.11A4.35,4.35,0,0,1,33,38.44Z"/><path class="cls-3" d="M43.48,20.36a1,1,0,0,1-1-.89l-.36-3.27a1,1,0,0,1,2-.21l.35,3.26A1,1,0,0,1,43.48,20.36Z"/><path class="cls-3" d="M26.13,71.17l-4-4a1,1,0,0,1-.26-1l1.48-5.5h-2a1,1,0,0,1-.92-1.38l3.26-8a1,1,0,0,1,.73-.6l2.16-.42a1,1,0,0,1,1.2,1V70.47A1,1,0,0,1,26.13,71.17Zm-2.16-5L25.84,68V52.54l-.44.08-2.5,6.07h1.78a1,1,0,0,1,1,1.26Z"/><path class="cls-3" d="M45.37,70.47V51.32a1,1,0,0,1,1.2-1l2.16.42a1,1,0,0,1,.73.6l3.26,8a1,1,0,0,1-.92,1.38h-2l1.48,5.5a1,1,0,0,1-.26,1l-4,4A1,1,0,0,1,45.37,70.47Zm2-17.93V68l1.87-1.89L47.57,60a1,1,0,0,1,1-1.26h1.78l-2.5-6.07Z"/></g></svg>