<svg id="Coffee_Break" data-name="Coffee Break" xmlns="http://www.w3.org/2000/svg" viewBox="0 0 96 96"><defs><style>.cls-1{fill:#fe4a55;}.cls-2{fill:#e61f34;}.cls-3{fill:#ff736e;}.cls-4{fill:#302d3d;}.cls-5{fill:#e9ecef;}.cls-6{fill:#fff;}.cls-7{fill:#5f83cf;}.cls-8{fill:#87b5e3;}.cls-9{fill:#b4c9e8;}.cls-10{fill:#d2ddf7;}.cls-11{fill:#6d7ea8;}.cls-12{fill:#495f9c;}</style></defs><title>Coffee Break</title><circle class="cls-1" cx="43.1" cy="43.1" r="42.09"/><path class="cls-2" d="M74.93,56.54a34.8,34.8,0,0,1-15.47,17,3.69,3.69,0,0,0-1.93,3.26A3.75,3.75,0,0,0,63,80.11,42.14,42.14,0,0,0,81.79,59.52a3.74,3.74,0,1,0-6.86-3Z"/><path class="cls-3" d="M11.28,29.66a34.7,34.7,0,0,1,15.47-17,3.69,3.69,0,0,0,1.92-3.26A3.74,3.74,0,0,0,23.16,6.1,42.12,42.12,0,0,0,4.41,26.68a3.74,3.74,0,1,0,6.87,3Z"/><path class="cls-4" d="M43.35,86.19a43.1,43.1,0,1,1,43.09-43.1A43.14,43.14,0,0,1,43.35,86.19ZM43.35,2A41.1,41.1,0,1,0,84.44,43.09,41.14,41.14,0,0,0,43.35,2Z"/><circle class="cls-5" cx="43.1" cy="43.1" r="34.58"/><path class="cls-4" d="M43.35,78.68A35.59,35.59,0,1,1,78.93,43.09,35.62,35.62,0,0,1,43.35,78.68Zm0-69.17A33.59,33.59,0,1,0,76.93,43.09,33.63,33.63,0,0,0,43.35,9.51Z"/><path class="cls-6" d="M43.1,73.8A30.7,30.7,0,1,1,73.8,43.1,30.73,30.73,0,0,1,43.1,73.8Z"/><rect class="cls-7" x="40.18" y="20.62" width="5.84" height="22.15" rx="2.71"/><rect class="cls-7" x="32.77" y="36.01" width="5.84" height="14.17" rx="2.71" transform="translate(-7.41 78.79) rotate(-90)"/><path class="cls-4" d="M44.18,43.77H42.51a3.1,3.1,0,0,1-3.09-3.09v-18a3.1,3.1,0,0,1,3.09-3.09h1.67a3.1,3.1,0,0,1,3.09,3.09v18A3.1,3.1,0,0,1,44.18,43.77ZM42.51,21.61a1.09,1.09,0,0,0-1.09,1.09v18a1.09,1.09,0,0,0,1.09,1.09h1.67a1.09,1.09,0,0,0,1.09-1.09v-18a1.09,1.09,0,0,0-1.09-1.09Z"/><path class="cls-4" d="M40.93,47h-10a3.1,3.1,0,0,1-3.09-3.09V42.26a3.1,3.1,0,0,1,3.09-3.09h10A3.1,3.1,0,0,1,44,42.26v1.67A3.1,3.1,0,0,1,40.93,47Zm-10-5.85a1.09,1.09,0,0,0-1.09,1.09v1.67A1.09,1.09,0,0,0,30.93,45h10A1.09,1.09,0,0,0,42,43.93V42.26a1.09,1.09,0,0,0-1.09-1.09Z"/><circle class="cls-8" cx="43.1" cy="43.1" r="5.16"/><path class="cls-9" d="M52.52,57.65H85.57a0,0,0,0,1,0,0v19a7.12,7.12,0,0,1-7.12,7.12H59.65a7.12,7.12,0,0,1-7.12-7.12v-19A0,0,0,0,1,52.52,57.65Z"/><path class="cls-10" d="M59.65,80.77a4.12,4.12,0,0,1-4.13-4.12v-16h27A20.12,20.12,0,0,1,62.45,80.77Z"/><path class="cls-6" d="M77,64.58A1.92,1.92,0,0,0,75.17,62H58.76a1.91,1.91,0,0,0-1.9,1.91V66a1.9,1.9,0,0,0,1.9,1.91H72.23A5,5,0,0,0,77,64.58Z"/><path class="cls-6" d="M56.86,72.07a2.36,2.36,0,0,0,2.36,2.39c2.44,0,2.91,0,3.75,0,3-.17,2.8-4.71-.21-4.71H59.22A2.36,2.36,0,0,0,56.86,72.07Z"/><rect class="cls-9" x="43.61" y="83.77" width="50.87" height="5.17" rx="1.18"/><rect class="cls-10" x="48.44" y="83.77" width="41.2" height="5.17" rx="1.18"/><path class="cls-11" d="M87.44,89,82,95H56.08l-5.43-6Z"/><polygon class="cls-12" points="87.44 88.95 84.75 91.95 53.34 91.95 50.65 88.95 87.44 88.95"/><path class="cls-4" d="M43.35,49.26a6.17,6.17,0,1,1,6.16-6.17A6.18,6.18,0,0,1,43.35,49.26Zm0-10.33a4.17,4.17,0,1,0,4.16,4.16A4.17,4.17,0,0,0,43.35,38.93Z"/><path class="cls-4" d="M43.35,17.4a1,1,0,0,1-1-1V13.79a1,1,0,0,1,2,0V16.4A1,1,0,0,1,43.35,17.4Z"/><path class="cls-4" d="M43.35,73.42a1,1,0,0,1-1-1V69.81a1,1,0,0,1,2,0v2.61A1,1,0,0,1,43.35,73.42Z"/><path class="cls-4" d="M16.64,44.11H14a1,1,0,0,1,0-2h2.61a1,1,0,0,1,0,2Z"/><path class="cls-4" d="M62.23,25.22a1,1,0,0,1-.71-1.7l1.85-1.85a1,1,0,0,1,1.41,0,1,1,0,0,1,0,1.42C62.8,25.07,62.77,25.22,62.23,25.22Z"/><path class="cls-4" d="M22.62,64.84a1,1,0,0,1-.71-1.71l1.84-1.84a1,1,0,0,1,1.42,1.41C23.19,64.68,23.15,64.84,22.62,64.84Z"/><path class="cls-4" d="M24.46,25.22c-.54,0-.59-.17-2.55-2.13a1,1,0,0,1,0-1.42,1,1,0,0,1,1.41,0l1.85,1.85A1,1,0,0,1,24.46,25.22Z"/><path class="cls-4" d="M78.18,84.77H59.38a8.13,8.13,0,0,1-8.12-8.12v-19a1,1,0,0,1,1-1H85.31a1,1,0,0,1,1,1v19A8.13,8.13,0,0,1,78.18,84.77ZM53.26,58.65v18a6.12,6.12,0,0,0,6.12,6.12h18.8a6.13,6.13,0,0,0,6.13-6.12v-18Z"/><path class="cls-4" d="M92,76.56H85.31a1,1,0,0,1-1-1V61.32a1,1,0,0,1,1-1H92a3.25,3.25,0,0,1,3.25,3.25v9.74A3.26,3.26,0,0,1,92,76.56Zm-5.66-2H92a1.25,1.25,0,0,0,1.25-1.25V63.57A1.25,1.25,0,0,0,92,62.32H86.31Z"/><path class="cls-4" d="M93,90H44.53a2.19,2.19,0,0,1-2.18-2.19V85a2.19,2.19,0,0,1,2.18-2.19H93A2.19,2.19,0,0,1,95.22,85v2.8A2.19,2.19,0,0,1,93,90ZM44.53,84.77a.19.19,0,0,0-.18.19v2.8c0,.28-3.27.19,48.69.19a.18.18,0,0,0,.18-.19V85C93.22,84.68,96.49,84.77,44.53,84.77Z"/><path class="cls-4" d="M81.75,96H55.81a1,1,0,0,1-.74-.33l-5.43-6A1,1,0,0,1,50.39,88H87.18a1,1,0,0,1,.74,1.67l-5.42,6A1,1,0,0,1,81.75,96ZM56.26,94h25l3.64-4H52.63Z"/><path class="cls-4" d="M68.78,52.72a1,1,0,0,1-1-1V49.54a3.92,3.92,0,0,1,3.91-3.91h8.59a1.29,1.29,0,0,0,0-2.57H64.4a3.59,3.59,0,1,1,0-7.17h3.72a1.59,1.59,0,0,0,1.59-1.58v-1a1,1,0,0,1,2,0v1a3.58,3.58,0,0,1-3.59,3.58H64.4a1.59,1.59,0,1,0,0,3.17H80.28a3.29,3.29,0,0,1,0,6.57H71.69a1.92,1.92,0,0,0-1.91,1.91v2.18A1,1,0,0,1,68.78,52.72Z"/></svg>