<svg xmlns="http://www.w3.org/2000/svg" viewBox="0 0 96 96"><defs><style>.cls-1{fill:#3f3c6a;}.cls-2{fill:#302856;}.cls-3{fill:#302d3d;}.cls-4{fill:#4e5088;}.cls-5{fill:#dee2e6;}.cls-6{fill:#e9ecef;}.cls-7{fill:#f8f9fa;}.cls-8{fill:#ffa68d;}.cls-9{fill:#fb8d74;}.cls-10{fill:#fbc4ab;}.cls-11{fill:#f09d65;}.cls-12{fill:#ffc088;}.cls-13{fill:#ffd9b5;}.cls-14{fill:#fff;}.cls-15{fill:#f0824b;}.cls-16{fill:#495f9c;}.cls-17{fill:#5d7db0;}</style></defs><title>Conference</title><g id="Conference"><path class="cls-1" d="M43.76,1h8.38A10.61,10.61,0,0,1,62.74,11.61v8.6a0,0,0,0,1,0,0H33.15a0,0,0,0,1,0,0v-8.6A10.61,10.61,0,0,1,43.76,1Z"/><rect class="cls-2" x="33.15" y="14.95" width="29.6" height="4.88"/><path class="cls-3" d="M62.75,21.21H33.15a1,1,0,0,1-1-1v-8.6A11.63,11.63,0,0,1,43.76,0h8.38A11.63,11.63,0,0,1,63.75,11.61v8.6A1,1,0,0,1,62.75,21.21Zm-28.6-2h27.6v-7.6A9.63,9.63,0,0,0,52.14,2H43.76a9.62,9.62,0,0,0-9.61,9.61Z"/><path class="cls-4" d="M42.82,6.24a1.08,1.08,0,0,1-.22-2.07,10.16,10.16,0,0,1,3.55-.64c3.33,0,4.87-.17,7.17.76a1,1,0,0,1-.26,1.93A53.82,53.82,0,0,1,42.82,6.24Z"/><path class="cls-5" d="M70.29,60.4c-.13-6.1.1-11.62-3.71-19.06A13.08,13.08,0,0,0,55,34.22H41.47a13.06,13.06,0,0,0-11.63,7.12c-3.84,7.5-3.59,13.3-3.71,19.06Z"/><path class="cls-3" d="M70.29,61.4H26.13a1,1,0,0,1-1-1c.13-6-.1-11.83,3.82-19.5a14,14,0,0,1,12.52-7.66H55a14,14,0,0,1,12.52,7.66c3.92,7.66,3.69,13.64,3.82,19.5A1,1,0,0,1,70.29,61.4Zm-43.13-2H69.27l-.08-3.76a32.13,32.13,0,0,0-3.5-13.85A12,12,0,0,0,55,35.22H41.47a12,12,0,0,0-10.74,6.57C27.16,48.77,27.27,54.26,27.16,59.4Z"/><path class="cls-6" d="M29.2,57.4l0-1.71a30.06,30.06,0,0,1,3.28-13,10,10,0,0,1,9-5.49H55a10,10,0,0,1,9,5.49,30.06,30.06,0,0,1,3.28,13l0,1.71Z"/><path class="cls-7" d="M36.72,57.4l0-1a18.17,18.17,0,0,1,2-7.85,6.07,6.07,0,0,1,5.42-3.31h8.14a6.07,6.07,0,0,1,5.42,3.31,18.17,18.17,0,0,1,2,7.85l0,1Z"/><path class="cls-8" d="M53.81,30.43v8.12a5.61,5.61,0,0,1-11.22,0V30.43Z"/><path class="cls-8" d="M65.66,22.58A2.69,2.69,0,0,1,63,25.44H33.44a2.78,2.78,0,0,1,0-5.55H63A2.68,2.68,0,0,1,65.66,22.58Z"/><path class="cls-9" d="M62.76,19.89c0,4.53,0,4.61-.07,5.55h-29c-.09-1-.06-1.17-.06-5.55Z"/><path class="cls-3" d="M62.63,26.44H33.26a3.78,3.78,0,0,1,0-7.55H62.63a3.78,3.78,0,1,1,0,7.55ZM33.26,20.89a1.78,1.78,0,0,0,0,3.55H62.63a1.78,1.78,0,1,0,0-3.55Z"/><path class="cls-9" d="M53.81,30.43v7.48a14.92,14.92,0,0,1-11.22,0V30.43Z"/><path class="cls-3" d="M48.21,45.16a6.61,6.61,0,0,1-6.61-6.61V30.43a1,1,0,0,1,1-1H53.81a1,1,0,0,1,1,1v8.12A6.61,6.61,0,0,1,48.21,45.16ZM43.6,31.43v7.12a4.61,4.61,0,1,0,9.21,0V31.43Z"/><path class="cls-10" d="M61.12,19.89v4.2a12.92,12.92,0,0,1-25.83,0v-4.2l2.39-3a4.88,4.88,0,0,0,1-2.79l.14-3.79a1.63,1.63,0,0,1,1.62-1.55,60.58,60.58,0,0,0,15.29,0,1.62,1.62,0,0,1,1.82,1.54l.14,3.79a4.75,4.75,0,0,0,1,2.79Z"/><path class="cls-11" d="M84.33,54.43v7.86a1.87,1.87,0,0,1-1.87,1.87H14.38a1.87,1.87,0,0,1-1.88-1.87V54.43a1.88,1.88,0,0,1,1.88-1.88H82.46A1.88,1.88,0,0,1,84.33,54.43Z"/><path class="cls-12" d="M84.33,54.43v4.1a1.87,1.87,0,0,1-1.87,1.87H14.38a1.88,1.88,0,0,1-1.88-1.87v-4.1a1.88,1.88,0,0,1,1.88-1.88H82.46A1.88,1.88,0,0,1,84.33,54.43Z"/><rect class="cls-13" x="31.43" y="52.55" width="33.98" height="11.61" rx="1.87"/><rect class="cls-14" x="38.45" y="56.31" width="19.94" height="4.09" rx="1.24"/><path class="cls-11" d="M82.46,64.16l-10,10.09H24.39c-8.51-8.58-6.24-6.3-10-10.09Z"/><polygon class="cls-15" points="82.46 64.16 79.47 67.17 17.37 67.17 14.38 64.16 82.46 64.16"/><path class="cls-16" d="M63.87,47.31h1.82A3.72,3.72,0,0,1,69.4,51v1.52a0,0,0,0,1,0,0H60.15a0,0,0,0,1,0,0V51A3.72,3.72,0,0,1,63.87,47.31Z"/><path class="cls-16" d="M35.85,51v1.52H26.6V51a3.72,3.72,0,0,1,3.71-3.72c1.75,0,2.54-.11,3.57.44A3.73,3.73,0,0,1,35.85,51Z"/><rect class="cls-12" x="24.39" y="74.25" width="48.06" height="20.75"/><rect class="cls-11" x="32.06" y="80.75" width="32.72" height="14.25"/><rect class="cls-15" x="42.79" y="76.02" width="11.25" height="26.72" transform="translate(-40.96 137.79) rotate(-90)"/><path class="cls-17" d="M33.88,49.15v.09A1.85,1.85,0,0,1,32,51.09H26.6a3.73,3.73,0,0,1,3.72-3.78h1.83A1.81,1.81,0,0,1,33.88,49.15Z"/><path class="cls-17" d="M67.43,49.15v.09a1.85,1.85,0,0,1-1.84,1.85H60.15a3.73,3.73,0,0,1,3.72-3.78H65.7A1.8,1.8,0,0,1,67.43,49.15Z"/><path class="cls-3" d="M82.46,65.17H14.38a2.88,2.88,0,0,1-2.88-2.88V54.43a2.88,2.88,0,0,1,2.88-2.88H82.46a2.88,2.88,0,0,1,2.88,2.88v7.86A2.88,2.88,0,0,1,82.46,65.17ZM14.38,53.55a.88.88,0,0,0-.88.88v7.86a.89.89,0,0,0,.88.88H82.46a.89.89,0,0,0,.88-.88V54.43a.88.88,0,0,0-.88-.88Z"/><path class="cls-3" d="M63.53,65.17H33.31a2.88,2.88,0,0,1-2.88-2.88V54.43a2.88,2.88,0,0,1,2.88-2.88H63.53a2.88,2.88,0,0,1,2.88,2.88v7.86A2.88,2.88,0,0,1,63.53,65.17ZM33.31,53.55a.88.88,0,0,0-.88.88v7.86a.89.89,0,0,0,.88.88H63.53a.89.89,0,0,0,.88-.88V54.43a.88.88,0,0,0-.88-.88Z"/><path class="cls-3" d="M72.45,75.25H24.39a1,1,0,0,1-.71-.3l-10-10.08a1,1,0,0,1,.71-1.7H82.46a1,1,0,0,1,.71,1.7L73.16,75A1,1,0,0,1,72.45,75.25Zm-47.64-2H72l8-8.08H16.78Z"/><path class="cls-3" d="M69.41,53.55H60.15a1,1,0,0,1-1-1V51a4.73,4.73,0,0,1,4.72-4.72h1.82A4.73,4.73,0,0,1,70.41,51v1.52A1,1,0,0,1,69.41,53.55Zm-8.26-2h7.26V51a2.72,2.72,0,0,0-2.72-2.72H63.87A2.72,2.72,0,0,0,61.15,51Z"/><path class="cls-3" d="M35.85,53.55H26.6a1,1,0,0,1-1-1V51a4.73,4.73,0,0,1,4.72-4.72h1.82A4.72,4.72,0,0,1,36.85,51v1.52A1,1,0,0,1,35.85,53.55Zm-8.25-2h7.25V51a2.72,2.72,0,0,0-2.71-2.72H30.32A2.72,2.72,0,0,0,27.6,51Z"/><path class="cls-3" d="M48,38A13.93,13.93,0,0,1,34,24.09v-4.2c0-.47,0-.37,2.61-3.66a3.8,3.8,0,0,0,.8-2.21l.14-3.78a2.62,2.62,0,0,1,2.93-2.5,58.62,58.62,0,0,0,14.86,0,2.62,2.62,0,0,1,2.94,2.5L58.45,14a3.81,3.81,0,0,0,.81,2.21c2.56,3.26,2.6,3.19,2.6,3.66v4.2A13.93,13.93,0,0,1,48,38ZM36,20.23v3.86a11.92,11.92,0,0,0,23.83,0V20.23l-2.18-2.77a5.77,5.77,0,0,1-1.23-3.37c-.15-4.07-.07-4-.36-4.23s-.38-.09-2.77.11A63.32,63.32,0,0,1,40.2,9.72a.62.62,0,0,0-.62.59l-.14,3.79a5.77,5.77,0,0,1-1.23,3.36Z"/><path class="cls-3" d="M53.1,21.5a1,1,0,0,1-1-1v-.58a1,1,0,0,1,2,0v.58A1,1,0,0,1,53.1,21.5Z"/><path class="cls-3" d="M54.42,18.39H51.79a1,1,0,0,1,0-2h2.63a1,1,0,0,1,0,2Z"/><path class="cls-3" d="M42.79,21.5a1,1,0,0,1-1-1v-.58a1,1,0,0,1,2,0v.58A1,1,0,0,1,42.79,21.5Z"/><path class="cls-3" d="M44.11,18.39H41.48a1,1,0,0,1,0-2h2.63a1,1,0,0,1,0,2Z"/><path class="cls-3" d="M44.51,29.93a1,1,0,0,1,1.66-1.12,2.14,2.14,0,0,0,3.57,0A1,1,0,1,1,51.4,29.9,4.14,4.14,0,0,1,44.51,29.93Z"/><path class="cls-3" d="M72.45,96H24.39a1,1,0,0,1-1-1V74.25a1,1,0,0,1,1-1H72.45a1,1,0,0,1,1,1V95A1,1,0,0,1,72.45,96ZM25.39,94H71.45V75.25H25.39Z"/><path class="cls-3" d="M64.78,96H32.06a1,1,0,0,1-1-1V80.75a1,1,0,0,1,1-1H64.78a1,1,0,0,1,1,1V95A1,1,0,0,1,64.78,96ZM33.06,94H63.78V81.75H33.06Z"/><path class="cls-3" d="M74,53.55a1,1,0,0,1-1-1V39.75a4.54,4.54,0,0,0-4.53-4.53,1,1,0,0,1,0-2A6.54,6.54,0,0,1,75,39.75v12.8A1,1,0,0,1,74,53.55Z"/></g></svg>