<svg xmlns="http://www.w3.org/2000/svg" viewBox="0 0 96 96"><defs><style>.cls-1{fill:#84aeea;}.cls-2{fill:#d2e7ff;}.cls-3{fill:#4d6dc7;}.cls-4{fill:#302d3d;}.cls-5{fill:#9a9c9e;}.cls-6{fill:#aeb0b2;}.cls-7{fill:#fff;}.cls-8{fill:#808284;}.cls-9{fill:#d1d3d4;}.cls-10{fill:#f1f2f2;}</style></defs><title>Copy Machine</title><g id="Copy_Machine" data-name="Copy Machine"><rect class="cls-1" x="33.93" y="9.43" width="59" height="7.06"/><rect class="cls-2" x="33.93" y="9.43" width="59" height="3.53"/><rect class="cls-3" x="33.93" y="9.43" width="23.69" height="7.06"/><path class="cls-4" d="M92.93,17.5h-59a1,1,0,0,1-1-1V9.43a1,1,0,0,1,1-1h59a1,1,0,0,1,1,1V16.5A1,1,0,0,1,92.93,17.5Zm-58-2h57V10.43h-57Z"/><path class="cls-4" d="M57.62,17.5H33.93a1,1,0,0,1-1-1V9.43a1,1,0,0,1,1-1H57.62a1,1,0,0,1,1,1V16.5A1,1,0,0,1,57.62,17.5Zm-22.69-2H56.62V10.43H34.93Z"/><path class="cls-5" d="M20.06,71.11H95a0,0,0,0,1,0,0V81.6a2.69,2.69,0,0,1-2.69,2.69H22.75a2.69,2.69,0,0,1-2.69-2.69V71.11A0,0,0,0,1,20.06,71.11Z"/><path class="cls-6" d="M29.64,71.11H85.43a0,0,0,0,1,0,0V81.6a2.69,2.69,0,0,1-2.69,2.69H32.33a2.69,2.69,0,0,1-2.69-2.69V71.11A0,0,0,0,1,29.64,71.11Z"/><path class="cls-7" d="M40.22,71.19H74.85a0,0,0,0,1,0,0v6.51a1.67,1.67,0,0,1-1.67,1.67H41.88a1.67,1.67,0,0,1-1.67-1.67V71.19A0,0,0,0,1,40.22,71.19Z"/><rect class="cls-8" x="24.52" y="84.28" width="8.2" height="5.56"/><rect class="cls-8" x="82.34" y="84.28" width="8.2" height="5.56"/><rect class="cls-5" x="24.52" y="87.06" width="8.2" height="2.78"/><rect class="cls-5" x="82.34" y="87.06" width="8.2" height="2.78"/><path class="cls-1" d="M45.42,22.33,40.69,8.55a3.53,3.53,0,0,0-3.34-2.39H25.66a3.53,3.53,0,0,0-3.53,3.53V29.24h70.8V24.51H48.46A3.22,3.22,0,0,1,45.42,22.33Z"/><rect class="cls-3" x="22.13" y="24.51" width="70.8" height="4.4"/><polygon class="cls-8" points="65.58 84.28 49.49 84.28 51.69 79.37 63.38 79.37 65.58 84.28"/><rect class="cls-6" x="20.06" y="57.93" width="74.94" height="13.18"/><rect class="cls-9" x="29.64" y="57.93" width="55.79" height="13.18"/><path class="cls-7" d="M40.22,57.93H74.85a0,0,0,0,1,0,0v6.51a1.67,1.67,0,0,1-1.67,1.67H41.88a1.67,1.67,0,0,1-1.67-1.67V57.93A0,0,0,0,1,40.22,57.93Z"/><polygon class="cls-8" points="65.58 71.11 49.49 71.11 51.69 66.2 63.38 66.2 65.58 71.11"/><path class="cls-3" d="M95,31.49V48.62H20.06V31.49a2.25,2.25,0,0,1,2.25-2.25H92.75A2.25,2.25,0,0,1,95,31.49Z"/><path class="cls-1" d="M85.43,31.49V48.62H20.06V31.49a2.25,2.25,0,0,1,2.25-2.25H83.18A2.25,2.25,0,0,1,85.43,31.49Z"/><path class="cls-2" d="M70.32,31v11a2.22,2.22,0,0,1-2.21,2.22h-48V31a1.74,1.74,0,0,1,1.73-1.73h46.8A1.74,1.74,0,0,1,70.32,31Z"/><path class="cls-2" d="M78.39,29.24H92.75A2.25,2.25,0,0,1,95,31.49v9.64a0,0,0,0,1,0,0H78.39a2.25,2.25,0,0,1-2.25-2.25V31.49A2.25,2.25,0,0,1,78.39,29.24Z"/><rect class="cls-3" x="83.76" y="29.89" width="3.62" height="10.59" transform="translate(50.38 120.76) rotate(-90)"/><rect class="cls-9" x="26.2" y="33.77" width="19.57" height="10.34" rx="1.22"/><rect class="cls-10" x="33.82" y="32.15" width="4.34" height="13.57" transform="translate(74.92 2.95) rotate(90)"/><rect class="cls-9" x="20.06" y="48.62" width="74.94" height="9.3"/><rect class="cls-7" x="31.36" y="49.77" width="25.82" height="7.01" rx="1.18"/><rect class="cls-5" x="70.32" y="48.62" width="24.68" height="9.3"/><rect class="cls-6" x="81.01" y="43.94" width="3.3" height="18.68" rx="0.65" transform="translate(29.39 135.94) rotate(-90)"/><circle class="cls-3" cx="32.43" cy="16.32" r="3.55"/><rect class="cls-5" x="8.63" y="36.99" width="11.43" height="43.18"/><path class="cls-9" d="M16.46,37V74.45a2.11,2.11,0,0,1-2.11,2.11H8.63V37Z"/><path class="cls-8" d="M20.06,54.28V80.17H8.63V76.56h5.72a2.11,2.11,0,0,0,2.11-2.11V54.28Z"/><path class="cls-4" d="M92.31,85.28H22.75a3.69,3.69,0,0,1-3.69-3.68V71.1a1,1,0,0,1,1-1H95a1,1,0,0,1,1,1V81.6A3.69,3.69,0,0,1,92.31,85.28ZM21.06,72.1v9.5a1.69,1.69,0,0,0,1.69,1.68H92.31A1.69,1.69,0,0,0,94,81.6V72.1Z"/><path class="cls-4" d="M32.73,90.84H24.52a1,1,0,0,1-1-1V84.28a1,1,0,0,1,1-1h8.21a1,1,0,0,1,1,1v5.56A1,1,0,0,1,32.73,90.84Zm-7.21-2h6.21V85.28H25.52Z"/><path class="cls-4" d="M90.54,90.84h-8.2a1,1,0,0,1-1-1V84.28a1,1,0,0,1,1-1h8.2a1,1,0,0,1,1,1v5.56A1,1,0,0,1,90.54,90.84Zm-7.2-2h6.2V85.28h-6.2Z"/><path class="cls-4" d="M92.93,30.24H22.13a1,1,0,0,1-1-1V9.69a4.53,4.53,0,0,1,4.53-4.53H37.35a4.53,4.53,0,0,1,4.29,3.06L46.36,22a2.23,2.23,0,0,0,2.1,1.5H92.93a1,1,0,0,1,1,1v4.73A1,1,0,0,1,92.93,30.24Zm-69.8-2h68.8V25.51H48.46a4.23,4.23,0,0,1-4-2.85h0L39.75,8.87a2.54,2.54,0,0,0-2.4-1.71H25.66a2.54,2.54,0,0,0-2.53,2.53Z"/><path class="cls-4" d="M65.58,85.28H49.49a1,1,0,0,1-.91-1.4L50.77,79a1,1,0,0,1,.92-.6H63.38a1,1,0,0,1,.91.6l2.2,4.91A1,1,0,0,1,65.58,85.28ZM51,83.28H64l-1.3-2.91H52.33Z"/><path class="cls-4" d="M95,72.1H20.06a1,1,0,0,1-1-1V57.93a1,1,0,0,1,1-1H95a1,1,0,0,1,1,1V71.1A1,1,0,0,1,95,72.1Zm-73.94-2H94V58.93H21.06Z"/><path class="cls-4" d="M65.58,72.1H49.49a1,1,0,0,1-.91-1.4l2.19-4.91a1,1,0,0,1,.92-.59H63.38a1,1,0,0,1,.91.59l2.2,4.91A1,1,0,0,1,65.58,72.1ZM51,70.1H64l-1.3-2.9H52.33Z"/><path class="cls-4" d="M95,49.62H20.06a1,1,0,0,1-1-1V31.49a3.26,3.26,0,0,1,3.25-3.25H92.75A3.26,3.26,0,0,1,96,31.49V48.62A1,1,0,0,1,95,49.62Zm-73.94-2H94V31.49a1.26,1.26,0,0,0-1.25-1.25H22.31a1.26,1.26,0,0,0-1.25,1.25Z"/><path class="cls-4" d="M95,42.13H78.39a3.25,3.25,0,0,1-3.25-3.25V31.49a3.25,3.25,0,0,1,3.25-3.25H92.75A3.26,3.26,0,0,1,96,31.49v9.64A1,1,0,0,1,95,42.13ZM78.39,30.24a1.26,1.26,0,0,0-1.25,1.25v7.39a1.25,1.25,0,0,0,1.25,1.25H94V31.49a1.26,1.26,0,0,0-1.25-1.25Z"/><path class="cls-4" d="M90.87,38H80.27a1,1,0,0,1-1-1V33.38a1,1,0,0,1,1-1h10.6a1,1,0,0,1,1,1V37A1,1,0,0,1,90.87,38Zm-9.6-2h8.6V34.38h-8.6Z"/><path class="cls-4" d="M44.56,45.1H27.42a2.22,2.22,0,0,1-2.22-2.22V35a2.22,2.22,0,0,1,2.22-2.22H44.56A2.21,2.21,0,0,1,46.77,35v7.89A2.21,2.21,0,0,1,44.56,45.1ZM27.42,34.77a.22.22,0,0,0-.22.22v7.89a.22.22,0,0,0,.22.22H44.56a.21.21,0,0,0,.21-.22V35a.21.21,0,0,0-.21-.22Z"/><path class="cls-4" d="M95,58.93H20.06a1,1,0,0,1-1-1V48.62a1,1,0,0,1,1-1H95a1,1,0,0,1,1,1v9.31A1,1,0,0,1,95,58.93Zm-73.94-2H94V49.62H21.06Z"/><path class="cls-4" d="M95,58.93H70.32a1,1,0,0,1-1-1V48.62a1,1,0,0,1,1-1H95a1,1,0,0,1,1,1v9.31A1,1,0,0,1,95,58.93Zm-23.68-2H94V49.62H71.32Z"/><path class="cls-4" d="M61.41,54.28H27.13a1,1,0,1,1,0-2H61.41a1,1,0,0,1,0,2Z"/><path class="cls-4" d="M52.32,34.77h-1a1,1,0,0,1,0-2h1a1,1,0,0,1,0,2Z"/><path class="cls-4" d="M57.53,34.77h-1a1,1,0,0,1,0-2h1a1,1,0,0,1,0,2Z"/><path class="cls-4" d="M62.74,34.77h-1a1,1,0,0,1,0-2h1a1,1,0,0,1,0,2Z"/><path class="cls-4" d="M52.32,39.94h-1a1,1,0,0,1,0-2h1a1,1,0,0,1,0,2Z"/><path class="cls-4" d="M57.53,39.94h-1a1,1,0,1,1,0-2h1a1,1,0,0,1,0,2Z"/><path class="cls-4" d="M62.74,39.94h-1a1,1,0,0,1,0-2h1a1,1,0,1,1,0,2Z"/><path class="cls-4" d="M52.32,45.1h-1a1,1,0,0,1,0-2h1a1,1,0,0,1,0,2Z"/><path class="cls-4" d="M57.53,45.1h-1a1,1,0,0,1,0-2h1a1,1,0,0,1,0,2Z"/><path class="cls-4" d="M62.74,45.1h-1a1,1,0,0,1,0-2h1a1,1,0,0,1,0,2Z"/><path class="cls-4" d="M36.54,25.51H28.33a1,1,0,0,1,0-2h8.21a1,1,0,0,1,0,2Z"/><path class="cls-4" d="M32.44,20.88A4.56,4.56,0,1,1,37,16.32,4.56,4.56,0,0,1,32.44,20.88Zm0-7.11A2.56,2.56,0,1,0,35,16.32,2.56,2.56,0,0,0,32.44,13.77Z"/><path class="cls-4" d="M20.06,81.17H8.63a1,1,0,0,1-1-1V37a1,1,0,0,1,1-1H20.06a1,1,0,0,1,1,1V80.17A1,1,0,0,1,20.06,81.17Zm-10.43-2h9.43V38H9.63Z"/><path class="cls-4" d="M8.63,78.16a1,1,0,0,1-.7-.3L.29,70.23a1,1,0,0,1,0-1.41,1,1,0,0,1,1.42,0l7.63,7.63A1,1,0,0,1,8.63,78.16Z"/><path class="cls-4" d="M8.63,65.72a1,1,0,0,1-.7-.29L.29,57.8a1,1,0,0,1,1.42-1.41L9.34,64A1,1,0,0,1,8.63,65.72Z"/><path class="cls-4" d="M8.63,53.29a1,1,0,0,1-.7-.29L.29,45.37A1,1,0,1,1,1.71,44l7.63,7.64A1,1,0,0,1,8.63,53.29Z"/></g></svg>