<svg xmlns="http://www.w3.org/2000/svg" viewBox="0 0 96 96"><defs><style>.cls-1{fill:#3f3c6a;}.cls-2{fill:#302856;}.cls-3{fill:#4e5088;}.cls-4{fill:#4e5fba;}.cls-5{fill:#302d3d;}.cls-6{fill:#dee2e6;}.cls-7{fill:#e9ecef;}.cls-8{fill:#f8f9fa;}.cls-9{fill:#fe4a55;}.cls-10{fill:#ff736e;}.cls-11{fill:#ffa68d;}.cls-12{fill:#fb8d74;}.cls-13{fill:#fbc4ab;}.cls-14{fill:#ced4da;}.cls-15{fill:#ffca6e;}.cls-16{fill:#ffe391;}.cls-17{fill:#fff;}.cls-18{fill:#f58437;}.cls-19{fill:#ff9d41;}</style></defs><title>Creative Idea</title><g id="Creative_Idea" data-name="Creative Idea"><path class="cls-1" d="M36,6.59H14.06a18.69,18.69,0,0,0,3.65,5.86A18.28,18.28,0,0,0,12.78,25V33.1H54.33V25A18.36,18.36,0,0,0,36,6.59Z"/><rect class="cls-2" x="12.78" y="26.47" width="41.55" height="6.63"/><path class="cls-3" d="M39.59,15.62h-13A6.75,6.75,0,0,1,21.21,13l-1.47-1.9a1.23,1.23,0,0,1,1-2c16.07,0,16.83-.22,19.79.67A3,3,0,0,1,39.59,15.62Z"/><path class="cls-4" d="M34.76,11.57H29.58a1.23,1.23,0,1,1,0-2.46h5.18a1.23,1.23,0,1,1,0,2.46Z"/><path class="cls-5" d="M54.33,34.1H12.78a1,1,0,0,1-1-1V25a19.29,19.29,0,0,1,4.6-12.5A19.57,19.57,0,0,1,13.13,7a1,1,0,0,1,.94-1.36H36A19.38,19.38,0,0,1,55.33,25V33.1A1,1,0,0,1,54.33,34.1Zm-40.55-2H53.33V25A17.38,17.38,0,0,0,36,7.59H15.59a17.42,17.42,0,0,0,2.86,4.18,1,1,0,0,1,0,1.36A17.31,17.31,0,0,0,13.78,25Z"/><path class="cls-6" d="M66.1,89.41H1L6.84,71.58a9.07,9.07,0,0,1,6.88-6.07l13-2.55H40.4l13,2.55a9.05,9.05,0,0,1,6.87,6.07Z"/><path class="cls-7" d="M4.53,89.41,10,72.6a5.77,5.77,0,0,1,4.38-3.87L27,66.24H40.08l12.67,2.49a5.79,5.79,0,0,1,4.4,3.88l5.44,16.8Z"/><path class="cls-8" d="M15.88,89.41l3.31-10.23a3.51,3.51,0,0,1,2.67-2.36c4.25-.83,7.08-1.52,11.7-1.52S41,76,45.25,76.82a3.51,3.51,0,0,1,2.67,2.36l3.32,10.23Z"/><path class="cls-5" d="M66.11,90.41H1A1,1,0,0,1,.05,89.1L5.89,71.27a10.07,10.07,0,0,1,7.63-6.74l13-2.54c.14,0-.88,0,13.88,0,.15,0-.82-.18,13.18,2.56a10,10,0,0,1,7.63,6.74L67.06,89.1A1,1,0,0,1,66.11,90.41Zm-63.73-2H64.73L59.31,71.89a8.07,8.07,0,0,0-6.11-5.4L40.3,64H26.8L13.91,66.49a8.07,8.07,0,0,0-6.12,5.4Z"/><path class="cls-8" d="M33.55,70.68l-6.23,3.1-2.54-7a2.25,2.25,0,0,1,.49-2.32L26.71,63Z"/><path class="cls-8" d="M33.55,70.68l6.24,3.1,2.54-7a2.23,2.23,0,0,0-.5-2.32L40.4,63Z"/><polygon class="cls-9" points="36.43 76.92 30.67 76.92 29.34 72.78 33.55 70.68 37.77 72.78 36.43 76.92"/><polygon class="cls-9" points="38.9 89.41 28.2 89.41 30.67 76.92 36.43 76.92 38.9 89.41"/><polygon class="cls-10" points="36.03 89.41 31.08 89.41 32.52 76.92 34.59 76.92 36.03 89.41"/><polygon class="cls-11" points="40.4 53.08 40.4 62.96 33.55 70.68 26.71 62.96 26.71 53.08 40.4 53.08"/><path class="cls-11" d="M58.07,37a3.91,3.91,0,0,1-3.91,3.89H12.94a3.9,3.9,0,1,1,0-7.8H54.16A3.91,3.91,0,0,1,58.07,37Z"/><path class="cls-12" d="M53.87,33.1c0,6.31,0,6.56-.1,7.8H13.33c-.13-1.23-.09-1.46-.09-7.8Z"/><path class="cls-5" d="M54.41,41.9H12.7A4.66,4.66,0,0,1,8,37.24v-.48A4.66,4.66,0,0,1,12.7,32.1H54.41a4.66,4.66,0,0,1,4.65,4.66v.48A4.66,4.66,0,0,1,54.41,41.9ZM12.7,34.1A2.67,2.67,0,0,0,10,36.76v.48A2.66,2.66,0,0,0,12.7,39.9H54.41a2.66,2.66,0,0,0,2.65-2.66v-.48a2.66,2.66,0,0,0-2.65-2.66Z"/><path class="cls-12" d="M40.4,53.08v6.2a21.39,21.39,0,0,1-13.69,0v-6.2Z"/><path class="cls-5" d="M32.81,71.34,26,63.63c-.36-.4-.25.12-.25-10.55a1,1,0,0,1,1-1H40.4a1,1,0,0,1,1,1V63c0,.53.31,0-7.1,8.37A1,1,0,0,1,32.81,71.34Zm-5.1-8.75,5.84,6.58,5.85-6.58V54.08H27.71ZM40.4,63h0Z"/><path class="cls-13" d="M51.68,33.1V39a18.13,18.13,0,0,1-36.26,0V33.1l3.36-4.27a6.78,6.78,0,0,0,1.43-3.91l.2-5.31a2.27,2.27,0,0,1,2.27-2.19,84.2,84.2,0,0,0,21.46,0,2.26,2.26,0,0,1,2.55,2.17l.2,5.31a6.78,6.78,0,0,0,1.43,3.91Z"/><path class="cls-11" d="M87.73,63.79A6,6,0,0,1,82.41,67H69.74l.8-2.62a5.83,5.83,0,0,1,5.56-4.09c10.36,0,9.77-.05,10.28.11A2.38,2.38,0,0,1,87.73,63.79Z"/><path class="cls-13" d="M86.18,62.23a6.06,6.06,0,0,1-5.32,3.17H70.22l.32-1.07a5.83,5.83,0,0,1,5.56-4.09c10.36,0,9.77-.05,10.28.11A2.41,2.41,0,0,1,86.18,62.23Z"/><path class="cls-5" d="M82.42,68H69.75a1,1,0,0,1-1-1.29L69.6,64a6.81,6.81,0,0,1,6.52-4.81h9.55a3.38,3.38,0,0,1,2.94,5.05A7.11,7.11,0,0,1,82.42,68ZM71.11,66H82.42a5,5,0,0,0,4.38-2.54,1.38,1.38,0,0,0-1.13-2.18H76.12a4.82,4.82,0,0,0-4.61,3.4Zm16.63-2.16h0Z"/><path class="cls-6" d="M76,73.68,69,89.41H52.15L64.23,69.68C64.33,69.68,64.09,69.63,76,73.68Z"/><path class="cls-7" d="M78.89,67.31c-1.3,2.9-.81,1.79-2.85,6.37l-11.8-4c2.19-3.61,1.34-2.22,3.72-6.09Z"/><path class="cls-8" d="M72.2,72.38l-7.6,17H52.15c12.78-20.89,11-18,12.09-19.73Z"/><path class="cls-14" d="M77.79,69.76,77,71.58l-5.74-2a1,1,0,0,1-.62-1.27,1,1,0,0,1,1.28-.61Z"/><path class="cls-15" d="M86,38.51c-1.89,1.92-1.62,4.06-1.62,6.76H73.44V42.54a5.66,5.66,0,0,0-1.58-4,10,10,0,1,1,14.12,0Z"/><path class="cls-16" d="M86,38.51a5.47,5.47,0,0,0-1.33,2.23,12.25,12.25,0,0,1-11.47,0,5.31,5.31,0,0,0-1.32-2.25,10,10,0,1,1,14.12,0Z"/><path class="cls-17" d="M84.21,30.47a3.53,3.53,0,0,1,0,5c-.28.31-.57.63-.82,1a5,5,0,0,1-4,2.06h-.62a5.65,5.65,0,0,1-4.62-2.2,8.81,8.81,0,0,0-.73-.83,3.57,3.57,0,0,1,.18-5.05A7.47,7.47,0,0,1,84.21,30.47Z"/><path class="cls-17" d="M75.16,27.86a7.34,7.34,0,0,1,7.54,0A1.16,1.16,0,0,0,84.1,26a7.4,7.4,0,0,0-10.37,0A1.17,1.17,0,0,0,75.16,27.86Z"/><path class="cls-18" d="M84.36,45.27v3a2.15,2.15,0,0,1-2.15,2.15H75.6a2.16,2.16,0,0,1-2.16-2.15v-3Z"/><path class="cls-19" d="M84.36,45.27v.58A2.15,2.15,0,0,1,82.21,48H75.6a2.16,2.16,0,0,1-2.16-2.15v-.58Z"/><path class="cls-15" d="M81.82,50.39v2a1.35,1.35,0,0,1-1.35,1.36H77.34A1.36,1.36,0,0,1,76,52.42v-2Z"/><rect class="cls-19" x="75.98" y="50.39" width="5.84" height="1.7"/><path class="cls-5" d="M27.32,74.78a1,1,0,0,1-.94-.66l-2.54-7a3.25,3.25,0,0,1,.71-3.35C26.12,62.14,26.11,62,26.73,62a1,1,0,0,1,.72.33L34.3,70a1,1,0,0,1-.3,1.56C27.23,75,27.65,74.78,27.32,74.78Zm-.64-10.34-.69.71a1.25,1.25,0,0,0-.27,1.28l2.16,6,4.06-2Z"/><path class="cls-5" d="M39.79,74.78c-.34,0,.08.16-6.68-3.2a1,1,0,0,1-.3-1.56l6.84-7.72a1,1,0,0,1,.73-.33c.62.05.6.16,2.17,1.79a3.23,3.23,0,0,1,.72,3.35l-2.54,7A1,1,0,0,1,39.79,74.78Zm-4.62-4.41,4.06,2,2.16-6a1.23,1.23,0,0,0-.28-1.28l-.68-.71Z"/><path class="cls-5" d="M36.43,77.92H30.68a1,1,0,0,1-1-.69l-1.33-4.15a1,1,0,0,1,.5-1.2l4.22-2.1a1.06,1.06,0,0,1,.89,0l4.21,2.1a1,1,0,0,1,.51,1.2l-1.34,4.15A1,1,0,0,1,36.43,77.92Zm-5-2h4.3l.85-2.63-3-1.49-3,1.49Z"/><path class="cls-5" d="M38.9,90.41H28.21a1,1,0,0,1-1-1.19l2.46-12.5a1,1,0,0,1,1-.8h5.75a1,1,0,0,1,1,.8l2.47,12.5A1,1,0,0,1,38.9,90.41Zm-9.48-2h8.26L35.61,77.92H31.5Z"/><path class="cls-5" d="M33.56,58.12A19.16,19.16,0,0,1,14.42,39V33.1c0-.48,0-.3,3.57-4.89a5.71,5.71,0,0,0,1.22-3.33l.2-5.31a3.26,3.26,0,0,1,3.66-3.13,82.5,82.5,0,0,0,21,0,3.27,3.27,0,0,1,3.68,3.12l.19,5.31a5.91,5.91,0,0,0,1.22,3.34l3.36,4.26c.3.39.21.25.21,6.52A19.15,19.15,0,0,1,33.56,58.12ZM16.42,33.45V39a17.13,17.13,0,0,0,34.26,0V33.45l-3.14-4A7.75,7.75,0,0,1,45.9,25l-.2-5.31a1.31,1.31,0,0,0-.45-.92c-.63-.53-.84-.23-4.19.05a84.09,84.09,0,0,1-18.21-.34,1.27,1.27,0,0,0-1.44,1.21L21.21,25a7.88,7.88,0,0,1-1.64,4.49Z"/><path class="cls-5" d="M40.79,35a1,1,0,0,1-1-1v-.81a1,1,0,0,1,2,0V34A1,1,0,0,1,40.79,35Z"/><path class="cls-5" d="M42.64,30.59H39a1,1,0,0,1,0-2h3.69a1,1,0,0,1,0,2Z"/><path class="cls-5" d="M26.32,35a1,1,0,0,1-1-1v-.81a1,1,0,0,1,2,0V34A1,1,0,0,1,26.32,35Z"/><path class="cls-5" d="M28.16,30.59H24.47a1,1,0,0,1,0-2h3.69a1,1,0,0,1,0,2Z"/><path class="cls-5" d="M29.06,47a1,1,0,1,1,1.66-1.12,3.41,3.41,0,0,0,5.68,0,1,1,0,0,1,1.67,1.1A5.42,5.42,0,0,1,29.06,47Z"/><path class="cls-5" d="M69,90.41H52.16a1,1,0,0,1-.86-1.52L63.39,69.15a1,1,0,0,1,1.17-.42l11.82,4A1,1,0,0,1,77,74.09L70,89.82A1,1,0,0,1,69,90.41Zm-15.1-2H68.39l6.3-14.13-10-3.4Z"/><path class="cls-5" d="M76.05,74.69c-.24,0,.74.3-12.12-4.07a1,1,0,0,1-.53-1.46c2.42-4,1.27-2.11,3.72-6.09a1,1,0,0,1,1.17-.42l10.94,3.71a1,1,0,0,1,.59,1.36L77,74.09A1,1,0,0,1,76.05,74.69Zm-10.3-5.56,9.76,3.32,2-4.55-9.13-3.1C66.67,67.63,67.32,66.56,65.75,69.13Z"/><path class="cls-5" d="M77.4,71.67c-.25,0,.17.12-6.15-2.09a1,1,0,1,1,.66-1.88l5.82,2A1,1,0,0,1,77.4,71.67Z"/><path class="cls-5" d="M84.36,46.27H73.44a1,1,0,0,1-1-1V42.54a4.66,4.66,0,0,0-1.29-3.29A11,11,0,0,1,78.48,20.5c9.94-.44,15.21,11.69,8.21,18.72a4.82,4.82,0,0,0-1.33,3.4v2.65A1,1,0,0,1,84.36,46.27Zm-9.92-2h8.92V42.62a6.83,6.83,0,0,1,1.91-4.81A9,9,0,0,0,78.55,22.5a9.12,9.12,0,0,0-8.62,9.22,8.9,8.9,0,0,0,2.63,6.11,6.64,6.64,0,0,1,1.88,4.71Z"/><path class="cls-5" d="M82.21,51.39H75.6a3.16,3.16,0,0,1-3.16-3.15v-3a1,1,0,0,1,1-1H84.36a1,1,0,0,1,1,1v3A3.15,3.15,0,0,1,82.21,51.39Zm-7.77-5.12v2a1.15,1.15,0,0,0,1.16,1.15h6.61a1.14,1.14,0,0,0,1.15-1.15v-2Z"/><path class="cls-5" d="M80.47,54.78H77.34A2.36,2.36,0,0,1,75,52.42v-2a1,1,0,0,1,1-1h5.84a1,1,0,0,1,1,1v2A2.36,2.36,0,0,1,80.47,54.78ZM77,51.39v1a.36.36,0,0,0,.36.36h3.13a.36.36,0,0,0,.35-.36v-1Z"/><path class="cls-5" d="M78.9,18.19a1,1,0,0,1-1-1V14.66a1,1,0,1,1,2,0v2.53A1,1,0,0,1,78.9,18.19Z"/><path class="cls-5" d="M70,21.42a1,1,0,0,1-.76-.36l-1.63-1.93a1,1,0,1,1,1.53-1.29l1.63,1.94A1,1,0,0,1,70,21.42Z"/><path class="cls-5" d="M65.3,29.61c-.14,0,0,0-2.67-.46a1,1,0,0,1,.35-2l2.49.44a1,1,0,0,1-.17,2Z"/><path class="cls-5" d="M64.75,40.18a1,1,0,0,1-.5-1.87l2.19-1.26a1,1,0,0,1,1,1.73C65.07,40.15,65.1,40.18,64.75,40.18Z"/><path class="cls-5" d="M93.06,40.18c-.36,0-.29,0-2.69-1.4a1,1,0,1,1,1-1.73l2.19,1.26A1,1,0,0,1,93.06,40.18Z"/><path class="cls-5" d="M92.51,29.61a1,1,0,0,1-.17-2l2.49-.44a1,1,0,0,1,.34,2C92.51,29.62,92.64,29.61,92.51,29.61Z"/><path class="cls-5" d="M87.79,21.42A1,1,0,0,1,87,19.78l1.62-1.94a1,1,0,0,1,1.54,1.29l-1.63,1.93A1,1,0,0,1,87.79,21.42Z"/><path class="cls-5" d="M78.9,46.27a1,1,0,0,1-1-1V32.06a1,1,0,0,1,2,0V45.27A1,1,0,0,1,78.9,46.27Z"/><path class="cls-5" d="M76.72,35.25a3.19,3.19,0,1,1,3.18-3.19A3.19,3.19,0,0,1,76.72,35.25Zm0-4.37a1.19,1.19,0,1,0,1.18,1.18A1.18,1.18,0,0,0,76.72,30.88Z"/><path class="cls-5" d="M81.09,35.25a3.19,3.19,0,1,1,3.19-3.19A3.19,3.19,0,0,1,81.09,35.25Zm0-4.37a1.19,1.19,0,1,0,1.19,1.18A1.19,1.19,0,0,0,81.09,30.88Z"/></g></svg>