<svg xmlns="http://www.w3.org/2000/svg" viewBox="0 0 96 96"><defs><style>.cls-1{fill:#ffc541;}.cls-2{fill:#ffe391;}.cls-3{fill:#302d3d;}.cls-4{fill:#faaf78;}.cls-5{fill:#e67d69;}.cls-6{fill:#f5966e;}.cls-7{fill:#f5c387;}.cls-8{fill:#f5a56e;}.cls-9{fill:#1cac87;}.cls-10{fill:#fff;}.cls-11{fill:#2bc58c;}</style></defs><title>Crowdfunding</title><g id="Crowdfunding"><circle class="cls-1" cx="62.5" cy="53.52" r="12.61"/><circle class="cls-2" cx="62.5" cy="53.52" r="9.6"/><path class="cls-3" d="M62.67,67.12a13.61,13.61,0,1,1,13.61-13.6A13.61,13.61,0,0,1,62.67,67.12Zm0-25.21A11.61,11.61,0,1,0,74.28,53.52,11.62,11.62,0,0,0,62.67,41.91Z"/><path class="cls-3" d="M62.67,59.26H60.3a1,1,0,0,1,0-2h2.37a1.37,1.37,0,1,0,0-2.74,3.38,3.38,0,0,1,0-6.75h2.38a1,1,0,0,1,0,2H62.67a1.38,1.38,0,0,0,0,2.75,3.37,3.37,0,1,1,0,6.74Z"/><path class="cls-3" d="M62.67,61.52a1,1,0,0,1-1-1V58.26a1,1,0,0,1,2,0v2.26A1,1,0,0,1,62.67,61.52Z"/><path class="cls-3" d="M62.67,49.77a1,1,0,0,1-1-1V46.52a1,1,0,1,1,2,0v2.25A1,1,0,0,1,62.67,49.77Z"/><path class="cls-4" d="M48,53.52V93.41H13.64a2.79,2.79,0,0,1-2.79-2.79V53.52Z"/><path class="cls-5" d="M85.15,53.52v37.1a2.79,2.79,0,0,1-2.79,2.79H48V53.52Z"/><path class="cls-6" d="M81.49,53.52V87a2.79,2.79,0,0,1-2.79,2.79H48V53.52Z"/><polygon class="cls-5" points="85.15 73.46 55.7 73.46 48 59.98 48 53.52 85.15 53.52 85.15 73.46"/><polygon class="cls-6" points="10.85 73.46 40.3 73.46 48 59.98 48 53.52 10.85 53.52 10.85 73.46"/><circle class="cls-1" cx="33.42" cy="36.79" r="12.61"/><path class="cls-2" d="M33.42,46.39a9.61,9.61,0,1,1,9.6-9.6A9.61,9.61,0,0,1,33.42,46.39Z"/><circle class="cls-1" cx="58.63" cy="15.2" r="12.61"/><circle class="cls-2" cx="58.63" cy="15.2" r="9.6"/><path class="cls-6" d="M32.28,89.75H48v3.66H23.05L29,90.52A7.45,7.45,0,0,1,32.28,89.75Z"/><rect class="cls-7" x="23.13" y="78.19" width="12.6" height="7.55" rx="1.22"/><path class="cls-3" d="M48.17,94.41H13.81A3.79,3.79,0,0,1,10,90.62V53.52a1,1,0,0,1,1-1H48.17a1,1,0,0,1,1,1V93.41A1,1,0,0,1,48.17,94.41ZM12,54.52v36.1a1.79,1.79,0,0,0,1.78,1.79H47.17V54.52Z"/><path class="cls-3" d="M82.54,94.41H48.17a1,1,0,0,1-1-1V53.52a1,1,0,0,1,1-1H85.32a1,1,0,0,1,1,1v37.1A3.79,3.79,0,0,1,82.54,94.41Zm-33.37-2H82.54a1.79,1.79,0,0,0,1.78-1.79V54.52H49.17Z"/><path class="cls-3" d="M79.31,88.57H66.75a1,1,0,0,1-1-1V82.62a1,1,0,0,1,1-1H79.31a1,1,0,0,1,1,1v4.95A1,1,0,0,1,79.31,88.57Zm-11.56-2H78.31V83.62H67.75Z"/><path class="cls-3" d="M33.59,50.39a13.61,13.61,0,1,1,13.6-13.6A13.62,13.62,0,0,1,33.59,50.39Zm0-25.21a11.61,11.61,0,1,0,11.6,11.61A11.63,11.63,0,0,0,33.59,25.18Z"/><path class="cls-3" d="M33.59,42.53H31.22a1,1,0,0,1,0-2h2.37a1.37,1.37,0,1,0,0-2.74,3.37,3.37,0,0,1,0-6.74H36a1,1,0,1,1,0,2H33.59a1.37,1.37,0,0,0,0,2.74,3.37,3.37,0,0,1,0,6.74Z"/><path class="cls-3" d="M33.59,44.79a1,1,0,0,1-1-1V41.53a1,1,0,0,1,2,0v2.26A1,1,0,0,1,33.59,44.79Z"/><path class="cls-3" d="M33.59,33.05a1,1,0,0,1-1-1V29.79a1,1,0,0,1,2,0v2.26A1,1,0,0,1,33.59,33.05Z"/><path class="cls-3" d="M58.8,28.8A13.61,13.61,0,1,1,72.4,15.2,13.62,13.62,0,0,1,58.8,28.8Zm0-25.21A11.61,11.61,0,1,0,70.4,15.2,11.63,11.63,0,0,0,58.8,3.59Z"/><path class="cls-3" d="M58.8,20.94H56.43a1,1,0,0,1,0-2H58.8a1.37,1.37,0,1,0,0-2.74,3.37,3.37,0,1,1,0-6.74h2.37a1,1,0,0,1,0,2H58.8a1.37,1.37,0,1,0,0,2.74,3.37,3.37,0,1,1,0,6.74Z"/><path class="cls-3" d="M58.8,23.2a1,1,0,0,1-1-1V19.94a1,1,0,1,1,2,0V22.2A1,1,0,0,1,58.8,23.2Z"/><path class="cls-3" d="M58.8,11.46a1,1,0,0,1-1-1V8.2a1,1,0,1,1,2,0v2.26A1,1,0,0,1,58.8,11.46Z"/><path class="cls-3" d="M71.4,31.92a1,1,0,0,1-1-1V15.2a1,1,0,0,1,2,0V30.92A1,1,0,0,1,71.4,31.92Z"/><path class="cls-3" d="M50.07,38.33a1,1,0,0,1-1-1V32.05a1,1,0,0,1,2,0v5.28A1,1,0,0,1,50.07,38.33Z"/><path class="cls-3" d="M21,22.07a1,1,0,0,1-1-1V15.2a1,1,0,0,1,2,0v5.87A1,1,0,0,1,21,22.07Z"/><path class="cls-3" d="M30.66,17.9a1,1,0,0,1-1-1V5.23a1,1,0,0,1,2,0V16.9A1,1,0,0,1,30.66,17.9Z"/><path class="cls-3" d="M39.33,19.13a1,1,0,0,1-1-1V16a1,1,0,1,1,2,0v2.11A1,1,0,0,1,39.33,19.13Z"/><path class="cls-3" d="M62.67,36.16a1,1,0,0,1-1-1V32.42a1,1,0,0,1,2,0v2.74A1,1,0,0,1,62.67,36.16Z"/><path class="cls-3" d="M75.28,41.07a1,1,0,0,1-1-1V34.24a1,1,0,0,1,2,0v5.83A1,1,0,0,1,75.28,41.07Z"/><path class="cls-6" d="M94.83,70.47H57.68c-2.07-3.63-.19-.35-9.68-16.95H85.15Z"/><polygon class="cls-8" points="89.53 67.87 56.2 67.87 48 53.52 81.34 53.52 89.53 67.87"/><path class="cls-9" d="M94.83,70.47H57.68l-3.44-6H91.39Z"/><path class="cls-3" d="M95,71.47H57.86A1,1,0,0,1,57,71L47.31,54a1,1,0,0,1,.86-1.49H85.32a1,1,0,0,1,.87.5l9.68,17A1,1,0,0,1,95,71.47Zm-36.57-2H93.28L84.74,54.52H49.9Z"/><path class="cls-3" d="M95,71.47H57.86A1,1,0,0,1,57,71l-3.45-6a1,1,0,0,1,.87-1.5H91.56a1,1,0,0,1,.87.5l3.44,6A1,1,0,0,1,95,71.47Zm-36.57-2H93.28l-2.3-4H56.14Z"/><path class="cls-4" d="M48,53.52,38.32,70.47H1.17c2.33-4.09.46-.8,9.68-16.95Z"/><polygon class="cls-7" points="43.18 53.52 35.25 67.4 2.92 67.4 10.85 53.52 43.18 53.52"/><path class="cls-10" d="M31.49,57.55l.68-1.18A.89.89,0,0,0,31.4,55H17.69a1.07,1.07,0,0,0-.92.54l-1,1.74a.48.48,0,0,0,.42.72H30.65A1,1,0,0,0,31.49,57.55Z"/><path class="cls-11" d="M41.76,64.44l-3.44,6H1.17c2.1-3.69,1.31-2.31,3.44-6Z"/><path class="cls-3" d="M38.49,71.47H1.34A1,1,0,0,1,.47,70l9.69-17a1,1,0,0,1,.87-.5H48.17A1,1,0,0,1,49,54L39.36,71A1,1,0,0,1,38.49,71.47Zm-35.42-2H37.91l8.54-14.95H11.61Z"/><path class="cls-3" d="M38.49,71.47H1.34A1,1,0,0,1,.47,70l3.45-6a1,1,0,0,1,.87-.5H41.94a1,1,0,0,1,.86,1.5l-3.44,6A1,1,0,0,1,38.49,71.47Zm-35.42-2H37.91l2.3-4H5.37Z"/></g></svg>