<svg xmlns="http://www.w3.org/2000/svg" viewBox="0 0 96 96"><defs><style>.cls-1{fill:#86abda;}.cls-2{fill:#b3c4f3;}.cls-3{fill:#dbddf3;}.cls-4{fill:#5c86c7;}.cls-5{fill:#6d7ea8;}.cls-6{fill:#fff;}.cls-7{fill:#302d3d;}.cls-8{fill:#3f3c6a;}.cls-9{fill:#302856;}.cls-10{fill:#4e5088;}.cls-11{fill:#4e5fba;}.cls-12{fill:#dee2e6;}.cls-13{fill:#e9ecef;}.cls-14{fill:#f8f9fa;}.cls-15{fill:#fe4a55;}.cls-16{fill:#ff736e;}.cls-17{fill:#ffa68d;}.cls-18{fill:#fb8d74;}.cls-19{fill:#fbc4ab;}</style></defs><title>Employee</title><g id="Employee"><rect class="cls-1" x="2.33" y="1.14" width="56.93" height="93.86"/><rect class="cls-2" x="11.57" y="2.88" width="38.44" height="45.95" rx="3.86" transform="translate(56.65 -4.94) rotate(90)"/><rect class="cls-3" x="23.75" y="1.23" width="14.08" height="24.89" rx="2.09" transform="translate(44.47 -17.12) rotate(90)"/><rect class="cls-2" x="26.37" y="43.85" width="8.84" height="24.89" rx="3.86" transform="translate(87.1 25.51) rotate(90)"/><rect class="cls-4" x="2.33" y="79.08" width="56.93" height="6.82"/><rect class="cls-5" x="2.33" y="90.45" width="56.93" height="4.55"/><rect class="cls-6" x="33.67" y="41.28" width="6.45" height="7.59"/><rect class="cls-6" x="21.46" y="41.28" width="6.45" height="7.59"/><rect class="cls-6" x="33.67" y="25.64" width="6.45" height="7.59"/><rect class="cls-6" x="21.46" y="25.64" width="6.45" height="7.59"/><rect class="cls-6" x="33.67" y="10" width="6.45" height="7.59"/><rect class="cls-6" x="45.89" y="10" width="6.45" height="7.59"/><rect class="cls-6" x="21.46" y="10" width="6.45" height="7.59"/><rect class="cls-6" x="9.25" y="41.28" width="6.45" height="7.59"/><rect class="cls-6" x="33.67" y="56.93" width="6.45" height="7.59"/><rect class="cls-6" x="45.89" y="56.93" width="6.45" height="7.59"/><rect class="cls-6" x="21.46" y="56.93" width="6.45" height="7.59"/><rect class="cls-6" x="9.25" y="56.93" width="6.45" height="7.59"/><rect class="cls-6" x="33.67" y="71.94" width="6.45" height="7.59"/><rect class="cls-6" x="45.89" y="71.94" width="6.45" height="7.59"/><rect class="cls-6" x="21.46" y="71.94" width="6.45" height="7.59"/><rect class="cls-6" x="9.25" y="71.94" width="6.45" height="7.59"/><rect class="cls-6" x="9.25" y="25.64" width="6.45" height="7.59"/><rect class="cls-6" x="9.25" y="10" width="6.45" height="7.59"/><path class="cls-7" d="M59.3,96h-57a1,1,0,0,1-1-1V1a1,1,0,0,1,1-1h57a1,1,0,0,1,1,1V95A1,1,0,0,1,59.3,96Zm-56-2h55V2h-55Z"/><path class="cls-7" d="M59.3,96h-57a1,1,0,0,1-1-1V85.89a1,1,0,0,1,1-1h57a1,1,0,0,1,1,1V95A1,1,0,0,1,59.3,96Zm-56-2h55V86.89h-55Z"/><path class="cls-7" d="M40.14,49.8H33.68a1,1,0,0,1-1-1V41.2a1,1,0,0,1,1-1h6.46a1,1,0,0,1,1,1v7.6A1,1,0,0,1,40.14,49.8Zm-5.46-2h4.46V42.2H34.68Z"/><path class="cls-7" d="M27.91,49.8H21.45a1,1,0,0,1-1-1V41.2a1,1,0,0,1,1-1h6.46a1,1,0,0,1,1,1v7.6A1,1,0,0,1,27.91,49.8Zm-5.46-2h4.46V42.2H22.45Z"/><path class="cls-7" d="M40.14,34.14H33.68a1,1,0,0,1-1-1V25.53a1,1,0,0,1,1-1h6.46a1,1,0,0,1,1,1v7.61A1,1,0,0,1,40.14,34.14Zm-5.46-2h4.46V26.53H34.68Z"/><path class="cls-7" d="M27.91,34.14H21.45a1,1,0,0,1-1-1V25.53a1,1,0,0,1,1-1h6.46a1,1,0,0,1,1,1v7.61A1,1,0,0,1,27.91,34.14Zm-5.46-2h4.46V26.53H22.45Z"/><path class="cls-7" d="M40.14,18.47H33.68a1,1,0,0,1-1-1V9.87a1,1,0,0,1,1-1h6.46a1,1,0,0,1,1,1v7.6A1,1,0,0,1,40.14,18.47Zm-5.46-2h4.46v-5.6H34.68Z"/><path class="cls-7" d="M52.37,18.47H45.91a1,1,0,0,1-1-1V9.87a1,1,0,0,1,1-1h6.46a1,1,0,0,1,1,1v7.6A1,1,0,0,1,52.37,18.47Zm-5.46-2h4.46v-5.6H46.91Z"/><path class="cls-7" d="M27.91,18.47H21.45a1,1,0,0,1-1-1V9.87a1,1,0,0,1,1-1h6.46a1,1,0,0,1,1,1v7.6A1,1,0,0,1,27.91,18.47Zm-5.46-2h4.46v-5.6H22.45Z"/><path class="cls-7" d="M15.68,49.8H9.22a1,1,0,0,1-1-1V41.2a1,1,0,0,1,1-1h6.46a1,1,0,0,1,1,1v7.6A1,1,0,0,1,15.68,49.8Zm-5.46-2h4.46V42.2H10.22Z"/><path class="cls-7" d="M40.14,65.47H33.68a1,1,0,0,1-1-1v-7.6a1,1,0,0,1,1-1h6.46a1,1,0,0,1,1,1v7.6A1,1,0,0,1,40.14,65.47Zm-5.46-2h4.46v-5.6H34.68Z"/><path class="cls-7" d="M52.37,65.47H45.91a1,1,0,0,1-1-1v-7.6a1,1,0,0,1,1-1h6.46a1,1,0,0,1,1,1v7.6A1,1,0,0,1,52.37,65.47Zm-5.46-2h4.46v-5.6H46.91Z"/><path class="cls-7" d="M27.91,65.47H21.45a1,1,0,0,1-1-1v-7.6a1,1,0,0,1,1-1h6.46a1,1,0,0,1,1,1v7.6A1,1,0,0,1,27.91,65.47Zm-5.46-2h4.46v-5.6H22.45Z"/><path class="cls-7" d="M15.68,65.47H9.22a1,1,0,0,1-1-1v-7.6a1,1,0,0,1,1-1h6.46a1,1,0,0,1,1,1v7.6A1,1,0,0,1,15.68,65.47Zm-5.46-2h4.46v-5.6H10.22Z"/><path class="cls-7" d="M40.14,80.53H33.68a1,1,0,0,1-1-1v-7.6a1,1,0,0,1,1-1h6.46a1,1,0,0,1,1,1v7.6A1,1,0,0,1,40.14,80.53Zm-5.46-2h4.46v-5.6H34.68Z"/><path class="cls-7" d="M52.37,80.53H45.91a1,1,0,0,1-1-1v-7.6a1,1,0,0,1,1-1h6.46a1,1,0,0,1,1,1v7.6A1,1,0,0,1,52.37,80.53Zm-5.46-2h4.46v-5.6H46.91Z"/><path class="cls-7" d="M27.91,80.53H21.45a1,1,0,0,1-1-1v-7.6a1,1,0,0,1,1-1h6.46a1,1,0,0,1,1,1v7.6A1,1,0,0,1,27.91,80.53Zm-5.46-2h4.46v-5.6H22.45Z"/><path class="cls-7" d="M15.68,80.53H9.22a1,1,0,0,1-1-1v-7.6a1,1,0,0,1,1-1h6.46a1,1,0,0,1,1,1v7.6A1,1,0,0,1,15.68,80.53Zm-5.46-2h4.46v-5.6H10.22Z"/><path class="cls-7" d="M15.68,34.14H9.22a1,1,0,0,1-1-1V25.53a1,1,0,0,1,1-1h6.46a1,1,0,0,1,1,1v7.61A1,1,0,0,1,15.68,34.14Zm-5.46-2h4.46V26.53H10.22Z"/><path class="cls-7" d="M15.68,18.47H9.22a1,1,0,0,1-1-1V9.87a1,1,0,0,1,1-1h6.46a1,1,0,0,1,1,1v7.6A1,1,0,0,1,15.68,18.47Zm-5.46-2h4.46v-5.6H10.22Z"/><path class="cls-8" d="M65.42,17.25H44.86a17.31,17.31,0,0,0,3.43,5.5,17.16,17.16,0,0,0-4.64,11.73v7.66h39V34.48A17.23,17.23,0,0,0,65.42,17.25Z"/><rect class="cls-9" x="43.65" y="35.91" width="39" height="6.22"/><path class="cls-10" d="M68.83,25.73H56.59a6.37,6.37,0,0,1-5-2.48l-1.37-1.78a1.16,1.16,0,0,1,.92-1.86c15.09,0,15.8-.21,18.58.63A2.81,2.81,0,0,1,68.83,25.73Z"/><path class="cls-11" d="M64.29,21.93H59.43a1.16,1.16,0,1,1,0-2.32h4.86a1.16,1.16,0,0,1,0,2.32Z"/><path class="cls-7" d="M82.68,43.14h-39a1,1,0,0,1-1-1V34.48A18.12,18.12,0,0,1,47,22.75a18.35,18.35,0,0,1-3-5.14,1,1,0,0,1,.93-1.36H65.45A18.25,18.25,0,0,1,83.68,34.48v7.66A1,1,0,0,1,82.68,43.14Zm-38-2h37V34.48A16.25,16.25,0,0,0,65.45,18.25h-19a16.35,16.35,0,0,0,2.63,3.82,1,1,0,0,1,0,1.36,16.21,16.21,0,0,0-4.36,11Z"/><path class="cls-12" d="M93.71,95H32.6l5.48-16.74a8.51,8.51,0,0,1,6.45-5.7l12.2-2.39H69.58l12.2,2.39a8.51,8.51,0,0,1,6.45,5.7Z"/><path class="cls-13" d="M90.33,95H35.71l5.23-15.81a5.51,5.51,0,0,1,4.17-3.69L57,73.17H69.3L81.21,75.5a5.51,5.51,0,0,1,4.17,3.69Z"/><path class="cls-14" d="M47.31,95l3-9.08a3.15,3.15,0,0,1,2.39-2.11l6.84-1.34h7.05l6.84,1.34a3.15,3.15,0,0,1,2.39,2.11L78.66,95Z"/><path class="cls-14" d="M63.15,77.41,57.3,80.33l-2.38-6.59a2.07,2.07,0,0,1,.46-2.17l1.35-1.4Z"/><path class="cls-14" d="M63.15,77.41,69,80.33l2.38-6.59a2.07,2.07,0,0,0-.46-2.17l-1.35-1.4Z"/><polygon class="cls-15" points="65.86 83.27 60.45 83.27 59.2 79.38 63.16 77.41 67.11 79.38 65.86 83.27"/><polygon class="cls-15" points="68.17 95 58.13 95 60.45 83.27 65.86 83.27 68.17 95"/><polygon class="cls-16" points="65.13 95 61.18 95 62.09 83.27 64.22 83.27 65.13 95"/><path class="cls-7" d="M93.71,96H32.6a1,1,0,0,1-1-1.31l5.48-16.75a9.53,9.53,0,0,1,7.21-6.36l12.2-2.39c.15,0-.59,0,13,0,.15,0-.74-.16,12.39,2.41a9.51,9.51,0,0,1,7.21,6.36l5.48,16.75A1,1,0,0,1,93.71,96ZM34,94H92.33l-5-15.43a7.53,7.53,0,0,0-5.69-5l-12.1-2.37H56.83L44.72,73.54a7.53,7.53,0,0,0-5.69,5Z"/><path class="cls-7" d="M82.66,96h-39a1,1,0,0,1-1-1.26l2.43-9.06a1,1,0,1,1,1.94.52L45,94H81.35l-2.1-7.8a1,1,0,0,1,1.94-.52l2.43,9.06A1,1,0,0,1,82.66,96Z"/><path class="cls-7" d="M57.3,81.33a1,1,0,0,1-.94-.66L54,74.08a3.13,3.13,0,0,1,.68-3.21c1.54-1.59,1.51-1.67,2.09-1.7a1,1,0,0,1,.73.34l6.42,7.24a1,1,0,0,1-.3,1.56C57.24,81.48,57.63,81.33,57.3,81.33Zm-.6-9.68-.6.61a1.11,1.11,0,0,0-.24,1.14l2,5.53,3.68-1.83Z"/><path class="cls-7" d="M69,81.33c-.33,0,.08.15-6.3-3a1,1,0,0,1-.3-1.56l6.42-7.24a1,1,0,0,1,.73-.34c.6,0,.64.21,2.09,1.7a3.13,3.13,0,0,1,.68,3.21L70,80.67A1,1,0,0,1,69,81.33ZM64.77,77.1l3.68,1.83,2-5.53a1.09,1.09,0,0,0-.24-1.14l-.6-.61Z"/><path class="cls-7" d="M65.86,84.27H60.45a1,1,0,0,1-1-.69l-1.25-3.89a1,1,0,0,1,.5-1.2l4-2a1,1,0,0,1,.89,0l4,2a1,1,0,0,1,.5,1.2l-1.25,3.89A1,1,0,0,1,65.86,84.27Zm-4.68-2h3.95l.77-2.38-2.74-1.36-2.74,1.36Z"/><path class="cls-7" d="M68.17,96h-10a1,1,0,0,1-1-1.19l2.32-11.73a1,1,0,0,1,1-.81h5.41a1,1,0,0,1,1,.81l2.32,11.73A1,1,0,0,1,68.17,96Zm-8.82-2H67L65,84.27H61.28Z"/><polygon class="cls-17" points="69.59 60.89 69.59 70.17 63.16 77.41 56.73 70.17 56.73 60.89 69.59 60.89"/><path class="cls-17" d="M86.17,45.8a3.66,3.66,0,0,1-3.66,3.66H43.81a3.66,3.66,0,0,1,0-7.32h38.7A3.66,3.66,0,0,1,86.17,45.8Z"/><path class="cls-18" d="M69.59,60.89v5.73a19.81,19.81,0,0,1-12.86,0V60.89Z"/><path class="cls-7" d="M62.43,78.08,56,70.84c-.36-.4-.25.07-.25-10a1,1,0,0,1,1-1H69.61a1,1,0,0,1,1,1v9.28c0,.54.26.09-6.68,7.91A1,1,0,0,1,62.43,78.08Zm-4.67-8.29,5.42,6.12,5.43-6.12v-7.9H57.76Zm11.85.38h0Z"/><path class="cls-18" d="M82.18,42.14c0,5,0,6-.09,7.32H44.23c-.12-1.12-.09-1.25-.09-7.32Z"/><path class="cls-7" d="M82.53,50.46H43.83a4.66,4.66,0,1,1,0-9.32h38.7a4.66,4.66,0,0,1,0,9.32Zm-38.7-7.32a2.66,2.66,0,1,0,0,5.32h38.7a2.66,2.66,0,0,0,0-5.32Z"/><path class="cls-19" d="M80.17,42.14v5.53a17,17,0,1,1-34,0V42.14l3.15-4a6.39,6.39,0,0,0,1.34-3.68l.19-5a2.12,2.12,0,0,1,2.13-2,79.11,79.11,0,0,0,20.15,0,2.13,2.13,0,0,1,2.39,2l.19,5A6.39,6.39,0,0,0,77,38.13Z"/><path class="cls-7" d="M48.3,23.74a1,1,0,0,1-.73-1.68A18,18,0,0,1,51,19.19a1,1,0,1,1,1.09,1.67C49.19,22.74,49.21,23.74,48.3,23.74Z"/><path class="cls-7" d="M63.19,65.69a18,18,0,0,1-18-18V42.14c0-.47-.09-.23,3.37-4.63a5.36,5.36,0,0,0,1.13-3.09l.18-5a3.13,3.13,0,0,1,3.5-3,77.88,77.88,0,0,0,19.66,0,3.13,3.13,0,0,1,3.52,3l.19,5a5.29,5.29,0,0,0,1.13,3.09l3.15,4c.29.37.21,0,.21,6.15A18,18,0,0,1,63.19,65.69Zm-16-23.21v5.19a16,16,0,1,0,32,0V42.48l-2.94-3.73a7.43,7.43,0,0,1-1.55-4.26l-.19-5a1.06,1.06,0,0,0-.4-.81c-.56-.48-.74-.21-3.88.06a79.83,79.83,0,0,1-17.12-.32,1.13,1.13,0,0,0-1.28,1.08l-.18,5a7.45,7.45,0,0,1-1.56,4.25Z"/><path class="cls-7" d="M70,43.94a1,1,0,0,1-1-1v-.76a1,1,0,1,1,2,0v.76A1,1,0,0,1,70,43.94Z"/><path class="cls-7" d="M71.71,39.84H68.24a1,1,0,0,1,0-2h3.47a1,1,0,0,1,0,2Z"/><path class="cls-7" d="M56.39,43.94a1,1,0,0,1-1-1v-.76a1,1,0,1,1,2,0v.76A1,1,0,0,1,56.39,43.94Z"/><path class="cls-7" d="M58.12,39.84H54.66a1,1,0,0,1,0-2h3.46a1,1,0,1,1,0,2Z"/><path class="cls-7" d="M58.92,55.19a1,1,0,1,1,1.65-1.12,3.15,3.15,0,0,0,5.24,0,1,1,0,1,1,1.66,1.1A5.14,5.14,0,0,1,58.92,55.19Z"/><path class="cls-7" d="M71.71,32.69a1,1,0,0,1-1-.89l-.43-4.05a1,1,0,0,1,.88-1.1,1,1,0,0,1,1.1.89l.44,4A1,1,0,0,1,71.71,32.69Z"/></g></svg>