<svg xmlns="http://www.w3.org/2000/svg" viewBox="0 0 96 96"><defs><style>.cls-1{fill:#74383d;}.cls-2{fill:#88515b;}.cls-3{fill:#92606f;}.cls-4{fill:#302d3d;}.cls-5{fill:#fe4a55;}.cls-6{fill:#dee2e6;}.cls-7{fill:#e9ecef;}.cls-8{fill:#f8f9fa;}.cls-9{fill:#ced4da;}.cls-10{fill:#ffa68d;}.cls-11{fill:#3f3c6a;}.cls-12{fill:#302856;}.cls-13{fill:#fb8d74;}.cls-14{fill:#fbc4ab;}.cls-15{fill:#4e5088;}.cls-16{fill:#4e69b5;}.cls-17{fill:#5d7db0;}.cls-18{fill:#ffbaab;}.cls-19{fill:#faa697;}.cls-20{fill:#ffd3c4;}</style></defs><title>Exchange</title><g id="Exchange"><path class="cls-1" d="M89.33,26.26a3,3,0,0,0,1-.16V50.57H57.67V26.1C58.29,26.33,55.77,26.26,89.33,26.26Z"/><path class="cls-2" d="M90.29,17.36v3.25a8.57,8.57,0,0,0-2.8-.16l-.42-4.38a4,4,0,0,0-1.34-2.58l-2-1.73a2.63,2.63,0,0,0-3-.32l-7.19,3.88a5.53,5.53,0,0,1-2.61.66H62.62a2.11,2.11,0,0,0-2.11,1.86c0,.29,0,.43,0,2.61-2,0-2.22-.05-2.82.16V17.36a16.31,16.31,0,1,1,32.61,0Z"/><path class="cls-3" d="M77.67,9.69c-6,3.21-5.9,3.29-6.73,3.29H63.63a1.43,1.43,0,0,1-1.25-2.12A13.29,13.29,0,0,1,77,4.4,2.86,2.86,0,0,1,77.67,9.69Z"/><path class="cls-4" d="M90.29,51.57H57.68a1,1,0,0,1-1-1V17.36a17.31,17.31,0,1,1,34.61,0V50.57A1,1,0,0,1,90.29,51.57Zm-31.61-2H89.29V17.36a15.31,15.31,0,1,0-30.61,0Z"/><path class="cls-5" d="M18.27,23l4.3,4.3a2.21,2.21,0,0,0,3.13,0L30,23a2.31,2.31,0,0,0,.21-3.1A2.21,2.21,0,0,0,27,19.75l-.61.6v.37A10.9,10.9,0,0,1,37.3,9.82l-.53.52a2.3,2.3,0,0,0-.32,2.93,2.22,2.22,0,0,0,3.38.29c4.67-4.68,4.81-4.66,5-5.52a2.23,2.23,0,0,0-.13-1.29c-.23-.56-.16-.4-4.87-5.1a2.21,2.21,0,0,0-3.25.13,2.3,2.3,0,0,0,.22,3.1l.51.51a15,15,0,0,0-15.38,15h0l-.6-.6a2.22,2.22,0,0,0-3.38.28A2.31,2.31,0,0,0,18.27,23Z"/><path class="cls-5" d="M83.32,73,79,68.73a2.22,2.22,0,0,0-3.14,0L71.6,73a2.31,2.31,0,0,0-.21,3.1,2.21,2.21,0,0,0,3.25.13l.6-.6v-.37A10.9,10.9,0,0,1,64.3,86.18l.52-.52a2.3,2.3,0,0,0,.33-2.93,2.23,2.23,0,0,0-3.38-.29C57.1,87.12,57,87.1,56.78,88a2.23,2.23,0,0,0,.13,1.29c.23.56.16.4,4.86,5.1A2.21,2.21,0,0,0,65,94.22a2.31,2.31,0,0,0-.21-3.1l-.51-.51a15,15,0,0,0,15.37-15h0l.61.6A2.21,2.21,0,0,0,83.65,76,2.29,2.29,0,0,0,83.32,73Z"/><path class="cls-6" d="M48.43,95H1L5.26,82a6.6,6.6,0,0,1,5-4.42l9.47-1.85h10l9.47,1.85a6.58,6.58,0,0,1,5,4.42Z"/><path class="cls-7" d="M4.23,95,8.11,82.93a3.62,3.62,0,0,1,2.73-2.41L20,78.73h9.39l9.18,1.79a3.6,3.6,0,0,1,2.73,2.41L45.15,95Z"/><path class="cls-8" d="M12.63,95l2.28-7.12a2.15,2.15,0,0,1,1.61-1.42l5.42-1h5.53l5.42,1a2.13,2.13,0,0,1,1.61,1.42L36.76,95Z"/><path class="cls-4" d="M48.45,96H1a1,1,0,0,1-1-1.31l4.26-13a7.63,7.63,0,0,1,5.77-5.09l9.46-1.85c.14,0-.49,0,10.17,0,.14,0-.44-.1,9.66,1.87a7.61,7.61,0,0,1,5.76,5.09l4.26,13A1,1,0,0,1,48.45,96ZM2.4,94H47.07L43.24,82.32A5.61,5.61,0,0,0,39,78.56l-9.37-1.83H19.84l-9.37,1.83a5.61,5.61,0,0,0-4.25,3.76Z"/><path class="cls-9" d="M12.44,88.23,10.62,95H8.54l2-7.29a1,1,0,1,1,1.93.52Z"/><path class="cls-9" d="M40.89,95H38.82L37,88.23a1,1,0,0,1,1.94-.52Z"/><path class="cls-8" d="M24.72,81.35l-4.55,2.26L18.32,78.5a1.65,1.65,0,0,1,.36-1.69l1.05-1.08Z"/><path class="cls-8" d="M24.72,81.35l4.54,2.26,1.85-5.11a1.65,1.65,0,0,0-.36-1.69L29.7,75.73Z"/><polygon class="cls-10" points="29.7 68.53 29.7 75.73 24.72 81.35 19.73 75.73 19.73 68.53 29.7 68.53"/><path class="cls-11" d="M23,34.66h3.35A13.46,13.46,0,0,1,39.85,48.12V54.3a0,0,0,0,1,0,0H9.58a0,0,0,0,1,0,0V48.12A13.46,13.46,0,0,1,23,34.66Z"/><rect class="cls-12" x="9.58" y="49.31" width="30.27" height="4.99"/><path class="cls-4" d="M39.87,55.3H9.6a1,1,0,0,1-1-1V47.41A13.77,13.77,0,0,1,22.35,33.66h4.76A13.77,13.77,0,0,1,40.87,47.41V54.3A1,1,0,0,1,39.87,55.3Zm-29.27-2H38.87V47.41A11.77,11.77,0,0,0,27.11,35.66H22.35A11.76,11.76,0,0,0,10.6,47.41Z"/><path class="cls-10" d="M42.57,56.73a2.75,2.75,0,0,1-2.75,2.92H9.61a2.84,2.84,0,0,1,0-5.67H39.82A2.75,2.75,0,0,1,42.57,56.73Z"/><path class="cls-13" d="M39.6,54c0,4.63,0,4.71-.06,5.67H9.9c-.09-1-.07-1.19-.07-5.67Z"/><path class="cls-4" d="M39.75,60.66h-30a3.85,3.85,0,0,1,0-7.69h30a3.85,3.85,0,0,1,0,7.69ZM9.71,55a1.85,1.85,0,0,0,0,3.69h30a1.85,1.85,0,0,0,0-3.69Z"/><path class="cls-13" d="M29.7,68.53v4.1a15.08,15.08,0,0,1-10,0v-4.1Z"/><path class="cls-4" d="M24,82,19,76.4c-.35-.4-.26-.12-.26-7.87a1,1,0,0,1,1-1h10a1,1,0,0,1,1,1v7.2c0,.53.16.2-5.24,6.29A1,1,0,0,1,24,82Zm-3.24-6.67,4,4.5,4-4.5V69.53h-8Zm9,.38h0Z"/><path class="cls-14" d="M37.92,54v4.3a13.21,13.21,0,1,1-26.41,0V54L14,50.86A4.93,4.93,0,0,0,15,48l.14-3.87a1.65,1.65,0,0,1,1.66-1.59,62.13,62.13,0,0,0,15.63,0,1.65,1.65,0,0,1,1.86,1.58L34.44,48a4.85,4.85,0,0,0,1,2.85Z"/><path class="cls-15" d="M19.38,41.14A2.13,2.13,0,0,1,18.9,37a11.69,11.69,0,0,1,4-.71c3.17,0,5.09-.21,7.72.85A2,2,0,0,1,30,41.12,56.42,56.42,0,0,1,19.38,41.14Z"/><path class="cls-7" d="M95,60.42H53l3.66-11a11.58,11.58,0,0,1,8.26-7.59l4.68-1.14h8.84l4.69,1.14a11.62,11.62,0,0,1,8.26,7.59Z"/><path class="cls-8" d="M70.45,51h7.06A2.07,2.07,0,0,1,79.58,53v7.4a0,0,0,0,1,0,0H68.38a0,0,0,0,1,0,0V53A2.07,2.07,0,0,1,70.45,51Z"/><path class="cls-4" d="M95,61.42H53a1,1,0,0,1-1-1.31l3.66-11a12.57,12.57,0,0,1,9-8.26l4.68-1.13c.18,0-.5,0,9.08,0,.15,0-.08,0,4.92,1.16a12.56,12.56,0,0,1,9,8.26l3.66,11A1,1,0,0,1,95,61.42Zm-40.66-2H93.62L90.4,49.77a10.51,10.51,0,0,0-7.55-6.94l-4.56-1.11H69.68l-4.56,1.11a10.53,10.53,0,0,0-7.55,6.94Z"/><path class="cls-16" d="M64.87,41.86l1.55-.38v19H52.94l3.67-11A11.55,11.55,0,0,1,64.87,41.86Z"/><path class="cls-17" d="M65.19,45.67l1.23-.3V60.43H55.71l2.91-8.72A9.18,9.18,0,0,1,65.19,45.67Z"/><path class="cls-17" d="M82.76,45.67l-1.23-.3V60.43H92.24l-2.92-8.72A9.17,9.17,0,0,0,82.76,45.67Z"/><path class="cls-16" d="M95,60.43H81.53v-19l1.54.38a11.55,11.55,0,0,1,8.26,7.6Z"/><path class="cls-18" d="M81.54,41.71a7.56,7.56,0,0,1-15.12,0,1.69,1.69,0,0,1,0-.23l2.44-.59V36.36h10.2v4.53l2.46.59A1.77,1.77,0,0,1,81.54,41.71Z"/><path class="cls-18" d="M92.24,23.35a2.91,2.91,0,0,1-2.51,2.88c-.26,0,1.9,0-31.12,0a2.9,2.9,0,0,1-.45-5.77c.38-.07-1.73,0,31.17,0A2.92,2.92,0,0,1,92.24,23.35Z"/><path class="cls-19" d="M89,20.45c0,4.71,0,4.88-.07,5.81H59c-.09-.92-.07-1.08-.07-5.81Z"/><path class="cls-4" d="M89.35,27.26H58.63a3.91,3.91,0,1,1,0-7.81H89.35a3.91,3.91,0,0,1,0,7.81ZM58.63,21.45a1.91,1.91,0,1,0,0,3.81H89.35a1.91,1.91,0,0,0,0-3.81Z"/><path class="cls-19" d="M79.07,36.36v3.12a15.44,15.44,0,0,1-10.2,0V36.36Z"/><path class="cls-4" d="M74,50.26a8.57,8.57,0,0,1-8.56-8.55c0-.11,0-.22,0-.33a1,1,0,0,1,.76-.88l1.68-.4V36.36a1,1,0,0,1,1-1h10.2a1,1,0,0,1,1,1V40.1l1.69.41a1,1,0,0,1,.76.87c0,.12,0,.22,0,.33A8.57,8.57,0,0,1,74,50.26Zm-6.54-8a6.56,6.56,0,0,0,13.07,0l-1.68-.41a1,1,0,0,1-.76-1V37.36h-8.2v3.53a1,1,0,0,1-.77,1Z"/><path class="cls-20" d="M87.48,24.84a13.5,13.5,0,1,1-27,0c0-7.11,0-6.41,0-7A2.11,2.11,0,0,1,62.6,16h8.33a5.46,5.46,0,0,0,2.6-.66l7.2-3.88a2.63,2.63,0,0,1,3,.32l2,1.73a3.91,3.91,0,0,1,1.34,2.58A49.25,49.25,0,0,1,87.48,24.84Z"/><path class="cls-2" d="M80.87,15.61a1,1,0,0,1-.71-1.71L83,11.05a1,1,0,0,1,1.42,0,1,1,0,0,1,0,1.41l-2.86,2.86A1,1,0,0,1,80.87,15.61Z"/><path class="cls-4" d="M21.88,28l-4.3-4.3a3.22,3.22,0,0,1,1.93-5.56,3.26,3.26,0,0,1,1.55.26A16,16,0,0,1,35.34,4.46,3.2,3.2,0,0,1,40.55.94l4.38,4.39a3.24,3.24,0,0,1,0,4.51c-.34.38,1.27-1.28-4.42,4.42A3.2,3.2,0,0,1,35.23,11a10,10,0,0,0-7.54,7.18,3.23,3.23,0,0,1,3,5.48L26.43,28A3.22,3.22,0,0,1,21.88,28ZM19.77,20.1A1.23,1.23,0,0,0,19,22.26h0l4.3,4.3a1.24,1.24,0,0,0,1.72,0l4.29-4.29a1.31,1.31,0,0,0,.17-1.74,1.24,1.24,0,0,0-1.79-.07l-.31.31a1,1,0,0,1-2-.05,11.92,11.92,0,0,1,11.9-11.9,1,1,0,0,1,.75,1.7l-.52.53a1.22,1.22,0,1,0,1.63,1.8c4.74-4.74,4.52-4.46,4.65-4.78a1.1,1.1,0,0,0,0-.82c-.09-.3-.06-.15-.18-.39h0a.72.72,0,0,1-.11-.12L39.13,2.36a1.23,1.23,0,0,0-1.78.07,1.3,1.3,0,0,0,.16,1.74l.51.51a1,1,0,0,1-.71,1.71,14,14,0,0,0-14.37,14,1,1,0,0,1-1.71.71C20.56,20.39,20.36,20.1,19.77,20.1Z"/><path class="cls-4" d="M63.35,96a3.18,3.18,0,0,1-2.27-.94l-4.39-4.39a3.2,3.2,0,0,1-.78-3.23c.38-1.13.45-1,5.17-5.7A3.2,3.2,0,0,1,66.39,85a9.94,9.94,0,0,0,7.54-7.18,3.22,3.22,0,0,1-3-5.47L75.2,68a3.3,3.3,0,0,1,4.55,0l4.3,4.3a3.31,3.31,0,0,1,.43,4.22,3.22,3.22,0,0,1-3.91,1.08A16,16,0,0,1,66.28,91.54,3.18,3.18,0,0,1,63.35,96ZM58,89.14l.11.12,4.38,4.38a1.24,1.24,0,0,0,1.79-.07,1.31,1.31,0,0,0-.16-1.74l-.51-.51a1,1,0,0,1,.7-1.71,14,14,0,0,0,14.38-14,1,1,0,0,1,1.71-.71l.6.6a1.21,1.21,0,0,0,1.86-.16,1.31,1.31,0,0,0-.23-1.64h0l-4.3-4.3a1.24,1.24,0,0,0-1.72,0l-4.29,4.29a1.31,1.31,0,0,0-.16,1.74,1.24,1.24,0,0,0,1.79.07l.31-.31a1,1,0,0,1,2,0,11.92,11.92,0,0,1-11.91,11.9,1,1,0,0,1-.74-1.7l.52-.53a1.22,1.22,0,0,0-.68-2.15,1.19,1.19,0,0,0-1,.35c-4.78,4.79-4.44,4.43-4.53,4.57a1.38,1.38,0,0,0-.21.68,1.34,1.34,0,0,0,.11.51,2.15,2.15,0,0,1,.14.23Z"/><path class="cls-4" d="M39.87,96H9.6a1,1,0,0,1-1-1.26l1.89-7A1,1,0,0,1,11.75,87a1,1,0,0,1,.7,1.23L10.9,94H38.56L37,88.23a1,1,0,1,1,1.93-.52l1.89,7A1,1,0,0,1,39.87,96Z"/><path class="cls-4" d="M20.19,84.61a1,1,0,0,1-.94-.66L17.4,78.84A2.64,2.64,0,0,1,18,76.12c1.15-1.19,1.24-1.38,1.79-1.39a1,1,0,0,1,.72.34l5,5.62a1,1,0,0,1-.3,1.56C20.26,84.69,20.52,84.61,20.19,84.61Zm-.48-7.41-.29.31a.62.62,0,0,0-.14.65l1.47,4.06L23.12,81Z"/><path class="cls-4" d="M29.27,84.61c-.33,0-.1.07-5-2.36A1,1,0,0,1,24,80.69l5-5.62a1,1,0,0,1,.73-.34c.55,0,.63.2,1.78,1.39a2.64,2.64,0,0,1,.59,2.72L30.22,84A1,1,0,0,1,29.27,84.61ZM26.35,81l2.37,1.18,1.47-4.06a.65.65,0,0,0-.14-.65l-.3-.31Z"/><path class="cls-4" d="M24.73,72.48A14.23,14.23,0,0,1,10.52,58.27V54c0-.45,0-.29,2.66-3.73A3.89,3.89,0,0,0,14,48l.15-3.88a2.65,2.65,0,0,1,3-2.53,59.47,59.47,0,0,0,15.2,0,2.65,2.65,0,0,1,3,2.53L35.45,48a4,4,0,0,0,.83,2.28c2.58,3.27,2.66,3.24,2.66,3.72v4.3A14.23,14.23,0,0,1,24.73,72.48ZM12.52,54.32v4a12.21,12.21,0,0,0,24.42,0v-4l-2.23-2.84a6,6,0,0,1-1.26-3.43c-.16-4.21-.08-4.09-.37-4.34s-.39-.11-2.86.1a61,61,0,0,1-13.41-.26.67.67,0,0,0-.66.63L16,48.05a6,6,0,0,1-1.25,3.43Z"/><path class="cls-4" d="M30,55.6a1,1,0,0,1-1-1V54a1,1,0,1,1,2,0v.59A1,1,0,0,1,30,55.6Z"/><path class="cls-4" d="M31.35,52.42H28.66a1,1,0,1,1,0-2h2.69a1,1,0,1,1,0,2Z"/><path class="cls-4" d="M19.46,55.6a1,1,0,0,1-1-1V54a1,1,0,0,1,2,0v.59A1,1,0,0,1,19.46,55.6Z"/><path class="cls-4" d="M20.8,52.42H18.11a1,1,0,0,1,0-2H20.8a1,1,0,0,1,0,2Z"/><path class="cls-4" d="M21.24,64.23a1,1,0,1,1,1.65-1.12,2.22,2.22,0,0,0,3.69,0,1,1,0,1,1,1.67,1.1A4.22,4.22,0,0,1,21.24,64.23Z"/><path class="cls-4" d="M66.43,61.43H53a1,1,0,0,1-1-1.32l3.67-11a12.51,12.51,0,0,1,9-8.26h0c1.63-.39,1.92-.56,2.4-.18a1,1,0,0,1,.38.78v19A1,1,0,0,1,66.43,61.43Zm-12.08-2H65.43V42.75a10.54,10.54,0,0,0-7.85,7Z"/><path class="cls-4" d="M95,61.43H81.54a1,1,0,0,1-1-1v-19a1,1,0,0,1,1.24-1l1.54.37a12.52,12.52,0,0,1,9,8.26l3.66,11A1,1,0,0,1,95,61.43Zm-12.48-2H93.63L90.4,49.77a10.55,10.55,0,0,0-7.86-7Z"/><path class="cls-4" d="M74,39.35A14.52,14.52,0,0,1,59.5,24.84c0-7,0-6.45,0-7A3.13,3.13,0,0,1,62.62,15h8.32a4.59,4.59,0,0,0,2.14-.54l7.19-3.88a3.65,3.65,0,0,1,4.12.44l2,1.73A4.88,4.88,0,0,1,88.06,16a48.84,48.84,0,0,1,.43,8.87A14.52,14.52,0,0,1,74,39.35ZM62.62,17a1.11,1.11,0,0,0-1.11,1c0,.68,0-.81,0,6.88a12.5,12.5,0,1,0,25,0,48.58,48.58,0,0,0-.42-8.67,2.89,2.89,0,0,0-1-1.92l-2-1.74a1.67,1.67,0,0,0-1.86-.2L74,16.2a6.52,6.52,0,0,1-3.08.78Z"/><path class="cls-4" d="M79.38,23.07a1,1,0,0,1-1-1v-.6a1,1,0,0,1,2,0v.6A1,1,0,0,1,79.38,23.07Z"/><path class="cls-4" d="M80.75,19.82H78a1,1,0,0,1,0-2h2.75a1,1,0,0,1,0,2Z"/><path class="cls-4" d="M68.59,23.07a1,1,0,0,1-1-1v-.6a1,1,0,0,1,2,0v.6A1,1,0,0,1,68.59,23.07Z"/><path class="cls-4" d="M70,19.82H67.22a1,1,0,0,1,0-2H70a1,1,0,0,1,0,2Z"/><path class="cls-4" d="M63.47,17a1,1,0,0,1,0-2,7.42,7.42,0,0,0,4.65-1.65l4.06-3.28a1,1,0,0,1,1.4.15,1,1,0,0,1-.14,1.41l-4.06,3.28A9.47,9.47,0,0,1,63.47,17Z"/><path class="cls-4" d="M65.31,13.12a1,1,0,0,1-.68-1.73l1.91-1.8a1,1,0,0,1,1.42,0,1,1,0,0,1,0,1.41C65.85,13,65.83,13.12,65.31,13.12Z"/><path class="cls-4" d="M80.88,15.61a1,1,0,0,1-.71-1.71L83,11.05a1,1,0,0,1,1.41,1.41l-2.85,2.86A1,1,0,0,1,80.88,15.61Z"/><path class="cls-4" d="M70.43,30.92a1,1,0,0,1,.27-1.38,1,1,0,0,1,1.39.26,2.29,2.29,0,0,0,3.81,0,1,1,0,1,1,1.66,1.1A4.28,4.28,0,0,1,70.43,30.92Z"/></g></svg>