<svg xmlns="http://www.w3.org/2000/svg" viewBox="0 0 96 96"><defs><style>.cls-1{fill:#3ab67d;}.cls-2{fill:#44cf87;}.cls-3{fill:#63e296;}.cls-4{fill:#302d3d;}.cls-5{fill:#ffc541;}.cls-6{fill:#fff;}.cls-7{fill:#ffe391;}</style></defs><title>Expantion</title><g id="Expantion"><path class="cls-1" d="M95,28.51l-5.62-5.62L22.89,89.38,28.51,95,3,93,1,67.49l5.62,5.62L73.11,6.62,67.49,1,93,3Z"/><polygon class="cls-2" points="5.82 90.18 4.64 75.37 6.62 77.35 77.35 6.62 75.37 4.64 90.18 5.82 91.36 20.63 89.38 18.65 18.65 89.38 20.63 91.36 5.82 90.18"/><polygon class="cls-3" points="10.47 85.53 10.1 80.95 80.95 10.1 85.53 10.47 85.9 15.05 15.05 85.9 10.47 85.53"/><path class="cls-1" d="M95,67.49,93,93,67.49,95l5.62-5.62L6.62,22.89,1,28.51,3,3,28.51,1,22.89,6.62,89.38,73.11Z"/><polygon class="cls-2" points="77.35 89.38 6.62 18.65 4.64 20.63 5.82 5.82 20.63 4.64 18.65 6.62 89.38 77.35 91.36 75.37 90.18 90.18 75.37 91.36 77.35 89.38"/><polygon class="cls-3" points="10.1 15.05 10.47 10.47 15.05 10.1 85.9 80.95 85.53 85.53 80.95 85.9 10.1 15.05"/><path class="cls-1" d="M79.87,32.4A35.62,35.62,0,0,0,63.62,16.11L48,31.73,32.37,16.1A35.7,35.7,0,0,0,16.11,32.38L31.73,48,16.11,63.62A35.6,35.6,0,0,0,32.4,79.87L48,64.27,63.59,79.86A35.49,35.49,0,0,0,79.86,63.59L64.27,48Z"/><path class="cls-4" d="M28.5,96,2.94,94A1,1,0,0,1,2,93.05L0,67.57a1,1,0,0,1,1.7-.79L6.61,71.7,71.68,6.62,66.77,1.71A1,1,0,0,1,67.55,0L93,2A1,1,0,0,1,94,3l2,25.48a1,1,0,0,1-1.7.79L89.36,24.3,24.29,89.38l4.91,4.91A1,1,0,0,1,28.5,96ZM4,92l21.92,1.75-3.7-3.71a1,1,0,0,1,0-1.41L88.66,22.18a1,1,0,0,1,1.41,0l3.7,3.7L92,4,70.1,2.21l3.7,3.71a1,1,0,0,1,0,1.41L7.31,73.82a1,1,0,0,1-1.41,0l-3.7-3.7Z"/><path class="cls-4" d="M67.47,96a1,1,0,0,1-.7-1.71l4.91-4.91L6.61,24.3,1.69,29.22A1,1,0,0,1,0,28.43L2,3A1,1,0,0,1,2.94,2L28.42,0a1,1,0,0,1,.78,1.71L24.29,6.62,89.36,71.7l4.92-4.92a1,1,0,0,1,1.7.79L94,93.05A1,1,0,0,1,93,94C63.42,96.33,67.89,96,67.47,96ZM6.61,21.89c.64,0-3.92-4.33,67.19,66.78a1,1,0,0,1,0,1.41l-3.7,3.71L92,92l1.75-21.92-3.7,3.7a1,1,0,0,1-1.41,0L22.17,7.33a1,1,0,0,1,0-1.41l3.7-3.71L4,4,2.2,25.88l3.7-3.7A1,1,0,0,1,6.61,21.89Z"/><path class="cls-5" d="M79.89,41.78c-5-24.72-34.51-34.62-53.22-18.3a32.49,32.49,0,1,0,53.22,18.3ZM68.13,59.47A23.18,23.18,0,1,1,46.87,24.84C65.11,24,77.22,43.7,68.13,59.47Z"/><path class="cls-6" d="M21.45,34.47a1.53,1.53,0,0,0,1.37,2.23,1.66,1.66,0,0,0,1.68-.82A25.84,25.84,0,0,1,37,24.43,1.52,1.52,0,0,0,37.9,23v-.28a1.54,1.54,0,0,0-2.13-1.42A29.48,29.48,0,0,0,21.45,34.47Z"/><circle class="cls-7" cx="47.99" cy="47.99" r="23.18" transform="translate(-19.88 47.99) rotate(-45)"/><path class="cls-6" d="M66.17,48a18.18,18.18,0,0,1-36.36.1,3.42,3.42,0,0,1,5.23-3,24.61,24.61,0,0,0,25.91,0A3.4,3.4,0,0,1,66.17,48Z"/><path class="cls-6" d="M35.66,42.2a4.42,4.42,0,0,1-.89-7.09,19.15,19.15,0,0,1,26.44,0,4.43,4.43,0,0,1-.89,7.1A25.57,25.57,0,0,1,35.66,42.2Z"/><path class="cls-4" d="M48,81.48A33.5,33.5,0,1,1,81.46,48,33.53,33.53,0,0,1,48,81.48Zm0-65A31.5,31.5,0,1,0,79.46,48,31.53,31.53,0,0,0,48,16.49Z"/><path class="cls-4" d="M48,72.17A24.18,24.18,0,1,1,72.15,48,24.21,24.21,0,0,1,48,72.17Zm0-46.36A22.18,22.18,0,1,0,70.15,48,22.21,22.21,0,0,0,48,25.81Z"/><path class="cls-4" d="M48,57.48H43.72a1,1,0,0,1,0-2H48A3.25,3.25,0,1,0,48,49a5.25,5.25,0,0,1,0-10.5h4.25a1,1,0,0,1,0,2H48A3.25,3.25,0,0,0,48,47a5.25,5.25,0,1,1,0,10.49Z"/><path class="cls-4" d="M48,61.52a1,1,0,0,1-1-1v-4a1,1,0,1,1,2,0v4A1,1,0,0,1,48,61.52Z"/><path class="cls-4" d="M48,40.49a1,1,0,0,1-1-1v-4a1,1,0,0,1,2,0v4A1,1,0,0,1,48,40.49Z"/><path class="cls-4" d="M48,25.81a1,1,0,0,1-1-1V15.49a1,1,0,0,1,2,0v9.32A1,1,0,0,1,48,25.81Z"/><path class="cls-4" d="M33.07,31.23a1,1,0,0,1-.77-.36l-6-7.13a1,1,0,0,1,1.53-1.29l6,7.14A1,1,0,0,1,33.07,31.23Z"/><path class="cls-4" d="M25.14,45c-.13,0-2.7-.46-9.34-1.63a1,1,0,0,1,.34-2L25.32,43a1,1,0,0,1-.18,2Z"/><path class="cls-4" d="M19.83,65.23a1,1,0,0,1-.5-1.86l8.07-4.66a1,1,0,0,1,1,1.73C19.62,65.51,20.21,65.23,19.83,65.23Z"/><path class="cls-4" d="M36.86,79.52a1,1,0,0,1-.94-1.34l3.18-8.75a1,1,0,1,1,1.88.68L37.8,78.86A1,1,0,0,1,36.86,79.52Z"/><path class="cls-4" d="M59.08,79.52a1,1,0,0,1-.93-.66L55,70.11a1,1,0,0,1,1.88-.68L60,78.18A1,1,0,0,1,59.08,79.52Z"/><path class="cls-4" d="M76.11,65.23c-.38,0,.22.28-8.56-4.79a1,1,0,1,1,1-1.73l8.06,4.66A1,1,0,0,1,76.11,65.23Z"/><path class="cls-4" d="M70.8,45a1,1,0,0,1-.17-2l9.17-1.62a1,1,0,0,1,.35,2C73.5,44.5,70.93,45,70.8,45Z"/><path class="cls-4" d="M62.87,31.23a1,1,0,0,1-.77-1.64l6-7.14a1,1,0,0,1,1.53,1.29l-6,7.13A1,1,0,0,1,62.87,31.23Z"/></g></svg>