<svg xmlns="http://www.w3.org/2000/svg" viewBox="0 0 96 96"><defs><style>.cls-1{fill:#87b5e3;}.cls-2{fill:#d2e7ff;}.cls-3{fill:#495f9c;}.cls-4{fill:#5d7db0;}.cls-5{fill:#6c8cbf;}.cls-6{fill:#302d3d;}.cls-7{fill:#fff;}.cls-8{fill:#3c3264;}.cls-9{fill:#e6ecf2;}.cls-10{fill:#d2ddf2;}</style></defs><title>Fax</title><g id="Fax"><path class="cls-1" d="M95,30.84v49a3.44,3.44,0,0,1-3.44,3.43H4.44A3.44,3.44,0,0,1,1,79.8v-49a3.44,3.44,0,0,1,3.44-3.43H91.56A3.44,3.44,0,0,1,95,30.84Z"/><rect class="cls-2" x="23.09" y="11.32" width="49.82" height="88" rx="0.44" transform="translate(103.32 7.32) rotate(90)"/><rect class="cls-3" x="41.02" y="27.41" width="53.98" height="55.82" rx="3.44"/><rect class="cls-4" x="43.1" y="31.33" width="49.82" height="47.98" rx="0.44" transform="translate(123.33 -12.69) rotate(90)"/><rect class="cls-5" x="53.68" y="57.58" width="28.66" height="14.24" rx="1.44"/><rect class="cls-5" x="53.68" y="73.92" width="28.66" height="3.91" rx="1.44"/><rect class="cls-1" x="61.14" y="24.61" width="21.76" height="36.67" transform="translate(114.95 -29.07) rotate(90)"/><path class="cls-2" d="M65.7,37.24l-6.84,6.84a1.28,1.28,0,0,1-2.18-.91V36.34A1.28,1.28,0,0,1,58,35.06h6.83A1.28,1.28,0,0,1,65.7,37.24Z"/><path class="cls-2" d="M81.51,37.24,69.25,49.49A4.55,4.55,0,0,1,66,50.82H60a1.28,1.28,0,0,1-.91-2.18L71.38,36.39a4.56,4.56,0,0,1,3.22-1.33h6A1.28,1.28,0,0,1,81.51,37.24Z"/><path class="cls-2" d="M87.35,40.91v8.63a1.28,1.28,0,0,1-1.28,1.28H77.43a1.27,1.27,0,0,1-.9-2.18L85.17,40A1.28,1.28,0,0,1,87.35,40.91Z"/><rect class="cls-2" x="38.82" y="38.92" width="21.76" height="8.04" transform="translate(92.64 -6.76) rotate(90)"/><path class="cls-4" d="M33.73,52.86c-.3,3.24-.08,4,1.25,18.8,0,.45,0-.49,0,11.57H8.32c0-14.17-.33-7.54,1.28-25.45.3-3.24.08-4-1.25-18.8,0-.45,0,.28,0-11.57H35C35,41.57,35.34,35,33.73,52.86Z"/><path class="cls-6" d="M91.56,84.23H4.44A4.44,4.44,0,0,1,0,79.8v-49a4.44,4.44,0,0,1,4.44-4.43H91.56A4.44,4.44,0,0,1,96,30.84v49A4.44,4.44,0,0,1,91.56,84.23ZM4.44,28.41A2.43,2.43,0,0,0,2,30.84v49a2.43,2.43,0,0,0,2.44,2.43H91.56A2.43,2.43,0,0,0,94,79.8v-49a2.43,2.43,0,0,0-2.44-2.43Z"/><path class="cls-3" d="M28.2,22.87H15.13a3.81,3.81,0,0,0-3.81,3.81c0,12.67,0,11.78,0,12,1.28,14.21,1.58,15.7,1.25,19.34-1.34,14.88-1.27,14-1.27,14.22V84a3.81,3.81,0,0,0,3.81,3.8H28.2A3.81,3.81,0,0,0,32,84c0-12.68,0-11.79,0-12-1.28-14.21-1.58-15.69-1.25-19.34C32.08,37.71,32,38.62,32,38.37V26.67A3.81,3.81,0,0,0,28.2,22.87Z"/><path class="cls-4" d="M18.58,51.38a10.11,10.11,0,0,0,10.08-9.21l.35-3.8V28a2.12,2.12,0,0,0-2.13-2.12H16.45A2.11,2.11,0,0,0,14.33,28V38.44l.89,9.86A3.37,3.37,0,0,0,18.58,51.38Z"/><path class="cls-5" d="M23.88,39.2c-.39,3.75-6,3.61-6.3-.15l-.25-2.76V31.75a2.88,2.88,0,0,1,2.88-2.88h1.06a2.88,2.88,0,0,1,2.88,2.88A46,46,0,0,1,23.88,39.2Z"/><path class="cls-4" d="M15.32,61.2l-1,11.07V82.55a2.22,2.22,0,0,0,2.2,2.22A12.44,12.44,0,0,0,29,72.32c0-.18-1-11.22-1-11.12a2.74,2.74,0,0,0-2.73-2.5H18.05A2.75,2.75,0,0,0,15.32,61.2Z"/><path class="cls-5" d="M17.32,69.94l.52-5.79a2.69,2.69,0,0,1,2.68-2.45h.28a2.68,2.68,0,0,1,2.68,2.45L24,69.88A7.21,7.21,0,0,1,21.87,75a2.68,2.68,0,0,1-4.55-2Z"/><rect class="cls-7" x="16.94" y="29.93" width="9.44" height="4.46"/><path class="cls-8" d="M18.78,87.77h6.69a0,0,0,0,1,0,0v1.55a2.87,2.87,0,0,1-2.87,2.87h-.94a2.87,2.87,0,0,1-2.87-2.87V87.77A0,0,0,0,1,18.78,87.77Z"/><path class="cls-9" d="M84.58,27.41H48V3.8H77.64l6.94,6.94Z"/><rect class="cls-10" x="48" y="24.41" width="36.58" height="3"/><polygon class="cls-7" points="51 24.41 51 6.8 76.39 6.8 81.58 11.98 81.58 24.41 51 24.41"/><path class="cls-6" d="M91.56,84.23H44.46A4.44,4.44,0,0,1,40,79.8v-49a4.44,4.44,0,0,1,4.44-4.43h47.1A4.44,4.44,0,0,1,96,30.84v49A4.44,4.44,0,0,1,91.56,84.23ZM44.46,28.41A2.43,2.43,0,0,0,42,30.84v49a2.43,2.43,0,0,0,2.44,2.43h47.1A2.43,2.43,0,0,0,94,79.8v-49a2.43,2.43,0,0,0-2.44-2.43Z"/><path class="cls-6" d="M90.35,54.82H45.67a1,1,0,0,1-1-1V32.06a1,1,0,0,1,1-1H90.35a1,1,0,0,1,1,1V53.82A1,1,0,0,1,90.35,54.82Zm-43.68-2H89.35V33.06H46.67Z"/><path class="cls-6" d="M53.72,54.82h-8a1,1,0,0,1-1-1V32.06a1,1,0,0,1,1-1h8a1,1,0,0,1,1,1V53.82A1,1,0,0,1,53.72,54.82Zm-7-2h6V33.06h-6Z"/><path class="cls-6" d="M28.2,88.77H15.13A4.81,4.81,0,0,1,10.32,84c0-12.84,0-11.81,0-12.13,1.33-14.68,1.57-15.67,1.25-19.16-1.59-17.75-1.27-11.11-1.27-26a4.81,4.81,0,0,1,4.81-4.8H28.2A4.81,4.81,0,0,1,33,26.67c0,12.8,0,11.82,0,12.13C31.66,53.48,31.42,54.47,31.74,58,33.33,75.71,33,69.06,33,84A4.81,4.81,0,0,1,28.2,88.77ZM15.13,23.87a2.81,2.81,0,0,0-2.81,2.8c0,14.82-.32,8.19,1.27,25.83.33,3.74.06,5-1.25,19.52,0,.2,0,2,0,12a2.8,2.8,0,0,0,2.81,2.8H28.2A2.8,2.8,0,0,0,31,84c0-14.84.32-8.19-1.27-25.83-.33-3.74-.06-5,1.25-19.52,0-.19,0-2.42,0-11.95a2.81,2.81,0,0,0-2.81-2.8Z"/><path class="cls-6" d="M26.39,35.39H16.94a1,1,0,0,1-1-1V29.93a1,1,0,0,1,1-1h9.45a1,1,0,0,1,1,1v4.46A1,1,0,0,1,26.39,35.39Zm-8.45-2h7.45V30.93H17.94Z"/><path class="cls-6" d="M22.59,93.2h-.94a3.88,3.88,0,0,1-3.87-3.88V87.77a1,1,0,0,1,1-1h6.69a1,1,0,0,1,1,1v1.55A3.88,3.88,0,0,1,22.59,93.2Zm-2.81-4.43v.55a1.88,1.88,0,0,0,1.87,1.88h.94a1.88,1.88,0,0,0,1.88-1.88v-.55Z"/><path class="cls-6" d="M48.48,61.17h-2.3a1,1,0,1,1,0-2h2.3a1,1,0,1,1,0,2Z"/><path class="cls-6" d="M55.28,61.17H53a1,1,0,0,1,0-2h2.3a1,1,0,0,1,0,2Z"/><path class="cls-6" d="M62.08,61.17h-2.3a1,1,0,0,1,0-2h2.3a1,1,0,0,1,0,2Z"/><path class="cls-6" d="M68.88,61.17h-2.3a1,1,0,0,1,0-2h2.3a1,1,0,0,1,0,2Z"/><path class="cls-6" d="M75.68,61.17H73.39a1,1,0,0,1,0-2h2.29a1,1,0,0,1,0,2Z"/><path class="cls-6" d="M82.49,61.17h-2.3a1,1,0,0,1,0-2h2.3a1,1,0,0,1,0,2Z"/><path class="cls-6" d="M89.29,61.17H87a1,1,0,0,1,0-2h2.3a1,1,0,0,1,0,2Z"/><path class="cls-6" d="M48.48,67.05h-2.3a1,1,0,1,1,0-2h2.3a1,1,0,1,1,0,2Z"/><path class="cls-6" d="M55.28,67.05H53a1,1,0,0,1,0-2h2.3a1,1,0,0,1,0,2Z"/><path class="cls-6" d="M62.08,67.05h-2.3a1,1,0,0,1,0-2h2.3a1,1,0,0,1,0,2Z"/><path class="cls-6" d="M68.88,67.05h-2.3a1,1,0,0,1,0-2h2.3a1,1,0,0,1,0,2Z"/><path class="cls-6" d="M75.68,67.05H73.39a1,1,0,0,1,0-2h2.29a1,1,0,0,1,0,2Z"/><path class="cls-6" d="M82.49,67.05h-2.3a1,1,0,0,1,0-2h2.3a1,1,0,0,1,0,2Z"/><path class="cls-6" d="M89.29,67.05H87a1,1,0,0,1,0-2h2.3a1,1,0,0,1,0,2Z"/><path class="cls-6" d="M48.48,72.94h-2.3a1,1,0,0,1,0-2h2.3a1,1,0,0,1,0,2Z"/><path class="cls-6" d="M55.28,72.94H53a1,1,0,1,1,0-2h2.3a1,1,0,0,1,0,2Z"/><path class="cls-6" d="M62.08,72.94h-2.3a1,1,0,0,1,0-2h2.3a1,1,0,0,1,0,2Z"/><path class="cls-6" d="M68.88,72.94h-2.3a1,1,0,1,1,0-2h2.3a1,1,0,0,1,0,2Z"/><path class="cls-6" d="M75.68,72.94H73.39a1,1,0,1,1,0-2h2.29a1,1,0,0,1,0,2Z"/><path class="cls-6" d="M82.49,72.94h-2.3a1,1,0,0,1,0-2h2.3a1,1,0,1,1,0,2Z"/><path class="cls-6" d="M89.29,72.94H87a1,1,0,0,1,0-2h2.3a1,1,0,1,1,0,2Z"/><path class="cls-6" d="M48.48,78.83h-2.3a1,1,0,1,1,0-2h2.3a1,1,0,1,1,0,2Z"/><path class="cls-6" d="M55.28,78.83H53a1,1,0,0,1,0-2h2.3a1,1,0,1,1,0,2Z"/><path class="cls-6" d="M62.08,78.83h-2.3a1,1,0,0,1,0-2h2.3a1,1,0,0,1,0,2Z"/><path class="cls-6" d="M68.88,78.83h-2.3a1,1,0,0,1,0-2h2.3a1,1,0,0,1,0,2Z"/><path class="cls-6" d="M75.68,78.83H73.39a1,1,0,0,1,0-2h2.29a1,1,0,0,1,0,2Z"/><path class="cls-6" d="M82.49,78.83h-2.3a1,1,0,0,1,0-2h2.3a1,1,0,0,1,0,2Z"/><path class="cls-6" d="M89.29,78.83H87a1,1,0,0,1,0-2h2.3a1,1,0,0,1,0,2Z"/><path class="cls-6" d="M84.58,28.41H48a1,1,0,0,1-1-1V3.8a1,1,0,0,1,1-1H77.64a1,1,0,0,1,.7.3L85.28,10a1,1,0,0,1,.3.7V27.41A1,1,0,0,1,84.58,28.41ZM49,26.41H83.58V11.16L77.22,4.8H49Z"/><path class="cls-6" d="M76.29,13.21h-20a1,1,0,0,1,0-2h20a1,1,0,0,1,0,2Z"/><path class="cls-6" d="M76.29,18h-20a1,1,0,1,1,0-2h20a1,1,0,0,1,0,2Z"/><path class="cls-6" d="M76.29,22.85h-20a1,1,0,0,1,0-2h20a1,1,0,0,1,0,2Z"/></g></svg>