<svg xmlns="http://www.w3.org/2000/svg" viewBox="0 0 96 96"><defs><style>.cls-1{fill:#95b5e4;}.cls-2{fill:#302d3d;}.cls-3{fill:#d2ddf2;}.cls-4{fill:#e6ecf2;}.cls-5{fill:#fff;}.cls-6{fill:#b3c4f3;}</style></defs><title>File Document</title><g id="File_Document" data-name="File Document"><rect class="cls-1" x="12.34" y="8.63" width="61.17" height="86.37" rx="1.78"/><path class="cls-2" d="M71.73,96H14.11a2.78,2.78,0,0,1-2.77-2.78V10.4a2.78,2.78,0,0,1,2.77-2.78H71.73a2.79,2.79,0,0,1,2.78,2.78V93.22A2.79,2.79,0,0,1,71.73,96ZM14.11,9.62a.78.78,0,0,0-.77.78V93.22a.78.78,0,0,0,.77.78H71.73a.78.78,0,0,0,.78-.78V10.4a.78.78,0,0,0-.78-.78Z"/><path class="cls-3" d="M83.66,5.44c0,71.32.16,67.3-.34,68.34-.38.87.54-.2-14.81,15.15A3.76,3.76,0,0,1,65.86,90H23.94a1.79,1.79,0,0,1-1.79-1.79V5.44a1.79,1.79,0,0,1,1.79-1.79H81.87A1.79,1.79,0,0,1,83.66,5.44Z"/><polygon class="cls-4" points="27.15 85.03 27.15 8.65 78.66 8.65 78.66 71.71 65.34 85.03 27.15 85.03"/><rect class="cls-5" x="32.59" y="18.16" width="40.64" height="36.45" rx="3.5"/><rect class="cls-5" x="36.34" y="61.94" width="33.14" height="9.85" rx="3.5"/><path class="cls-6" d="M50.58,3.65V34.86a3.78,3.78,0,0,1-3.77,3.78H22.15V5.44a1.79,1.79,0,0,1,1.79-1.79Z"/><path class="cls-2" d="M65.86,91H23.94a2.79,2.79,0,0,1-2.79-2.79V5.44a2.79,2.79,0,0,1,2.79-2.79H81.88a2.79,2.79,0,0,1,2.78,2.79V72.23a4.57,4.57,0,0,1-.43,2c-.49,1.11,0,.41-15,15.44A4.79,4.79,0,0,1,65.86,91ZM23.94,4.65a.79.79,0,0,0-.79.79v82.8a.79.79,0,0,0,.79.79H65.86a2.74,2.74,0,0,0,1.94-.81C83.15,72.88,82.13,74,82.41,73.37c.39-.82.25,3.44.25-67.93a.79.79,0,0,0-.78-.79Z"/><path class="cls-6" d="M83.32,73.78c-.38.87.42-.08-14.81,15.15a3.61,3.61,0,0,1-1.1.76V75.57a1.79,1.79,0,0,1,1.79-1.79Z"/><rect class="cls-3" x="17.83" y="1.14" width="30.76" height="35.5" rx="1.78"/><rect class="cls-4" x="21.41" y="1.14" width="23.25" height="26.84" rx="1.34"/><rect class="cls-5" x="24.29" y="3.09" width="17.55" height="20.3" rx="1.12"/><path class="cls-2" d="M67.41,90.69a1,1,0,0,1-1-1V75.57a2.79,2.79,0,0,1,2.79-2.79H83.32a1,1,0,0,1,.92,1.41,4.47,4.47,0,0,1-1,1.39C69.31,89.55,68.47,90.69,67.41,90.69ZM69.2,74.78a.79.79,0,0,0-.79.79v12L81.25,74.78Z"/><path class="cls-2" d="M46.81,37.64H19.6a2.78,2.78,0,0,1-2.77-2.78V2.92A2.77,2.77,0,0,1,19.6.14H46.81a2.77,2.77,0,0,1,2.77,2.78V34.86A2.78,2.78,0,0,1,46.81,37.64ZM19.6,2.14a.77.77,0,0,0-.77.78V34.86a.77.77,0,0,0,.77.78H46.81a.78.78,0,0,0,.77-.78V2.92a.78.78,0,0,0-.77-.78Z"/><path class="cls-2" d="M27.89,22.14A6.16,6.16,0,0,1,21.74,16V6.28A6.16,6.16,0,0,1,27.89.14H33a1,1,0,0,1,0,2H27.89a4.15,4.15,0,0,0-4.15,4.14V16A4.15,4.15,0,0,0,32,16V9.93a1.57,1.57,0,0,0-3.14,0v5.7a1,1,0,1,1-2,0V9.93a3.57,3.57,0,0,1,7.14,0V16A6.15,6.15,0,0,1,27.89,22.14Z"/><path class="cls-2" d="M42.92,31.7H23.14a1,1,0,0,1,0-2H42.92a1,1,0,0,1,0,2Z"/><path class="cls-2" d="M42.92,26.25H23.14a1,1,0,0,1,0-2H42.92a1,1,0,0,1,0,2Z"/><path class="cls-2" d="M42.92,20.8H36.8a1,1,0,0,1,0-2h6.12a1,1,0,0,1,0,2Z"/><path class="cls-2" d="M42.92,15.35H36.8a1,1,0,0,1,0-2h6.12a1,1,0,0,1,0,2Z"/><path class="cls-2" d="M42.92,9.9H36.8a1,1,0,0,1,0-2h6.12a1,1,0,0,1,0,2Z"/><path class="cls-2" d="M51.1,67.42H28.64a1,1,0,0,1,0-2H51.1a1,1,0,1,1,0,2Z"/><path class="cls-2" d="M51.1,62H28.64a1,1,0,0,1,0-2H51.1a1,1,0,0,1,0,2Z"/><path class="cls-2" d="M51.1,56.52H28.64a1,1,0,1,1,0-2H51.1a1,1,0,0,1,0,2Z"/><path class="cls-2" d="M51.1,51.07H28.64a1,1,0,0,1,0-2H51.1a1,1,0,0,1,0,2Z"/><path class="cls-2" d="M51.1,45.62H28.64a1,1,0,1,1,0-2H51.1a1,1,0,0,1,0,2Z"/><path class="cls-2" d="M51.1,72.87H28.64a1,1,0,0,1,0-2H51.1a1,1,0,0,1,0,2Z"/><path class="cls-2" d="M39.87,78.32H28.64a1,1,0,0,1,0-2H39.87a1,1,0,1,1,0,2Z"/><path class="cls-2" d="M76.68,32.6H58.37a1,1,0,0,1,0-2H76.68a1,1,0,0,1,0,2Z"/><path class="cls-2" d="M76.68,27.15H58.37a1,1,0,0,1,0-2H76.68a1,1,0,0,1,0,2Z"/><path class="cls-2" d="M76.68,21.7H58.37a1,1,0,0,1,0-2H76.68a1,1,0,0,1,0,2Z"/><path class="cls-2" d="M76.68,16.25H58.37a1,1,0,0,1,0-2H76.68a1,1,0,0,1,0,2Z"/><path class="cls-2" d="M76.68,10.8H58.37a1,1,0,0,1,0-2H76.68a1,1,0,0,1,0,2Z"/><path class="cls-2" d="M69.1,38.05H58.37a1,1,0,1,1,0-2H69.1a1,1,0,0,1,0,2Z"/><path class="cls-2" d="M74.17,65.15H60.88a3.51,3.51,0,0,1-3.51-3.51V48.35a3.51,3.51,0,0,1,3.51-3.51H74.17a3.51,3.51,0,0,1,3.51,3.51V61.64A3.51,3.51,0,0,1,74.17,65.15ZM60.88,46.84a1.51,1.51,0,0,0-1.51,1.51V61.64a1.52,1.52,0,0,0,1.51,1.51H74.17a1.52,1.52,0,0,0,1.51-1.51V48.35a1.51,1.51,0,0,0-1.51-1.51Z"/></g></svg>