<svg xmlns="http://www.w3.org/2000/svg" viewBox="0 0 96 96"><defs><style>.cls-1{fill:#ff9d41;}.cls-2{fill:#ffc541;}.cls-3{fill:#ffe391;}.cls-4{fill:#302d3d;}.cls-5{fill:#fbba8d;}.cls-6{fill:#fbceab;}.cls-7{fill:#fbe2c9;}.cls-8{fill:#d2ddf2;}.cls-9{fill:#5d7db0;}.cls-10{fill:#87b5e3;}.cls-11{fill:#495f9c;}.cls-12{fill:#6c8cbf;}</style></defs><title>Financial</title><g id="Financial"><rect class="cls-1" x="40.68" y="47.34" width="25.88" height="6.81" rx="1.51"/><rect class="cls-1" x="40.68" y="40.52" width="25.88" height="6.82" rx="1.51"/><rect class="cls-1" x="40.68" y="33.71" width="25.88" height="6.81" rx="1.51"/><rect class="cls-1" x="40.68" y="26.9" width="25.88" height="6.81" rx="1.51"/><path class="cls-2" d="M66.56,48.85v.82a1.51,1.51,0,0,1-1.51,1.51H42.19a1.51,1.51,0,0,1-1.51-1.51v-.82a1.51,1.51,0,0,1,1.51-1.51H65.05A1.51,1.51,0,0,1,66.56,48.85Z"/><rect class="cls-2" x="40.68" y="40.52" width="25.88" height="3.85" rx="1.51"/><rect class="cls-3" x="40.68" y="40.52" width="23.71" height="3.85" rx="1.51"/><path class="cls-2" d="M66.56,35.22V36a1.51,1.51,0,0,1-1.51,1.51H42.19A1.51,1.51,0,0,1,40.68,36v-.82a1.52,1.52,0,0,1,1.51-1.51H65.05A1.52,1.52,0,0,1,66.56,35.22Z"/><rect class="cls-2" x="40.68" y="26.9" width="25.88" height="3.84" rx="1.51"/><path class="cls-3" d="M64.39,48.85v.82a1.51,1.51,0,0,1-1.51,1.51H42.19a1.51,1.51,0,0,1-1.51-1.51v-.82a1.51,1.51,0,0,1,1.51-1.51H62.88A1.51,1.51,0,0,1,64.39,48.85Z"/><path class="cls-4" d="M65.05,48.34H42.19a2.52,2.52,0,0,1-2.51-2.51V42a2.52,2.52,0,0,1,2.51-2.51H65.05A2.52,2.52,0,0,1,67.56,42v3.8A2.52,2.52,0,0,1,65.05,48.34ZM42.19,41.52a.51.51,0,0,0-.51.51v3.8a.51.51,0,0,0,.51.51H65.05a.51.51,0,0,0,.51-.51V42a.51.51,0,0,0-.51-.51Z"/><path class="cls-4" d="M65.05,55.15H42.19a2.51,2.51,0,0,1-2.51-2.51V48.85a2.51,2.51,0,0,1,2.51-2.51H65.05a2.51,2.51,0,0,1,2.51,2.51v3.79A2.51,2.51,0,0,1,65.05,55.15ZM42.19,48.34a.51.51,0,0,0-.51.51v3.79a.51.51,0,0,0,.51.51H65.05a.51.51,0,0,0,.51-.51V48.85a.51.51,0,0,0-.51-.51Z"/><path class="cls-3" d="M64.39,35.22V36a1.51,1.51,0,0,1-1.51,1.51H42.19A1.51,1.51,0,0,1,40.68,36v-.82a1.52,1.52,0,0,1,1.51-1.51H62.88A1.52,1.52,0,0,1,64.39,35.22Z"/><rect class="cls-3" x="40.68" y="26.9" width="23.71" height="3.84" rx="1.51"/><circle class="cls-2" cx="53.62" cy="13.96" r="12.94" transform="translate(5.84 42) rotate(-45)"/><path class="cls-3" d="M53.62,23.9A9.94,9.94,0,1,1,63.56,14,10,10,0,0,1,53.62,23.9Z"/><path class="cls-5" d="M92.49,38.57,75,65.25A8.22,8.22,0,0,1,68.15,69H49a3.93,3.93,0,0,0-2.8,1.16L36.4,80,17.94,61.48,30.77,48.65A7.47,7.47,0,0,1,36,46.46H55.52a4,4,0,0,1,4,3.64,3.84,3.84,0,0,1-3.84,4H66.46L86.72,33.89a3.73,3.73,0,0,1,5.77,4.68Z"/><path class="cls-6" d="M86.37,34.24,66.46,54.15H55.73a3.83,3.83,0,0,0,3.84-4,4,4,0,0,0-4.06-3.65H36a7.47,7.47,0,0,0-5.27,2.19L19.93,59.5l9.56,9.56a6.36,6.36,0,0,0,7,1.35l10.85-4.65A9.48,9.48,0,0,1,51.06,65H68.15A8.23,8.23,0,0,0,75,61.28C93.32,33.33,92.49,34.66,92.49,34.49,91.08,32.38,88.14,32.47,86.37,34.24Z"/><path class="cls-7" d="M38.39,55A2.42,2.42,0,0,0,36,52.54,4.85,4.85,0,0,0,32.53,54l-4.9,4.9A2.44,2.44,0,0,0,29.36,63h1A8,8,0,0,0,38.39,55Z"/><path class="cls-4" d="M35.69,80.65,17.23,62.19a1,1,0,0,1,0-1.41L30.07,47.94a8.37,8.37,0,0,1,6-2.48H55.52a4.87,4.87,0,0,1,4.14,7.69H66l20-20a4.73,4.73,0,0,1,6.69,0h0a4.75,4.75,0,0,1,.62,5.94L75.87,65.8A9.22,9.22,0,0,1,68.15,70H49a2.93,2.93,0,0,0-2.09.86l-9.81,9.81A1,1,0,0,1,35.69,80.65ZM19.35,61.48l17,17.05,9.1-9.1A4.93,4.93,0,0,1,49,68H68.15a7.22,7.22,0,0,0,6-3.27L91.65,38a2.73,2.73,0,0,0-4.22-3.43L67.16,54.86a1,1,0,0,1-.7.29H55.73a1,1,0,0,1,0-2,2.81,2.81,0,0,0,2.07-.89,2.87,2.87,0,0,0-2.28-4.8H36a6.41,6.41,0,0,0-4.56,1.89Z"/><path class="cls-4" d="M55.73,55.15H41.35a1,1,0,0,1,0-2H55.73a1,1,0,0,1,0,2Z"/><rect class="cls-8" x="9.58" y="69.75" width="30.51" height="6.6" transform="translate(58.93 3.84) rotate(45)"/><rect class="cls-9" x="2.83" y="73.55" width="30.51" height="12.49" transform="translate(61.72 10.58) rotate(45)"/><rect class="cls-10" x="31.97" y="79.02" width="4.28" height="6.6" transform="translate(68.2 -0.01) rotate(45)"/><rect class="cls-11" x="25.22" y="82.83" width="4.28" height="12.49" transform="translate(71 6.74) rotate(45)"/><path class="cls-12" d="M9.25,74.44h22a0,0,0,0,1,0,0v4.47a2,2,0,0,1-2,2h-18a2,2,0,0,1-2-2V74.44a0,0,0,0,1,0,0Z" transform="translate(60.84 8.45) rotate(45)"/><path class="cls-4" d="M65.05,41.52H42.19A2.51,2.51,0,0,1,39.68,39V35.22a2.51,2.51,0,0,1,2.51-2.51H65.05a2.51,2.51,0,0,1,2.51,2.51V39A2.51,2.51,0,0,1,65.05,41.52ZM42.19,34.71a.51.51,0,0,0-.51.51V39a.51.51,0,0,0,.51.51H65.05a.51.51,0,0,0,.51-.51V35.22a.51.51,0,0,0-.51-.51Z"/><path class="cls-4" d="M65.05,34.71H42.19a2.52,2.52,0,0,1-2.51-2.51V28.41a2.51,2.51,0,0,1,2.51-2.51H65.05a2.51,2.51,0,0,1,2.51,2.51V32.2A2.52,2.52,0,0,1,65.05,34.71ZM42.19,27.9a.51.51,0,0,0-.51.51V32.2a.51.51,0,0,0,.51.51H65.05a.51.51,0,0,0,.51-.51V28.41a.51.51,0,0,0-.51-.51Z"/><path class="cls-4" d="M53.62,27.9A13.94,13.94,0,1,1,67.56,14,14,14,0,0,1,53.62,27.9ZM53.62,2A11.94,11.94,0,1,0,65.56,14,12,12,0,0,0,53.62,2Z"/><path class="cls-4" d="M53.62,19.7H51.25a1,1,0,0,1,0-2h2.37a1.37,1.37,0,1,0,0-2.74,3.38,3.38,0,0,1,0-6.75H56a1,1,0,0,1,0,2H53.62a1.38,1.38,0,0,0,0,2.75,3.37,3.37,0,1,1,0,6.74Z"/><path class="cls-4" d="M53.62,22a1,1,0,0,1-1-1V18.7a1,1,0,1,1,2,0V21A1,1,0,0,1,53.62,22Z"/><path class="cls-4" d="M53.62,10.21a1,1,0,0,1-1-1V7a1,1,0,0,1,2,0V9.21A1,1,0,0,1,53.62,10.21Z"/><path class="cls-4" d="M32.58,86.88,11,65.3a1,1,0,0,1,0-1.41l4.66-4.67a1,1,0,0,1,1.42,0L38.66,80.8a1,1,0,0,1,0,1.41L34,86.88A1,1,0,0,1,32.58,86.88ZM13.13,64.59,33.29,84.76l3.25-3.26L16.38,61.34Z"/><path class="cls-4" d="M23.75,95.71,2.18,74.13a1,1,0,0,1,0-1.41L11,63.89a1,1,0,0,1,1.41,0L34,85.46a1,1,0,0,1,0,1.42l-8.83,8.83A1,1,0,0,1,23.75,95.71ZM4.3,73.42,24.46,93.59l7.42-7.42L11.71,66Z"/></g></svg>