<svg xmlns="http://www.w3.org/2000/svg" viewBox="0 0 96 96"><defs><style>.cls-1{fill:#495f9c;}.cls-2{fill:#5d7db0;}.cls-3{fill:#6c8cbf;}.cls-4{fill:#9a9c9e;}.cls-5{fill:#aeb0b2;}.cls-6{fill:#808284;}.cls-7{fill:#87b5e3;}.cls-8{fill:#d2e7ff;}.cls-9{fill:#fff;}.cls-10{fill:#302d3d;}.cls-11{fill:#44cf87;}.cls-12{fill:#63e296;}.cls-13{fill:#3ab67d;}.cls-14{fill:#fbe2c9;}.cls-15{fill:#fbceab;}.cls-16{fill:#fbba8d;}.cls-17{fill:#ffa188;}.cls-18{fill:#d2ddf2;}</style></defs><title>Finger Print</title><g id="Finger_Print" data-name="Finger Print"><path class="cls-1" d="M45.66,5V65.22H4.94A3.93,3.93,0,0,1,1,61.29V8.94A3.93,3.93,0,0,1,4.94,5Z"/><path class="cls-2" d="M-3.78,15.78H50.44a0,0,0,0,1,0,0V53.51a.94.94,0,0,1-.94.94H-2.84a.94.94,0,0,1-.94-.94V15.78A0,0,0,0,1-3.78,15.78Z" transform="translate(58.45 11.78) rotate(90)"/><rect class="cls-3" x="11.21" y="8" width="24.24" height="21.78" rx="2.03"/><rect class="cls-1" x="1" y="29.78" width="47.66" height="23.31"/><rect class="cls-4" x="1" y="32.78" width="44.66" height="17.31"/><rect class="cls-5" x="17.68" y="22.1" width="11.31" height="38.66" transform="translate(64.76 18.1) rotate(90)"/><rect class="cls-6" x="6.39" y="37.35" width="8.16" height="8.16"/><path class="cls-2" d="M95,8.94V61.29a3.93,3.93,0,0,1-3.94,3.93H45.66V5h45.4A3.93,3.93,0,0,1,95,8.94Z"/><path class="cls-7" d="M44.16,13.45H96.5a.94.94,0,0,1,.94.94v42.4a0,0,0,0,1,0,0H43.22a0,0,0,0,1,0,0V14.38A.94.94,0,0,1,44.16,13.45Z" transform="translate(105.45 -35.22) rotate(90)"/><polygon class="cls-2" points="50.67 37.85 50.67 32.78 90.07 32.78 89.99 37.85 50.67 37.85"/><rect class="cls-8" x="56" y="39.98" width="28.66" height="14.24" rx="1.44"/><rect class="cls-8" x="56" y="56.32" width="28.66" height="3.91" rx="1.44"/><path class="cls-2" d="M54.63,54.23v11h-9V48.54a4.78,4.78,0,0,1,.73.76A5.53,5.53,0,0,1,54.63,54.23Z"/><polygon class="cls-8" points="50.67 32.78 50.67 10.01 90.07 10.01 89.99 32.78 50.67 32.78"/><path class="cls-9" d="M65.63,14.94l-10,10a1.13,1.13,0,0,1-1.93-.79v-10A1.14,1.14,0,0,1,54.8,13h10A1.13,1.13,0,0,1,65.63,14.94Z"/><path class="cls-9" d="M81.06,14.94,67.13,28.87a3.1,3.1,0,0,1-2.19.91H57.85a1.13,1.13,0,0,1-.79-1.93L71,13.92A3.1,3.1,0,0,1,73.18,13h7.09A1.13,1.13,0,0,1,81.06,14.94Z"/><path class="cls-10" d="M91.06,66.22H45.66a1,1,0,0,1-1-1V5a1,1,0,0,1,1-1h45.4A5,5,0,0,1,96,8.94V61.29A4.94,4.94,0,0,1,91.06,66.22Zm-44.4-2h44.4A2.94,2.94,0,0,0,94,61.29V8.94A2.94,2.94,0,0,0,91.06,6H46.66Z"/><path class="cls-10" d="M55,46.21H52.42a1,1,0,0,1,0-2H55a1,1,0,0,1,0,2Z"/><path class="cls-10" d="M63.33,46.21H60.75a1,1,0,0,1,0-2h2.58a1,1,0,0,1,0,2Z"/><path class="cls-10" d="M71.66,46.21H69.08a1,1,0,0,1,0-2h2.58a1,1,0,0,1,0,2Z"/><path class="cls-10" d="M80,46.21H77.41a1,1,0,0,1,0-2H80a1,1,0,0,1,0,2Z"/><path class="cls-10" d="M88.32,46.21H85.74a1,1,0,0,1,0-2h2.58a1,1,0,0,1,0,2Z"/><path class="cls-10" d="M55,52.78H52.42a1,1,0,0,1,0-2H55a1,1,0,0,1,0,2Z"/><path class="cls-10" d="M63.33,52.78H60.75a1,1,0,0,1,0-2h2.58a1,1,0,0,1,0,2Z"/><path class="cls-10" d="M71.66,52.78H69.08a1,1,0,0,1,0-2h2.58a1,1,0,0,1,0,2Z"/><path class="cls-10" d="M80,52.78H77.41a1,1,0,0,1,0-2H80a1,1,0,0,1,0,2Z"/><path class="cls-10" d="M88.32,52.78H85.74a1,1,0,1,1,0-2h2.58a1,1,0,0,1,0,2Z"/><path class="cls-10" d="M55,59.36H52.42a1,1,0,0,1,0-2H55a1,1,0,0,1,0,2Z"/><path class="cls-10" d="M63.33,59.36H60.75a1,1,0,0,1,0-2h2.58a1,1,0,0,1,0,2Z"/><path class="cls-10" d="M71.66,59.36H69.08a1,1,0,0,1,0-2h2.58a1,1,0,0,1,0,2Z"/><path class="cls-10" d="M80,59.36H77.41a1,1,0,0,1,0-2H80a1,1,0,0,1,0,2Z"/><path class="cls-10" d="M88.32,59.36H85.74a1,1,0,0,1,0-2h2.58a1,1,0,0,1,0,2Z"/><path class="cls-10" d="M90,33.78H50.67a1,1,0,0,1-1-1V10a1,1,0,0,1,1-1h39.4a1,1,0,0,1,1,1L91,32.78A1,1,0,0,1,90,33.78Zm-38.32-2H89L89.06,11H51.67Z"/><path class="cls-10" d="M90,38.85H50.67a1,1,0,0,1-1-1V32.78a1,1,0,0,1,1-1h39.4a1,1,0,0,1,1,1L91,37.87A1,1,0,0,1,90,38.85Zm-38.32-2H89l0-3.07H51.67Z"/><path class="cls-9" d="M87,17.47l0,11.19a1.12,1.12,0,0,1-1.12,1.12H74.72a1.13,1.13,0,0,1-.79-1.93L85.12,16.66A1.13,1.13,0,0,1,87,17.47Z"/><rect class="cls-11" x="20.07" y="32.78" width="15.31" height="17.31"/><rect class="cls-12" x="22.07" y="34.78" width="11.31" height="13.31"/><path class="cls-1" d="M45.66,50.09V65.22H11.34A5.7,5.7,0,0,1,20,57.82l2.58,2.57V50.09Z"/><path class="cls-13" d="M35.38,45.78v4.31H22.54V41.36a5.51,5.51,0,0,1,5.51-5.5,5.6,5.6,0,0,1,5.52,5.65V46A5.51,5.51,0,0,1,35.38,45.78Z"/><path class="cls-6" d="M45.66,48.54v1.55H35.38V45.78a5.44,5.44,0,0,1,4,2.11A5.38,5.38,0,0,1,45.66,48.54Z"/><path class="cls-10" d="M45.66,66.22H4.94A4.94,4.94,0,0,1,0,61.29V8.94A4.94,4.94,0,0,1,4.94,4H45.66a1,1,0,0,1,1,1V65.22A1,1,0,0,1,45.66,66.22ZM4.94,6A2.94,2.94,0,0,0,2,8.94V61.29a2.94,2.94,0,0,0,2.94,2.93H44.66V6Z"/><path class="cls-10" d="M45.66,51.09H1a1,1,0,0,1-1-1V32.78a1,1,0,0,1,1-1H45.66a1,1,0,0,1,1,1V50.09A1,1,0,0,1,45.66,51.09ZM2,49.09H44.66V33.78H2Z"/><path class="cls-10" d="M35.38,51.09H20.07a1,1,0,0,1-1-1V32.78a1,1,0,0,1,1-1H35.38a1,1,0,0,1,1,1V50.09A1,1,0,0,1,35.38,51.09Zm-14.31-2H34.38V33.78H21.07Z"/><path class="cls-10" d="M14.55,46.51H6.39a1,1,0,0,1-1-1V37.35a1,1,0,0,1,1-1h8.16a1,1,0,0,1,1,1v8.16A1,1,0,0,1,14.55,46.51Zm-7.16-2h6.16V38.35H7.39Z"/><path class="cls-14" d="M52.63,54.23V71.32a6,6,0,0,1-1.75,4.23,5.91,5.91,0,0,0-1.76,4.22v1.34H24.54a7.56,7.56,0,0,0-1.65-4.71L13,64.16a3.7,3.7,0,0,1,5.51-4.93l6,6V41.36a3.51,3.51,0,0,1,3.62-3.5,3.61,3.61,0,0,1,3.41,3.65v9.77a3.51,3.51,0,0,1,3.61-3.51,3.6,3.6,0,0,1,3.41,3.65v1.26a3.51,3.51,0,0,1,3.62-3.51,3.61,3.61,0,0,1,3.4,3.66v1.25a3.49,3.49,0,0,1,4.89-3.21A3.68,3.68,0,0,1,52.63,54.23Z"/><path class="cls-15" d="M52.63,56.05V71.32a6,6,0,0,1-1.75,4.23,5.91,5.91,0,0,0-1.76,4.22v1.34H24.54a7.56,7.56,0,0,0-1.65-4.71L13,64.16a3.68,3.68,0,0,1-.7-1.4,3.71,3.71,0,0,1,6.21-1.71l6,6V43.18a3.51,3.51,0,0,1,3.62-3.5,3.61,3.61,0,0,1,3.41,3.65V53.1a3.51,3.51,0,0,1,3.61-3.51,3.6,3.6,0,0,1,3.41,3.65V54.5A3.51,3.51,0,0,1,42.21,51a3.61,3.61,0,0,1,3.4,3.66V55.9a3.51,3.51,0,0,1,3.62-3.51A3.62,3.62,0,0,1,52.63,56.05Z"/><path class="cls-14" d="M44.22,59.94a60,60,0,0,1-3.78,7.78A1.76,1.76,0,0,0,42,70.36h3.9a1.76,1.76,0,0,0,1.76-1.76v-8A1.76,1.76,0,0,0,44.22,59.94Z"/><path class="cls-16" d="M51.74,56.32a.89.89,0,0,0-.88.88V69.55a5.91,5.91,0,0,1-1.76,4.22A6,6,0,0,0,47.35,78v1.34h-23a7.52,7.52,0,0,1,.21,1.77H49.12V79.77a5.91,5.91,0,0,1,1.76-4.22,6,6,0,0,0,1.75-4.23V57.2a.89.89,0,0,0-.89-.88Z"/><path class="cls-17" d="M24.33,79.34H49.14c0,.14,0,1.77,0,1.77H24.54A7.52,7.52,0,0,0,24.33,79.34Z"/><path class="cls-2" d="M50.33,82.15V90a1,1,0,0,1-1,1H24.37a1,1,0,0,1-1-1V82.15a1,1,0,0,1,1-1H49.29A1,1,0,0,1,50.33,82.15Z"/><path class="cls-7" d="M46.71,82.15V90a1,1,0,0,1-1,1H24.37a1,1,0,0,1-1-1V82.15a1,1,0,0,1,1-1h21.3A1,1,0,0,1,46.71,82.15Z"/><path class="cls-18" d="M27.84,81.11H46.71a0,0,0,0,1,0,0v4.06a.88.88,0,0,1-.88.88h-18a.88.88,0,0,1-.88-.88V82A.88.88,0,0,1,27.84,81.11Z"/><path class="cls-10" d="M49.18,82.11H24.6a1,1,0,0,1-1-1A6.51,6.51,0,0,0,22.16,77L12.32,64.79a4.7,4.7,0,0,1,7-6.27l4.29,4.29V41.36a4.5,4.5,0,0,1,4.65-4.5,4.62,4.62,0,0,1,4.37,4.65v6a4.46,4.46,0,0,1,6.53,1.79,4.46,4.46,0,0,1,7,1.4,4.53,4.53,0,0,1,7.52,3.51V71.32a6.9,6.9,0,0,1-2,4.93c-1.62,1.62-1.46,3.35-1.46,4.86A1,1,0,0,1,49.18,82.11Zm-23.64-2H48.18a7,7,0,0,1,2-5.27,5,5,0,0,0,1.46-3.52V54.23a2.51,2.51,0,1,0-5-.15,1,1,0,0,1-2,0V52.83a2.53,2.53,0,0,0-4.26-1.95,2.44,2.44,0,0,0-.77,1.8,1,1,0,0,1-2,0V51.42a2.51,2.51,0,1,0-5-.14,1,1,0,1,1-2,0V41.51a2.51,2.51,0,1,0-5-.15V65.22a1,1,0,0,1-1.71.71l-6-6a2.77,2.77,0,0,0-3.82,0,2.71,2.71,0,0,0-.19,3.61l9.84,12.24A8.54,8.54,0,0,1,25.54,80.11Z"/><path class="cls-10" d="M49.35,92H24.43a2,2,0,0,1-2-2V82.15a2,2,0,0,1,2-2H49.35a2,2,0,0,1,2,2V90A2,2,0,0,1,49.35,92ZM24.43,82.11c0,8.28-.1,7.79,0,7.89H49.35l0-7.85Z"/></g></svg>