<svg xmlns="http://www.w3.org/2000/svg" viewBox="0 0 96 96"><defs><style>.cls-1{fill:#fe4a55;}.cls-2{fill:#e61f34;}.cls-3{fill:#302d3d;}.cls-4{fill:#ffa64d;}.cls-5{fill:#ffca6e;}.cls-6{fill:#fff;}.cls-7{fill:#87b5e3;}.cls-8{fill:#5f83cf;}.cls-9{fill:#4d6dc7;}.cls-10{fill:#ffe391;}.cls-11{fill:#ff736e;}</style></defs><title>ID Card</title><g id="ID_Card" data-name="ID Card"><polygon class="cls-1" points="74.75 1 58.51 1 39.38 36.75 55.63 36.75 74.75 1"/><polygon class="cls-2" points="67.58 1 58.51 1 39.38 36.75 48.45 36.75 67.58 1"/><path class="cls-3" d="M55.63,37.75H39.38a1,1,0,0,1-.88-1.47L57.63.53A1,1,0,0,1,58.51,0H74.75a1,1,0,0,1,.88,1.47L56.51,37.22A1,1,0,0,1,55.63,37.75Zm-14.58-2H55L73.08,2h-14Z"/><path class="cls-3" d="M48.46,37.75H39.38a1,1,0,0,1-.88-1.47L57.63.53A1,1,0,0,1,58.51,0h9.08a1,1,0,0,1,.88,1.47L49.34,37.22A1,1,0,0,1,48.46,37.75Zm-7.41-2h6.81L65.92,2H59.11Z"/><rect class="cls-4" x="26.75" y="32.67" width="41.5" height="62.33" rx="2.5"/><rect class="cls-5" x="19.33" y="46.08" width="56.33" height="35.5" transform="translate(111.33 16.33) rotate(90)"/><rect class="cls-6" x="31.83" y="40.15" width="31.34" height="32.08" rx="1.34"/><rect class="cls-6" x="35.21" y="77.44" width="24.57" height="5.24" rx="1.34"/><rect class="cls-7" x="33.83" y="42.15" width="27.34" height="28.08"/><path class="cls-3" d="M65.75,96H29.25a3.5,3.5,0,0,1-3.5-3.5V35.17a3.5,3.5,0,0,1,3.5-3.5h36.5a3.5,3.5,0,0,1,3.5,3.5V92.5A3.5,3.5,0,0,1,65.75,96ZM29.25,33.67a1.5,1.5,0,0,0-1.5,1.5V92.5a1.5,1.5,0,0,0,1.5,1.5h36.5a1.5,1.5,0,0,0,1.5-1.5V35.17a1.5,1.5,0,0,0-1.5-1.5Z"/><circle class="cls-8" cx="47.5" cy="53.58" r="5.56"/><path class="cls-8" d="M43.81,59.15h7.38a4.44,4.44,0,0,1,4.44,4.44v6.65a0,0,0,0,1,0,0H39.38a0,0,0,0,1,0,0V63.58A4.44,4.44,0,0,1,43.81,59.15Z"/><path class="cls-9" d="M45.41,59.15h4.19a0,0,0,0,1,0,0v1.44a2.09,2.09,0,0,1-2.09,2.09h0a2.09,2.09,0,0,1-2.09-2.09V59.15A0,0,0,0,1,45.41,59.15Z"/><rect class="cls-10" x="36.5" y="75" width="22" height="4.88"/><polygon class="cls-11" points="55.62 36.75 39.38 36.75 20.25 1 36.5 1 55.62 36.75"/><path class="cls-6" d="M46.91,28.11a1.19,1.19,0,0,1-1.07-.63L35.25,7.7a1.19,1.19,0,0,1,2.09-1.12L47.92,26.37A1.18,1.18,0,0,1,46.91,28.11Z"/><polygon class="cls-1" points="48.46 36.75 39.38 36.75 20.25 1 29.33 1 48.46 36.75"/><path class="cls-3" d="M55.62,37.75H39.38a1,1,0,0,1-.88-.53L19.37,1.47A1,1,0,0,1,20.25,0H36.5a1,1,0,0,1,.88.53L56.5,36.28A1,1,0,0,1,55.62,37.75ZM40,35.75H54L35.9,2h-14Z"/><path class="cls-3" d="M48.46,37.75H39.38a1,1,0,0,1-.88-.53L19.37,1.47A1,1,0,0,1,20.25,0h9.08a1,1,0,0,1,.88.53L49.34,36.28A1,1,0,0,1,48.46,37.75Zm-8.48-2h6.81L28.73,2H21.92Z"/><path class="cls-3" d="M61.17,71.23H33.84a1,1,0,0,1-1-1V42.15a1,1,0,0,1,1-1H61.17a1,1,0,0,1,1,1V70.23A1,1,0,0,1,61.17,71.23Zm-26.33-2H60.17V43.15H34.84Z"/><path class="cls-3" d="M47.5,60.15a6.57,6.57,0,1,1,6.56-6.57A6.57,6.57,0,0,1,47.5,60.15ZM47.5,49a4.57,4.57,0,1,0,4.56,4.56A4.57,4.57,0,0,0,47.5,49Z"/><path class="cls-3" d="M55.63,71.23H39.38a1,1,0,0,1-1-1V63.58a5.44,5.44,0,0,1,5.43-5.43h7.38a5.44,5.44,0,0,1,5.44,5.43v6.65A1,1,0,0,1,55.63,71.23Zm-15.25-2H54.63V63.58a3.44,3.44,0,0,0-3.44-3.43H43.81a3.44,3.44,0,0,0-3.43,3.43Z"/><path class="cls-3" d="M43.67,71.23a1,1,0,0,1-1-1V66.08a1,1,0,0,1,2,0v4.15A1,1,0,0,1,43.67,71.23Z"/><path class="cls-3" d="M51.34,71.23a1,1,0,0,1-1-1V66.08a1,1,0,0,1,2,0v4.15A1,1,0,0,1,51.34,71.23Z"/><path class="cls-3" d="M47.5,63.68a3.1,3.1,0,0,1-3.09-3.1V59.15a1,1,0,0,1,1-1H49.6a1,1,0,0,1,1,1v1.43A3.1,3.1,0,0,1,47.5,63.68Zm-1.09-3.53v.43a1.1,1.1,0,1,0,2.19,0v-.43Z"/><path class="cls-3" d="M58.5,80.88h-22a1,1,0,0,1-1-1V75a1,1,0,0,1,1-1h22a1,1,0,0,1,1,1v4.88A1,1,0,0,1,58.5,80.88Zm-21-2h20V76h-20Z"/><path class="cls-3" d="M55.63,86.19H39.38a1,1,0,1,1,0-2H55.63a1,1,0,0,1,0,2Z"/><path class="cls-3" d="M55.63,90.38H39.38a1,1,0,1,1,0-2H55.63a1,1,0,0,1,0,2Z"/></g></svg>