<svg xmlns="http://www.w3.org/2000/svg" viewBox="0 0 96 96"><defs><style>.cls-1{fill:#4e69b5;}.cls-2{fill:#5d7db0;}.cls-3{fill:#302d3d;}.cls-4{fill:#ffa68d;}.cls-5{fill:#3f3c6a;}.cls-6{fill:#302856;}.cls-7{fill:#4e5088;}.cls-8{fill:#4e5fba;}.cls-9{fill:#fb8d74;}.cls-10{fill:#fbc4ab;}.cls-11{fill:#b2e6ff;}.cls-12{fill:#71a5d8;}.cls-13{fill:#a8dcfb;}.cls-14{fill:#fff;}.cls-15{fill:#f09d65;}.cls-16{fill:#ffc088;}.cls-17{fill:#ffd9b5;}.cls-18{fill:#ffbaab;}.cls-19{fill:#ffd3c4;}.cls-20{fill:#74383d;}.cls-21{fill:#88515b;}.cls-22{fill:#92606f;}.cls-23{fill:#dee2e6;}.cls-24{fill:#e9ecef;}.cls-25{fill:#f8f9fa;}</style></defs><title>Interview</title><g id="Interview"><path class="cls-1" d="M90.21,72.82H39.5L43.9,53a11.2,11.2,0,0,1,7.83-8.34l7.79-2.24H70.19L78,44.68A11.21,11.21,0,0,1,85.81,53Z"/><path class="cls-2" d="M42.7,72.82l4.13-19.15a8.23,8.23,0,0,1,5.73-6.11L60,45.43h9.81l7.38,2.13a8.22,8.22,0,0,1,5.74,6.11l4.25,19.15Z"/><path class="cls-3" d="M90.13,73.9H39.42a1,1,0,0,1-1-1.21l4.4-19.81a12.21,12.21,0,0,1,8.53-9.08l7.79-2.24c.2-.06-.67,0,10.94,0,.22,0-.32-.14,8.07,2.28a12.21,12.21,0,0,1,8.53,9.08l4.4,19.81A1,1,0,0,1,90.13,73.9Zm-49.46-2H88.88L84.76,53.32a10.22,10.22,0,0,0-7.14-7.6L70,43.52H59.59l-7.66,2.2a10.21,10.21,0,0,0-7.13,7.6Z"/><polygon class="cls-4" points="70.19 42.44 70.19 34.73 59.52 34.73 59.52 42.44 64.85 52.56 70.19 42.44"/><path class="cls-5" d="M66.74,0H49.58a14.61,14.61,0,0,0,2.86,4.6,14.33,14.33,0,0,0-3.87,9.79v6.39H81.13V14.39A14.39,14.39,0,0,0,66.74,0Z"/><rect class="cls-6" x="48.57" y="15.58" width="32.56" height="5.19"/><path class="cls-7" d="M69.59,7.08H59.38A5.29,5.29,0,0,1,55.18,5L54,3.53A1,1,0,0,1,54.8,2C67.64,2,68,1.81,70.31,2.5A2.35,2.35,0,0,1,69.59,7.08Z"/><rect class="cls-8" x="60.78" y="1.98" width="5.99" height="1.93" rx="0.97"/><path class="cls-3" d="M81.12,21.79H48.43a1,1,0,0,1-1-1V14.38A15.37,15.37,0,0,1,51,4.54,15.48,15.48,0,0,1,48.51.29a1,1,0,0,1,.94-1.36H66.68A15.46,15.46,0,0,1,82.12,14.38v6.41A1,1,0,0,1,81.12,21.79Zm-31.69-2H80.12V14.38A13.46,13.46,0,0,0,66.68.93H51a13.54,13.54,0,0,0,2.06,2.94,1,1,0,0,1,0,1.36,13.39,13.39,0,0,0-3.62,9.15Z"/><path class="cls-4" d="M84.06,23.84a3,3,0,0,1-3,3.05H48.7a3.06,3.06,0,0,1,0-6.11H81A3.06,3.06,0,0,1,84.06,23.84Z"/><path class="cls-9" d="M70.22,36.43v4.78a16.51,16.51,0,0,1-10.73,0V36.43Z"/><path class="cls-3" d="M63.89,53.11,58.56,43c-.16-.31-.11.2-.11-8.16a1,1,0,0,1,1-1H70.11a1,1,0,0,1,1,1v7.7c0,.35.38-.49-5.45,10.59A1,1,0,0,1,63.89,53.11ZM60.45,42.27l4.33,8.23,4.33-8.23V35.82H60.45Zm9.66.25h0Z"/><path class="cls-9" d="M80.73,20.78c0,4.15,0,5-.07,6.11H49.05C49,26,49,25.85,49,20.78Z"/><path class="cls-3" d="M81,27.93H48.56a4.07,4.07,0,0,1,0-8.14H81a4.07,4.07,0,1,1,0,8.14ZM48.56,21.79a2.07,2.07,0,0,0,0,4.14H81a2.07,2.07,0,1,0,0-4.14Z"/><path class="cls-10" d="M79.06,20.78V25.4a14.21,14.21,0,0,1-28.41,0V20.78l2.63-3.35a5.34,5.34,0,0,0,1.12-3.07l.15-4.16a1.79,1.79,0,0,1,1.79-1.71,66.72,66.72,0,0,0,16.81,0,1.77,1.77,0,0,1,2,1.69l.16,4.16a5.27,5.27,0,0,0,1.12,3.07Z"/><polygon class="cls-11" points="83.04 68.46 46.67 68.46 43.83 46.83 85.88 46.83 83.04 68.46"/><polygon class="cls-12" points="44.32 50.59 46.67 68.46 83.04 68.46 85.39 50.59 44.32 50.59"/><polygon class="cls-13" points="48.89 65.93 46.87 50.59 82.83 50.59 80.82 65.93 48.89 65.93"/><rect class="cls-1" x="46.67" y="68.46" width="36.37" height="4.37"/><circle class="cls-14" cx="64.85" cy="57.64" r="3.04"/><rect class="cls-15" x="7.5" y="72.82" width="87.1" height="23.18"/><rect class="cls-16" x="40.96" y="45.36" width="20.18" height="81.1" transform="translate(136.96 34.86) rotate(90)"/><path class="cls-17" d="M48,52.32h9.45A4.64,4.64,0,0,1,62.13,57v56.46a0,0,0,0,1,0,0H48a0,0,0,0,1,0,0V52.32A0,0,0,0,1,48,52.32Z" transform="translate(137.95 27.78) rotate(90)"/><path class="cls-3" d="M94.53,97.08H7.42a1,1,0,0,1-1-1V72.9a1,1,0,0,1,1-1H94.53a1,1,0,0,1,1,1V96.08A1,1,0,0,1,94.53,97.08Zm-86.11-2H93.53V73.9H8.42Z"/><polygon class="cls-18" points="31.69 65.61 31.69 57.91 21.02 57.91 21.02 65.61 26.35 75.74 31.69 65.61"/><path class="cls-3" d="M25.39,76.29,20.06,66.16c-.16-.31-.11.2-.11-8.17a1,1,0,0,1,1-1H31.61a1,1,0,0,1,1,1v7.7c0,.36.38-.48-5.45,10.6A1,1,0,0,1,25.39,76.29ZM22,65.45l4.33,8.22,4.33-8.22V59H22Zm9.66.24h0Z"/><path class="cls-19" d="M40.62,42.51v4.64a14.27,14.27,0,0,1-28.53,0V42.51l2.64-3.36a5.31,5.31,0,0,0,1.13-3.08L16,31.89a1.79,1.79,0,0,1,1.79-1.72,66.84,66.84,0,0,0,16.89,0,1.78,1.78,0,0,1,2,1.7l.16,4.18A5.31,5.31,0,0,0,38,39.15Z"/><path class="cls-3" d="M26.28,62.49A15.27,15.27,0,0,1,11,47.23V42.59c0-.46,0-.29,2.85-4a4.29,4.29,0,0,0,.91-2.49l.16-4.18a2.78,2.78,0,0,1,3.11-2.66,65,65,0,0,0,16.44,0,2.79,2.79,0,0,1,3.13,2.66l.15,4.18a4.43,4.43,0,0,0,.92,2.5L41.33,42c.29.38.21.19.21,5.26A15.28,15.28,0,0,1,26.28,62.49ZM13,42.94v4.29a13.26,13.26,0,1,0,26.52,0V42.94l-2.43-3.09a6.38,6.38,0,0,1-1.34-3.66L35.62,32a.8.8,0,0,0-.28-.57c-.4-.34-.45-.13-3.14.09a66.27,66.27,0,0,1-14.37-.27.78.78,0,0,0-.89.75l-.16,4.18a6.38,6.38,0,0,1-1.34,3.66Z"/><path class="cls-20" d="M24.46,21.65h3.79c6.13,0,10.56,4.62,10.56,4.62A14.33,14.33,0,0,1,42.7,36.1V48.54a8,8,0,0,1-8,8H18a8,8,0,0,1-8-8V36.1A14.45,14.45,0,0,1,24.46,21.65Z"/><path class="cls-21" d="M42.7,40.81V36.1a14.33,14.33,0,0,0-3.89-9.83s-4.43-4.62-10.56-4.62H24.46A14.45,14.45,0,0,0,10,36.1v4.71a9.32,9.32,0,0,0,6.72,8.95,34.44,34.44,0,0,0,19.25,0A9.32,9.32,0,0,0,42.7,40.81Z"/><path class="cls-22" d="M18.4,41A3.33,3.33,0,0,1,16,37.81V33.1a8.46,8.46,0,0,1,8.45-8.45h3.79c3.2,0,5.9,2.45,6.25,2.78a8.42,8.42,0,0,1,2.2,5.67v4.71A3.35,3.35,0,0,1,34.31,41,28.5,28.5,0,0,1,18.4,41Z"/><path class="cls-23" d="M51.71,96H1L5.4,76.2a11.19,11.19,0,0,1,7.83-8.34L21,65.61H31.69l7.78,2.25a11.18,11.18,0,0,1,7.84,8.34Z"/><path class="cls-24" d="M4.31,96l4-19.18a8.19,8.19,0,0,1,5.73-6.11l7.39-2.13h9.81l7.38,2.13a8.19,8.19,0,0,1,5.74,6.11L48.66,96Z"/><path class="cls-25" d="M11.46,96l2.72-13a5.53,5.53,0,0,1,3.89-4.13l5-1.45h6.65l5,1.45A5.53,5.53,0,0,1,38.61,83l2.9,13Z"/><path class="cls-3" d="M83,69.54H46.59a1,1,0,0,1-1-.87L42.76,47a1,1,0,0,1,1-1.13H85.8a1,1,0,0,1,1,1.13L84,68.67A1,1,0,0,1,83,69.54Zm-35.49-2H82.09l2.57-19.63H44.89Z"/><path class="cls-3" d="M83,73.9H46.59a1,1,0,0,1-1-1V68.54a1,1,0,0,1,1-1H83a1,1,0,0,1,1,1V72.9A1,1,0,0,1,83,73.9Zm-35.37-2H82V69.54H47.59Z"/><path class="cls-3" d="M64.78,61.77a4,4,0,1,1,4-4.05A4.06,4.06,0,0,1,64.78,61.77Zm0-6.09a2,2,0,1,0,2,2A2.05,2.05,0,0,0,64.78,55.68Z"/><path class="cls-3" d="M52.3,5.53a1,1,0,0,1-.73-1.68,16,16,0,0,1,2.89-2.43,1,1,0,0,1,1.39.3,1,1,0,0,1-.3,1.38C53.14,4.67,53.17,5.53,52.3,5.53Z"/><path class="cls-3" d="M64.78,40.69A15.29,15.29,0,0,1,49.51,25.43V20.79c0-.47,0-.29,2.86-4a4.29,4.29,0,0,0,.91-2.49l.16-4.19a2.78,2.78,0,0,1,3.11-2.66A65,65,0,0,0,73,7.48a2.78,2.78,0,0,1,3.13,2.65l.15,4.19a4.36,4.36,0,0,0,.92,2.5l2.64,3.35c.29.37.21.19.21,5.26A15.28,15.28,0,0,1,64.78,40.69ZM51.51,21.14v4.29a13.27,13.27,0,0,0,26.53,0V21.14l-2.43-3.09a6.38,6.38,0,0,1-1.34-3.66l-.15-4.18a.79.79,0,0,0-.28-.57c-.4-.34-.47-.13-3.14.09a66.83,66.83,0,0,1-14.37-.27.78.78,0,0,0-.89.75l-.16,4.18A6.33,6.33,0,0,1,53.94,18Z"/><path class="cls-3" d="M70.47,22.46a1,1,0,0,1-1-1v-.63a1,1,0,0,1,2,0v.63A1,1,0,0,1,70.47,22.46Z"/><path class="cls-3" d="M71.92,19H69a1,1,0,0,1,0-2h2.9a1,1,0,0,1,0,2Z"/><path class="cls-3" d="M59.08,22.46a1,1,0,0,1-1-1v-.63a1,1,0,0,1,2,0v.63A1,1,0,0,1,59.08,22.46Z"/><path class="cls-3" d="M60.54,19H57.63a1,1,0,1,1,0-2h2.91a1,1,0,0,1,0,2Z"/><path class="cls-3" d="M61.07,31.82a1,1,0,0,1,.27-1.39,1,1,0,0,1,1.39.27,2.47,2.47,0,0,0,4.11,0,1,1,0,1,1,1.67,1.1A4.48,4.48,0,0,1,61.07,31.82Z"/><path class="cls-3" d="M71.92,13a1,1,0,0,1-1-.9l-.37-3.39a1,1,0,1,1,2-.21l.37,3.39A1,1,0,0,1,71.92,13Z"/><path class="cls-3" d="M34.63,57.62H17.93a9,9,0,0,1-9-9V36.18A15.47,15.47,0,0,1,24.38,20.73h3.8c6.47,0,11.09,4.72,11.28,4.92a15.39,15.39,0,0,1,4.16,10.53V48.62A9,9,0,0,1,34.63,57.62ZM24.38,22.73A13.46,13.46,0,0,0,10.93,36.18V48.62a7,7,0,0,0,7,7h16.7a7,7,0,0,0,7-7V36.18A13.38,13.38,0,0,0,38,27s-4.23-4.3-9.83-4.3Z"/><path class="cls-3" d="M51.63,97.08H.92a1,1,0,0,1-1-1.22l4.4-19.8A12.21,12.21,0,0,1,12.88,67l7.79-2.25c.19,0-.58,0,10.94,0,.22,0-.32-.13,8.07,2.29a12.21,12.21,0,0,1,8.53,9.08l4.4,19.8A1,1,0,0,1,51.63,97.08Zm-49.46-2H50.38L46.26,76.49a10.22,10.22,0,0,0-7.14-7.59l-7.65-2.21H21.09L13.43,68.9A10.21,10.21,0,0,0,6.3,76.49Z"/></g></svg>