<svg xmlns="http://www.w3.org/2000/svg" viewBox="0 0 96 96"><defs><style>.cls-1{fill:#f0824b;}.cls-2{fill:#f0553c;}.cls-3{fill:#ffca6e;}.cls-4{fill:#e9ecef;}.cls-5{fill:#ffa64d;}.cls-6{fill:#ffe391;}.cls-7{fill:#fff;}.cls-8{fill:#fe4a55;}.cls-9{fill:#ff6d78;}.cls-10{fill:#e61f34;}.cls-11{fill:#c85f32;}.cls-12{fill:#e17837;}.cls-13{fill:#302d3d;}</style></defs><title>Job Seeker</title><g id="Job_Seeker" data-name="Job Seeker"><path class="cls-1" d="M71.37,63.62l-7.75,7.75L53.39,61.14a32.77,32.77,0,0,0,7.75-7.75Z"/><path class="cls-2" d="M65.43,57.68a38.7,38.7,0,0,1-7.75,7.75l-4.29-4.29a32.77,32.77,0,0,0,7.75-7.75Z"/><circle class="cls-3" cx="34.14" cy="34.14" r="33.16"/><circle class="cls-4" cx="34.14" cy="34.14" r="23.75"/><path class="cls-5" d="M55.85,43.77A23.73,23.73,0,0,1,43.53,55.94a4.71,4.71,0,1,0,3.73,8.66,33.21,33.21,0,0,0,17.18-17,4.71,4.71,0,0,0-8.59-3.86Z"/><path class="cls-6" d="M12.43,24.51A23.73,23.73,0,0,1,24.74,12.33,4.71,4.71,0,1,0,21,3.67a33.23,33.23,0,0,0-17.18,17,4.71,4.71,0,0,0,8.59,3.86Z"/><circle class="cls-7" cx="34.14" cy="34.14" r="19.75"/><path class="cls-8" d="M94.45,86.12l-8.33,8.33a2.22,2.22,0,0,1-3.14,0L62.22,73.69a2.2,2.2,0,0,1,0-3.13l8.34-8.34a2.2,2.2,0,0,1,3.13,0L94.45,83A2.22,2.22,0,0,1,94.45,86.12Z"/><path class="cls-9" d="M85.18,80.78l-4.53,4.53a1.39,1.39,0,0,1-2,0L67,73.66a1.39,1.39,0,0,1,0-2l4.53-4.53a1.39,1.39,0,0,1,2,0L85.18,78.82A1.39,1.39,0,0,1,85.18,80.78Z"/><rect class="cls-10" x="79.84" y="84.66" width="16.22" height="6.59" rx="2.22" transform="translate(-36.43 87.95) rotate(-45)"/><path class="cls-11" d="M22,26.84H46.32a2.49,2.49,0,0,1,2.49,2.49v16.2a0,0,0,0,1,0,0H19.46a0,0,0,0,1,0,0V29.33A2.49,2.49,0,0,1,22,26.84Z"/><path class="cls-12" d="M48.81,35.89V29.61A2.77,2.77,0,0,0,46,26.84H22.23a2.77,2.77,0,0,0-2.77,2.77v6.28Z"/><rect class="cls-3" x="31.68" y="32.38" width="4.91" height="7.04"/><path class="cls-13" d="M62.86,72.08,53.18,62.4C30.33,77.89,0,61.22,0,34.14A34.12,34.12,0,0,1,34.09,0C61.16,0,77.85,30.37,62.35,53.23L72,62.92a1,1,0,0,1,0,1.41l-7.75,7.75A1,1,0,0,1,62.86,72.08ZM54,60.39,63.57,70l6.34-6.34-9.57-9.56a1,1,0,0,1-.1-1.29,32.14,32.14,0,1,0-7.52,7.52A1,1,0,0,1,54,60.39Z"/><path class="cls-13" d="M16.59,51.64a24.75,24.75,0,1,1,35,0A24.78,24.78,0,0,1,16.59,51.64ZM18,18.05a22.75,22.75,0,1,0,32.17,0A22.79,22.79,0,0,0,18,18.05Z"/><path class="cls-13" d="M82.22,95.16,61.46,74.4a3.22,3.22,0,0,1,0-4.55l8.34-8.34a3.31,3.31,0,0,1,4.55,0L95.11,82.27a3.23,3.23,0,0,1,0,4.55h0l-8.34,8.34A3.21,3.21,0,0,1,82.22,95.16Zm-11-32.23-8.33,8.33a1.22,1.22,0,0,0,0,1.72L83.64,93.75a1.26,1.26,0,0,0,1.72,0l8.34-8.34a1.23,1.23,0,0,0,0-1.72L72.93,62.93A1.21,1.21,0,0,0,71.21,62.93ZM94.4,86.12h0Z"/><path class="cls-13" d="M82.22,95.16,80.7,93.63a3.2,3.2,0,0,1,0-4.54L89,80.75a3.22,3.22,0,0,1,4.54,0l1.53,1.52a3.23,3.23,0,0,1,0,4.55h0l-8.34,8.34A3.23,3.23,0,0,1,82.22,95.16Zm9.09-13.35a1.24,1.24,0,0,0-.86.35L82.11,90.5a1.23,1.23,0,0,0,0,1.72l1.53,1.53a1.23,1.23,0,0,0,1.72,0l8.34-8.34a1.23,1.23,0,0,0,0-1.72C92.16,82.15,92,81.81,91.31,81.81Zm3.09,4.31h0Z"/><path class="cls-13" d="M74.34,86.86a1,1,0,0,1-.71-1.71L85.1,73.68a1,1,0,1,1,1.42,1.42L75.05,86.57A1,1,0,0,1,74.34,86.86Z"/><path class="cls-13" d="M70.45,83a1,1,0,0,1-.71-1.71L81.21,69.79a1,1,0,0,1,1.41,1.42L71.15,82.68A1,1,0,0,1,70.45,83Z"/><path class="cls-13" d="M66.56,79.08a1,1,0,0,1-.71-1.71L77.32,65.9a1,1,0,1,1,1.41,1.41L67.26,78.78A1,1,0,0,1,66.56,79.08Z"/><path class="cls-13" d="M48.76,46.53H19.41a1,1,0,0,1-1-1V29.33a3.5,3.5,0,0,1,3.5-3.49H46.27a3.49,3.49,0,0,1,3.49,3.49v16.2A1,1,0,0,1,48.76,46.53Zm-28.35-2H47.76V29.33a1.49,1.49,0,0,0-1.49-1.49H21.91a1.5,1.5,0,0,0-1.5,1.49Z"/><path class="cls-13" d="M48.76,36.89H19.41a1,1,0,0,1-1-1V29.61a3.77,3.77,0,0,1,3.77-3.77H46a3.77,3.77,0,0,1,3.77,3.77v6.28A1,1,0,0,1,48.76,36.89Zm-28.35-2H47.76V29.61A1.77,1.77,0,0,0,46,27.84H22.18a1.77,1.77,0,0,0-1.77,1.77Z"/><path class="cls-13" d="M41.73,27.84H26.45a1,1,0,0,1-1-1V22.65a2.85,2.85,0,0,1,2.84-2.85H39.88a2.86,2.86,0,0,1,2.85,2.85v4.19A1,1,0,0,1,41.73,27.84Zm-14.28-2H40.73V22.65a.85.85,0,0,0-.85-.85H28.29a.85.85,0,0,0-.84.85Z"/><path class="cls-13" d="M36.54,40.41H31.63a1,1,0,0,1-1-1v-7a1,1,0,0,1,1-1h4.91a1,1,0,0,1,1,1v7A1,1,0,0,1,36.54,40.41Zm-3.91-2h2.91v-5H32.63Z"/></g></svg>