<svg xmlns="http://www.w3.org/2000/svg" viewBox="0 0 96 96"><defs><style>.cls-1{fill:#6d7ea8;}.cls-2{fill:#302d3d;}.cls-3{fill:#dee2e6;}.cls-4{fill:#e9ecef;}.cls-5{fill:#f8f9fa;}.cls-6{fill:#fe4a55;}.cls-7{fill:#ff736e;}.cls-8{fill:#ffa68d;}.cls-9{fill:#fb8d74;}.cls-10{fill:#3f3c6a;}.cls-11{fill:#302856;}.cls-12{fill:#4e5088;}.cls-13{fill:#4e5fba;}.cls-14{fill:#fbc4ab;}.cls-15{fill:#ffca6e;}.cls-16{fill:#ffa64d;}.cls-17{fill:#fff;}.cls-18{fill:#f0824b;}</style></defs><title>Leader</title><g id="Leader"><path class="cls-1" d="M47.11,83.37a10.43,10.43,0,0,0-7.9-7l-6.38-1.25a1.82,1.82,0,0,1-1.49-1.8V70.56a1.83,1.83,0,0,1,1-1.64A13.8,13.8,0,0,0,39.87,58h1.79a3.07,3.07,0,0,0,3.13-2.81,3,3,0,0,0-3-3.13H39.91a13.8,13.8,0,0,0-27.56,0H10.59a3.1,3.1,0,0,0-3.14,2.81,3,3,0,0,0,3,3.13h2a13.83,13.83,0,0,0,7.52,10.88,1.83,1.83,0,0,1,1,1.63v2.79a1.83,1.83,0,0,1-1.49,1.8l-5.33,1A12.28,12.28,0,0,0,4.8,84.4L1.32,95h49.6Z"/><path class="cls-2" d="M50.92,96H1.32a1,1,0,0,1-.95-1.31l3.48-10.6A13.26,13.26,0,0,1,13.9,75.2l5.33-1a.84.84,0,0,0,.68-.82V70.55a.81.81,0,0,0-.45-.74A14.75,14.75,0,0,1,11.52,59h-1.1a4,4,0,1,1,.17-7.94h.85a14.8,14.8,0,0,1,29.38,0h1a4,4,0,0,1,4,4.18A4.05,4.05,0,0,1,41.66,59h-.91a14.77,14.77,0,0,1-8,10.78.81.81,0,0,0-.45.74v2.78a.83.83,0,0,0,.68.82l6.38,1.25a11.4,11.4,0,0,1,8.66,7.65l3.81,11.63A1,1,0,0,1,50.92,96ZM2.7,94H49.54L46.16,83.68h0A9.44,9.44,0,0,0,39,77.37l-6.38-1.24a2.85,2.85,0,0,1-2.3-2.79V70.56A2.8,2.8,0,0,1,31.89,68a12.76,12.76,0,0,0,7-10.09,1,1,0,0,1,1-.9h1.79a2.08,2.08,0,0,0,2.13-1.86,2,2,0,0,0-2-2.08H39.91a1,1,0,0,1-1-.94,12.8,12.8,0,0,0-25.56,0,1,1,0,0,1-1,.94H10.59A2,2,0,1,0,10.42,57h2a1,1,0,0,1,1,.9,12.76,12.76,0,0,0,7,10.08,2.83,2.83,0,0,1,1.55,2.53v2.79a2.86,2.86,0,0,1-2.3,2.79l-5.32,1a11.27,11.27,0,0,0-8.54,7.54Z"/><path class="cls-1" d="M90.87,83.37a10.45,10.45,0,0,0-7.9-7l-6.39-1.25a1.83,1.83,0,0,1-1.49-1.8V70.56a1.85,1.85,0,0,1,1-1.64A13.82,13.82,0,0,0,83.63,58h1.78a3.09,3.09,0,0,0,3.14-2.81,3,3,0,0,0-3-3.13H83.66a13.8,13.8,0,0,0-27.55,0H54.34a3.08,3.08,0,0,0-3.13,2.81,3,3,0,0,0,3,3.13h2a13.85,13.85,0,0,0,7.52,10.88,1.81,1.81,0,0,1,1,1.63v2.79a1.82,1.82,0,0,1-1.49,1.8l-5.32,1a12.28,12.28,0,0,0-9.3,8.22L45.08,95h49.6Z"/><path class="cls-2" d="M94.68,96H45.08a1,1,0,0,1-.95-1.31l3.47-10.6A13.29,13.29,0,0,1,57.66,75.2l5.32-1a.83.83,0,0,0,.68-.82V70.55a.81.81,0,0,0-.45-.74A14.75,14.75,0,0,1,55.27,59h-1.1a4,4,0,1,1,.17-7.94h.86a14.8,14.8,0,0,1,29.38,0h1a4,4,0,0,1,4,4.18A4.06,4.06,0,0,1,85.41,59H84.5a14.75,14.75,0,0,1-8,10.78.83.83,0,0,0-.45.74v2.78a.84.84,0,0,0,.68.82l6.39,1.25a11.43,11.43,0,0,1,8.66,7.65l3.81,11.63A1,1,0,0,1,94.68,96ZM46.46,94H93.3L89.92,83.68h0a9.45,9.45,0,0,0-7.14-6.31l-6.39-1.24a2.86,2.86,0,0,1-2.3-2.79V70.56A2.82,2.82,0,0,1,75.64,68a12.74,12.74,0,0,0,7-10.09,1,1,0,0,1,1-.9h1.78a2.09,2.09,0,0,0,2.14-1.86,2,2,0,0,0-2-2.08H83.66a1,1,0,0,1-1-.94,12.8,12.8,0,0,0-25.56,0,1,1,0,0,1-1,.94H54.34A2,2,0,1,0,54.17,57h2a1,1,0,0,1,1,.9,12.71,12.71,0,0,0,7,10.08,2.82,2.82,0,0,1,1.54,2.53v2.79a2.85,2.85,0,0,1-2.3,2.79l-5.32,1a11.27,11.27,0,0,0-8.54,7.54Z"/><path class="cls-3" d="M76.83,95H20.56l5.05-15.42a7.83,7.83,0,0,1,5.94-5.24l11.23-2.2H54.61l11.23,2.2a7.84,7.84,0,0,1,5.94,5.24Z"/><path class="cls-4" d="M73.26,95H23.72l4.74-14.48a4.86,4.86,0,0,1,3.66-3.24l11-2.13H54.32l10.94,2.13a4.83,4.83,0,0,1,3.66,3.24Z"/><path class="cls-5" d="M34.3,95,37,86.65a2.77,2.77,0,0,1,2.1-1.85l6.27-1.23h6.45L58.1,84.8a2.75,2.75,0,0,1,2.1,1.85L62.68,95Z"/><path class="cls-2" d="M76.83,96H20.56a1,1,0,0,1-.95-1.31l5.05-15.42a8.84,8.84,0,0,1,6.7-5.91c12-2.35,11.27-2.21,11.42-2.21H54.61c.15,0-.57-.14,11.42,2.21a8.84,8.84,0,0,1,6.7,5.91l5,15.42A1,1,0,0,1,76.83,96ZM21.94,94H75.45L70.83,79.9a6.84,6.84,0,0,0-5.18-4.58L54.51,73.15H42.87L31.74,75.32a6.84,6.84,0,0,0-5.18,4.58Z"/><path class="cls-5" d="M48.69,78.81,43.3,81.49l-2.19-6.06a1.92,1.92,0,0,1,.43-2l1.24-1.29Z"/><path class="cls-5" d="M48.69,78.81l5.39,2.68,2.2-6.06a1.94,1.94,0,0,0-.43-2l-1.24-1.29Z"/><polygon class="cls-6" points="51.18 84.2 46.21 84.2 45.05 80.62 48.69 78.81 52.34 80.62 51.18 84.2"/><polygon class="cls-6" points="53.31 95 44.07 95 46.21 84.2 51.18 84.2 53.31 95"/><polygon class="cls-7" points="50.92 95 46.47 95 47.49 84.2 49.89 84.2 50.92 95"/><polygon class="cls-8" points="54.61 63.6 54.61 72.14 48.69 78.81 42.78 72.14 42.78 63.6 54.61 63.6"/><path class="cls-9" d="M54.61,63.6v5.53a18.7,18.7,0,0,1-11.83,0V63.6Z"/><path class="cls-2" d="M48,79.47c-6.36-7.16-6.17-6.78-6.17-7.32V63.6a1,1,0,0,1,1-1H54.61a1,1,0,0,1,1,1c0,9.3.1,8.81-.25,9.21l-5.92,6.66A1,1,0,0,1,48,79.47Zm-4.17-7.7,4.91,5.53,4.92-5.53V64.6H43.78Zm10.83.38h0Z"/><path class="cls-10" d="M50.57,23.42H31.65a16.1,16.1,0,0,0,3.15,5.07,15.78,15.78,0,0,0-4.27,10.8v7H66.44v-7A15.86,15.86,0,0,0,50.57,23.42Z"/><rect class="cls-11" x="30.53" y="40.6" width="35.91" height="5.73"/><path class="cls-12" d="M53.71,31.22H42.45A5.87,5.87,0,0,1,37.82,29l-1.27-1.64a1.07,1.07,0,0,1,.85-1.71c14.19,0,14.58-.19,17.1.57A2.59,2.59,0,0,1,53.71,31.22Z"/><path class="cls-13" d="M49.53,27.73H45.06a1.07,1.07,0,1,1,0-2.13h4.47a1.06,1.06,0,0,1,1.07,1.06A1.08,1.08,0,0,1,49.53,27.73Z"/><path class="cls-2" d="M66.65,47.33H30.74a1,1,0,0,1-1-1v-7a16.81,16.81,0,0,1,3.93-10.81,17.06,17.06,0,0,1-2.75-4.7,1,1,0,0,1,.93-1.36H50.78A16.89,16.89,0,0,1,67.65,39.29v7A1,1,0,0,1,66.65,47.33Zm-34.91-2H65.65v-6A14.89,14.89,0,0,0,50.78,24.42H33.39a15.12,15.12,0,0,0,2.35,3.39,1,1,0,0,1,0,1.36,14.8,14.8,0,0,0-4,10.12Z"/><path class="cls-8" d="M69.67,49.71a3.36,3.36,0,0,1-3.37,3.36H30.68a3.37,3.37,0,1,1,0-6.73H66.3A3.37,3.37,0,0,1,69.67,49.71Z"/><path class="cls-9" d="M66,46.34c0,4.57,0,5.56-.08,6.73H31.06c-.1-1-.08-1.14-.08-6.73Z"/><path class="cls-2" d="M66.59,54.07H30.8a4.37,4.37,0,0,1,0-8.74H66.59a4.37,4.37,0,0,1,0,8.74ZM30.8,47.33a2.37,2.37,0,0,0,0,4.74H66.59a2.37,2.37,0,0,0,0-4.74Z"/><path class="cls-14" d="M64.16,46.33v5.1a15.67,15.67,0,0,1-31.34,0v-5.1l2.9-3.69A5.86,5.86,0,0,0,37,39.26l.17-4.59a2,2,0,0,1,2-1.89,72.85,72.85,0,0,0,18.55,0,2,2,0,0,1,2.21,1.87L60,39.26a5.79,5.79,0,0,0,1.24,3.38Z"/><path class="cls-15" d="M60.35,3.83V17A2.4,2.4,0,0,1,58,19.41H39.46A2.4,2.4,0,0,1,37.06,17V3.83a1.37,1.37,0,0,1,2.37-.94l2.45,2.6a1.37,1.37,0,0,0,2,0L47.7,1.43a1.38,1.38,0,0,1,2,0l3.83,4.06a1.37,1.37,0,0,0,2,0L58,2.89A1.37,1.37,0,0,1,60.35,3.83Z"/><path class="cls-16" d="M58,2.89,56.83,4.11V11a2.44,2.44,0,0,1-2.44,2.44H37.06V17a2.41,2.41,0,0,0,2.41,2.41H58a2.39,2.39,0,0,0,2.4-2.4V3.83A1.37,1.37,0,0,0,58,2.89Z"/><path class="cls-17" d="M40.06,10V8.68a.41.41,0,0,1,.62-.35,4.38,4.38,0,0,0,5.4-.79L48.4,5.06a.42.42,0,0,1,.6,0c2.32,2.46,2.9,3.35,4.5,3.74a.42.42,0,0,1,.33.4V10a.41.41,0,0,1-.41.41h-13A.41.41,0,0,1,40.06,10Z"/><path class="cls-15" d="M89.68,2.48a1.51,1.51,0,0,0-.52,0A1.3,1.3,0,0,1,89.68,2.48Z"/><path class="cls-15" d="M90.16,2.67a1.55,1.55,0,0,0-.48-.19A1.18,1.18,0,0,1,90.16,2.67Z"/><rect class="cls-18" x="37.06" y="13.45" width="23.29" height="2"/><path class="cls-2" d="M66.65,96H30.74a1,1,0,0,1-1-1.26L32,86.4a1,1,0,1,1,1.93.52L32,94h33.3l-1.9-7.08a1,1,0,1,1,1.93-.52l2.24,8.34A1,1,0,0,1,66.65,96Z"/><path class="cls-2" d="M43.3,82.49a1,1,0,0,1-.94-.66l-2.19-6.06a3,3,0,0,1,.65-3c1.24-1.28,1.37-1.57,2-1.58a1,1,0,0,1,.73.33l5.91,6.67a1,1,0,0,1-.3,1.55C43.31,82.61,43.64,82.49,43.3,82.49Zm-.55-8.87-.49.5a.94.94,0,0,0-.21,1l1.81,5,3.22-1.6Z"/><path class="cls-2" d="M54.08,82.49c-.34,0,0,.14-5.83-2.79a1,1,0,0,1-.3-1.55l5.91-6.67a1,1,0,0,1,.73-.33c.57,0,.65.21,2,1.58a3,3,0,0,1,.65,3L55,81.83A1,1,0,0,1,54.08,82.49Zm-3.77-4,3.21,1.6,1.82-5a.94.94,0,0,0-.21-1l-.49-.5Z"/><path class="cls-2" d="M51.18,85.2h-5a1,1,0,0,1-1-.69L44.1,80.93a1,1,0,0,1,.51-1.2l3.64-1.82a1,1,0,0,1,.89,0l3.64,1.82a1,1,0,0,1,.51,1.2l-1.16,3.58A1,1,0,0,1,51.18,85.2Zm-4.25-2h3.52l.67-2.07-2.43-1.2-2.42,1.2Z"/><path class="cls-2" d="M53.31,96H44.07a1,1,0,0,1-1-1.19L45.23,84a1,1,0,0,1,1-.81h5a1,1,0,0,1,1,.81l2.14,10.8A1,1,0,0,1,53.31,96Zm-8-2H52.1l-1.74-8.8H47Z"/><path class="cls-2" d="M35,29.47a1,1,0,0,1-.73-1.68,16.71,16.71,0,0,1,3.16-2.65,1,1,0,1,1,1.09,1.67C35.85,28.54,35.88,29.47,35,29.47Z"/><path class="cls-2" d="M48.7,68.09A16.68,16.68,0,0,1,32,51.43v-5.1c0-.46-.09-.24,3.11-4.31a4.84,4.84,0,0,0,1-2.79l.17-4.6a3,3,0,0,1,3.3-2.83,71.07,71.07,0,0,0,18.09,0,3,3,0,0,1,3.33,2.83l.17,4.59a4.91,4.91,0,0,0,1,2.81l2.9,3.68c.29.37.21.14.21,5.72A16.67,16.67,0,0,1,48.7,68.09ZM34,46.68v4.75a14.67,14.67,0,0,0,29.33,0V46.68l-2.69-3.42a6.88,6.88,0,0,1-1.44-4l-.18-4.58a.94.94,0,0,0-.34-.7c-.48-.41-.62-.17-3.52.08a73.14,73.14,0,0,1-15.77-.3,1,1,0,0,0-1.09.92l-.17,4.59a6.92,6.92,0,0,1-1.44,4Z"/><path class="cls-2" d="M55,48.07a1,1,0,0,1-1-1v-.7a1,1,0,1,1,2,0v.7A1,1,0,0,1,55,48.07Z"/><path class="cls-2" d="M56.54,44.3H53.35a1,1,0,0,1,0-2h3.19a1,1,0,1,1,0,2Z"/><path class="cls-2" d="M42.44,48.07a1,1,0,0,1-1-1v-.7a1,1,0,0,1,2,0v.7A1,1,0,0,1,42.44,48.07Z"/><path class="cls-2" d="M44,44.3H40.84a1,1,0,0,1,0-2H44a1,1,0,0,1,0,2Z"/><path class="cls-2" d="M44.7,58.4a1,1,0,1,1,1.66-1.12,2.82,2.82,0,0,0,4.68,0,1,1,0,1,1,1.67,1.1A4.82,4.82,0,0,1,44.7,58.4Z"/><path class="cls-2" d="M56.54,37.72a1,1,0,0,1-1-.9l-.4-3.72a1,1,0,1,1,2-.22l.41,3.73A1,1,0,0,1,56.54,37.72Z"/><path class="cls-2" d="M58,20.41H39.46A3.41,3.41,0,0,1,36.06,17V3.83a2.38,2.38,0,0,1,4.1-1.63l2.45,2.61a.32.32,0,0,0,.54,0L47,.75a2.36,2.36,0,0,1,3.45,0l3.83,4.06a.32.32,0,0,0,.54,0L57.25,2.2a2.37,2.37,0,0,1,4.1,1.63V17A3.41,3.41,0,0,1,58,20.41Zm-19.51-17a.37.37,0,0,0-.38.38V17a1.41,1.41,0,0,0,1.4,1.41H58A1.41,1.41,0,0,0,59.35,17V3.83a.37.37,0,0,0-.64-.26L56.25,6.18a2.44,2.44,0,0,1-3.45,0L49,2.12a.36.36,0,0,0-.54,0L44.61,6.18a2.46,2.46,0,0,1-3.46,0C38.49,3.35,38.65,3.45,38.44,3.45Z"/><path class="cls-2" d="M60.35,15.45H37.06a1,1,0,0,1,0-2H60.35a1,1,0,0,1,0,2Z"/></g></svg>