<svg xmlns="http://www.w3.org/2000/svg" viewBox="0 0 96 96"><defs><style>.cls-1{fill:#d1d3d4;}.cls-2{fill:#aeb0b2;}.cls-3{fill:#302d3d;}.cls-4{fill:#dbd9dc;}.cls-5{fill:#4e69b5;}.cls-6{fill:#5d7db0;}.cls-7{fill:#6c96b5;}.cls-8{fill:#fe4a55;}.cls-9{fill:#ff736e;}.cls-10{fill:#ffa68d;}.cls-11{fill:#fb8d74;}.cls-12{fill:#3f3c6a;}.cls-13{fill:#302856;}.cls-14{fill:#4e5088;}.cls-15{fill:#4e5fba;}.cls-16{fill:#fbc4ab;}</style></defs><title>Management</title><g id="Management"><path class="cls-1" d="M95,55.21v-15A2.2,2.2,0,0,0,92.8,38H85.61a2.18,2.18,0,0,1-2.07-1.55,37,37,0,0,0-2.46-5.91,2.23,2.23,0,0,1,.43-2.58l5-5.05a2.18,2.18,0,0,0,0-3.1L75.92,9.14a2.2,2.2,0,0,0-3.11,0l-5,5a2.24,2.24,0,0,1-2.59.43,37,37,0,0,0-5.91-2.46,2.18,2.18,0,0,1-1.55-2.07V2.89a2.2,2.2,0,0,0-2.2-2.2h-15a2.19,2.19,0,0,0-2.2,2.2v7.19a2.18,2.18,0,0,1-1.55,2.07,36.61,36.61,0,0,0-5.91,2.46,2.24,2.24,0,0,1-2.59-.43l-5-5a2.2,2.2,0,0,0-3.11,0L9.45,19.78a2.18,2.18,0,0,0,0,3.1l5,5.05a2.23,2.23,0,0,1,.43,2.58,37,37,0,0,0-2.46,5.91A2.18,2.18,0,0,1,10.39,38H3.2A2.2,2.2,0,0,0,1,40.17v15a2.19,2.19,0,0,0,2.2,2.2h7.19A2.18,2.18,0,0,1,12.46,59a36.61,36.61,0,0,0,2.46,5.91,2.24,2.24,0,0,1-.43,2.59l-5,5a2.2,2.2,0,0,0,0,3.11L20.08,86.24a2.2,2.2,0,0,0,3.11,0l5-5a2.22,2.22,0,0,1,2.59-.42,36.57,36.57,0,0,0,5.91,2.45,2.2,2.2,0,0,1,1.55,2.08V92.5a2.19,2.19,0,0,0,2.2,2.19h15a2.2,2.2,0,0,0,2.2-2.19V85.31a2.2,2.2,0,0,1,1.55-2.08,37,37,0,0,0,5.91-2.45,2.22,2.22,0,0,1,2.59.42l5,5a2.2,2.2,0,0,0,3.11,0L86.55,75.61a2.2,2.2,0,0,0,0-3.11l-5-5a2.24,2.24,0,0,1-.43-2.59A36.61,36.61,0,0,0,83.54,59a2.18,2.18,0,0,1,2.07-1.55H92.8A2.19,2.19,0,0,0,95,55.21Z"/><path class="cls-2" d="M44.56,90.69a2.28,2.28,0,0,1-2.28-2.28v-3.1a6.19,6.19,0,0,0-4.75-6,22.26,22.26,0,0,1-4.88-2.08,6.22,6.22,0,0,0-7.24,1.15l-2.16,2.16a2.29,2.29,0,0,1-3.23,0l-4.86-4.86a2.29,2.29,0,0,1,0-3.23l2.16-2.15A6.18,6.18,0,0,0,18.44,63a32,32,0,0,1-2.17-5.24,6.17,6.17,0,0,0-5.88-4.34H7.28A2.28,2.28,0,0,1,5,51.13V44.25A2.28,2.28,0,0,1,7.28,42h3.11a6.16,6.16,0,0,0,5.88-4.34,33.66,33.66,0,0,1,2.19-5.27,6.17,6.17,0,0,0-1.14-7.26l-2.16-2.16a2.28,2.28,0,0,1,0-3.22L20,14.86a2.27,2.27,0,0,1,3.23,0L25.41,17a6.28,6.28,0,0,0,4.42,1.84c2.6,0,3.1-1.3,8.11-2.88a6.18,6.18,0,0,0,4.34-5.89V7a2.28,2.28,0,0,1,2.28-2.28h6.88A2.28,2.28,0,0,1,53.72,7v3.11A6.18,6.18,0,0,0,58.06,16a31.85,31.85,0,0,1,5.27,2.19A6.25,6.25,0,0,0,70.59,17l2.16-2.15a2.27,2.27,0,0,1,3.23,0l4.86,4.86a2.28,2.28,0,0,1,0,3.22L78.68,25.1a6.18,6.18,0,0,0-1.12,7.3,31,31,0,0,1,2.17,5.23A6.16,6.16,0,0,0,85.61,42h3.11A2.28,2.28,0,0,1,91,44.25v6.88a2.28,2.28,0,0,1-2.28,2.28H85.61a6.17,6.17,0,0,0-5.88,4.34A32.37,32.37,0,0,1,77.56,63a6.2,6.2,0,0,0,1.12,7.31l2.16,2.15a2.29,2.29,0,0,1,0,3.23L76,80.53a2.29,2.29,0,0,1-3.23,0l-2.16-2.16a6.3,6.3,0,0,0-4.42-1.84c-2.84,0-4.08,1.88-7.7,2.77a6.19,6.19,0,0,0-4.75,6v3.1a2.28,2.28,0,0,1-2.28,2.28Z"/><path class="cls-3" d="M55.52,95.69h-15a3.2,3.2,0,0,1-3.2-3.19V85.31a1.2,1.2,0,0,0-.85-1.13,37.89,37.89,0,0,1-6.07-2.52,1.24,1.24,0,0,0-1.42.25l-5,5a3.27,3.27,0,0,1-4.52,0L8.74,76.31a3.19,3.19,0,0,1,0-4.52l5-5A1.21,1.21,0,0,0,14,65.34a38.66,38.66,0,0,1-2.52-6.07,1.2,1.2,0,0,0-1.12-.86H3.2A3.2,3.2,0,0,1,0,55.21v-15A3.2,3.2,0,0,1,3.2,37h7.19a1.2,1.2,0,0,0,1.12-.85A38.27,38.27,0,0,1,14,30.05a1.23,1.23,0,0,0-.25-1.42l-5-5a3.19,3.19,0,0,1,0-4.52L19.38,8.43a3.21,3.21,0,0,1,4.52,0l5,5.05a1.22,1.22,0,0,0,1.42.24,37.89,37.89,0,0,1,6.07-2.52,1.18,1.18,0,0,0,.85-1.12V2.89a3.21,3.21,0,0,1,3.2-3.2h15a3.21,3.21,0,0,1,3.2,3.2v7.19a1.18,1.18,0,0,0,.85,1.12,38.27,38.27,0,0,1,6.07,2.52,1.24,1.24,0,0,0,1.42-.24l5-5.05a3.21,3.21,0,0,1,4.52,0L87.26,19.07a3.19,3.19,0,0,1,0,4.52l-5,5A1.23,1.23,0,0,0,82,30.05a37.89,37.89,0,0,1,2.52,6.07,1.19,1.19,0,0,0,1.12.85H92.8a3.2,3.2,0,0,1,3.2,3.2v15a3.2,3.2,0,0,1-3.2,3.2H85.61a1.19,1.19,0,0,0-1.12.86A38.66,38.66,0,0,1,82,65.34a1.21,1.21,0,0,0,.25,1.41l5,5a3.19,3.19,0,0,1,0,4.52L76.62,87a3.27,3.27,0,0,1-4.52,0l-5-5a1.24,1.24,0,0,0-1.42-.25,37.89,37.89,0,0,1-6.07,2.52,1.2,1.2,0,0,0-.85,1.13V92.5A3.2,3.2,0,0,1,55.52,95.69ZM29.82,79.53c1.59,0,2.16,1.14,7.21,2.75a3.17,3.17,0,0,1,2.25,3V92.5a1.19,1.19,0,0,0,1.2,1.19h15a1.19,1.19,0,0,0,1.2-1.19V85.31a3.17,3.17,0,0,1,2.25-3,36.51,36.51,0,0,0,5.75-2.39,3.2,3.2,0,0,1,3.75.6l5,5.05a1.23,1.23,0,0,0,1.69,0L85.85,74.9a1.21,1.21,0,0,0,0-1.69l-5-5a3.2,3.2,0,0,1-.6-3.75,36.12,36.12,0,0,0,2.39-5.75,3.17,3.17,0,0,1,3-2.25H92.8a1.2,1.2,0,0,0,1.2-1.2v-15A1.2,1.2,0,0,0,92.8,39H85.61a3.17,3.17,0,0,1-3-2.25A36.51,36.51,0,0,0,80.2,31a3.18,3.18,0,0,1,.6-3.75l5-5a1.22,1.22,0,0,0,0-1.7L75.21,9.85a1.21,1.21,0,0,0-1.69,0l-5,5a3.2,3.2,0,0,1-3.75.61A34.71,34.71,0,0,0,59,13.11a3.19,3.19,0,0,1-2.25-3V2.89a1.2,1.2,0,0,0-1.2-1.2h-15a1.2,1.2,0,0,0-1.2,1.2v7.19a3.19,3.19,0,0,1-2.25,3,34.71,34.71,0,0,0-5.75,2.39,3.2,3.2,0,0,1-3.75-.61l-5.05-5a1.19,1.19,0,0,0-1.69,0L10.15,20.48a1.22,1.22,0,0,0,0,1.7l5,5A3.2,3.2,0,0,1,15.8,31a36.91,36.91,0,0,0-2.39,5.75,3.17,3.17,0,0,1-3,2.25H3.2A1.2,1.2,0,0,0,2,40.17v15a1.2,1.2,0,0,0,1.2,1.2h7.19a3.17,3.17,0,0,1,3,2.25,36.51,36.51,0,0,0,2.39,5.75,3.2,3.2,0,0,1-.6,3.75l-5,5a1.21,1.21,0,0,0,0,1.69L20.79,85.54a1.23,1.23,0,0,0,1.69,0l5.05-5.05A3.24,3.24,0,0,1,29.82,79.53Z"/><circle class="cls-4" cx="48.01" cy="47.69" r="30.49"/><circle class="cls-2" cx="48.01" cy="47.69" r="26.14"/><path class="cls-3" d="M48,79.18A31.49,31.49,0,1,1,79.49,47.69,31.53,31.53,0,0,1,48,79.18Zm0-61A29.49,29.49,0,1,0,77.49,47.69,29.52,29.52,0,0,0,48,18.2Z"/><path class="cls-3" d="M48,74.83A27.14,27.14,0,1,1,75.14,47.69,27.16,27.16,0,0,1,48,74.83Zm0-52.28A25.14,25.14,0,1,0,73.14,47.69,25.17,25.17,0,0,0,48,22.55Z"/><path class="cls-5" d="M74.54,95H21.46l4.76-14.54a7.39,7.39,0,0,1,5.6-4.95l10.6-2.07H53.58l10.6,2.07a7.39,7.39,0,0,1,5.6,4.95Z"/><path class="cls-6" d="M71.18,95H24.44l4.47-13.66a4.59,4.59,0,0,1,3.45-3.06l10.33-2H53.31l10.32,2a4.55,4.55,0,0,1,3.45,3.06Z"/><path class="cls-7" d="M34.42,95,37,87.12a2.63,2.63,0,0,1,2-1.75l5.92-1.15H51l5.92,1.15a2.66,2.66,0,0,1,2,1.75L61.2,95Z"/><path class="cls-3" d="M74.54,96H21.48a1,1,0,0,1-.95-1.31L25.3,80.15a8.38,8.38,0,0,1,6.35-5.61l10.59-2.07c.15,0-.58,0,11.35,0,.15,0-.52-.12,10.78,2.09a8.39,8.39,0,0,1,6.36,5.61l4.76,14.54A1,1,0,0,1,74.54,96ZM22.86,94h50.3L68.83,80.78A6.39,6.39,0,0,0,64,76.5l-10.49-2h-11L32,76.5a6.37,6.37,0,0,0-4.84,4.28Z"/><path class="cls-7" d="M48,79.72l-5.09,2.54-2.07-5.73a1.82,1.82,0,0,1,.41-1.88l1.17-1.21Z"/><path class="cls-7" d="M48,79.72l5.08,2.54,2.08-5.73a1.82,1.82,0,0,0-.41-1.88l-1.17-1.21Z"/><polygon class="cls-8" points="50.35 84.81 45.65 84.81 44.56 81.44 48 79.72 51.44 81.44 50.35 84.81"/><polygon class="cls-8" points="52.36 95 43.64 95 45.65 84.81 50.35 84.81 52.36 95"/><polygon class="cls-9" points="50.06 95 45.94 95 46.89 84.81 49.11 84.81 50.06 95"/><polygon class="cls-10" points="53.58 65.38 53.58 73.43 48 79.72 42.42 73.43 42.42 65.38 53.58 65.38"/><path class="cls-11" d="M53.58,65.38v5.21a17.61,17.61,0,0,1-11.16,0V65.38Z"/><path class="cls-3" d="M47.26,80.4l-5.57-6.29c-.36-.4-.26-.09-.26-8.72a1,1,0,0,1,1-1H53.59a1,1,0,0,1,1,1v8.06c0,.55.21.15-5.83,7A1,1,0,0,1,47.26,80.4Zm-3.83-7.33L48,78.23l4.58-5.16V66.39H43.43Zm10.16.38h0Z"/><path class="cls-12" d="M49.77,27.46H31.92a14.91,14.91,0,0,0,3,4.79,14.89,14.89,0,0,0-4,10.19v6.65H64.75V42.44A15,15,0,0,0,49.77,27.46Z"/><rect class="cls-13" x="30.87" y="43.68" width="33.88" height="5.41"/><path class="cls-14" d="M52.73,34.83H42.11a5.5,5.5,0,0,1-4.37-2.15c-.4-.51-.82-1.06-1.19-1.55a1,1,0,0,1,.8-1.61c13.35,0,13.74-.18,16.13.55A2.44,2.44,0,0,1,52.73,34.83Z"/><rect class="cls-15" x="43.56" y="29.52" width="6.23" height="2.01" rx="1.01"/><path class="cls-3" d="M64.74,50.11H30.88a1,1,0,0,1-1-1V42.46a15.84,15.84,0,0,1,3.69-10.18A16.06,16.06,0,0,1,31,27.86a1,1,0,0,1,.93-1.36H49.77a16,16,0,0,1,16,16v6.65A1,1,0,0,1,64.74,50.11Zm-32.86-2H63.74V42.46a14,14,0,0,0-14-14H33.47a14,14,0,0,0,2.16,3.1,1,1,0,0,1,0,1.36,13.92,13.92,0,0,0-3.75,9.5Z"/><path class="cls-10" d="M67.79,52.27a3.18,3.18,0,0,1-3.18,3.18H31a3.18,3.18,0,1,1,0-6.36H64.61A3.18,3.18,0,0,1,67.79,52.27Z"/><path class="cls-11" d="M64.33,49.09c0,4.32,0,5.24-.08,6.36H31.36c-.09-1-.07-1.09-.07-6.36Z"/><path class="cls-3" d="M64.7,56.46H30.91a4.18,4.18,0,0,1,0-8.35H64.7a4.18,4.18,0,0,1,0,8.35ZM30.91,50.11a2.18,2.18,0,0,0,0,4.35H64.7a2.18,2.18,0,0,0,0-4.35Z"/><path class="cls-16" d="M62.59,49.08v4.81a14.79,14.79,0,0,1-29.57,0V49.08l2.74-3.48a5.52,5.52,0,0,0,1.17-3.19l.16-4.33a1.86,1.86,0,0,1,1.85-1.78,69.16,69.16,0,0,0,17.5,0,1.85,1.85,0,0,1,2.08,1.77l.16,4.33a5.59,5.59,0,0,0,1.17,3.19Z"/><path class="cls-3" d="M64.94,96H31.08a1,1,0,0,1-1-1.26l2.11-7.87a1,1,0,0,1,1.23-.7,1,1,0,0,1,.7,1.22L32.39,94H63.64l-1.78-6.61a1,1,0,0,1,1.93-.52l2.12,7.87A1,1,0,0,1,64.94,96Z"/><path class="cls-3" d="M42.93,83.26A1,1,0,0,1,42,82.6l-2.07-5.72A2.84,2.84,0,0,1,40.55,74c1.22-1.26,1.33-1.5,1.91-1.51a1,1,0,0,1,.72.33l5.58,6.29a1,1,0,0,1-.3,1.56C42.87,83.41,43.26,83.26,42.93,83.26Zm-.53-8.34-.42.43a.86.86,0,0,0-.18.85l1.69,4.67,2.91-1.45Z"/><path class="cls-3" d="M53.09,83.26c-.32,0,0,.12-5.52-2.63a1,1,0,0,1-.31-1.56l5.58-6.29a1,1,0,0,1,.73-.33c.6,0,.72.28,1.91,1.51a2.86,2.86,0,0,1,.63,2.92L54,82.6A1,1,0,0,1,53.09,83.26Zm-3.46-3.84,2.91,1.45,1.68-4.67a.81.81,0,0,0-.18-.85l-.42-.43Z"/><path class="cls-3" d="M50.36,85.82H45.67a1,1,0,0,1-1-.7l-1.09-3.37a1,1,0,0,1,.5-1.2l3.44-1.71a1,1,0,0,1,.89,0l3.43,1.71a1,1,0,0,1,.51,1.2l-1.09,3.37A1,1,0,0,1,50.36,85.82Zm-4-2h3.23l.6-1.87L48,80.85,45.79,82Z"/><path class="cls-3" d="M52.37,96H43.66a1,1,0,0,1-1-1.19l2-10.19a1,1,0,0,1,1-.8h4.69a1,1,0,0,1,1,.8l2,10.19A1,1,0,0,1,52.37,96Zm-7.5-2h6.28l-1.61-8.18h-3Z"/><path class="cls-3" d="M34.89,33.27a1,1,0,0,1-.74-1.68,15.93,15.93,0,0,1,3-2.51,1,1,0,0,1,1.09,1.67C35.74,32.38,35.76,33.27,34.89,33.27Z"/><path class="cls-3" d="M47.81,69.69A15.8,15.8,0,0,1,32,53.92V49.11c0-.47-.05-.28,2.95-4.1a4.53,4.53,0,0,0,1-2.61l.17-4.33a2.84,2.84,0,0,1,3.16-2.72,67.16,67.16,0,0,0,17.06,0,2.85,2.85,0,0,1,3.2,2.72l.16,4.33a4.5,4.5,0,0,0,1,2.61l2.74,3.48c.31.39.21.3.21,5.43A15.79,15.79,0,0,1,47.81,69.69ZM34,49.45v4.47a13.78,13.78,0,0,0,27.55,0V49.45l-2.52-3.2a6.59,6.59,0,0,1-1.38-3.77l-.16-4.33a.88.88,0,0,0-.3-.62c-.43-.36-.54-.14-3.28.09a69.33,69.33,0,0,1-14.88-.28.85.85,0,0,0-1,.81l-.16,4.33a6.55,6.55,0,0,1-1.37,3.76Z"/><path class="cls-3" d="M53.7,50.81a1,1,0,0,1-1-1v-.66a1,1,0,1,1,2,0v.66A1,1,0,0,1,53.7,50.81Z"/><path class="cls-3" d="M55.21,47.25h-3a1,1,0,0,1,0-2h3a1,1,0,1,1,0,2Z"/><path class="cls-3" d="M41.91,50.81a1,1,0,0,1-1-1v-.66a1,1,0,0,1,2,0v.66A1,1,0,0,1,41.91,50.81Z"/><path class="cls-3" d="M43.41,47.25h-3a1,1,0,0,1,0-2h3a1,1,0,0,1,0,2Z"/><path class="cls-3" d="M44,60.52a1,1,0,0,1,.27-1.39,1,1,0,0,1,1.39.27,2.6,2.6,0,0,0,4.32,0,1,1,0,0,1,1.39-.28,1,1,0,0,1,.28,1.38A4.61,4.61,0,0,1,44,60.52Z"/><path class="cls-3" d="M55.21,41a1,1,0,0,1-1-.89l-.38-3.51a1,1,0,1,1,2-.22l.38,3.51A1,1,0,0,1,55.21,41Z"/></g></svg>