<svg xmlns="http://www.w3.org/2000/svg" viewBox="0 0 96 96"><defs><style>.cls-1{fill:#ffc088;}.cls-2{fill:#ffd9b5;}.cls-3{fill:#fff;}.cls-4{fill:#f09d65;}.cls-5{fill:#302d3d;}.cls-6{fill:#87b5e3;}.cls-7{fill:#b2e6ff;}.cls-8{fill:#5f83cf;}.cls-9{fill:#4d6dc7;}.cls-10{fill:#3ab67d;}.cls-11{fill:#fe4a55;}.cls-12{fill:#ffca6e;}.cls-13{fill:#44cf87;}.cls-14{fill:#ff736e;}.cls-15{fill:#ffe391;}.cls-16{fill:#b3c4d0;}.cls-17{fill:#e5ecf3;}</style></defs><title>Mork Station</title><g id="work_Station" data-name="work Station"><rect class="cls-1" x="1" y="40.03" width="94" height="6.88"/><rect class="cls-2" x="17.47" y="40.03" width="61.06" height="6.88"/><rect class="cls-3" x="32.28" y="41.77" width="31.44" height="3.4" rx="0.61"/><rect class="cls-1" x="6.25" y="46.91" width="6.82" height="43.33"/><rect class="cls-4" x="6.25" y="46.91" width="6.82" height="2.9"/><rect class="cls-1" x="80.42" y="46.91" width="9.33" height="43.33"/><rect class="cls-4" x="80.42" y="82.53" width="9.33" height="2.9"/><path class="cls-5" d="M89.75,91.24H80.42a1,1,0,0,1-1-1V46.91a1,1,0,0,1,1-1h9.33a1,1,0,0,1,1,1V90.24A1,1,0,0,1,89.75,91.24Zm-8.33-2h7.33V47.91H81.42Z"/><path class="cls-1" d="M92.38,46.91v9.81a2.07,2.07,0,0,1-2.07,2.06H58.81a2.06,2.06,0,0,1-2.06-2.06V46.91Z"/><path class="cls-1" d="M92.38,60.84v7.75a2.07,2.07,0,0,1-2.07,2.07H58.81a2.07,2.07,0,0,1-2.06-2.07V60.84a2.06,2.06,0,0,1,2.06-2.06h31.5A2.07,2.07,0,0,1,92.38,60.84Z"/><path class="cls-1" d="M92.38,72.72v7.75a2.07,2.07,0,0,1-2.07,2.06H58.81a2.06,2.06,0,0,1-2.06-2.06V72.72a2.06,2.06,0,0,1,2.06-2.06h31.5A2.07,2.07,0,0,1,92.38,72.72Z"/><path class="cls-2" d="M89.24,46.91v6.67a2.07,2.07,0,0,1-2.06,2.07H56.75V46.91Z"/><path class="cls-2" d="M89.24,58.78v6.68a2.06,2.06,0,0,1-2.06,2.06H56.75V60.84a2.06,2.06,0,0,1,2.06-2.06Z"/><path class="cls-2" d="M89.24,70.66v6.67a2.07,2.07,0,0,1-2.06,2.07H56.75V72.72a2.06,2.06,0,0,1,2.06-2.06Z"/><rect class="cls-6" x="9.25" y="5.76" width="44.25" height="27.85" rx="2.06"/><rect class="cls-7" x="9.25" y="5.76" width="44.25" height="22.4" rx="2.06"/><path class="cls-3" d="M23.24,10.76l-9,9a1.17,1.17,0,0,1-2-.83v-9a1.17,1.17,0,0,1,1.17-1.17h9A1.17,1.17,0,0,1,23.24,10.76Z"/><path class="cls-3" d="M43.41,10.76,29.35,24.82a1.15,1.15,0,0,1-.82.34H19.07a1.17,1.17,0,0,1-.83-2L32.3,9.1a1.15,1.15,0,0,1,.82-.34h9.46A1.17,1.17,0,0,1,43.41,10.76Z"/><path class="cls-3" d="M50.5,13.9V24a1.17,1.17,0,0,1-1.17,1.17H39.24a1.17,1.17,0,0,1-.83-2L48.5,13.07A1.17,1.17,0,0,1,50.5,13.9Z"/><polygon class="cls-8" points="37.5 40.03 25.25 40.03 26.92 33.62 35.83 33.62 37.5 40.03"/><polygon class="cls-9" points="36.51 36.23 35.83 33.62 26.92 33.62 26.24 36.23 36.51 36.23"/><rect class="cls-10" x="66.97" y="9.24" width="6.87" height="20"/><rect class="cls-11" x="73.84" y="12.49" width="6.88" height="16.75"/><rect class="cls-12" x="73.84" y="12.49" width="6.88" height="5.69"/><rect class="cls-13" x="66.97" y="9.24" width="3.44" height="20"/><rect class="cls-14" x="73.84" y="12.49" width="3.44" height="16.75"/><rect class="cls-15" x="73.84" y="12.49" width="3.44" height="5.69"/><path class="cls-9" d="M50.62,57.22v2a2.13,2.13,0,0,1-2.13,2.12H21.32a2.12,2.12,0,0,1-2.12-2.12,21,21,0,0,1,0-2.25,2.13,2.13,0,0,1,2.1-1.84H48.49A2.14,2.14,0,0,1,50.62,57.22Z"/><path class="cls-8" d="M50.6,56.93a2.13,2.13,0,0,1-2.11,1.82H21.32a2.12,2.12,0,0,1-2.1-1.82,2.13,2.13,0,0,1,2.1-1.84H48.49A2.14,2.14,0,0,1,50.6,56.93Z"/><rect class="cls-16" x="32.76" y="61.3" width="4.29" height="20.1"/><rect class="cls-17" x="32.76" y="67.61" width="4.29" height="7.48"/><rect class="cls-4" x="56.75" y="46.91" width="35.63" height="2.9"/><path class="cls-5" d="M95,47.91H1a1,1,0,0,1-1-1V40a1,1,0,0,1,1-1H95a1,1,0,0,1,1,1v6.88A1,1,0,0,1,95,47.91Zm-93-2H94V41H2Z"/><path class="cls-5" d="M13.07,91.24H6.25a1,1,0,0,1-1-1V46.91a1,1,0,0,1,1-1h6.82a1,1,0,0,1,1,1V90.24A1,1,0,0,1,13.07,91.24Zm-5.82-2h4.82V47.91H7.25Z"/><path class="cls-5" d="M90.31,59.78H58.81a3.06,3.06,0,0,1-3.06-3.06V46.91a1,1,0,0,1,1-1H92.38a1,1,0,0,1,1,1v9.81A3.07,3.07,0,0,1,90.31,59.78ZM57.75,47.91v8.81a1.07,1.07,0,0,0,1.06,1.06h31.5a1.07,1.07,0,0,0,1.07-1.06V47.91Z"/><path class="cls-5" d="M90.31,71.66H58.81a3.07,3.07,0,0,1-3.06-3.07V60.84a3.07,3.07,0,0,1,3.06-3.06h31.5a3.07,3.07,0,0,1,3.07,3.06v7.75A3.08,3.08,0,0,1,90.31,71.66ZM58.81,59.78a1.07,1.07,0,0,0-1.06,1.06v7.75a1.07,1.07,0,0,0,1.06,1.07h31.5a1.07,1.07,0,0,0,1.07-1.07V60.84a1.07,1.07,0,0,0-1.07-1.06Z"/><path class="cls-5" d="M90.31,83.53H58.81a3.06,3.06,0,0,1-3.06-3.06V72.72a3.06,3.06,0,0,1,3.06-3.06h31.5a3.07,3.07,0,0,1,3.07,3.06v7.75A3.07,3.07,0,0,1,90.31,83.53ZM58.81,71.66a1.06,1.06,0,0,0-1.06,1.06v7.75a1.07,1.07,0,0,0,1.06,1.06h31.5a1.07,1.07,0,0,0,1.07-1.06V72.72a1.06,1.06,0,0,0-1.07-1.06Z"/><path class="cls-5" d="M80.42,77.59H68.71a1,1,0,0,1,0-2H80.42a1,1,0,0,1,0,2Z"/><path class="cls-5" d="M80.42,65.72H68.71a1,1,0,0,1,0-2H80.42a1,1,0,0,1,0,2Z"/><path class="cls-5" d="M80.42,53.84H68.71a1,1,0,0,1,0-2H80.42a1,1,0,0,1,0,2Z"/><path class="cls-5" d="M51.44,34.61H11.31a3.06,3.06,0,0,1-3.06-3.06V7.82a3.06,3.06,0,0,1,3.06-3.06H51.44A3.06,3.06,0,0,1,54.5,7.82V31.55A3.06,3.06,0,0,1,51.44,34.61ZM11.31,6.76a1.07,1.07,0,0,0-1.06,1.06V31.55a1.06,1.06,0,0,0,1.06,1.06H51.44a1.06,1.06,0,0,0,1.06-1.06V7.82a1.07,1.07,0,0,0-1.06-1.06Z"/><path class="cls-5" d="M51.44,29.16H11.31a3.07,3.07,0,0,1-3.06-3.07V7.82a3.06,3.06,0,0,1,3.06-3.06H51.44A3.06,3.06,0,0,1,54.5,7.82V26.09A3.07,3.07,0,0,1,51.44,29.16ZM11.31,6.76a1.07,1.07,0,0,0-1.06,1.06V26.09a1.07,1.07,0,0,0,1.06,1.07H51.44a1.07,1.07,0,0,0,1.06-1.07V7.82a1.07,1.07,0,0,0-1.06-1.06Z"/><path class="cls-5" d="M37.5,41H25.25a1,1,0,0,1-1-1.25L26,33.36a1,1,0,0,1,1-.75h8.91a1,1,0,0,1,1,.75l1.67,6.42A1,1,0,0,1,37.5,41Zm-11-2h9.67l-1.15-4.42H27.69Z"/><path class="cls-5" d="M73.84,30.24H67a1,1,0,0,1-1-1v-20a1,1,0,0,1,1-1h6.87a1,1,0,0,1,1,1v20A1,1,0,0,1,73.84,30.24Zm-5.87-2h4.87v-18H68Z"/><path class="cls-5" d="M80.72,30.24H73.84a1,1,0,0,1-1-1V12.49a1,1,0,0,1,1-1h6.88a1,1,0,0,1,1,1V29.24A1,1,0,0,1,80.72,30.24Zm-5.88-2h4.88V13.49H74.84Z"/><path class="cls-5" d="M80.72,19.18H73.84a1,1,0,0,1-1-1V12.49a1,1,0,0,1,1-1h6.88a1,1,0,0,1,1,1v5.69A1,1,0,0,1,80.72,19.18Zm-5.88-2h4.88V13.49H74.84Z"/><path class="cls-5" d="M85.41,30.24H63.72a1,1,0,0,1,0-2H85.41a1,1,0,0,1,0,2Z"/><path class="cls-5" d="M48.49,62.3H21.32a3.12,3.12,0,0,1-3.12-3.12v-2a3.13,3.13,0,0,1,3.12-3.13H48.49a3.14,3.14,0,0,1,3.13,3.13v2A3.13,3.13,0,0,1,48.49,62.3ZM21.32,56.09a1.13,1.13,0,0,0-1.12,1.13v2a1.12,1.12,0,0,0,1.12,1.12H48.49a1.13,1.13,0,0,0,1.13-1.12v-2a1.14,1.14,0,0,0-1.13-1.13Z"/><path class="cls-5" d="M37.05,82.41H32.76a1,1,0,0,1-1-1V61.3a1,1,0,0,1,1-1h4.29a1,1,0,0,1,1,1V81.41A1,1,0,0,1,37.05,82.41Zm-3.29-2h2.29V62.3H33.76Z"/><path class="cls-5" d="M37.05,76.09H32.76a1,1,0,0,1-1-1V67.61a1,1,0,0,1,1-1h4.29a1,1,0,0,1,1,1v7.48A1,1,0,0,1,37.05,76.09Zm-3.29-2h2.29V68.61H33.76Z"/><path class="cls-5" d="M44.53,91.24a1,1,0,0,1-1-.74l-2-7.26a1.13,1.13,0,0,0-1.09-.83H29.33a1.15,1.15,0,0,0-1.1.83l-2,7.26A1,1,0,0,1,24.32,90l2-7.27a3.13,3.13,0,0,1,3-2.3H40.49a3.13,3.13,0,0,1,3,2.3l2,7.27A1,1,0,0,1,44.53,91.24Z"/><path class="cls-5" d="M31.78,91.24a1,1,0,0,1-1-1.26l2-7.27a3.13,3.13,0,0,1,3-2.3H38a1,1,0,0,1,0,2h-2.2a1.15,1.15,0,0,0-1.1.83l-2,7.26A1,1,0,0,1,31.78,91.24Z"/></g></svg>