<svg xmlns="http://www.w3.org/2000/svg" viewBox="0 0 96 96"><defs><style>.cls-1{fill:#d1d3d4;}.cls-2{fill:#302d3d;}.cls-3{fill:#f1f2f2;}.cls-4{fill:#e6ecf2;}.cls-5{fill:#2fc090;}.cls-6{fill:#48de90;}.cls-7{fill:#fff;}.cls-8{fill:#ffa188;}.cls-9{fill:#ff9779;}.cls-10{fill:#ffba9c;}.cls-11{fill:#fbceab;}.cls-12{fill:#fbba8d;}.cls-13{fill:#fbe2c9;}.cls-14{fill:#fbc4ab;}.cls-15{fill:#87b5e3;}.cls-16{fill:#5d7db0;}.cls-17{fill:#495f9c;}</style></defs><title>Negotiation</title><g id="Negotiation"><path class="cls-1" d="M81.41,72.5a41.43,41.43,0,1,1-.94-50.24A41.44,41.44,0,0,1,81.41,72.5Z"/><path class="cls-2" d="M48,90.43A42.43,42.43,0,1,1,90.18,43.82C92.77,68.62,73,90.43,48,90.43ZM48,7.57a40.43,40.43,0,1,0,40.41,42.1A40.43,40.43,0,0,0,48,7.57Z"/><path class="cls-3" d="M48,79.43A31.43,31.43,0,1,1,79.27,44.87,31.45,31.45,0,0,1,48,79.43Z"/><path class="cls-4" d="M91.67,36.63l-2.15-2.15a4.18,4.18,0,0,1-.72-4.95,19.38,19.38,0,1,0-36.47-9.17c0,15.39,16.4,24,29,16.89a4.34,4.34,0,0,1,2.19-.62Z"/><path class="cls-5" d="M91.67,36.63l-2.15-2.15a4.18,4.18,0,0,1-.72-4.95,19.38,19.38,0,1,0-36.47-9.17c0,15.39,16.4,24,29,16.89a4.34,4.34,0,0,1,2.19-.62Z"/><path class="cls-6" d="M81.44,25.17a4.86,4.86,0,0,0,4.92-4.8,14.39,14.39,0,0,0-28.67-1.76,6,6,0,0,0,6,6.56Z"/><path class="cls-7" d="M77.14,13.68a1.39,1.39,0,0,0,.91-2.45,9.41,9.41,0,0,0-12.17,0,1.39,1.39,0,0,0,.91,2.45Z"/><rect class="cls-6" x="66.43" y="28.83" width="11.15" height="3.4" rx="1.7"/><path class="cls-8" d="M68.94,81.24a3.69,3.69,0,0,1-5.37.14l-1.31-1.31a3.71,3.71,0,0,1-.14,5.38,3.84,3.84,0,0,1-5.24-.28L56,84.24a3.7,3.7,0,0,1-.15,5.37,3.83,3.83,0,0,1-5.23-.29l-1.18-1.17a3.71,3.71,0,0,1-.14,5.37,3.78,3.78,0,0,1-4.82.07c-1.15-.84-3.36-3.51-21.43-24.12a8.81,8.81,0,0,1-.95-3.39h-4.5V44.84c10.27,0,13-.15,17.09.42,16,2.21,15.82,2.2,15.92,2.2-1.8,10.77-1.5,8.72-1.5,8.95L68.65,76A3.84,3.84,0,0,1,68.94,81.24Z"/><path class="cls-9" d="M44.43,89.43v4.16a20.91,20.91,0,0,1-1.87-1.81Z"/><path class="cls-10" d="M50.56,47.46l-.44,2.63-.68.8L31,48H17.55V44.84c17.24,0,11.09-.41,33,2.62Z"/><polygon class="cls-9" points="40.37 61.87 58.88 66.21 49.06 56.41 40.37 61.87"/><path class="cls-2" d="M46.81,95.43c-2.38,0-3.49-1.43-5-2.93-21-24-19.66-22.4-19.75-22.57a9.46,9.46,0,0,1-.94-2.85H17.51a1,1,0,0,1-1-1V44.84a1,1,0,0,1,1-1c17.16,0,11.13-.41,33.13,2.63a1,1,0,0,1,.87,1.16l-1.42,8.44L69.32,75.3a4.85,4.85,0,0,1,.32,6.61h0a4.69,4.69,0,0,1-5.35,1.18,4.63,4.63,0,0,1-6.3,4,4.64,4.64,0,0,1-6.57,4A4.61,4.61,0,0,1,46.81,95.43Zm-23-26.52C46.12,94.37,42.72,90.57,44.68,92.53a2.7,2.7,0,1,0,4-3.67,1,1,0,0,1,1.41-1.42l1.18,1.17A2.72,2.72,0,0,0,56,86.94a2.69,2.69,0,0,0-.79-2,1,1,0,0,1,0-1.41,1,1,0,0,1,1.42,0l.93.93a2.71,2.71,0,1,0,4-3.69,1,1,0,0,1,0-1.41,1,1,0,0,1,1.42,0l1.31,1.31a2.69,2.69,0,0,0,3.92-.11,2.85,2.85,0,0,0-.25-3.86L48.31,57.12a1,1,0,0,1-.28-.88l1.33-7.93c-21-2.89-15.25-2.47-30.85-2.47V65.08H22A1,1,0,0,1,23,66,7.8,7.8,0,0,0,23.8,68.91ZM68.9,81.24h0Z"/><path class="cls-2" d="M62.22,81.08a1,1,0,0,1-.71-.3l-7.4-7.4a1,1,0,0,1,0-1.42,1,1,0,0,1,1.41,0l7.41,7.41A1,1,0,0,1,62.22,81.08Z"/><path class="cls-2" d="M55.91,85.24a1,1,0,0,1-.7-.3l-4.81-4.8a1,1,0,0,1,1.41-1.41l4.81,4.8A1,1,0,0,1,55.91,85.24Z"/><path class="cls-2" d="M49.35,89.15a1,1,0,0,1-.7-.3l-1.51-1.5a1,1,0,0,1,0-1.41,1,1,0,0,1,1.42,0l1.5,1.5A1,1,0,0,1,49.35,89.15Z"/><path class="cls-11" d="M79.17,45.88c-9.72,0-10.45-.05-12.83.15-15,1.27-14.26,1.14-15.78,1.43h0A18.78,18.78,0,0,0,39.89,53.6L38,55.74a3.72,3.72,0,0,0,5.12,5.36l5.91-4.69c7,7,18.63,18.64,20.52,20.51a25.5,25.5,0,0,0,5.71-7.29h3.88"/><path class="cls-12" d="M73.11,73.11l-3.53,3.81c-.11-.11-20.57-20.53-20.47-20.5a16.72,16.72,0,0,0,13.72,4.8l1.22-.13,1,.31Z"/><path class="cls-11" d="M31.49,69.91a3.69,3.69,0,0,1-1,2.53c-.2.23-2,2-4.06,4.06a3.7,3.7,0,0,1-5.23-5.23l4.06-4.06A3.7,3.7,0,0,1,31.49,69.91Z"/><path class="cls-11" d="M37,76.37l-6.92,6.91A3.7,3.7,0,0,1,25,78l6.85-6.84a3.4,3.4,0,0,1,4.32-.39s0,0,0,0a5.13,5.13,0,0,1,.91.81A3.39,3.39,0,0,1,37,76.37Z"/><path class="cls-11" d="M40.17,83.71l-4.1,4.1a3.7,3.7,0,0,1-5.32-5.15c2-2,.56-.56,4.25-4.25a3.7,3.7,0,0,1,5.17,5.3Z"/><path class="cls-11" d="M43.62,90.72l0,0a17.23,17.23,0,0,1-2.2,2.1,3.4,3.4,0,0,1-4.26-.43l-.23-.23a3.69,3.69,0,0,1-.17-5,0,0,0,0,0,0,0c.08-.1,1.63-1.67,1.71-1.71a3.71,3.71,0,0,1,5,.26l.21.21A3.39,3.39,0,0,1,43.62,90.72Z"/><path class="cls-13" d="M31.49,69.91a3.69,3.69,0,0,1-1,2.53l-.08.09,0,0a3.7,3.7,0,1,1,1.12-2.65Z"/><path class="cls-13" d="M37,71.58a3.39,3.39,0,0,1,0,4.79c-3.2,3.2-2.86,2.86-3,3A3.7,3.7,0,0,1,28.89,74l2.91-2.9a3.4,3.4,0,0,1,4.32-.39s0,0,0,0A5.13,5.13,0,0,1,37,71.58Z"/><path class="cls-14" d="M36.29,77.12c-1.64,1.64-1.72,1.72-.09.08Z"/><path class="cls-13" d="M40.17,83.71a3.71,3.71,0,1,1-5.48-5l.31-.31a3.7,3.7,0,0,1,5.17,5.3Z"/><path class="cls-13" d="M43.62,90.72l0,0a3.39,3.39,0,0,1-4.79,0l-.23-.23a3.69,3.69,0,0,1-.17-5,0,0,0,0,0,0,0,3.7,3.7,0,0,1,4.35-.3,4.62,4.62,0,0,1,.86.73A3.39,3.39,0,0,1,43.62,90.72Z"/><path class="cls-15" d="M81.41,72.5H79.17V43.92h10A41.25,41.25,0,0,1,81.41,72.5Z"/><path class="cls-16" d="M17.55,42.12V70.7H13.34A41.55,41.55,0,0,1,7,42.12Z"/><path class="cls-16" d="M79.17,61V72.5h2.24A41.25,41.25,0,0,0,87.32,61Z"/><path class="cls-17" d="M8.68,61a41.24,41.24,0,0,0,4.66,9.66h4.21V61Z"/><path class="cls-5" d="M4,36.63l2.15-2.15a4.2,4.2,0,0,0,.72-4.95,19.38,19.38,0,1,1,36.47-9.17c0,15.39-16.4,24-28.95,16.89a4.37,4.37,0,0,0-2.19-.62Z"/><path class="cls-6" d="M33.43,25.17a4.85,4.85,0,0,0,4.91-4.8A14.39,14.39,0,0,0,9.67,18.61a6,6,0,0,0,6,6.56Z"/><path class="cls-7" d="M29.12,13.68A1.4,1.4,0,0,0,30,11.23a9.41,9.41,0,0,0-12.17,0,1.39,1.39,0,0,0,.9,2.45Z"/><path class="cls-13" d="M75.08,48c-6-.16-6.75-.25-8.6,0l-6.9.93a1,1,0,0,0-.1,1.94c6.24,1.52,6.23,1.57,7.14,1.57h8.7a1.21,1.21,0,0,0,1.21-1.21V49.45A1.49,1.49,0,0,0,75.08,48Z"/><rect class="cls-6" x="18.41" y="28.83" width="11.15" height="3.4" rx="1.7"/><path class="cls-2" d="M51.29,20.36A20.38,20.38,0,1,1,89.64,30a3.17,3.17,0,0,0,.55,3.76l2.15,2.15a1,1,0,0,1-.7,1.71H83.43a3.4,3.4,0,0,0-1.69.48A20.31,20.31,0,0,1,51.29,20.36ZM71.65,2A18.39,18.39,0,0,0,53.29,20.36c0,14.71,15.6,22.77,27.46,16a5.33,5.33,0,0,1,2.68-.75h5.79l-.44-.44a5.16,5.16,0,0,1-.9-6.13A18.4,18.4,0,0,0,71.65,2Z"/><path class="cls-2" d="M65.07,21.39H63.64a1,1,0,0,1,0-2h1.43a1,1,0,0,1,0,2Z"/><path class="cls-2" d="M72.68,21.39H71.25a1,1,0,0,1,0-2h1.43a1,1,0,0,1,0,2Z"/><path class="cls-2" d="M80.29,21.39H78.85a1,1,0,0,1,0-2h1.44a1,1,0,0,1,0,2Z"/><path class="cls-2" d="M23.93,40.78a20.31,20.31,0,0,1-10.07-2.67,3.4,3.4,0,0,0-1.69-.48H4a1,1,0,0,1-.71-1.71L5.4,33.77A3.15,3.15,0,0,0,6,30,20.38,20.38,0,0,1,37.4,5.09C51.07,17.15,43.36,40.78,23.93,40.78ZM6.37,35.63h5.8a5.33,5.33,0,0,1,2.68.75c11.82,6.73,27.48-1.25,27.46-16a18.38,18.38,0,1,0-34.59,8.7,5.17,5.17,0,0,1-.9,6.13Z"/><path class="cls-2" d="M32,21.39H30.52a1,1,0,1,1,0-2H32a1,1,0,1,1,0,2Z"/><path class="cls-2" d="M24.35,21.39H22.92a1,1,0,0,1,0-2h1.43a1,1,0,0,1,0,2Z"/><path class="cls-2" d="M16.74,21.39H15.31a1,1,0,0,1,0-2h1.43a1,1,0,0,1,0,2Z"/><path class="cls-2" d="M22,67.08a1,1,0,0,1-1-.9,18.67,18.67,0,0,1,0-3.81,1,1,0,0,1,2,.19A17,17,0,0,0,23,66,1,1,0,0,1,22,67.08Z"/><path class="cls-2" d="M69.54,77.92c-.61,0,1,1.38-20.6-20.17l-5.21,4.13a4.72,4.72,0,0,1-6.5-6.79l1.87-2.15a19.85,19.85,0,0,1,11.22-6.46c1.7-.31,1.16-.19,15.9-1.45,2.5-.21,3.48-.15,12.91-.15a1,1,0,0,1,0,2c-9.73,0-10.42-.05-12.75.15-14.66,1.24-14.16,1.13-15.67,1.41a17.83,17.83,0,0,0-10.1,5.82L38.75,56.4a2.64,2.64,0,0,0-.67,1.77,2.72,2.72,0,0,0,4.41,2.15l5.91-4.69a1,1,0,0,1,1.33.07l19.8,19.81a21.86,21.86,0,0,0,4.82-6.32,1,1,0,0,1,.9-.56h3.88a1,1,0,0,1,0,2H75.86a26.67,26.67,0,0,1-5.61,7A1,1,0,0,1,69.54,77.92Z"/><path class="cls-2" d="M61.61,62.63a18.71,18.71,0,0,1-13.29-5.52,1,1,0,0,1,1.41-1.41,16.74,16.74,0,0,0,13.76,4.83l1.09-.12a1,1,0,1,1,.22,2A23.82,23.82,0,0,1,61.61,62.63Z"/><path class="cls-2" d="M23.78,78.59a4.72,4.72,0,0,1-3.33-8l4-4a4.7,4.7,0,1,1,6.65,6.65l-4,4A4.63,4.63,0,0,1,23.78,78.59Zm4-11.38a2.69,2.69,0,0,0-1.91.79l-4,4a2.7,2.7,0,0,0,0,3.81,2.75,2.75,0,0,0,3.82,0l4-4A2.71,2.71,0,0,0,27.75,67.21Z"/><path class="cls-2" d="M27.56,85.28a4.71,4.71,0,0,1-3.33-8l6.83-6.83a4.41,4.41,0,0,1,6.2,0l.45.44a4.39,4.39,0,0,1,0,6.21L30.88,83.9A4.68,4.68,0,0,1,27.56,85.28Zm4.91-13.43-6.82,6.82a2.7,2.7,0,0,0,3.82,3.82l6.82-6.82a2.38,2.38,0,0,0,0-3.38l-.44-.45A2.41,2.41,0,0,0,32.47,71.85Z"/><path class="cls-2" d="M30.1,88.52a4.7,4.7,0,0,1,0-6.65l4.1-4.1a4.7,4.7,0,0,1,6.65,6.65h0l-4.1,4.1A4.7,4.7,0,0,1,30.1,88.52Zm7.41-10.13a2.73,2.73,0,0,0-1.91.79l-4.09,4.1a2.7,2.7,0,0,0,3.82,3.82l4.1-4.1A2.71,2.71,0,0,0,37.51,78.39Zm2.62,5.32h0Z"/><path class="cls-2" d="M36.39,93.14l-.23-.23a4.69,4.69,0,0,1,0-6.64L37.43,85a4.71,4.71,0,0,1,6.65,0l.22.22a4.4,4.4,0,0,1,0,6.21l-1.71,1.71A4.4,4.4,0,0,1,36.39,93.14Zm4.36-7.52c-1.36,0-1.9.79-3.18,2.06a2.7,2.7,0,0,0,0,3.81l.23.23a2.4,2.4,0,0,0,3.38,0l1.7-1.7a2.41,2.41,0,0,0,0-3.39l-.22-.22A2.7,2.7,0,0,0,40.75,85.62Z"/><path class="cls-2" d="M81.37,73.5H79.13a1,1,0,0,1-1-1V43.92a1,1,0,0,1,1-1H89.18a1,1,0,0,1,1,.9,42.21,42.21,0,0,1-8,29.27A1,1,0,0,1,81.37,73.5Zm-1.24-2h.73a40.17,40.17,0,0,0,7.41-26.58H80.13Z"/><path class="cls-2" d="M17.51,71.7H13.3a1,1,0,0,1-.83-.45A42.56,42.56,0,0,1,6,42a1,1,0,0,1,1-.86H17.51a1,1,0,0,1,1,1V70.7A1,1,0,0,1,17.51,71.7Zm-3.66-2h2.66V43.12H7.82A40.56,40.56,0,0,0,13.85,69.7Z"/></g></svg>