<svg xmlns="http://www.w3.org/2000/svg" viewBox="0 0 96 96"><defs><style>.cls-1{fill:#302d3d;}.cls-2{fill:#3f3c6a;}.cls-3{fill:#302856;}.cls-4{fill:#ffa68d;}.cls-5{fill:#fb8d74;}.cls-6{fill:#fbc4ab;}.cls-7{fill:#4e5088;}.cls-8{fill:#4e5fba;}.cls-9{fill:#ffa64d;}.cls-10{fill:#4d6dc7;}.cls-11{fill:#84aeea;}.cls-12{fill:#e61f34;}.cls-13{fill:#fe4a55;}.cls-14{fill:#ffca6e;}.cls-15{fill:#ff736e;}.cls-16{fill:#ffe391;}.cls-17{fill:#d2e7ff;}</style></defs><title>Network</title><g id="Network"><path class="cls-1" d="M47.31,46.75c-.6,0,1.91,2.12-38.59-35.14a1,1,0,1,1,1.35-1.47L48,45A1,1,0,0,1,47.31,46.75Z"/><path class="cls-1" d="M13.69,57.59a1,1,0,0,1-.31-2L47,44.8a1,1,0,1,1,.61,1.91C11.69,58.28,13.93,57.59,13.69,57.59Z"/><path class="cls-1" d="M74.28,86.17a1,1,0,0,1-.72-1.7l15-15.41A1,1,0,1,1,90,70.45L75,85.87A1,1,0,0,1,74.28,86.17Z"/><path class="cls-1" d="M89.31,70.75a1,1,0,0,1-1-.75L82.6,47.08a1,1,0,1,1,1.93-.48l5.75,22.91A1,1,0,0,1,89.31,70.75Z"/><path class="cls-1" d="M34.94,84.67c-.16,0,1.09.27-21.08-4.71A1,1,0,0,1,14.3,78L35.16,82.7A1,1,0,0,1,34.94,84.67Z"/><path class="cls-1" d="M14.08,80a1,1,0,0,1-.7-1.71L46.61,45.05A1,1,0,0,1,48,46.46L14.79,79.69A1,1,0,0,1,14.08,80Z"/><path class="cls-1" d="M89.31,70.75c-.41,0,2.49,1.57-42.49-24.13a1,1,0,1,1,1-1.73l42,24A1,1,0,0,1,89.31,70.75Z"/><path class="cls-1" d="M47.31,46.75a1,1,0,0,1-.91-1.39L62.17,9a1,1,0,0,1,1.84.8L48.23,46.15A1,1,0,0,1,47.31,46.75Z"/><path class="cls-1" d="M8.4,11a1,1,0,0,1,.92-1.07l20.92-1.5a1,1,0,0,1,.15,2L9.47,11.88A1,1,0,0,1,8.4,11Z"/><path class="cls-1" d="M11.56,35a1,1,0,0,1-1-.9L8.4,11a1,1,0,0,1,2-.19l2.17,23.13A1,1,0,0,1,11.56,35Z"/><path class="cls-1" d="M78.56,23.57c-.52,0,.84,1-16.12-13.43a1,1,0,1,1,1.3-1.52L79.21,21.81A1,1,0,0,1,78.56,23.57Z"/><path class="cls-2" d="M45.32,23.76h4A16.08,16.08,0,0,1,65.4,39.83v7.39a0,0,0,0,1,0,0H29.24a0,0,0,0,1,0,0V39.83A16.08,16.08,0,0,1,45.32,23.76Z"/><rect class="cls-3" x="29.24" y="41.26" width="36.16" height="5.97"/><path class="cls-1" d="M65.39,48.23H29.24a1,1,0,0,1-1-1V39.84A17.1,17.1,0,0,1,45.31,22.76h4A17.1,17.1,0,0,1,66.39,39.84v7.39A1,1,0,0,1,65.39,48.23Zm-35.15-2H64.39V39.84A15.1,15.1,0,0,0,49.32,24.76h-4A15.1,15.1,0,0,0,30.24,39.84Z"/><path class="cls-4" d="M68.65,50.12a3.29,3.29,0,0,1-3.29,3.49H29.28a3.39,3.39,0,0,1,0-6.78H65.36A3.29,3.29,0,0,1,68.65,50.12Z"/><path class="cls-5" d="M65.1,46.83c0,5.54,0,5.64-.08,6.78H29.62c-.11-1.19-.08-1.42-.08-6.78Z"/><path class="cls-1" d="M65.36,54.62H29.27a4.39,4.39,0,0,1,0-8.78H65.36a4.39,4.39,0,0,1,0,8.78ZM29.27,47.84A2.3,2.3,0,0,0,27,50.13v.21a2.29,2.29,0,0,0,2.29,2.28H65.36a2.29,2.29,0,0,0,2.29-2.28v-.21a2.3,2.3,0,0,0-2.29-2.29Z"/><path class="cls-6" d="M63.1,46.83V52a15.78,15.78,0,0,1-31.55,0V46.83l2.92-3.72a5.85,5.85,0,0,0,1.24-3.4l.18-4.63a2,2,0,0,1,2-1.9,73.32,73.32,0,0,0,18.68,0,2,2,0,0,1,2.22,1.88l.17,4.63a5.93,5.93,0,0,0,1.25,3.4Z"/><path class="cls-7" d="M41,31.5a2.55,2.55,0,0,1-.57-4.9,13.88,13.88,0,0,1,4.75-.85c4,0,6.15-.22,9.22,1a2.45,2.45,0,0,1-.68,4.71A67.42,67.42,0,0,1,41,31.5Z"/><path class="cls-8" d="M49.58,28.11H45.07a1.08,1.08,0,0,1,0-2.15h4.51a1.08,1.08,0,0,1,0,2.15Z"/><path class="cls-9" d="M18.76,79a4.68,4.68,0,1,1-4.68-4.68A4.68,4.68,0,0,1,18.76,79Z"/><path class="cls-10" d="M41,83.67a6.07,6.07,0,1,1-6.08-6.08A6.08,6.08,0,0,1,41,83.67Z"/><path class="cls-11" d="M38.89,81.55a6.07,6.07,0,0,1-9.17,5.22,6.08,6.08,0,0,1,5.21-9.18,5.94,5.94,0,0,1,3.1.86A5.94,5.94,0,0,1,38.89,81.55Z"/><path class="cls-12" d="M91.22,46.84a7.66,7.66,0,1,1-7.66-7.67A7.66,7.66,0,0,1,91.22,46.84Z"/><path class="cls-12" d="M17.1,10.87A7.71,7.71,0,1,1,9.39,3.16,7.72,7.72,0,0,1,17.1,10.87Z"/><path class="cls-10" d="M34.94,9.37a4.63,4.63,0,1,1-4.63-4.62A4.63,4.63,0,0,1,34.94,9.37Z"/><path class="cls-9" d="M16.43,34a4.87,4.87,0,1,1-4.87-4.87A4.87,4.87,0,0,1,16.43,34Z"/><path class="cls-9" d="M81.94,85.16a7.66,7.66,0,1,1-7.67-7.66A7.67,7.67,0,0,1,81.94,85.16Z"/><path class="cls-13" d="M88.6,44.22A7.66,7.66,0,0,1,77,50.78a7.67,7.67,0,0,1,6.56-11.61,7.55,7.55,0,0,1,3.94,1.1A7.56,7.56,0,0,1,88.6,44.22Z"/><path class="cls-13" d="M14.48,8.25a7.71,7.71,0,0,1-11.69,6.6A7.71,7.71,0,0,1,13.36,4.26,7.63,7.63,0,0,1,14.48,8.25Z"/><path class="cls-14" d="M79.31,82.54a7.66,7.66,0,0,1-11.6,6.57A7.67,7.67,0,0,1,74.27,77.5a7.53,7.53,0,0,1,3.94,1.1A7.55,7.55,0,0,1,79.31,82.54Z"/><path class="cls-10" d="M94.31,69.75a5,5,0,1,1-5-5A5,5,0,0,1,94.31,69.75Z"/><path class="cls-12" d="M17.1,56.59a3.42,3.42,0,0,1-6.26,1.9,0,0,0,0,1,0,0,3.42,3.42,0,1,1,6.27-1.89Z"/><path class="cls-13" d="M16.17,55.66a3.42,3.42,0,0,1-5.33,2.83,0,0,0,0,1,0,0,3.42,3.42,0,0,1,4.76-4.73A3.37,3.37,0,0,1,16.17,55.66Z"/><path class="cls-9" d="M68.34,9.37a5.25,5.25,0,1,1-5.25-5.24A5.26,5.26,0,0,1,68.34,9.37Z"/><path class="cls-12" d="M83.56,22.56a5,5,0,1,1-5-5A5,5,0,0,1,83.56,22.56Z"/><path class="cls-14" d="M17.11,77.33a4.68,4.68,0,0,1-7.07,4,4.69,4.69,0,0,1,4-7.06,4.64,4.64,0,0,1,2.39.66A4.62,4.62,0,0,1,17.11,77.33Z"/><path class="cls-11" d="M33.28,7.72a4.62,4.62,0,0,1-7,4,4.63,4.63,0,0,1,4-7,4.5,4.5,0,0,1,2.33.64A4.5,4.5,0,0,1,33.28,7.72Z"/><path class="cls-14" d="M14.78,32.35a4.87,4.87,0,0,1-7.39,4.16,4.88,4.88,0,0,1,4.17-7.38,4.76,4.76,0,0,1,2.51.7A4.83,4.83,0,0,1,14.78,32.35Z"/><path class="cls-11" d="M92.66,68.1A5,5,0,0,1,85,72.35a5,5,0,0,1,6.87-6.87A4.89,4.89,0,0,1,92.66,68.1Z"/><path class="cls-14" d="M66.68,7.72a5.24,5.24,0,0,1-8,4.44,5.25,5.25,0,0,1,4.44-8,5.11,5.11,0,0,1,2.78.81A5.11,5.11,0,0,1,66.68,7.72Z"/><path class="cls-13" d="M81.91,20.91a5,5,0,0,1-7.6,4.27,5,5,0,0,1,4.25-7.62,4.89,4.89,0,0,1,2.62.75A5,5,0,0,1,81.91,20.91Z"/><circle class="cls-15" cx="7.46" cy="9.5" r="3.37"/><circle class="cls-15" cx="81.91" cy="45.34" r="3.37"/><circle class="cls-16" cx="72.53" cy="83.17" r="3.37"/><circle class="cls-17" cx="88.03" cy="68.6" r="2.16"/><circle class="cls-17" cx="29.24" cy="8.43" r="2.16"/><circle class="cls-16" cx="10.48" cy="32.98" r="2.16"/><circle class="cls-16" cx="12.9" cy="77.95" r="2.16"/><circle class="cls-15" cx="77.39" cy="21.56" r="2.16"/><circle class="cls-15" cx="13.17" cy="56.07" r="1.61"/><circle class="cls-16" cx="62.25" cy="8.38" r="2.43"/><circle class="cls-17" cx="33.28" cy="82.27" r="2.4"/><path class="cls-1" d="M47.32,68.74A16.79,16.79,0,0,1,30.54,52V46.84c0-.47-.08-.25,3.13-4.34a4.93,4.93,0,0,0,1-2.82l.17-4.62a3,3,0,0,1,3.33-2.85,72,72,0,0,0,18.2,0,3,3,0,0,1,3.34,2.84l.17,4.62a5,5,0,0,0,1,2.83l2.92,3.71c.29.37.21.07.21,5.75A16.79,16.79,0,0,1,47.32,68.74ZM32.54,47.18V52a14.78,14.78,0,0,0,29.55,0V47.18l-2.71-3.44a6.86,6.86,0,0,1-1.45-4l-.18-4.62a1,1,0,0,0-.34-.71c-.48-.4-.59-.17-3.55.08A73.73,73.73,0,0,1,38,34.2a1,1,0,0,0-1.1.93l-.18,4.62a7,7,0,0,1-1.45,4Z"/><path class="cls-1" d="M53.61,48.58a1,1,0,0,1-1-1v-.7a1,1,0,0,1,2,0v.7A1,1,0,0,1,53.61,48.58Z"/><path class="cls-1" d="M55.22,44.78H52a1,1,0,1,1,0-2h3.21a1,1,0,0,1,0,2Z"/><path class="cls-1" d="M41,48.58a1,1,0,0,1-1-1v-.7a1,1,0,0,1,2,0v.7A1,1,0,0,1,41,48.58Z"/><path class="cls-1" d="M42.62,44.78H39.41a1,1,0,0,1,0-2h3.21a1,1,0,1,1,0,2Z"/><path class="cls-1" d="M43.3,59A1,1,0,0,1,45,57.86a2.84,2.84,0,0,0,4.73,0,1,1,0,1,1,1.66,1.1A4.84,4.84,0,0,1,43.3,59Z"/><path class="cls-1" d="M14.08,84.67A5.69,5.69,0,1,1,19.77,79,5.69,5.69,0,0,1,14.08,84.67Zm0-9.37A3.69,3.69,0,1,0,17.77,79,3.69,3.69,0,0,0,14.08,75.3Z"/><path class="cls-1" d="M34.94,90.75A7.08,7.08,0,1,1,42,83.67,7.09,7.09,0,0,1,34.94,90.75Zm0-12.15A5.08,5.08,0,1,0,40,83.67,5.08,5.08,0,0,0,34.94,78.6Z"/><path class="cls-1" d="M63.09,15.63a6.25,6.25,0,1,1,6.25-6.25A6.27,6.27,0,0,1,63.09,15.63Zm0-10.5a4.25,4.25,0,1,0,4.25,4.25A4.25,4.25,0,0,0,63.09,5.13Z"/><path class="cls-1" d="M83.56,55.5a8.66,8.66,0,1,1,8.67-8.66A8.67,8.67,0,0,1,83.56,55.5Zm0-15.32a6.66,6.66,0,1,0,6.67,6.66A6.66,6.66,0,0,0,83.56,40.18Z"/><path class="cls-1" d="M9.4,19.59a8.71,8.71,0,1,1,8.7-8.71A8.72,8.72,0,0,1,9.4,19.59Zm0-15.42a6.71,6.71,0,1,0,6.7,6.71A6.71,6.71,0,0,0,9.4,4.17Z"/><path class="cls-1" d="M30.31,15a5.63,5.63,0,1,1,5.63-5.62A5.62,5.62,0,0,1,30.31,15Zm0-9.25a3.63,3.63,0,1,0,3.63,3.63A3.63,3.63,0,0,0,30.31,5.75Z"/><path class="cls-1" d="M11.56,39.88A5.88,5.88,0,1,1,17.44,34,5.89,5.89,0,0,1,11.56,39.88Zm0-9.75A3.88,3.88,0,1,0,15.44,34,3.88,3.88,0,0,0,11.56,30.13Z"/><path class="cls-1" d="M74.28,93.83a8.67,8.67,0,1,1,8.66-8.66A8.68,8.68,0,0,1,74.28,93.83Zm0-15.33a6.67,6.67,0,1,0,6.66,6.67A6.67,6.67,0,0,0,74.28,78.5Z"/><path class="cls-1" d="M89.31,75.75a6,6,0,1,1,6-6A6,6,0,0,1,89.31,75.75Zm0-10a4,4,0,1,0,4,4A4,4,0,0,0,89.31,65.75Z"/><path class="cls-1" d="M78.56,28.57a6,6,0,1,1,6-6A6,6,0,0,1,78.56,28.57Zm0-10a4,4,0,1,0,4,4A4,4,0,0,0,78.56,18.57Z"/><path class="cls-1" d="M13.69,61a4.42,4.42,0,1,1,4.41-4.42A4.42,4.42,0,0,1,13.69,61Zm0-6.84a2.42,2.42,0,1,0,2.41,2.42A2.42,2.42,0,0,0,13.69,54.17Z"/></g></svg>