<svg xmlns="http://www.w3.org/2000/svg" viewBox="0 0 96 96"><defs><style>.cls-1{fill:#302d3d;}.cls-2{fill:#ffa64d;}.cls-3{fill:#ffca6e;}.cls-4{fill:#dc6941;}.cls-5{fill:#f0824b;}.cls-6{fill:#fff;}.cls-7{fill:#4f5b9e;}.cls-8{fill:#6d7ea8;}.cls-9{fill:#3c3264;}</style></defs><title>Office Chair</title><g id="Office_Chair" data-name="Office Chair"><path class="cls-1" d="M67.58,62.07H28.42a5.24,5.24,0,0,1-5.24-5.23V48a1,1,0,0,1,2,0v8.84a3.24,3.24,0,0,0,3.24,3.23H67.58a3.24,3.24,0,0,0,3.24-3.23V48a1,1,0,0,1,2,0v8.84A5.24,5.24,0,0,1,67.58,62.07Z"/><rect class="cls-2" x="28.24" y="4.88" width="39.51" height="51.93" rx="2.17"/><path class="cls-3" d="M34.42,10.8H61.58a1.67,1.67,0,0,1,1.67,1.67V56.8a0,0,0,0,1,0,0H32.75a0,0,0,0,1,0,0V12.47A1.67,1.67,0,0,1,34.42,10.8Z"/><path class="cls-1" d="M65.59,57.8H30.41a3.18,3.18,0,0,1-3.17-3.16V7a3.18,3.18,0,0,1,3.17-3.16H65.59A3.18,3.18,0,0,1,68.76,7v47.6A3.18,3.18,0,0,1,65.59,57.8ZM30.41,5.88A1.17,1.17,0,0,0,29.24,7v47.6a1.17,1.17,0,0,0,1.17,1.16H65.59a1.17,1.17,0,0,0,1.17-1.16V7a1.17,1.17,0,0,0-1.17-1.16Z"/><rect class="cls-2" x="37.38" y="4.88" width="21.25" height="51.93" rx="2.17"/><rect class="cls-3" x="41.09" y="4.88" width="13.82" height="51.93"/><path class="cls-1" d="M56.46,57.8H39.54a3.17,3.17,0,0,1-3.16-3.16V7a3.17,3.17,0,0,1,3.16-3.16H56.46A3.17,3.17,0,0,1,59.62,7v47.6A3.17,3.17,0,0,1,56.46,57.8ZM39.54,5.88A1.16,1.16,0,0,0,38.38,7v47.6a1.16,1.16,0,0,0,1.16,1.16H56.46a1.16,1.16,0,0,0,1.16-1.16V7a1.16,1.16,0,0,0-1.16-1.16Z"/><path class="cls-4" d="M58.62,34.29V54.64a2.16,2.16,0,0,1-2.16,2.16H39.54a2.16,2.16,0,0,1-2.16-2.16V34.29a2.17,2.17,0,0,1,2.16-2.17H56.46A2.17,2.17,0,0,1,58.62,34.29Z"/><path class="cls-5" d="M54.91,33.53V46.77a1.41,1.41,0,0,1-1.41,1.41h-11a1.41,1.41,0,0,1-1.41-1.41V33.53a1.41,1.41,0,0,1,1.41-1.41h11A1.41,1.41,0,0,1,54.91,33.53Z"/><path class="cls-4" d="M70.78,60.8v.54a4,4,0,0,1-4,4H29.22a4,4,0,0,1-3.8-2.75,4.91,4.91,0,0,1-.2-1.79,4,4,0,0,1,4-4H66.78A4,4,0,0,1,70.78,60.8Z"/><path class="cls-4" d="M58.62,3.17v7.72a2.17,2.17,0,0,1-2.16,2.17H39.54a2.17,2.17,0,0,1-2.16-2.17V3.17A2.17,2.17,0,0,1,39.54,1H56.46A2.17,2.17,0,0,1,58.62,3.17Z"/><path class="cls-5" d="M56.23,1V8.19a1.74,1.74,0,0,1-1.74,1.74H41.59a1.74,1.74,0,0,1-1.74-1.74V1Z"/><rect class="cls-6" x="41.94" y="4" width="12.12" height="2.93" rx="1.47"/><path class="cls-1" d="M56.46,14.06H39.54a3.17,3.17,0,0,1-3.16-3.17V3.17A3.17,3.17,0,0,1,39.54,0H56.46a3.17,3.17,0,0,1,3.16,3.17v7.72A3.17,3.17,0,0,1,56.46,14.06ZM39.54,2a1.16,1.16,0,0,0-1.16,1.17v7.72a1.16,1.16,0,0,0,1.16,1.17H56.46a1.16,1.16,0,0,0,1.16-1.17V3.17A1.16,1.16,0,0,0,56.46,2Z"/><path class="cls-7" d="M56.17,70.44H39.83A2.12,2.12,0,0,1,38,69.38l-2.37-4H60.38l-2.37,4A2.12,2.12,0,0,1,56.17,70.44Z"/><path class="cls-8" d="M61.87,81.92h-11V70.44H45.13V81.92h-11a3.82,3.82,0,0,0-3.64,2.68l-2.13,7a2.67,2.67,0,0,0,5.11,1.56l1.79-5.85h9.87v5.07A2.66,2.66,0,0,0,47.8,95h.4a2.66,2.66,0,0,0,2.67-2.67V87.26h9.87l1.79,5.85a2.67,2.67,0,0,0,5.11-1.56l-2.13-7A3.82,3.82,0,0,0,61.87,81.92Z"/><path class="cls-7" d="M34.26,85.8h9.41a1.46,1.46,0,0,1,1.46,1.46H35.27l-1.8,5.85a2.66,2.66,0,0,1-4.35,1.18,3.26,3.26,0,0,0,3.31-2.52Z"/><path class="cls-7" d="M61.74,85.8H52.33a1.46,1.46,0,0,0-1.46,1.46h9.86l1.8,5.85a2.66,2.66,0,0,0,4.35,1.18,3.26,3.26,0,0,1-3.31-2.52Z"/><path class="cls-4" d="M29.87,43.91V49A1.84,1.84,0,0,1,28,50.88H20.34A1.84,1.84,0,0,1,18.5,49V43.91a1.84,1.84,0,0,1,1.84-1.85H28A1.84,1.84,0,0,1,29.87,43.91Z"/><path class="cls-4" d="M77.5,43.91V49a1.84,1.84,0,0,1-1.84,1.85H68A1.84,1.84,0,0,1,66.13,49V43.91A1.84,1.84,0,0,1,68,42.06h7.69A1.84,1.84,0,0,1,77.5,43.91Z"/><path class="cls-5" d="M68.22,58.79a4,4,0,0,1-4,4c-41.15,0-37.94.09-38.8-.2a4.91,4.91,0,0,1-.2-1.79,4,4,0,0,1,4-4c41.1,0,37.94-.09,38.8.2A4.89,4.89,0,0,1,68.22,58.79Z"/><path class="cls-5" d="M27.32,42.06v4.42a1.84,1.84,0,0,1-1.84,1.84h-7V43.91a1.84,1.84,0,0,1,1.84-1.85Z"/><path class="cls-1" d="M28,51.88H20.34A2.85,2.85,0,0,1,17.5,49V43.91a2.85,2.85,0,0,1,2.84-2.85H28a2.85,2.85,0,0,1,2.84,2.85V49A2.85,2.85,0,0,1,28,51.88Zm-7.69-8.82a.85.85,0,0,0-.84.85V49a.85.85,0,0,0,.84.85H28a.85.85,0,0,0,.84-.85V43.91a.85.85,0,0,0-.84-.85Z"/><path class="cls-5" d="M75,42.06v4.42a1.84,1.84,0,0,1-1.84,1.84h-7V43.91A1.84,1.84,0,0,1,68,42.06Z"/><path class="cls-1" d="M75.66,51.88H68A2.85,2.85,0,0,1,65.13,49V43.91A2.85,2.85,0,0,1,68,41.06h7.69a2.85,2.85,0,0,1,2.84,2.85V49A2.85,2.85,0,0,1,75.66,51.88ZM68,43.06a.85.85,0,0,0-.84.85V49a.85.85,0,0,0,.84.85h7.69A.85.85,0,0,0,76.5,49V43.91a.85.85,0,0,0-.84-.85Z"/><rect class="cls-9" x="45.13" y="70.44" width="5.74" height="2.78"/><path class="cls-1" d="M56.46,57.8H39.54a3.17,3.17,0,0,1-3.16-3.16V34.29a3.18,3.18,0,0,1,3.16-3.17H56.46a3.18,3.18,0,0,1,3.16,3.17V54.64A3.17,3.17,0,0,1,56.46,57.8ZM39.54,33.12a1.17,1.17,0,0,0-1.16,1.17V54.64a1.16,1.16,0,0,0,1.16,1.16H56.46a1.16,1.16,0,0,0,1.16-1.16V34.29a1.17,1.17,0,0,0-1.16-1.17Z"/><path class="cls-1" d="M66.78,66.34H29.22a5,5,0,0,1-5-5V60.8a5,5,0,0,1,5-5H66.78a5,5,0,0,1,5,5v.54A5,5,0,0,1,66.78,66.34ZM29.22,57.8a3,3,0,0,0-3,3v.54a3,3,0,0,0,3,3H66.78a3,3,0,0,0,3-3V60.8a3,3,0,0,0-3-3Z"/><path class="cls-1" d="M56.17,71.44H39.83a3.17,3.17,0,0,1-2.71-1.55l-2.37-4a1,1,0,0,1,.87-1.51H60.38a1,1,0,0,1,.87,1.51l-2.37,4A3.17,3.17,0,0,1,56.17,71.44Zm-18.81-5.1,1.49,2.54a1.15,1.15,0,0,0,1,.56H56.17a1.15,1.15,0,0,0,1-.56l1.49-2.54Z"/><path class="cls-1" d="M65.08,96a3.64,3.64,0,0,1-3.5-2.59L60,88.26H51.87v4.07A3.68,3.68,0,0,1,48.2,96h-.4a3.68,3.68,0,0,1-3.67-3.67V88.26H36l-1.58,5.15a3.67,3.67,0,1,1-7-2.16l2.13-6.94a4.77,4.77,0,0,1,4.59-3.39h10V70.44a1,1,0,0,1,1-1h5.74a1,1,0,0,1,1,1V80.92h10a4.77,4.77,0,0,1,4.59,3.39l2.13,6.94A3.67,3.67,0,0,1,65.08,96ZM50.87,86.26h9.87a1,1,0,0,1,1,.71l1.79,5.85a1.67,1.67,0,1,0,3.19-1L64.55,84.9a2.78,2.78,0,0,0-2.68-2h-11a1,1,0,0,1-1-1V71.44H46.13V81.92a1,1,0,0,1-1,1h-11a2.78,2.78,0,0,0-2.68,2l-2.13,6.94a1.63,1.63,0,0,0,.25,1.48,1.67,1.67,0,0,0,2.94-.5L34.3,87a1,1,0,0,1,1-.7h9.87a1,1,0,0,1,1,1v5.07A1.67,1.67,0,0,0,47.8,94h.4a1.67,1.67,0,0,0,1.67-1.67V87.26A1,1,0,0,1,50.87,86.26Z"/></g></svg>