<svg xmlns="http://www.w3.org/2000/svg" viewBox="0 0 96 96"><defs><style>.cls-1{fill:#3ab67d;}.cls-2{fill:#3a9869;}.cls-3{fill:#44cf87;}.cls-4{fill:#1ca278;}.cls-5{fill:#b3c4d0;}.cls-6{fill:#302d3d;}.cls-7{fill:#fff;}.cls-8{fill:#6d7ea8;}.cls-9{fill:#e5ecf3;}.cls-10{fill:#fe4a55;}.cls-11{fill:#ff736e;}.cls-12{fill:#ff9f9f;}.cls-13{fill:#86abda;}.cls-14{fill:#b3c4f3;}.cls-15{fill:#dbddf3;}.cls-16{fill:#5c86c7;}.cls-17{fill:#ade8f4;}.cls-18{fill:#95b0da;}</style></defs><title>Office Location</title><g id="Office_Location" data-name="Office Location"><rect class="cls-1" x="48.98" y="35.12" width="39.52" height="5.38"/><rect class="cls-2" x="48.98" y="38.32" width="39.52" height="2.18"/><rect class="cls-1" x="48.98" y="40.5" width="39.52" height="49.5"/><rect class="cls-3" x="56.69" y="42.96" width="15.81" height="24.83" rx="1.81"/><rect class="cls-3" x="76.86" y="42.96" width="8.31" height="19.91" rx="1.81"/><rect class="cls-4" x="48.98" y="40.5" width="3.51" height="49.5"/><rect class="cls-2" x="48.98" y="78.4" width="39.52" height="11.6"/><rect class="cls-5" x="48.98" y="83.37" width="39.52" height="6.63"/><path class="cls-6" d="M88.5,91H49a1,1,0,0,1-1-1V83.38a1,1,0,0,1,1-1H88.5a1,1,0,0,1,1,1V90A1,1,0,0,1,88.5,91ZM50,89H87.5V84.38H50Z"/><rect class="cls-7" x="70.63" y="65.58" width="4.24" height="4.99"/><rect class="cls-7" x="78.66" y="65.58" width="4.24" height="4.99"/><rect class="cls-7" x="62.6" y="65.58" width="4.24" height="4.99"/><rect class="cls-7" x="70.63" y="55.29" width="4.24" height="4.99"/><rect class="cls-7" x="78.66" y="55.29" width="4.24" height="4.99"/><rect class="cls-7" x="62.6" y="55.29" width="4.24" height="4.99"/><rect class="cls-7" x="70.63" y="45" width="4.24" height="4.99"/><rect class="cls-7" x="78.66" y="45" width="4.24" height="4.99"/><rect class="cls-7" x="62.6" y="45" width="4.24" height="4.99"/><rect class="cls-7" x="54.57" y="65.58" width="4.24" height="4.99"/><rect class="cls-7" x="54.57" y="55.29" width="4.24" height="4.99"/><rect class="cls-7" x="54.57" y="45" width="4.24" height="4.99"/><polygon class="cls-8" points="83.93 35.12 53.54 35.12 55.4 30.64 82.07 30.64 83.93 35.12"/><rect class="cls-9" x="1" y="90" width="94" height="5"/><rect class="cls-5" x="1" y="92.5" width="94" height="2.5"/><rect class="cls-8" x="25.21" y="92.5" width="45.57" height="2.5"/><rect class="cls-5" x="35.77" y="90" width="24.47" height="2.5"/><path class="cls-10" d="M68.74,1A10.12,10.12,0,0,0,58.62,11.12c0,5.6,10.12,14.3,10.12,14.3s10.12-8.7,10.12-14.3A10.12,10.12,0,0,0,68.74,1Zm-4,10.12a4,4,0,1,1,4,4A4,4,0,0,1,64.72,11.12Z"/><path class="cls-11" d="M68.74,3a8.13,8.13,0,0,0-8.12,8.12c0,2.93,4.28,8,7.79,11.3a.47.47,0,0,0,.66,0c3.51-3.35,7.79-8.37,7.79-11.3A8.13,8.13,0,0,0,68.74,3Zm1.07,12a4,4,0,1,1,2.79-2.75A3.92,3.92,0,0,1,69.81,15Z"/><path class="cls-12" d="M68.54,19.74c-.87-.88-1.67-1.76-2.39-2.62a.28.28,0,0,1,.32-.43,6,6,0,0,0,4.54,0,.28.28,0,0,1,.32.43c-.72.86-1.52,1.74-2.39,2.62A.28.28,0,0,1,68.54,19.74Z"/><rect class="cls-13" x="7.5" y="21.63" width="41.47" height="68.37"/><rect class="cls-14" x="14.23" y="22.89" width="28.01" height="33.47" rx="2.81" transform="translate(67.87 11.39) rotate(90)"/><rect class="cls-15" x="23.11" y="21.69" width="10.26" height="18.14" rx="1.52" transform="translate(58.99 2.52) rotate(90)"/><rect class="cls-14" x="25.02" y="52.74" width="6.44" height="18.14" rx="2.81" transform="translate(90.05 33.57) rotate(90)"/><rect class="cls-16" x="7.5" y="78.4" width="41.47" height="4.97"/><rect class="cls-5" x="7.5" y="83.37" width="41.47" height="6.63"/><path class="cls-6" d="M49,91H7.5a1,1,0,0,1-1-1V83.38a1,1,0,0,1,1-1H49a1,1,0,0,1,1,1V90A1,1,0,0,1,49,91ZM8.5,89H48V84.38H8.5Z"/><rect class="cls-8" x="48.98" y="86.69" width="39.52" height="3.31"/><rect class="cls-8" x="7.5" y="86.69" width="41.47" height="3.31"/><rect class="cls-17" x="20.48" y="74.85" width="15.52" height="15.15"/><rect class="cls-7" x="22.57" y="76.68" width="3.57" height="11.5" rx="0.82"/><rect class="cls-7" x="30.34" y="76.68" width="3.57" height="11.5" rx="0.82" transform="translate(64.24 164.85) rotate(180)"/><rect class="cls-7" x="30.34" y="50.87" width="4.7" height="5.53"/><rect class="cls-7" x="39.23" y="50.87" width="4.7" height="5.53"/><rect class="cls-7" x="21.44" y="50.87" width="4.7" height="5.53"/><rect class="cls-7" x="30.34" y="39.47" width="4.7" height="5.53"/><rect class="cls-7" x="39.23" y="39.47" width="4.7" height="5.53"/><rect class="cls-7" x="21.44" y="39.47" width="4.7" height="5.53"/><rect class="cls-7" x="30.34" y="28.08" width="4.7" height="5.53"/><rect class="cls-7" x="39.23" y="28.08" width="4.7" height="5.53"/><rect class="cls-7" x="21.44" y="28.08" width="4.7" height="5.53"/><rect class="cls-7" x="12.54" y="50.87" width="4.7" height="5.53"/><rect class="cls-7" x="30.34" y="62.26" width="4.7" height="5.53"/><rect class="cls-7" x="39.23" y="62.26" width="4.7" height="5.53"/><rect class="cls-7" x="21.44" y="62.26" width="4.7" height="5.53"/><rect class="cls-7" x="12.54" y="62.26" width="4.7" height="5.53"/><rect class="cls-7" x="12.54" y="39.47" width="4.7" height="5.53"/><rect class="cls-7" x="12.54" y="28.08" width="4.7" height="5.53"/><rect class="cls-17" x="63.28" y="74.85" width="10.91" height="15.15"/><rect class="cls-7" x="66.3" y="76.36" width="4.87" height="12.47" rx="1.33" transform="translate(137.47 165.19) rotate(180)"/><rect class="cls-18" x="60.3" y="31.65" width="16.87" height="2.45" rx="0.59"/><path class="cls-6" d="M88.5,41.5H49a1,1,0,0,1-1-1V35.12a1,1,0,0,1,1-1H88.5a1,1,0,0,1,1,1V40.5A1,1,0,0,1,88.5,41.5ZM50,39.5H87.5V36.12H50Z"/><path class="cls-6" d="M88.5,91H49a1,1,0,0,1-1-1V40.5a1,1,0,0,1,1-1H88.5a1,1,0,0,1,1,1V90A1,1,0,0,1,88.5,91ZM50,89H87.5V41.5H50Z"/><path class="cls-6" d="M74.88,71.57H70.63a1,1,0,0,1-1-1v-5a1,1,0,0,1,1-1h4.25a1,1,0,0,1,1,1v5A1,1,0,0,1,74.88,71.57Zm-3.25-2h2.25v-3H71.63Z"/><path class="cls-6" d="M82.91,71.57H78.67a1,1,0,0,1-1-1v-5a1,1,0,0,1,1-1h4.24a1,1,0,0,1,1,1v5A1,1,0,0,1,82.91,71.57Zm-3.24-2h2.24v-3H79.67Z"/><path class="cls-6" d="M66.85,71.57H62.6a1,1,0,0,1-1-1v-5a1,1,0,0,1,1-1h4.25a1,1,0,0,1,1,1v5A1,1,0,0,1,66.85,71.57Zm-3.25-2h2.25v-3H63.6Z"/><path class="cls-6" d="M74.88,61.28H70.63a1,1,0,0,1-1-1v-5a1,1,0,0,1,1-1h4.25a1,1,0,0,1,1,1v5A1,1,0,0,1,74.88,61.28Zm-3.25-2h2.25v-3H71.63Z"/><path class="cls-6" d="M82.91,61.28H78.67a1,1,0,0,1-1-1v-5a1,1,0,0,1,1-1h4.24a1,1,0,0,1,1,1v5A1,1,0,0,1,82.91,61.28Zm-3.24-2h2.24v-3H79.67Z"/><path class="cls-6" d="M66.85,61.28H62.6a1,1,0,0,1-1-1v-5a1,1,0,0,1,1-1h4.25a1,1,0,0,1,1,1v5A1,1,0,0,1,66.85,61.28Zm-3.25-2h2.25v-3H63.6Z"/><path class="cls-6" d="M74.88,51H70.63a1,1,0,0,1-1-1V45a1,1,0,0,1,1-1h4.25a1,1,0,0,1,1,1v5A1,1,0,0,1,74.88,51Zm-3.25-2h2.25V46H71.63Z"/><path class="cls-6" d="M82.91,51H78.67a1,1,0,0,1-1-1V45a1,1,0,0,1,1-1h4.24a1,1,0,0,1,1,1v5A1,1,0,0,1,82.91,51Zm-3.24-2h2.24V46H79.67Z"/><path class="cls-6" d="M66.85,51H62.6a1,1,0,0,1-1-1V45a1,1,0,0,1,1-1h4.25a1,1,0,0,1,1,1v5A1,1,0,0,1,66.85,51ZM63.6,49h2.25V46H63.6Z"/><path class="cls-6" d="M58.81,71.57H54.57a1,1,0,0,1-1-1v-5a1,1,0,0,1,1-1h4.24a1,1,0,0,1,1,1v5A1,1,0,0,1,58.81,71.57Zm-3.24-2h2.24v-3H55.57Z"/><path class="cls-6" d="M58.81,61.28H54.57a1,1,0,0,1-1-1v-5a1,1,0,0,1,1-1h4.24a1,1,0,0,1,1,1v5A1,1,0,0,1,58.81,61.28Zm-3.24-2h2.24v-3H55.57Z"/><path class="cls-6" d="M58.81,51H54.57a1,1,0,0,1-1-1V45a1,1,0,0,1,1-1h4.24a1,1,0,0,1,1,1v5A1,1,0,0,1,58.81,51Zm-3.24-2h2.24V46H55.57Z"/><path class="cls-6" d="M74.19,91H63.28a1,1,0,0,1-1-1V74.85a1,1,0,0,1,1-1H74.19a1,1,0,0,1,1,1V90A1,1,0,0,1,74.19,91Zm-9.91-2h8.91V75.85H64.28Z"/><path class="cls-6" d="M66.46,84.38a1,1,0,0,1-1-1v-.95a1,1,0,0,1,2,0v.95A1,1,0,0,1,66.46,84.38Z"/><path class="cls-6" d="M83.94,36.12H53.54a1,1,0,0,1-.92-1.38l1.86-4.48a1,1,0,0,1,.93-.62H82.07a1,1,0,0,1,.93.62l1.86,4.48A1,1,0,0,1,83.94,36.12Zm-28.9-2h27.4l-1-2.48H56.07Z"/><path class="cls-6" d="M95,96H1a1,1,0,0,1-1-1V90a1,1,0,0,1,1-1H95a1,1,0,0,1,1,1v5A1,1,0,0,1,95,96ZM2,94H94V91H2Z"/><path class="cls-6" d="M68.08,26.18c-.42-.37-10.46-9.07-10.46-15.06a11.12,11.12,0,1,1,22.23,0c0,6-10,14.69-10.46,15.06A1,1,0,0,1,68.08,26.18ZM68.73,2a9.13,9.13,0,0,0-9.11,9.12c0,3.91,6.07,10.21,9.11,13,3-2.76,9.12-9.06,9.12-13A9.13,9.13,0,0,0,68.73,2Zm0,14.14a5,5,0,1,1,5-5A5,5,0,0,1,68.73,16.14Zm0-8a3,3,0,1,0,3,3A3,3,0,0,0,68.73,8.11Z"/><path class="cls-6" d="M49,91H7.5a1,1,0,0,1-1-1V21.62a1,1,0,0,1,1-1H49a1,1,0,0,1,1,1V90A1,1,0,0,1,49,91ZM8.5,89H48V22.62H8.5Z"/><path class="cls-6" d="M36,91H20.48a1,1,0,0,1-1-1V74.85a1,1,0,0,1,1-1H36a1,1,0,0,1,1,1V90A1,1,0,0,1,36,91ZM21.48,89H35V75.85H21.48Z"/><path class="cls-6" d="M28.24,91a1,1,0,0,1-1-1V74.85a1,1,0,0,1,2,0V90A1,1,0,0,1,28.24,91Z"/><path class="cls-6" d="M35,57.4h-4.7a1,1,0,0,1-1-1V50.87a1,1,0,0,1,1-1H35a1,1,0,0,1,1,1V56.4A1,1,0,0,1,35,57.4Zm-3.7-2H34V51.87h-2.7Z"/><path class="cls-6" d="M43.93,57.4h-4.7a1,1,0,0,1-1-1V50.87a1,1,0,0,1,1-1h4.7a1,1,0,0,1,1,1V56.4A1,1,0,0,1,43.93,57.4Zm-3.7-2h2.7V51.87h-2.7Z"/><path class="cls-6" d="M26.14,57.4h-4.7a1,1,0,0,1-1-1V50.87a1,1,0,0,1,1-1h4.7a1,1,0,0,1,1,1V56.4A1,1,0,0,1,26.14,57.4Zm-3.7-2h2.7V51.87h-2.7Z"/><path class="cls-6" d="M35,46h-4.7a1,1,0,0,1-1-1V39.47a1,1,0,0,1,1-1H35a1,1,0,0,1,1,1V45A1,1,0,0,1,35,46Zm-3.7-2H34V40.47h-2.7Z"/><path class="cls-6" d="M43.93,46h-4.7a1,1,0,0,1-1-1V39.47a1,1,0,0,1,1-1h4.7a1,1,0,0,1,1,1V45A1,1,0,0,1,43.93,46Zm-3.7-2h2.7V40.47h-2.7Z"/><path class="cls-6" d="M26.14,46h-4.7a1,1,0,0,1-1-1V39.47a1,1,0,0,1,1-1h4.7a1,1,0,0,1,1,1V45A1,1,0,0,1,26.14,46Zm-3.7-2h2.7V40.47h-2.7Z"/><path class="cls-6" d="M35,34.6h-4.7a1,1,0,0,1-1-1V28.08a1,1,0,0,1,1-1H35a1,1,0,0,1,1,1V33.6A1,1,0,0,1,35,34.6Zm-3.7-2H34V29.08h-2.7Z"/><path class="cls-6" d="M43.93,34.6h-4.7a1,1,0,0,1-1-1V28.08a1,1,0,0,1,1-1h4.7a1,1,0,0,1,1,1V33.6A1,1,0,0,1,43.93,34.6Zm-3.7-2h2.7V29.08h-2.7Z"/><path class="cls-6" d="M26.14,34.6h-4.7a1,1,0,0,1-1-1V28.08a1,1,0,0,1,1-1h4.7a1,1,0,0,1,1,1V33.6A1,1,0,0,1,26.14,34.6Zm-3.7-2h2.7V29.08h-2.7Z"/><path class="cls-6" d="M17.24,57.4h-4.7a1,1,0,0,1-1-1V50.87a1,1,0,0,1,1-1h4.7a1,1,0,0,1,1,1V56.4A1,1,0,0,1,17.24,57.4Zm-3.7-2h2.7V51.87h-2.7Z"/><path class="cls-6" d="M35,68.79h-4.7a1,1,0,0,1-1-1V62.26a1,1,0,0,1,1-1H35a1,1,0,0,1,1,1v5.53A1,1,0,0,1,35,68.79Zm-3.7-2H34V63.26h-2.7Z"/><path class="cls-6" d="M43.93,68.79h-4.7a1,1,0,0,1-1-1V62.26a1,1,0,0,1,1-1h4.7a1,1,0,0,1,1,1v5.53A1,1,0,0,1,43.93,68.79Zm-3.7-2h2.7V63.26h-2.7Z"/><path class="cls-6" d="M26.14,68.79h-4.7a1,1,0,0,1-1-1V62.26a1,1,0,0,1,1-1h4.7a1,1,0,0,1,1,1v5.53A1,1,0,0,1,26.14,68.79Zm-3.7-2h2.7V63.26h-2.7Z"/><path class="cls-6" d="M17.24,68.79h-4.7a1,1,0,0,1-1-1V62.26a1,1,0,0,1,1-1h4.7a1,1,0,0,1,1,1v5.53A1,1,0,0,1,17.24,68.79Zm-3.7-2h2.7V63.26h-2.7Z"/><path class="cls-6" d="M17.24,46h-4.7a1,1,0,0,1-1-1V39.47a1,1,0,0,1,1-1h4.7a1,1,0,0,1,1,1V45A1,1,0,0,1,17.24,46Zm-3.7-2h2.7V40.47h-2.7Z"/><path class="cls-6" d="M17.24,34.6h-4.7a1,1,0,0,1-1-1V28.08a1,1,0,0,1,1-1h4.7a1,1,0,0,1,1,1V33.6A1,1,0,0,1,17.24,34.6Zm-3.7-2h2.7V29.08h-2.7Z"/></g></svg>