<svg xmlns="http://www.w3.org/2000/svg" viewBox="0 0 96 96"><defs><style>.cls-1{fill:#5c86c7;}.cls-2{fill:#84aeea;}.cls-3{fill:#d2e7ff;}.cls-4{fill:#ffa64d;}.cls-5{fill:#ffca6e;}.cls-6{fill:#5f83cf;}.cls-7{fill:#4d6dc7;}.cls-8{fill:#dbddf3;}.cls-9{fill:#fff;}.cls-10{fill:#b4c9e8;}.cls-11{fill:#495f9c;}.cls-12{fill:#302d3d;}</style></defs><title>Online Meeting</title><g id="Online_Meeting" data-name="Online Meeting"><path class="cls-1" d="M91.84,74.39l-87.5.37a3.25,3.25,0,0,1-3.26-3.23L.84,7A3.24,3.24,0,0,1,4.08,3.77l87.5-.38a3.25,3.25,0,0,1,3.26,3.23l.24,64.5A3.25,3.25,0,0,1,91.84,74.39Z"/><path class="cls-2" d="M6.56,8.75,89.14,8.4a.7.7,0,0,1,.71.7l.22,59.59a.71.71,0,0,1-.71.71l-82.58.35a.7.7,0,0,1-.71-.7L5.85,9.47A.72.72,0,0,1,6.56,8.75Z"/><path class="cls-3" d="M91.81,65.89l-87.5.38A3.26,3.26,0,0,1,1,63L.84,7A3.24,3.24,0,0,1,4.08,3.77l87.5-.38a3.25,3.25,0,0,1,3.26,3.23l.2,56A3.25,3.25,0,0,1,91.81,65.89Z"/><polygon class="cls-4" points="4.95 42.68 4.85 7.76 90.85 7.39 90.95 42.31 4.95 42.68"/><polygon class="cls-5" points="7.86 10.75 87.86 10.4 87.94 39.32 7.94 39.67 7.86 10.75"/><circle class="cls-6" cx="47.88" cy="25.85" r="5.56"/><path class="cls-6" d="M44.24,31.41h7.38a4.44,4.44,0,0,1,4.44,4.44v6.65a0,0,0,0,1,0,0H39.8a0,0,0,0,1,0,0V35.85A4.44,4.44,0,0,1,44.24,31.41Z" transform="translate(-0.16 0.21) rotate(-0.25)"/><path class="cls-7" d="M45.82,31.41H50a0,0,0,0,1,0,0v1.44a2.09,2.09,0,0,1-2.09,2.09h0a2.09,2.09,0,0,1-2.09-2.09V31.41a0,0,0,0,1,0,0Z" transform="translate(-0.14 0.21) rotate(-0.25)"/><rect class="cls-3" x="16.28" y="23.93" width="15.25" height="12.42" rx="1.43" transform="translate(-0.13 0.1) rotate(-0.25)"/><rect class="cls-8" x="5" y="42.63" width="21.5" height="19.58" transform="translate(-0.23 0.07) rotate(-0.25)"/><rect class="cls-9" x="8" y="45.63" width="15.5" height="13.58" transform="matrix(-1, 0, 0, -1, 31.72, 104.78)"/><rect class="cls-10" x="26.5" y="42.54" width="21.5" height="19.58" transform="translate(-0.23 0.16) rotate(-0.25)"/><rect class="cls-3" x="29.5" y="45.54" width="15.5" height="13.58" transform="translate(74.72 104.5) rotate(179.75)"/><rect class="cls-8" x="48" y="42.45" width="21.5" height="19.58" transform="matrix(1, 0, 0, 1, -0.22, 0.25)"/><rect class="cls-9" x="51" y="45.45" width="15.5" height="13.58" transform="matrix(-1, 0, 0, -1, 117.72, 104.22)"/><rect class="cls-10" x="69.5" y="42.35" width="21.5" height="19.58" transform="translate(-0.22 0.35) rotate(-0.25)"/><rect class="cls-3" x="72.5" y="45.35" width="15.5" height="13.58" transform="matrix(-1, 0, 0, -1, 160.72, 103.94)"/><circle class="cls-6" cx="15.73" cy="49.51" r="3.67"/><path class="cls-6" d="M14.66,53.17h2.21a4.44,4.44,0,0,1,4.44,4.44v4.6a0,0,0,0,1,0,0H10.23a0,0,0,0,1,0,0v-4.6a4.44,4.44,0,0,1,4.44-4.44Z" transform="matrix(1, 0, 0, 1, -0.25, 0.07)"/><circle class="cls-6" cx="37.23" cy="49.41" r="3.67"/><path class="cls-6" d="M36.16,53.08h2.21a4.44,4.44,0,0,1,4.44,4.44v4.6a0,0,0,0,1,0,0H31.73a0,0,0,0,1,0,0v-4.6A4.44,4.44,0,0,1,36.16,53.08Z" transform="matrix(1, 0, 0, 1, -0.25, 0.16)"/><circle class="cls-6" cx="58.73" cy="49.32" r="3.67"/><path class="cls-6" d="M57.66,53h2.21a4.44,4.44,0,0,1,4.44,4.44V62a0,0,0,0,1,0,0H53.23a0,0,0,0,1,0,0v-4.6A4.44,4.44,0,0,1,57.66,53Z" transform="translate(-0.25 0.25) rotate(-0.25)"/><circle class="cls-6" cx="80.23" cy="49.23" r="3.67"/><path class="cls-6" d="M79.16,52.9h2.21a4.44,4.44,0,0,1,4.44,4.44v4.6a0,0,0,0,1,0,0H74.73a0,0,0,0,1,0,0v-4.6A4.44,4.44,0,0,1,79.16,52.9Z" transform="matrix(1, 0, 0, 1, -0.25, 0.35)"/><rect class="cls-1" x="35.29" y="74.58" width="25.67" height="13" transform="translate(-0.35 0.21) rotate(-0.25)"/><rect class="cls-7" x="35.27" y="74.58" width="25.67" height="4.55" transform="translate(-0.33 0.21) rotate(-0.25)"/><rect class="cls-11" x="27.74" y="87.58" width="40.83" height="4.92" transform="translate(-0.39 0.21) rotate(-0.25)"/><rect class="cls-9" x="34.58" y="14.5" width="26.51" height="2.15" rx="0.37"/><path class="cls-12" d="M4.32,75.78A4.25,4.25,0,0,1,.07,71.55L-.16,7.05A4.25,4.25,0,0,1,4.07,2.78l87.5-.38a4.25,4.25,0,0,1,4.26,4.24l.24,64.49a4.18,4.18,0,0,1-1.23,3,4.11,4.11,0,0,1-3,1.26ZM91.83,74.4h0Zm-.25-70-87.5.38A2.25,2.25,0,0,0,1.84,7l.23,64.5a2.25,2.25,0,0,0,2.25,2.24l87.51-.38a2.24,2.24,0,0,0,2.24-2.26l-.24-64.5A2.25,2.25,0,0,0,91.58,4.4Z"/><path class="cls-12" d="M4.28,67.28A4.25,4.25,0,0,1,0,63.05l-.19-56A4.25,4.25,0,0,1,4.07,2.78L91.58,2.4a4.25,4.25,0,0,1,4.25,4.24l.2,56A4.25,4.25,0,0,1,91.8,66.9ZM91.58,4.4l-87.5.38A2.25,2.25,0,0,0,1.84,7L2,63a2.26,2.26,0,0,0,2.25,2.24l87.51-.38A2.24,2.24,0,0,0,94,62.64l-.2-56A2.24,2.24,0,0,0,91.58,4.4Z"/><path class="cls-12" d="M5,63.28a1,1,0,0,1-1-1c-.2-58.2-.35-54.75.1-55.21s-5.43-.27,86.7-.66h0a1,1,0,0,1,1,1L92,61.9a1,1,0,0,1-1,1ZM5.84,8.77,6,61.27l84-.36-.19-52.5Z"/><path class="cls-12" d="M5,43.69a1,1,0,0,1-1-1L3.84,7.78a1,1,0,0,1,1-1l86-.37a1,1,0,0,1,1,1L92,42.32a1,1,0,0,1-1,1ZM5.84,8.77l.1,32.92,84-.36-.1-32.92Z"/><path class="cls-12" d="M47.88,32.43a6.57,6.57,0,1,1,6.56-6.6A6.58,6.58,0,0,1,47.88,32.43Zm-3.25-9.78a4.57,4.57,0,1,0,7.81,3.19A4.58,4.58,0,0,0,44.63,22.65Z"/><path class="cls-12" d="M39.82,43.54a1,1,0,0,1-1-1l0-6.65a5.44,5.44,0,0,1,5.42-5.46l7.4,0A5.42,5.42,0,0,1,57,35.82l0,6.65a1,1,0,0,1-1,1ZM51.61,32.41l-7.4,0a3.44,3.44,0,0,0-3.42,3.45l0,5.65,14.25-.06,0-5.65A3.43,3.43,0,0,0,51.61,32.41Z"/><path class="cls-12" d="M44.11,43.53a1,1,0,0,1-1-1l0-4.15a1,1,0,1,1,2,0l0,4.14A1,1,0,0,1,44.11,43.53Z"/><path class="cls-12" d="M50.78,42.5l0-4.15a1,1,0,0,1,2,0l0,4.15a1,1,0,0,1-2,0Z"/><path class="cls-12" d="M47.9,36a3.1,3.1,0,0,1-3.09-3.08V31.44a1,1,0,0,1,1-1H50a1,1,0,0,1,1,1v1.44A3.11,3.11,0,0,1,47.9,36Zm0-1h0Zm-1.1-2.53v.44A1.09,1.09,0,0,0,47.9,34a1.11,1.11,0,0,0,1.1-1.1v-.44Z"/><path class="cls-12" d="M17.71,37.39A2.42,2.42,0,0,1,15.29,35l0-9.56A2.42,2.42,0,0,1,17.66,23l12.4,0a2.44,2.44,0,0,1,2.44,2.41l0,9.57a2.44,2.44,0,0,1-2.42,2.44Zm12.41-1h0Zm-.05-11.42-12.4,0a.42.42,0,0,0-.42.43c0,10.47,0,9.69.16,9.86s-.81.13,12.7.08a.44.44,0,0,0,.43-.43l0-9.57A.43.43,0,0,0,30.07,24.92Z"/><path class="cls-12" d="M63.87,25.69a1,1,0,0,1,0-2l12.06-.05a1,1,0,0,1,0,2Z"/><path class="cls-12" d="M63.88,29.41a1,1,0,0,1,0-2L76,27.36a1,1,0,0,1,1,1,1,1,0,0,1-1,1Z"/><path class="cls-12" d="M63.9,33.13a1,1,0,0,1,0-2l4.69,0a1,1,0,0,1,1,1,1,1,0,0,1-1,1Z"/><path class="cls-12" d="M5,63.28a1,1,0,0,1-1-1L4,42.7a1,1,0,0,1,1-1l21.51-.09a1,1,0,0,1,1,1l.08,19.58a1,1,0,0,1-1,1ZM6,43.69,6,61.27l19.5-.08-.08-17.58Z"/><path class="cls-12" d="M26.53,63.18a1,1,0,0,1-1-1l-.08-19.58a1,1,0,0,1,1-1L48,41.51a1,1,0,0,1,1,1L49,62.09a1,1,0,0,1-1,1Zm.92-19.58.08,17.58L47,61.1,47,43.51Z"/><path class="cls-12" d="M48,63.09a1,1,0,0,1-1-1L47,42.51a1,1,0,0,1,1-1l21.51-.09a1,1,0,0,1,1,1L70.53,62a1,1,0,0,1-1,1ZM49,43.5,49,61.09,68.53,61l-.08-17.58Z"/><path class="cls-12" d="M69.53,63a1,1,0,0,1-1-1l-.08-19.58a1,1,0,0,1,1-1L91,41.32a1,1,0,0,1,1,1L92,61.9a1,1,0,0,1-1,1Zm.92-19.59L70.53,61,90,60.91,90,43.33Z"/><path class="cls-12" d="M15.72,54.19a4.67,4.67,0,1,1,4.67-4.69A4.66,4.66,0,0,1,15.72,54.19Zm0-7.33a2.67,2.67,0,1,0,2.66,2.65A2.67,2.67,0,0,0,15.73,46.86Z"/><path class="cls-12" d="M10.24,63.25a1,1,0,0,1-1-1l0-4.6a5.46,5.46,0,0,1,5.41-5.47h2.21A5.44,5.44,0,0,1,22.3,57.6l0,4.6a1,1,0,0,1-1,1Zm6.63-9.07H14.64a3.45,3.45,0,0,0-3.42,3.46v3.6l9.09,0,0-3.6A3.45,3.45,0,0,0,16.87,54.18Z"/><path class="cls-12" d="M37.22,54.1a4.67,4.67,0,1,1,3.29-8A4.66,4.66,0,0,1,37.22,54.1Zm0-7.34a2.67,2.67,0,1,0,2.66,2.66A2.67,2.67,0,0,0,37.23,46.76Z"/><path class="cls-12" d="M31.74,63.16a1,1,0,0,1-1-1l0-4.61a5.43,5.43,0,0,1,5.41-5.46h2.21a5.44,5.44,0,0,1,5.46,5.42l0,4.6a1,1,0,0,1-1,1Zm6.63-9.07H36.14a3.43,3.43,0,0,0-3.42,3.45v3.61l9.09,0,0-3.61A3.43,3.43,0,0,0,38.37,54.09Z"/><path class="cls-12" d="M58.72,54a4.67,4.67,0,1,1,4.67-4.68h0A4.67,4.67,0,0,1,58.72,54Zm0-7.33a2.67,2.67,0,1,0,2.66,2.66h0A2.66,2.66,0,0,0,58.73,46.67Z"/><path class="cls-12" d="M53.24,63.07a1,1,0,0,1-1-1l0-4.6A5.43,5.43,0,0,1,57.63,52h2.21a5.44,5.44,0,0,1,5.46,5.41l0,4.61a1,1,0,0,1-1,1ZM59.87,54H57.64a3.43,3.43,0,0,0-3.42,3.45v3.61l9.09,0,0-3.61A3.44,3.44,0,0,0,59.87,54Z"/><path class="cls-12" d="M80.22,53.91a4.67,4.67,0,1,1,4.67-4.69A4.66,4.66,0,0,1,80.22,53.91Zm0-7.33a2.67,2.67,0,1,0,2.67,2.65A2.66,2.66,0,0,0,80.22,46.58Z"/><path class="cls-12" d="M74.74,63a1,1,0,0,1-1-1l0-4.6a5.42,5.42,0,0,1,5.41-5.46h2.21a5.43,5.43,0,0,1,5.46,5.41l0,4.6a1,1,0,0,1-1,1Zm6.63-9.07H79.14a3.42,3.42,0,0,0-3.42,3.45V61l9.09,0,0-3.6A3.44,3.44,0,0,0,81.37,53.91Z"/><path class="cls-12" d="M35.31,88.65a1,1,0,0,1-1-1l-.06-13a1,1,0,0,1,1-1l25.67-.11a1,1,0,0,1,1,1l0,13a1,1,0,0,1-1,1C26,88.69,37.8,88.65,35.31,88.65Zm.94-13,0,11L60,86.54l0-11Z"/><path class="cls-12" d="M27.75,93.6a1,1,0,0,1-1-1l0-4.92a1,1,0,0,1,1-1l40.84-.18a1,1,0,0,1,1,1l0,4.92a1,1,0,0,1-1,1C13,93.66,31.72,93.6,27.75,93.6Zm1-4.92v2.91l38.83-.17V88.51Z"/></g></svg>