<svg xmlns="http://www.w3.org/2000/svg" viewBox="0 0 96 96"><defs><style>.cls-1{fill:#e9ecef;}.cls-2{fill:#302d3d;}.cls-3{fill:#ffa68d;}.cls-4{fill:#ffc088;}.cls-5{fill:#ffd9b5;}.cls-6{fill:#fff;}.cls-7{fill:#ff736e;}.cls-8{fill:#fb8d74;}.cls-9{fill:#3f3c6a;}.cls-10{fill:#302856;}.cls-11{fill:#4e5088;}.cls-12{fill:#4e5fba;}.cls-13{fill:#fbc4ab;}.cls-14{fill:#ffe391;}.cls-15{fill:#ffca6e;}.cls-16{fill:#b2e6ff;}.cls-17{fill:#71a5d8;}.cls-18{fill:#a8dcfb;}.cls-19{fill:#4e69b5;}</style></defs><title>Overwork</title><g id="Overwork"><path class="cls-1" d="M89.79,88.41H29.66l5.21-23.49A13.29,13.29,0,0,1,44.16,55l9.24-2.67H66L75.28,55a13.28,13.28,0,0,1,9.29,9.88Z"/><path class="cls-2" d="M89.79,89.47H29.66a1,1,0,0,1-1-1.22L33.9,64.77a14.27,14.27,0,0,1,10-10.63l9.24-2.66c.2-.06-.58,0,12.92,0,.21,0-.58-.21,9.52,2.7a14.3,14.3,0,0,1,10,10.63l5.21,23.48A1,1,0,0,1,89.79,89.47Zm-58.89-2H88.54l-5-22.27A12.27,12.27,0,0,0,75,56.06l-9.1-2.62H53.54l-9.1,2.62a12.28,12.28,0,0,0-8.59,9.14Z"/><polygon class="cls-3" points="66.04 43.25 66.04 52.38 59.72 64.39 53.4 52.38 53.4 43.25 66.04 43.25"/><rect class="cls-4" x="8.13" y="88.41" width="86.87" height="5.59"/><rect class="cls-5" x="21.84" y="88.41" width="59.44" height="5.59"/><rect class="cls-6" x="40.25" y="89.7" width="22.64" height="3.01" rx="0.71"/><path class="cls-7" d="M32.61,88.41H19.19l.71-3.61a3.77,3.77,0,0,1,3.71-3.06h4.58A3.78,3.78,0,0,1,31.9,84.8Z"/><path class="cls-8" d="M66,43.25V51A19.81,19.81,0,0,1,53.4,51V43.25Z"/><path class="cls-2" d="M58.84,64.91l-6.33-12c-.16-.31-.11.34-.11-9.59a1,1,0,0,1,1-1H66a1,1,0,0,1,1,1v9.13c0,.35.48-.66-6.43,12.47A1,1,0,0,1,58.84,64.91ZM54.4,52.19,59.72,62.3,65,52.19V44.31H54.4ZM66,52.44h0Z"/><path class="cls-9" d="M62,1.88H41.54a17.38,17.38,0,0,0,3.4,5.47A17,17,0,0,0,40.34,19v7.61H79.1V19A17.12,17.12,0,0,0,62,1.88Z"/><rect class="cls-10" x="40.34" y="20.43" width="38.76" height="6.18"/><path class="cls-11" d="M65.36,10.3H53.2a6.31,6.31,0,0,1-5-2.45L46.84,6.07a1.14,1.14,0,0,1,.91-1.84c15,0,15.7-.21,18.46.62A2.79,2.79,0,0,1,65.36,10.3Z"/><path class="cls-12" d="M60.85,6.53H56a1.15,1.15,0,1,1,0-2.3h4.84a1.15,1.15,0,0,1,0,2.3Z"/><path class="cls-2" d="M79.1,27.68H40.34a1,1,0,0,1-1-1V19.07A18,18,0,0,1,43.61,7.41a18.37,18.37,0,0,1-3-5.11A1,1,0,0,1,41.54.94H62A18.15,18.15,0,0,1,80.1,19.07v7.61A1,1,0,0,1,79.1,27.68Zm-37.76-2H78.1V19.07A16.14,16.14,0,0,0,62,2.94H43.07a16.09,16.09,0,0,0,2.61,3.79,1,1,0,0,1,0,1.36,16,16,0,0,0-4.34,11Z"/><path class="cls-3" d="M82.59,30.25A3.64,3.64,0,0,1,79,33.89H40.49a3.64,3.64,0,0,1,0-7.28H79A3.64,3.64,0,0,1,82.59,30.25Z"/><path class="cls-8" d="M78.62,26.61c0,4.95,0,6-.09,7.28H40.91a72.54,72.54,0,0,1-.09-7.28Z"/><path class="cls-2" d="M79.21,35h-39a4.39,4.39,0,0,1-4.38-4.38v-.51a4.39,4.39,0,0,1,4.38-4.38h39a4.39,4.39,0,0,1,4.38,4.38v.51A4.39,4.39,0,0,1,79.21,35Zm-39-7.27a2.38,2.38,0,0,0-2.38,2.38v.51A2.39,2.39,0,0,0,40.23,33h39a2.39,2.39,0,0,0,2.38-2.38v-.51a2.38,2.38,0,0,0-2.38-2.38Z"/><path class="cls-13" d="M76.63,26.61v5.5a16.91,16.91,0,1,1-33.82,0v-5.5l3.13-4A6.32,6.32,0,0,0,47.27,19l.19-5a2.12,2.12,0,0,1,2.12-2,78.35,78.35,0,0,0,20,0A2.12,2.12,0,0,1,72,14l.19,5a6.25,6.25,0,0,0,1.33,3.65Z"/><path class="cls-14" d="M33.69,38A16,16,0,1,1,16.14,20.46,12.6,12.6,0,1,0,33.69,38Z"/><path class="cls-15" d="M33.69,38.07A16,16,0,0,1,1.8,36.57l0,0a17,17,0,0,0,31.87,1.45Z"/><path class="cls-2" d="M95,95.06H8.13a1,1,0,0,1-1-1V88.47a1,1,0,0,1,1-1H95a1,1,0,0,1,1,1v5.59A1,1,0,0,1,95,95.06Zm-85.87-2H94V89.47H9.13Z"/><path class="cls-2" d="M32.61,89.47H19.19a1,1,0,0,1-1-1.19l.71-3.61a4.8,4.8,0,0,1,4.69-3.87h4.58a4.8,4.8,0,0,1,4.69,3.87l.71,3.61A1,1,0,0,1,32.61,89.47Zm-12.21-2h11l-.48-2.42a2.79,2.79,0,0,0-2.73-2.25H23.61a2.79,2.79,0,0,0-2.73,2.25Z"/><path class="cls-2" d="M25.9,86.14a1,1,0,0,1-1-1V81.8a1,1,0,0,1,2,0v3.34A1,1,0,0,1,25.9,86.14Z"/><path class="cls-2" d="M44.93,8.4a1,1,0,0,1-.73-1.69,18.5,18.5,0,0,1,3.39-2.85,1,1,0,0,1,1.09,1.68C45.79,7.42,45.85,8.4,44.93,8.4Z"/><path class="cls-2" d="M59.73,50.08a17.93,17.93,0,0,1-17.92-17.9V26.67c0-.46-.11-.2,3.34-4.6A5.25,5.25,0,0,0,46.27,19l.19-4.95a3.11,3.11,0,0,1,3.49-3,77.33,77.33,0,0,0,19.53,0,3.12,3.12,0,0,1,3.5,3L73.17,19a5.37,5.37,0,0,0,1.12,3.08l3.13,4c.29.37.21.21.21,6.12A17.92,17.92,0,0,1,59.73,50.08ZM43.81,27v5.16a15.91,15.91,0,0,0,31.82,0V27l-2.91-3.71a7.34,7.34,0,0,1-1.55-4.24l-.19-5a1.1,1.1,0,0,0-.39-.81c-.55-.47-.7-.2-3.86.06a79.28,79.28,0,0,1-17-.31,1.11,1.11,0,0,0-1.26,1.06l-.19,5a7.34,7.34,0,0,1-1.54,4.22Z"/><path class="cls-2" d="M66.47,28.47a1,1,0,0,1-1-1v-.75a1,1,0,0,1,2,0v.75A1,1,0,0,1,66.47,28.47Z"/><path class="cls-2" d="M68.19,24.4H64.75a1,1,0,0,1,0-2h3.44a1,1,0,0,1,0,2Z"/><path class="cls-2" d="M53,28.47a1,1,0,0,1-1-1v-.75a1,1,0,0,1,2,0v.75A1,1,0,0,1,53,28.47Z"/><path class="cls-2" d="M54.69,24.4H51.25a1,1,0,0,1,0-2h3.44a1,1,0,0,1,0,2Z"/><path class="cls-2" d="M55.48,39.65a1,1,0,1,1,1.65-1.12,3.12,3.12,0,0,0,5.19,0,1,1,0,0,1,1.39-.28A1,1,0,0,1,64,39.61,5.12,5.12,0,0,1,55.48,39.65Z"/><path class="cls-2" d="M68.19,17.29a1,1,0,0,1-1-.89l-.44-4a1,1,0,0,1,.89-1.1,1,1,0,0,1,1.1.89l.44,4A1,1,0,0,1,68.19,17.29Z"/><path class="cls-2" d="M17.79,53.36A17,17,0,0,1,16,19.47a1,1,0,0,1,.68,1.81A11.59,11.59,0,1,0,32.87,37.44a1,1,0,0,1,1.82.67A16.94,16.94,0,0,1,17.79,53.36Zm-5-31.15A15,15,0,1,0,31.94,41.33,13.59,13.59,0,0,1,12.82,22.21Z"/><polygon class="cls-16" points="81.28 83.23 38.16 83.23 34.79 57.58 84.65 57.58 81.28 83.23"/><polygon class="cls-17" points="35.37 62.04 38.16 83.23 81.28 83.23 84.07 62.04 35.37 62.04"/><polygon class="cls-18" points="40.79 80.23 38.4 62.04 81.04 62.04 78.65 80.23 40.79 80.23"/><rect class="cls-19" x="38.16" y="83.23" width="43.13" height="5.18"/><circle class="cls-6" cx="59.72" cy="70.41" r="3.61"/><path class="cls-2" d="M81.28,84.29H38.16a1,1,0,0,1-1-.87L33.79,57.78a1,1,0,0,1,1-1.13H84.65a1,1,0,0,1,1,1.13L82.27,83.42A1,1,0,0,1,81.28,84.29ZM39,82.29H80.41l3.1-23.64H35.93Z"/><path class="cls-2" d="M81.28,89.47H38.16a1,1,0,0,1-1-1V83.29a1,1,0,0,1,1-1H81.28a1,1,0,0,1,1,1v5.18A1,1,0,0,1,81.28,89.47Zm-42.12-2H80.28V84.29H39.16Z"/><path class="cls-2" d="M59.72,75.08a4.61,4.61,0,1,1,4.61-4.61A4.62,4.62,0,0,1,59.72,75.08Zm0-7.22a2.61,2.61,0,1,0,2.61,2.61A2.61,2.61,0,0,0,59.72,67.86Z"/></g></svg>