<svg xmlns="http://www.w3.org/2000/svg" viewBox="0 0 96 96"><defs><style>.cls-1{fill:#9bb0d4;}.cls-2{fill:#b4c9e8;}.cls-3{fill:#d2ddf7;}.cls-4{fill:#495f9c;}.cls-5{fill:#6d7ea8;}.cls-6{fill:#f09d65;}.cls-7{fill:#ffc088;}.cls-8{fill:#fff;}.cls-9{fill:#e1784b;}.cls-10{fill:#eb7d50;}.cls-11{fill:#f0b683;}.cls-12{fill:#ffb179;}.cls-13{fill:#d1d3d4;}.cls-14{fill:#9a9c9e;}.cls-15{fill:#aeb0b2;}.cls-16{fill:#302d3d;}</style></defs><title>Pantry</title><g id="Pantry"><path class="cls-1" d="M95,13.17v19.5a3.84,3.84,0,0,1-3.83,3.83H56.83A3.84,3.84,0,0,1,53,32.67V13.17a3.84,3.84,0,0,1,3.83-3.84H91.17A3.84,3.84,0,0,1,95,13.17Z"/><path class="cls-2" d="M95,13.17V28.3a3.84,3.84,0,0,1-3.83,3.83H56.83A3.84,3.84,0,0,1,53,28.3V13.17a3.84,3.84,0,0,1,3.83-3.84H91.17A3.84,3.84,0,0,1,95,13.17Z"/><rect class="cls-3" x="56.28" y="11.77" width="15.49" height="16.39" rx="3.3"/><path class="cls-2" d="M95,40.33V89.5H53V40.33a3.83,3.83,0,0,1,3.83-3.83H91.17A3.83,3.83,0,0,1,95,40.33Z"/><path class="cls-3" d="M58.53,40.32H87A3.7,3.7,0,0,1,90.7,44v5.79A22.94,22.94,0,0,1,67.76,72.75h-5a6.43,6.43,0,0,1-6.43-6.43V42.53A2.21,2.21,0,0,1,58.53,40.32Z"/><rect class="cls-4" x="53" y="89.5" width="42" height="5.5"/><rect class="cls-5" x="62.25" y="89.5" width="23.5" height="5.5"/><path class="cls-5" d="M83.46,5h5.6a2.11,2.11,0,0,1,2.11,2.1V9.33H78.5l3.41-3.69A2.08,2.08,0,0,1,83.46,5Z"/><rect class="cls-6" x="1" y="56" width="52" height="33.5"/><path class="cls-7" d="M46.64,61.25V78.78a4.36,4.36,0,0,1-4.36,4.36H1V61.25Z"/><path class="cls-8" d="M20.88,67.25H8.32A1.32,1.32,0,0,0,7,68.57v7.25a1.32,1.32,0,0,0,1.32,1.32h7.16a2.66,2.66,0,0,0,2.25-1.23L22,69.29A1.32,1.32,0,0,0,20.88,67.25Z"/><path class="cls-8" d="M25.84,68.52l-4.09,6.6a1.32,1.32,0,0,0,1.12,2h8.26a1.32,1.32,0,0,0,1.32-1.32V68.57a1.32,1.32,0,0,0-1.32-1.32h-3A2.68,2.68,0,0,0,25.84,68.52Z"/><rect class="cls-7" x="1" y="56" width="52" height="5.25"/><rect class="cls-7" x="1" y="56" width="52" height="5.25"/><rect class="cls-6" x="1" y="61.25" width="52" height="2.9"/><rect class="cls-6" x="3.25" y="89.5" width="49.75" height="5.5"/><rect class="cls-9" x="3.25" y="89.5" width="49.75" height="2.75"/><rect class="cls-6" x="1" y="1" width="42" height="33.5"/><rect class="cls-10" x="1" y="26.83" width="42" height="7.67"/><rect class="cls-11" x="1" y="10.28" width="42" height="7.67"/><rect class="cls-12" x="9.25" y="0.75" width="25.5" height="34" transform="translate(4.25 39.75) rotate(-90)"/><rect class="cls-7" x="8" y="8" width="7.58" height="19.5"/><rect class="cls-7" x="28.42" y="8" width="7.58" height="19.5"/><rect class="cls-6" x="9.25" y="14.33" width="25.5" height="6.83" transform="translate(4.25 39.75) rotate(-90)"/><rect class="cls-10" x="20.72" y="2.86" width="2.55" height="6.83" transform="translate(15.72 28.28) rotate(-90)"/><rect class="cls-11" x="18.13" y="10.67" width="7.73" height="6.83" transform="translate(7.91 36.09) rotate(-90)"/><rect class="cls-13" x="3.13" y="42.25" width="22.29" height="13.75"/><rect class="cls-14" x="3.13" y="54.01" width="22.29" height="1.99"/><rect class="cls-15" x="11.4" y="41.98" width="5.75" height="14.29" transform="translate(63.4 34.85) rotate(90)"/><rect class="cls-14" x="15.96" y="46.54" width="5.75" height="5.17" transform="translate(67.96 30.29) rotate(90)"/><rect class="cls-5" x="57.08" y="41.17" width="7.07" height="3.33" rx="1.67"/><rect class="cls-5" x="57.08" y="13.25" width="7.07" height="3.33" rx="1.67"/><rect class="cls-8" x="59.64" y="47.21" width="13.87" height="7.33" rx="2.04"/><path class="cls-8" d="M66.36,62H61.68a2.05,2.05,0,0,1,0-4.1h4.68a2.05,2.05,0,0,1,0,4.1Z"/><path class="cls-3" d="M68.47,83.17H59.58a3.3,3.3,0,1,1,0-6.6h8.89a3.3,3.3,0,0,1,0,6.6Z"/><path class="cls-16" d="M91.17,37.5H56.83A4.84,4.84,0,0,1,52,32.67V13.17a4.84,4.84,0,0,1,4.83-4.84H91.17A4.84,4.84,0,0,1,96,13.17v19.5A4.84,4.84,0,0,1,91.17,37.5ZM56.83,10.33A2.84,2.84,0,0,0,54,13.17v19.5a2.83,2.83,0,0,0,2.83,2.83H91.17A2.83,2.83,0,0,0,94,32.67V13.17a2.84,2.84,0,0,0-2.83-2.84Z"/><path class="cls-16" d="M95,90.5H53a1,1,0,0,1-1-1V40.33a4.84,4.84,0,0,1,4.83-4.83H91.17A4.84,4.84,0,0,1,96,40.33V89.5A1,1,0,0,1,95,90.5Zm-41-2H94V40.33a2.83,2.83,0,0,0-2.83-2.83H56.83A2.83,2.83,0,0,0,54,40.33Z"/><path class="cls-16" d="M95,96H53a1,1,0,0,1-1-1V89.5a1,1,0,0,1,1-1H95a1,1,0,0,1,1,1V95A1,1,0,0,1,95,96ZM54,94H94V90.5H54Z"/><path class="cls-16" d="M85.75,96H62.25a1,1,0,0,1-1-1V89.5a1,1,0,0,1,1-1h23.5a1,1,0,0,1,1,1V95A1,1,0,0,1,85.75,96Zm-22.5-2h21.5V90.5H63.25Z"/><path class="cls-16" d="M91.17,10.33H78.5a1,1,0,0,1-.74-1.67L81.17,5a3.11,3.11,0,0,1,2.29-1h5.6a3.11,3.11,0,0,1,3.11,3.1V9.33A1,1,0,0,1,91.17,10.33Zm-10.39-2h9.39V7.06A1.11,1.11,0,0,0,89.06,6h-5.6a1.14,1.14,0,0,0-.82.35Z"/><path class="cls-16" d="M53,90.5H1a1,1,0,0,1-1-1V56a1,1,0,0,1,1-1H53a1,1,0,0,1,1,1V89.5A1,1,0,0,1,53,90.5Zm-51-2H52V57H2Z"/><path class="cls-16" d="M53,62.25H1a1,1,0,0,1-1-1V56a1,1,0,0,1,1-1H53a1,1,0,0,1,1,1v5.25A1,1,0,0,1,53,62.25Zm-51-2H52V57H2Z"/><path class="cls-16" d="M53,96H3.25a1,1,0,0,1-1-1V89.5a1,1,0,0,1,1-1H53a1,1,0,0,1,1,1V95A1,1,0,0,1,53,96ZM4.25,94H52V90.5H4.25Z"/><path class="cls-16" d="M43,35.5H1a1,1,0,0,1-1-1V1A1,1,0,0,1,1,0H43a1,1,0,0,1,1,1V34.5A1,1,0,0,1,43,35.5Zm-41-2H42V2H2Z"/><path class="cls-16" d="M39,31.5H5a1,1,0,0,1-1-1V5A1,1,0,0,1,5,4H39a1,1,0,0,1,1,1V30.5A1,1,0,0,1,39,31.5Zm-33-2H38V6H6Z"/><path class="cls-16" d="M25.42,31.5H18.58a1,1,0,0,1-1-1V5a1,1,0,0,1,1-1h6.84a1,1,0,0,1,1,1V30.5A1,1,0,0,1,25.42,31.5Zm-5.84-2h4.84V6H19.58Z"/><path class="cls-16" d="M15,19.92a1,1,0,0,1-1-1V16.58a1,1,0,1,1,2,0v2.34A1,1,0,0,1,15,19.92Z"/><path class="cls-16" d="M29,19.92a1,1,0,0,1-1-1V16.58a1,1,0,0,1,2,0v2.34A1,1,0,0,1,29,19.92Z"/><path class="cls-16" d="M25.42,57H3.12a1,1,0,0,1-1-1V42.25a1,1,0,0,1,1-1h22.3a1,1,0,0,1,1,1V56A1,1,0,0,1,25.42,57ZM4.12,55h20.3V43.25H4.12Z"/><path class="cls-16" d="M21.42,53H7.12a1,1,0,0,1-1-1V46.25a1,1,0,0,1,1-1h14.3a1,1,0,0,1,1,1V52A1,1,0,0,1,21.42,53ZM8.12,51h12.3V47.25H8.12Z"/><path class="cls-16" d="M21.42,53H16.25a1,1,0,0,1-1-1V46.25a1,1,0,0,1,1-1h5.17a1,1,0,0,1,1,1V52A1,1,0,0,1,21.42,53Zm-4.17-2h3.17V47.25H17.25Z"/><path class="cls-16" d="M62.49,45.5H58.75a2.67,2.67,0,1,1,0-5.33h3.74a2.67,2.67,0,1,1,0,5.33Zm-3.74-3.33a.67.67,0,1,0,0,1.33h3.74a.67.67,0,1,0,0-1.33Z"/><path class="cls-16" d="M62.49,17.58H58.75a2.67,2.67,0,1,1,0-5.33h3.74a2.67,2.67,0,1,1,0,5.33Zm-3.74-3.33a.67.67,0,1,0,0,1.33h3.74a.67.67,0,1,0,0-1.33Z"/></g></svg>