<svg xmlns="http://www.w3.org/2000/svg" viewBox="0 0 96 96"><defs><style>.cls-1{fill:#87b5e3;}.cls-2{fill:#aacef0;}.cls-3{fill:#e6ecf2;}.cls-4{fill:#302d3d;}.cls-5{fill:#ffd9b5;}.cls-6{fill:#ffc088;}.cls-7{fill:#dee2e6;}.cls-8{fill:#e9ecef;}.cls-9{fill:#f8f9fa;}.cls-10{fill:#fe4a55;}.cls-11{fill:#ff736e;}.cls-12{fill:#ffa68d;}.cls-13{fill:#fb8d74;}.cls-14{fill:#3f3c6a;}.cls-15{fill:#302856;}.cls-16{fill:#4e5088;}.cls-17{fill:#4e5fba;}.cls-18{fill:#fbc4ab;}.cls-19{fill:#fff;}</style></defs><title>Presentation</title><g id="Presentation"><rect class="cls-1" x="4.5" y="8" width="90.5" height="67.91" rx="3.75"/><path class="cls-2" d="M87.25,11.7V64.41a3.75,3.75,0,0,1-3.75,3.75H4.5V11.75A3.75,3.75,0,0,1,8.25,8h75.3A3.7,3.7,0,0,1,87.25,11.7Z"/><rect class="cls-3" x="12.5" y="16" width="69.33" height="38.46" rx="3.23"/><path class="cls-4" d="M91.25,76.91h-83A4.75,4.75,0,0,1,3.5,72.16V11.75A4.75,4.75,0,0,1,8.25,7h83A4.75,4.75,0,0,1,96,11.75V72.16A4.75,4.75,0,0,1,91.25,76.91ZM8.25,9A2.75,2.75,0,0,0,5.5,11.75V72.16a2.75,2.75,0,0,0,2.75,2.75h83A2.75,2.75,0,0,0,94,72.16V11.75A2.75,2.75,0,0,0,91.25,9Z"/><path class="cls-5" d="M64.59,32.57C62.3,58.64,62.1,60.86,62.06,61.38l-4.49-.52c1.39-9.52.65-4.45,4.19-28.62Z"/><path class="cls-6" d="M63.46,32.44l-2,19.38a3.29,3.29,0,0,0-2.55,1.25c-.29.38-.05-.84-1.31,7.79l4.49.52c1-11.87.47-5.38,2.53-28.81Z"/><path class="cls-4" d="M62.07,62.38c-.09,0-.12,0-4.62-.53a1,1,0,0,1-.87-1.14l4.19-28.62a1,1,0,0,1,1.11-.84l2.83.33a1,1,0,0,1,.88,1.08L63.06,61.47A1,1,0,0,1,62.07,62.38ZM58.71,60l2.45.29,2.35-26.82-.9-.11Z"/><path class="cls-7" d="M61.4,88H1.86L7.2,71.69a8.29,8.29,0,0,1,6.29-5.55l11.88-2.33H37.89l11.88,2.33a8.29,8.29,0,0,1,6.29,5.55Z"/><path class="cls-8" d="M5.09,88l5-15.38a5.28,5.28,0,0,1,4-3.53l11.6-2.28H37.6l11.59,2.27a5.3,5.3,0,0,1,4,3.55l5,15.37Z"/><path class="cls-9" d="M15,88l3-9.36a3.23,3.23,0,0,1,2.44-2.16c4.74-.93,10.05-2.22,17.9-.68l3.5.68a3.21,3.21,0,0,1,2.44,2.16l3,9.36Z"/><path class="cls-4" d="M61.4,89H1.86a1,1,0,0,1-.95-1.31L6.25,71.38a9.28,9.28,0,0,1,7.05-6.22l11.88-2.33c.15,0-.72,0,12.71,0,.15,0-.57-.13,12.08,2.35a9.29,9.29,0,0,1,7,6.22l5.34,16.31A1,1,0,0,1,61.4,89ZM3.24,87H60L55.11,72a7.27,7.27,0,0,0-5.53-4.88L37.8,64.81H25.47L13.68,67.12A7.26,7.26,0,0,0,8.16,72Z"/><path class="cls-9" d="M31.63,70.87l-5.7,2.84L23.6,67.29a2,2,0,0,1,.46-2.12l1.31-1.36Z"/><path class="cls-9" d="M31.63,70.87l5.7,2.84,2.33-6.42a2,2,0,0,0-.46-2.12l-1.31-1.36Z"/><polygon class="cls-10" points="34.26 76.57 29 76.57 27.78 72.78 31.63 70.87 35.48 72.78 34.26 76.57"/><polygon class="cls-10" points="36.52 88 26.74 88 29 76.57 34.26 76.57 36.52 88"/><polygon class="cls-11" points="33.89 88 29.37 88 30.68 76.57 32.58 76.57 33.89 88"/><polygon class="cls-12" points="37.89 54.77 37.89 63.81 31.63 70.87 25.37 63.81 25.37 54.77 37.89 54.77"/><path class="cls-13" d="M37.89,54.77v5.67a19.58,19.58,0,0,1-12.52,0V54.77Z"/><path class="cls-4" d="M30.88,71.53c-6.75-7.6-6.51-7.18-6.51-7.72v-9a1,1,0,0,1,1-1H37.89a1,1,0,0,1,1,1c0,9.74.11,9.31-.25,9.71l-6.26,7A1,1,0,0,1,30.88,71.53Zm-4.51-8.1,5.26,5.93,5.26-5.93V55.77H26.37Zm11.52.38h0Z"/><path class="cls-14" d="M33.58,12.24h-20a16.92,16.92,0,0,0,3.33,5.37A16.73,16.73,0,0,0,12.37,29V36.5h38V29A16.8,16.8,0,0,0,33.58,12.24Z"/><rect class="cls-15" x="12.37" y="30.43" width="38" height="6.06"/><path class="cls-16" d="M36.9,20.51H25a6.18,6.18,0,0,1-4.9-2.41l-1.34-1.74a1.13,1.13,0,0,1,.9-1.81c15,0,15.41-.2,18.1.61A2.74,2.74,0,0,1,36.9,20.51Z"/><path class="cls-17" d="M32.48,16.81H27.74a1.13,1.13,0,1,1,0-2.26h4.74a1.13,1.13,0,0,1,0,2.26Z"/><path class="cls-4" d="M50.63,37.5h-38a1,1,0,0,1-1-1V29a17.73,17.73,0,0,1,4.18-11.43,17.81,17.81,0,0,1-2.93-5,1,1,0,0,1,.93-1.36h20A17.81,17.81,0,0,1,51.63,29V36.5A1,1,0,0,1,50.63,37.5Zm-37-2h36V29A15.8,15.8,0,0,0,33.84,13.25H15.34a16.05,16.05,0,0,0,2.54,3.69,1,1,0,0,1,0,1.35A15.75,15.75,0,0,0,13.63,29Z"/><path class="cls-12" d="M54.05,40.07a3.56,3.56,0,0,1-3.57,3.56H12.78a3.57,3.57,0,1,1,0-7.13h37.7A3.57,3.57,0,0,1,54.05,40.07Z"/><path class="cls-13" d="M50.16,36.5c0,4.84,0,5.88-.09,7.13H13.19a69.56,69.56,0,0,1-.09-7.13Z"/><path class="cls-4" d="M50.48,44.63H12.78a4.57,4.57,0,1,1,0-9.13h37.7a4.57,4.57,0,1,1,0,9.13ZM12.78,37.5a2.57,2.57,0,1,0,0,5.13h37.7a2.57,2.57,0,1,0,0-5.13Z"/><path class="cls-18" d="M48.21,36.5v5.39a16.58,16.58,0,0,1-33.16,0V36.5l3.07-3.91A6.23,6.23,0,0,0,19.43,29l.18-4.86a2.08,2.08,0,0,1,2.08-2,76.91,76.91,0,0,0,19.63,0,2.07,2.07,0,0,1,2.33,2L43.83,29a6.23,6.23,0,0,0,1.31,3.58Z"/><polygon class="cls-9" points="61.43 88 62.64 74.91 50.35 74.91 47.4 88 61.43 88"/><polygon class="cls-8" points="61.43 88 62.64 74.91 59.05 74.91 56.09 88 61.43 88"/><path class="cls-19" d="M63.28,68.07c-.52,5.49-.12,1.4-.64,6.84H50.35c.93-4,.58-2.48,1.55-6.84Z"/><path class="cls-9" d="M63.28,68.07c-.52,5.49-.12,1.4-.64,6.84H59.07c.93-4,.58-2.48,1.55-6.84Z"/><path class="cls-12" d="M65.48,56.3c0,.79.11.24-4,11.77h-8a11,11,0,0,1,2.17-8.8l3.91-5A3.29,3.29,0,0,1,65.48,56.3Z"/><path class="cls-18" d="M63.88,54.58c0,.8,0,.59-2.72,8.26a5.25,5.25,0,0,1-5,3.5H53.37a10.85,10.85,0,0,1,2.33-7.07l3.91-5a3.32,3.32,0,0,1,4-.93A3.21,3.21,0,0,1,63.88,54.58Z"/><path class="cls-4" d="M25.93,74.71a1,1,0,0,1-.94-.66l-2.32-6.42a3.06,3.06,0,0,1,.67-3.16c1.37-1.41,1.46-1.64,2.05-1.66a1,1,0,0,1,.73.34l6.26,7.05a1,1,0,0,1-.3,1.56C25.9,74.83,26.26,74.71,25.93,74.71Zm-.59-9.43-.56.59A1,1,0,0,0,24.55,67l1.94,5.36L30,70.55Z"/><path class="cls-4" d="M37.33,74.71c-.33,0,0,.13-6.14-2.95a1,1,0,0,1-.31-1.56l6.26-7.05a1,1,0,0,1,1.47,0l1.31,1.35a3.07,3.07,0,0,1,.68,3.16l-2.32,6.42A1,1,0,0,1,37.33,74.71Zm-4.08-4.16,3.53,1.76L38.72,67a1.06,1.06,0,0,0-.23-1.08l-.57-.59Z"/><path class="cls-4" d="M34.26,77.57H29a1,1,0,0,1-.95-.69l-1.22-3.79a1,1,0,0,1,.5-1.2L31.19,70a1,1,0,0,1,.89,0l3.85,1.92a1,1,0,0,1,.51,1.2l-1.23,3.79A1,1,0,0,1,34.26,77.57Zm-4.53-2h3.8l.74-2.27L31.63,72,29,73.3Z"/><path class="cls-4" d="M36.52,89H26.74a1,1,0,0,1-1-1.19L28,76.38a1,1,0,0,1,1-.81h5.26a1,1,0,0,1,1,.81L37.5,87.81A1,1,0,0,1,36.52,89ZM28,87H35.3l-1.86-9.43H29.82Z"/><path class="cls-4" d="M17.13,18.6a1,1,0,0,1-.73-1.68,17.48,17.48,0,0,1,3.33-2.8,1,1,0,0,1,1.09,1.68C18.06,17.59,18,18.6,17.13,18.6Z"/><path class="cls-4" d="M31.64,59.47A17.61,17.61,0,0,1,14.05,41.89V36.5c0-.47-.05-.29,3.28-4.52a5.25,5.25,0,0,0,1.1-3l.18-4.86A3.08,3.08,0,0,1,22,21.18a75.34,75.34,0,0,0,19.16,0,3.08,3.08,0,0,1,3.45,2.94L44.83,29a5.25,5.25,0,0,0,1.1,3L49,35.88c.29.37.21.09.21,6A17.6,17.6,0,0,1,31.64,59.47ZM16.05,36.84v5a15.58,15.58,0,1,0,31.16,0v-5l-2.86-3.63a7.35,7.35,0,0,1-1.52-4.16l-.18-4.86a1,1,0,0,0-.38-.78c-.53-.45-.7-.19-3.77.07a77.65,77.65,0,0,1-16.67-.31,1.07,1.07,0,0,0-1.22,1l-.18,4.85a7.21,7.21,0,0,1-1.52,4.16Z"/><path class="cls-4" d="M38.25,38.28a1,1,0,0,1-1-1v-.74a1,1,0,1,1,2,0v.74A1,1,0,0,1,38.25,38.28Z"/><path class="cls-4" d="M39.94,34.29H36.56a1,1,0,0,1,0-2h3.38a1,1,0,0,1,0,2Z"/><path class="cls-4" d="M25,38.28a1,1,0,0,1-1-1v-.74a1,1,0,0,1,2,0v.74A1,1,0,0,1,25,38.28Z"/><path class="cls-4" d="M26.7,34.29H23.32a1,1,0,0,1,0-2H26.7a1,1,0,0,1,0,2Z"/><path class="cls-4" d="M27.46,49.23a1,1,0,1,1,1.65-1.12,3,3,0,0,0,5.06,0,1,1,0,0,1,1.38-.28,1,1,0,0,1,.28,1.39A5,5,0,0,1,27.46,49.23Z"/><path class="cls-4" d="M39.94,27.32a1,1,0,0,1-1-.89l-.42-3.94a1,1,0,0,1,.88-1.1,1,1,0,0,1,1.1.88l.43,3.94A1,1,0,0,1,39.94,27.32Z"/><path class="cls-4" d="M12.63,89a1,1,0,0,1-1-1.26L14,78.91a1,1,0,1,1,1.93.52L13.6,88.26A1,1,0,0,1,12.63,89Z"/><path class="cls-4" d="M61.43,89h-14a1,1,0,0,1-1-1.22l3-13.09a1,1,0,0,1,1-.78H62.64a1,1,0,0,1,1,1.1L62.42,88.09A1,1,0,0,1,61.43,89ZM48.65,87H60.52l1-11.09H51.15Z"/><path class="cls-4" d="M62.64,75.91H50.35a1,1,0,0,1-1-1.22l1.55-6.84a1,1,0,0,1,1-.78H63.28a1,1,0,0,1,1,1.09L63.63,75A1,1,0,0,1,62.64,75.91Zm-11-2H61.73l.45-4.84H52.7Z"/><path class="cls-4" d="M61.52,69.07h-8a1,1,0,0,1-1-.82,12,12,0,0,1,2.36-9.6l3.92-5a4.29,4.29,0,0,1,7.41,4.08L62.47,68.4A1,1,0,0,1,61.52,69.07Zm-7.12-2h6.42l3.53-10A2.28,2.28,0,0,0,60.4,54.9l-3.92,5A10,10,0,0,0,54.4,67.07Z"/><path class="cls-4" d="M63,72.49h-5a1,1,0,0,1,0-2h5a1,1,0,0,1,0,2Z"/><path class="cls-4" d="M89.58,50.75H69.5a1,1,0,0,1-1-1V30.42a1,1,0,0,1,2,0V48.75H89.58a1,1,0,0,1,0,2Z"/><path class="cls-4" d="M75,41.59c-.24,0,.18.13-5.83-2a1,1,0,0,1,.66-1.89l4.8,1.68,3.31-4.52a1,1,0,0,1,1.3-.29l3.61,2,6.09-5.13A1,1,0,1,1,90.23,33l-6.62,5.58a1,1,0,0,1-1.13.11L79,36.77l-3.23,4.41A1,1,0,0,1,75,41.59Z"/><path class="cls-4" d="M73.54,50.75a1,1,0,0,1-1-1V40.08a1,1,0,0,1,2,0v9.67A1,1,0,0,1,73.54,50.75Z"/><path class="cls-4" d="M77.69,50.75a1,1,0,0,1-1-1V36.92a1,1,0,0,1,2,0V49.75A1,1,0,0,1,77.69,50.75Z"/><path class="cls-4" d="M81.83,50.75a1,1,0,0,1-1-1V37.18a1,1,0,1,1,2,0V49.75A1,1,0,0,1,81.83,50.75Z"/><path class="cls-4" d="M86,50.75a1,1,0,0,1-1-1V35.28a1,1,0,0,1,2,0V49.75A1,1,0,0,1,86,50.75Z"/><path class="cls-4" d="M81.83,55.25H69.5a1,1,0,0,1,0-2H81.83a1,1,0,0,1,0,2Z"/><path class="cls-4" d="M81.83,60H69.5a1,1,0,0,1,0-2H81.83a1,1,0,0,1,0,2Z"/><path class="cls-4" d="M76.19,64.75H69.5a1,1,0,0,1,0-2h6.69a1,1,0,0,1,0,2Z"/><path class="cls-4" d="M81.83,17.42H69.5a1,1,0,1,1,0-2H81.83a1,1,0,0,1,0,2Z"/><path class="cls-4" d="M81.83,22.17H69.5a1,1,0,0,1,0-2H81.83a1,1,0,0,1,0,2Z"/><path class="cls-4" d="M76.19,26.92H69.5a1,1,0,0,1,0-2h6.69a1,1,0,0,1,0,2Z"/></g></svg>