<svg xmlns="http://www.w3.org/2000/svg" viewBox="0 0 96 96"><defs><style>.cls-1{fill:#302d3d;}.cls-2{fill:#e61f34;}.cls-3{fill:#fe4a55;}.cls-4{fill:#3ab67d;}.cls-5{fill:#44cf87;}.cls-6{fill:#ffa64d;}.cls-7{fill:#ffca6e;}.cls-8{fill:#4d6dc7;}.cls-9{fill:#84aeea;}</style></defs><title>Processing</title><g id="Processing"><path class="cls-1" d="M48,89.49a1,1,0,0,1,0-2A39.71,39.71,0,0,0,84.93,62.05a1,1,0,0,1,1.29-.58,1,1,0,0,1,.58,1.29A41.73,41.73,0,0,1,48,89.49Z"/><path class="cls-1" d="M88.5,49a1,1,0,0,1-1-1A39.71,39.71,0,0,0,62.06,11.08a1,1,0,0,1-.58-1.29,1,1,0,0,1,1.29-.58A41.73,41.73,0,0,1,89.5,48,1,1,0,0,1,88.5,49Z"/><path class="cls-1" d="M10.15,34.59a1,1,0,0,1-.93-1.35A41.73,41.73,0,0,1,48,6.51a1,1,0,0,1,0,2A39.71,39.71,0,0,0,11.09,34,1,1,0,0,1,10.15,34.59Z"/><path class="cls-1" d="M33.6,86.86a1,1,0,0,1-.35-.07A41.73,41.73,0,0,1,6.52,48a1,1,0,0,1,2,0A39.71,39.71,0,0,0,34,84.92,1,1,0,0,1,33.6,86.86Z"/><path class="cls-1" d="M87.78,68.32a1,1,0,0,1-.93-.64l-1.55-4-4,1.56a1,1,0,0,1-.73-1.87l4.91-1.91a1,1,0,0,1,1.3.57L88.71,67A1,1,0,0,1,87.78,68.32Z"/><path class="cls-1" d="M64.33,16.06a1,1,0,0,1-.93-.64l-1.91-4.91a1,1,0,0,1,.57-1.3L67,7.3a1,1,0,0,1,1.29.57,1,1,0,0,1-.56,1.29l-4,1.55,1.56,4A1,1,0,0,1,64.33,16.06Z"/><path class="cls-1" d="M10.15,34.59A1,1,0,0,1,9.22,34L7.31,29a1,1,0,1,1,1.86-.72l1.55,4,4-1.56a1,1,0,0,1,1.3.57,1,1,0,0,1-.57,1.3C10.09,34.69,10.42,34.59,10.15,34.59Z"/><path class="cls-1" d="M28.69,88.77a1,1,0,0,1-.36-1.93l4-1.55-1.56-4a1,1,0,0,1,1.87-.73l1.91,4.91a1,1,0,0,1-.57,1.3C28.62,88.87,29,88.77,28.69,88.77Z"/><path class="cls-2" d="M69.45,43.35H66a1.06,1.06,0,0,1-1-.75,17.94,17.94,0,0,0-1.17-2.83,1.05,1.05,0,0,1,.2-1.23l2.42-2.42a1,1,0,0,0,0-1.48l-5.1-5.1a1,1,0,0,0-1.48,0L57.46,32a1.05,1.05,0,0,1-1.23.2A17.94,17.94,0,0,0,53.4,31a1.06,1.06,0,0,1-.75-1V26.55a1,1,0,0,0-1-1.05H44.4a1,1,0,0,0-1,1.05V30a1.06,1.06,0,0,1-.75,1,17.94,17.94,0,0,0-2.83,1.17,1.05,1.05,0,0,1-1.23-.2l-2.42-2.42a1,1,0,0,0-1.48,0l-5.1,5.1a1,1,0,0,0,0,1.48L32,38.54a1.07,1.07,0,0,1,.2,1.23A17.94,17.94,0,0,0,31,42.6a1.06,1.06,0,0,1-1,.75H26.55a1,1,0,0,0-1.05,1v7.2a1,1,0,0,0,1.05,1H30a1.06,1.06,0,0,1,1,.75,17.94,17.94,0,0,0,1.17,2.83,1.07,1.07,0,0,1-.2,1.23l-2.42,2.42a1,1,0,0,0,0,1.48l5.1,5.1a1,1,0,0,0,1.48,0L38.54,64a1.07,1.07,0,0,1,1.23-.2A17.94,17.94,0,0,0,42.6,65a1.06,1.06,0,0,1,.75,1v3.44a1,1,0,0,0,1,1h7.2a1,1,0,0,0,1-1V66a1.06,1.06,0,0,1,.75-1,17.94,17.94,0,0,0,2.83-1.17,1.07,1.07,0,0,1,1.23.2l2.42,2.42a1,1,0,0,0,1.48,0l5.1-5.1a1,1,0,0,0,0-1.48L64,57.46a1.05,1.05,0,0,1-.2-1.23A17.94,17.94,0,0,0,65,53.4a1.06,1.06,0,0,1,1-.75h3.44a1,1,0,0,0,1-1V44.4A1,1,0,0,0,69.45,43.35ZM48,57a9,9,0,1,1,9-9A9,9,0,0,1,48,57Z"/><path class="cls-3" d="M47.08,67.5a.73.73,0,0,1-.73-.73V66a4,4,0,0,0-2.91-3.88,13.45,13.45,0,0,1-2.35-1,4.08,4.08,0,0,0-4.67.78l-.52.52a.73.73,0,0,1-1,0l-1.3-1.3a.73.73,0,0,1,0-1l.52-.52a4.09,4.09,0,0,0,.74-4.75,14,14,0,0,1-1-2.33A4,4,0,0,0,30,49.65h-.76a.73.73,0,0,1-.73-.73V47.08a.73.73,0,0,1,.73-.73H30a4,4,0,0,0,3.86-2.84,13.83,13.83,0,0,1,1-2.36,4.08,4.08,0,0,0-.75-4.73l-.52-.52a.73.73,0,0,1,0-1l1.3-1.3a.73.73,0,0,1,1,0l.52.52a4.11,4.11,0,0,0,2.88,1.2c1.56,0,1.83-.68,4.2-1.43A4,4,0,0,0,46.35,30v-.76a.73.73,0,0,1,.73-.73h1.84a.73.73,0,0,1,.73.73V30a4,4,0,0,0,2.84,3.86,13.83,13.83,0,0,1,2.36,1,4.07,4.07,0,0,0,4.73-.75l.52-.52a.73.73,0,0,1,1,0l1.3,1.3a.73.73,0,0,1,0,1l-.52.52a4.07,4.07,0,0,0-.71,4.8,14.14,14.14,0,0,1,.94,2.28A4,4,0,0,0,66,46.35h.76a.73.73,0,0,1,.73.73v1.84a.73.73,0,0,1-.73.73H66a4,4,0,0,0-3.86,2.84,13.83,13.83,0,0,1-1,2.36,4.05,4.05,0,0,0,.75,4.73l.52.52a.73.73,0,0,1,0,1l-1.3,1.3a.73.73,0,0,1-1,0l-.52-.52a4.1,4.1,0,0,0-2.88-1.19c-1.53,0-2.07.75-4.18,1.41A4.06,4.06,0,0,0,49.65,66v.76a.73.73,0,0,1-.73.73Zm2.49-31.37A12,12,0,1,0,59.88,46.44,12,12,0,0,0,49.57,36.13Z"/><circle class="cls-4" cx="48.01" cy="88.49" r="6.45"/><path class="cls-5" d="M48,92a3.46,3.46,0,1,1,3.45-3.46A3.46,3.46,0,0,1,48,92Z"/><circle class="cls-2" cx="88.5" cy="48" r="6.45"/><circle class="cls-3" cx="88.5" cy="48" r="3.45"/><circle class="cls-6" cx="48.01" cy="7.51" r="6.45"/><path class="cls-7" d="M48,11a3.46,3.46,0,1,1,3.45-3.45A3.46,3.46,0,0,1,48,11Z"/><circle class="cls-8" cx="7.51" cy="48" r="6.45"/><path class="cls-9" d="M7.51,51.45A3.45,3.45,0,1,1,11,48,3.46,3.46,0,0,1,7.51,51.45Z"/><path class="cls-1" d="M51.61,71.5H44.4a2.05,2.05,0,0,1-2-2V66a21.06,21.06,0,0,1-3-1.29l-2.49,2.44a2.09,2.09,0,0,1-2.9,0l-5.09-5.09a2.05,2.05,0,0,1,0-2.9l2.42-2.41A24.36,24.36,0,0,1,30,53.7l-3.48-.05a2.05,2.05,0,0,1-2.06-2V44.4a2.05,2.05,0,0,1,2.06-2H30a21.15,21.15,0,0,1,1.28-3l-2.44-2.48a2.05,2.05,0,0,1,0-2.9l5.09-5.09a2.05,2.05,0,0,1,2.9,0l2.42,2.41a27.69,27.69,0,0,1,3-1.22l.05-3.48a2.05,2.05,0,0,1,2-2.05h7.21a2.05,2.05,0,0,1,2,2.05V30a21.72,21.72,0,0,1,3,1.29l2.48-2.44a2.05,2.05,0,0,1,2.9,0l5.1,5.09a2.05,2.05,0,0,1,0,2.9l-2.42,2.42a24.85,24.85,0,0,1,1.22,3l3.48.05a2.05,2.05,0,0,1,2,2v7.2a2.05,2.05,0,0,1-2,2H66a21.15,21.15,0,0,1-1.28,3l2.44,2.48a2.05,2.05,0,0,1,0,2.9l-5.09,5.09a2.06,2.06,0,0,1-2.91,0l-2.41-2.41A27.84,27.84,0,0,1,53.7,66l0,3.48A2.05,2.05,0,0,1,51.61,71.5ZM39.3,62.72c.92,0,1.24.59,3.61,1.34a2,2,0,0,1,1.44,2v3.44l7.26,0,0-3.49a2,2,0,0,1,1.44-2A16.73,16.73,0,0,0,55.77,63a2.05,2.05,0,0,1,2.4.38l2.42,2.42,5.16-5.09-2.41-2.49A2.05,2.05,0,0,1,63,55.76a16.84,16.84,0,0,0,1.1-2.67,2.06,2.06,0,0,1,2-1.44h3.44c.1-.1,0,.51,0-7.25l-3.49,0a2.06,2.06,0,0,1-2-1.44A16.31,16.31,0,0,0,63,40.24a2,2,0,0,1,.38-2.41l2.41-2.41-5.09-5.17-2.49,2.42a2.05,2.05,0,0,1-2.4.38,16,16,0,0,0-2.67-1.11,2,2,0,0,1-1.44-2V26.55L44.4,26.5l0,3.49a2,2,0,0,1-1.44,2,16.35,16.35,0,0,0-2.67,1.11,2.05,2.05,0,0,1-2.4-.38l-2.42-2.42-5.17,5.09,2.42,2.49a2.05,2.05,0,0,1,.38,2.41,16.88,16.88,0,0,0-1.11,2.67A2,2,0,0,1,30,44.35H26.56L26.5,51.6l3.5,0a2,2,0,0,1,1.94,1.44,17.88,17.88,0,0,0,1.11,2.67,2.05,2.05,0,0,1-.38,2.41l-2.42,2.41,5.1,5.17,2.48-2.42A2.11,2.11,0,0,1,39.3,62.72Z"/><path class="cls-1" d="M48,58A10,10,0,1,1,58,48,10,10,0,0,1,48,58ZM48,40a8,8,0,1,0,8,8A8,8,0,0,0,48,40Z"/><path class="cls-1" d="M48,96a7.46,7.46,0,1,1,7.45-7.46A7.46,7.46,0,0,1,48,96ZM48,83a5.46,5.46,0,1,0,5.45,5.45A5.46,5.46,0,0,0,48,83Z"/><path class="cls-1" d="M88.5,55.45A7.45,7.45,0,1,1,96,48,7.46,7.46,0,0,1,88.5,55.45Zm0-12.9A5.45,5.45,0,1,0,94,48,5.46,5.46,0,0,0,88.5,42.55Z"/><path class="cls-1" d="M48,15a7.46,7.46,0,1,1,7.45-7.45A7.46,7.46,0,0,1,48,15ZM48,2.05a5.46,5.46,0,1,0,5.45,5.46A5.46,5.46,0,0,0,48,2.05Z"/><path class="cls-1" d="M7.52,55.45A7.45,7.45,0,1,1,15,48,7.46,7.46,0,0,1,7.52,55.45Zm0-12.9A5.45,5.45,0,1,0,13,48,5.46,5.46,0,0,0,7.52,42.55Z"/></g></svg>