<svg xmlns="http://www.w3.org/2000/svg" viewBox="0 0 96 96"><defs><style>.cls-1{fill:#ffa64d;}.cls-2{fill:#ffca6e;}.cls-3{fill:#ffe391;}.cls-4{fill:#302d3d;}.cls-5{fill:#fe4a55;}.cls-6{fill:#e9ecef;}.cls-7{fill:#e61f34;}.cls-8{fill:#ff736e;}.cls-9{fill:#fff;}.cls-10{fill:#5f83cf;}.cls-11{fill:#87b5e3;}</style></defs><title>Productivity</title><g id="Productivity"><path class="cls-1" d="M18.35,10.66,9.63,23.58a2.22,2.22,0,0,0,1.85,3.47h2V61.22A2.57,2.57,0,0,0,16,63.79h8.36a2.57,2.57,0,0,0,2.56-2.57V27.05h2a2.22,2.22,0,0,0,1.85-3.47L22.05,10.66A2.24,2.24,0,0,0,18.35,10.66Z"/><path class="cls-1" d="M56.12,2,47.4,14.89a2.23,2.23,0,0,0,1.84,3.48h2V51.7a2.57,2.57,0,0,0,2.57,2.57h8.35a2.57,2.57,0,0,0,2.57-2.57V18.37h2a2.24,2.24,0,0,0,1.85-3.48L59.81,2A2.22,2.22,0,0,0,56.12,2Z"/><path class="cls-2" d="M65.24,16.64H61.77V33A10.56,10.56,0,0,1,51.22,43.58V18.37h-2a2.22,2.22,0,0,1-1.85-3.47L56.11,2a2.25,2.25,0,0,1,1.32-.91l9,13.33A1.44,1.44,0,0,1,65.24,16.64Z"/><path class="cls-3" d="M53,39.78V21.12a2.79,2.79,0,0,1,5.57,0V34.2A5.57,5.57,0,0,1,53,39.78Z"/><path class="cls-4" d="M62.14,55.27H53.79a3.57,3.57,0,0,1-3.57-3.57V19.37h-1a3.23,3.23,0,0,1-2.68-5L55.29,1.42h0a3.23,3.23,0,0,1,5.35,0l8.72,12.91a3.23,3.23,0,0,1-2.67,5h-1V51.7A3.57,3.57,0,0,1,62.14,55.27ZM57,2.54,48.23,15.45a1.23,1.23,0,0,0,1,1.92h2a1,1,0,0,1,1,1V51.7a1.58,1.58,0,0,0,1.57,1.57h8.35a1.57,1.57,0,0,0,1.57-1.57V18.37a1,1,0,0,1,1-1h2a1.23,1.23,0,0,0,1-1.92L59,2.54a1.25,1.25,0,0,0-2,0Z"/><path class="cls-2" d="M27.48,25.32H24V46.79A10.55,10.55,0,0,1,13.46,57.34V27.05h-2a2.22,2.22,0,0,1-1.85-3.47l8.72-12.92a2.25,2.25,0,0,1,1.32-.91l9,13.33A1.44,1.44,0,0,1,27.48,25.32Z"/><path class="cls-3" d="M15.22,51.25V29.81a2.79,2.79,0,1,1,5.58,0V45.67A5.58,5.58,0,0,1,15.22,51.25Z"/><path class="cls-4" d="M24.38,64.79H16a3.57,3.57,0,0,1-3.56-3.57V28.05h-1A3.23,3.23,0,0,1,8.8,23L17.53,10.1h0a3.24,3.24,0,0,1,5.35,0L31.6,23a3.23,3.23,0,0,1-2.68,5h-1V61.22A3.57,3.57,0,0,1,24.38,64.79Zm-5.2-53.57L10.46,24.14a1.23,1.23,0,0,0,1,1.91h2a1,1,0,0,1,1,1V61.22A1.57,1.57,0,0,0,16,62.79h8.36a1.57,1.57,0,0,0,1.56-1.57V27.05a1,1,0,0,1,1-1h2a1.22,1.22,0,0,0,1-1.91L21.22,11.22a1.27,1.27,0,0,0-2,0Z"/><circle class="cls-5" cx="45.56" cy="62.49" r="32.51"/><circle class="cls-6" cx="45.56" cy="62.49" r="26.71"/><path class="cls-7" d="M70.14,72.88A26.81,26.81,0,0,1,58.19,86,2.9,2.9,0,0,0,61,91.07,32.52,32.52,0,0,0,75.44,75.18a2.9,2.9,0,0,0-2.66-4.05A2.86,2.86,0,0,0,70.14,72.88Z"/><path class="cls-8" d="M21,52.11A26.81,26.81,0,0,1,32.93,39a2.91,2.91,0,0,0-2.77-5.11,32.6,32.6,0,0,0-14.49,15.9,2.91,2.91,0,0,0,2.66,4A2.87,2.87,0,0,0,21,52.11Z"/><path class="cls-9" d="M45.56,86.2a23.71,23.71,0,1,1,23.7-23.71A23.74,23.74,0,0,1,45.56,86.2Z"/><rect class="cls-10" x="43.3" y="45.13" width="4.51" height="17.11" rx="2.09"/><rect class="cls-10" x="37.58" y="57.02" width="4.51" height="10.95" rx="2.09" transform="translate(-22.66 102.33) rotate(-90)"/><path class="cls-4" d="M45.72,63.24h-.33a3.09,3.09,0,0,1-3.09-3.09V47.22a3.1,3.1,0,0,1,3.09-3.09h.33a3.09,3.09,0,0,1,3.09,3.09V60.15A3.09,3.09,0,0,1,45.72,63.24Zm-.33-17.11a1.09,1.09,0,0,0-1.09,1.09V60.15a1.09,1.09,0,0,0,1.09,1.09h.33a1.09,1.09,0,0,0,1.09-1.09V47.22a1.09,1.09,0,0,0-1.09-1.09Z"/><path class="cls-4" d="M43.22,65.75H36.45a3.1,3.1,0,0,1-3.09-3.09v-.33a3.09,3.09,0,0,1,3.09-3.09h6.77a3.09,3.09,0,0,1,3.09,3.09v.33A3.1,3.1,0,0,1,43.22,65.75Zm-6.77-4.51a1.09,1.09,0,0,0-1.09,1.09v.33a1.09,1.09,0,0,0,1.09,1.09h6.77a1.09,1.09,0,0,0,1.09-1.09v-.33a1.09,1.09,0,0,0-1.09-1.09Z"/><circle class="cls-11" cx="45.56" cy="62.49" r="3.99"/><path class="cls-4" d="M45.56,96a33.51,33.51,0,1,1,33.5-33.51A33.54,33.54,0,0,1,45.56,96Zm0-65a31.51,31.51,0,1,0,31.5,31.5A31.54,31.54,0,0,0,45.56,31Z"/><path class="cls-4" d="M45.56,90.2a27.71,27.71,0,1,1,27.7-27.71A27.74,27.74,0,0,1,45.56,90.2Zm0-53.41a25.71,25.71,0,1,0,25.7,25.7A25.73,25.73,0,0,0,45.56,36.79Z"/><path class="cls-4" d="M45.56,67.48a5,5,0,1,1,5-5A5,5,0,0,1,45.56,67.48Zm0-8a3,3,0,1,0,3,3A3,3,0,0,0,45.56,59.51Z"/><path class="cls-4" d="M45.56,42.88a1,1,0,0,1-1-1v-2a1,1,0,0,1,2,0v2A1,1,0,0,1,45.56,42.88Z"/><path class="cls-4" d="M45.56,86.14a1,1,0,0,1-1-1v-2a1,1,0,0,1,2,0v2A1,1,0,0,1,45.56,86.14Z"/><path class="cls-4" d="M68.2,63.5h-2a1,1,0,0,1,0-2h2a1,1,0,0,1,0,2Z"/><path class="cls-4" d="M24.93,63.5h-2a1,1,0,0,1,0-2h2a1,1,0,1,1,0,2Z"/><path class="cls-4" d="M60.14,48.92a1,1,0,0,1-.71-1.71l1.43-1.42a1,1,0,0,1,1.41,1.41C60.76,48.72,60.67,48.92,60.14,48.92Z"/><path class="cls-4" d="M29.55,79.51a1,1,0,0,1-.71-1.71l1.43-1.42a1,1,0,0,1,1.41,1.41C30.17,79.31,30.08,79.51,29.55,79.51Z"/><path class="cls-4" d="M61.57,79.51a1,1,0,0,1-.71-.29l-1.43-1.43a1,1,0,0,1,0-1.41,1,1,0,0,1,1.42,0l1.42,1.42A1,1,0,0,1,61.57,79.51Z"/><path class="cls-4" d="M31,48.92a1,1,0,0,1-.71-.29L28.84,47.2a1,1,0,0,1,0-1.41,1,1,0,0,1,1.42,0l1.42,1.42A1,1,0,0,1,31,48.92Z"/><path class="cls-1" d="M84.52,66.48h-2V92.36A2.57,2.57,0,0,1,80,94.93H71.62a2.57,2.57,0,0,1-2.56-2.57V66.48h-2A2.22,2.22,0,0,1,65.23,63L74,50.09a2.24,2.24,0,0,1,3.7,0L86.37,63A2.22,2.22,0,0,1,84.52,66.48Z"/><path class="cls-2" d="M83.08,64.75H79.61V81.14A10.55,10.55,0,0,1,69.06,91.69V66.48h-2A2.22,2.22,0,0,1,65.23,63L74,50.09a2.25,2.25,0,0,1,1.32-.91l9,13.33A1.44,1.44,0,0,1,83.08,64.75Z"/><path class="cls-3" d="M70.83,87.89V69.24a2.79,2.79,0,1,1,5.57,0V82.32A5.57,5.57,0,0,1,70.83,87.89Z"/><path class="cls-4" d="M80,95.93H71.62a3.57,3.57,0,0,1-3.56-3.57V67.48h-1a3.23,3.23,0,0,1-2.68-5l8.72-12.91h0a3.23,3.23,0,0,1,5.35,0L87.2,62.45a3.23,3.23,0,0,1-2.68,5h-1V92.36A3.57,3.57,0,0,1,80,95.93Zm-5.2-45.28L66.06,63.57a1.22,1.22,0,0,0,1,1.91h2a1,1,0,0,1,1,1V92.36a1.56,1.56,0,0,0,1.56,1.57H80a1.56,1.56,0,0,0,1.56-1.57V66.48a1,1,0,0,1,1-1h2a1.23,1.23,0,0,0,1-1.91L76.82,50.65a1.27,1.27,0,0,0-2,0Z"/></g></svg>