<svg xmlns="http://www.w3.org/2000/svg" viewBox="0 0 96 96"><defs><style>.cls-1{fill:#84aeea;}.cls-2{fill:#b4c9e8;}.cls-3{fill:#d2e7ff;}.cls-4{fill:#302d3d;}.cls-5{fill:#fff;}.cls-6{fill:#5c86c7;}.cls-7{fill:#4d6dc7;}.cls-8{fill:#dbddf3;}.cls-9{fill:#3c3264;}.cls-10{fill:#6d7ea8;}</style></defs><title>Projector</title><g id="Projector"><path class="cls-1" d="M95,37V59.31a2.94,2.94,0,0,1-2.94,2.94H3.94A2.94,2.94,0,0,1,1,59.31V37a2.94,2.94,0,0,1,2.94-2.93H92.06A2.94,2.94,0,0,1,95,37Z"/><path class="cls-2" d="M89.11,34.05V53.42a2.94,2.94,0,0,1-2.94,2.94H1V37a2.94,2.94,0,0,1,2.94-2.93Z"/><rect class="cls-3" x="10.12" y="37.99" width="69.75" height="14.42" rx="2.81"/><path class="cls-4" d="M92.06,63.25H3.94A4,4,0,0,1,0,59.31V37a3.94,3.94,0,0,1,3.94-3.93H92.06A3.94,3.94,0,0,1,96,37V59.31A4,4,0,0,1,92.06,63.25ZM3.94,35.05A1.94,1.94,0,0,0,2,37V59.31a1.94,1.94,0,0,0,1.94,1.94H92.06A1.94,1.94,0,0,0,94,59.31V37a1.94,1.94,0,0,0-1.94-1.93Z"/><rect class="cls-5" x="21.85" y="42.41" width="37.37" height="5.59" rx="1.51"/><path class="cls-6" d="M4.45,62.25h87.1a0,0,0,0,1,0,0v4.53a2.08,2.08,0,0,1-2.08,2.08H6.53a2.08,2.08,0,0,1-2.08-2.08V62.25A0,0,0,0,1,4.45,62.25Z"/><rect class="cls-7" x="4.45" y="62.25" width="87.1" height="2.24"/><rect class="cls-2" x="26.36" y="64.49" width="43.28" height="4.37"/><circle class="cls-1" cx="48" cy="39" r="18.37"/><circle class="cls-2" cx="48" cy="39" r="13.41"/><circle class="cls-8" cx="48" cy="39" r="10.41"/><path class="cls-6" d="M56.48,49.37a13.33,13.33,0,0,1-17,0A2.42,2.42,0,0,0,38,48.83a2.47,2.47,0,0,0-1.6,4.35,18.28,18.28,0,0,0,23.3,0,2.47,2.47,0,0,0-1.6-4.35A2.43,2.43,0,0,0,56.48,49.37Z"/><path class="cls-8" d="M39.52,28.64a13.33,13.33,0,0,1,17,0,2.48,2.48,0,0,0,3.17-3.82,18.3,18.3,0,0,0-23.3,0A2.47,2.47,0,0,0,38,29.17,2.44,2.44,0,0,0,39.52,28.64Z"/><circle class="cls-9" cx="48" cy="39" r="4.46"/><path class="cls-4" d="M48,58.37A19.37,19.37,0,1,1,67.37,39,19.39,19.39,0,0,1,48,58.37Zm0-36.74A17.37,17.37,0,1,0,65.37,39,17.39,17.39,0,0,0,48,21.63Z"/><path class="cls-4" d="M48,53.41A14.41,14.41,0,1,1,62.42,39,14.43,14.43,0,0,1,48,53.41Zm0-26.82A12.41,12.41,0,1,0,60.42,39,12.42,12.42,0,0,0,48,26.59Z"/><path class="cls-4" d="M48,44.46A5.46,5.46,0,1,1,53.46,39,5.47,5.47,0,0,1,48,44.46Zm0-8.92A3.46,3.46,0,1,0,51.46,39,3.46,3.46,0,0,0,48,35.54Z"/><rect class="cls-8" x="8.64" y="42.57" width="11.16" height="11.16" rx="1.85"/><path class="cls-5" d="M11.38,42.57h5.67a0,0,0,0,1,0,0v8.49a1.36,1.36,0,0,1-1.36,1.36H12.75a1.36,1.36,0,0,1-1.36-1.36V42.57A0,0,0,0,1,11.38,42.57Z"/><path class="cls-6" d="M72,34H88.25a0,0,0,0,1,0,0v6.13a2.56,2.56,0,0,1-2.56,2.56H74.56A2.56,2.56,0,0,1,72,40.18V34A0,0,0,0,1,72,34Z"/><path class="cls-1" d="M82.1,42.74H78.15A2.17,2.17,0,0,1,76,40.58V34.05h8.29v6.53A2.17,2.17,0,0,1,82.1,42.74Z"/><rect class="cls-9" x="10.38" y="68.86" width="13.63" height="6.51"/><rect class="cls-9" x="72" y="68.86" width="13.63" height="6.51"/><rect class="cls-10" x="10.38" y="72.11" width="13.63" height="3.26"/><rect class="cls-10" x="72" y="72.11" width="13.63" height="3.26"/><path class="cls-4" d="M89.46,69.86H6.54a3.09,3.09,0,0,1-3.09-3.09V62.25a1,1,0,0,1,1-1h87.1a1,1,0,0,1,1,1v4.52A3.09,3.09,0,0,1,89.46,69.86Zm-84-6.61v3.52a1.09,1.09,0,0,0,1.09,1.09H89.46a1.09,1.09,0,0,0,1.09-1.09V63.25Z"/><path class="cls-4" d="M18,54.73H10.49a2.86,2.86,0,0,1-2.85-2.86V44.42a2.86,2.86,0,0,1,2.85-2.85H18a2.86,2.86,0,0,1,2.85,2.85v7.45A2.86,2.86,0,0,1,18,54.73ZM10.49,43.57a.85.85,0,0,0-.85.85v7.45a.86.86,0,0,0,.85.86H18a.86.86,0,0,0,.85-.86V44.42a.85.85,0,0,0-.85-.85Z"/><path class="cls-4" d="M14.22,51a1,1,0,0,1-1-1V46.33a1,1,0,0,1,2,0V50A1,1,0,0,1,14.22,51Z"/><path class="cls-4" d="M70.75,54.73a1,1,0,0,1-1-1V50a1,1,0,0,1,2,0v3.77A1,1,0,0,1,70.75,54.73Z"/><path class="cls-4" d="M75.31,54.73a1,1,0,0,1-1-1V50a1,1,0,0,1,2,0v3.77A1,1,0,0,1,75.31,54.73Z"/><path class="cls-4" d="M79.88,54.73a1,1,0,0,1-1-1V50a1,1,0,0,1,2,0v3.77A1,1,0,0,1,79.88,54.73Z"/><path class="cls-4" d="M84.44,54.73a1,1,0,0,1-1-1V50a1,1,0,0,1,2,0v3.77A1,1,0,0,1,84.44,54.73Z"/><path class="cls-4" d="M89,54.73a1,1,0,0,1-1-1V50a1,1,0,0,1,2,0v3.77A1,1,0,0,1,89,54.73Z"/><path class="cls-4" d="M85.69,43.74H74.56A3.57,3.57,0,0,1,71,40.18V34.05a1,1,0,0,1,1-1H88.25a1,1,0,0,1,1,1v6.13A3.57,3.57,0,0,1,85.69,43.74ZM73,35.05v5.13a1.56,1.56,0,0,0,1.56,1.56H85.69a1.56,1.56,0,0,0,1.56-1.56V35.05Z"/><path class="cls-4" d="M24,76.37H10.38a1,1,0,0,1-1-1V68.86a1,1,0,0,1,1-1H24a1,1,0,0,1,1,1v6.51A1,1,0,0,1,24,76.37Zm-12.62-2H23V69.86H11.38Z"/><path class="cls-4" d="M85.62,76.37H72a1,1,0,0,1-1-1V68.86a1,1,0,0,1,1-1H85.62a1,1,0,0,1,1,1v6.51A1,1,0,0,1,85.62,76.37ZM73,74.37H84.62V69.86H73Z"/></g></svg>