<svg xmlns="http://www.w3.org/2000/svg" viewBox="0 0 96 96"><defs><style>.cls-1{fill:#e9ecef;}.cls-2{fill:#f8f9fa;}.cls-3{fill:#4e69b5;}.cls-4{fill:#5d7db0;}.cls-5{fill:#74383d;}.cls-6{fill:#302d3d;}.cls-7{fill:#ffbaab;}.cls-8{fill:#ffc088;}.cls-9{fill:#ffd9b5;}.cls-10{fill:#fff;}.cls-11{fill:#faa697;}.cls-12{fill:#88515b;}.cls-13{fill:#ffd3c4;}.cls-14{fill:#92606f;}.cls-15{fill:#f0824b;}.cls-16{fill:#ffca6e;}.cls-17{fill:#ffe391;}.cls-18{fill:#a17988;}</style></defs><title>Receptionist</title><g id="Receptionist"><path class="cls-1" d="M71.27,86.94H17.15l4.71-14.13A14.92,14.92,0,0,1,32.49,63l6-1.47H49.9l6,1.47a14.92,14.92,0,0,1,10.63,9.77Z"/><path class="cls-2" d="M39.11,75.05H49.33a2.19,2.19,0,0,1,2.19,2.19v9.69a0,0,0,0,1,0,0H36.92a0,0,0,0,1,0,0V77.25A2.19,2.19,0,0,1,39.11,75.05Z"/><path class="cls-3" d="M34.48,62.56V86.94H17.14l4.72-14.12A14.89,14.89,0,0,1,32.49,63Z"/><path class="cls-4" d="M34.48,66.49V86.94H20.66l4-12a12.66,12.66,0,0,1,9-8.29Z"/><path class="cls-3" d="M71.27,86.94H53.93V62.56l2,.48a14.89,14.89,0,0,1,10.63,9.78Z"/><path class="cls-4" d="M53.94,66.49V86.94H67.76l-4-12a12.66,12.66,0,0,0-9-8.29Z"/><path class="cls-5" d="M47.89,13.81H40.53a5.19,5.19,0,1,1,0-10.37h7.36a5.19,5.19,0,1,1,0,10.37Z"/><path class="cls-6" d="M47.89,14.81H40.52a6.19,6.19,0,1,1,0-12.37h7.37a6.19,6.19,0,1,1,0,12.37ZM40.52,4.44a4.19,4.19,0,1,0,0,8.37h7.37a4.19,4.19,0,1,0,0-8.37Z"/><path class="cls-7" d="M67.72,39.22a3.73,3.73,0,0,1-3.22,3.7c-.34.06,2.33,0-40.06,0a3.74,3.74,0,0,1-.59-7.43c.49-.08-2.2-.05,40.13-.05A3.75,3.75,0,0,1,67.72,39.22Z"/><path class="cls-6" d="M71.27,87.94H17.14a1,1,0,0,1-.95-1.32L20.91,72.5A15.81,15.81,0,0,1,32.25,62.07l6-1.47c.18,0-.59,0,11.62,0,.17,0-.33-.11,6.26,1.5A15.81,15.81,0,0,1,67.5,72.5l4.72,14.12A1,1,0,0,1,71.27,87.94Zm-52.74-2H69.88L65.6,73.13A13.84,13.84,0,0,0,55.69,64l-5.91-1.44H38.63L32.72,64a13.87,13.87,0,0,0-9.92,9.12Z"/><path class="cls-6" d="M34.48,87.94H17.14a1,1,0,0,1-.95-1.32L20.91,72.5A15.81,15.81,0,0,1,32.25,62.07h0l2-.48a1,1,0,0,1,1.23,1V86.94A1,1,0,0,1,34.48,87.94Zm-15.95-2H33.48V63.83l-.76.18a13.82,13.82,0,0,0-9.91,9.12Z"/><path class="cls-6" d="M71.27,87.94H53.93a1,1,0,0,1-1-1V62.56a1,1,0,0,1,1.23-1l2,.48A15.81,15.81,0,0,1,67.5,72.5l4.72,14.12A1,1,0,0,1,71.27,87.94Zm-16.34-2H69.88L65.6,73.14A13.81,13.81,0,0,0,55.68,64l-.75-.18Z"/><path class="cls-6" d="M30.69,83.43H24.27a1,1,0,0,1-1-1v-3.5a1,1,0,0,1,1-1h6.42a1,1,0,0,1,1,1v3.5A1,1,0,0,1,30.69,83.43Zm-5.42-2h4.42v-1.5H25.27Z"/><path class="cls-7" d="M53.94,62.85a9.73,9.73,0,0,1-19.45,0c0-.1,0-.2,0-.3l3.14-.76V56H50.77v5.82l3.16.77A2.81,2.81,0,0,1,53.94,62.85Z"/><rect class="cls-8" x="1" y="86.94" width="94" height="5.63"/><rect class="cls-9" x="16.96" y="86.94" width="62.09" height="5.63"/><rect class="cls-10" x="36.68" y="88.24" width="22.64" height="3.01" rx="0.71"/><path class="cls-11" d="M50.77,56v4.46a20.23,20.23,0,0,1-13.13,0V56Z"/><path class="cls-6" d="M44.23,73.57A10.74,10.74,0,0,1,33.5,62.85c0-.13,0-.27,0-.4a1,1,0,0,1,.76-.87L36.64,61V56a1,1,0,0,1,1-1H50.78a1,1,0,0,1,1,1v5l2.39.59a1,1,0,0,1,.76.87c0,.14,0,.25,0,.39A10.72,10.72,0,0,1,44.23,73.57ZM35.51,63.33a8.72,8.72,0,0,0,17.42,0l-2.39-.58a1,1,0,0,1-.76-1V57H38.64v4.82a1,1,0,0,1-.76,1Z"/><path class="cls-11" d="M63.59,35.48c0,6.07,0,6.29-.09,7.48H24.94c-.12-1.18-.09-1.39-.09-7.48Z"/><path class="cls-6" d="M64,44H24.44a4.74,4.74,0,0,1,0-9.48H64A4.74,4.74,0,0,1,64,44ZM24.44,36.48a2.74,2.74,0,0,0,0,5.48H64a2.74,2.74,0,0,0,0-5.48Z"/><path class="cls-12" d="M65.2,27.24v8.45H61.6c0-.3.06.39-.54-5.84a5,5,0,0,0-1.73-3.32L56.77,24.3a3.41,3.41,0,0,0-3.85-.42l-9.26,5a7.27,7.27,0,0,1-3.36.84H29.59a2.72,2.72,0,0,0-2.71,2.4c0,.69,0,.27,0,3.56H23.24V27.24A16.72,16.72,0,0,1,40,10.52h8.52A16.72,16.72,0,0,1,65.2,27.24Z"/><rect class="cls-5" x="23.23" y="31.77" width="41.97" height="3.92"/><path class="cls-6" d="M65.19,36.69h-42a1,1,0,0,1-1-1V27.24A17.74,17.74,0,0,1,39.94,9.52h8.53A17.74,17.74,0,0,1,66.19,27.24v8.45A1,1,0,0,1,65.19,36.69Zm-41-2h40V27.24A15.74,15.74,0,0,0,48.47,11.52H39.94A15.74,15.74,0,0,0,24.22,27.24Z"/><path class="cls-13" d="M61.59,41.14a17.37,17.37,0,1,1-34.74,0c0-9.16,0-8.26,0-9a2.72,2.72,0,0,1,2.71-2.4H40.29a7.27,7.27,0,0,0,3.36-.84l9.26-5a3.39,3.39,0,0,1,3.84.42l2.57,2.23a5,5,0,0,1,1.73,3.32A64,64,0,0,1,61.59,41.14Z"/><path class="cls-14" d="M52.06,21c-.51.22-9.49,5.12-9.39,5.06a5.7,5.7,0,0,1-2.74.7H30.76a3.62,3.62,0,0,1-3.35-5A13.73,13.73,0,0,1,40,13.52c8.89,0,9.63-.12,11.69.37A3.72,3.72,0,0,1,52.06,21Z"/><polygon class="cls-15" points="64.24 76.56 84.99 76.56 81.1 86.94 60.35 86.94 64.24 76.56"/><path class="cls-6" d="M81.1,87.94H60.35a1,1,0,0,1-.94-1.36l3.9-10.37a1,1,0,0,1,.93-.65H85a1,1,0,0,1,.94,1.35L82,87.29A1,1,0,0,1,81.1,87.94Zm-19.31-2H80.41l3.14-8.38H64.93Z"/><polygon class="cls-16" points="84.99 76.56 64.24 76.56 68.13 86.94 88.88 86.94 84.99 76.56"/><path class="cls-17" d="M69.87,83l-.82-2.19a.94.94,0,0,1,.88-1.27h12a1.43,1.43,0,0,1,1.32.92l.82,2.18a1,1,0,0,1-.89,1.28h-12A1.41,1.41,0,0,1,69.87,83Z"/><rect class="cls-18" x="40.36" y="13.52" width="7.69" height="2.48" rx="1.24"/><path class="cls-6" d="M95,93.56H1a1,1,0,0,1-1-1V86.94a1,1,0,0,1,1-1H95a1,1,0,0,1,1,1v5.62A1,1,0,0,1,95,93.56Zm-93-2H94V87.94H2Z"/><path class="cls-6" d="M44.22,59.52A18.4,18.4,0,0,1,25.84,41.14c0-6.63,0-8.77,0-9.12a3.71,3.71,0,0,1,3.7-3.29H40.29A6.1,6.1,0,0,0,43.17,28l9.26-5a4.41,4.41,0,0,1,5,.54L60,25.77a6,6,0,0,1,2.07,4,63,63,0,0,1,.55,11.39A18.39,18.39,0,0,1,44.22,59.52ZM29.57,30.73a1.7,1.7,0,0,0-1.71,1.51c0,.74,0-.48,0,8.9a16.38,16.38,0,1,0,32.75,0,63.18,63.18,0,0,0-.54-11.2,4,4,0,0,0-1.38-2.65l-2.58-2.24a2.41,2.41,0,0,0-2.71-.29l-9.26,5a8.21,8.21,0,0,1-3.83,1Z"/><path class="cls-6" d="M51.15,38.58a1,1,0,0,1-1-1V36.8a1,1,0,0,1,2,0v.78A1,1,0,0,1,51.15,38.58Z"/><path class="cls-6" d="M52.92,34.39H49.38a1,1,0,0,1,0-2h3.54a1,1,0,0,1,0,2Z"/><path class="cls-6" d="M37.26,38.58a1,1,0,0,1-1-1V36.8a1,1,0,0,1,2,0v.78A1,1,0,0,1,37.26,38.58Z"/><path class="cls-6" d="M39,34.39H35.49a1,1,0,1,1,0-2H39a1,1,0,0,1,0,2Z"/><path class="cls-6" d="M30.67,30.73a1,1,0,0,1,0-2,9.88,9.88,0,0,0,6.17-2.18l5.22-4.22a1,1,0,0,1,1.25,1.55L38.1,28.1A11.9,11.9,0,0,1,30.67,30.73Z"/><path class="cls-6" d="M33,25.76A1,1,0,0,1,32.36,24l2.46-2.32a1,1,0,0,1,1.37,1.46C33.55,25.66,33.58,25.76,33,25.76Z"/><path class="cls-6" d="M53.08,29a1,1,0,0,1-.71-1.71L56,23.59A1,1,0,0,1,57.46,25l-3.67,3.67A1,1,0,0,1,53.08,29Z"/><path class="cls-6" d="M39.87,48.81a1,1,0,1,1,1.65-1.12,3.23,3.23,0,0,0,5.38,0,1,1,0,0,1,1.67,1.11A5.23,5.23,0,0,1,39.87,48.81Z"/><path class="cls-6" d="M88.88,87.94H68.13a1,1,0,0,1-.93-.65L63.31,76.91a1,1,0,0,1,.93-1.35H85a1,1,0,0,1,.94.65l3.89,10.37A1,1,0,0,1,88.88,87.94Zm-20.06-2H87.44L84.3,77.56H65.68Z"/><path class="cls-6" d="M81.28,82.75H72.37a1,1,0,0,1,0-2h8.91a1,1,0,0,1,0,2Z"/><path class="cls-6" d="M23.92,46.51a1,1,0,0,1-1-1V42.92a1,1,0,0,1,2,0v2.59A1,1,0,0,1,23.92,46.51Z"/><path class="cls-6" d="M64.11,46.51a1,1,0,0,1-1-1V42.92a1,1,0,0,1,2,0v2.59A1,1,0,0,1,64.11,46.51Z"/></g></svg>