<svg xmlns="http://www.w3.org/2000/svg" viewBox="0 0 96 96"><defs><style>.cls-1{fill:#ffa64d;}.cls-2{fill:#302d3d;}.cls-3{fill:#58b178;}.cls-4{fill:#67c582;}.cls-5{fill:#99d98c;}.cls-6{fill:#4ea278;}.cls-7{fill:#ffe391;}.cls-8{fill:#ffc541;}.cls-9{fill:#fff;}</style></defs><title>Salary</title><g id="Salary"><polygon class="cls-1" points="48 29.02 8.24 52.82 48 76.63 87.76 52.82 48 29.02"/><path class="cls-2" d="M48,77.63c-.43,0,2.28,1.53-40.27-23.95a1,1,0,0,1,0-1.72l39.76-23.8a1,1,0,0,1,1,0L88.27,52a1,1,0,0,1,0,1.72C45.73,79.15,48.43,77.63,48,77.63ZM10.19,52.82,48,75.46,85.81,52.82,48,30.18Z"/><path class="cls-3" d="M77.26,24.53l-37.36,52a3,3,0,0,1-4.22.68L9.5,58.34a3,3,0,0,1-.69-4.21L46.17,2.18a3,3,0,0,1,4.22-.69L76.57,20.32A3,3,0,0,1,77.26,24.53Z"/><path class="cls-4" d="M12.19,54.59,47.66,5.25a1.62,1.62,0,0,1,2.26-.37L73.5,21.82a1.62,1.62,0,0,1,.37,2.26c-3.42,4.79,1.56-2.14-36.41,50.66-.1,0-25-18-24.9-17.89A1.63,1.63,0,0,1,12.19,54.59Z"/><path class="cls-5" d="M32.74,67.42,19.68,58a4.91,4.91,0,0,0-1.11-6.84L46.49,12.37a4.89,4.89,0,0,0,6.83-1.12l13.06,9.39a4.89,4.89,0,0,0,1.11,6.83L39.57,66.3A4.89,4.89,0,0,0,32.74,67.42Z"/><path class="cls-6" d="M73.92,29.16,39.86,76.53a3,3,0,0,1-4.22.68L9.46,58.38a3,3,0,0,1-1.2-1.88L59.59,18.31a5,5,0,0,1,7,1Z"/><path class="cls-2" d="M35.09,78,8.91,59.19A4,4,0,0,1,8,53.58L45.35,1.63A4,4,0,0,1,51,.71L77.15,19.55a4,4,0,0,1,.92,5.61l-37.36,52A4,4,0,0,1,35.09,78ZM47,2.8l-37.36,52a2,2,0,0,0,.46,2.82L36.26,76.4a2,2,0,0,0,2.82-.46L76.44,24h0A2,2,0,0,0,76,21.17L49.8,2.34A2,2,0,0,0,47,2.8Z"/><path class="cls-2" d="M32.74,68.45c-.47,0,.55.63-13.64-9.58a1,1,0,0,1-.23-1.39A3.89,3.89,0,0,0,18,52a1,1,0,0,1-.23-1.39L45.68,11.82a1,1,0,0,1,1.39-.23,3.9,3.9,0,0,0,5.44-.88,1,1,0,0,1,1.39-.23L67,19.87a1,1,0,0,1,.23,1.39,3.89,3.89,0,0,0,.89,5.44,1,1,0,0,1,.23,1.4L40.38,66.92a1,1,0,0,1-1.39.23,3.89,3.89,0,0,0-5.44.89A1,1,0,0,1,32.74,68.45ZM21,57.79l11.57,8.32A5.9,5.9,0,0,1,39.29,65L66.15,27.67A5.88,5.88,0,0,1,65.05,21L53.48,12.63a5.9,5.9,0,0,1-6.71,1.1L19.91,51.07A5.9,5.9,0,0,1,21,57.79Z"/><path class="cls-3" d="M83.65,50.64,32.31,88.84a3,3,0,0,1-4.23-.62L8.83,62.34a3,3,0,0,1,.62-4.22l51.34-38.2a3,3,0,0,1,4.22.62C77.91,37.88,75.48,34.6,84.27,46.41A3,3,0,0,1,83.65,50.64Z"/><path class="cls-4" d="M29.52,85.13,12.2,61.85a1.63,1.63,0,0,1,.33-2.27L61.28,23.29a1.63,1.63,0,0,1,2.27.33L80.89,46.9a1.62,1.62,0,0,1-.33,2.27L31.81,85.47Z"/><path class="cls-5" d="M73.45,50.48,35.09,79a4.89,4.89,0,0,0-6.85-1l-9.6-12.91a4.91,4.91,0,0,0,1-6.85L58,29.72a4.9,4.9,0,0,0,6.85,1l9.6,12.9A4.9,4.9,0,0,0,73.45,50.48Z"/><path class="cls-6" d="M81.58,52.18l-43,32L22.78,89A3,3,0,0,1,19,87c-9-29.54-8.73-28.5-9.44-30.84a3,3,0,0,1,1.95-3.75c.1-.1,10.66-3.27,60.05-18.39a4.26,4.26,0,0,1,5.32,2.82Z"/><path class="cls-2" d="M27.31,88.82,8.05,62.94a4,4,0,0,1,.83-5.63l51.34-38.2a4,4,0,0,1,5.62.83L85.1,45.82a4,4,0,0,1-.83,5.62c0,.1,1.93-1.44-51.34,38.2A4,4,0,0,1,27.31,88.82Zm34.1-68.1L10.07,58.92a2,2,0,0,0-.41,2.83L28.91,87.62a2,2,0,0,0,2.83.42c51.71-38.48,51.34-38.3,51.34-38.2A2,2,0,0,0,83.49,47L64.24,21.13A2,2,0,0,0,61.41,20.72ZM83.67,50.64h0Z"/><path class="cls-2" d="M35.12,80a1,1,0,0,1-.81-.4,3.89,3.89,0,0,0-5.45-.8,1,1,0,0,1-1.4-.21l-9.6-12.9a1,1,0,0,1,.21-1.4,3.9,3.9,0,0,0,.8-5.45,1,1,0,0,1,.2-1.4L57.44,28.92a1,1,0,0,1,1.4.21,3.9,3.9,0,0,0,5.45.8,1,1,0,0,1,1.4.2L75.29,43a1,1,0,0,1-.21,1.4,3.9,3.9,0,0,0-.8,5.45,1,1,0,0,1-.2,1.4C33.08,81.79,35.63,80,35.12,80Zm.13-2.35,36.9-27.45a5.91,5.91,0,0,1,1-6.73L64.63,32.06a5.89,5.89,0,0,1-6.73-1L21,58.53a5.88,5.88,0,0,1-1,6.73l8.51,11.43A5.89,5.89,0,0,1,35.25,77.68Z"/><path class="cls-3" d="M84.9,69.81a3,3,0,0,1-2.13,2.74L21.59,91.28a3,3,0,0,1-3.78-2L8.37,58.44a3,3,0,0,1,2-3.78L71.56,35.93a3,3,0,0,1,3.78,2C85.6,71.42,85,69.07,84.9,69.81Z"/><path class="cls-4" d="M20.21,86.85,11.72,59.11a1.62,1.62,0,0,1,1.07-2l58.1-17.81a1.63,1.63,0,0,1,2,1.08L81.43,68.1a1.61,1.61,0,0,1-1.07,2L22.25,87.94Z"/><path class="cls-5" d="M21.38,79.73l-4.7-15.38a4.89,4.89,0,0,0,3.24-6.11l45.73-14a4.89,4.89,0,0,0,6.12,3.24l4.7,15.38A4.89,4.89,0,0,0,73.23,69L27.5,83A4.9,4.9,0,0,0,21.38,79.73Z"/><path class="cls-6" d="M84.9,69.81c-.61.48,3.47-.87-62.12,19.22A3,3,0,0,1,19,87L9.57,56.18a3,3,0,0,1,1.95-3.75L48,74.3,80.52,54.84C85.12,69.87,85,69.09,84.9,69.81Z"/><circle class="cls-3" cx="46.58" cy="63.61" r="6.12"/><path class="cls-6" d="M46.57,66.73a3.12,3.12,0,0,1-.91-6.11,3.12,3.12,0,1,1,.91,6.11Z"/><path class="cls-2" d="M20.74,92.41a4,4,0,0,1-3.85-2.84L7.45,58.73a4,4,0,0,1,2.66-5L71.3,35a4,4,0,0,1,5,2.67l9.45,30.84a4,4,0,0,1-2.67,5C17.71,93.52,21.63,92.41,20.74,92.41ZM72.48,36.8c-.47,0,3.57-1.19-61.78,18.82a2,2,0,0,0-1.34,2.52L18.8,89a2,2,0,0,0,2.53,1.34C85.1,70.8,82.41,71.59,82.51,71.59a2,2,0,0,0,1.34-2.52L74.41,38.23A2,2,0,0,0,72.48,36.8Z"/><path class="cls-2" d="M27.53,84a1,1,0,0,1-1-.71,3.9,3.9,0,0,0-4.86-2.59A1,1,0,0,1,20.46,80L15.75,64.64a1,1,0,0,1,.67-1.25A3.89,3.89,0,0,0,19,58.53a1,1,0,0,1,.66-1.25l45.73-14a1,1,0,0,1,1.25.66,3.9,3.9,0,0,0,4.86,2.59,1,1,0,0,1,1.25.66l4.71,15.38a1,1,0,0,1-.66,1.25,3.89,3.89,0,0,0-2.59,4.86,1,1,0,0,1-.66,1.25C24.59,84.92,27.76,84,27.53,84Zm.58-2.23,44-13.46a5.9,5.9,0,0,1,3.19-6L71.11,48.65a5.88,5.88,0,0,1-6-3.19l-44,13.46a5.89,5.89,0,0,1-3.19,6L22.1,78.56A5.9,5.9,0,0,1,28.11,81.75Z"/><path class="cls-2" d="M46.6,70.73a7.13,7.13,0,1,1,6.82-9.21h0A7.14,7.14,0,0,1,46.6,70.73Zm0-12.25a5.12,5.12,0,1,0,4.91,3.63A5.13,5.13,0,0,0,46.6,58.48Z"/><path class="cls-2" d="M58.33,61a1,1,0,0,1-.3-2l3.28-1A1,1,0,1,1,61.9,60C58.34,61.06,58.54,61,58.33,61Z"/><path class="cls-7" d="M87.76,52.82V90.75A4.24,4.24,0,0,1,83.51,95h-71a4.25,4.25,0,0,1-4.25-4.25V52.82L48,76.63Z"/><path class="cls-8" d="M8.24,90.79v-38l3.36,2v36Z"/><path class="cls-8" d="M87.78,90.79v-38l-3.36,2v36Z"/><path class="cls-8" d="M87.76,90.75A4.24,4.24,0,0,1,83.51,95h-71a4.25,4.25,0,0,1-4.25-4.25L32,67l16,9.6L64,67Z"/><path class="cls-7" d="M86.52,93.76a4.29,4.29,0,0,1-3,1.24h-71a4.29,4.29,0,0,1-3-1.24L34.62,68.62l13.38,8,13.38-8Z"/><path class="cls-9" d="M27,84.76l7.22-7.22a2.48,2.48,0,0,1,3-.38l9.52,5.7a2.46,2.46,0,0,0,2.54,0l9.52-5.7a2.48,2.48,0,0,1,3,.38L69,84.76A2.48,2.48,0,0,1,67.29,89H28.71A2.48,2.48,0,0,1,27,84.76Z"/><path class="cls-2" d="M83.51,96h-71a5.24,5.24,0,0,1-5.25-5.25V52.83A1,1,0,0,1,8.75,52L48,75.46,87.25,52a1,1,0,0,1,1.51.86V90.75A5.24,5.24,0,0,1,83.51,96ZM9.24,54.59V90.75A3.24,3.24,0,0,0,12.49,94h71a3.24,3.24,0,0,0,3.25-3.25V54.59L48.51,77.49a1,1,0,0,1-1,0Z"/><path class="cls-2" d="M83.51,96h-71a5.25,5.25,0,0,1-3.71-1.53,1,1,0,0,1,0-1.42L33.91,67.91a1,1,0,0,1,1.22-.15L48,75.46l12.87-7.7a1,1,0,0,1,1.22.15L87.23,93.05a1,1,0,0,1,0,1.42A5.25,5.25,0,0,1,83.51,96ZM11,93.64c1,.53-3.34.36,72.5.36A3.14,3.14,0,0,0,85,93.64L61.23,69.88,48.51,77.49a1,1,0,0,1-1,0L34.77,69.88Z"/></g></svg>