<svg xmlns="http://www.w3.org/2000/svg" viewBox="0 0 96 96"><defs><style>.cls-1{fill:#ffa64d;}.cls-2{fill:#ffca6e;}.cls-3{fill:#fff;}.cls-4{fill:#dc6941;}.cls-5{fill:#f0824b;}.cls-6{fill:#e6a779;}.cls-7{fill:#ffc088;}.cls-8{fill:#fe4a55;}.cls-9{fill:#ff736e;}.cls-10{fill:#3c3264;}.cls-11{fill:#46417d;}.cls-12{fill:#ff834d;}.cls-13{fill:#ff6f39;}.cls-14{fill:#87b5e3;}.cls-15{fill:#e6ecf2;}.cls-16{fill:#4d6dc7;}.cls-17{fill:#4359bd;}.cls-18{fill:#84aeea;}.cls-19{fill:#5c86c7;}.cls-20{fill:#aacef0;}.cls-21{fill:#302d3d;}</style></defs><title>Stationery</title><g id="Stationery"><path class="cls-1" d="M90.59,21.17,19.75,92A1.76,1.76,0,0,0,21,95H91.83a1.75,1.75,0,0,0,1.75-1.76V22.41A1.75,1.75,0,0,0,90.59,21.17ZM82.14,83.56H44.38L82.14,45.8Z"/><path class="cls-2" d="M21.86,89.89H86.72a1.75,1.75,0,0,0,1.75-1.76V23.29Zm60.28-6.33H44.38L82.14,45.8Z"/><rect class="cls-3" x="32.37" y="58.61" width="54.83" height="4.27" rx="0.84" transform="translate(-25.44 60.06) rotate(-45)"/><rect class="cls-4" x="53.75" y="83.56" width="19.02" height="11.44"/><rect class="cls-5" x="59.78" y="83.56" width="6.96" height="11.44"/><rect class="cls-3" x="61.52" y="85.05" width="3.48" height="8.46" rx="0.55"/><polygon class="cls-6" points="43.5 59.6 40.58 62.52 38.81 62.74 31.84 55.77 32.06 54.01 34.99 51.08 43.5 59.6"/><polygon class="cls-7" points="39.96 56.06 37.04 58.98 35.27 59.2 31.84 55.77 32.06 54.01 34.99 51.08 39.96 56.06"/><path class="cls-8" d="M89.86,13.24l-7.59,7.59-8.51-8.52,7.58-7.58a2.11,2.11,0,0,1,3,0l5.53,5.53A2.11,2.11,0,0,1,89.86,13.24Z"/><path class="cls-9" d="M87.49,10.87,79.9,18.46l-6.14-6.15,7.58-7.58a2.11,2.11,0,0,1,3,0l3.16,3.16A2.11,2.11,0,0,1,87.49,10.87Z"/><polygon class="cls-10" points="31.84 55.77 30.84 63.75 38.81 62.74 31.84 55.77"/><polygon class="cls-11" points="31.84 55.77 31.02 62.28 37.48 61.41 31.84 55.77"/><rect class="cls-2" x="31.22" y="29.93" width="54.83" height="12.04" transform="translate(-8.25 51.99) rotate(-45)"/><rect class="cls-1" x="32.19" y="32.27" width="54.83" height="9.31" transform="translate(-8.65 52.96) rotate(-45)"/><rect class="cls-12" x="33.35" y="35.07" width="54.83" height="6.02" transform="translate(-9.13 54.12) rotate(-45)"/><rect class="cls-13" x="34.58" y="38.05" width="54.83" height="2.53" transform="translate(-9.64 55.35) rotate(-45)"/><rect class="cls-11" x="77.19" y="8.57" width="5.6" height="12.04" transform="translate(13.11 60.84) rotate(-45)"/><path class="cls-14" d="M17.92,71.69v4.14H3.75V67.58a2.33,2.33,0,0,1,2.33-2.33h5.39a3.45,3.45,0,0,1,2.47,1c1.84,1.83,1.16,1.15,3,3A3.5,3.5,0,0,1,17.92,71.69Z"/><path class="cls-15" d="M14.94,71.69v4.14H3.75V67.58a2.33,2.33,0,0,1,2.33-2.33H8.49a3.44,3.44,0,0,1,2.47,1c1.85,1.83,1.17,1.15,3,3A3.53,3.53,0,0,1,14.94,71.69Z"/><path class="cls-3" d="M5.75,71.22V68.7A1.45,1.45,0,0,1,7.2,67.25c.71,0,1.12-.07,1.52.33,1.46,1.45,2.08,2.08,2,2a2.35,2.35,0,0,1,.68,1.67,1.19,1.19,0,0,1-1.18,1.19H6.94A1.19,1.19,0,0,1,5.75,71.22Z"/><path class="cls-1" d="M17.92,75.83V87.25A1.71,1.71,0,0,1,16.21,89H5.46a1.71,1.71,0,0,1-1.71-1.7V75.83Z"/><path class="cls-2" d="M14.9,75.83v8.4a1.71,1.71,0,0,1-1.71,1.7H3.75V75.83Z"/><polygon class="cls-16" points="63.26 1.14 62.03 10.88 53.51 2.36 63.26 1.14"/><polygon class="cls-17" points="63.26 1.14 62.03 10.88 59.39 8.24 60.25 1.52 63.26 1.14"/><rect class="cls-16" x="6.91" y="46.09" width="10.75" height="12.04" transform="translate(-33.27 23.97) rotate(-45.03)"/><rect class="cls-18" x="7.44" y="21.45" width="58.96" height="12.04" transform="translate(82.46 20.78) rotate(135)"/><polygon class="cls-17" points="17.6 49.84 20.34 52.57 12.74 60.17 10 57.44 17.6 49.84"/><rect class="cls-16" x="11.3" y="44.27" width="5.6" height="12.04" transform="translate(59.63 75.89) rotate(135)"/><rect class="cls-19" x="9.93" y="44.84" width="5.6" height="8.17" transform="translate(-30.87 23.33) rotate(-45)"/><rect class="cls-18" x="7.44" y="21.45" width="58.96" height="12.04" transform="translate(82.46 20.78) rotate(135)"/><rect class="cls-19" x="10.38" y="28.54" width="58.96" height="3.74" transform="translate(89.55 23.72) rotate(135)"/><rect class="cls-10" x="13.93" y="46.2" width="27.38" height="4.43" transform="translate(81.4 63.12) rotate(135)"/><rect class="cls-11" x="2.83" y="55.25" width="8.09" height="4.53" transform="translate(-28.93 103.05) rotate(-135)"/><rect class="cls-10" x="6.69" y="56.85" width="3.57" height="4.53" transform="translate(-27.33 106.91) rotate(-135)"/><path class="cls-20" d="M36.44,3.88h4.19a0,0,0,0,1,0,0V41.15a0,0,0,0,1,0,0H36.44a1.83,1.83,0,0,1-1.83-1.83V5.71a1.83,1.83,0,0,1,1.83-1.83Z" transform="translate(48.3 65.04) rotate(-135)"/><rect class="cls-3" x="36.48" y="10.67" width="2.28" height="23.7" rx="0.64" transform="translate(48.3 65.04) rotate(-135)"/><path class="cls-21" d="M91.82,96H21A2.76,2.76,0,0,1,19,91.29L89.87,20.46a2.75,2.75,0,0,1,4.7,1.95V93.24A2.76,2.76,0,0,1,91.82,96Zm0-74.35c-.44,0,4.78-5.07-71.35,71.06A.76.76,0,0,0,21,94H91.82a.75.75,0,0,0,.75-.76V22.41A.75.75,0,0,0,91.8,21.65Z"/><path class="cls-21" d="M82.13,84.56H44.37a1,1,0,0,1-.71-1.71L81.42,45.09a1,1,0,0,1,1.71.71V83.56A1,1,0,0,1,82.13,84.56Zm-35.35-2H81.13V48.21Z"/><path class="cls-21" d="M30.13,87.36c-.55,0-.52-.11-3.08-2.67a1,1,0,0,1,1.41-1.41l2.38,2.37A1,1,0,0,1,30.13,87.36Z"/><path class="cls-21" d="M35.11,82.38c-.55,0-.52-.11-3.08-2.67a1,1,0,0,1,0-1.41,1,1,0,0,1,1.42,0l2.37,2.37A1,1,0,0,1,35.11,82.38Z"/><path class="cls-21" d="M40.1,77.4c-.56,0-.53-.11-3.08-2.67a1,1,0,0,1,0-1.41,1,1,0,0,1,1.41,0l2.37,2.37A1,1,0,0,1,40.1,77.4Z"/><path class="cls-21" d="M47.45,74.79a1,1,0,0,1-.7-.29L42,69.75a1,1,0,0,1,0-1.42,1,1,0,0,1,1.41,0l4.75,4.75A1,1,0,0,1,47.45,74.79Z"/><path class="cls-21" d="M50.06,67.43c-.55,0-.52-.11-3.08-2.66a1,1,0,0,1,0-1.42,1,1,0,0,1,1.41,0l2.38,2.38A1,1,0,0,1,50.06,67.43Z"/><path class="cls-21" d="M55,62.45c-.55,0-.52-.11-3.08-2.67a1,1,0,0,1,0-1.41,1,1,0,0,1,1.42,0l2.37,2.37A1,1,0,0,1,55,62.45Z"/><path class="cls-21" d="M60,57.47c-.55,0-.52-.11-3.08-2.67a1,1,0,0,1,0-1.41,1,1,0,0,1,1.42,0l2.37,2.37A1,1,0,0,1,60,57.47Z"/><path class="cls-21" d="M67.38,54.86a1,1,0,0,1-.71-.29l-4.74-4.75a1,1,0,0,1,0-1.42,1,1,0,0,1,1.41,0l4.75,4.75A1,1,0,0,1,67.38,54.86Z"/><path class="cls-21" d="M70,47.5c-.55,0-.52-.11-3.08-2.66a1,1,0,0,1,0-1.42,1,1,0,0,1,1.41,0L70.7,45.8A1,1,0,0,1,70,47.5Z"/><path class="cls-21" d="M75,42.52c-.55,0-.52-.11-3.08-2.67a1,1,0,1,1,1.41-1.41l2.38,2.37A1,1,0,0,1,75,42.52Z"/><path class="cls-21" d="M80,37.54c-.55,0-.52-.11-3.08-2.67a1,1,0,0,1,0-1.41,1,1,0,0,1,1.42,0l2.37,2.37A1,1,0,0,1,80,37.54Z"/><path class="cls-21" d="M87.31,34.93a1,1,0,0,1-.71-.29l-4.75-4.75a1,1,0,0,1,0-1.41,1,1,0,0,1,1.42,0L88,33.22A1,1,0,0,1,87.31,34.93Z"/><path class="cls-21" d="M93.57,89.3H88a1,1,0,0,1,0-2h5.57a1,1,0,0,1,0,2Z"/><path class="cls-21" d="M93.57,83.38H89.94a1,1,0,0,1,0-2h3.63a1,1,0,0,1,0,2Z"/><path class="cls-21" d="M93.57,77.45H89.94a1,1,0,0,1,0-2h3.63a1,1,0,0,1,0,2Z"/><path class="cls-21" d="M93.57,71.52H89.94a1,1,0,0,1,0-2h3.63a1,1,0,0,1,0,2Z"/><path class="cls-21" d="M93.57,65.6H88a1,1,0,0,1,0-2h5.57a1,1,0,1,1,0,2Z"/><path class="cls-21" d="M93.57,59.67H89.94a1,1,0,0,1,0-2h3.63a1,1,0,0,1,0,2Z"/><path class="cls-21" d="M93.57,53.75H89.94a1,1,0,0,1,0-2h3.63a1,1,0,0,1,0,2Z"/><path class="cls-21" d="M93.57,47.82H89.94a1,1,0,0,1,0-2h3.63a1,1,0,0,1,0,2Z"/><path class="cls-21" d="M93.57,41.9H88a1,1,0,0,1,0-2h5.57a1,1,0,0,1,0,2Z"/><path class="cls-21" d="M72.76,96h-19a1,1,0,0,1-1-1V83.56a1,1,0,0,1,1-1h19a1,1,0,0,1,1,1V95A1,1,0,0,1,72.76,96Zm-18-2h17V84.56h-17Z"/><path class="cls-21" d="M66.73,96h-7a1,1,0,0,1-1-1V83.56a1,1,0,0,1,1-1h7a1,1,0,0,1,1,1V95A1,1,0,0,1,66.73,96Zm-6-2h5V84.56h-5Z"/><path class="cls-21" d="M29.83,63.62c1.33-10.55,1.17-10,1.52-10.32L80.63,4A3.18,3.18,0,0,1,85,4l5.53,5.53a3.12,3.12,0,0,1,0,4.4L41.28,63.23c-.35.35.14.19-10.33,1.51A1,1,0,0,1,29.83,63.62ZM33,54.47,32,62.6l8.12-1,49-49a1.11,1.11,0,0,0,0-1.57L83.61,5.43a1.12,1.12,0,0,0-1.57,0Z"/><path class="cls-21" d="M30.83,64.75a1,1,0,0,1-1-1.13l1-8a1,1,0,0,1,1.7-.58l7,7a1,1,0,0,1-.58,1.7C30.4,64.81,30.92,64.75,30.83,64.75Zm1.74-6.83L32,62.6,36.65,62Z"/><path class="cls-21" d="M43.49,60.6a1,1,0,0,1-.7-.3l-8.52-8.51a1,1,0,0,1,0-1.42L73,11.61a1,1,0,0,1,1.41,0L83,20.12a1,1,0,0,1,0,1.41C41.58,62.92,44.14,60.6,43.49,60.6Zm-7.1-9.52,7.1,7.1L80.85,20.83l-7.1-7.1Z"/><path class="cls-21" d="M81.56,21.53,73,13a1,1,0,0,1,0-1.41l4-4a1,1,0,0,1,1.41,0l8.52,8.51a1,1,0,0,1,0,1.41l-4,4A1,1,0,0,1,81.56,21.53Zm-6.4-9.22,7.1,7.1,2.55-2.54-7.1-7.1Z"/><path class="cls-21" d="M39.24,56.34a1,1,0,0,1-.71-1.71L77.3,15.86a1,1,0,0,1,1.41,0,1,1,0,0,1,0,1.42C37.33,58.66,39.88,56.34,39.24,56.34Z"/><path class="cls-21" d="M16.2,90H5.45a2.71,2.71,0,0,1-2.71-2.7V67.58a3.34,3.34,0,0,1,3.33-3.33h5.39a4.46,4.46,0,0,1,3.18,1.31l2.95,3a4.47,4.47,0,0,1,1.32,3.18V87.25A2.71,2.71,0,0,1,16.2,90ZM6.07,66.25a1.33,1.33,0,0,0-1.33,1.33V87.25a.7.7,0,0,0,.71.7H16.2a.7.7,0,0,0,.71-.7V71.69a2.48,2.48,0,0,0-.73-1.76l-2.95-3a2.51,2.51,0,0,0-1.77-.73Z"/><path class="cls-21" d="M16.2,90H5.45a2.71,2.71,0,0,1-2.71-2.7V75.83a1,1,0,0,1,1-1H17.91a1,1,0,0,1,1,1V87.25A2.71,2.71,0,0,1,16.2,90ZM4.74,76.83V87.25a.7.7,0,0,0,.71.7H16.2a.7.7,0,0,0,.71-.7V76.83Z"/><path class="cls-21" d="M12.73,61.17a1,1,0,0,1-.71-.29L3.5,52.36A1,1,0,0,1,3.5,51L52.8,1.66c.34-.35-.15-.2,10.32-1.52a1,1,0,0,1,1.12,1.12c-1.33,10.55-1.17,10-1.51,10.33C9.33,65,13.36,61.17,12.73,61.17Zm-7.1-9.51,7.1,7.1L61.07,10.42l1-8.13L54,3.31ZM62,10.88h0Z"/><path class="cls-21" d="M19.62,53.28,11.1,44.76a1,1,0,0,1,0-1.41L52.8,1.66a1,1,0,0,1,1.41,0l8.52,8.51a1,1,0,0,1,.29.71c0,.63,2.59-2.18-42,42.4A1,1,0,0,1,19.62,53.28Zm-6.4-9.22,7.11,7.1L60.6,10.88l-7.1-7.1Z"/><path class="cls-21" d="M15.66,57.24,7.14,48.72a1,1,0,0,1,0-1.41l4-4a1,1,0,0,1,1.42,0L21,51.87a1,1,0,0,1,0,1.41l-4,4A1,1,0,0,1,15.66,57.24ZM9.27,48l7.1,7.1,2.54-2.55-7.1-7.1Z"/><path class="cls-21" d="M18.79,60.37l-3.13-3.13a1,1,0,0,1,0-1.41L35,36.46a1,1,0,0,1,1.42,0l3.13,3.14a1,1,0,0,1,0,1.41L20.21,60.37A1,1,0,0,1,18.79,60.37Zm-1-3.84,1.72,1.72,18-18-1.72-1.72Z"/><path class="cls-21" d="M7.42,62.69,1.7,57a1,1,0,0,1,0-1.41l3.2-3.2a1,1,0,0,1,1.42,0L12,58.07a1,1,0,0,1,0,1.41L8.83,62.69A1,1,0,0,1,7.42,62.69Zm-3.6-6.43,4.31,4.3,1.79-1.79-4.31-4.3Z"/><path class="cls-21" d="M24.56,37.24l-3-3a1,1,0,0,1,0-1.41L48,6.5a1,1,0,0,1,1.41,0l3,3a2.84,2.84,0,0,1,0,4L28.56,37.24A2.84,2.84,0,0,1,24.56,37.24Zm-.84-3.67L26,35.82a.83.83,0,0,0,1.18,0L50.91,12.06a.83.83,0,0,0,0-1.18L48.66,8.62Z"/></g></svg>