<svg xmlns="http://www.w3.org/2000/svg" viewBox="0 0 96 96"><defs><style>.cls-1{fill:#d2ddf2;}.cls-2{fill:#e6ecf2;}.cls-3{fill:#fff;}.cls-4{fill:#302d3d;}.cls-5{fill:#ffd9b5;}.cls-6{fill:#ffc088;}.cls-7{fill:#f09d65;}.cls-8{fill:#4d6dc7;}.cls-9{fill:#84aeea;}.cls-10{fill:#e61f34;}.cls-11{fill:#fe4a55;}.cls-12{fill:#3ab67d;}.cls-13{fill:#44cf87;}</style></defs><title>Strategy</title><g id="Strategy"><rect class="cls-1" x="6.19" y="7.52" width="83.62" height="66.6" rx="2.06"/><rect class="cls-2" x="19.7" y="4.01" width="56.6" height="73.62" transform="translate(88.82 -7.18) rotate(90)"/><rect class="cls-3" x="18.19" y="19.52" width="59.62" height="26.93" rx="1.46"/><rect class="cls-3" x="18.19" y="53.6" width="59.62" height="8.52" rx="1.46"/><path class="cls-4" d="M12.69,62.83a1,1,0,0,1-.71-1.7L35.56,37.54a1,1,0,0,1,1.42,0l7.5,7.5L63.11,26.42a1,1,0,0,1,1.41,0l7.75,7.75,3.29-3.29a1,1,0,0,1,1.42,0,1,1,0,0,1,0,1.41l-4,4a1,1,0,0,1-1.42,0l-7.75-7.75L45.19,47.17a1,1,0,0,1-1.42,0l-7.5-7.51L13.39,62.54A1,1,0,0,1,12.69,62.83Z"/><rect class="cls-5" x="42.13" y="1" width="11.75" height="6.52"/><rect class="cls-6" x="42.13" y="5.52" width="11.75" height="2"/><rect class="cls-6" x="20.72" y="74.12" width="54.55" height="5.62"/><rect class="cls-7" x="20.72" y="74.12" width="54.55" height="2"/><rect class="cls-5" x="28.57" y="76.12" width="38.85" height="3.62"/><path class="cls-3" d="M60.32,77.74H35.68a.81.81,0,0,1,0-1.62H60.32a.81.81,0,0,1,0,1.62Z"/><polygon class="cls-7" points="22.6 95 33.15 79.75 40.55 79.75 30 95 22.6 95"/><polygon class="cls-7" points="73.4 95 62.85 79.75 55.45 79.75 66 95 73.4 95"/><polygon class="cls-6" points="31.43 82.23 22.6 95 30 95 38.83 82.23 31.43 82.23"/><polygon class="cls-6" points="57.17 82.23 66 95 73.4 95 64.57 82.23 57.17 82.23"/><circle class="cls-8" cx="36.27" cy="38.25" r="3.56"/><circle class="cls-9" cx="36.27" cy="38.25" r="1.56"/><circle class="cls-10" cx="48" cy="60.17" r="3.56"/><circle class="cls-11" cx="48" cy="60.17" r="1.56"/><circle class="cls-12" cx="20.44" cy="20.44" r="3.56"/><circle class="cls-13" cx="20.44" cy="20.44" r="1.56"/><path class="cls-4" d="M87.75,75.12H8.25a3.06,3.06,0,0,1-3.06-3.06V9.58A3.06,3.06,0,0,1,8.25,6.52h79.5a3.06,3.06,0,0,1,3.06,3.06V72.06A3.06,3.06,0,0,1,87.75,75.12ZM8.25,8.52A1.07,1.07,0,0,0,7.19,9.58V72.06a1.07,1.07,0,0,0,1.06,1.06h79.5a1.07,1.07,0,0,0,1.06-1.06V9.58a1.07,1.07,0,0,0-1.06-1.06Z"/><path class="cls-4" d="M53.87,8.52H42.13a1,1,0,0,1-1-1V1a1,1,0,0,1,1-1H53.87a1,1,0,0,1,1,1V7.52A1,1,0,0,1,53.87,8.52Zm-10.74-2h9.74V2H43.13Z"/><path class="cls-4" d="M75.28,80.75H20.72a1,1,0,0,1-1-1V74.12a1,1,0,0,1,1-1H75.28a1,1,0,0,1,1,1v5.63A1,1,0,0,1,75.28,80.75Zm-53.56-2H74.28V75.12H21.72Z"/><path class="cls-4" d="M30,96H22.6a1,1,0,0,1-.82-1.57L32.33,79.18a1,1,0,0,1,.82-.43h7.4a1,1,0,0,1,.82,1.56L30.82,95.57A1,1,0,0,1,30,96Zm-5.49-2h5l9.16-13.25h-5Z"/><path class="cls-4" d="M73.4,96H66a1,1,0,0,1-.82-.43L54.63,80.31a1,1,0,0,1,.82-1.56h7.4a1,1,0,0,1,.82.43L74.22,94.43A1,1,0,0,1,73.4,96Zm-6.88-2h5L62.32,80.75h-5Z"/><path class="cls-4" d="M76.27,35.35a1,1,0,0,1-1-1V32.58H73.5a1,1,0,0,1,0-2h2.77a1,1,0,0,1,1,1v2.77A1,1,0,0,1,76.27,35.35Z"/><path class="cls-4" d="M34.19,59.81a1,1,0,0,1-.71-.29l-3.62-3.63a1,1,0,0,1,0-1.41,1,1,0,0,1,1.41,0l3.62,3.63A1,1,0,0,1,34.19,59.81Z"/><path class="cls-4" d="M30.56,59.81a1,1,0,0,1-.7-1.7l3.62-3.63a1,1,0,0,1,1.41,0,1,1,0,0,1,0,1.41l-3.62,3.63A1,1,0,0,1,30.56,59.81Z"/><path class="cls-4" d="M51.62,24.31a1,1,0,0,1-.7-.29l-3.63-3.63a1,1,0,0,1,0-1.41,1,1,0,0,1,1.42,0l3.62,3.63A1,1,0,0,1,51.62,24.31Z"/><path class="cls-4" d="M48,24.31a1,1,0,0,1-.71-1.7L50.92,19a1,1,0,0,1,1.41,1.41L48.71,24A1,1,0,0,1,48,24.31Z"/><path class="cls-4" d="M65.19,52.62a1,1,0,0,1-.71-.29l-3.62-3.62a1,1,0,1,1,1.41-1.42l3.62,3.63A1,1,0,0,1,65.19,52.62Z"/><path class="cls-4" d="M61.56,52.62a1,1,0,0,1-.7-1.7l3.62-3.63a1,1,0,1,1,1.41,1.42l-3.62,3.62A1,1,0,0,1,61.56,52.62Z"/><path class="cls-4" d="M36.27,42.81a4.56,4.56,0,1,1,4.56-4.56A4.56,4.56,0,0,1,36.27,42.81Zm0-7.12a2.56,2.56,0,1,0,2.56,2.56A2.56,2.56,0,0,0,36.27,35.69Z"/><path class="cls-4" d="M48,64.73a4.57,4.57,0,1,1,4.56-4.56A4.56,4.56,0,0,1,48,64.73Zm0-7.13a2.57,2.57,0,1,0,2.56,2.57A2.57,2.57,0,0,0,48,57.6Z"/><path class="cls-4" d="M20.44,25A4.56,4.56,0,1,1,25,20.44,4.56,4.56,0,0,1,20.44,25Zm0-7.12A2.56,2.56,0,1,0,23,20.44,2.55,2.55,0,0,0,20.44,17.88Z"/></g></svg>