<svg xmlns="http://www.w3.org/2000/svg" viewBox="0 0 96 96"><defs><style>.cls-1{fill:#ffc541;}.cls-2{fill:#fff;}.cls-3{fill:#ffa64d;}.cls-4{fill:#ffe391;}.cls-5{fill:#dee2e6;}.cls-6{fill:#302d3d;}.cls-7{fill:#e9ecef;}.cls-8{fill:#f8f9fa;}.cls-9{fill:#fe4a55;}.cls-10{fill:#ff736e;}.cls-11{fill:#ffa68d;}.cls-12{fill:#fb8d74;}.cls-13{fill:#3f3c6a;}.cls-14{fill:#302856;}.cls-15{fill:#4e5088;}.cls-16{fill:#4e5fba;}.cls-17{fill:#fbc4ab;}</style></defs><title>Target</title><g id="Target"><circle class="cls-1" cx="48.17" cy="48.17" r="43.08"/><path class="cls-2" d="M48.17,83.8A35.63,35.63,0,1,1,83.8,48.17,35.66,35.66,0,0,1,48.17,83.8Z"/><path class="cls-3" d="M82.54,58.2a35.81,35.81,0,0,1-21.9,23.41,3.7,3.7,0,0,0,2.54,7A43.17,43.17,0,0,0,89.55,60.15,3.63,3.63,0,0,0,86,55.55,3.67,3.67,0,0,0,82.54,58.2Z"/><path class="cls-4" d="M13.8,38.15A35.81,35.81,0,0,1,35.71,14.74a3.64,3.64,0,0,0,2.4-3.42,3.65,3.65,0,0,0-4.94-3.53A43.21,43.21,0,0,0,6.79,36.2a3.64,3.64,0,0,0,7,1.95Z"/><path class="cls-5" d="M70.28,76.23a35.86,35.86,0,0,1-44.21,0L28,70.37a6.84,6.84,0,0,1,5.19-4.58L43,63.87H53.35l9.82,1.92a6.84,6.84,0,0,1,5.19,4.58Z"/><path class="cls-6" d="M25.47,77a1,1,0,0,1-.34-1.1l1.92-5.85A7.88,7.88,0,0,1,33,64.8l9.82-1.91c.15,0-.5,0,10.54,0,.15,0-.63-.15,10,1.92a7.87,7.87,0,0,1,5.95,5.26l1.92,5.85a1,1,0,0,1-.33,1.1A36.84,36.84,0,0,1,25.47,77Zm1.78-1.15a34.83,34.83,0,0,0,41.87,0l-1.7-5.17A5.85,5.85,0,0,0,63,66.77l-9.72-1.89H43.11l-9.73,1.89A5.87,5.87,0,0,0,29,70.69Z"/><path class="cls-7" d="M67.63,78.11a35.86,35.86,0,0,1-39,0l2.18-6.77a3.86,3.86,0,0,1,2.92-2.58l9.53-1.85h9.77l9.54,1.85a3.86,3.86,0,0,1,2.91,2.58Z"/><path class="cls-8" d="M61,81.48a35.78,35.78,0,0,1-25.67,0L37,76a2.5,2.5,0,0,1,1.88-1.66,43.06,43.06,0,0,1,9.26-1.19,42.55,42.55,0,0,1,9.26,1.19A2.5,2.5,0,0,1,59.3,76Z"/><path class="cls-8" d="M48.17,69.7l-4.71,2.35-1.92-5.31A1.69,1.69,0,0,1,41.92,65L43,63.87Z"/><path class="cls-8" d="M48.17,69.7l4.72,2.35,1.92-5.31A1.69,1.69,0,0,0,54.43,65l-1.08-1.12Z"/><polygon class="cls-9" points="50.35 74.41 46 74.41 44.99 71.28 48.17 69.7 51.36 71.28 50.35 74.41"/><path class="cls-9" d="M52.18,83.62a34.07,34.07,0,0,1-8,0L46,74.42h4.35Z"/><path class="cls-10" d="M50.18,83.8a33.53,33.53,0,0,1-4,0l1.15-9.38H49Z"/><polygon class="cls-11" points="53.35 56.4 53.35 63.87 48.17 69.7 43 63.87 43 56.4 53.35 56.4"/><path class="cls-12" d="M53.35,56.4v5.23a16.79,16.79,0,0,1-10.35,0V56.4Z"/><path class="cls-6" d="M47.44,70.36c-5.53-6.23-5.43-6-5.43-6.49V56.4a1,1,0,0,1,1-1H53.36a1,1,0,0,1,1,1c0,8.05.1,7.74-.25,8.13l-5.17,5.83A1,1,0,0,1,47.44,70.36ZM44,63.49l4.18,4.7,4.17-4.7V57.4H44Zm9.35.38h0Z"/><path class="cls-13" d="M50,21.26H33.47a13.83,13.83,0,0,0,2.75,4.43,13.78,13.78,0,0,0-3.73,9.44v6.15H63.87V35.13A13.87,13.87,0,0,0,50,21.26Z"/><rect class="cls-14" x="32.49" y="36.28" width="31.38" height="5.01"/><path class="cls-15" d="M52.74,28.08H42.9a5.09,5.09,0,0,1-4-2l-1.11-1.43a.93.93,0,0,1,.74-1.5c12.33,0,12.73-.16,14.95.51A2.26,2.26,0,0,1,52.74,28.08Z"/><rect class="cls-16" x="44.25" y="23.16" width="5.77" height="1.86" rx="0.93"/><path class="cls-6" d="M63.89,42.3H32.49a1,1,0,0,1-1-1V35.14a14.78,14.78,0,0,1,3.4-9.45,14.93,14.93,0,0,1-2.36-4.07,1,1,0,0,1,.93-1.36H50A14.9,14.9,0,0,1,64.89,35.14V41.3A1,1,0,0,1,63.89,42.3Zm-30.4-2h29.4V35.14A12.9,12.9,0,0,0,50,22.26H35A12.79,12.79,0,0,0,37,25a1,1,0,0,1,0,1.36,12.84,12.84,0,0,0-3.46,8.77Z"/><path class="cls-11" d="M66.69,44.23a2.94,2.94,0,0,1-2.94,2.94H32.62a2.94,2.94,0,1,1,0-5.88H63.75A2.94,2.94,0,0,1,66.69,44.23Z"/><path class="cls-12" d="M63.48,41.29c0,4,0,4.85-.07,5.88H33c-.09-.89-.07-1-.07-5.88Z"/><path class="cls-6" d="M63.77,48.19H32.61a3.95,3.95,0,1,1,0-7.89H63.77a3.95,3.95,0,0,1,0,7.89ZM32.61,42.3a1.95,1.95,0,1,0,0,3.89H63.77a1.95,1.95,0,0,0,0-3.89Z"/><path class="cls-17" d="M61.87,41.28v4.46a13.69,13.69,0,1,1-27.38,0V41.28L37,38.06a5.13,5.13,0,0,0,1.08-3l.15-4A1.71,1.71,0,0,1,40,29.44a64.23,64.23,0,0,0,16.21,0,1.71,1.71,0,0,1,1.93,1.63l.15,4a5.13,5.13,0,0,0,1.08,3Z"/><path class="cls-6" d="M48.19,92.25A44.08,44.08,0,1,1,92.26,48.17,44.12,44.12,0,0,1,48.19,92.25Zm0-86.15A42.08,42.08,0,1,0,90.26,48.17,42.12,42.12,0,0,0,48.19,6.1Z"/><path class="cls-6" d="M33.35,81.65a1,1,0,0,1-1-1.26l1.1-4.09a1,1,0,0,1,1.23-.71,1,1,0,0,1,.7,1.23l-1.09,4.09A1,1,0,0,1,33.35,81.65Z"/><path class="cls-6" d="M63,81.65a1,1,0,0,1-1-.74L61,76.82a1,1,0,1,1,1.93-.52L64,80.39A1,1,0,0,1,63,81.65Z"/><path class="cls-6" d="M43.47,73.05a1,1,0,0,1-.94-.66l-1.92-5.31a2.71,2.71,0,0,1,.6-2.78c1.13-1.18,1.25-1.42,1.82-1.43a1,1,0,0,1,.73.34L48.94,69a1,1,0,0,1-.31,1.56C43.52,73.14,43.8,73.05,43.47,73.05ZM43,65.34c-.32.34-.66.59-.48,1.06L44,70.65l2.54-1.26Z"/><path class="cls-6" d="M52.9,73.05c-.33,0-.08.07-5.16-2.46a1,1,0,0,1-.3-1.56l5.17-5.82a1,1,0,0,1,.73-.34c.53,0,.63.19,1.82,1.43a2.69,2.69,0,0,1,.6,2.78l-1.92,5.31A1,1,0,0,1,52.9,73.05Zm-3.1-3.66,2.54,1.26,1.54-4.25a.69.69,0,0,0-.15-.71l-.34-.35Z"/><path class="cls-6" d="M50.36,75.41H46a1,1,0,0,1-.95-.69l-1-3.13a1,1,0,0,1,.51-1.2l3.18-1.59a1,1,0,0,1,.89,0l3.19,1.59a1,1,0,0,1,.5,1.2l-1,3.13A1,1,0,0,1,50.36,75.41Zm-3.62-2h2.89l.53-1.61-2-1-2,1Z"/><path class="cls-6" d="M44.06,84.62a1,1,0,0,1-.86-1.19L45,74.22a1,1,0,0,1,1-.8h4.35a1,1,0,0,1,1,.8l1.83,9.21a1,1,0,0,1-.86,1.19A36.13,36.13,0,0,1,44.06,84.62Zm1.32-1.88a35.15,35.15,0,0,0,5.62,0l-1.46-7.32H46.83Z"/><path class="cls-6" d="M36.21,26.68A1,1,0,0,1,35.47,25a14.87,14.87,0,0,1,2.79-2.34,1,1,0,0,1,1.38.29,1,1,0,0,1-.29,1.39C37,25.86,37.07,26.68,36.21,26.68Z"/><path class="cls-6" d="M48.19,60.45a14.71,14.71,0,0,1-14.7-14.69V41.3c0-.46-.05-.29,2.75-3.85a4.11,4.11,0,0,0,.86-2.37l.15-4a2.72,2.72,0,0,1,3-2.59,62.62,62.62,0,0,0,15.78,0,2.71,2.71,0,0,1,3,2.59l.15,4a4.18,4.18,0,0,0,.87,2.38l2.53,3.22c.29.37.22.16.22,5.08A14.72,14.72,0,0,1,48.19,60.45ZM35.49,41.64v4.12a12.7,12.7,0,0,0,25.4,0V41.64l-2.32-3a6.15,6.15,0,0,1-1.3-3.54c-.16-4.3-.07-4.26-.4-4.53s-.45-.12-3,.09a63.71,63.71,0,0,1-13.82-.26.72.72,0,0,0-.81.69l-.15,4a6.14,6.14,0,0,1-1.29,3.54Z"/><path class="cls-6" d="M53.66,43a1,1,0,0,1-1-1v-.62a1,1,0,0,1,2,0V42A1,1,0,0,1,53.66,43Z"/><path class="cls-6" d="M55.05,39.64H52.26a1,1,0,0,1,0-2h2.79a1,1,0,0,1,0,2Z"/><path class="cls-6" d="M42.72,43a1,1,0,0,1-1-1v-.62a1,1,0,0,1,2,0V42A1,1,0,0,1,42.72,43Z"/><path class="cls-6" d="M44.11,39.64H41.32a1,1,0,0,1,0-2h2.79a1,1,0,0,1,0,2Z"/><path class="cls-6" d="M44.59,51.92a1,1,0,0,1,1.66-1.12,2.34,2.34,0,0,0,3.89,0,1,1,0,0,1,1.38-.28,1,1,0,0,1,.28,1.39A4.34,4.34,0,0,1,44.59,51.92Z"/><path class="cls-6" d="M55.05,33.89a1,1,0,0,1-1-.89l-.36-3.26a1,1,0,0,1,2-.22l.36,3.26A1,1,0,0,1,55.05,33.89Z"/><path class="cls-6" d="M48.18,84.85A36.85,36.85,0,1,1,85,48,36.85,36.85,0,0,1,48.18,84.85Zm0-71.7A34.85,34.85,0,1,0,83,48,34.89,34.89,0,0,0,48.18,13.15Z"/><path class="cls-6" d="M48.18,16.15a1,1,0,0,1-1-1V1a1,1,0,0,1,2,0V15.15A1,1,0,0,1,48.18,16.15Z"/><path class="cls-6" d="M48.18,96a1,1,0,0,1-1-1V80.85a1,1,0,0,1,2,0V95A1,1,0,0,1,48.18,96Z"/><path class="cls-6" d="M95.18,49H81a1,1,0,0,1,0-2H95.18a1,1,0,0,1,0,2Z"/><path class="cls-6" d="M15.33,49H1.18a1,1,0,0,1,0-2H15.33a1,1,0,0,1,0,2Z"/></g></svg>