<svg xmlns="http://www.w3.org/2000/svg" viewBox="0 0 96 96"><defs><style>.cls-1{fill:#6d7ea8;}.cls-2{fill:#302d3d;}.cls-3{fill:#3f3c6a;}.cls-4{fill:#302856;}.cls-5{fill:#dee2e6;}.cls-6{fill:#e9ecef;}.cls-7{fill:#f8f9fa;}.cls-8{fill:#ffa68d;}.cls-9{fill:#fb8d74;}.cls-10{fill:#fbc4ab;}.cls-11{fill:#4e5088;}.cls-12{fill:#4e5fba;}</style></defs><title>Team</title><g id="Team"><path class="cls-1" d="M49.88,72.37a10.48,10.48,0,0,0-8-7L35.5,64.08A1.85,1.85,0,0,1,34,62.26v-2.8a1.84,1.84,0,0,1,1-1.64,13.89,13.89,0,0,0,7.58-11h1.8A3.11,3.11,0,0,0,47.55,44a3,3,0,0,0-3-3.15H42.63a13.9,13.9,0,0,0-27.75,0H13.11A3.1,3.1,0,0,0,10,43.71a3,3,0,0,0,3,3.15h2a13.92,13.92,0,0,0,7.57,11,1.84,1.84,0,0,1,1,1.64v2.81A1.85,1.85,0,0,1,22,64.08l-5.36,1A12.34,12.34,0,0,0,7.28,73.4L3.78,84.08H53.72Z"/><path class="cls-2" d="M53.72,85.08H3.78a1,1,0,0,1-.95-1.32l3.5-10.67a13.35,13.35,0,0,1,10.12-8.94l5.36-1.05a.86.86,0,0,0,.69-.84V59.45A.85.85,0,0,0,22,58.7a14.82,14.82,0,0,1-8-10.84H12.94a4,4,0,1,1,.17-8H14a14.9,14.9,0,0,1,29.57,0h1a4,4,0,0,1,4,4.2,4.09,4.09,0,0,1-4.16,3.78h-.92a14.84,14.84,0,0,1-8,10.85.82.82,0,0,0-.46.75v2.8a.86.86,0,0,0,.69.84l6.43,1.26a11.48,11.48,0,0,1,8.71,7.7h0l3.84,11.7A1,1,0,0,1,53.72,85.08Zm-48.56-2H52.34l-3.41-10.4a9.5,9.5,0,0,0-7.19-6.36l-6.43-1.26A2.86,2.86,0,0,1,33,62.26v-2.8a2.81,2.81,0,0,1,1.56-2.53,12.85,12.85,0,0,0,7-10.17,1,1,0,0,1,1-.9h1.8A2,2,0,0,0,46,42.5a2,2,0,0,0-1.44-.62H42.63a1,1,0,0,1-1-.94,12.9,12.9,0,0,0-25.75,0,1,1,0,0,1-1,.94H13.11A2.1,2.1,0,0,0,11,43.76a2,2,0,0,0,2,2.1h2a1,1,0,0,1,1,.9,12.83,12.83,0,0,0,7,10.16,2.82,2.82,0,0,1,1.56,2.53v2.81a2.86,2.86,0,0,1-2.31,2.8l-5.36,1a11.34,11.34,0,0,0-8.6,7.6Z"/><path class="cls-1" d="M88.39,72.37a10.51,10.51,0,0,0-8-7L74,64.08a1.85,1.85,0,0,1-1.5-1.82v-2.8a1.84,1.84,0,0,1,1-1.64,13.93,13.93,0,0,0,7.59-11h1.79A3.1,3.1,0,0,0,86.05,44a3,3,0,0,0-3-3.15H81.13a13.89,13.89,0,0,0-27.74,0H51.61a3.11,3.11,0,0,0-3.16,2.83,3,3,0,0,0,3,3.15h2a13.91,13.91,0,0,0,7.58,11,1.85,1.85,0,0,1,1,1.64v2.81a1.85,1.85,0,0,1-1.5,1.82l-5.36,1a12.34,12.34,0,0,0-9.36,8.27l-3.5,10.68H92.22Z"/><path class="cls-2" d="M92.22,85.08H42.28a1,1,0,0,1-1-1.32l3.5-10.67A13.35,13.35,0,0,1,55,64.15l5.36-1.05a.86.86,0,0,0,.69-.84V59.45a.85.85,0,0,0-.46-.75,14.84,14.84,0,0,1-8-10.84H51.44a4,4,0,1,1,.17-8h.86a14.9,14.9,0,0,1,29.58,0h1a4,4,0,0,1,4,4.2,4.08,4.08,0,0,1-4.16,3.78H82a14.84,14.84,0,0,1-8,10.85.84.84,0,0,0-.46.75v2.8a.86.86,0,0,0,.7.84l6.42,1.26a11.51,11.51,0,0,1,8.72,7.7h0l3.83,11.7A1,1,0,0,1,92.22,85.08Zm-48.56-2H90.84l-3.4-10.4a9.51,9.51,0,0,0-7.2-6.36l-6.43-1.26a2.86,2.86,0,0,1-2.31-2.8v-2.8a2.81,2.81,0,0,1,1.56-2.53,12.85,12.85,0,0,0,7-10.17,1,1,0,0,1,1-.9h1.79a2,2,0,0,0,1.62-3.36,2,2,0,0,0-1.45-.62H81.13a1,1,0,0,1-1-.94,12.9,12.9,0,0,0-25.76,0,1,1,0,0,1-1,.94H51.61a2.11,2.11,0,0,0-2.16,1.88,2,2,0,0,0,2,2.1h2a1,1,0,0,1,1,.9,12.84,12.84,0,0,0,7,10.16A2.83,2.83,0,0,1,63,59.45v2.81a2.86,2.86,0,0,1-2.31,2.8l-5.36,1a11.35,11.35,0,0,0-8.6,7.6Z"/><path class="cls-3" d="M46,11.92h4A16.08,16.08,0,0,1,66.08,28v7.39a0,0,0,0,1,0,0H29.92a0,0,0,0,1,0,0V28A16.08,16.08,0,0,1,46,11.92Z"/><rect class="cls-4" x="29.92" y="29.43" width="36.16" height="5.97"/><path class="cls-2" d="M66.08,36.39H29.92a1,1,0,0,1-1-1V28A17.1,17.1,0,0,1,46,10.92h4A17.1,17.1,0,0,1,67.08,28v7.39A1,1,0,0,1,66.08,36.39Zm-35.16-2H65.08V28A15.1,15.1,0,0,0,50,12.92H46A15.1,15.1,0,0,0,30.92,28Z"/><path class="cls-5" d="M76.33,84.08H19.67L24.76,68.5a7.89,7.89,0,0,1,6-5.29L42,61H54l11.3,2.22a7.89,7.89,0,0,1,6,5.29Z"/><path class="cls-6" d="M23,84.08l4.57-14.64a4.89,4.89,0,0,1,3.71-3.29l11-2.16H53.67l11,2.16a4.89,4.89,0,0,1,3.71,3.29l4.78,14.64Z"/><path class="cls-7" d="M34.57,84.08,37,76.17a2.65,2.65,0,0,1,2-1.77c4.67-.92,8.81-1.81,15.07-.58l2.94.58a2.64,2.64,0,0,1,2,1.77l2.58,7.91Z"/><path class="cls-2" d="M76.33,85H19.67a1,1,0,0,1-1-1.31l5.09-15.52a8.86,8.86,0,0,1,6.73-6L41.85,60C42,60,42.3,60,54,60c.14,0-.54-.12,11.5,2.23a8.86,8.86,0,0,1,6.73,6l5.09,15.52A1,1,0,0,1,76.33,85ZM21.05,83H75L70.29,68.79a6.87,6.87,0,0,0-5.22-4.61L53.86,62H42.14L30.93,64.18a6.87,6.87,0,0,0-5.22,4.61Z"/><path class="cls-7" d="M48,67.7l-5.43,2.7-2.21-6.11a2,2,0,0,1,.43-2L42,61Z"/><path class="cls-7" d="M48,67.7l5.43,2.7,2.21-6.11a2,2,0,0,0-.43-2L54,61Z"/><polygon class="cls-8" points="53.96 52.39 53.96 60.99 48 67.7 42.04 60.99 42.04 52.39 53.96 52.39"/><path class="cls-8" d="M69.33,38.29A3.29,3.29,0,0,1,66,41.78H30A3.39,3.39,0,0,1,30,35H66A3.29,3.29,0,0,1,69.33,38.29Z"/><path class="cls-9" d="M65.78,35c0,5.54,0,5.63-.08,6.78H30.3c-.11-1.19-.08-1.43-.08-6.78Z"/><path class="cls-2" d="M66,43H30a4.4,4.4,0,0,1,0-8.79H66A4.4,4.4,0,0,1,66,43ZM30,36.23a2.3,2.3,0,0,0-2.29,2.29v.21A2.3,2.3,0,0,0,30,41H66a2.3,2.3,0,0,0,2.29-2.29v-.21A2.3,2.3,0,0,0,66,36.23Z"/><path class="cls-9" d="M54,52.39v5.54a18.84,18.84,0,0,1-11.92,0V52.39Z"/><path class="cls-2" d="M47.25,68.36l-6-6.71c-.35-.4-.25,0-.25-9.26a1,1,0,0,1,1-1H54a1,1,0,0,1,1,1V61c0,.54.31,0-6.21,7.37A1,1,0,0,1,47.25,68.36ZM43,60.61l5,5.58,5-5.58V53.39H43ZM54,61h0Z"/><path class="cls-10" d="M63.78,35v5.13a15.78,15.78,0,0,1-31.56,0V35l2.92-3.72a5.81,5.81,0,0,0,1.25-3.4l.17-4.63a2,2,0,0,1,2-1.9,73.32,73.32,0,0,0,18.68,0,2,2,0,0,1,2.22,1.88l.17,4.63a5.87,5.87,0,0,0,1.24,3.4Z"/><path class="cls-11" d="M41.63,19.67a2.54,2.54,0,0,1-.57-4.9,13.88,13.88,0,0,1,4.75-.85c4,0,6.14-.22,9.22,1a2.45,2.45,0,0,1-.68,4.71A67.42,67.42,0,0,1,41.63,19.67Z"/><path class="cls-12" d="M50.25,16.28h-4.5a1.08,1.08,0,1,1,0-2.15h4.5a1.07,1.07,0,0,1,1.08,1.07A1.09,1.09,0,0,1,50.25,16.28Z"/><path class="cls-2" d="M66.08,85H29.92a1,1,0,0,1-1-1.26l2.25-8.4a1,1,0,1,1,1.94.52L31.23,83H64.77l-1.92-7.14a1,1,0,0,1,1.94-.52L67,83.74A1,1,0,0,1,66.08,85Z"/><path class="cls-2" d="M42.57,71.4a1,1,0,0,1-.94-.66l-2.21-6.11a3,3,0,0,1,.66-3c1.32-1.37,1.39-1.57,2-1.59a1.06,1.06,0,0,1,.73.33l6,6.72a1,1,0,0,1-.3,1.55C42.56,71.52,42.9,71.4,42.57,71.4ZM42,62.46l-.5.51a1,1,0,0,0-.21,1L43.13,69l3.25-1.62Z"/><path class="cls-2" d="M53.43,71.4c-.34,0,0,.13-5.88-2.81a1,1,0,0,1-.3-1.55l6-6.72a1,1,0,0,1,.73-.33c.6,0,.71.27,2,1.59a3,3,0,0,1,.66,3l-2.21,6.11A1,1,0,0,1,53.43,71.4Zm-3.81-4L52.87,69,54.7,64a1,1,0,0,0-.21-1l-.5-.51Z"/><path class="cls-2" d="M48,56.9A16.79,16.79,0,0,1,31.22,40.13V35c0-.47-.08-.24,3.14-4.34a4.92,4.92,0,0,0,1-2.82l.17-4.62a3,3,0,0,1,3.33-2.85,72,72,0,0,0,18.2,0,3,3,0,0,1,3.35,2.83l.17,4.63a4.9,4.9,0,0,0,1,2.83l2.92,3.71c.29.37.22.08.22,5.75A16.79,16.79,0,0,1,48,56.9ZM33.22,35.34v4.79a14.78,14.78,0,0,0,29.56,0V35.34L60.07,31.9a6.94,6.94,0,0,1-1.46-4l-.17-4.62a.94.94,0,0,0-.35-.71c-.48-.4-.59-.17-3.55.08a74,74,0,0,1-15.87-.3,1,1,0,0,0-1.11.93l-.17,4.62a6.94,6.94,0,0,1-1.46,4Z"/><path class="cls-2" d="M54.3,36.74a1,1,0,0,1-1-1V35a1,1,0,0,1,2,0v.7A1,1,0,0,1,54.3,36.74Z"/><path class="cls-2" d="M55.9,32.94H52.69a1,1,0,0,1,0-2H55.9a1,1,0,1,1,0,2Z"/><path class="cls-2" d="M41.7,36.74a1,1,0,0,1-1-1V35a1,1,0,0,1,2,0v.7A1,1,0,0,1,41.7,36.74Z"/><path class="cls-2" d="M43.31,32.94H40.1a1,1,0,0,1,0-2h3.21a1,1,0,0,1,0,2Z"/><path class="cls-2" d="M44,47.14A1,1,0,1,1,45.64,46a2.84,2.84,0,0,0,4.73,0,1,1,0,0,1,1.39-.28A1,1,0,0,1,52,47.11,4.84,4.84,0,0,1,44,47.14Z"/></g></svg>