<svg xmlns="http://www.w3.org/2000/svg" viewBox="0 0 96 96"><defs><style>.cls-1{fill:#ffba9c;}.cls-2{fill:#302d3d;}.cls-3{fill:#ffa188;}.cls-4{fill:#fbe2c9;}.cls-5{fill:#fbceab;}.cls-6{fill:#fbba8d;}.cls-7{fill:#495f9c;}.cls-8{fill:#5d7db0;}.cls-9{fill:#6c8cbf;}.cls-10{fill:#87b5e3;}.cls-11{fill:#d2ddf2;}</style></defs><title>Teamwork</title><g id="Teamwork"><path class="cls-1" d="M86.55,58.38,66.64,78.29l-40-40L46.5,18.34Z"/><path class="cls-2" d="M58.29,23a1,1,0,0,1-.71-1.7l3.94-3.94a1,1,0,0,1,1.42,0,1,1,0,0,1,0,1.41L59,22.75A1,1,0,0,1,58.29,23Z"/><path class="cls-2" d="M62.8,34a1,1,0,0,1-.71-1.71L66,28.39a1,1,0,0,1,1.42,0,1,1,0,0,1,0,1.41l-3.94,3.94A1,1,0,0,1,62.8,34Z"/><path class="cls-3" d="M65,66,79.6,51.45C68.16,40,75.77,47.64,46.48,18.34c-23.4,23.4-18.93,18.93-23,23L63.55,81.36l3.07-3.07-1.79-1.78A7.34,7.34,0,0,1,65,66Z"/><path class="cls-2" d="M63.57,82.36c-.62,0,2.09,2.51-40.76-40.34a1,1,0,0,1,0-1.41l23-23a1,1,0,0,1,1.42,0l40,40.05a1,1,0,0,1,0,1.41l-23,23A1,1,0,0,1,63.57,82.36Zm-38.63-41L63.57,80,85.13,58.39,46.5,19.75Z"/><path class="cls-4" d="M78.51,48.32c-2.56,2.57,0,0-15.58,15.57A14.27,14.27,0,0,1,51,68l-2.81-.37a8,8,0,0,0-6.68,2.27l-5.61,5.61L12.61,52.22,56,8.81a5.48,5.48,0,0,1,8.11.4,5.65,5.65,0,0,1-.53,7.52L62.23,18.1a5.5,5.5,0,0,1,8.12.4A5.65,5.65,0,0,1,69.81,26c-1,1-2,2-3,3a5.47,5.47,0,0,1,8,.46A5.64,5.64,0,0,1,74.32,37c-2.23,2.24-1.37,1.38-3.38,3.38a5.49,5.49,0,0,1,8.1.4A5.65,5.65,0,0,1,78.51,48.32Z"/><path class="cls-5" d="M76.74,50.09,62.93,63.89A14.27,14.27,0,0,1,51,68l-2.81-.37a8,8,0,0,0-6.68,2.27l-7.4,7.4L10.82,54,54.23,10.6a5.48,5.48,0,0,1,8.11.4,5.64,5.64,0,0,1-.53,7.52l-1.37,1.37a5.5,5.5,0,0,1,8.12.4,5.63,5.63,0,0,1-.43,7.41c-.08.11.13-.13-3.18,3.18a5.48,5.48,0,0,1,8.12.4,5.64,5.64,0,0,1-.54,7.52l-3.38,3.38a5.49,5.49,0,0,1,8.11.4A5.65,5.65,0,0,1,76.74,50.09Z"/><path class="cls-6" d="M42.21,29.55A7.46,7.46,0,0,1,29.6,35.24L40.16,24.68A7.34,7.34,0,0,1,42.21,29.55Z"/><path class="cls-6" d="M34.47,37.3A7.48,7.48,0,0,1,21.84,43L32.41,32.43A7.39,7.39,0,0,1,34.47,37.3Z"/><path class="cls-6" d="M26.73,45.34A7.47,7.47,0,0,1,14.1,50.73L24.66,40.18A7.44,7.44,0,0,1,26.73,45.34Z"/><path class="cls-6" d="M47.79,27.37a7.45,7.45,0,0,1-10.45.12c3-2.95,6.26-6.29,10.56-10.56A7.46,7.46,0,0,1,47.79,27.37Z"/><path class="cls-6" d="M76,48.37a1.77,1.77,0,0,1,0,2.5l-13,13A14.27,14.27,0,0,1,51,68l-2.81-.37a8,8,0,0,0-6.68,2.27l-7.4,7.4-2.54-2.54,7.4-7.4a8,8,0,0,1,6.68-2.27l2.81.37a14.27,14.27,0,0,0,12-4.07l13-13A1.76,1.76,0,0,1,76,48.37Z"/><path class="cls-2" d="M35.15,76.18,11.9,52.93a1,1,0,0,1,0-1.41L55.31,8.11a6.44,6.44,0,0,1,10.35,7.41,6.47,6.47,0,0,1,5.45,2.35,6.65,6.65,0,0,1-.36,8.62A6.5,6.5,0,0,1,75,37.79,6.5,6.5,0,0,1,79.22,49L63.64,64.6A15.39,15.39,0,0,1,50.82,69L48,68.58a7,7,0,0,0-5.85,2l-5.62,5.61A1,1,0,0,1,35.15,76.18ZM14,52.23,35.86,74.06l4.9-4.9a9,9,0,0,1,7.53-2.56l2.8.37a13.39,13.39,0,0,0,11.14-3.78L77.81,47.61a4.49,4.49,0,1,0-6.17-6.51,1,1,0,0,1-1.41,0,1,1,0,0,1,0-1.41l3.39-3.39a4.65,4.65,0,0,0,.46-6.17,4.47,4.47,0,0,0-6.63-.33A1,1,0,0,1,66,28.39l3.07-3.08a4.49,4.49,0,0,0-2.78-7.8,4.38,4.38,0,0,0-3.38,1.3,1,1,0,0,1-1.42,0,1,1,0,0,1,0-1.41L62.89,16a4.65,4.65,0,0,0,.47-6.18,4.48,4.48,0,0,0-6.63-.33Z"/><path class="cls-4" d="M61.09,39.69,43.3,57.49a1.07,1.07,0,0,0,1.06,1.79c5-1.51,8.49-.17,10.61-.17a5.28,5.28,0,0,0,3.74-1.56l7-7a7.65,7.65,0,0,0,0-10.82A3.3,3.3,0,0,0,61.09,39.69Z"/><path class="cls-7" d="M35.83,78l-8.52,8.52a1.82,1.82,0,0,1-2.59,0L1.52,63.36a1.82,1.82,0,0,1,0-2.59L10,52.25a1.82,1.82,0,0,1,2.59,0l23.2,23.2A1.82,1.82,0,0,1,35.83,78Z"/><path class="cls-8" d="M32.31,74.52,23.79,83a1.84,1.84,0,0,1-2.59,0L1.52,63.36a1.82,1.82,0,0,1,0-2.59L10,52.25a1.82,1.82,0,0,1,2.59,0L32.31,71.93A1.82,1.82,0,0,1,32.31,74.52Z"/><path class="cls-9" d="M9.39,62.7H34.72a0,0,0,0,1,0,0v6.66a1.2,1.2,0,0,1-1.2,1.2H9.39a1.2,1.2,0,0,1-1.2-1.2V63.9A1.2,1.2,0,0,1,9.39,62.7Z" transform="translate(53.4 4.34) rotate(45)"/><rect class="cls-8" x="59.08" y="64.03" width="36.48" height="15.72" rx="1.83" transform="translate(182.83 68.04) rotate(135)"/><path class="cls-10" d="M63.67,77l8.52,8.52a1.84,1.84,0,0,0,2.59,0L94.46,65.88a1.82,1.82,0,0,0,0-2.59l-8.52-8.52a1.82,1.82,0,0,0-2.59,0L63.67,74.45A1.82,1.82,0,0,0,63.67,77Z"/><path class="cls-11" d="M62.47,65.22H86.59a1.2,1.2,0,0,1,1.2,1.2v6.66a0,0,0,0,1,0,0H62.47a1.2,1.2,0,0,1-1.2-1.2V66.42A1.2,1.2,0,0,1,62.47,65.22Z" transform="translate(176.12 65.35) rotate(135)"/><path class="cls-1" d="M46.38,26a5.48,5.48,0,0,1-7.75,0L28.44,15.77A5.48,5.48,0,1,1,36.19,8L46.38,18.22A5.49,5.49,0,0,1,46.38,26Z"/><path class="cls-3" d="M38.63,33.71a5.46,5.46,0,0,1-7.75,0c-6.64-6.64-6.54-6.52-8.67-8.67a5.48,5.48,0,0,1,7.85-7.64L38.63,26A5.5,5.5,0,0,1,38.63,33.71Z"/><path class="cls-3" d="M30.88,41.46a5.49,5.49,0,0,1-7.76,0L16,34.33a5.48,5.48,0,0,1,7.86-7.63l7,7A5.48,5.48,0,0,1,30.88,41.46Z"/><path class="cls-3" d="M23.12,49.21a5.47,5.47,0,0,1-7.74,0l-3.12-3.12A5.48,5.48,0,0,1,20,38.33l3.13,3.13A5.46,5.46,0,0,1,23.12,49.21Z"/><path class="cls-3" d="M46.38,26a5.48,5.48,0,0,1-7.75,0c-7.55-7.55-7.11-7.09-10.19-10.19a5.48,5.48,0,0,1,7.65-7.84c.1.08-.6-.61,10.29,10.28A5.5,5.5,0,0,1,46.38,26Z"/><path class="cls-1" d="M35.85,30.93a5.46,5.46,0,0,1-7.75,0c-6.36-6.36-2.41-2.39-5.89-5.89a5.48,5.48,0,0,1,7.85-7.64l5.79,5.78A5.48,5.48,0,0,1,35.85,30.93Z"/><path class="cls-1" d="M28.1,38.68a5.47,5.47,0,0,1-7.76,0L16,34.33a5.48,5.48,0,0,1,7.86-7.63l4.24,4.23A5.49,5.49,0,0,1,28.1,38.68Z"/><path class="cls-1" d="M20.34,46.43a5.47,5.47,0,0,1-7.74,0A5.48,5.48,0,1,1,20,38.33l.35.35A5.46,5.46,0,0,1,20.34,46.43Z"/><path class="cls-1" d="M43.6,23.18a5.48,5.48,0,0,1-7.75,0c-6.81-6.8-5.3-5.28-7.41-7.41a5.48,5.48,0,0,1,7.65-7.84l7.51,7.51A5.49,5.49,0,0,1,43.6,23.18Z"/><path class="cls-2" d="M37.92,26.67,27.73,16.48a6.48,6.48,0,0,1,9.16-9.16L47.08,17.51a6.48,6.48,0,0,1,0,9.16h0A6.49,6.49,0,0,1,37.92,26.67ZM27.83,11.9a4.44,4.44,0,0,0,1.31,3.16l10.2,10.2a4.48,4.48,0,1,0,6.33-6.34L35.48,8.73A4.49,4.49,0,0,0,27.83,11.9ZM46.38,26h0Z"/><path class="cls-3" d="M52.69,12.13c-.32.35-1.9,1.91-3.55,3.57a5.31,5.31,0,0,1-7.47,0l-3.18-3.2a2.94,2.94,0,0,1,.9-4.8c.71-.35.62-.25,11.22-.25A2.8,2.8,0,0,1,52.69,12.13Z"/><path class="cls-1" d="M52.69,12.13c-.13.15-1.91,1.94-2,2a5.29,5.29,0,0,1-7.46,0L40,11a2.91,2.91,0,0,1-.63-3.27c.69-.34.53-.25,11.22-.25A2.8,2.8,0,0,1,52.69,12.13Z"/><path class="cls-2" d="M41,16.41l-3.19-3.2a4,4,0,0,1,1.28-6.46c1-.44,1.24-.3,11.55-.3a3.8,3.8,0,0,1,2.69,6.49l-3.46,3.47A6.29,6.29,0,0,1,41,16.41Zm-.39-8a2,2,0,0,0-1.39,3.34L42.38,15a4.29,4.29,0,0,0,6,0l3.45-3.46a1.8,1.8,0,0,0-1.27-3.08Z"/><circle class="cls-7" cx="70.47" cy="78.78" r="3.24"/><rect class="cls-5" x="16.34" y="34.98" width="6.3" height="2.35" rx="0.55" transform="translate(31.27 -3.19) rotate(45)"/><rect class="cls-5" x="23.17" y="26.3" width="6.35" height="2.39" rx="0.55" transform="translate(27.16 -10.57) rotate(45)"/><rect class="cls-5" x="28.27" y="17.63" width="10.54" height="2.7" rx="0.55" transform="translate(23.24 -18.16) rotate(45)"/><path class="cls-2" d="M58.29,23a1,1,0,0,1-.71-1.7l3.94-3.94a1,1,0,0,1,1.42,0,1,1,0,0,1,0,1.41L59,22.75A1,1,0,0,1,58.29,23Z"/><path class="cls-2" d="M62.8,34a1,1,0,0,1-.71-1.71L66,28.39a1,1,0,0,1,1.42,0,1,1,0,0,1,0,1.41l-3.94,3.94A1,1,0,0,1,62.8,34Z"/><path class="cls-2" d="M67,45.34a1,1,0,0,1-.7-1.71l3.94-3.94a1,1,0,1,1,1.41,1.41L67.7,45A1,1,0,0,1,67,45.34Z"/><path class="cls-2" d="M24,87.27.81,64.07a2.84,2.84,0,0,1,0-4l8.52-8.52a2.91,2.91,0,0,1,4,0l23.2,23.2a2.83,2.83,0,0,1,0,4L28,87.27A2.82,2.82,0,0,1,24,87.27ZM11.34,52.71c-.49,0,.15-.5-9.11,8.77a.82.82,0,0,0,0,1.17c24.63,24.64,23.1,23.21,23.2,23.21a.85.85,0,0,0,1.17,0l8.53-8.53a.83.83,0,0,0,0-1.17C10.37,51.4,11.85,52.71,11.34,52.71Z"/><path class="cls-2" d="M68,89.75l-8.52-8.52a2.85,2.85,0,0,1,0-4L82.66,54a2.91,2.91,0,0,1,4,0l8.52,8.52a2.85,2.85,0,0,1,0,4L72,89.75A2.84,2.84,0,0,1,68,89.75ZM84.66,55.19c-.5,0,1-1.38-23.79,23.45a.83.83,0,0,0,0,1.17l8.52,8.53a.85.85,0,0,0,1.18,0l23.2-23.21a.82.82,0,0,0,0-1.17C84.5,54.69,85.15,55.19,84.66,55.19Z"/><path class="cls-2" d="M30.17,34.42,21.5,25.75a6.48,6.48,0,0,1,9.27-9.06l8.57,8.57a6.49,6.49,0,0,1,0,9.16h0A6.48,6.48,0,0,1,30.17,34.42Zm-4-17.63a4.48,4.48,0,0,0-3.25,7.56L31.59,33a4.48,4.48,0,1,0,6.33-6.33l-8.56-8.56A4.48,4.48,0,0,0,26.19,16.79ZM38.63,33.71h0Z"/><path class="cls-2" d="M22.42,42.17l-7.06-7.06A6.48,6.48,0,0,1,20,24.1,6.56,6.56,0,0,1,24.57,26l7,7a6.51,6.51,0,0,1,0,9.17h0A6.5,6.5,0,0,1,22.42,42.17ZM20,26.1a4.49,4.49,0,0,0-3.2,7.61l7,7a4.48,4.48,0,0,0,6.34,0h0a4.47,4.47,0,0,0,0-6.33l-7-7A4.48,4.48,0,0,0,20,26.1Z"/><path class="cls-2" d="M19.25,51.82a6.43,6.43,0,0,1-4.58-1.91l-3-3a6.5,6.5,0,0,1,4.58-11.07,6.4,6.4,0,0,1,4.58,1.9l3,3A6.49,6.49,0,0,1,19.25,51.82Zm-3-14a4.49,4.49,0,0,0-3.16,7.66l3,3a4.48,4.48,0,1,0,6.34-6.33l-3-3A4.44,4.44,0,0,0,16.21,37.82Z"/><path class="cls-2" d="M70.47,83a4.24,4.24,0,1,1,4.24-4.24A4.24,4.24,0,0,1,70.47,83Zm0-6.48a2.24,2.24,0,1,0,2.24,2.24A2.24,2.24,0,0,0,70.47,76.54Z"/></g></svg>