<svg xmlns="http://www.w3.org/2000/svg" viewBox="0 0 96 96"><defs><style>.cls-1{fill:#b3c4f3;}.cls-2{fill:#302d3d;}.cls-3{fill:#d2ddf2;}.cls-4{fill:#e6ecf2;}.cls-5{fill:#fff;}.cls-6{fill:#fe4a55;}.cls-7{fill:#f0824b;}.cls-8{fill:#e9ecef;}.cls-9{fill:#ffca6e;}.cls-10{fill:#ffe391;}.cls-11{fill:#ffa64d;}.cls-12{fill:#e61f34;}</style></defs><title>Verification</title><g id="Verification-2" data-name="Verification"><rect class="cls-1" x="3.64" y="7.7" width="62.83" height="87.3" rx="4.52"/><path class="cls-2" d="M61.94,96H8.16a5.53,5.53,0,0,1-5.53-5.52V12.22A5.53,5.53,0,0,1,8.16,6.7H61.94a5.53,5.53,0,0,1,5.53,5.52V90.48A5.53,5.53,0,0,1,61.94,96ZM8.16,8.7a3.53,3.53,0,0,0-3.53,3.52V90.48A3.53,3.53,0,0,0,8.16,94H61.94a3.53,3.53,0,0,0,3.53-3.52V12.22A3.53,3.53,0,0,0,61.94,8.7Z"/><path class="cls-3" d="M73.22,19.06V84.11a4.6,4.6,0,0,1-4.6,4.6H15a4.61,4.61,0,0,1-4.61-4.6V5.6A4.61,4.61,0,0,1,15,1c43.78,0,40.83-.17,42.08.41s.49.08,14.8,14.4A4.54,4.54,0,0,1,73.22,19.06Z"/><polygon class="cls-4" points="15.38 83.71 15.38 6 55 6 68.22 19.23 68.22 83.71 15.38 83.71"/><path class="cls-3" d="M73.22,19.06c0,.14,1.41.09-18.15.09C55.07-.41,55,1,55.17,1a4.56,4.56,0,0,1,3.24,1.34c14.52,14.53,13.9,13.74,14.4,14.81A4.62,4.62,0,0,1,73.22,19.06Z"/><path class="cls-2" d="M68.61,89.71H15a5.6,5.6,0,0,1-5.6-5.6V5.6A5.6,5.6,0,0,1,15,0H55.16a5.61,5.61,0,0,1,2.33.5c1.26.57.63.14,15.08,14.6a5.57,5.57,0,0,1,1.64,4V84.11A5.6,5.6,0,0,1,68.61,89.71ZM15,2a3.6,3.6,0,0,0-3.6,3.6V84.11a3.6,3.6,0,0,0,3.6,3.6H68.61a3.6,3.6,0,0,0,3.6-3.6v-65a3.61,3.61,0,0,0-1-2.55C56.61,2,57.49,2.7,56.66,2.32,55.66,1.86,59,2,15,2Z"/><rect class="cls-5" x="20.3" y="20.76" width="40.64" height="36.45" rx="3.5"/><rect class="cls-5" x="20.3" y="64.54" width="40.64" height="9.85" rx="3.5"/><path class="cls-2" d="M61.64,32.36H29.2a1,1,0,0,1,0-2H61.64a1,1,0,0,1,0,2Z"/><path class="cls-2" d="M61.64,39.58H29.2a1,1,0,0,1,0-2H61.64a1,1,0,0,1,0,2Z"/><path class="cls-2" d="M47.66,46.79H29.2a1,1,0,1,1,0-2H47.66a1,1,0,0,1,0,2Z"/><path class="cls-2" d="M61.64,54H29.2a1,1,0,0,1,0-2H61.64a1,1,0,0,1,0,2Z"/><path class="cls-2" d="M61.64,68.43H29.2a1,1,0,0,1,0-2H61.64a1,1,0,0,1,0,2Z"/><path class="cls-2" d="M40.9,75.65H29.2a1,1,0,0,1,0-2H40.9a1,1,0,1,1,0,2Z"/><path class="cls-2" d="M38.76,61.22H29.2a1,1,0,0,1,0-2h9.56a1,1,0,0,1,0,2Z"/><path class="cls-1" d="M57.07,1.41V17.15H72.81c-.49-1.07.12-.29-14.4-14.81A4.6,4.6,0,0,0,57.07,1.41Z"/><path class="cls-6" d="M91.86,87.78,87.69,92a1.76,1.76,0,0,1-2.49,0L73.83,80.57a1.74,1.74,0,0,1,0-2.48L78,73.92a1.76,1.76,0,0,1,2.49,0L91.86,85.29A1.77,1.77,0,0,1,91.86,87.78Z"/><path class="cls-7" d="M78.17,73.77l-4.49,4.5-5.34-5.34a19.17,19.17,0,0,0,4.5-4.49Z"/><circle class="cls-8" cx="57.2" cy="57.29" r="12.72"/><path class="cls-5" d="M57.2,67a9.72,9.72,0,1,1,9.72-9.72A9.72,9.72,0,0,1,57.2,67Z"/><path class="cls-9" d="M70.78,43.71a19.21,19.21,0,1,0,0,27.16A19.21,19.21,0,0,0,70.78,43.71ZM66.19,66.28a12.72,12.72,0,1,1,0-18A12.72,12.72,0,0,1,66.19,66.28Z"/><path class="cls-10" d="M53.09,43.13a3.24,3.24,0,0,0-4.7-2.9,19.11,19.11,0,0,0-9.1,10.15,3.25,3.25,0,0,0,3,4.41,3.21,3.21,0,0,0,3-2,12.65,12.65,0,0,1,6-6.74A3.25,3.25,0,0,0,53.09,43.13Z"/><path class="cls-11" d="M61.31,71.45a3.24,3.24,0,0,0,4.7,2.9,19.15,19.15,0,0,0,9.1-10.15,3.24,3.24,0,0,0-6-2.36,12.63,12.63,0,0,1-6,6.74A3.22,3.22,0,0,0,61.31,71.45Z"/><rect class="cls-12" x="81.61" y="85.41" width="9.42" height="2" transform="translate(-35.82 86.35) rotate(-45)"/><polygon class="cls-12" points="86.88 80.31 80.22 86.97 78.81 85.55 85.46 78.9 86.88 80.31"/><rect class="cls-12" x="74.66" y="78.45" width="9.41" height="2" transform="translate(-32.94 79.3) rotate(-44.96)"/><path class="cls-2" d="M72.8,18.15H57.07a1,1,0,0,1-1-1V1.41A1,1,0,0,1,57.48.5,5.67,5.67,0,0,1,59.1,1.62c14.69,14.7,14,13.85,14.61,15.12A1,1,0,0,1,72.8,18.15Zm-14.73-2H70.8L58.07,3.41Z"/><path class="cls-2" d="M23.71,34.78H20.19a2.33,2.33,0,0,1-2.33-2.34V30.28a2.33,2.33,0,0,1,2.33-2.34h3.52a2.34,2.34,0,0,1,2.34,2.34v2.16A2.34,2.34,0,0,1,23.71,34.78Zm-3.52-4.84a.34.34,0,0,0-.33.34v2.16a.34.34,0,0,0,.33.34h3.52a.34.34,0,0,0,.34-.34V30.28a.34.34,0,0,0-.34-.34Z"/><path class="cls-2" d="M23.71,49.21H20.19a2.33,2.33,0,0,1-2.33-2.34V44.71a2.33,2.33,0,0,1,2.33-2.34h3.52a2.34,2.34,0,0,1,2.34,2.34v2.16A2.34,2.34,0,0,1,23.71,49.21Zm-3.52-4.84a.34.34,0,0,0-.33.34v2.16a.34.34,0,0,0,.33.34h3.52a.34.34,0,0,0,.34-.34V44.71a.34.34,0,0,0-.34-.34Z"/><path class="cls-2" d="M23.71,63.64H20.19a2.33,2.33,0,0,1-2.33-2.34V59.14a2.33,2.33,0,0,1,2.33-2.34h3.52a2.34,2.34,0,0,1,2.34,2.34V61.3A2.34,2.34,0,0,1,23.71,63.64ZM20.19,58.8a.34.34,0,0,0-.33.34V61.3a.34.34,0,0,0,.33.34h3.52a.34.34,0,0,0,.34-.34V59.14a.34.34,0,0,0-.34-.34Z"/><path class="cls-2" d="M23.71,78.07H20.19a2.33,2.33,0,0,1-2.33-2.34V73.57a2.33,2.33,0,0,1,2.33-2.34h3.52a2.34,2.34,0,0,1,2.34,2.34v2.16A2.34,2.34,0,0,1,23.71,78.07Zm-3.52-4.84a.34.34,0,0,0-.33.34v2.16a.34.34,0,0,0,.33.34h3.52a.34.34,0,0,0,.34-.34V73.57a.34.34,0,0,0-.34-.34Z"/><path class="cls-2" d="M84.49,92.66,73.11,81.28a2.77,2.77,0,0,1,0-3.9l4.17-4.17a2.77,2.77,0,0,1,3.9,0L92.56,84.59a2.77,2.77,0,0,1,0,3.9l-4.17,4.17A2.75,2.75,0,0,1,84.49,92.66ZM79.23,74.4c-.46,0-.2-.11-4.7,4.39a.76.76,0,0,0,0,1.08L85.9,91.24a.78.78,0,0,0,1.08,0l4.16-4.16a.76.76,0,0,0,0-1.08C78.73,73.59,79.68,74.4,79.23,74.4Z"/><path class="cls-2" d="M73.59,79.6l-5.37-5.37a20.22,20.22,0,1,1,5.91-5.91l5.37,5.37a1,1,0,0,1,0,1.41L75,79.6A1,1,0,0,1,73.59,79.6ZM69,72.23l5.26,5.25,3.08-3.08-5.25-5.26A1,1,0,0,1,72,67.86a18.23,18.23,0,1,0-4.26,4.26A1,1,0,0,1,69,72.23Z"/><path class="cls-2" d="M47.49,67a13.72,13.72,0,1,1,19.4,0A13.73,13.73,0,0,1,47.49,67Zm9.7-21.42a11.72,11.72,0,1,0,8.29,20A11.74,11.74,0,0,0,57.19,45.57Z"/><path class="cls-2" d="M83,90.74a1,1,0,0,1-.7-1.71l6.65-6.65a1,1,0,0,1,1.42,0,1,1,0,0,1,0,1.41l-6.66,6.66A1,1,0,0,1,83,90.74Z"/><path class="cls-2" d="M79.51,87.26a1,1,0,0,1-.71-1.71l6.66-6.65a1,1,0,0,1,1.41,1.41L80.21,87A1,1,0,0,1,79.51,87.26Z"/><path class="cls-2" d="M76,83.78a1,1,0,0,1-.71-1.7L82,75.42a1,1,0,0,1,1.41,0,1,1,0,0,1,0,1.42l-6.65,6.65A1,1,0,0,1,76,83.78Z"/><path class="cls-2" d="M54.79,61.79,51.54,58a1,1,0,1,1,1.51-1.31l2.52,2.92,6.49-6.89a1,1,0,1,1,1.46,1.37l-7.25,7.69A1,1,0,0,1,54.79,61.79Z"/></g></svg>