<svg xmlns="http://www.w3.org/2000/svg" viewBox="0 0 96 96"><defs><style>.cls-1{fill:#ffd9b5;}.cls-2{fill:#ffc088;}.cls-3{fill:#302d3d;}.cls-4{fill:#d2ddf2;}.cls-5{fill:#e6ecf2;}.cls-6{fill:#fff;}.cls-7{fill:#a9acbe;}.cls-8{fill:#dbd9dc;}</style></defs><title>Verification_1</title><g id="Verification"><path class="cls-1" d="M81.52,9.9V92.62a2.44,2.44,0,0,1-2.44,2.44H16.91a2.43,2.43,0,0,1-2.43-2.44V9.9a2.43,2.43,0,0,1,2.43-2.44H79.08A2.44,2.44,0,0,1,81.52,9.9Z"/><path class="cls-2" d="M64.26,7.46V13.2a3.89,3.89,0,0,1-3.89,3.89H35.62a3.9,3.9,0,0,1-3.89-3.89V7.46Z"/><rect class="cls-2" x="17.88" y="10.87" width="60.23" height="80.77"/><path class="cls-3" d="M79.08,96.06H16.91a3.44,3.44,0,0,1-3.43-3.44V9.9a3.44,3.44,0,0,1,3.43-3.44H79.08A3.44,3.44,0,0,1,82.52,9.9V92.66A3.44,3.44,0,0,1,79.08,96.06ZM16.91,8.46A1.43,1.43,0,0,0,15.48,9.9V92.62a1.44,1.44,0,0,0,1.43,1.44H79.08a1.44,1.44,0,0,0,1.44-1.44V9.9a1.43,1.43,0,0,0-1.44-1.44Z"/><polygon class="cls-4" points="76.11 89.65 19.88 89.65 19.88 12.87 76.11 12.87 76.11 89.65"/><rect class="cls-5" x="23.88" y="12.87" width="48.23" height="72.78"/><rect class="cls-6" x="30.1" y="17.98" width="35.79" height="34.43" rx="2.89"/><path class="cls-6" d="M30.1,67.23V60.7c0-.36,1.3-.66,2.89-.66H63c1.59,0,2.89.3,2.89.66v6.53c0,.37-1.3.66-2.89.66H33C31.4,67.89,30.1,67.6,30.1,67.23Z"/><path class="cls-3" d="M76.11,90.65H19.88a1,1,0,0,1-1-1V12.87a1,1,0,0,1,1-1H76.11a1,1,0,0,1,1,1V89.65A1,1,0,0,1,76.11,90.65Zm-55.23-2H75.11V13.87H20.88Z"/><path class="cls-7" d="M62.26,6.88V13.2a1.89,1.89,0,0,1-1.89,1.89H35.62a1.89,1.89,0,0,1-1.89-1.89V6.88A1.89,1.89,0,0,1,35.62,5h2.74a4,4,0,0,1,4-4H53.65a4,4,0,0,1,4,4h2.74A1.89,1.89,0,0,1,62.26,6.88Z"/><path class="cls-8" d="M62.26,6.88v3.5a1.89,1.89,0,0,1-1.89,1.89H35.62a1.89,1.89,0,0,1-1.89-1.89V6.88A1.89,1.89,0,0,1,35.62,5h2.74a4,4,0,0,1,4-4H53.65a4,4,0,0,1,4,4h2.74A1.89,1.89,0,0,1,62.26,6.88Z"/><path class="cls-3" d="M60.37,16.09H35.62a2.9,2.9,0,0,1-2.89-2.89V6.88A2.89,2.89,0,0,1,35.62,4h1.84a5,5,0,0,1,4.88-4H53.65a5,5,0,0,1,4.88,4h1.84a2.89,2.89,0,0,1,2.89,2.89V13.2A2.9,2.9,0,0,1,60.37,16.09ZM35.62,6a.89.89,0,0,0-.89.89V13.2a.89.89,0,0,0,.89.89H60.37a.89.89,0,0,0,.89-.89V6.88A.89.89,0,0,0,60.37,6H57.63a1,1,0,0,1-1-1,3,3,0,0,0-3-3H42.34a3,3,0,0,0-3,3,1,1,0,0,1-1,1Zm23-1h0Z"/><path class="cls-3" d="M55.84,11.12H40.16a1,1,0,0,1,0-2H55.84a1,1,0,0,1,0,2Z"/><path class="cls-3" d="M54.33,24.19H43.46a1,1,0,0,1,0-2H54.33a1,1,0,0,1,0,2Z"/><path class="cls-3" d="M68.82,29.1H43.46a1,1,0,0,1,0-2H68.82a1,1,0,0,1,0,2Z"/><path class="cls-3" d="M49.8,34H43.46a1,1,0,0,1,0-2H49.8a1,1,0,0,1,0,2Z"/><path class="cls-3" d="M68.82,40.16H43.46a1,1,0,0,1,0-2H68.82a1,1,0,0,1,0,2Z"/><path class="cls-3" d="M68.82,45.07H43.46a1,1,0,0,1,0-2H68.82a1,1,0,0,1,0,2Z"/><path class="cls-3" d="M56.14,50H43.46a1,1,0,0,1,0-2H56.14a1,1,0,0,1,0,2Z"/><path class="cls-3" d="M68.82,56.13H43.46a1,1,0,0,1,0-2H68.82a1,1,0,0,1,0,2Z"/><path class="cls-3" d="M68.82,61H53a1,1,0,0,1,0-2h15.8a1,1,0,0,1,0,2Z"/><path class="cls-3" d="M57.63,66H43.46a1,1,0,1,1,0-2H57.63a1,1,0,1,1,0,2Z"/><path class="cls-3" d="M68.82,72.1H43.46a1,1,0,0,1,0-2H68.82a1,1,0,0,1,0,2Z"/><path class="cls-3" d="M60.67,77H43.46a1,1,0,1,1,0-2H60.67a1,1,0,0,1,0,2Z"/><path class="cls-3" d="M53,81.92H43.46a1,1,0,1,1,0-2H53a1,1,0,0,1,0,2Z"/><path class="cls-3" d="M68.82,24.19H61.45a1,1,0,0,1,0-2h7.37a1,1,0,0,1,0,2Z"/><path class="cls-3" d="M57.63,34H54.85a1,1,0,0,1,0-2h2.78a1,1,0,0,1,0,2Z"/><path class="cls-3" d="M63,50H60.67a1,1,0,0,1,0-2H63a1,1,0,0,1,0,2Z"/><path class="cls-3" d="M48.24,61H43.46a1,1,0,0,1,0-2h4.78a1,1,0,0,1,0,2Z"/><path class="cls-3" d="M59.11,81.92H56.93a1,1,0,1,1,0-2h2.18a1,1,0,0,1,0,2Z"/><path class="cls-3" d="M68.82,77H65.13a1,1,0,0,1,0-2h3.69a1,1,0,0,1,0,2Z"/><path class="cls-3" d="M31.87,62.45l-2.26-2.84a1,1,0,0,1,1.57-1.25l1.56,2L38.1,55a1,1,0,0,1,1.41,1.41l-6.15,6.11A1,1,0,0,1,31.87,62.45Z"/><path class="cls-3" d="M31.87,47l-2.26-2.84a1,1,0,0,1,1.57-1.25l1.56,2,5.36-5.31a1,1,0,0,1,1.41,1.41l-6.15,6.11A1,1,0,0,1,31.87,47Z"/><path class="cls-3" d="M31.87,30.8,29.61,28a1,1,0,0,1,.16-1.4,1,1,0,0,1,1.41.16l1.56,2,5.36-5.32a1,1,0,0,1,1.41,1.42l-6.15,6.11A1,1,0,0,1,31.87,30.8Z"/><path class="cls-3" d="M31.87,78.77l-2.26-2.84a1,1,0,1,1,1.57-1.25l1.56,2,5.36-5.31a1,1,0,0,1,1.41,1.41l-6.15,6.11A1,1,0,0,1,31.87,78.77Z"/><path class="cls-3" d="M35.74,81.92H29.57a2.83,2.83,0,0,1-2.83-2.82V72.92a2.83,2.83,0,0,1,2.83-2.82h6.17a2.82,2.82,0,0,1,2.82,2.82V79.1A2.82,2.82,0,0,1,35.74,81.92ZM29.57,72.1a.83.83,0,0,0-.83.82V79.1a.83.83,0,0,0,.83.82h6.17a.82.82,0,0,0,.82-.82V72.92a.82.82,0,0,0-.82-.82Z"/><path class="cls-3" d="M35.74,66H29.57a2.83,2.83,0,0,1-2.83-2.82V57a2.83,2.83,0,0,1,2.83-2.83h6.17A2.83,2.83,0,0,1,38.56,57v6.17A2.82,2.82,0,0,1,35.74,66Zm-6.17-9.82a.83.83,0,0,0-.83.83v6.17a.83.83,0,0,0,.83.82h6.17a.82.82,0,0,0,.82-.82V57a.83.83,0,0,0-.82-.83Z"/><path class="cls-3" d="M35.74,50H29.57a2.83,2.83,0,0,1-2.83-2.82V41a2.83,2.83,0,0,1,2.83-2.83h6.17A2.83,2.83,0,0,1,38.56,41v6.17A2.82,2.82,0,0,1,35.74,50Zm-6.17-9.82a.83.83,0,0,0-.83.83v6.17a.83.83,0,0,0,.83.82h6.17a.82.82,0,0,0,.82-.82V41a.83.83,0,0,0-.82-.83Z"/><path class="cls-3" d="M35.74,34H29.57a2.83,2.83,0,0,1-2.83-2.82V25a2.83,2.83,0,0,1,2.83-2.83h6.17A2.83,2.83,0,0,1,38.56,25v6.17A2.82,2.82,0,0,1,35.74,34Zm-6.17-9.82a.83.83,0,0,0-.83.83v6.17a.82.82,0,0,0,.83.82h6.17a.82.82,0,0,0,.82-.82V25a.83.83,0,0,0-.82-.83Z"/></g></svg>