<svg xmlns="http://www.w3.org/2000/svg" viewBox="0 0 96 96"><defs><style>.cls-1{fill:#6d7ea8;}.cls-2{fill:#d1d3d4;}.cls-3{fill:#b3c4d0;}.cls-4{fill:#f1f2f2;}.cls-5{fill:#3c3264;}.cls-6{fill:#302d3d;}</style></defs><title>Vision</title><g id="Vision"><path class="cls-1" d="M95,48S74,72,48,72,1,48,1,48,22,24,48,24,95,48,95,48Z"/><path class="cls-2" d="M48,66.29C30.72,66.29,15.56,54.45,8.59,48c7-6.44,22.19-18.3,39.41-18.3S80.44,41.55,87.41,48C80.43,54.43,65.22,66.29,48,66.29Z"/><path class="cls-3" d="M80,36.61a2.75,2.75,0,0,0-1.23-2.29c-21.1-13.8-40.77-13.73-61.9.26a2.76,2.76,0,0,0,3,4.62C38.67,27,56.12,26.31,75.75,38.93A2.75,2.75,0,0,0,80,36.61Z"/><path class="cls-3" d="M80,59.36A2.75,2.75,0,0,0,75.75,57c-18.61,12-36.06,12.69-55.87-.22a2.75,2.75,0,0,0-4.24,2.32,2.72,2.72,0,0,0,1.21,2.28c21.11,14,40.78,14.08,61.9.26A2.75,2.75,0,0,0,80,59.36Z"/><path class="cls-2" d="M57.12,25a43.56,43.56,0,0,0-18.33,0,2.84,2.84,0,0,0,1.1,5.58,39.51,39.51,0,0,1,16.14,0A2.83,2.83,0,0,0,57.12,25Z"/><path class="cls-2" d="M56,65.46a39.35,39.35,0,0,1-16.14,0A2.84,2.84,0,0,0,38.79,71a43.72,43.72,0,0,0,18.33,0A2.84,2.84,0,0,0,56,65.46Z"/><path class="cls-4" d="M25.05,59.9a13.5,13.5,0,0,1,0-23.78c15.35-8.27,29.66-8.76,45.9,0a13.5,13.5,0,0,1,0,23.78C55.6,68.15,41.29,68.64,25.05,59.9Z"/><circle class="cls-1" cx="48" cy="48" r="18.29"/><circle class="cls-5" cx="48" cy="48" r="11.37"/><path class="cls-5" d="M48,86.75A2.75,2.75,0,0,1,45.25,84V81.75a2.75,2.75,0,0,1,5.5,0V84A2.75,2.75,0,0,1,48,86.75Z"/><path class="cls-5" d="M16.93,79.07a2.76,2.76,0,0,1,0-3.89l1.59-1.59a2.75,2.75,0,1,1,3.89,3.89l-1.59,1.59A2.76,2.76,0,0,1,16.93,79.07Z"/><path class="cls-5" d="M79.07,79.07a2.76,2.76,0,0,1-3.89,0l-1.59-1.59a2.75,2.75,0,1,1,3.89-3.89l1.59,1.59A2.76,2.76,0,0,1,79.07,79.07Z"/><path class="cls-5" d="M48,9.25A2.75,2.75,0,0,1,50.75,12v2.25a2.75,2.75,0,0,1-5.5,0V12A2.75,2.75,0,0,1,48,9.25Z"/><path class="cls-5" d="M79.07,16.93a2.76,2.76,0,0,1,0,3.89l-1.59,1.59a2.75,2.75,0,1,1-3.89-3.89l1.59-1.59A2.76,2.76,0,0,1,79.07,16.93Z"/><path class="cls-5" d="M16.93,16.93a2.76,2.76,0,0,1,3.89,0l1.59,1.59a2.75,2.75,0,0,1-3.89,3.89l-1.59-1.59A2.76,2.76,0,0,1,16.93,16.93Z"/><path class="cls-6" d="M48,73C21.89,73,1.12,49.65.25,48.66a1,1,0,0,1,0-1.32C1.12,46.35,21.89,23,48,23S94.88,46.35,95.75,47.34a1,1,0,0,1,0,1.32C94.88,49.65,74.11,73,48,73ZM2.36,48C6,51.83,25.21,71,48,71S90,51.83,93.64,48C90,44.17,70.79,25,48,25S6,44.17,2.36,48Z"/><path class="cls-6" d="M48,67.29c-17.42,0-32.59-11.62-40.09-18.55a1,1,0,0,1,0-1.47C15.44,40.34,30.65,28.71,48,28.71S80.6,40.33,88.09,47.26a1,1,0,0,1,0,1.47C80.57,55.66,65.35,67.29,48,67.29ZM10.07,48C17.6,54.79,31.86,65.29,48,65.29S78.37,54.78,85.93,48C78.4,41.21,64.14,30.71,48,30.71S17.63,41.22,10.07,48Z"/><path class="cls-6" d="M48,67.29A19.29,19.29,0,1,1,67.29,48,19.32,19.32,0,0,1,48,67.29Zm0-36.58A17.29,17.29,0,1,0,65.29,48,17.31,17.31,0,0,0,48,30.71Z"/><path class="cls-6" d="M48,60.37A12.37,12.37,0,1,1,60.38,48,12.39,12.39,0,0,1,48,60.37Zm0-22.74A10.37,10.37,0,1,0,58.38,48,10.38,10.38,0,0,0,48,37.63Z"/><path class="cls-6" d="M48,87.75A3.75,3.75,0,0,1,44.25,84V81.75a3.75,3.75,0,0,1,7.5,0V84A3.75,3.75,0,0,1,48,87.75ZM48,80a1.76,1.76,0,0,0-1.75,1.75V84a1.75,1.75,0,0,0,3.5,0V81.75A1.75,1.75,0,0,0,48,80Z"/><path class="cls-6" d="M16.23,79.77h0a3.74,3.74,0,0,1,0-5.3l1.59-1.59a3.75,3.75,0,0,1,5.3,5.3l-1.59,1.59A3.74,3.74,0,0,1,16.23,79.77Zm1.41-1.41a1.76,1.76,0,0,0,2.48,0l1.59-1.59a1.75,1.75,0,0,0-2.48-2.48l-1.59,1.59A1.75,1.75,0,0,0,17.64,78.36Z"/><path class="cls-6" d="M74.47,79.77l-1.59-1.59a3.75,3.75,0,0,1,5.3-5.3l1.59,1.59a3.74,3.74,0,0,1,0,5.3h0A3.74,3.74,0,0,1,74.47,79.77Zm4.6-.7h0Zm-3.54-5.29a1.76,1.76,0,0,0-1.24,3l1.6,1.59a1.79,1.79,0,0,0,2.47,0,1.75,1.75,0,0,0,0-2.48l-1.59-1.59A1.75,1.75,0,0,0,75.53,73.78Z"/><path class="cls-6" d="M48,18a3.75,3.75,0,0,1-3.75-3.75V12a3.75,3.75,0,0,1,7.5,0v2.25A3.75,3.75,0,0,1,48,18Zm0-7.75A1.76,1.76,0,0,0,46.25,12v2.25a1.75,1.75,0,0,0,3.5,0V12A1.75,1.75,0,0,0,48,10.25Z"/><path class="cls-6" d="M75.53,24.22a3.75,3.75,0,0,1-2.65-6.4l1.59-1.59a3.83,3.83,0,0,1,5.3,0h0a3.74,3.74,0,0,1,0,5.3l-1.59,1.59A3.74,3.74,0,0,1,75.53,24.22Zm1.59-7.09a1.73,1.73,0,0,0-1.23.51l-1.6,1.59a1.75,1.75,0,0,0,2.48,2.48l1.59-1.59A1.75,1.75,0,0,0,77.12,17.13Z"/><path class="cls-6" d="M20.47,24.22a3.74,3.74,0,0,1-2.65-1.1l-1.59-1.59a3.75,3.75,0,0,1,0-5.3h0a3.74,3.74,0,0,1,5.3,0l1.59,1.59A3.75,3.75,0,0,1,20.47,24.22Zm-2.83-6.58a1.75,1.75,0,0,0,0,2.48l1.59,1.59a1.75,1.75,0,0,0,2.48-2.48l-1.59-1.59A1.76,1.76,0,0,0,17.64,17.64Z"/></g></svg>