<svg xmlns="http://www.w3.org/2000/svg" viewBox="0 0 96 96"><defs><style>.cls-1{fill:#84aeea;}.cls-2{fill:#d2e7ff;}.cls-3{fill:#fff;}.cls-4{fill:#fe4a55;}.cls-5{fill:#ffca6e;}.cls-6{fill:#ffa64d;}.cls-7{fill:#4d6dc7;}.cls-8{fill:#302d3d;}</style></defs><title>Website</title><g id="Website"><rect class="cls-1" x="1.24" y="11.1" width="93.52" height="9.55"/><rect class="cls-2" x="1.24" y="11.1" width="93.52" height="5.77"/><path class="cls-2" d="M25.15,18.89l-3.35-6a3.4,3.4,0,0,0-3-1.76H1.24V85.27H94.76V20.65H28.13A3.4,3.4,0,0,1,25.15,18.89Z"/><path class="cls-3" d="M4.24,82.27V14.1H18.82a.41.41,0,0,1,.36.21l3.35,6a6.43,6.43,0,0,0,5.6,3.3H91.76V82.27Z"/><rect class="cls-4" x="85.21" y="11.1" width="9.55" height="9.55"/><rect class="cls-5" x="9.06" y="40.09" width="34.08" height="45.19"/><rect class="cls-6" x="9.06" y="80.45" width="34.08" height="4.83"/><rect class="cls-7" x="27.83" y="64.12" width="3.86" height="4.54"/><rect class="cls-7" x="35.14" y="64.12" width="3.86" height="4.54"/><rect class="cls-7" x="20.52" y="64.12" width="3.86" height="4.54"/><rect class="cls-7" x="27.83" y="54.75" width="3.86" height="4.54"/><rect class="cls-7" x="35.14" y="54.75" width="3.86" height="4.54"/><rect class="cls-7" x="20.52" y="54.75" width="3.86" height="4.54"/><rect class="cls-7" x="27.83" y="45.39" width="3.86" height="4.54"/><rect class="cls-7" x="35.14" y="45.39" width="3.86" height="4.54"/><rect class="cls-7" x="20.52" y="45.39" width="3.86" height="4.54"/><rect class="cls-7" x="13.21" y="64.12" width="3.86" height="4.54"/><rect class="cls-7" x="27.83" y="73.48" width="3.86" height="4.54"/><rect class="cls-7" x="35.14" y="73.48" width="3.86" height="4.54"/><rect class="cls-7" x="20.52" y="73.48" width="3.86" height="4.54"/><rect class="cls-7" x="13.21" y="73.48" width="3.86" height="4.54"/><rect class="cls-7" x="13.21" y="54.75" width="3.86" height="4.54"/><rect class="cls-7" x="13.21" y="45.39" width="3.86" height="4.54"/><path class="cls-7" d="M87.31,28.34V32.4a1.22,1.22,0,0,1-1.22,1.22H10.29A1.23,1.23,0,0,1,9.06,32.4V28.34a1.22,1.22,0,0,1,1.23-1.22h75.8A1.22,1.22,0,0,1,87.31,28.34Z"/><path class="cls-1" d="M87.31,28.34v.81a1.22,1.22,0,0,1-1.22,1.22H10.29a1.23,1.23,0,0,1-1.23-1.22v-.81a1.22,1.22,0,0,1,1.23-1.22h75.8A1.22,1.22,0,0,1,87.31,28.34Z"/><path class="cls-8" d="M94.76,21.65H1.24a1,1,0,0,1-1-1V11.1a1,1,0,0,1,1-1H94.76a1,1,0,0,1,1,1v9.55A1,1,0,0,1,94.76,21.65Zm-92.52-2H93.76V12.1H2.24Z"/><path class="cls-8" d="M94.76,86.27H1.24a1,1,0,0,1-1-1V11.1a1,1,0,0,1,1-1H18.82a4.42,4.42,0,0,1,3.86,2.27l3.34,6a2.44,2.44,0,0,0,2.11,1.24H94.76a1,1,0,0,1,1,1V85.27A1,1,0,0,1,94.76,86.27Zm-92.52-2H93.76V21.65H28.13a4.4,4.4,0,0,1-3.85-2.27h0l-3.35-6a2.44,2.44,0,0,0-2.11-1.24H2.24Z"/><path class="cls-8" d="M63.75,16.88H32.62a1,1,0,1,1,0-2H63.75a1,1,0,1,1,0,2Z"/><path class="cls-8" d="M94.76,21.65H85.21a1,1,0,0,1-1-1V11.1a1,1,0,0,1,1-1h9.55a1,1,0,0,1,1,1v9.55A1,1,0,0,1,94.76,21.65Zm-8.55-2h7.55V12.1H86.21Z"/><path class="cls-8" d="M91.38,18.27a1,1,0,0,1-.71-.29l-2.79-2.79a1,1,0,0,1,1.42-1.42l2.79,2.79A1,1,0,0,1,91.38,18.27Z"/><path class="cls-8" d="M88.59,18.27a1,1,0,0,1-.71-1.71l2.79-2.79a1,1,0,0,1,1.42,1.42L89.3,18A1,1,0,0,1,88.59,18.27Z"/><path class="cls-8" d="M43.15,86.27H9.06a1,1,0,0,1-1-1V40.09a1,1,0,0,1,1-1H43.15a1,1,0,0,1,1,1V85.27A1,1,0,0,1,43.15,86.27Zm-33.09-2H42.15V41.09H10.06Z"/><path class="cls-8" d="M31.69,69.66H27.83a1,1,0,0,1-1-1V64.12a1,1,0,0,1,1-1h3.86a1,1,0,0,1,1,1v4.54A1,1,0,0,1,31.69,69.66Zm-2.86-2h1.86V65.12H28.83Z"/><path class="cls-8" d="M39,69.66H35.14a1,1,0,0,1-1-1V64.12a1,1,0,0,1,1-1H39a1,1,0,0,1,1,1v4.54A1,1,0,0,1,39,69.66Zm-2.86-2H38V65.12H36.14Z"/><path class="cls-8" d="M24.38,69.66H20.52a1,1,0,0,1-1-1V64.12a1,1,0,0,1,1-1h3.86a1,1,0,0,1,1,1v4.54A1,1,0,0,1,24.38,69.66Zm-2.86-2h1.86V65.12H21.52Z"/><path class="cls-8" d="M31.69,60.3H27.83a1,1,0,0,1-1-1V54.75a1,1,0,0,1,1-1h3.86a1,1,0,0,1,1,1V59.3A1,1,0,0,1,31.69,60.3Zm-2.86-2h1.86V55.75H28.83Z"/><path class="cls-8" d="M39,60.3H35.14a1,1,0,0,1-1-1V54.75a1,1,0,0,1,1-1H39a1,1,0,0,1,1,1V59.3A1,1,0,0,1,39,60.3Zm-2.86-2H38V55.75H36.14Z"/><path class="cls-8" d="M24.38,60.3H20.52a1,1,0,0,1-1-1V54.75a1,1,0,0,1,1-1h3.86a1,1,0,0,1,1,1V59.3A1,1,0,0,1,24.38,60.3Zm-2.86-2h1.86V55.75H21.52Z"/><path class="cls-8" d="M31.69,50.93H27.83a1,1,0,0,1-1-1V45.39a1,1,0,0,1,1-1h3.86a1,1,0,0,1,1,1v4.54A1,1,0,0,1,31.69,50.93Zm-2.86-2h1.86V46.39H28.83Z"/><path class="cls-8" d="M39,50.93H35.14a1,1,0,0,1-1-1V45.39a1,1,0,0,1,1-1H39a1,1,0,0,1,1,1v4.54A1,1,0,0,1,39,50.93Zm-2.86-2H38V46.39H36.14Z"/><path class="cls-8" d="M24.38,50.93H20.52a1,1,0,0,1-1-1V45.39a1,1,0,0,1,1-1h3.86a1,1,0,0,1,1,1v4.54A1,1,0,0,1,24.38,50.93Zm-2.86-2h1.86V46.39H21.52Z"/><path class="cls-8" d="M17.07,69.66H13.21a1,1,0,0,1-1-1V64.12a1,1,0,0,1,1-1h3.86a1,1,0,0,1,1,1v4.54A1,1,0,0,1,17.07,69.66Zm-2.86-2h1.86V65.12H14.21Z"/><path class="cls-8" d="M31.69,79H27.83a1,1,0,0,1-1-1V73.48a1,1,0,0,1,1-1h3.86a1,1,0,0,1,1,1V78A1,1,0,0,1,31.69,79Zm-2.86-2h1.86V74.48H28.83Z"/><path class="cls-8" d="M39,79H35.14a1,1,0,0,1-1-1V73.48a1,1,0,0,1,1-1H39a1,1,0,0,1,1,1V78A1,1,0,0,1,39,79Zm-2.86-2H38V74.48H36.14Z"/><path class="cls-8" d="M24.38,79H20.52a1,1,0,0,1-1-1V73.48a1,1,0,0,1,1-1h3.86a1,1,0,0,1,1,1V78A1,1,0,0,1,24.38,79Zm-2.86-2h1.86V74.48H21.52Z"/><path class="cls-8" d="M17.07,79H13.21a1,1,0,0,1-1-1V73.48a1,1,0,0,1,1-1h3.86a1,1,0,0,1,1,1V78A1,1,0,0,1,17.07,79Zm-2.86-2h1.86V74.48H14.21Z"/><path class="cls-8" d="M17.07,60.3H13.21a1,1,0,0,1-1-1V54.75a1,1,0,0,1,1-1h3.86a1,1,0,0,1,1,1V59.3A1,1,0,0,1,17.07,60.3Zm-2.86-2h1.86V55.75H14.21Z"/><path class="cls-8" d="M17.07,50.93H13.21a1,1,0,0,1-1-1V45.39a1,1,0,0,1,1-1h3.86a1,1,0,0,1,1,1v4.54A1,1,0,0,1,17.07,50.93Zm-2.86-2h1.86V46.39H14.21Z"/><path class="cls-8" d="M86.09,34.62H10.29A2.23,2.23,0,0,1,8.06,32.4V28.34a2.22,2.22,0,0,1,2.23-2.22h75.8a2.22,2.22,0,0,1,2.22,2.22V32.4A2.23,2.23,0,0,1,86.09,34.62Zm-75.8-6.5a.22.22,0,0,0-.23.22V32.4c0,.34-5.18.22,76,.22a.22.22,0,0,0,.22-.22V28.34C86.31,28,91.5,28.12,10.29,28.12Z"/><path class="cls-8" d="M81.83,41.09H51.25a1,1,0,0,1,0-2H81.83a1,1,0,0,1,0,2Z"/><path class="cls-8" d="M81.83,46.39H51.25a1,1,0,0,1,0-2H81.83a1,1,0,0,1,0,2Z"/><path class="cls-8" d="M81.83,51.69H51.25a1,1,0,0,1,0-2H81.83a1,1,0,0,1,0,2Z"/><path class="cls-8" d="M81.83,57H51.25a1,1,0,0,1,0-2H81.83a1,1,0,0,1,0,2Z"/><path class="cls-8" d="M81.83,62.29H51.25a1,1,0,0,1,0-2H81.83a1,1,0,0,1,0,2Z"/><path class="cls-8" d="M61.25,67.59h-10a1,1,0,0,1,0-2h10a1,1,0,0,1,0,2Z"/><path class="cls-8" d="M81.83,79H51.25a1,1,0,0,1-1-1V72a1,1,0,0,1,1-1H81.83a1,1,0,0,1,1,1v6A1,1,0,0,1,81.83,79ZM52.25,77H80.83V73H52.25Z"/></g></svg>