<svg xmlns="http://www.w3.org/2000/svg" viewBox="0 0 96 96"><defs><style>.cls-1{fill:#3ab67d;}.cls-2{fill:#3a9869;}.cls-3{fill:#44cf87;}.cls-4{fill:#fff;}.cls-5{fill:#302d3d;}.cls-6{fill:#e9ecef;}.cls-7{fill:#ffa68d;}.cls-8{fill:#ffc088;}.cls-9{fill:#ffd9b5;}.cls-10{fill:#ff736e;}.cls-11{fill:#fb8d74;}.cls-12{fill:#3f3c6a;}.cls-13{fill:#302856;}.cls-14{fill:#4e5088;}.cls-15{fill:#4e5fba;}.cls-16{fill:#fbc4ab;}.cls-17{fill:#5f83cf;}.cls-18{fill:#87b5e3;}.cls-19{fill:#b2e6ff;}.cls-20{fill:#71a5d8;}.cls-21{fill:#a8dcfb;}.cls-22{fill:#4e69b5;}</style></defs><title>Working Time</title><g id="Working_Time" data-name="Working Time"><circle class="cls-1" cx="28.04" cy="44.2" r="27.04"/><path class="cls-2" d="M48.49,51.32A21.77,21.77,0,0,1,34,65a2.69,2.69,0,0,0,1.36,5.21,27.1,27.1,0,0,0,18.2-17.11,2.69,2.69,0,1,0-5.06-1.81Z"/><path class="cls-3" d="M7.59,37.08A21.74,21.74,0,0,1,22.1,23.37a2.73,2.73,0,0,0,2-2.6,2.68,2.68,0,0,0-3.38-2.61A27.06,27.06,0,0,0,2.54,35.27a2.68,2.68,0,1,0,5.05,1.81Z"/><path class="cls-4" d="M28,65.86A21.67,21.67,0,1,1,49.71,44.2,21.69,21.69,0,0,1,28,65.86Z"/><path class="cls-5" d="M28,29.78a1,1,0,0,1-1-1V26a1,1,0,0,1,2,0v2.78A1,1,0,0,1,28,29.78Z"/><path class="cls-5" d="M18.12,33.38a1,1,0,0,1-.77-.35L15.57,30.9a1,1,0,1,1,1.53-1.29l1.79,2.13A1,1,0,0,1,18.12,33.38Z"/><path class="cls-5" d="M12.85,42.52c-.12,0,.08,0-2.91-.5a1,1,0,0,1-.82-1.16,1,1,0,0,1,1.16-.81l2.74.48a1,1,0,0,1-.17,2Z"/><path class="cls-5" d="M12.27,54.3a1,1,0,0,1-.5-1.87L14.18,51a1,1,0,0,1,1,1.73C12.58,54.28,12.63,54.3,12.27,54.3Z"/><path class="cls-5" d="M21.81,62.3A1,1,0,0,1,20.87,61l.95-2.61A1,1,0,1,1,23.7,59l-.95,2.61A1,1,0,0,1,21.81,62.3Z"/><path class="cls-5" d="M43.79,54.3c-.35,0-.26,0-2.9-1.53a1,1,0,0,1-.37-1.36A1,1,0,0,1,41.89,51l2.4,1.39A1,1,0,0,1,43.79,54.3Z"/><path class="cls-5" d="M43.22,42.52a1,1,0,0,1-.18-2l2.74-.48a1,1,0,0,1,1.16.81A1,1,0,0,1,46.13,42C43.32,42.52,43.35,42.52,43.22,42.52Z"/><path class="cls-5" d="M28,66.86A22.67,22.67,0,1,1,50.7,44.2,22.69,22.69,0,0,1,28,66.86Zm0-43.33A20.67,20.67,0,1,0,48.7,44.2,20.69,20.69,0,0,0,28,23.53Z"/><path class="cls-5" d="M28,72.24a28,28,0,1,1,28-28A28.07,28.07,0,0,1,28,72.24Zm0-54.09a26,26,0,1,0,26,26.05A26.08,26.08,0,0,0,28,18.15Z"/><path class="cls-6" d="M89.79,88.47H29.66L34.87,65a13.31,13.31,0,0,1,9.29-9.89l9.24-2.66H66l9.24,2.66A13.29,13.29,0,0,1,84.57,65Z"/><path class="cls-5" d="M89.78,89.47H29.65a1,1,0,0,1-1-1.22l5.22-23.48a14.27,14.27,0,0,1,10-10.63l9.24-2.66c.2-.06-.58,0,12.92,0,.21,0-.58-.21,9.52,2.7a14.3,14.3,0,0,1,10,10.63l5.21,23.48A1,1,0,0,1,89.78,89.47Zm-58.89-2H88.53l-5-22.27A12.27,12.27,0,0,0,75,56.06l-9.1-2.62H53.53l-9.1,2.62a12.28,12.28,0,0,0-8.59,9.14Z"/><polygon class="cls-7" points="66.04 43.31 66.04 52.44 59.72 64.45 53.4 52.44 53.4 43.31 66.04 43.31"/><rect class="cls-8" x="8.13" y="88.47" width="86.87" height="5.59"/><rect class="cls-9" x="21.84" y="88.47" width="59.44" height="5.59"/><rect class="cls-4" x="40.25" y="89.76" width="22.64" height="3.01" rx="0.71"/><path class="cls-10" d="M32.61,88.47H19.19l.71-3.61a3.77,3.77,0,0,1,3.71-3.06h4.58a3.78,3.78,0,0,1,3.71,3.06Z"/><path class="cls-11" d="M66,43.31v7.74A19.81,19.81,0,0,1,53.4,51V43.31Z"/><path class="cls-5" d="M58.83,64.91l-6.33-12c-.16-.31-.11.34-.11-9.59a1,1,0,0,1,1-1H66a1,1,0,0,1,1,1v9.13c0,.35.48-.66-6.43,12.47A1,1,0,0,1,58.83,64.91ZM54.39,52.19,59.71,62.3,65,52.19V44.31H54.39ZM66,52.44h0Z"/><path class="cls-12" d="M62,1.94H41.54a17.38,17.38,0,0,0,3.4,5.47,17,17,0,0,0-4.6,11.66v7.61H79.1V19.07A17.13,17.13,0,0,0,62,1.94Z"/><rect class="cls-13" x="40.34" y="20.49" width="38.76" height="6.18"/><path class="cls-14" d="M65.36,10.37H53.2a6.32,6.32,0,0,1-5-2.46L46.84,6.14a1.15,1.15,0,0,1,.91-1.85c15,0,15.7-.21,18.46.62A2.8,2.8,0,0,1,65.36,10.37Z"/><path class="cls-15" d="M60.85,6.59H56a1.15,1.15,0,1,1,0-2.3h4.84a1.15,1.15,0,0,1,0,2.3Z"/><path class="cls-5" d="M79.09,27.68H40.33a1,1,0,0,1-1-1V19.07A18,18,0,0,1,43.6,7.41a18.37,18.37,0,0,1-3-5.11A1,1,0,0,1,41.53.94H62A18.15,18.15,0,0,1,80.09,19.07v7.61A1,1,0,0,1,79.09,27.68Zm-37.76-2H78.09V19.07A16.14,16.14,0,0,0,62,2.94H43.06a16.09,16.09,0,0,0,2.61,3.79,1,1,0,0,1,0,1.36,16,16,0,0,0-4.34,11Z"/><path class="cls-7" d="M82.59,30.31A3.64,3.64,0,0,1,79,34H40.49a3.64,3.64,0,1,1,0-7.27H79A3.64,3.64,0,0,1,82.59,30.31Z"/><path class="cls-11" d="M78.62,26.68c0,4.94,0,6-.09,7.27H40.91a72.39,72.39,0,0,1-.09-7.27Z"/><path class="cls-5" d="M79.2,35h-39a4.39,4.39,0,0,1-4.38-4.38v-.51a4.39,4.39,0,0,1,4.38-4.38h39a4.39,4.39,0,0,1,4.38,4.38v.51A4.39,4.39,0,0,1,79.2,35Zm-39-7.27a2.38,2.38,0,0,0-2.38,2.38v.51A2.39,2.39,0,0,0,40.22,33h39a2.39,2.39,0,0,0,2.38-2.38v-.51a2.38,2.38,0,0,0-2.38-2.38Z"/><path class="cls-16" d="M76.63,26.67v5.51a16.91,16.91,0,0,1-33.82,0V26.67l3.13-4A6.32,6.32,0,0,0,47.27,19l.19-5a2.12,2.12,0,0,1,2.12-2,78.35,78.35,0,0,0,20,0,2.12,2.12,0,0,1,2.38,2l.19,5a6.25,6.25,0,0,0,1.33,3.65Z"/><path class="cls-17" d="M31.19,44.2H24.9l1.33-10.66A1.82,1.82,0,0,1,28,31.94a1.84,1.84,0,0,1,1.82,1.6Z"/><path class="cls-5" d="M31.18,45.2H24.89a1,1,0,0,1-1-1.13l1.33-10.65a2.83,2.83,0,0,1,5.61,0l1.33,10.65A1,1,0,0,1,31.18,45.2ZM26,43.2h4l-1.19-9.54a.83.83,0,0,0-1.64,0Z"/><path class="cls-5" d="M22.4,52.72a2.89,2.89,0,0,1-2.33-4.59L25,41.38a1,1,0,0,1,1.52-.11L31,45.71a1,1,0,0,1-.11,1.52L24.1,52.16A2.91,2.91,0,0,1,22.4,52.72Zm3.53-9.21-4.24,5.8a.88.88,0,0,0,1.23,1.23l5.8-4.24Z"/><path class="cls-17" d="M25.82,42l4.45,4.45-6.75,4.93a1.88,1.88,0,0,1-2.63-2.63Z"/><path class="cls-18" d="M28,47.53a3.34,3.34,0,1,1,3.34-3.33A3.34,3.34,0,0,1,28,47.53Z"/><path class="cls-5" d="M95,95.06H8.12a1,1,0,0,1-1-1V88.47a1,1,0,0,1,1-1H95a1,1,0,0,1,1,1v5.59A1,1,0,0,1,95,95.06Zm-85.87-2H94V89.47H9.12Z"/><path class="cls-5" d="M32.6,89.47H19.18a1,1,0,0,1-1-1.19l.7-3.61a4.81,4.81,0,0,1,4.7-3.87h4.58a4.8,4.8,0,0,1,4.69,3.87l.71,3.61A1,1,0,0,1,32.6,89.47Zm-12.21-2h11l-.47-2.42a2.8,2.8,0,0,0-2.73-2.25H23.6a2.79,2.79,0,0,0-2.73,2.25Z"/><path class="cls-5" d="M25.89,86.14a1,1,0,0,1-1-1V81.8a1,1,0,0,1,2,0v3.34A1,1,0,0,1,25.89,86.14Z"/><path class="cls-5" d="M44.92,8.4a1,1,0,0,1-.73-1.69,18.5,18.5,0,0,1,3.39-2.85,1,1,0,0,1,1.09,1.68C45.78,7.42,45.84,8.4,44.92,8.4Z"/><path class="cls-5" d="M59.71,50.08A17.93,17.93,0,0,1,41.8,32.18V26.67c0-.46-.11-.2,3.34-4.6A5.25,5.25,0,0,0,46.26,19l.19-4.95a3.11,3.11,0,0,1,3.49-3,77.33,77.33,0,0,0,19.53,0,3.12,3.12,0,0,1,3.5,3L73.16,19a5.37,5.37,0,0,0,1.12,3.08l3.13,4c.29.37.21.21.21,6.12A17.92,17.92,0,0,1,59.71,50.08ZM43.8,27v5.16a15.91,15.91,0,0,0,31.82,0V27l-2.91-3.71a7.34,7.34,0,0,1-1.55-4.24l-.19-5a1.1,1.1,0,0,0-.39-.81c-.55-.46-.72-.2-3.86.06a79.19,79.19,0,0,1-17-.31,1.11,1.11,0,0,0-1.26,1.06l-.19,5a7.34,7.34,0,0,1-1.54,4.22Z"/><path class="cls-5" d="M66.46,28.47a1,1,0,0,1-1-1v-.75a1,1,0,0,1,2,0v.75A1,1,0,0,1,66.46,28.47Z"/><path class="cls-5" d="M68.18,24.4H64.74a1,1,0,1,1,0-2h3.44a1,1,0,0,1,0,2Z"/><path class="cls-5" d="M53,28.47a1,1,0,0,1-1-1v-.75a1,1,0,0,1,2,0v.75A1,1,0,0,1,53,28.47Z"/><path class="cls-5" d="M54.68,24.4H51.24a1,1,0,0,1,0-2h3.44a1,1,0,0,1,0,2Z"/><path class="cls-5" d="M55.47,39.65a1,1,0,1,1,1.65-1.12,3.13,3.13,0,0,0,5.19,0,1,1,0,0,1,1.39-.28A1,1,0,0,1,64,39.61,5.12,5.12,0,0,1,55.47,39.65Z"/><path class="cls-5" d="M68.18,17.29a1,1,0,0,1-1-.89l-.44-4a1,1,0,0,1,2-.21l.44,4A1,1,0,0,1,68.18,17.29Z"/><path class="cls-5" d="M28,48.53a4.34,4.34,0,1,1,4.33-4.33A4.33,4.33,0,0,1,28,48.53Zm0-6.67a2.34,2.34,0,1,0,2.33,2.34A2.34,2.34,0,0,0,28,41.86Z"/><polygon class="cls-19" points="81.28 83.29 38.16 83.29 34.79 57.65 84.65 57.65 81.28 83.29"/><polygon class="cls-20" points="35.37 62.11 38.16 83.29 81.28 83.29 84.07 62.11 35.37 62.11"/><polygon class="cls-21" points="40.79 80.29 38.4 62.11 81.04 62.11 78.65 80.29 40.79 80.29"/><path class="cls-5" d="M81.27,84.29H38.15a1,1,0,0,1-1-.87L33.79,57.78a1,1,0,0,1,1-1.13H84.64a1,1,0,0,1,1,1.13L82.27,83.42A1,1,0,0,1,81.27,84.29ZM39,82.29H80.4l3.1-23.64H35.92Z"/><rect class="cls-22" x="38.16" y="83.29" width="43.13" height="5.18"/><circle class="cls-4" cx="59.72" cy="70.47" r="3.61"/><path class="cls-5" d="M81.27,89.47H38.15a1,1,0,0,1-1-1V83.29a1,1,0,0,1,1-1H81.27a1,1,0,0,1,1,1v5.18A1,1,0,0,1,81.27,89.47Zm-42.12-2H80.27V84.29H39.15Z"/><path class="cls-5" d="M59.71,75.08a4.61,4.61,0,1,1,4.61-4.61A4.62,4.62,0,0,1,59.71,75.08Zm0-7.22a2.61,2.61,0,1,0,2.61,2.61A2.61,2.61,0,0,0,59.71,67.86Z"/></g></svg>